<?xml version="1.0" encoding="UTF-8" standalone="no"?>
<!DOCTYPE svg PUBLIC "-//W3C//DTD SVG 1.1//EN"
 "http://www.w3.org/Graphics/SVG/1.1/DTD/svg11.dtd">
<!-- Generated by graphviz version 2.40.1 (20161225.0304)
 -->
<!-- Title: dependency&#45;cruiser output Pages: 1 -->
<svg width="885pt" height="822pt"
 viewBox="0.00 0.00 884.72 822.00" xmlns="http://www.w3.org/2000/svg" xmlns:xlink="http://www.w3.org/1999/xlink">
<g id="graph0" class="graph" transform="scale(1 1) rotate(0) translate(4 818)">
<title>dependency&#45;cruiser output</title>
<polygon fill="#ffffff" stroke="transparent" points="-4,4 -4,-818 880.7241,-818 880.7241,4 -4,4"/>
<g id="clust1" class="cluster">
<title>cluster_lib</title>
<path fill="#ffffff" stroke="#000000" stroke-width="2" d="M20,-8C20,-8 856.7241,-8 856.7241,-8 862.7241,-8 868.7241,-14 868.7241,-20 868.7241,-20 868.7241,-794 868.7241,-794 868.7241,-800 862.7241,-806 856.7241,-806 856.7241,-806 20,-806 20,-806 14,-806 8,-800 8,-794 8,-794 8,-20 8,-20 8,-14 14,-8 20,-8"/>
<text text-anchor="middle" x="438.3621" y="-794.8" font-family="Helvetica,sans-Serif" font-weight="bold" font-size="9.00" fill="#000000">lib</text>
</g>
<g id="clust2" class="cluster">
<title>cluster_lib/data</title>
<path fill="#ffffff" stroke="#000000" stroke-width="2" d="M526.1274,-16C526.1274,-16 618.1685,-16 618.1685,-16 624.1685,-16 630.1685,-22 630.1685,-28 630.1685,-28 630.1685,-142 630.1685,-142 630.1685,-148 624.1685,-154 618.1685,-154 618.1685,-154 526.1274,-154 526.1274,-154 520.1274,-154 514.1274,-148 514.1274,-142 514.1274,-142 514.1274,-28 514.1274,-28 514.1274,-22 520.1274,-16 526.1274,-16"/>
<text text-anchor="middle" x="572.1479" y="-142.8" font-family="Helvetica,sans-Serif" font-weight="bold" font-size="9.00" fill="#000000">data</text>
</g>
<g id="clust3" class="cluster">
<title>cluster_lib/gen&#45;dinamic&#45;data</title>
<path fill="#ffffff" stroke="#000000" stroke-width="2" d="M267.5518,-162C267.5518,-162 848.7241,-162 848.7241,-162 854.7241,-162 860.7241,-168 860.7241,-174 860.7241,-174 860.7241,-564 860.7241,-564 860.7241,-570 854.7241,-576 848.7241,-576 848.7241,-576 267.5518,-576 267.5518,-576 261.5518,-576 255.5518,-570 255.5518,-564 255.5518,-564 255.5518,-174 255.5518,-174 255.5518,-168 261.5518,-162 267.5518,-162"/>
<text text-anchor="middle" x="558.1379" y="-564.8" font-family="Helvetica,sans-Serif" font-weight="bold" font-size="9.00" fill="#000000">gen&#45;dinamic&#45;data</text>
</g>
<g id="clust4" class="cluster">
<title>cluster_lib/gen&#45;dinamic&#45;data/gen&#45;address</title>
<path fill="#ffffff" stroke="#000000" stroke-width="2" d="M410.3589,-314C410.3589,-314 614.165,-314 614.165,-314 620.165,-314 626.165,-320 626.165,-326 626.165,-326 626.165,-440 626.165,-440 626.165,-446 620.165,-452 614.165,-452 614.165,-452 410.3589,-452 410.3589,-452 404.3589,-452 398.3589,-446 398.3589,-440 398.3589,-440 398.3589,-326 398.3589,-326 398.3589,-320 404.3589,-314 410.3589,-314"/>
<text text-anchor="middle" x="512.262" y="-440.8" font-family="Helvetica,sans-Serif" font-weight="bold" font-size="9.00" fill="#000000">gen&#45;address</text>
</g>
<g id="clust5" class="cluster">
<title>cluster_lib/gen&#45;dinamic&#45;data/gen&#45;national&#45;id</title>
<path fill="#ffffff" stroke="#000000" stroke-width="2" d="M410.3589,-170C410.3589,-170 840.7241,-170 840.7241,-170 846.7241,-170 852.7241,-176 852.7241,-182 852.7241,-182 852.7241,-268 852.7241,-268 852.7241,-274 846.7241,-280 840.7241,-280 840.7241,-280 410.3589,-280 410.3589,-280 404.3589,-280 398.3589,-274 398.3589,-268 398.3589,-268 398.3589,-182 398.3589,-182 398.3589,-176 404.3589,-170 410.3589,-170"/>
<text text-anchor="middle" x="625.5415" y="-268.8" font-family="Helvetica,sans-Serif" font-weight="bold" font-size="9.00" fill="#000000">gen&#45;national&#45;id</text>
</g>
<g id="clust6" class="cluster">
<title>cluster_lib/gen&#45;dinamic&#45;data/gen&#45;national&#45;id/it.national&#45;id</title>
<path fill="#ffffff" stroke="#000000" stroke-width="2" d="M549.1479,-178C549.1479,-178 832.7241,-178 832.7241,-178 838.7241,-178 844.7241,-184 844.7241,-190 844.7241,-190 844.7241,-217 844.7241,-217 844.7241,-223 838.7241,-229 832.7241,-229 832.7241,-229 549.1479,-229 549.1479,-229 543.1479,-229 537.1479,-223 537.1479,-217 537.1479,-217 537.1479,-190 537.1479,-190 537.1479,-184 543.1479,-178 549.1479,-178"/>
<text text-anchor="middle" x="690.936" y="-217.8" font-family="Helvetica,sans-Serif" font-weight="bold" font-size="9.00" fill="#000000">it.national&#45;id</text>
</g>
<g id="clust7" class="cluster">
<title>cluster_lib/get&#45;static&#45;data</title>
<path fill="#ffffff" stroke="#000000" stroke-width="2" d="M286.571,-584C286.571,-584 494.1274,-584 494.1274,-584 500.1274,-584 506.1274,-590 506.1274,-596 506.1274,-596 506.1274,-710 506.1274,-710 506.1274,-716 500.1274,-722 494.1274,-722 494.1274,-722 286.571,-722 286.571,-722 280.571,-722 274.571,-716 274.571,-710 274.571,-710 274.571,-596 274.571,-596 274.571,-590 280.571,-584 286.571,-584"/>
<text text-anchor="middle" x="390.3492" y="-710.8" font-family="Helvetica,sans-Serif" font-weight="bold" font-size="9.00" fill="#000000">get&#45;static&#45;data</text>
</g>
<g id="clust8" class="cluster">
<title>cluster_lib/profile</title>
<path fill="#ffffff" stroke="#000000" stroke-width="2" d="M90,-74C90,-74 343.3286,-74 343.3286,-74 349.3286,-74 355.3286,-80 355.3286,-86 355.3286,-86 355.3286,-142 355.3286,-142 355.3286,-148 349.3286,-154 343.3286,-154 343.3286,-154 90,-154 90,-154 84,-154 78,-148 78,-142 78,-142 78,-86 78,-86 78,-80 84,-74 90,-74"/>
<text text-anchor="middle" x="216.6643" y="-142.8" font-family="Helvetica,sans-Serif" font-weight="bold" font-size="9.00" fill="#000000">profile</text>
</g>
<g id="clust9" class="cluster">
<title>cluster_lib/util</title>
<path fill="#ffffff" stroke="#000000" stroke-width="2" d="M650.1685,-584C650.1685,-584 827.9629,-584 827.9629,-584 833.9629,-584 839.9629,-590 839.9629,-596 839.9629,-596 839.9629,-769 839.9629,-769 839.9629,-775 833.9629,-781 827.9629,-781 827.9629,-781 650.1685,-781 650.1685,-781 644.1685,-781 638.1685,-775 638.1685,-769 638.1685,-769 638.1685,-596 638.1685,-596 638.1685,-590 644.1685,-584 650.1685,-584"/>
<text text-anchor="middle" x="739.0657" y="-769.8" font-family="Helvetica,sans-Serif" font-weight="bold" font-size="9.00" fill="#000000">util</text>
</g>
<g id="clust10" class="cluster">
<title>cluster_lib/util/get&#45;random&#45;user</title>
<path fill="#ffffff" stroke="#000000" stroke-width="2" d="M661.6667,-705C661.6667,-705 744.7034,-705 744.7034,-705 750.7034,-705 756.7034,-711 756.7034,-717 756.7034,-717 756.7034,-744 756.7034,-744 756.7034,-750 750.7034,-756 744.7034,-756 744.7034,-756 661.6667,-756 661.6667,-756 655.6667,-756 649.6667,-750 649.6667,-744 649.6667,-744 649.6667,-717 649.6667,-717 649.6667,-711 655.6667,-705 661.6667,-705"/>
<text text-anchor="middle" x="703.1851" y="-744.8" font-family="Helvetica,sans-Serif" font-weight="bold" font-size="9.00" fill="#000000">get&#45;random&#45;user</text>
</g>
<!-- lib/data/countries&#45;available.js -->
<g id="node1" class="node">
<title>lib/data/countries&#45;available.js</title>
<g id="a_node1"><a xlink:href="lib/data/countries-available.js" xlink:title="countries&#45;available.js">
<path fill="#ffffcc" stroke="#000000" d="M616.5223,-128.5C616.5223,-128.5 527.7736,-128.5 527.7736,-128.5 524.9403,-128.5 522.1069,-125.6667 522.1069,-122.8333 522.1069,-122.8333 522.1069,-117.1667 522.1069,-117.1667 522.1069,-114.3333 524.9403,-111.5 527.7736,-111.5 527.7736,-111.5 616.5223,-111.5 616.5223,-111.5 619.3556,-111.5 622.189,-114.3333 622.189,-117.1667 622.189,-117.1667 622.189,-122.8333 622.189,-122.8333 622.189,-125.6667 619.3556,-128.5 616.5223,-128.5"/>
<text text-anchor="middle" x="572.1479" y="-117.3" font-family="Helvetica,sans-Serif" font-size="9.00" fill="#000000">countries&#45;available.js</text>
</a>
</g>
</g>
<!-- lib/data/country&#45;list.js -->
<g id="node2" class="node">
<title>lib/data/country&#45;list.js</title>
<g id="a_node2"><a xlink:href="lib/data/country-list.js" xlink:title="country&#45;list.js">
<path fill="#ffffcc" stroke="#000000" d="M600.4933,-70.5C600.4933,-70.5 543.8026,-70.5 543.8026,-70.5 540.9693,-70.5 538.136,-67.6667 538.136,-64.8333 538.136,-64.8333 538.136,-59.1667 538.136,-59.1667 538.136,-56.3333 540.9693,-53.5 543.8026,-53.5 543.8026,-53.5 600.4933,-53.5 600.4933,-53.5 603.3266,-53.5 606.1599,-56.3333 606.1599,-59.1667 606.1599,-59.1667 606.1599,-64.8333 606.1599,-64.8333 606.1599,-67.6667 603.3266,-70.5 600.4933,-70.5"/>
<text text-anchor="middle" x="572.1479" y="-59.3" font-family="Helvetica,sans-Serif" font-size="9.00" fill="#000000">country&#45;list.js</text>
</a>
</g>
</g>
<!-- lib/data/mccs&#45;available.js -->
<g id="node3" class="node">
<title>lib/data/mccs&#45;available.js</title>
<g id="a_node3"><a xlink:href="lib/data/mccs-available.js" xlink:title="mccs&#45;available.js">
<path fill="#ffffcc" stroke="#000000" d="M608.5022,-41.5C608.5022,-41.5 535.7937,-41.5 535.7937,-41.5 532.9604,-41.5 530.1271,-38.6667 530.1271,-35.8333 530.1271,-35.8333 530.1271,-30.1667 530.1271,-30.1667 530.1271,-27.3333 532.9604,-24.5 535.7937,-24.5 535.7937,-24.5 608.5022,-24.5 608.5022,-24.5 611.3355,-24.5 614.1688,-27.3333 614.1688,-30.1667 614.1688,-30.1667 614.1688,-35.8333 614.1688,-35.8333 614.1688,-38.6667 611.3355,-41.5 608.5022,-41.5"/>
<text text-anchor="middle" x="572.1479" y="-30.3" font-family="Helvetica,sans-Serif" font-size="9.00" fill="#000000">mccs&#45;available.js</text>
</a>
</g>
</g>
<!-- lib/data/names&#45;list.js -->
<g id="node4" class="node">
<title>lib/data/names&#45;list.js</title>
<g id="a_node4"><a xlink:href="lib/data/names-list.js" xlink:title="names&#45;list.js">
<path fill="#ffffcc" stroke="#000000" d="M599.491,-99.5C599.491,-99.5 544.8048,-99.5 544.8048,-99.5 541.9715,-99.5 539.1382,-96.6667 539.1382,-93.8333 539.1382,-93.8333 539.1382,-88.1667 539.1382,-88.1667 539.1382,-85.3333 541.9715,-82.5 544.8048,-82.5 544.8048,-82.5 599.491,-82.5 599.491,-82.5 602.3244,-82.5 605.1577,-85.3333 605.1577,-88.1667 605.1577,-88.1667 605.1577,-93.8333 605.1577,-93.8333 605.1577,-96.6667 602.3244,-99.5 599.491,-99.5"/>
<text text-anchor="middle" x="572.1479" y="-88.3" font-family="Helvetica,sans-Serif" font-size="9.00" fill="#000000">names&#45;list.js</text>
</a>
</g>
</g>
<!-- lib/gen&#45;dinamic&#45;data/example.js -->
<g id="node5" class="node">
<title>lib/gen&#45;dinamic&#45;data/example.js</title>
<g id="a_node5"><a xlink:href="lib/gen-dinamic-data/example.js" xlink:title="example.js">
<path fill="#ffffcc" stroke="#000000" d="M333.4224,-550.5C333.4224,-550.5 285.7196,-550.5 285.7196,-550.5 282.8863,-550.5 280.053,-547.6667 280.053,-544.8333 280.053,-544.8333 280.053,-539.1667 280.053,-539.1667 280.053,-536.3333 282.8863,-533.5 285.7196,-533.5 285.7196,-533.5 333.4224,-533.5 333.4224,-533.5 336.2558,-533.5 339.0891,-536.3333 339.0891,-539.1667 339.0891,-539.1667 339.0891,-544.8333 339.0891,-544.8333 339.0891,-547.6667 336.2558,-550.5 333.4224,-550.5"/>
<text text-anchor="middle" x="309.571" y="-539.3" font-family="Helvetica,sans-Serif" font-size="9.00" fill="#000000">example.js</text>
</a>
</g>
</g>
<!-- lib/gen&#45;dinamic&#45;data/gen&#45;anagrafica.js -->
<g id="node11" class="node">
<title>lib/gen&#45;dinamic&#45;data/gen&#45;anagrafica.js</title>
<g id="a_node11"><a xlink:href="lib/gen-dinamic-data/gen-anagrafica.js" xlink:title="gen&#45;anagrafica.js">
<path fill="#ffffcc" stroke="#000000" d="M470.2347,-550.5C470.2347,-550.5 396.4831,-550.5 396.4831,-550.5 393.6497,-550.5 390.8164,-547.6667 390.8164,-544.8333 390.8164,-544.8333 390.8164,-539.1667 390.8164,-539.1667 390.8164,-536.3333 393.6497,-533.5 396.4831,-533.5 396.4831,-533.5 470.2347,-533.5 470.2347,-533.5 473.068,-533.5 475.9014,-536.3333 475.9014,-539.1667 475.9014,-539.1667 475.9014,-544.8333 475.9014,-544.8333 475.9014,-547.6667 473.068,-550.5 470.2347,-550.5"/>
<text text-anchor="middle" x="433.3589" y="-539.3" font-family="Helvetica,sans-Serif" font-size="9.00" fill="#000000">gen&#45;anagrafica.js</text>
</a>
</g>
</g>
<!-- lib/gen&#45;dinamic&#45;data/example.js&#45;&gt;lib/gen&#45;dinamic&#45;data/gen&#45;anagrafica.js -->
<g id="edge1" class="edge">
<title>lib/gen&#45;dinamic&#45;data/example.js&#45;&gt;lib/gen&#45;dinamic&#45;data/gen&#45;anagrafica.js</title>
<path fill="none" stroke="#000000" stroke-width="2" stroke-opacity="0.466667" d="M339.2213,-542C351.5384,-542 366.2191,-542 380.2801,-542"/>
<polygon fill="#000000" fill-opacity="0.466667" stroke="#000000" stroke-width="2" stroke-opacity="0.466667" points="380.3666,-545.5001 390.3666,-542 380.3665,-538.5001 380.3666,-545.5001"/>
</g>
<!-- lib/gen&#45;dinamic&#45;data/gen&#45;address/br.address.js -->
<g id="node6" class="node">
<title>lib/gen&#45;dinamic&#45;data/gen&#45;address/br.address.js</title>
<g id="a_node6"><a xlink:href="lib/gen-dinamic-data/gen-address/br.address.js" xlink:title="br.address.js">
<path fill="#ffffcc" stroke="#000000" d="M600.0106,-368.5C600.0106,-368.5 544.2853,-368.5 544.2853,-368.5 541.452,-368.5 538.6186,-365.6667 538.6186,-362.8333 538.6186,-362.8333 538.6186,-357.1667 538.6186,-357.1667 538.6186,-354.3333 541.452,-351.5 544.2853,-351.5 544.2853,-351.5 600.0106,-351.5 600.0106,-351.5 602.8439,-351.5 605.6773,-354.3333 605.6773,-357.1667 605.6773,-357.1667 605.6773,-362.8333 605.6773,-362.8333 605.6773,-365.6667 602.8439,-368.5 600.0106,-368.5"/>
<text text-anchor="middle" x="572.1479" y="-357.3" font-family="Helvetica,sans-Serif" font-size="9.00" fill="#000000">br.address.js</text>
</a>
</g>
</g>
<!-- lib/util/random&#45;array&#45;element.js -->
<g id="node40" class="node">
<title>lib/util/random&#45;array&#45;element.js</title>
<g id="a_node40"><a xlink:href="lib/util/random-array-element.js" xlink:title="random&#45;array&#45;element.js">
<path fill="#ffffcc" stroke="#000000" d="M754.5516,-609.5C754.5516,-609.5 651.8185,-609.5 651.8185,-609.5 648.9852,-609.5 646.1519,-606.6667 646.1519,-603.8333 646.1519,-603.8333 646.1519,-598.1667 646.1519,-598.1667 646.1519,-595.3333 648.9852,-592.5 651.8185,-592.5 651.8185,-592.5 754.5516,-592.5 754.5516,-592.5 757.3849,-592.5 760.2183,-595.3333 760.2183,-598.1667 760.2183,-598.1667 760.2183,-603.8333 760.2183,-603.8333 760.2183,-606.6667 757.3849,-609.5 754.5516,-609.5"/>
<text text-anchor="middle" x="703.1851" y="-598.3" font-family="Helvetica,sans-Serif" font-size="9.00" fill="#000000">random&#45;array&#45;element.js</text>
</a>
</g>
</g>
<!-- lib/gen&#45;dinamic&#45;data/gen&#45;address/br.address.js&#45;&gt;lib/util/random&#45;array&#45;element.js -->
<g id="edge2" class="edge">
<title>lib/gen&#45;dinamic&#45;data/gen&#45;address/br.address.js&#45;&gt;lib/util/random&#45;array&#45;element.js</title>
<path fill="none" stroke="#000000" stroke-width="2" stroke-opacity="0.466667" d="M605.7046,-362.7893C614.5663,-364.9869 623.5047,-368.7214 630.1685,-375 661.1468,-404.1877 689.6469,-533.2779 699.5192,-582.1572"/>
<polygon fill="#000000" fill-opacity="0.466667" stroke="#000000" stroke-width="2" stroke-opacity="0.466667" points="696.147,-583.1459 701.526,-592.2737 703.0132,-581.7837 696.147,-583.1459"/>
</g>
<!-- lib/util/random&#45;number.js -->
<g id="node41" class="node">
<title>lib/util/random&#45;number.js</title>
<g id="a_node41"><a xlink:href="lib/util/random-number.js" xlink:title="random&#45;number.js">
<path fill="#ffffcc" stroke="#000000" d="M741.5557,-638.5C741.5557,-638.5 664.8144,-638.5 664.8144,-638.5 661.9811,-638.5 659.1477,-635.6667 659.1477,-632.8333 659.1477,-632.8333 659.1477,-627.1667 659.1477,-627.1667 659.1477,-624.3333 661.9811,-621.5 664.8144,-621.5 664.8144,-621.5 741.5557,-621.5 741.5557,-621.5 744.3891,-621.5 747.2224,-624.3333 747.2224,-627.1667 747.2224,-627.1667 747.2224,-632.8333 747.2224,-632.8333 747.2224,-635.6667 744.3891,-638.5 741.5557,-638.5"/>
<text text-anchor="middle" x="703.1851" y="-627.3" font-family="Helvetica,sans-Serif" font-size="9.00" fill="#000000">random&#45;number.js</text>
</a>
</g>
</g>
<!-- lib/gen&#45;dinamic&#45;data/gen&#45;address/br.address.js&#45;&gt;lib/util/random&#45;number.js -->
<g id="edge3" class="edge">
<title>lib/gen&#45;dinamic&#45;data/gen&#45;address/br.address.js&#45;&gt;lib/util/random&#45;number.js</title>
<path fill="none" stroke="#000000" stroke-width="2" stroke-opacity="0.466667" d="M605.7053,-361.3837C615.0067,-363.492 624.1833,-367.5301 630.1685,-375 646.9214,-395.9088 620.9915,-595.4381 638.1685,-616 641.333,-619.7882 645.2537,-622.7016 649.5898,-624.9267"/>
<polygon fill="#000000" fill-opacity="0.466667" stroke="#000000" stroke-width="2" stroke-opacity="0.466667" points="648.3763,-628.2102 658.9644,-628.5872 650.9224,-621.6896 648.3763,-628.2102"/>
</g>
<!-- lib/gen&#45;dinamic&#45;data/gen&#45;address/ch.address.js -->
<g id="node7" class="node">
<title>lib/gen&#45;dinamic&#45;data/gen&#45;address/ch.address.js</title>
<g id="a_node7"><a xlink:href="lib/gen-dinamic-data/gen-address/ch.address.js" xlink:title="ch.address.js">
<path fill="#ffffcc" stroke="#000000" d="M601.0057,-397.5C601.0057,-397.5 543.2902,-397.5 543.2902,-397.5 540.4569,-397.5 537.6235,-394.6667 537.6235,-391.8333 537.6235,-391.8333 537.6235,-386.1667 537.6235,-386.1667 537.6235,-383.3333 540.4569,-380.5 543.2902,-380.5 543.2902,-380.5 601.0057,-380.5 601.0057,-380.5 603.839,-380.5 606.6724,-383.3333 606.6724,-386.1667 606.6724,-386.1667 606.6724,-391.8333 606.6724,-391.8333 606.6724,-394.6667 603.839,-397.5 601.0057,-397.5"/>
<text text-anchor="middle" x="572.1479" y="-386.3" font-family="Helvetica,sans-Serif" font-size="9.00" fill="#000000">ch.address.js</text>
</a>
</g>
</g>
<!-- lib/gen&#45;dinamic&#45;data/gen&#45;address/ch.address.js&#45;&gt;lib/util/random&#45;array&#45;element.js -->
<g id="edge4" class="edge">
<title>lib/gen&#45;dinamic&#45;data/gen&#45;address/ch.address.js&#45;&gt;lib/util/random&#45;array&#45;element.js</title>
<path fill="none" stroke="#000000" stroke-width="2" stroke-opacity="0.466667" d="M606.7429,-392.2832C615.2052,-394.5149 623.6818,-398.1431 630.1685,-404 683.6376,-452.2779 698.0643,-543.3197 701.8655,-582.4052"/>
<polygon fill="#000000" fill-opacity="0.466667" stroke="#000000" stroke-width="2" stroke-opacity="0.466667" points="698.3778,-582.7004 702.7079,-592.37 705.353,-582.1106 698.3778,-582.7004"/>
</g>
<!-- lib/gen&#45;dinamic&#45;data/gen&#45;address/ch.address.js&#45;&gt;lib/util/random&#45;number.js -->
<g id="edge5" class="edge">
<title>lib/gen&#45;dinamic&#45;data/gen&#45;address/ch.address.js&#45;&gt;lib/util/random&#45;number.js</title>
<path fill="none" stroke="#000000" stroke-width="2" stroke-opacity="0.466667" d="M606.8967,-390.6866C615.7773,-392.8667 624.4274,-396.8679 630.1685,-404 644.9495,-422.3623 623.015,-597.9438 638.1685,-616 641.3416,-619.781 645.268,-622.6896 649.6077,-624.9117"/>
<polygon fill="#000000" fill-opacity="0.466667" stroke="#000000" stroke-width="2" stroke-opacity="0.466667" points="648.3985,-628.1969 658.9868,-628.5685 650.9413,-621.675 648.3985,-628.1969"/>
</g>
<!-- lib/gen&#45;dinamic&#45;data/gen&#45;address/cl.address.js -->
<g id="node8" class="node">
<title>lib/gen&#45;dinamic&#45;data/gen&#45;address/cl.address.js</title>
<g id="a_node8"><a xlink:href="lib/gen-dinamic-data/gen-address/cl.address.js" xlink:title="cl.address.js">
<path fill="#ffffcc" stroke="#000000" d="M599.4998,-426.5C599.4998,-426.5 544.7961,-426.5 544.7961,-426.5 541.9627,-426.5 539.1294,-423.6667 539.1294,-420.8333 539.1294,-420.8333 539.1294,-415.1667 539.1294,-415.1667 539.1294,-412.3333 541.9627,-409.5 544.7961,-409.5 544.7961,-409.5 599.4998,-409.5 599.4998,-409.5 602.3332,-409.5 605.1665,-412.3333 605.1665,-415.1667 605.1665,-415.1667 605.1665,-420.8333 605.1665,-420.8333 605.1665,-423.6667 602.3332,-426.5 599.4998,-426.5"/>
<text text-anchor="middle" x="572.1479" y="-415.3" font-family="Helvetica,sans-Serif" font-size="9.00" fill="#000000">cl.address.js</text>
</a>
</g>
</g>
<!-- lib/gen&#45;dinamic&#45;data/gen&#45;address/cl.address.js&#45;&gt;lib/util/random&#45;array&#45;element.js -->
<g id="edge6" class="edge">
<title>lib/gen&#45;dinamic&#45;data/gen&#45;address/cl.address.js&#45;&gt;lib/util/random&#45;array&#45;element.js</title>
<path fill="none" stroke="#000000" stroke-width="2" stroke-opacity="0.466667" d="M605.2831,-419.952C614.1381,-421.8492 623.1785,-425.1983 630.1685,-431 677.69,-470.4427 695.0162,-546.5293 700.6978,-581.9699"/>
<polygon fill="#000000" fill-opacity="0.466667" stroke="#000000" stroke-width="2" stroke-opacity="0.466667" points="697.3003,-582.9279 702.205,-592.319 704.2272,-581.919 697.3003,-582.9279"/>
</g>
<!-- lib/gen&#45;dinamic&#45;data/gen&#45;address/cl.address.js&#45;&gt;lib/util/random&#45;number.js -->
<g id="edge7" class="edge">
<title>lib/gen&#45;dinamic&#45;data/gen&#45;address/cl.address.js&#45;&gt;lib/util/random&#45;number.js</title>
<path fill="none" stroke="#000000" stroke-width="2" stroke-opacity="0.466667" d="M605.2671,-418.1452C614.6656,-419.9088 624.0074,-423.6376 630.1685,-431 643.3726,-446.7788 624.8987,-600.2763 638.1685,-616 641.352,-619.7722 645.2853,-622.675 649.6293,-624.8935"/>
<polygon fill="#000000" fill-opacity="0.466667" stroke="#000000" stroke-width="2" stroke-opacity="0.466667" points="648.4254,-628.1807 659.0139,-628.5456 650.9641,-621.6572 648.4254,-628.1807"/>
</g>
<!-- lib/gen&#45;dinamic&#45;data/gen&#45;address/es.region&#45;names.js -->
<g id="node9" class="node">
<title>lib/gen&#45;dinamic&#45;data/gen&#45;address/es.region&#45;names.js</title>
<g id="a_node9"><a xlink:href="lib/gen-dinamic-data/gen-address/es.region-names.js" xlink:title="es.region&#45;names.js">
<path fill="#ffffcc" stroke="#000000" d="M612.5155,-339.5C612.5155,-339.5 531.7804,-339.5 531.7804,-339.5 528.9471,-339.5 526.1138,-336.6667 526.1138,-333.8333 526.1138,-333.8333 526.1138,-328.1667 526.1138,-328.1667 526.1138,-325.3333 528.9471,-322.5 531.7804,-322.5 531.7804,-322.5 612.5155,-322.5 612.5155,-322.5 615.3488,-322.5 618.1821,-325.3333 618.1821,-328.1667 618.1821,-328.1667 618.1821,-333.8333 618.1821,-333.8333 618.1821,-336.6667 615.3488,-339.5 612.5155,-339.5"/>
<text text-anchor="middle" x="572.1479" y="-328.3" font-family="Helvetica,sans-Serif" font-size="9.00" fill="#000000">es.region&#45;names.js</text>
</a>
</g>
</g>
<!-- lib/gen&#45;dinamic&#45;data/gen&#45;address/es.region&#45;names.js&#45;&gt;lib/util/random&#45;array&#45;element.js -->
<g id="edge8" class="edge">
<title>lib/gen&#45;dinamic&#45;data/gen&#45;address/es.region&#45;names.js&#45;&gt;lib/util/random&#45;array&#45;element.js</title>
<path fill="none" stroke="#000000" stroke-width="2" stroke-opacity="0.466667" d="M618.3021,-337.9784C622.6716,-340.0359 626.7408,-342.6599 630.1685,-346 664.7357,-379.6838 691.6496,-529.1762 700.2673,-582.2392"/>
<polygon fill="#000000" fill-opacity="0.466667" stroke="#000000" stroke-width="2" stroke-opacity="0.466667" points="696.8367,-582.9526 701.8645,-592.2784 703.7497,-581.8526 696.8367,-582.9526"/>
</g>
<!-- lib/gen&#45;dinamic&#45;data/gen&#45;address/index.js -->
<g id="node10" class="node">
<title>lib/gen&#45;dinamic&#45;data/gen&#45;address/index.js</title>
<g id="a_node10"><a xlink:href="lib/gen-dinamic-data/gen-address/index.js" xlink:title="index.js">
<path fill="#ffffcc" stroke="#000000" d="M454.6922,-382.5C454.6922,-382.5 412.0256,-382.5 412.0256,-382.5 409.1922,-382.5 406.3589,-379.6667 406.3589,-376.8333 406.3589,-376.8333 406.3589,-371.1667 406.3589,-371.1667 406.3589,-368.3333 409.1922,-365.5 412.0256,-365.5 412.0256,-365.5 454.6922,-365.5 454.6922,-365.5 457.5256,-365.5 460.3589,-368.3333 460.3589,-371.1667 460.3589,-371.1667 460.3589,-376.8333 460.3589,-376.8333 460.3589,-379.6667 457.5256,-382.5 454.6922,-382.5"/>
<text text-anchor="middle" x="433.3589" y="-371.3" font-family="Helvetica,sans-Serif" font-size="9.00" fill="#000000">index.js</text>
</a>
</g>
</g>
<!-- lib/gen&#45;dinamic&#45;data/gen&#45;address/index.js&#45;&gt;lib/gen&#45;dinamic&#45;data/gen&#45;address/br.address.js -->
<g id="edge10" class="edge">
<title>lib/gen&#45;dinamic&#45;data/gen&#45;address/index.js&#45;&gt;lib/gen&#45;dinamic&#45;data/gen&#45;address/br.address.js</title>
<path fill="none" stroke="#000000" stroke-width="2" stroke-opacity="0.466667" d="M460.4483,-371.2674C479.7211,-369.3233 506.0338,-366.6691 528.2798,-364.4251"/>
<polygon fill="#000000" fill-opacity="0.466667" stroke="#000000" stroke-width="2" stroke-opacity="0.466667" points="528.9009,-367.8803 538.4991,-363.3942 528.1983,-360.9156 528.9009,-367.8803"/>
</g>
<!-- lib/gen&#45;dinamic&#45;data/gen&#45;address/index.js&#45;&gt;lib/gen&#45;dinamic&#45;data/gen&#45;address/ch.address.js -->
<g id="edge11" class="edge">
<title>lib/gen&#45;dinamic&#45;data/gen&#45;address/index.js&#45;&gt;lib/gen&#45;dinamic&#45;data/gen&#45;address/ch.address.js</title>
<path fill="none" stroke="#000000" stroke-width="2" stroke-opacity="0.466667" d="M460.4483,-376.9278C479.4487,-378.9813 505.2913,-381.7743 527.3341,-384.1566"/>
<polygon fill="#000000" fill-opacity="0.466667" stroke="#000000" stroke-width="2" stroke-opacity="0.466667" points="527.1605,-387.6582 537.4787,-385.253 527.9127,-380.6987 527.1605,-387.6582"/>
</g>
<!-- lib/gen&#45;dinamic&#45;data/gen&#45;address/index.js&#45;&gt;lib/gen&#45;dinamic&#45;data/gen&#45;address/cl.address.js -->
<g id="edge12" class="edge">
<title>lib/gen&#45;dinamic&#45;data/gen&#45;address/index.js&#45;&gt;lib/gen&#45;dinamic&#45;data/gen&#45;address/cl.address.js</title>
<path fill="none" stroke="#000000" stroke-width="2" stroke-opacity="0.466667" d="M460.6666,-373.0432C475.464,-373.8614 493.2926,-377.1643 506.1274,-387 512.7554,-392.0792 507.6548,-398.7243 514.1274,-404 518.5451,-407.6007 523.7426,-410.3004 529.181,-412.3201"/>
<polygon fill="#000000" fill-opacity="0.466667" stroke="#000000" stroke-width="2" stroke-opacity="0.466667" points="528.5313,-415.7781 539.1139,-415.2688 530.5235,-409.0676 528.5313,-415.7781"/>
</g>
<!-- lib/gen&#45;dinamic&#45;data/gen&#45;address/index.js&#45;&gt;lib/gen&#45;dinamic&#45;data/gen&#45;address/es.region&#45;names.js -->
<g id="edge13" class="edge">
<title>lib/gen&#45;dinamic&#45;data/gen&#45;address/index.js&#45;&gt;lib/gen&#45;dinamic&#45;data/gen&#45;address/es.region&#45;names.js</title>
<path fill="none" stroke="#000000" stroke-width="2" stroke-opacity="0.466667" d="M460.55,-375.2657C475.311,-374.6302 493.1419,-371.5736 506.1274,-362 512.5268,-357.2821 507.9457,-350.9996 514.1274,-346 515.0173,-345.2803 515.9378,-344.5948 516.8847,-343.9418"/>
<polygon fill="#000000" fill-opacity="0.466667" stroke="#000000" stroke-width="2" stroke-opacity="0.466667" points="518.9452,-346.8019 526.0032,-338.9003 515.5582,-340.6759 518.9452,-346.8019"/>
</g>
<!-- lib/gen&#45;dinamic&#45;data/map&#45;faker.js -->
<g id="node23" class="node">
<title>lib/gen&#45;dinamic&#45;data/map&#45;faker.js</title>
<g id="a_node23"><a xlink:href="lib/gen-dinamic-data/map-faker.js" xlink:title="map&#45;faker.js">
<path fill="#ffffcc" stroke="#000000" d="M599.0023,-305.5C599.0023,-305.5 545.2936,-305.5 545.2936,-305.5 542.4603,-305.5 539.6269,-302.6667 539.6269,-299.8333 539.6269,-299.8333 539.6269,-294.1667 539.6269,-294.1667 539.6269,-291.3333 542.4603,-288.5 545.2936,-288.5 545.2936,-288.5 599.0023,-288.5 599.0023,-288.5 601.8356,-288.5 604.6689,-291.3333 604.6689,-294.1667 604.6689,-294.1667 604.6689,-299.8333 604.6689,-299.8333 604.6689,-302.6667 601.8356,-305.5 599.0023,-305.5"/>
<text text-anchor="middle" x="572.1479" y="-294.3" font-family="Helvetica,sans-Serif" font-size="9.00" fill="#000000">map&#45;faker.js</text>
</a>
</g>
</g>
<!-- lib/gen&#45;dinamic&#45;data/gen&#45;address/index.js&#45;&gt;lib/gen&#45;dinamic&#45;data/map&#45;faker.js -->
<g id="edge9" class="edge">
<title>lib/gen&#45;dinamic&#45;data/gen&#45;address/index.js&#45;&gt;lib/gen&#45;dinamic&#45;data/map&#45;faker.js</title>
<path fill="none" stroke="#000000" stroke-width="2" stroke-opacity="0.466667" d="M460.3703,-376.7279C475.8218,-376.7259 494.4037,-373.816 506.1274,-362 522.2875,-345.7128 498.5753,-327.8687 514.1274,-311 518.3121,-306.4611 523.6915,-303.2766 529.4828,-301.0619"/>
<polygon fill="#000000" fill-opacity="0.466667" stroke="#000000" stroke-width="2" stroke-opacity="0.466667" points="530.8395,-304.3135 539.4801,-298.1824 528.902,-297.587 530.8395,-304.3135"/>
</g>
<!-- lib/gen&#45;dinamic&#45;data/gen&#45;anagrafica.js&#45;&gt;lib/data/names&#45;list.js -->
<g id="edge14" class="edge">
<title>lib/gen&#45;dinamic&#45;data/gen&#45;anagrafica.js&#45;&gt;lib/data/names&#45;list.js</title>
<path fill="none" stroke="#000000" stroke-width="2" stroke-opacity="0.466667" d="M476.0623,-543.1467C487.4618,-541.2167 498.6697,-536.857 506.1274,-528 521.2306,-510.0631 499.5959,-124.4031 514.1274,-106 518.1048,-100.9629 523.5343,-97.4824 529.4852,-95.1008"/>
<polygon fill="#000000" fill-opacity="0.466667" stroke="#000000" stroke-width="2" stroke-opacity="0.466667" points="530.5652,-98.4309 539.1319,-92.1969 528.5475,-91.728 530.5652,-98.4309"/>
</g>
<!-- lib/gen&#45;dinamic&#45;data/gen&#45;birthday.js -->
<g id="node12" class="node">
<title>lib/gen&#45;dinamic&#45;data/gen&#45;birthday.js</title>
<g id="a_node12"><a xlink:href="lib/gen-dinamic-data/gen-birthday.js" xlink:title="gen&#45;birthday.js">
<path fill="#ffffcc" stroke="#000000" d="M603.8504,-499.5C603.8504,-499.5 540.4455,-499.5 540.4455,-499.5 537.6122,-499.5 534.7789,-496.6667 534.7789,-493.8333 534.7789,-493.8333 534.7789,-488.1667 534.7789,-488.1667 534.7789,-485.3333 537.6122,-482.5 540.4455,-482.5 540.4455,-482.5 603.8504,-482.5 603.8504,-482.5 606.6837,-482.5 609.517,-485.3333 609.517,-488.1667 609.517,-488.1667 609.517,-493.8333 609.517,-493.8333 609.517,-496.6667 606.6837,-499.5 603.8504,-499.5"/>
<text text-anchor="middle" x="572.1479" y="-488.3" font-family="Helvetica,sans-Serif" font-size="9.00" fill="#000000">gen&#45;birthday.js</text>
</a>
</g>
</g>
<!-- lib/gen&#45;dinamic&#45;data/gen&#45;anagrafica.js&#45;&gt;lib/gen&#45;dinamic&#45;data/gen&#45;birthday.js -->
<g id="edge16" class="edge">
<title>lib/gen&#45;dinamic&#45;data/gen&#45;anagrafica.js&#45;&gt;lib/gen&#45;dinamic&#45;data/gen&#45;birthday.js</title>
<path fill="none" stroke="#000000" stroke-width="2" stroke-opacity="0.466667" d="M475.9254,-536.1808C485.9978,-534.1582 496.5817,-531.4892 506.1274,-528 521.8617,-522.2487 538.2996,-513.0483 550.8373,-505.2611"/>
<polygon fill="#000000" fill-opacity="0.466667" stroke="#000000" stroke-width="2" stroke-opacity="0.466667" points="553.0513,-507.9998 559.5885,-499.6622 549.2787,-502.1033 553.0513,-507.9998"/>
</g>
<!-- lib/gen&#45;dinamic&#45;data/gen&#45;anagrafica.js&#45;&gt;lib/util/random&#45;array&#45;element.js -->
<g id="edge15" class="edge">
<title>lib/gen&#45;dinamic&#45;data/gen&#45;anagrafica.js&#45;&gt;lib/util/random&#45;array&#45;element.js</title>
<path fill="none" stroke="#000000" stroke-width="2" stroke-opacity="0.466667" d="M472.3058,-550.5161C520.3303,-561.0171 601.9919,-578.8732 654.2163,-590.2925"/>
<polygon fill="#000000" fill-opacity="0.466667" stroke="#000000" stroke-width="2" stroke-opacity="0.466667" points="653.7331,-593.7695 664.25,-592.4865 655.2285,-586.9311 653.7331,-593.7695"/>
</g>
<!-- lib/gen&#45;dinamic&#45;data/gen&#45;company.js -->
<g id="node13" class="node">
<title>lib/gen&#45;dinamic&#45;data/gen&#45;company.js</title>
<g id="a_node13"><a xlink:href="lib/gen-dinamic-data/gen-company.js" xlink:title="gen&#45;company.js">
<path fill="#ffffcc" stroke="#000000" d="M467.0605,-305.5C467.0605,-305.5 399.6573,-305.5 399.6573,-305.5 396.8239,-305.5 393.9906,-302.6667 393.9906,-299.8333 393.9906,-299.8333 393.9906,-294.1667 393.9906,-294.1667 393.9906,-291.3333 396.8239,-288.5 399.6573,-288.5 399.6573,-288.5 467.0605,-288.5 467.0605,-288.5 469.8938,-288.5 472.7272,-291.3333 472.7272,-294.1667 472.7272,-294.1667 472.7272,-299.8333 472.7272,-299.8333 472.7272,-302.6667 469.8938,-305.5 467.0605,-305.5"/>
<text text-anchor="middle" x="433.3589" y="-294.3" font-family="Helvetica,sans-Serif" font-size="9.00" fill="#000000">gen&#45;company.js</text>
</a>
</g>
</g>
<!-- lib/gen&#45;dinamic&#45;data/gen&#45;legal&#45;type&#45;id.js -->
<g id="node14" class="node">
<title>lib/gen&#45;dinamic&#45;data/gen&#45;legal&#45;type&#45;id.js</title>
<g id="a_node14"><a xlink:href="lib/gen-dinamic-data/gen-legal-type-id.js" xlink:title="gen&#45;legal&#45;type&#45;id.js">
<path fill="#ffffcc" stroke="#000000" d="M349.943,-459.5C349.943,-459.5 269.1991,-459.5 269.1991,-459.5 266.3658,-459.5 263.5325,-456.6667 263.5325,-453.8333 263.5325,-453.8333 263.5325,-448.1667 263.5325,-448.1667 263.5325,-445.3333 266.3658,-442.5 269.1991,-442.5 269.1991,-442.5 349.943,-442.5 349.943,-442.5 352.7763,-442.5 355.6096,-445.3333 355.6096,-448.1667 355.6096,-448.1667 355.6096,-453.8333 355.6096,-453.8333 355.6096,-456.6667 352.7763,-459.5 349.943,-459.5"/>
<text text-anchor="middle" x="309.571" y="-448.3" font-family="Helvetica,sans-Serif" font-size="9.00" fill="#000000">gen&#45;legal&#45;type&#45;id.js</text>
</a>
</g>
</g>
<!-- lib/gen&#45;dinamic&#45;data/gen&#45;national&#45;id/index.js -->
<g id="node15" class="node">
<title>lib/gen&#45;dinamic&#45;data/gen&#45;national&#45;id/index.js</title>
<g id="a_node15"><a xlink:href="lib/gen-dinamic-data/gen-national-id/index.js" xlink:title="index.js">
<path fill="#ffffcc" stroke="#000000" d="M454.6922,-254.5C454.6922,-254.5 412.0256,-254.5 412.0256,-254.5 409.1922,-254.5 406.3589,-251.6667 406.3589,-248.8333 406.3589,-248.8333 406.3589,-243.1667 406.3589,-243.1667 406.3589,-240.3333 409.1922,-237.5 412.0256,-237.5 412.0256,-237.5 454.6922,-237.5 454.6922,-237.5 457.5256,-237.5 460.3589,-240.3333 460.3589,-243.1667 460.3589,-243.1667 460.3589,-248.8333 460.3589,-248.8333 460.3589,-251.6667 457.5256,-254.5 454.6922,-254.5"/>
<text text-anchor="middle" x="433.3589" y="-243.3" font-family="Helvetica,sans-Serif" font-size="9.00" fill="#000000">index.js</text>
</a>
</g>
</g>
<!-- lib/gen&#45;dinamic&#45;data/gen&#45;national&#45;id/it.national&#45;id/index.js -->
<g id="node18" class="node">
<title>lib/gen&#45;dinamic&#45;data/gen&#45;national&#45;id/it.national&#45;id/index.js</title>
<g id="a_node18"><a xlink:href="lib/gen-dinamic-data/gen-national-id/it.national-id/index.js" xlink:title="index.js">
<path fill="#ffffcc" stroke="#000000" d="M593.4813,-203.5C593.4813,-203.5 550.8146,-203.5 550.8146,-203.5 547.9813,-203.5 545.1479,-200.6667 545.1479,-197.8333 545.1479,-197.8333 545.1479,-192.1667 545.1479,-192.1667 545.1479,-189.3333 547.9813,-186.5 550.8146,-186.5 550.8146,-186.5 593.4813,-186.5 593.4813,-186.5 596.3146,-186.5 599.1479,-189.3333 599.1479,-192.1667 599.1479,-192.1667 599.1479,-197.8333 599.1479,-197.8333 599.1479,-200.6667 596.3146,-203.5 593.4813,-203.5"/>
<text text-anchor="middle" x="572.1479" y="-192.3" font-family="Helvetica,sans-Serif" font-size="9.00" fill="#000000">index.js</text>
</a>
</g>
</g>
<!-- lib/gen&#45;dinamic&#45;data/gen&#45;national&#45;id/index.js&#45;&gt;lib/gen&#45;dinamic&#45;data/gen&#45;national&#45;id/it.national&#45;id/index.js -->
<g id="edge17" class="edge">
<title>lib/gen&#45;dinamic&#45;data/gen&#45;national&#45;id/index.js&#45;&gt;lib/gen&#45;dinamic&#45;data/gen&#45;national&#45;id/it.national&#45;id/index.js</title>
<path fill="none" stroke="#000000" stroke-width="2" stroke-opacity="0.466667" d="M449.019,-237.367C464.9851,-228.8712 490.6712,-216.0366 514.1274,-208 520.7542,-205.7295 527.9446,-203.7493 534.9342,-202.065"/>
<polygon fill="#000000" fill-opacity="0.466667" stroke="#000000" stroke-width="2" stroke-opacity="0.466667" points="535.9562,-205.4225 544.9421,-199.8096 534.4172,-198.5938 535.9562,-205.4225"/>
</g>
<!-- lib/gen&#45;dinamic&#45;data/gen&#45;national&#45;id/static&#45;nat&#45;ids.js -->
<g id="node19" class="node">
<title>lib/gen&#45;dinamic&#45;data/gen&#45;national&#45;id/static&#45;nat&#45;ids.js</title>
<g id="a_node19"><a xlink:href="lib/gen-dinamic-data/gen-national-id/static-nat-ids.js" xlink:title="static&#45;nat&#45;ids.js">
<path fill="#ffffcc" stroke="#000000" d="M604.4974,-254.5C604.4974,-254.5 539.7985,-254.5 539.7985,-254.5 536.9652,-254.5 534.1318,-251.6667 534.1318,-248.8333 534.1318,-248.8333 534.1318,-243.1667 534.1318,-243.1667 534.1318,-240.3333 536.9652,-237.5 539.7985,-237.5 539.7985,-237.5 604.4974,-237.5 604.4974,-237.5 607.3307,-237.5 610.1641,-240.3333 610.1641,-243.1667 610.1641,-243.1667 610.1641,-248.8333 610.1641,-248.8333 610.1641,-251.6667 607.3307,-254.5 604.4974,-254.5"/>
<text text-anchor="middle" x="572.1479" y="-243.3" font-family="Helvetica,sans-Serif" font-size="9.00" fill="#000000">static&#45;nat&#45;ids.js</text>
</a>
</g>
</g>
<!-- lib/gen&#45;dinamic&#45;data/gen&#45;national&#45;id/index.js&#45;&gt;lib/gen&#45;dinamic&#45;data/gen&#45;national&#45;id/static&#45;nat&#45;ids.js -->
<g id="edge18" class="edge">
<title>lib/gen&#45;dinamic&#45;data/gen&#45;national&#45;id/index.js&#45;&gt;lib/gen&#45;dinamic&#45;data/gen&#45;national&#45;id/static&#45;nat&#45;ids.js</title>
<path fill="none" stroke="#000000" stroke-width="2" stroke-opacity="0.466667" d="M460.4483,-246C478.4814,-246 502.6778,-246 523.9395,-246"/>
<polygon fill="#000000" fill-opacity="0.466667" stroke="#000000" stroke-width="2" stroke-opacity="0.466667" points="524.1014,-249.5001 534.1014,-246 524.1013,-242.5001 524.1014,-249.5001"/>
</g>
<!-- lib/gen&#45;dinamic&#45;data/gen&#45;national&#45;id/it.national&#45;id/CodiceFiscale.js -->
<g id="node16" class="node">
<title>lib/gen&#45;dinamic&#45;data/gen&#45;national&#45;id/it.national&#45;id/CodiceFiscale.js</title>
<g id="a_node16"><a xlink:href="lib/gen-dinamic-data/gen-national-id/it.national-id/CodiceFiscale.js" xlink:title="CodiceFiscale.js">
<path fill="#ffffcc" stroke="#000000" d="M738.0422,-203.5C738.0422,-203.5 668.3279,-203.5 668.3279,-203.5 665.4945,-203.5 662.6612,-200.6667 662.6612,-197.8333 662.6612,-197.8333 662.6612,-192.1667 662.6612,-192.1667 662.6612,-189.3333 665.4945,-186.5 668.3279,-186.5 668.3279,-186.5 738.0422,-186.5 738.0422,-186.5 740.8756,-186.5 743.7089,-189.3333 743.7089,-192.1667 743.7089,-192.1667 743.7089,-197.8333 743.7089,-197.8333 743.7089,-200.6667 740.8756,-203.5 738.0422,-203.5"/>
<text text-anchor="middle" x="703.1851" y="-192.3" font-family="Helvetica,sans-Serif" font-size="9.00" fill="#000000">CodiceFiscale.js</text>
</a>
</g>
</g>
<!-- lib/gen&#45;dinamic&#45;data/gen&#45;national&#45;id/it.national&#45;id/constants.js -->
<g id="node17" class="node">
<title>lib/gen&#45;dinamic&#45;data/gen&#45;national&#45;id/it.national&#45;id/constants.js</title>
<g id="a_node17"><a xlink:href="lib/gen-dinamic-data/gen-national-id/it.national-id/constants.js" xlink:title="constants.js">
<path fill="#ffffcc" stroke="#000000" d="M830.8205,-203.5C830.8205,-203.5 779.1053,-203.5 779.1053,-203.5 776.272,-203.5 773.4386,-200.6667 773.4386,-197.8333 773.4386,-197.8333 773.4386,-192.1667 773.4386,-192.1667 773.4386,-189.3333 776.272,-186.5 779.1053,-186.5 779.1053,-186.5 830.8205,-186.5 830.8205,-186.5 833.6538,-186.5 836.4871,-189.3333 836.4871,-192.1667 836.4871,-192.1667 836.4871,-197.8333 836.4871,-197.8333 836.4871,-200.6667 833.6538,-203.5 830.8205,-203.5"/>
<text text-anchor="middle" x="804.9629" y="-192.3" font-family="Helvetica,sans-Serif" font-size="9.00" fill="#000000">constants.js</text>
</a>
</g>
</g>
<!-- lib/gen&#45;dinamic&#45;data/gen&#45;national&#45;id/it.national&#45;id/CodiceFiscale.js&#45;&gt;lib/gen&#45;dinamic&#45;data/gen&#45;national&#45;id/it.national&#45;id/constants.js -->
<g id="edge19" class="edge">
<title>lib/gen&#45;dinamic&#45;data/gen&#45;national&#45;id/it.national&#45;id/CodiceFiscale.js&#45;&gt;lib/gen&#45;dinamic&#45;data/gen&#45;national&#45;id/it.national&#45;id/constants.js</title>
<path fill="none" stroke="#000000" stroke-width="2" stroke-opacity="0.466667" d="M743.9956,-195C750.231,-195 756.6768,-195 762.9378,-195"/>
<polygon fill="#000000" fill-opacity="0.466667" stroke="#000000" stroke-width="2" stroke-opacity="0.466667" points="763.2307,-198.5001 773.2306,-195 763.2306,-191.5001 763.2307,-198.5001"/>
</g>
<!-- lib/gen&#45;dinamic&#45;data/gen&#45;national&#45;id/it.national&#45;id/index.js&#45;&gt;lib/gen&#45;dinamic&#45;data/gen&#45;national&#45;id/it.national&#45;id/CodiceFiscale.js -->
<g id="edge20" class="edge">
<title>lib/gen&#45;dinamic&#45;data/gen&#45;national&#45;id/it.national&#45;id/index.js&#45;&gt;lib/gen&#45;dinamic&#45;data/gen&#45;national&#45;id/it.national&#45;id/CodiceFiscale.js</title>
<path fill="none" stroke="#000000" stroke-width="2" stroke-opacity="0.466667" d="M599.2989,-195C614.6607,-195 634.3673,-195 652.48,-195"/>
<polygon fill="#000000" fill-opacity="0.466667" stroke="#000000" stroke-width="2" stroke-opacity="0.466667" points="652.6271,-198.5001 662.6271,-195 652.627,-191.5001 652.6271,-198.5001"/>
</g>
<!-- lib/gen&#45;dinamic&#45;data/gen&#45;phone&#45;number.js -->
<g id="node20" class="node">
<title>lib/gen&#45;dinamic&#45;data/gen&#45;phone&#45;number.js</title>
<g id="a_node20"><a xlink:href="lib/gen-dinamic-data/gen-phone-number.js" xlink:title="gen&#45;phone&#45;number.js">
<path fill="#ffffcc" stroke="#000000" d="M478.2528,-521.5C478.2528,-521.5 388.465,-521.5 388.465,-521.5 385.6317,-521.5 382.7983,-518.6667 382.7983,-515.8333 382.7983,-515.8333 382.7983,-510.1667 382.7983,-510.1667 382.7983,-507.3333 385.6317,-504.5 388.465,-504.5 388.465,-504.5 478.2528,-504.5 478.2528,-504.5 481.0861,-504.5 483.9195,-507.3333 483.9195,-510.1667 483.9195,-510.1667 483.9195,-515.8333 483.9195,-515.8333 483.9195,-518.6667 481.0861,-521.5 478.2528,-521.5"/>
<text text-anchor="middle" x="433.3589" y="-510.3" font-family="Helvetica,sans-Serif" font-size="9.00" fill="#000000">gen&#45;phone&#45;number.js</text>
</a>
</g>
</g>
<!-- lib/gen&#45;dinamic&#45;data/gen&#45;phone&#45;number.js&#45;&gt;lib/data/country&#45;list.js -->
<g id="edge21" class="edge">
<title>lib/gen&#45;dinamic&#45;data/gen&#45;phone&#45;number.js&#45;&gt;lib/data/country&#45;list.js</title>
<path fill="none" stroke="#000000" stroke-width="2" stroke-opacity="0.466667" d="M477.8209,-504.4894C488.8303,-500.1927 499.3921,-493.7275 506.1274,-484 519.0016,-465.4065 500.1061,-94.7443 514.1274,-77 517.8466,-72.2934 522.8335,-68.946 528.3284,-66.5842"/>
<polygon fill="#000000" fill-opacity="0.466667" stroke="#000000" stroke-width="2" stroke-opacity="0.466667" points="529.4884,-69.8876 537.9217,-63.4742 527.3297,-63.2288 529.4884,-69.8876"/>
</g>
<!-- lib/gen&#45;dinamic&#45;data/gen&#45;phone&#45;number.js&#45;&gt;lib/util/random&#45;number.js -->
<g id="edge22" class="edge">
<title>lib/gen&#45;dinamic&#45;data/gen&#45;phone&#45;number.js&#45;&gt;lib/util/random&#45;number.js</title>
<path fill="none" stroke="#000000" stroke-width="2" stroke-opacity="0.466667" d="M483.9935,-516.8126C492.0115,-519.2014 499.7489,-522.7593 506.1274,-528 513.2069,-533.8165 508.0116,-540.1775 514.1274,-547 556.2361,-593.9739 579.1247,-593.7847 638.1685,-616 641.6705,-617.3176 645.3278,-618.526 649.0448,-619.6317"/>
<polygon fill="#000000" fill-opacity="0.466667" stroke="#000000" stroke-width="2" stroke-opacity="0.466667" points="648.3905,-623.0807 658.9583,-622.3231 650.2246,-616.3253 648.3905,-623.0807"/>
</g>
<!-- lib/gen&#45;dinamic&#45;data/gen&#45;vat.js -->
<g id="node21" class="node">
<title>lib/gen&#45;dinamic&#45;data/gen&#45;vat.js</title>
<g id="a_node21"><a xlink:href="lib/gen-dinamic-data/gen-vat.js" xlink:title="gen&#45;vat.js">
<path fill="#ffffcc" stroke="#000000" d="M455.2113,-477.5C455.2113,-477.5 411.5065,-477.5 411.5065,-477.5 408.6732,-477.5 405.8398,-474.6667 405.8398,-471.8333 405.8398,-471.8333 405.8398,-466.1667 405.8398,-466.1667 405.8398,-463.3333 408.6732,-460.5 411.5065,-460.5 411.5065,-460.5 455.2113,-460.5 455.2113,-460.5 458.0446,-460.5 460.8779,-463.3333 460.8779,-466.1667 460.8779,-466.1667 460.8779,-471.8333 460.8779,-471.8333 460.8779,-474.6667 458.0446,-477.5 455.2113,-477.5"/>
<text text-anchor="middle" x="433.3589" y="-466.3" font-family="Helvetica,sans-Serif" font-size="9.00" fill="#000000">gen&#45;vat.js</text>
</a>
</g>
</g>
<!-- lib/gen&#45;dinamic&#45;data/gen&#45;vat.js&#45;&gt;lib/data/country&#45;list.js -->
<g id="edge23" class="edge">
<title>lib/gen&#45;dinamic&#45;data/gen&#45;vat.js&#45;&gt;lib/data/country&#45;list.js</title>
<path fill="none" stroke="#000000" stroke-width="2" stroke-opacity="0.466667" d="M461.0515,-471.453C476.7445,-471.1921 495.3411,-467.7815 506.1274,-455 519.6742,-438.9475 501.0923,-93.4707 514.1274,-77 517.8501,-72.2962 522.839,-68.9503 528.3348,-66.5893"/>
<polygon fill="#000000" fill-opacity="0.466667" stroke="#000000" stroke-width="2" stroke-opacity="0.466667" points="529.495,-69.8926 537.9286,-63.4798 527.3367,-63.2336 529.495,-69.8926"/>
</g>
<!-- lib/gen&#45;dinamic&#45;data/gen&#45;vat.js&#45;&gt;lib/util/random&#45;number.js -->
<g id="edge24" class="edge">
<title>lib/gen&#45;dinamic&#45;data/gen&#45;vat.js&#45;&gt;lib/util/random&#45;number.js</title>
<path fill="none" stroke="#000000" stroke-width="2" stroke-opacity="0.466667" d="M459.9612,-477.582C474.2027,-482.7546 491.7257,-490.0722 506.1274,-499 510.143,-501.4893 510.0584,-503.5992 514.1274,-506 561.3658,-533.8718 596.095,-505.0197 630.1685,-548 649.073,-571.8462 617.6965,-593.485 638.1685,-616 641.3568,-619.5066 645.1943,-622.2486 649.3907,-624.3811"/>
<polygon fill="#000000" fill-opacity="0.466667" stroke="#000000" stroke-width="2" stroke-opacity="0.466667" points="648.4495,-627.7705 659.038,-628.136 650.9885,-621.2472 648.4495,-627.7705"/>
</g>
<!-- lib/gen&#45;dinamic&#45;data/index.js -->
<g id="node22" class="node">
<title>lib/gen&#45;dinamic&#45;data/index.js</title>
<g id="a_node22"><a xlink:href="lib/gen-dinamic-data/index.js" xlink:title="index.js">
<path fill="#ffffcc" stroke="#000000" d="M330.9044,-406.5C330.9044,-406.5 288.2377,-406.5 288.2377,-406.5 285.4044,-406.5 282.571,-403.6667 282.571,-400.8333 282.571,-400.8333 282.571,-395.1667 282.571,-395.1667 282.571,-392.3333 285.4044,-389.5 288.2377,-389.5 288.2377,-389.5 330.9044,-389.5 330.9044,-389.5 333.7377,-389.5 336.571,-392.3333 336.571,-395.1667 336.571,-395.1667 336.571,-400.8333 336.571,-400.8333 336.571,-403.6667 333.7377,-406.5 330.9044,-406.5"/>
<text text-anchor="middle" x="309.571" y="-395.3" font-family="Helvetica,sans-Serif" font-size="9.00" fill="#000000">index.js</text>
</a>
</g>
</g>
<!-- lib/gen&#45;dinamic&#45;data/index.js&#45;&gt;lib/gen&#45;dinamic&#45;data/gen&#45;address/index.js -->
<g id="edge25" class="edge">
<title>lib/gen&#45;dinamic&#45;data/index.js&#45;&gt;lib/gen&#45;dinamic&#45;data/gen&#45;address/index.js</title>
<path fill="none" stroke="#000000" stroke-width="2" stroke-opacity="0.466667" d="M336.7368,-392.7331C354.2318,-389.3412 377.2001,-384.8881 396.3533,-381.1746"/>
<polygon fill="#000000" fill-opacity="0.466667" stroke="#000000" stroke-width="2" stroke-opacity="0.466667" points="397.1055,-384.5941 406.2565,-379.2546 395.7731,-377.722 397.1055,-384.5941"/>
</g>
<!-- lib/gen&#45;dinamic&#45;data/index.js&#45;&gt;lib/gen&#45;dinamic&#45;data/gen&#45;anagrafica.js -->
<g id="edge26" class="edge">
<title>lib/gen&#45;dinamic&#45;data/index.js&#45;&gt;lib/gen&#45;dinamic&#45;data/gen&#45;anagrafica.js</title>
<path fill="none" stroke="#000000" stroke-width="2" stroke-opacity="0.466667" d="M324.5418,-406.5702C335.0253,-413.4082 348.3977,-423.984 355.5903,-437 375.3504,-472.7586 340.7447,-498.1042 368.5903,-528 372.1739,-531.8474 376.5422,-534.7673 381.3009,-536.9682"/>
<polygon fill="#000000" fill-opacity="0.466667" stroke="#000000" stroke-width="2" stroke-opacity="0.466667" points="380.235,-540.3039 390.8296,-540.3693 382.5882,-533.7113 380.235,-540.3039"/>
</g>
<!-- lib/gen&#45;dinamic&#45;data/index.js&#45;&gt;lib/gen&#45;dinamic&#45;data/gen&#45;birthday.js -->
<g id="edge27" class="edge">
<title>lib/gen&#45;dinamic&#45;data/index.js&#45;&gt;lib/gen&#45;dinamic&#45;data/gen&#45;birthday.js</title>
<path fill="none" stroke="#000000" stroke-width="2" stroke-opacity="0.466667" d="M323.6246,-406.5668C333.922,-413.5424 347.4675,-424.294 355.5903,-437 367.2642,-455.2606 351.571,-470.581 368.5903,-484 391.8893,-502.3701 472.1119,-499.6643 524.6176,-495.6201"/>
<polygon fill="#000000" fill-opacity="0.466667" stroke="#000000" stroke-width="2" stroke-opacity="0.466667" points="525.0402,-499.0974 534.7241,-494.7993 524.4735,-492.1204 525.0402,-499.0974"/>
</g>
<!-- lib/gen&#45;dinamic&#45;data/index.js&#45;&gt;lib/gen&#45;dinamic&#45;data/gen&#45;company.js -->
<g id="edge28" class="edge">
<title>lib/gen&#45;dinamic&#45;data/index.js&#45;&gt;lib/gen&#45;dinamic&#45;data/gen&#45;company.js</title>
<path fill="none" stroke="#000000" stroke-width="2" stroke-opacity="0.466667" d="M312.7819,-389.4725C319.904,-371.7926 338.7894,-331.1179 368.5903,-311 373.2386,-307.8621 378.4653,-305.4115 383.8815,-303.5004"/>
<polygon fill="#000000" fill-opacity="0.466667" stroke="#000000" stroke-width="2" stroke-opacity="0.466667" points="385.1376,-306.7797 393.7514,-300.611 383.1708,-300.0616 385.1376,-306.7797"/>
</g>
<!-- lib/gen&#45;dinamic&#45;data/index.js&#45;&gt;lib/gen&#45;dinamic&#45;data/gen&#45;national&#45;id/index.js -->
<g id="edge29" class="edge">
<title>lib/gen&#45;dinamic&#45;data/index.js&#45;&gt;lib/gen&#45;dinamic&#45;data/gen&#45;national&#45;id/index.js</title>
<path fill="none" stroke="#000000" stroke-width="2" stroke-opacity="0.466667" d="M310.5131,-389.1645C313.655,-364.3546 326.111,-293.6103 368.5903,-259 376.3771,-252.6556 386.4163,-249.1307 396.2554,-247.2386"/>
<polygon fill="#000000" fill-opacity="0.466667" stroke="#000000" stroke-width="2" stroke-opacity="0.466667" points="396.9247,-250.6788 406.3336,-245.8082 395.941,-243.7482 396.9247,-250.6788"/>
</g>
<!-- lib/gen&#45;dinamic&#45;data/index.js&#45;&gt;lib/gen&#45;dinamic&#45;data/gen&#45;phone&#45;number.js -->
<g id="edge30" class="edge">
<title>lib/gen&#45;dinamic&#45;data/index.js&#45;&gt;lib/gen&#45;dinamic&#45;data/gen&#45;phone&#45;number.js</title>
<path fill="none" stroke="#000000" stroke-width="2" stroke-opacity="0.466667" d="M324.2409,-406.7443C334.5748,-413.6688 347.8919,-424.2766 355.5903,-437 369.266,-459.6021 350.3888,-475.8537 368.5903,-495 370.191,-496.6838 371.9344,-498.2145 373.7886,-499.6059"/>
<polygon fill="#000000" fill-opacity="0.466667" stroke="#000000" stroke-width="2" stroke-opacity="0.466667" points="372.1544,-502.7071 382.5291,-504.8555 375.7586,-496.7062 372.1544,-502.7071"/>
</g>
<!-- lib/gen&#45;dinamic&#45;data/index.js&#45;&gt;lib/gen&#45;dinamic&#45;data/gen&#45;vat.js -->
<g id="edge31" class="edge">
<title>lib/gen&#45;dinamic&#45;data/index.js&#45;&gt;lib/gen&#45;dinamic&#45;data/gen&#45;vat.js</title>
<path fill="none" stroke="#000000" stroke-width="2" stroke-opacity="0.466667" d="M321.2194,-406.5917C330.9556,-414.0621 344.9213,-425.4699 355.5903,-437 362.2925,-444.2431 360.331,-449.5994 368.5903,-455 376.6512,-460.2708 386.3666,-463.5915 395.7923,-465.6738"/>
<polygon fill="#000000" fill-opacity="0.466667" stroke="#000000" stroke-width="2" stroke-opacity="0.466667" points="395.3521,-469.1508 405.8145,-467.481 396.5943,-462.2619 395.3521,-469.1508"/>
</g>
<!-- lib/generate&#45;credentials.js -->
<g id="node24" class="node">
<title>lib/generate&#45;credentials.js</title>
<g id="a_node24"><a xlink:href="lib/generate-credentials.js" xlink:title="generate&#45;credentials.js">
<path fill="#ffffcc" stroke="#000000" d="M620.0316,-734.5C620.0316,-734.5 524.2643,-734.5 524.2643,-734.5 521.431,-734.5 518.5976,-731.6667 518.5976,-728.8333 518.5976,-728.8333 518.5976,-723.1667 518.5976,-723.1667 518.5976,-720.3333 521.431,-717.5 524.2643,-717.5 524.2643,-717.5 620.0316,-717.5 620.0316,-717.5 622.8649,-717.5 625.6983,-720.3333 625.6983,-723.1667 625.6983,-723.1667 625.6983,-728.8333 625.6983,-728.8333 625.6983,-731.6667 622.8649,-734.5 620.0316,-734.5"/>
<text text-anchor="middle" x="572.1479" y="-723.3" font-family="Helvetica,sans-Serif" font-size="9.00" fill="#000000">generate&#45;credentials.js</text>
</a>
</g>
</g>
<!-- lib/util/get&#45;my&#45;date.js -->
<g id="node36" class="node">
<title>lib/util/get&#45;my&#45;date.js</title>
<g id="a_node36"><a xlink:href="lib/util/get-my-date.js" xlink:title="get&#45;my&#45;date.js">
<path fill="#ffffcc" stroke="#000000" d="M734.0374,-696.5C734.0374,-696.5 672.3327,-696.5 672.3327,-696.5 669.4993,-696.5 666.666,-693.6667 666.666,-690.8333 666.666,-690.8333 666.666,-685.1667 666.666,-685.1667 666.666,-682.3333 669.4993,-679.5 672.3327,-679.5 672.3327,-679.5 734.0374,-679.5 734.0374,-679.5 736.8708,-679.5 739.7041,-682.3333 739.7041,-685.1667 739.7041,-685.1667 739.7041,-690.8333 739.7041,-690.8333 739.7041,-693.6667 736.8708,-696.5 734.0374,-696.5"/>
<text text-anchor="middle" x="703.1851" y="-685.3" font-family="Helvetica,sans-Serif" font-size="9.00" fill="#000000">get&#45;my&#45;date.js</text>
</a>
</g>
</g>
<!-- lib/generate&#45;credentials.js&#45;&gt;lib/util/get&#45;my&#45;date.js -->
<g id="edge32" class="edge">
<title>lib/generate&#45;credentials.js&#45;&gt;lib/util/get&#45;my&#45;date.js</title>
<path fill="none" stroke="#000000" stroke-width="2" stroke-opacity="0.466667" d="M606.6659,-717.4213C614.594,-714.874 622.8422,-711.7414 630.1685,-708 634.1266,-705.9786 634.1245,-703.8439 638.1685,-702 643.9598,-699.3594 650.2717,-697.2069 656.6114,-695.4547"/>
<polygon fill="#000000" fill-opacity="0.466667" stroke="#000000" stroke-width="2" stroke-opacity="0.466667" points="657.6502,-698.8036 666.526,-693.018 655.9796,-692.0058 657.6502,-698.8036"/>
</g>
<!-- lib/get&#45;static&#45;data/get&#45;static&#45;national&#45;id.js -->
<g id="node25" class="node">
<title>lib/get&#45;static&#45;data/get&#45;static&#45;national&#45;id.js</title>
<g id="a_node25"><a xlink:href="lib/get-static-data/get-static-national-id.js" xlink:title="get&#45;static&#45;national&#45;id.js">
<path fill="#ffffcc" stroke="#000000" d="M480.7318,-609.5C480.7318,-609.5 385.986,-609.5 385.986,-609.5 383.1527,-609.5 380.3193,-606.6667 380.3193,-603.8333 380.3193,-603.8333 380.3193,-598.1667 380.3193,-598.1667 380.3193,-595.3333 383.1527,-592.5 385.986,-592.5 385.986,-592.5 480.7318,-592.5 480.7318,-592.5 483.5651,-592.5 486.3984,-595.3333 486.3984,-598.1667 486.3984,-598.1667 486.3984,-603.8333 486.3984,-603.8333 486.3984,-606.6667 483.5651,-609.5 480.7318,-609.5"/>
<text text-anchor="middle" x="433.3589" y="-598.3" font-family="Helvetica,sans-Serif" font-size="9.00" fill="#000000">get&#45;static&#45;national&#45;id.js</text>
</a>
</g>
</g>
<!-- lib/get&#45;static&#45;data/get&#45;static&#45;profile&#45;merchant.js -->
<g id="node26" class="node">
<title>lib/get&#45;static&#45;data/get&#45;static&#45;profile&#45;merchant.js</title>
<g id="a_node26"><a xlink:href="lib/get-static-data/get-static-profile-merchant.js" xlink:title="get&#45;static&#45;profile&#45;merchant.js">
<path fill="#ffffcc" stroke="#000000" d="M492.2302,-638.5C492.2302,-638.5 374.4876,-638.5 374.4876,-638.5 371.6543,-638.5 368.821,-635.6667 368.821,-632.8333 368.821,-632.8333 368.821,-627.1667 368.821,-627.1667 368.821,-624.3333 371.6543,-621.5 374.4876,-621.5 374.4876,-621.5 492.2302,-621.5 492.2302,-621.5 495.0635,-621.5 497.8968,-624.3333 497.8968,-627.1667 497.8968,-627.1667 497.8968,-632.8333 497.8968,-632.8333 497.8968,-635.6667 495.0635,-638.5 492.2302,-638.5"/>
<text text-anchor="middle" x="433.3589" y="-627.3" font-family="Helvetica,sans-Serif" font-size="9.00" fill="#000000">get&#45;static&#45;profile&#45;merchant.js</text>
</a>
</g>
</g>
<!-- lib/get&#45;static&#45;data/get&#45;static&#45;profile&#45;personal.js -->
<g id="node27" class="node">
<title>lib/get&#45;static&#45;data/get&#45;static&#45;profile&#45;personal.js</title>
<g id="a_node27"><a xlink:href="lib/get-static-data/get-static-profile-personal.js" xlink:title="get&#45;static&#45;profile&#45;personal.js">
<path fill="#ffffcc" stroke="#000000" d="M490.7375,-667.5C490.7375,-667.5 375.9803,-667.5 375.9803,-667.5 373.147,-667.5 370.3136,-664.6667 370.3136,-661.8333 370.3136,-661.8333 370.3136,-656.1667 370.3136,-656.1667 370.3136,-653.3333 373.147,-650.5 375.9803,-650.5 375.9803,-650.5 490.7375,-650.5 490.7375,-650.5 493.5708,-650.5 496.4041,-653.3333 496.4041,-656.1667 496.4041,-656.1667 496.4041,-661.8333 496.4041,-661.8333 496.4041,-664.6667 493.5708,-667.5 490.7375,-667.5"/>
<text text-anchor="middle" x="433.3589" y="-656.3" font-family="Helvetica,sans-Serif" font-size="9.00" fill="#000000">get&#45;static&#45;profile&#45;personal.js</text>
</a>
</g>
</g>
<!-- lib/get&#45;static&#45;data/get&#45;static&#45;vat&#45;id.js -->
<g id="node28" class="node">
<title>lib/get&#45;static&#45;data/get&#45;static&#45;vat&#45;id.js</title>
<g id="a_node28"><a xlink:href="lib/get-static-data/get-static-vat-id.js" xlink:title="get&#45;static&#45;vat&#45;id.js">
<path fill="#ffffcc" stroke="#000000" d="M470.7126,-696.5C470.7126,-696.5 396.0052,-696.5 396.0052,-696.5 393.1718,-696.5 390.3385,-693.6667 390.3385,-690.8333 390.3385,-690.8333 390.3385,-685.1667 390.3385,-685.1667 390.3385,-682.3333 393.1718,-679.5 396.0052,-679.5 396.0052,-679.5 470.7126,-679.5 470.7126,-679.5 473.5459,-679.5 476.3793,-682.3333 476.3793,-685.1667 476.3793,-685.1667 476.3793,-690.8333 476.3793,-690.8333 476.3793,-693.6667 473.5459,-696.5 470.7126,-696.5"/>
<text text-anchor="middle" x="433.3589" y="-685.3" font-family="Helvetica,sans-Serif" font-size="9.00" fill="#000000">get&#45;static&#45;vat&#45;id.js</text>
</a>
</g>
</g>
<!-- lib/get&#45;static&#45;data/index.js -->
<g id="node29" class="node">
<title>lib/get&#45;static&#45;data/index.js</title>
<g id="a_node29"><a xlink:href="lib/get-static-data/index.js" xlink:title="index.js">
<path fill="#ffffcc" stroke="#000000" d="M330.9044,-638.5C330.9044,-638.5 288.2377,-638.5 288.2377,-638.5 285.4044,-638.5 282.571,-635.6667 282.571,-632.8333 282.571,-632.8333 282.571,-627.1667 282.571,-627.1667 282.571,-624.3333 285.4044,-621.5 288.2377,-621.5 288.2377,-621.5 330.9044,-621.5 330.9044,-621.5 333.7377,-621.5 336.571,-624.3333 336.571,-627.1667 336.571,-627.1667 336.571,-632.8333 336.571,-632.8333 336.571,-635.6667 333.7377,-638.5 330.9044,-638.5"/>
<text text-anchor="middle" x="309.571" y="-627.3" font-family="Helvetica,sans-Serif" font-size="9.00" fill="#000000">index.js</text>
</a>
</g>
</g>
<!-- lib/get&#45;static&#45;data/index.js&#45;&gt;lib/get&#45;static&#45;data/get&#45;static&#45;national&#45;id.js -->
<g id="edge33" class="edge">
<title>lib/get&#45;static&#45;data/index.js&#45;&gt;lib/get&#45;static&#45;data/get&#45;static&#45;national&#45;id.js</title>
<path fill="none" stroke="#000000" stroke-width="2" stroke-opacity="0.466667" d="M336.5948,-623.5578C346.6387,-621.1718 358.1324,-618.4513 368.5903,-616 374.3496,-614.65 380.3987,-613.2394 386.3908,-611.8465"/>
<polygon fill="#000000" fill-opacity="0.466667" stroke="#000000" stroke-width="2" stroke-opacity="0.466667" points="387.4101,-615.2031 396.36,-609.5329 385.8276,-608.3843 387.4101,-615.2031"/>
</g>
<!-- lib/get&#45;static&#45;data/index.js&#45;&gt;lib/get&#45;static&#45;data/get&#45;static&#45;profile&#45;merchant.js -->
<g id="edge34" class="edge">
<title>lib/get&#45;static&#45;data/index.js&#45;&gt;lib/get&#45;static&#45;data/get&#45;static&#45;profile&#45;merchant.js</title>
<path fill="none" stroke="#000000" stroke-width="2" stroke-opacity="0.466667" d="M336.7368,-630C343.3678,-630 350.7852,-630 358.483,-630"/>
<polygon fill="#000000" fill-opacity="0.466667" stroke="#000000" stroke-width="2" stroke-opacity="0.466667" points="358.7218,-633.5001 368.7217,-630 358.7217,-626.5001 358.7218,-633.5001"/>
</g>
<!-- lib/get&#45;static&#45;data/index.js&#45;&gt;lib/get&#45;static&#45;data/get&#45;static&#45;profile&#45;personal.js -->
<g id="edge35" class="edge">
<title>lib/get&#45;static&#45;data/index.js&#45;&gt;lib/get&#45;static&#45;data/get&#45;static&#45;profile&#45;personal.js</title>
<path fill="none" stroke="#000000" stroke-width="2" stroke-opacity="0.466667" d="M336.8476,-637.1506C346.8166,-639.7063 358.1958,-642.5565 368.5903,-645 373.2449,-646.0942 378.0953,-647.2021 382.9553,-648.2904"/>
<polygon fill="#000000" fill-opacity="0.466667" stroke="#000000" stroke-width="2" stroke-opacity="0.466667" points="382.3649,-651.7443 392.8848,-650.4862 383.8764,-644.9095 382.3649,-651.7443"/>
</g>
<!-- lib/get&#45;static&#45;data/index.js&#45;&gt;lib/get&#45;static&#45;data/get&#45;static&#45;vat&#45;id.js -->
<g id="edge36" class="edge">
<title>lib/get&#45;static&#45;data/index.js&#45;&gt;lib/get&#45;static&#45;data/get&#45;static&#45;vat&#45;id.js</title>
<path fill="none" stroke="#000000" stroke-width="2" stroke-opacity="0.466667" d="M318.3815,-638.5158C329.2755,-648.5547 348.8121,-665.0069 368.5903,-674 372.2557,-675.6666 376.1295,-677.1392 380.0861,-678.4397"/>
<polygon fill="#000000" fill-opacity="0.466667" stroke="#000000" stroke-width="2" stroke-opacity="0.466667" points="379.441,-681.8971 390.0207,-681.3302 381.3967,-675.1758 379.441,-681.8971"/>
</g>
<!-- lib/index.js -->
<g id="node30" class="node">
<title>lib/index.js</title>
<g id="a_node30"><a xlink:href="lib/index.js" xlink:title="index.js">
<path fill="#ffffcc" stroke="#000000" d="M64.3333,-128.5C64.3333,-128.5 21.6667,-128.5 21.6667,-128.5 18.8333,-128.5 16,-125.6667 16,-122.8333 16,-122.8333 16,-117.1667 16,-117.1667 16,-114.3333 18.8333,-111.5 21.6667,-111.5 21.6667,-111.5 64.3333,-111.5 64.3333,-111.5 67.1667,-111.5 70,-114.3333 70,-117.1667 70,-117.1667 70,-122.8333 70,-122.8333 70,-125.6667 67.1667,-128.5 64.3333,-128.5"/>
<text text-anchor="middle" x="43" y="-117.3" font-family="Helvetica,sans-Serif" font-size="9.00" fill="#000000">index.js</text>
</a>
</g>
</g>
<!-- lib/profile/index.js -->
<g id="node33" class="node">
<title>lib/profile/index.js</title>
<g id="a_node33"><a xlink:href="lib/profile/index.js" xlink:title="index.js">
<path fill="#ffffcc" stroke="#000000" d="M149.0987,-128.5C149.0987,-128.5 106.432,-128.5 106.432,-128.5 103.5987,-128.5 100.7654,-125.6667 100.7654,-122.8333 100.7654,-122.8333 100.7654,-117.1667 100.7654,-117.1667 100.7654,-114.3333 103.5987,-111.5 106.432,-111.5 106.432,-111.5 149.0987,-111.5 149.0987,-111.5 151.932,-111.5 154.7654,-114.3333 154.7654,-117.1667 154.7654,-117.1667 154.7654,-122.8333 154.7654,-122.8333 154.7654,-125.6667 151.932,-128.5 149.0987,-128.5"/>
<text text-anchor="middle" x="127.7654" y="-117.3" font-family="Helvetica,sans-Serif" font-size="9.00" fill="#000000">index.js</text>
</a>
</g>
</g>
<!-- lib/index.js&#45;&gt;lib/profile/index.js -->
<g id="edge37" class="edge">
<title>lib/index.js&#45;&gt;lib/profile/index.js</title>
<path fill="none" stroke="#000000" stroke-width="2" stroke-opacity="0.466667" d="M70.2869,-120C76.6391,-120 83.5117,-120 90.2205,-120"/>
<polygon fill="#000000" fill-opacity="0.466667" stroke="#000000" stroke-width="2" stroke-opacity="0.466667" points="90.5297,-123.5001 100.5296,-120 90.5296,-116.5001 90.5297,-123.5001"/>
</g>
<!-- lib/profile/Profile.js -->
<g id="node31" class="node">
<title>lib/profile/Profile.js</title>
<g id="a_node31"><a xlink:href="lib/profile/Profile.js" xlink:title="Profile.js">
<path fill="#ffffcc" stroke="#000000" d="M330.9044,-128.5C330.9044,-128.5 288.2377,-128.5 288.2377,-128.5 285.4044,-128.5 282.571,-125.6667 282.571,-122.8333 282.571,-122.8333 282.571,-117.1667 282.571,-117.1667 282.571,-114.3333 285.4044,-111.5 288.2377,-111.5 288.2377,-111.5 330.9044,-111.5 330.9044,-111.5 333.7377,-111.5 336.571,-114.3333 336.571,-117.1667 336.571,-117.1667 336.571,-122.8333 336.571,-122.8333 336.571,-125.6667 333.7377,-128.5 330.9044,-128.5"/>
<text text-anchor="middle" x="309.571" y="-117.3" font-family="Helvetica,sans-Serif" font-size="9.00" fill="#000000">Profile.js</text>
</a>
</g>
</g>
<!-- lib/profile/Profile.js&#45;&gt;lib/data/country&#45;list.js -->
<g id="edge38" class="edge">
<title>lib/profile/Profile.js&#45;&gt;lib/data/country&#45;list.js</title>
<path fill="none" stroke="#000000" stroke-width="2" stroke-opacity="0.466667" d="M336.6824,-114.0114C381.8592,-104.0324 472.9672,-83.9078 527.6605,-71.8267"/>
<polygon fill="#000000" fill-opacity="0.466667" stroke="#000000" stroke-width="2" stroke-opacity="0.466667" points="528.7498,-75.1706 537.7595,-69.596 527.2399,-68.3353 528.7498,-75.1706"/>
</g>
<!-- lib/profile/get&#45;profile.js -->
<g id="node32" class="node">
<title>lib/profile/get&#45;profile.js</title>
<g id="a_node32"><a xlink:href="lib/profile/get-profile.js" xlink:title="get&#45;profile.js">
<path fill="#ffffcc" stroke="#000000" d="M241.8956,-128.5C241.8956,-128.5 188.1869,-128.5 188.1869,-128.5 185.3536,-128.5 182.5203,-125.6667 182.5203,-122.8333 182.5203,-122.8333 182.5203,-117.1667 182.5203,-117.1667 182.5203,-114.3333 185.3536,-111.5 188.1869,-111.5 188.1869,-111.5 241.8956,-111.5 241.8956,-111.5 244.7289,-111.5 247.5623,-114.3333 247.5623,-117.1667 247.5623,-117.1667 247.5623,-122.8333 247.5623,-122.8333 247.5623,-125.6667 244.7289,-128.5 241.8956,-128.5"/>
<text text-anchor="middle" x="215.0413" y="-117.3" font-family="Helvetica,sans-Serif" font-size="9.00" fill="#000000">get&#45;profile.js</text>
</a>
</g>
</g>
<!-- lib/profile/get&#45;profile.js&#45;&gt;lib/gen&#45;dinamic&#45;data/index.js -->
<g id="edge39" class="edge">
<title>lib/profile/get&#45;profile.js&#45;&gt;lib/gen&#45;dinamic&#45;data/index.js</title>
<path fill="none" stroke="#000000" stroke-width="2" stroke-opacity="0.466667" d="M217.974,-128.6248C231.1519,-167.3795 285.0435,-325.8675 303.4078,-379.8746"/>
<polygon fill="#000000" fill-opacity="0.466667" stroke="#000000" stroke-width="2" stroke-opacity="0.466667" points="300.1394,-381.1349 306.6725,-389.4757 306.7668,-378.8813 300.1394,-381.1349"/>
</g>
<!-- lib/profile/get&#45;profile.js&#45;&gt;lib/get&#45;static&#45;data/index.js -->
<g id="edge40" class="edge">
<title>lib/profile/get&#45;profile.js&#45;&gt;lib/get&#45;static&#45;data/index.js</title>
<path fill="none" stroke="#000000" stroke-width="2" stroke-opacity="0.466667" d="M215.4354,-128.6537C218.1983,-188.2619 235.1504,-536.8826 255.5518,-579 262.631,-593.6147 275.8134,-606.19 287.3833,-615.1969"/>
<polygon fill="#000000" fill-opacity="0.466667" stroke="#000000" stroke-width="2" stroke-opacity="0.466667" points="285.6555,-618.2702 295.7887,-621.3636 289.7963,-612.6262 285.6555,-618.2702"/>
</g>
<!-- lib/profile/get&#45;profile.js&#45;&gt;lib/profile/Profile.js -->
<g id="edge44" class="edge">
<title>lib/profile/get&#45;profile.js&#45;&gt;lib/profile/Profile.js</title>
<path fill="none" stroke="#000000" stroke-width="2" stroke-opacity="0.466667" d="M247.573,-120C255.5339,-120 264.1144,-120 272.279,-120"/>
<polygon fill="#000000" fill-opacity="0.466667" stroke="#000000" stroke-width="2" stroke-opacity="0.466667" points="272.3203,-123.5001 282.3203,-120 272.3202,-116.5001 272.3203,-123.5001"/>
</g>
<!-- lib/profile/mcc&#45;validate.js -->
<g id="node34" class="node">
<title>lib/profile/mcc&#45;validate.js</title>
<g id="a_node34"><a xlink:href="lib/profile/mcc-validate.js" xlink:title="mcc&#45;validate.js">
<path fill="#ffffcc" stroke="#000000" d="M341.4211,-99.5C341.4211,-99.5 277.721,-99.5 277.721,-99.5 274.8877,-99.5 272.0544,-96.6667 272.0544,-93.8333 272.0544,-93.8333 272.0544,-88.1667 272.0544,-88.1667 272.0544,-85.3333 274.8877,-82.5 277.721,-82.5 277.721,-82.5 341.4211,-82.5 341.4211,-82.5 344.2544,-82.5 347.0877,-85.3333 347.0877,-88.1667 347.0877,-88.1667 347.0877,-93.8333 347.0877,-93.8333 347.0877,-96.6667 344.2544,-99.5 341.4211,-99.5"/>
<text text-anchor="middle" x="309.571" y="-88.3" font-family="Helvetica,sans-Serif" font-size="9.00" fill="#000000">mcc&#45;validate.js</text>
</a>
</g>
</g>
<!-- lib/profile/get&#45;profile.js&#45;&gt;lib/profile/mcc&#45;validate.js -->
<g id="edge45" class="edge">
<title>lib/profile/get&#45;profile.js&#45;&gt;lib/profile/mcc&#45;validate.js</title>
<path fill="none" stroke="#000000" stroke-width="2" stroke-opacity="0.466667" d="M238.9519,-111.4622C244.388,-109.5978 250.152,-107.681 255.5518,-106 259.5246,-104.7632 263.677,-103.5212 267.8382,-102.3102"/>
<polygon fill="#000000" fill-opacity="0.466667" stroke="#000000" stroke-width="2" stroke-opacity="0.466667" points="268.8276,-105.6677 277.4832,-99.5578 266.9066,-98.9364 268.8276,-105.6677"/>
</g>
<!-- lib/profile/get&#45;profile.js&#45;&gt;lib/util/get&#45;my&#45;date.js -->
<g id="edge41" class="edge">
<title>lib/profile/get&#45;profile.js&#45;&gt;lib/util/get&#45;my&#45;date.js</title>
<path fill="none" stroke="#000000" stroke-width="2" stroke-opacity="0.466667" d="M215.2874,-128.8253C217.3822,-202.4856 232.7017,-712.9326 255.5518,-735 285.4996,-763.922 598.0335,-769.4707 630.1685,-743 644.4986,-731.1958 625.1683,-715.2547 638.1685,-702 643.166,-696.9046 649.5406,-693.4537 656.336,-691.1501"/>
<polygon fill="#000000" fill-opacity="0.466667" stroke="#000000" stroke-width="2" stroke-opacity="0.466667" points="657.6702,-694.4208 666.4818,-688.5381 655.9249,-687.6418 657.6702,-694.4208"/>
</g>
<!-- lib/util/get&#45;random&#45;user.js -->
<g id="node37" class="node">
<title>lib/util/get&#45;random&#45;user.js</title>
<g id="a_node37"><a xlink:href="lib/util/get-random-user.js" xlink:title="get&#45;random&#45;user.js">
<path fill="#ffffcc" stroke="#000000" d="M743.055,-667.5C743.055,-667.5 663.3151,-667.5 663.3151,-667.5 660.4818,-667.5 657.6484,-664.6667 657.6484,-661.8333 657.6484,-661.8333 657.6484,-656.1667 657.6484,-656.1667 657.6484,-653.3333 660.4818,-650.5 663.3151,-650.5 663.3151,-650.5 743.055,-650.5 743.055,-650.5 745.8884,-650.5 748.7217,-653.3333 748.7217,-656.1667 748.7217,-656.1667 748.7217,-661.8333 748.7217,-661.8333 748.7217,-664.6667 745.8884,-667.5 743.055,-667.5"/>
<text text-anchor="middle" x="703.1851" y="-656.3" font-family="Helvetica,sans-Serif" font-size="9.00" fill="#000000">get&#45;random&#45;user.js</text>
</a>
</g>
</g>
<!-- lib/profile/get&#45;profile.js&#45;&gt;lib/util/get&#45;random&#45;user.js -->
<g id="edge42" class="edge">
<title>lib/profile/get&#45;profile.js&#45;&gt;lib/util/get&#45;random&#45;user.js</title>
<path fill="none" stroke="#000000" stroke-width="2" stroke-opacity="0.466667" d="M215.2878,-128.6874C217.3858,-201.1965 232.727,-703.6525 255.5518,-725 275.8859,-744.0181 482.4438,-739.6373 506.1274,-725 512.8905,-720.8202 508.0012,-714.0674 514.1274,-709 558.2664,-672.4901 582.6798,-688.2206 638.1685,-674 643.4987,-672.634 649.0892,-671.2585 654.66,-669.924"/>
<polygon fill="#000000" fill-opacity="0.466667" stroke="#000000" stroke-width="2" stroke-opacity="0.466667" points="655.6767,-673.2803 664.6056,-667.5773 654.0691,-666.4674 655.6767,-673.2803"/>
</g>
<!-- lib/util/logger.js -->
<g id="node39" class="node">
<title>lib/util/logger.js</title>
<g id="a_node39"><a xlink:href="lib/util/logger.js" xlink:title="logger.js">
<path fill="#ffffcc" stroke="#000000" d="M826.2962,-711.5C826.2962,-711.5 783.6296,-711.5 783.6296,-711.5 780.7962,-711.5 777.9629,-708.6667 777.9629,-705.8333 777.9629,-705.8333 777.9629,-700.1667 777.9629,-700.1667 777.9629,-697.3333 780.7962,-694.5 783.6296,-694.5 783.6296,-694.5 826.2962,-694.5 826.2962,-694.5 829.1296,-694.5 831.9629,-697.3333 831.9629,-700.1667 831.9629,-700.1667 831.9629,-705.8333 831.9629,-705.8333 831.9629,-708.6667 829.1296,-711.5 826.2962,-711.5"/>
<text text-anchor="middle" x="804.9629" y="-700.3" font-family="Helvetica,sans-Serif" font-size="9.00" fill="#000000">logger.js</text>
</a>
</g>
</g>
<!-- lib/profile/get&#45;profile.js&#45;&gt;lib/util/logger.js -->
<g id="edge43" class="edge">
<title>lib/profile/get&#45;profile.js&#45;&gt;lib/util/logger.js</title>
<path fill="none" stroke="#000000" stroke-width="2" stroke-opacity="0.466667" d="M215.2781,-128.5448C217.354,-202.0538 232.9114,-725.6072 255.5518,-749 310.7324,-806.0147 354.0142,-765 433.3589,-765 433.3589,-765 433.3589,-765 572.1479,-765 655.7699,-765 685.4281,-796.4372 760.2017,-759 776.3427,-750.9186 788.5613,-734.0205 796.1213,-720.8892"/>
<polygon fill="#000000" fill-opacity="0.466667" stroke="#000000" stroke-width="2" stroke-opacity="0.466667" points="799.3572,-722.2598 800.9822,-711.7903 793.183,-718.9613 799.3572,-722.2598"/>
</g>
<!-- lib/profile/index.js&#45;&gt;lib/profile/get&#45;profile.js -->
<g id="edge46" class="edge">
<title>lib/profile/index.js&#45;&gt;lib/profile/get&#45;profile.js</title>
<path fill="none" stroke="#000000" stroke-width="2" stroke-opacity="0.466667" d="M154.9016,-120C160.3434,-120 166.1866,-120 172.0153,-120"/>
<polygon fill="#000000" fill-opacity="0.466667" stroke="#000000" stroke-width="2" stroke-opacity="0.466667" points="172.4014,-123.5001 182.4014,-120 172.4013,-116.5001 172.4014,-123.5001"/>
</g>
<!-- lib/profile/mcc&#45;validate.js&#45;&gt;lib/data/mccs&#45;available.js -->
<g id="edge47" class="edge">
<title>lib/profile/mcc&#45;validate.js&#45;&gt;lib/data/mccs&#45;available.js</title>
<path fill="none" stroke="#000000" stroke-width="2" stroke-opacity="0.466667" d="M337.3669,-82.4875C347.1858,-79.6152 358.3355,-76.5052 368.5903,-74 419.5987,-61.5388 478.4597,-49.9849 519.7247,-42.3399"/>
<polygon fill="#000000" fill-opacity="0.466667" stroke="#000000" stroke-width="2" stroke-opacity="0.466667" points="520.6196,-45.7341 529.8212,-40.4823 519.3529,-38.8496 520.6196,-45.7341"/>
</g>
<!-- lib/profile/profile&#45;validate.js -->
<g id="node35" class="node">
<title>lib/profile/profile&#45;validate.js</title>
<g id="a_node35"><a xlink:href="lib/profile/profile-validate.js" xlink:title="profile&#45;validate.js">
<path fill="#ffffcc" stroke="#000000" d="M163.6308,-99.5C163.6308,-99.5 91.9,-99.5 91.9,-99.5 89.0666,-99.5 86.2333,-96.6667 86.2333,-93.8333 86.2333,-93.8333 86.2333,-88.1667 86.2333,-88.1667 86.2333,-85.3333 89.0666,-82.5 91.9,-82.5 91.9,-82.5 163.6308,-82.5 163.6308,-82.5 166.4641,-82.5 169.2975,-85.3333 169.2975,-88.1667 169.2975,-88.1667 169.2975,-93.8333 169.2975,-93.8333 169.2975,-96.6667 166.4641,-99.5 163.6308,-99.5"/>
<text text-anchor="middle" x="127.7654" y="-88.3" font-family="Helvetica,sans-Serif" font-size="9.00" fill="#000000">profile&#45;validate.js</text>
</a>
</g>
</g>
<!-- lib/util/get&#45;random&#45;user.js&#45;&gt;lib/util/logger.js -->
<g id="edge48" class="edge">
<title>lib/util/get&#45;random&#45;user.js&#45;&gt;lib/util/logger.js</title>
<path fill="none" stroke="#000000" stroke-width="2" stroke-opacity="0.466667" d="M742.3953,-667.5494C748.468,-669.3753 754.5843,-671.5179 760.2017,-674 768.9676,-677.8734 777.9619,-683.355 785.5671,-688.5113"/>
<polygon fill="#000000" fill-opacity="0.466667" stroke="#000000" stroke-width="2" stroke-opacity="0.466667" points="783.573,-691.3878 793.76,-694.2991 787.6119,-685.6705 783.573,-691.3878"/>
</g>
<!-- lib/util/get&#45;random&#45;user/get&#45;random&#45;user.js -->
<g id="node38" class="node">
<title>lib/util/get&#45;random&#45;user/get&#45;random&#45;user.js</title>
<g id="a_node38"><a xlink:href="lib/util/get-random-user/get-random-user.js" xlink:title="get&#45;random&#45;user.js">
<path fill="#ffffcc" stroke="#000000" d="M743.055,-730.5C743.055,-730.5 663.3151,-730.5 663.3151,-730.5 660.4818,-730.5 657.6484,-727.6667 657.6484,-724.8333 657.6484,-724.8333 657.6484,-719.1667 657.6484,-719.1667 657.6484,-716.3333 660.4818,-713.5 663.3151,-713.5 663.3151,-713.5 743.055,-713.5 743.055,-713.5 745.8884,-713.5 748.7217,-716.3333 748.7217,-719.1667 748.7217,-719.1667 748.7217,-724.8333 748.7217,-724.8333 748.7217,-727.6667 745.8884,-730.5 743.055,-730.5"/>
<text text-anchor="middle" x="703.1851" y="-719.3" font-family="Helvetica,sans-Serif" font-size="9.00" fill="#000000">get&#45;random&#45;user.js</text>
</a>
</g>
</g>
</g>
</svg>
