<?xml version="1.0" encoding="UTF-8" standalone="no"?>
<!DOCTYPE svg PUBLIC "-//W3C//DTD SVG 1.1//EN"
 "http://www.w3.org/Graphics/SVG/1.1/DTD/svg11.dtd">
<!-- Generated by graphviz version 2.40.1 (20161225.0304)
 -->
<!-- Title: dependency&#45;cruiser output Pages: 1 -->
<svg width="903pt" height="870pt"
 viewBox="0.00 0.00 902.97 870.00" xmlns="http://www.w3.org/2000/svg" xmlns:xlink="http://www.w3.org/1999/xlink">
<g id="graph0" class="graph" transform="scale(1 1) rotate(0) translate(4 866)">
<title>dependency&#45;cruiser output</title>
<polygon fill="#ffffff" stroke="transparent" points="-4,4 -4,-866 898.9688,-866 898.9688,4 -4,4"/>
<g id="clust1" class="cluster">
<title>cluster_lib</title>
<path fill="#ffffff" stroke="#000000" stroke-width="2" d="M20,-8C20,-8 874.9688,-8 874.9688,-8 880.9688,-8 886.9688,-14 886.9688,-20 886.9688,-20 886.9688,-842 886.9688,-842 886.9688,-848 880.9688,-854 874.9688,-854 874.9688,-854 20,-854 20,-854 14,-854 8,-848 8,-842 8,-842 8,-20 8,-20 8,-14 14,-8 20,-8"/>
<text text-anchor="middle" x="447.4844" y="-842.8" font-family="Helvetica,sans-Serif" font-weight="bold" font-size="9.00" fill="#000000">lib</text>
</g>
<g id="clust2" class="cluster">
<title>cluster_lib/data</title>
<path fill="#ffffff" stroke="#000000" stroke-width="2" d="M535.3691,-33C535.3691,-33 836.4578,-33 836.4578,-33 842.4578,-33 848.4578,-39 848.4578,-45 848.4578,-45 848.4578,-169 848.4578,-169 848.4578,-175 842.4578,-181 836.4578,-181 836.4578,-181 535.3691,-181 535.3691,-181 529.3691,-181 523.3691,-175 523.3691,-169 523.3691,-169 523.3691,-45 523.3691,-45 523.3691,-39 529.3691,-33 535.3691,-33"/>
<text text-anchor="middle" x="685.9135" y="-169.8" font-family="Helvetica,sans-Serif" font-weight="bold" font-size="9.00" fill="#000000">data</text>
</g>
<g id="clust3" class="cluster">
<title>cluster_lib/data/__tests</title>
<path fill="#ffffff" stroke="#000000" stroke-width="2" d="M642.3928,-95C642.3928,-95 698.4207,-95 698.4207,-95 704.4207,-95 710.4207,-101 710.4207,-107 710.4207,-107 710.4207,-134 710.4207,-134 710.4207,-140 704.4207,-146 698.4207,-146 698.4207,-146 642.3928,-146 642.3928,-146 636.3928,-146 630.3928,-140 630.3928,-134 630.3928,-134 630.3928,-107 630.3928,-107 630.3928,-101 636.3928,-95 642.3928,-95"/>
<text text-anchor="middle" x="670.4067" y="-134.8" font-family="Helvetica,sans-Serif" font-weight="bold" font-size="9.00" fill="#000000">__tests</text>
</g>
<g id="clust4" class="cluster">
<title>cluster_lib/gen&#45;dinamic&#45;data</title>
<path fill="#ffffff" stroke="#000000" stroke-width="2" d="M289.3108,-189C289.3108,-189 866.9688,-189 866.9688,-189 872.9688,-189 878.9688,-195 878.9688,-201 878.9688,-201 878.9688,-671 878.9688,-671 878.9688,-677 872.9688,-683 866.9688,-683 866.9688,-683 289.3108,-683 289.3108,-683 283.3108,-683 277.3108,-677 277.3108,-671 277.3108,-671 277.3108,-201 277.3108,-201 277.3108,-195 283.3108,-189 289.3108,-189"/>
<text text-anchor="middle" x="578.1398" y="-671.8" font-family="Helvetica,sans-Serif" font-weight="bold" font-size="9.00" fill="#000000">gen&#45;dinamic&#45;data</text>
</g>
<g id="clust5" class="cluster">
<title>cluster_lib/gen&#45;dinamic&#45;data/gen&#45;address</title>
<path fill="#ffffff" stroke="#000000" stroke-width="2" d="M407.8369,-376C407.8369,-376 600.3862,-376 600.3862,-376 606.3862,-376 612.3862,-382 612.3862,-388 612.3862,-388 612.3862,-502 612.3862,-502 612.3862,-508 606.3862,-514 600.3862,-514 600.3862,-514 407.8369,-514 407.8369,-514 401.8369,-514 395.8369,-508 395.8369,-502 395.8369,-502 395.8369,-388 395.8369,-388 395.8369,-382 401.8369,-376 407.8369,-376"/>
<text text-anchor="middle" x="504.1116" y="-502.8" font-family="Helvetica,sans-Serif" font-weight="bold" font-size="9.00" fill="#000000">gen&#45;address</text>
</g>
<g id="clust6" class="cluster">
<title>cluster_lib/gen&#45;dinamic&#45;data/gen&#45;national&#45;id</title>
<path fill="#ffffff" stroke="#000000" stroke-width="2" d="M407.8369,-548C407.8369,-548 833.9592,-548 833.9592,-548 839.9592,-548 845.9592,-554 845.9592,-560 845.9592,-560 845.9592,-646 845.9592,-646 845.9592,-652 839.9592,-658 833.9592,-658 833.9592,-658 407.8369,-658 407.8369,-658 401.8369,-658 395.8369,-652 395.8369,-646 395.8369,-646 395.8369,-560 395.8369,-560 395.8369,-554 401.8369,-548 407.8369,-548"/>
<text text-anchor="middle" x="620.8981" y="-646.8" font-family="Helvetica,sans-Serif" font-weight="bold" font-size="9.00" fill="#000000">gen&#45;national&#45;id</text>
</g>
<g id="clust7" class="cluster">
<title>cluster_lib/gen&#45;dinamic&#45;data/gen&#45;national&#45;id/it.national&#45;id</title>
<path fill="#ffffff" stroke="#000000" stroke-width="2" d="M535.3691,-556C535.3691,-556 825.9592,-556 825.9592,-556 831.9592,-556 837.9592,-562 837.9592,-568 837.9592,-568 837.9592,-595 837.9592,-595 837.9592,-601 831.9592,-607 825.9592,-607 825.9592,-607 535.3691,-607 535.3691,-607 529.3691,-607 523.3691,-601 523.3691,-595 523.3691,-595 523.3691,-568 523.3691,-568 523.3691,-562 529.3691,-556 535.3691,-556"/>
<text text-anchor="middle" x="680.6642" y="-595.8" font-family="Helvetica,sans-Serif" font-weight="bold" font-size="9.00" fill="#000000">it.national&#45;id</text>
</g>
<g id="clust8" class="cluster">
<title>cluster_lib/gen&#45;dinamic&#45;data/gen&#45;random&#45;var</title>
<path fill="#ffffff" stroke="#000000" stroke-width="2" d="M523.6055,-197C523.6055,-197 858.9688,-197 858.9688,-197 864.9688,-197 870.9688,-203 870.9688,-209 870.9688,-209 870.9688,-298 870.9688,-298 870.9688,-304 864.9688,-310 858.9688,-310 858.9688,-310 523.6055,-310 523.6055,-310 517.6055,-310 511.6055,-304 511.6055,-298 511.6055,-298 511.6055,-209 511.6055,-209 511.6055,-203 517.6055,-197 523.6055,-197"/>
<text text-anchor="middle" x="691.2871" y="-298.8" font-family="Helvetica,sans-Serif" font-weight="bold" font-size="9.00" fill="#000000">gen&#45;random&#45;var</text>
</g>
<g id="clust9" class="cluster">
<title>cluster_lib/gen&#45;dinamic&#45;data/gen&#45;random&#45;var/__tests</title>
<path fill="#ffffff" stroke="#000000" stroke-width="2" d="M531.6055,-205C531.6055,-205 585.1328,-205 585.1328,-205 591.1328,-205 597.1328,-211 597.1328,-217 597.1328,-217 597.1328,-273 597.1328,-273 597.1328,-279 591.1328,-285 585.1328,-285 585.1328,-285 531.6055,-285 531.6055,-285 525.6055,-285 519.6055,-279 519.6055,-273 519.6055,-273 519.6055,-217 519.6055,-217 519.6055,-211 525.6055,-205 531.6055,-205"/>
<text text-anchor="middle" x="558.3691" y="-273.8" font-family="Helvetica,sans-Serif" font-weight="bold" font-size="9.00" fill="#000000">__tests</text>
</g>
<g id="clust10" class="cluster">
<title>cluster_lib/get&#45;static&#45;data</title>
<path fill="#ffffff" stroke="#000000" stroke-width="2" d="M289.3108,-691C289.3108,-691 491.6055,-691 491.6055,-691 497.6055,-691 503.6055,-697 503.6055,-703 503.6055,-703 503.6055,-817 503.6055,-817 503.6055,-823 497.6055,-829 491.6055,-829 491.6055,-829 289.3108,-829 289.3108,-829 283.3108,-829 277.3108,-823 277.3108,-817 277.3108,-817 277.3108,-703 277.3108,-703 277.3108,-697 283.3108,-691 289.3108,-691"/>
<text text-anchor="middle" x="390.4581" y="-817.8" font-family="Helvetica,sans-Serif" font-weight="bold" font-size="9.00" fill="#000000">get&#45;static&#45;data</text>
</g>
<g id="clust11" class="cluster">
<title>cluster_lib/profile</title>
<path fill="#ffffff" stroke="#000000" stroke-width="2" d="M90,-16C90,-16 346.0684,-16 346.0684,-16 352.0684,-16 358.0684,-22 358.0684,-28 358.0684,-28 358.0684,-169 358.0684,-169 358.0684,-175 352.0684,-181 346.0684,-181 346.0684,-181 90,-181 90,-181 84,-181 78,-175 78,-169 78,-169 78,-28 78,-28 78,-22 84,-16 90,-16"/>
<text text-anchor="middle" x="218.0342" y="-169.8" font-family="Helvetica,sans-Serif" font-weight="bold" font-size="9.00" fill="#000000">profile</text>
</g>
<g id="clust12" class="cluster">
<title>cluster_lib/profile/__tests</title>
<path fill="#ffffff" stroke="#000000" stroke-width="2" d="M98,-50C98,-50 176.5322,-50 176.5322,-50 182.5322,-50 188.5322,-56 188.5322,-62 188.5322,-62 188.5322,-118 188.5322,-118 188.5322,-124 182.5322,-130 176.5322,-130 176.5322,-130 98,-130 98,-130 92,-130 86,-124 86,-118 86,-118 86,-62 86,-62 86,-56 92,-50 98,-50"/>
<text text-anchor="middle" x="137.2661" y="-118.8" font-family="Helvetica,sans-Serif" font-weight="bold" font-size="9.00" fill="#000000">__tests</text>
</g>
<!-- lib/data/__tests/data.spec.js -->
<g id="node1" class="node">
<title>lib/data/__tests/data.spec.js</title>
<g id="a_node1"><a xlink:href="lib/data/__tests/data.spec.js" xlink:title="data.spec.js">
<path fill="#ffffcc" stroke="#000000" d="M696.7679,-120.5C696.7679,-120.5 644.0456,-120.5 644.0456,-120.5 641.2122,-120.5 638.3789,-117.6667 638.3789,-114.8333 638.3789,-114.8333 638.3789,-109.1667 638.3789,-109.1667 638.3789,-106.3333 641.2122,-103.5 644.0456,-103.5 644.0456,-103.5 696.7679,-103.5 696.7679,-103.5 699.6012,-103.5 702.4346,-106.3333 702.4346,-109.1667 702.4346,-109.1667 702.4346,-114.8333 702.4346,-114.8333 702.4346,-117.6667 699.6012,-120.5 696.7679,-120.5"/>
<text text-anchor="middle" x="670.4067" y="-109.3" font-family="Helvetica,sans-Serif" font-size="9.00" fill="#000000">data.spec.js</text>
</a>
</g>
</g>
<!-- lib/data/country&#45;list.js -->
<g id="node3" class="node">
<title>lib/data/country&#45;list.js</title>
<g id="a_node3"><a xlink:href="lib/data/country-list.js" xlink:title="country&#45;list.js">
<path fill="#ffffcc" stroke="#000000" d="M826.5433,-97.5C826.5433,-97.5 769.8527,-97.5 769.8527,-97.5 767.0193,-97.5 764.186,-94.6667 764.186,-91.8333 764.186,-91.8333 764.186,-86.1667 764.186,-86.1667 764.186,-83.3333 767.0193,-80.5 769.8527,-80.5 769.8527,-80.5 826.5433,-80.5 826.5433,-80.5 829.3767,-80.5 832.21,-83.3333 832.21,-86.1667 832.21,-86.1667 832.21,-91.8333 832.21,-91.8333 832.21,-94.6667 829.3767,-97.5 826.5433,-97.5"/>
<text text-anchor="middle" x="798.198" y="-86.3" font-family="Helvetica,sans-Serif" font-size="9.00" fill="#000000">country&#45;list.js</text>
</a>
</g>
</g>
<!-- lib/data/__tests/data.spec.js&#45;&gt;lib/data/country&#45;list.js -->
<g id="edge1" class="edge">
<title>lib/data/__tests/data.spec.js&#45;&gt;lib/data/country&#45;list.js</title>
<path fill="none" stroke="#000000" stroke-width="2" stroke-opacity="0.466667" d="M702.6539,-106.1961C718.2066,-103.3969 737.1062,-99.9954 753.9778,-96.9588"/>
<polygon fill="#000000" fill-opacity="0.466667" stroke="#000000" stroke-width="2" stroke-opacity="0.466667" points="754.9507,-100.34 764.1726,-95.1239 753.7107,-93.4507 754.9507,-100.34"/>
</g>
<!-- lib/data/mccs&#45;available.js -->
<g id="node5" class="node">
<title>lib/data/mccs&#45;available.js</title>
<g id="a_node5"><a xlink:href="lib/data/mccs-available.js" xlink:title="mccs&#45;available.js">
<path fill="#ffffcc" stroke="#000000" d="M834.5522,-142.5C834.5522,-142.5 761.8438,-142.5 761.8438,-142.5 759.0104,-142.5 756.1771,-139.6667 756.1771,-136.8333 756.1771,-136.8333 756.1771,-131.1667 756.1771,-131.1667 756.1771,-128.3333 759.0104,-125.5 761.8438,-125.5 761.8438,-125.5 834.5522,-125.5 834.5522,-125.5 837.3856,-125.5 840.2189,-128.3333 840.2189,-131.1667 840.2189,-131.1667 840.2189,-136.8333 840.2189,-136.8333 840.2189,-139.6667 837.3856,-142.5 834.5522,-142.5"/>
<text text-anchor="middle" x="798.198" y="-131.3" font-family="Helvetica,sans-Serif" font-size="9.00" fill="#000000">mccs&#45;available.js</text>
</a>
</g>
</g>
<!-- lib/data/__tests/data.spec.js&#45;&gt;lib/data/mccs&#45;available.js -->
<g id="edge2" class="edge">
<title>lib/data/__tests/data.spec.js&#45;&gt;lib/data/mccs&#45;available.js</title>
<path fill="none" stroke="#000000" stroke-width="2" stroke-opacity="0.466667" d="M702.6539,-117.5515C715.7504,-119.8062 731.2202,-122.4694 745.8538,-124.9887"/>
<polygon fill="#000000" fill-opacity="0.466667" stroke="#000000" stroke-width="2" stroke-opacity="0.466667" points="745.3629,-128.4555 755.8118,-126.703 746.5506,-121.557 745.3629,-128.4555"/>
</g>
<!-- lib/data/names&#45;list.js -->
<g id="node6" class="node">
<title>lib/data/names&#45;list.js</title>
<g id="a_node6"><a xlink:href="lib/data/names-list.js" xlink:title="names&#45;list.js">
<path fill="#ffffcc" stroke="#000000" d="M825.5411,-68.5C825.5411,-68.5 770.8549,-68.5 770.8549,-68.5 768.0216,-68.5 765.1882,-65.6667 765.1882,-62.8333 765.1882,-62.8333 765.1882,-57.1667 765.1882,-57.1667 765.1882,-54.3333 768.0216,-51.5 770.8549,-51.5 770.8549,-51.5 825.5411,-51.5 825.5411,-51.5 828.3744,-51.5 831.2078,-54.3333 831.2078,-57.1667 831.2078,-57.1667 831.2078,-62.8333 831.2078,-62.8333 831.2078,-65.6667 828.3744,-68.5 825.5411,-68.5"/>
<text text-anchor="middle" x="798.198" y="-57.3" font-family="Helvetica,sans-Serif" font-size="9.00" fill="#000000">names&#45;list.js</text>
</a>
</g>
</g>
<!-- lib/data/__tests/data.spec.js&#45;&gt;lib/data/names&#45;list.js -->
<g id="edge3" class="edge">
<title>lib/data/__tests/data.spec.js&#45;&gt;lib/data/names&#45;list.js</title>
<path fill="none" stroke="#000000" stroke-width="2" stroke-opacity="0.466667" d="M702.6702,-108.5249C709.016,-106.7151 715.2905,-104.0144 720.4272,-100 730.2949,-92.2884 723.5293,-82.6727 733.4272,-75 739.7774,-70.0774 747.4631,-66.7229 755.2885,-64.4475"/>
<polygon fill="#000000" fill-opacity="0.466667" stroke="#000000" stroke-width="2" stroke-opacity="0.466667" points="756.26,-67.8143 765.1854,-62.1057 754.6482,-61.0024 756.26,-67.8143"/>
</g>
<!-- lib/data/countries&#45;available.js -->
<g id="node2" class="node">
<title>lib/data/countries&#45;available.js</title>
<g id="a_node2"><a xlink:href="lib/data/countries-available.js" xlink:title="countries&#45;available.js">
<path fill="#ffffcc" stroke="#000000" d="M714.7811,-72.5C714.7811,-72.5 626.0324,-72.5 626.0324,-72.5 623.199,-72.5 620.3657,-69.6667 620.3657,-66.8333 620.3657,-66.8333 620.3657,-61.1667 620.3657,-61.1667 620.3657,-58.3333 623.199,-55.5 626.0324,-55.5 626.0324,-55.5 714.7811,-55.5 714.7811,-55.5 717.6144,-55.5 720.4478,-58.3333 720.4478,-61.1667 720.4478,-61.1667 720.4478,-66.8333 720.4478,-66.8333 720.4478,-69.6667 717.6144,-72.5 714.7811,-72.5"/>
<text text-anchor="middle" x="670.4067" y="-61.3" font-family="Helvetica,sans-Serif" font-size="9.00" fill="#000000">countries&#45;available.js</text>
</a>
</g>
</g>
<!-- lib/data/countries&#45;available.js&#45;&gt;lib/data/country&#45;list.js -->
<g id="edge4" class="edge">
<title>lib/data/countries&#45;available.js&#45;&gt;lib/data/country&#45;list.js</title>
<path fill="none" stroke="#000000" stroke-width="2" stroke-opacity="0.466667" d="M714.0278,-72.5337C726.9218,-75.0561 741.0447,-77.819 753.9762,-80.3488"/>
<polygon fill="#000000" fill-opacity="0.466667" stroke="#000000" stroke-width="2" stroke-opacity="0.466667" points="753.5595,-83.8336 764.0454,-82.3187 754.9035,-76.9638 753.5595,-83.8336"/>
</g>
<!-- lib/data/countries&#45;available.js&#45;&gt;lib/data/names&#45;list.js -->
<g id="edge5" class="edge">
<title>lib/data/countries&#45;available.js&#45;&gt;lib/data/names&#45;list.js</title>
<path fill="none" stroke="#000000" stroke-width="2" stroke-opacity="0.466667" d="M720.5465,-62.4306C731.8863,-62.0756 743.8329,-61.7017 754.8643,-61.3564"/>
<polygon fill="#000000" fill-opacity="0.466667" stroke="#000000" stroke-width="2" stroke-opacity="0.466667" points="755.2251,-64.8469 765.1107,-61.0357 755.006,-57.8503 755.2251,-64.8469"/>
</g>
<!-- lib/data/index.js -->
<g id="node4" class="node">
<title>lib/data/index.js</title>
<g id="a_node4"><a xlink:href="lib/data/index.js" xlink:title="index.js">
<path fill="#ffffcc" stroke="#000000" d="M579.7025,-141.5C579.7025,-141.5 537.0358,-141.5 537.0358,-141.5 534.2025,-141.5 531.3691,-138.6667 531.3691,-135.8333 531.3691,-135.8333 531.3691,-130.1667 531.3691,-130.1667 531.3691,-127.3333 534.2025,-124.5 537.0358,-124.5 537.0358,-124.5 579.7025,-124.5 579.7025,-124.5 582.5358,-124.5 585.3691,-127.3333 585.3691,-130.1667 585.3691,-130.1667 585.3691,-135.8333 585.3691,-135.8333 585.3691,-138.6667 582.5358,-141.5 579.7025,-141.5"/>
<text text-anchor="middle" x="558.3691" y="-130.3" font-family="Helvetica,sans-Serif" font-size="9.00" fill="#000000">index.js</text>
</a>
</g>
</g>
<!-- lib/data/index.js&#45;&gt;lib/data/countries&#45;available.js -->
<g id="edge6" class="edge">
<title>lib/data/index.js&#45;&gt;lib/data/countries&#45;available.js</title>
<path fill="none" stroke="#000000" stroke-width="2" stroke-opacity="0.466667" d="M566.891,-124.3434C578.2267,-113.2387 599.2987,-93.9852 620.3862,-82 624.0421,-79.9222 627.9811,-78.0138 631.9867,-76.2804"/>
<polygon fill="#000000" fill-opacity="0.466667" stroke="#000000" stroke-width="2" stroke-opacity="0.466667" points="633.3532,-79.5036 641.3518,-72.5558 630.7663,-72.9991 633.3532,-79.5036"/>
</g>
<!-- lib/data/index.js&#45;&gt;lib/data/country&#45;list.js -->
<g id="edge7" class="edge">
<title>lib/data/index.js&#45;&gt;lib/data/country&#45;list.js</title>
<path fill="none" stroke="#000000" stroke-width="2" stroke-opacity="0.466667" d="M567.5676,-124.4267C578.9564,-114.4439 599.4275,-98.4949 620.3862,-92 664.1376,-78.4418 716.8955,-79.5904 753.5279,-82.9536"/>
<polygon fill="#000000" fill-opacity="0.466667" stroke="#000000" stroke-width="2" stroke-opacity="0.466667" points="753.5787,-86.4765 763.8805,-84.0023 754.2842,-79.5122 753.5787,-86.4765"/>
</g>
<!-- lib/data/index.js&#45;&gt;lib/data/mccs&#45;available.js -->
<g id="edge8" class="edge">
<title>lib/data/index.js&#45;&gt;lib/data/mccs&#45;available.js</title>
<path fill="none" stroke="#000000" stroke-width="2" stroke-opacity="0.466667" d="M585.2502,-141.5137C596.0511,-144.5177 608.6935,-147.516 620.3862,-149 664.4951,-154.5982 676.1662,-153.2294 720.4272,-149 730.5909,-148.0288 741.4011,-146.3591 751.6278,-144.4779"/>
<polygon fill="#000000" fill-opacity="0.466667" stroke="#000000" stroke-width="2" stroke-opacity="0.466667" points="752.4622,-147.8814 761.6145,-142.5441 751.1314,-141.009 752.4622,-147.8814"/>
</g>
<!-- lib/data/index.js&#45;&gt;lib/data/names&#45;list.js -->
<g id="edge9" class="edge">
<title>lib/data/index.js&#45;&gt;lib/data/names&#45;list.js</title>
<path fill="none" stroke="#000000" stroke-width="2" stroke-opacity="0.466667" d="M561.6848,-124.3361C569.0582,-106.4687 588.7054,-65.876 620.3862,-50 666.119,-27.0822 727.0062,-37.9633 764.3591,-48.5287"/>
<polygon fill="#000000" fill-opacity="0.466667" stroke="#000000" stroke-width="2" stroke-opacity="0.466667" points="763.6552,-51.971 774.2382,-51.472 765.6539,-45.2624 763.6552,-51.971"/>
</g>
<!-- lib/gen&#45;dinamic&#45;data/gen&#45;address/br.address.js -->
<g id="node7" class="node">
<title>lib/gen&#45;dinamic&#45;data/gen&#45;address/br.address.js</title>
<g id="a_node7"><a xlink:href="lib/gen-dinamic-data/gen-address/br.address.js" xlink:title="br.address.js">
<path fill="#ffffcc" stroke="#000000" d="M586.2318,-459.5C586.2318,-459.5 530.5065,-459.5 530.5065,-459.5 527.6732,-459.5 524.8398,-456.6667 524.8398,-453.8333 524.8398,-453.8333 524.8398,-448.1667 524.8398,-448.1667 524.8398,-445.3333 527.6732,-442.5 530.5065,-442.5 530.5065,-442.5 586.2318,-442.5 586.2318,-442.5 589.0651,-442.5 591.8984,-445.3333 591.8984,-448.1667 591.8984,-448.1667 591.8984,-453.8333 591.8984,-453.8333 591.8984,-456.6667 589.0651,-459.5 586.2318,-459.5"/>
<text text-anchor="middle" x="558.3691" y="-448.3" font-family="Helvetica,sans-Serif" font-size="9.00" fill="#000000">br.address.js</text>
</a>
</g>
</g>
<!-- lib/gen&#45;dinamic&#45;data/gen&#45;random&#45;var/index.js -->
<g id="node26" class="node">
<title>lib/gen&#45;dinamic&#45;data/gen&#45;random&#45;var/index.js</title>
<g id="a_node26"><a xlink:href="lib/gen-dinamic-data/gen-random-var/index.js" xlink:title="index.js">
<path fill="#ffffcc" stroke="#000000" d="M691.7401,-284.5C691.7401,-284.5 649.0734,-284.5 649.0734,-284.5 646.2401,-284.5 643.4067,-281.6667 643.4067,-278.8333 643.4067,-278.8333 643.4067,-273.1667 643.4067,-273.1667 643.4067,-270.3333 646.2401,-267.5 649.0734,-267.5 649.0734,-267.5 691.7401,-267.5 691.7401,-267.5 694.5734,-267.5 697.4067,-270.3333 697.4067,-273.1667 697.4067,-273.1667 697.4067,-278.8333 697.4067,-278.8333 697.4067,-281.6667 694.5734,-284.5 691.7401,-284.5"/>
<text text-anchor="middle" x="670.4067" y="-273.3" font-family="Helvetica,sans-Serif" font-size="9.00" fill="#000000">index.js</text>
</a>
</g>
</g>
<!-- lib/gen&#45;dinamic&#45;data/gen&#45;address/br.address.js&#45;&gt;lib/gen&#45;dinamic&#45;data/gen&#45;random&#45;var/index.js -->
<g id="edge10" class="edge">
<title>lib/gen&#45;dinamic&#45;data/gen&#45;address/br.address.js&#45;&gt;lib/gen&#45;dinamic&#45;data/gen&#45;random&#45;var/index.js</title>
<path fill="none" stroke="#000000" stroke-width="2" stroke-opacity="0.466667" d="M592.018,-447.5717C599.4215,-445.4635 606.7306,-442.1564 612.3862,-437 654.023,-399.0389 665.8115,-328.9693 669.1253,-295.1936"/>
<polygon fill="#000000" fill-opacity="0.466667" stroke="#000000" stroke-width="2" stroke-opacity="0.466667" points="672.6426,-295.127 669.979,-284.8725 665.6665,-294.5499 672.6426,-295.127"/>
</g>
<!-- lib/gen&#45;dinamic&#45;data/gen&#45;address/ch.address.js -->
<g id="node8" class="node">
<title>lib/gen&#45;dinamic&#45;data/gen&#45;address/ch.address.js</title>
<g id="a_node8"><a xlink:href="lib/gen-dinamic-data/gen-address/ch.address.js" xlink:title="ch.address.js">
<path fill="#ffffcc" stroke="#000000" d="M587.2269,-488.5C587.2269,-488.5 529.5114,-488.5 529.5114,-488.5 526.6781,-488.5 523.8447,-485.6667 523.8447,-482.8333 523.8447,-482.8333 523.8447,-477.1667 523.8447,-477.1667 523.8447,-474.3333 526.6781,-471.5 529.5114,-471.5 529.5114,-471.5 587.2269,-471.5 587.2269,-471.5 590.0602,-471.5 592.8936,-474.3333 592.8936,-477.1667 592.8936,-477.1667 592.8936,-482.8333 592.8936,-482.8333 592.8936,-485.6667 590.0602,-488.5 587.2269,-488.5"/>
<text text-anchor="middle" x="558.3691" y="-477.3" font-family="Helvetica,sans-Serif" font-size="9.00" fill="#000000">ch.address.js</text>
</a>
</g>
</g>
<!-- lib/gen&#45;dinamic&#45;data/gen&#45;address/ch.address.js&#45;&gt;lib/gen&#45;dinamic&#45;data/gen&#45;random&#45;var/index.js -->
<g id="edge11" class="edge">
<title>lib/gen&#45;dinamic&#45;data/gen&#45;address/ch.address.js&#45;&gt;lib/gen&#45;dinamic&#45;data/gen&#45;random&#45;var/index.js</title>
<path fill="none" stroke="#000000" stroke-width="2" stroke-opacity="0.466667" d="M593.0455,-476.5238C600.1492,-474.3969 607.0698,-471.0937 612.3862,-466 637.5335,-441.9062 659.1124,-337.5838 667.103,-294.6084"/>
<polygon fill="#000000" fill-opacity="0.466667" stroke="#000000" stroke-width="2" stroke-opacity="0.466667" points="670.5668,-295.123 668.9125,-284.6581 663.6797,-293.8705 670.5668,-295.123"/>
</g>
<!-- lib/gen&#45;dinamic&#45;data/gen&#45;address/cl.address.js -->
<g id="node9" class="node">
<title>lib/gen&#45;dinamic&#45;data/gen&#45;address/cl.address.js</title>
<g id="a_node9"><a xlink:href="lib/gen-dinamic-data/gen-address/cl.address.js" xlink:title="cl.address.js">
<path fill="#ffffcc" stroke="#000000" d="M585.721,-401.5C585.721,-401.5 531.0172,-401.5 531.0172,-401.5 528.1839,-401.5 525.3506,-398.6667 525.3506,-395.8333 525.3506,-395.8333 525.3506,-390.1667 525.3506,-390.1667 525.3506,-387.3333 528.1839,-384.5 531.0172,-384.5 531.0172,-384.5 585.721,-384.5 585.721,-384.5 588.5544,-384.5 591.3877,-387.3333 591.3877,-390.1667 591.3877,-390.1667 591.3877,-395.8333 591.3877,-395.8333 591.3877,-398.6667 588.5544,-401.5 585.721,-401.5"/>
<text text-anchor="middle" x="558.3691" y="-390.3" font-family="Helvetica,sans-Serif" font-size="9.00" fill="#000000">cl.address.js</text>
</a>
</g>
</g>
<!-- lib/gen&#45;dinamic&#45;data/gen&#45;address/cl.address.js&#45;&gt;lib/gen&#45;dinamic&#45;data/gen&#45;random&#45;var/index.js -->
<g id="edge12" class="edge">
<title>lib/gen&#45;dinamic&#45;data/gen&#45;address/cl.address.js&#45;&gt;lib/gen&#45;dinamic&#45;data/gen&#45;random&#45;var/index.js</title>
<path fill="none" stroke="#000000" stroke-width="2" stroke-opacity="0.466667" d="M591.4139,-390.2428C598.839,-388.4293 606.3094,-385.5462 612.3862,-381 641.4677,-359.2439 657.8517,-318.4065 665.3427,-294.5786"/>
<polygon fill="#000000" fill-opacity="0.466667" stroke="#000000" stroke-width="2" stroke-opacity="0.466667" points="668.7897,-295.2618 668.2477,-284.6808 662.0731,-293.2904 668.7897,-295.2618"/>
</g>
<!-- lib/gen&#45;dinamic&#45;data/gen&#45;address/es.region&#45;names.js -->
<g id="node10" class="node">
<title>lib/gen&#45;dinamic&#45;data/gen&#45;address/es.region&#45;names.js</title>
<g id="a_node10"><a xlink:href="lib/gen-dinamic-data/gen-address/es.region-names.js" xlink:title="es.region&#45;names.js">
<path fill="#ffffcc" stroke="#000000" d="M598.7367,-430.5C598.7367,-430.5 518.0016,-430.5 518.0016,-430.5 515.1683,-430.5 512.335,-427.6667 512.335,-424.8333 512.335,-424.8333 512.335,-419.1667 512.335,-419.1667 512.335,-416.3333 515.1683,-413.5 518.0016,-413.5 518.0016,-413.5 598.7367,-413.5 598.7367,-413.5 601.57,-413.5 604.4033,-416.3333 604.4033,-419.1667 604.4033,-419.1667 604.4033,-424.8333 604.4033,-424.8333 604.4033,-427.6667 601.57,-430.5 598.7367,-430.5"/>
<text text-anchor="middle" x="558.3691" y="-419.3" font-family="Helvetica,sans-Serif" font-size="9.00" fill="#000000">es.region&#45;names.js</text>
</a>
</g>
</g>
<!-- lib/gen&#45;dinamic&#45;data/gen&#45;address/es.region&#45;names.js&#45;&gt;lib/gen&#45;dinamic&#45;data/gen&#45;random&#45;var/index.js -->
<g id="edge13" class="edge">
<title>lib/gen&#45;dinamic&#45;data/gen&#45;address/es.region&#45;names.js&#45;&gt;lib/gen&#45;dinamic&#45;data/gen&#45;random&#45;var/index.js</title>
<path fill="none" stroke="#000000" stroke-width="2" stroke-opacity="0.466667" d="M604.1219,-413.4916C607.083,-411.9496 609.8779,-410.1349 612.3862,-408 647.3908,-378.2076 662.0303,-323.2408 667.5101,-294.5421"/>
<polygon fill="#000000" fill-opacity="0.466667" stroke="#000000" stroke-width="2" stroke-opacity="0.466667" points="670.97,-295.074 669.2343,-284.6224 664.0734,-293.8753 670.97,-295.074"/>
</g>
<!-- lib/gen&#45;dinamic&#45;data/gen&#45;address/index.js -->
<g id="node11" class="node">
<title>lib/gen&#45;dinamic&#45;data/gen&#45;address/index.js</title>
<g id="a_node11"><a xlink:href="lib/gen-dinamic-data/gen-address/index.js" xlink:title="index.js">
<path fill="#ffffcc" stroke="#000000" d="M452.1702,-415.5C452.1702,-415.5 409.5036,-415.5 409.5036,-415.5 406.6702,-415.5 403.8369,-412.6667 403.8369,-409.8333 403.8369,-409.8333 403.8369,-404.1667 403.8369,-404.1667 403.8369,-401.3333 406.6702,-398.5 409.5036,-398.5 409.5036,-398.5 452.1702,-398.5 452.1702,-398.5 455.0036,-398.5 457.8369,-401.3333 457.8369,-404.1667 457.8369,-404.1667 457.8369,-409.8333 457.8369,-409.8333 457.8369,-412.6667 455.0036,-415.5 452.1702,-415.5"/>
<text text-anchor="middle" x="430.8369" y="-404.3" font-family="Helvetica,sans-Serif" font-size="9.00" fill="#000000">index.js</text>
</a>
</g>
</g>
<!-- lib/gen&#45;dinamic&#45;data/gen&#45;address/index.js&#45;&gt;lib/gen&#45;dinamic&#45;data/gen&#45;address/br.address.js -->
<g id="edge15" class="edge">
<title>lib/gen&#45;dinamic&#45;data/gen&#45;address/index.js&#45;&gt;lib/gen&#45;dinamic&#45;data/gen&#45;address/br.address.js</title>
<path fill="none" stroke="#000000" stroke-width="2" stroke-opacity="0.466667" d="M458.1446,-406.0432C472.942,-406.8614 490.7706,-410.1643 503.6055,-420 510.2334,-425.0792 505.2779,-431.5511 511.6055,-437 512.7694,-438.0023 514.003,-438.9329 515.2904,-439.7968"/>
<polygon fill="#000000" fill-opacity="0.466667" stroke="#000000" stroke-width="2" stroke-opacity="0.466667" points="513.9231,-443.0321 524.4033,-444.5863 517.1798,-436.8358 513.9231,-443.0321"/>
</g>
<!-- lib/gen&#45;dinamic&#45;data/gen&#45;address/index.js&#45;&gt;lib/gen&#45;dinamic&#45;data/gen&#45;address/ch.address.js -->
<g id="edge16" class="edge">
<title>lib/gen&#45;dinamic&#45;data/gen&#45;address/index.js&#45;&gt;lib/gen&#45;dinamic&#45;data/gen&#45;address/ch.address.js</title>
<path fill="none" stroke="#000000" stroke-width="2" stroke-opacity="0.466667" d="M458.1716,-404.761C473.5399,-405.0576 491.9261,-408.2669 503.6055,-420 518.2451,-434.7071 497.8282,-450.4821 511.6055,-466 512.6253,-467.1487 513.7351,-468.2048 514.9171,-469.1759"/>
<polygon fill="#000000" fill-opacity="0.466667" stroke="#000000" stroke-width="2" stroke-opacity="0.466667" points="513.2101,-472.234 523.5755,-474.4267 516.8399,-466.2486 513.2101,-472.234"/>
</g>
<!-- lib/gen&#45;dinamic&#45;data/gen&#45;address/index.js&#45;&gt;lib/gen&#45;dinamic&#45;data/gen&#45;address/cl.address.js -->
<g id="edge17" class="edge">
<title>lib/gen&#45;dinamic&#45;data/gen&#45;address/index.js&#45;&gt;lib/gen&#45;dinamic&#45;data/gen&#45;address/cl.address.js</title>
<path fill="none" stroke="#000000" stroke-width="2" stroke-opacity="0.466667" d="M457.8832,-404.031C474.4168,-402.216 495.9466,-399.8525 514.8344,-397.7791"/>
<polygon fill="#000000" fill-opacity="0.466667" stroke="#000000" stroke-width="2" stroke-opacity="0.466667" points="515.449,-401.2327 525.0073,-396.6623 514.6851,-394.2745 515.449,-401.2327"/>
</g>
<!-- lib/gen&#45;dinamic&#45;data/gen&#45;address/index.js&#45;&gt;lib/gen&#45;dinamic&#45;data/gen&#45;address/es.region&#45;names.js -->
<g id="edge18" class="edge">
<title>lib/gen&#45;dinamic&#45;data/gen&#45;address/index.js&#45;&gt;lib/gen&#45;dinamic&#45;data/gen&#45;address/es.region&#45;names.js</title>
<path fill="none" stroke="#000000" stroke-width="2" stroke-opacity="0.466667" d="M457.8832,-410.1811C470.8386,-411.7049 486.8617,-413.5895 502.2776,-415.4027"/>
<polygon fill="#000000" fill-opacity="0.466667" stroke="#000000" stroke-width="2" stroke-opacity="0.466667" points="501.9416,-418.8872 512.282,-416.5794 502.7593,-411.9351 501.9416,-418.8872"/>
</g>
<!-- lib/gen&#45;dinamic&#45;data/map&#45;faker.js -->
<g id="node29" class="node">
<title>lib/gen&#45;dinamic&#45;data/map&#45;faker.js</title>
<g id="a_node29"><a xlink:href="lib/gen-dinamic-data/map-faker.js" xlink:title="map&#45;faker.js">
<path fill="#ffffcc" stroke="#000000" d="M585.2235,-367.5C585.2235,-367.5 531.5148,-367.5 531.5148,-367.5 528.6815,-367.5 525.8481,-364.6667 525.8481,-361.8333 525.8481,-361.8333 525.8481,-356.1667 525.8481,-356.1667 525.8481,-353.3333 528.6815,-350.5 531.5148,-350.5 531.5148,-350.5 585.2235,-350.5 585.2235,-350.5 588.0568,-350.5 590.8901,-353.3333 590.8901,-356.1667 590.8901,-356.1667 590.8901,-361.8333 590.8901,-361.8333 590.8901,-364.6667 588.0568,-367.5 585.2235,-367.5"/>
<text text-anchor="middle" x="558.3691" y="-356.3" font-family="Helvetica,sans-Serif" font-size="9.00" fill="#000000">map&#45;faker.js</text>
</a>
</g>
</g>
<!-- lib/gen&#45;dinamic&#45;data/gen&#45;address/index.js&#45;&gt;lib/gen&#45;dinamic&#45;data/map&#45;faker.js -->
<g id="edge14" class="edge">
<title>lib/gen&#45;dinamic&#45;data/gen&#45;address/index.js&#45;&gt;lib/gen&#45;dinamic&#45;data/map&#45;faker.js</title>
<path fill="none" stroke="#000000" stroke-width="2" stroke-opacity="0.466667" d="M458.1156,-408.8406C473.0857,-408.4195 491.0924,-405.385 503.6055,-395 511.6115,-388.3555 504.0388,-380.1409 511.6055,-373 513.0847,-371.604 514.6976,-370.3467 516.406,-369.2144"/>
<polygon fill="#000000" fill-opacity="0.466667" stroke="#000000" stroke-width="2" stroke-opacity="0.466667" points="518.2578,-372.1987 525.5688,-364.5306 515.0716,-365.9658 518.2578,-372.1987"/>
</g>
<!-- lib/gen&#45;dinamic&#45;data/gen&#45;anagrafica.js -->
<g id="node12" class="node">
<title>lib/gen&#45;dinamic&#45;data/gen&#45;anagrafica.js</title>
<g id="a_node12"><a xlink:href="lib/gen-dinamic-data/gen-anagrafica.js" xlink:title="gen&#45;anagrafica.js">
<path fill="#ffffcc" stroke="#000000" d="M467.7127,-319.5C467.7127,-319.5 393.9611,-319.5 393.9611,-319.5 391.1278,-319.5 388.2944,-316.6667 388.2944,-313.8333 388.2944,-313.8333 388.2944,-308.1667 388.2944,-308.1667 388.2944,-305.3333 391.1278,-302.5 393.9611,-302.5 393.9611,-302.5 467.7127,-302.5 467.7127,-302.5 470.5461,-302.5 473.3794,-305.3333 473.3794,-308.1667 473.3794,-308.1667 473.3794,-313.8333 473.3794,-313.8333 473.3794,-316.6667 470.5461,-319.5 467.7127,-319.5"/>
<text text-anchor="middle" x="430.8369" y="-308.3" font-family="Helvetica,sans-Serif" font-size="9.00" fill="#000000">gen&#45;anagrafica.js</text>
</a>
</g>
</g>
<!-- lib/gen&#45;dinamic&#45;data/gen&#45;anagrafica.js&#45;&gt;lib/data/index.js -->
<g id="edge19" class="edge">
<title>lib/gen&#45;dinamic&#45;data/gen&#45;anagrafica.js&#45;&gt;lib/data/index.js</title>
<path fill="none" stroke="#000000" stroke-width="2" stroke-opacity="0.466667" d="M473.5615,-311.7694C484.8218,-309.8003 495.9496,-305.5141 503.6055,-297 517.771,-281.2464 504.5439,-221.9743 511.6055,-202 518.6485,-182.0782 532.8706,-162.4347 543.7911,-149.233"/>
<polygon fill="#000000" fill-opacity="0.466667" stroke="#000000" stroke-width="2" stroke-opacity="0.466667" points="546.5276,-151.4186 550.3819,-141.5497 541.2145,-146.861 546.5276,-151.4186"/>
</g>
<!-- lib/gen&#45;dinamic&#45;data/gen&#45;birthday.js -->
<g id="node13" class="node">
<title>lib/gen&#45;dinamic&#45;data/gen&#45;birthday.js</title>
<g id="a_node13"><a xlink:href="lib/gen-dinamic-data/gen-birthday.js" xlink:title="gen&#45;birthday.js">
<path fill="#ffffcc" stroke="#000000" d="M590.0716,-338.5C590.0716,-338.5 526.6667,-338.5 526.6667,-338.5 523.8334,-338.5 521.0001,-335.6667 521.0001,-332.8333 521.0001,-332.8333 521.0001,-327.1667 521.0001,-327.1667 521.0001,-324.3333 523.8334,-321.5 526.6667,-321.5 526.6667,-321.5 590.0716,-321.5 590.0716,-321.5 592.9049,-321.5 595.7382,-324.3333 595.7382,-327.1667 595.7382,-327.1667 595.7382,-332.8333 595.7382,-332.8333 595.7382,-335.6667 592.9049,-338.5 590.0716,-338.5"/>
<text text-anchor="middle" x="558.3691" y="-327.3" font-family="Helvetica,sans-Serif" font-size="9.00" fill="#000000">gen&#45;birthday.js</text>
</a>
</g>
</g>
<!-- lib/gen&#45;dinamic&#45;data/gen&#45;anagrafica.js&#45;&gt;lib/gen&#45;dinamic&#45;data/gen&#45;birthday.js -->
<g id="edge20" class="edge">
<title>lib/gen&#45;dinamic&#45;data/gen&#45;anagrafica.js&#45;&gt;lib/gen&#45;dinamic&#45;data/gen&#45;birthday.js</title>
<path fill="none" stroke="#000000" stroke-width="2" stroke-opacity="0.466667" d="M473.6581,-317.3796C485.6431,-319.1651 498.7386,-321.1161 510.9719,-322.9387"/>
<polygon fill="#000000" fill-opacity="0.466667" stroke="#000000" stroke-width="2" stroke-opacity="0.466667" points="510.5953,-326.4211 521.0019,-324.433 511.6268,-319.4975 510.5953,-326.4211"/>
</g>
<!-- lib/gen&#45;dinamic&#45;data/gen&#45;anagrafica.js&#45;&gt;lib/gen&#45;dinamic&#45;data/gen&#45;random&#45;var/index.js -->
<g id="edge21" class="edge">
<title>lib/gen&#45;dinamic&#45;data/gen&#45;anagrafica.js&#45;&gt;lib/gen&#45;dinamic&#45;data/gen&#45;random&#45;var/index.js</title>
<path fill="none" stroke="#000000" stroke-width="2" stroke-opacity="0.466667" d="M473.7139,-309.0038C510.7096,-306.7461 565.4374,-302.1229 612.3862,-293 619.8243,-291.5547 627.6809,-289.5727 635.1288,-287.4717"/>
<polygon fill="#000000" fill-opacity="0.466667" stroke="#000000" stroke-width="2" stroke-opacity="0.466667" points="636.3534,-290.7596 644.9537,-284.5721 634.372,-284.0459 636.3534,-290.7596"/>
</g>
<!-- lib/gen&#45;dinamic&#45;data/gen&#45;company.js -->
<g id="node14" class="node">
<title>lib/gen&#45;dinamic&#45;data/gen&#45;company.js</title>
<g id="a_node14"><a xlink:href="lib/gen-dinamic-data/gen-company.js" xlink:title="gen&#45;company.js">
<path fill="#ffffcc" stroke="#000000" d="M464.5385,-363.5C464.5385,-363.5 397.1353,-363.5 397.1353,-363.5 394.302,-363.5 391.4686,-360.6667 391.4686,-357.8333 391.4686,-357.8333 391.4686,-352.1667 391.4686,-352.1667 391.4686,-349.3333 394.302,-346.5 397.1353,-346.5 397.1353,-346.5 464.5385,-346.5 464.5385,-346.5 467.3719,-346.5 470.2052,-349.3333 470.2052,-352.1667 470.2052,-352.1667 470.2052,-357.8333 470.2052,-357.8333 470.2052,-360.6667 467.3719,-363.5 464.5385,-363.5"/>
<text text-anchor="middle" x="430.8369" y="-352.3" font-family="Helvetica,sans-Serif" font-size="9.00" fill="#000000">gen&#45;company.js</text>
</a>
</g>
</g>
<!-- lib/gen&#45;dinamic&#45;data/gen&#45;national&#45;id/index.js -->
<g id="node15" class="node">
<title>lib/gen&#45;dinamic&#45;data/gen&#45;national&#45;id/index.js</title>
<g id="a_node15"><a xlink:href="lib/gen-dinamic-data/gen-national-id/index.js" xlink:title="index.js">
<path fill="#ffffcc" stroke="#000000" d="M452.1702,-581.5C452.1702,-581.5 409.5036,-581.5 409.5036,-581.5 406.6702,-581.5 403.8369,-578.6667 403.8369,-575.8333 403.8369,-575.8333 403.8369,-570.1667 403.8369,-570.1667 403.8369,-567.3333 406.6702,-564.5 409.5036,-564.5 409.5036,-564.5 452.1702,-564.5 452.1702,-564.5 455.0036,-564.5 457.8369,-567.3333 457.8369,-570.1667 457.8369,-570.1667 457.8369,-575.8333 457.8369,-575.8333 457.8369,-578.6667 455.0036,-581.5 452.1702,-581.5"/>
<text text-anchor="middle" x="430.8369" y="-570.3" font-family="Helvetica,sans-Serif" font-size="9.00" fill="#000000">index.js</text>
</a>
</g>
</g>
<!-- lib/gen&#45;dinamic&#45;data/gen&#45;national&#45;id/it.national&#45;id/index.js -->
<g id="node18" class="node">
<title>lib/gen&#45;dinamic&#45;data/gen&#45;national&#45;id/it.national&#45;id/index.js</title>
<g id="a_node18"><a xlink:href="lib/gen-dinamic-data/gen-national-id/it.national-id/index.js" xlink:title="index.js">
<path fill="#ffffcc" stroke="#000000" d="M579.7025,-581.5C579.7025,-581.5 537.0358,-581.5 537.0358,-581.5 534.2025,-581.5 531.3691,-578.6667 531.3691,-575.8333 531.3691,-575.8333 531.3691,-570.1667 531.3691,-570.1667 531.3691,-567.3333 534.2025,-564.5 537.0358,-564.5 537.0358,-564.5 579.7025,-564.5 579.7025,-564.5 582.5358,-564.5 585.3691,-567.3333 585.3691,-570.1667 585.3691,-570.1667 585.3691,-575.8333 585.3691,-575.8333 585.3691,-578.6667 582.5358,-581.5 579.7025,-581.5"/>
<text text-anchor="middle" x="558.3691" y="-570.3" font-family="Helvetica,sans-Serif" font-size="9.00" fill="#000000">index.js</text>
</a>
</g>
</g>
<!-- lib/gen&#45;dinamic&#45;data/gen&#45;national&#45;id/index.js&#45;&gt;lib/gen&#45;dinamic&#45;data/gen&#45;national&#45;id/it.national&#45;id/index.js -->
<g id="edge22" class="edge">
<title>lib/gen&#45;dinamic&#45;data/gen&#45;national&#45;id/index.js&#45;&gt;lib/gen&#45;dinamic&#45;data/gen&#45;national&#45;id/it.national&#45;id/index.js</title>
<path fill="none" stroke="#000000" stroke-width="2" stroke-opacity="0.466667" d="M457.8832,-573C476.3133,-573 500.9514,-573 521.2181,-573"/>
<polygon fill="#000000" fill-opacity="0.466667" stroke="#000000" stroke-width="2" stroke-opacity="0.466667" points="521.3619,-576.5001 531.3618,-573 521.3618,-569.5001 521.3619,-576.5001"/>
</g>
<!-- lib/gen&#45;dinamic&#45;data/gen&#45;national&#45;id/static&#45;nat&#45;ids.js -->
<g id="node19" class="node">
<title>lib/gen&#45;dinamic&#45;data/gen&#45;national&#45;id/static&#45;nat&#45;ids.js</title>
<g id="a_node19"><a xlink:href="lib/gen-dinamic-data/gen-national-id/static-nat-ids.js" xlink:title="static&#45;nat&#45;ids.js">
<path fill="#ffffcc" stroke="#000000" d="M590.7186,-632.5C590.7186,-632.5 526.0197,-632.5 526.0197,-632.5 523.1864,-632.5 520.353,-629.6667 520.353,-626.8333 520.353,-626.8333 520.353,-621.1667 520.353,-621.1667 520.353,-618.3333 523.1864,-615.5 526.0197,-615.5 526.0197,-615.5 590.7186,-615.5 590.7186,-615.5 593.5519,-615.5 596.3853,-618.3333 596.3853,-621.1667 596.3853,-621.1667 596.3853,-626.8333 596.3853,-626.8333 596.3853,-629.6667 593.5519,-632.5 590.7186,-632.5"/>
<text text-anchor="middle" x="558.3691" y="-621.3" font-family="Helvetica,sans-Serif" font-size="9.00" fill="#000000">static&#45;nat&#45;ids.js</text>
</a>
</g>
</g>
<!-- lib/gen&#45;dinamic&#45;data/gen&#45;national&#45;id/index.js&#45;&gt;lib/gen&#45;dinamic&#45;data/gen&#45;national&#45;id/static&#45;nat&#45;ids.js -->
<g id="edge23" class="edge">
<title>lib/gen&#45;dinamic&#45;data/gen&#45;national&#45;id/index.js&#45;&gt;lib/gen&#45;dinamic&#45;data/gen&#45;national&#45;id/static&#45;nat&#45;ids.js</title>
<path fill="none" stroke="#000000" stroke-width="2" stroke-opacity="0.466667" d="M447.8742,-581.6442C464.022,-589.6346 489.0889,-601.5189 511.6055,-610 513.6675,-610.7767 515.793,-611.54 517.9479,-612.2847"/>
<polygon fill="#000000" fill-opacity="0.466667" stroke="#000000" stroke-width="2" stroke-opacity="0.466667" points="516.8847,-615.6194 527.4775,-615.4137 519.0685,-608.9687 516.8847,-615.6194"/>
</g>
<!-- lib/gen&#45;dinamic&#45;data/gen&#45;national&#45;id/it.national&#45;id/CodiceFiscale.js -->
<g id="node16" class="node">
<title>lib/gen&#45;dinamic&#45;data/gen&#45;national&#45;id/it.national&#45;id/CodiceFiscale.js</title>
<g id="a_node16"><a xlink:href="lib/gen-dinamic-data/gen-national-id/it.national-id/CodiceFiscale.js" xlink:title="CodiceFiscale.js">
<path fill="#ffffcc" stroke="#000000" d="M705.2639,-581.5C705.2639,-581.5 635.5496,-581.5 635.5496,-581.5 632.7162,-581.5 629.8829,-578.6667 629.8829,-575.8333 629.8829,-575.8333 629.8829,-570.1667 629.8829,-570.1667 629.8829,-567.3333 632.7162,-564.5 635.5496,-564.5 635.5496,-564.5 705.2639,-564.5 705.2639,-564.5 708.0973,-564.5 710.9306,-567.3333 710.9306,-570.1667 710.9306,-570.1667 710.9306,-575.8333 710.9306,-575.8333 710.9306,-578.6667 708.0973,-581.5 705.2639,-581.5"/>
<text text-anchor="middle" x="670.4067" y="-570.3" font-family="Helvetica,sans-Serif" font-size="9.00" fill="#000000">CodiceFiscale.js</text>
</a>
</g>
</g>
<!-- lib/gen&#45;dinamic&#45;data/gen&#45;national&#45;id/it.national&#45;id/constants.js -->
<g id="node17" class="node">
<title>lib/gen&#45;dinamic&#45;data/gen&#45;national&#45;id/it.national&#45;id/constants.js</title>
<g id="a_node17"><a xlink:href="lib/gen-dinamic-data/gen-national-id/it.national-id/constants.js" xlink:title="constants.js">
<path fill="#ffffcc" stroke="#000000" d="M824.0556,-581.5C824.0556,-581.5 772.3404,-581.5 772.3404,-581.5 769.5071,-581.5 766.6738,-578.6667 766.6738,-575.8333 766.6738,-575.8333 766.6738,-570.1667 766.6738,-570.1667 766.6738,-567.3333 769.5071,-564.5 772.3404,-564.5 772.3404,-564.5 824.0556,-564.5 824.0556,-564.5 826.8889,-564.5 829.7222,-567.3333 829.7222,-570.1667 829.7222,-570.1667 829.7222,-575.8333 829.7222,-575.8333 829.7222,-578.6667 826.8889,-581.5 824.0556,-581.5"/>
<text text-anchor="middle" x="798.198" y="-570.3" font-family="Helvetica,sans-Serif" font-size="9.00" fill="#000000">constants.js</text>
</a>
</g>
</g>
<!-- lib/gen&#45;dinamic&#45;data/gen&#45;national&#45;id/it.national&#45;id/CodiceFiscale.js&#45;&gt;lib/gen&#45;dinamic&#45;data/gen&#45;national&#45;id/it.national&#45;id/constants.js -->
<g id="edge24" class="edge">
<title>lib/gen&#45;dinamic&#45;data/gen&#45;national&#45;id/it.national&#45;id/CodiceFiscale.js&#45;&gt;lib/gen&#45;dinamic&#45;data/gen&#45;national&#45;id/it.national&#45;id/constants.js</title>
<path fill="none" stroke="#000000" stroke-width="2" stroke-opacity="0.466667" d="M711.192,-573C725.534,-573 741.6712,-573 756.1176,-573"/>
<polygon fill="#000000" fill-opacity="0.466667" stroke="#000000" stroke-width="2" stroke-opacity="0.466667" points="756.2883,-576.5001 766.2882,-573 756.2882,-569.5001 756.2883,-576.5001"/>
</g>
<!-- lib/gen&#45;dinamic&#45;data/gen&#45;national&#45;id/it.national&#45;id/index.js&#45;&gt;lib/gen&#45;dinamic&#45;data/gen&#45;national&#45;id/it.national&#45;id/CodiceFiscale.js -->
<g id="edge25" class="edge">
<title>lib/gen&#45;dinamic&#45;data/gen&#45;national&#45;id/it.national&#45;id/index.js&#45;&gt;lib/gen&#45;dinamic&#45;data/gen&#45;national&#45;id/it.national&#45;id/CodiceFiscale.js</title>
<path fill="none" stroke="#000000" stroke-width="2" stroke-opacity="0.466667" d="M585.4903,-573C595.7085,-573 607.693,-573 619.385,-573"/>
<polygon fill="#000000" fill-opacity="0.466667" stroke="#000000" stroke-width="2" stroke-opacity="0.466667" points="619.5326,-576.5001 629.5326,-573 619.5326,-569.5001 619.5326,-576.5001"/>
</g>
<!-- lib/gen&#45;dinamic&#45;data/gen&#45;phone&#45;number.js -->
<g id="node20" class="node">
<title>lib/gen&#45;dinamic&#45;data/gen&#45;phone&#45;number.js</title>
<g id="a_node20"><a xlink:href="lib/gen-dinamic-data/gen-phone-number.js" xlink:title="gen&#45;phone&#45;number.js">
<path fill="#ffffcc" stroke="#000000" d="M475.7308,-290.5C475.7308,-290.5 385.943,-290.5 385.943,-290.5 383.1097,-290.5 380.2763,-287.6667 380.2763,-284.8333 380.2763,-284.8333 380.2763,-279.1667 380.2763,-279.1667 380.2763,-276.3333 383.1097,-273.5 385.943,-273.5 385.943,-273.5 475.7308,-273.5 475.7308,-273.5 478.5641,-273.5 481.3975,-276.3333 481.3975,-279.1667 481.3975,-279.1667 481.3975,-284.8333 481.3975,-284.8333 481.3975,-287.6667 478.5641,-290.5 475.7308,-290.5"/>
<text text-anchor="middle" x="430.8369" y="-279.3" font-family="Helvetica,sans-Serif" font-size="9.00" fill="#000000">gen&#45;phone&#45;number.js</text>
</a>
</g>
</g>
<!-- lib/gen&#45;dinamic&#45;data/gen&#45;phone&#45;number.js&#45;&gt;lib/data/index.js -->
<g id="edge26" class="edge">
<title>lib/gen&#45;dinamic&#45;data/gen&#45;phone&#45;number.js&#45;&gt;lib/data/index.js</title>
<path fill="none" stroke="#000000" stroke-width="2" stroke-opacity="0.466667" d="M438.4327,-273.1256C459.2152,-248.8447 517.2566,-181.0331 544.242,-149.5052"/>
<polygon fill="#000000" fill-opacity="0.466667" stroke="#000000" stroke-width="2" stroke-opacity="0.466667" points="547.1293,-151.5143 550.9729,-141.6413 541.8113,-146.9625 547.1293,-151.5143"/>
</g>
<!-- lib/gen&#45;dinamic&#45;data/gen&#45;phone&#45;number.js&#45;&gt;lib/gen&#45;dinamic&#45;data/gen&#45;random&#45;var/index.js -->
<g id="edge27" class="edge">
<title>lib/gen&#45;dinamic&#45;data/gen&#45;phone&#45;number.js&#45;&gt;lib/gen&#45;dinamic&#45;data/gen&#45;random&#45;var/index.js</title>
<path fill="none" stroke="#000000" stroke-width="2" stroke-opacity="0.466667" d="M481.4396,-287.3163C517.9277,-290.2627 568.3081,-292.5105 612.3862,-288 619.1926,-287.3035 626.379,-286.1588 633.2884,-284.8459"/>
<polygon fill="#000000" fill-opacity="0.466667" stroke="#000000" stroke-width="2" stroke-opacity="0.466667" points="634.0395,-288.2648 643.1368,-282.8345 632.6387,-281.4064 634.0395,-288.2648"/>
</g>
<!-- lib/gen&#45;dinamic&#45;data/gen&#45;random&#45;var/__tests/gen.spec.js -->
<g id="node21" class="node">
<title>lib/gen&#45;dinamic&#45;data/gen&#45;random&#45;var/__tests/gen.spec.js</title>
<g id="a_node21"><a xlink:href="lib/gen-dinamic-data/gen-random-var/__tests/gen.spec.js" xlink:title="gen.spec.js">
<path fill="#ffffcc" stroke="#000000" d="M583.2316,-259.5C583.2316,-259.5 533.5067,-259.5 533.5067,-259.5 530.6733,-259.5 527.84,-256.6667 527.84,-253.8333 527.84,-253.8333 527.84,-248.1667 527.84,-248.1667 527.84,-245.3333 530.6733,-242.5 533.5067,-242.5 533.5067,-242.5 583.2316,-242.5 583.2316,-242.5 586.065,-242.5 588.8983,-245.3333 588.8983,-248.1667 588.8983,-248.1667 588.8983,-253.8333 588.8983,-253.8333 588.8983,-256.6667 586.065,-259.5 583.2316,-259.5"/>
<text text-anchor="middle" x="558.3691" y="-248.3" font-family="Helvetica,sans-Serif" font-size="9.00" fill="#000000">gen.spec.js</text>
</a>
</g>
</g>
<!-- lib/gen&#45;dinamic&#45;data/gen&#45;random&#45;var/__tests/gen.spec.js&#45;&gt;lib/gen&#45;dinamic&#45;data/gen&#45;random&#45;var/index.js -->
<g id="edge28" class="edge">
<title>lib/gen&#45;dinamic&#45;data/gen&#45;random&#45;var/__tests/gen.spec.js&#45;&gt;lib/gen&#45;dinamic&#45;data/gen&#45;random&#45;var/index.js</title>
<path fill="none" stroke="#000000" stroke-width="2" stroke-opacity="0.466667" d="M588.9839,-257.8314C602.6434,-260.8793 618.8595,-264.4978 633.2106,-267.7001"/>
<polygon fill="#000000" fill-opacity="0.466667" stroke="#000000" stroke-width="2" stroke-opacity="0.466667" points="632.7455,-271.1823 643.2677,-269.9442 634.27,-264.3503 632.7455,-271.1823"/>
</g>
<!-- lib/gen&#45;dinamic&#45;data/gen&#45;random&#45;var/__tests/get.spec.js -->
<g id="node22" class="node">
<title>lib/gen&#45;dinamic&#45;data/gen&#45;random&#45;var/__tests/get.spec.js</title>
<g id="a_node22"><a xlink:href="lib/gen-dinamic-data/gen-random-var/__tests/get.spec.js" xlink:title="get.spec.js">
<path fill="#ffffcc" stroke="#000000" d="M582.2249,-230.5C582.2249,-230.5 534.5133,-230.5 534.5133,-230.5 531.68,-230.5 528.8467,-227.6667 528.8467,-224.8333 528.8467,-224.8333 528.8467,-219.1667 528.8467,-219.1667 528.8467,-216.3333 531.68,-213.5 534.5133,-213.5 534.5133,-213.5 582.2249,-213.5 582.2249,-213.5 585.0583,-213.5 587.8916,-216.3333 587.8916,-219.1667 587.8916,-219.1667 587.8916,-224.8333 587.8916,-224.8333 587.8916,-227.6667 585.0583,-230.5 582.2249,-230.5"/>
<text text-anchor="middle" x="558.3691" y="-219.3" font-family="Helvetica,sans-Serif" font-size="9.00" fill="#000000">get.spec.js</text>
</a>
</g>
</g>
<!-- lib/gen&#45;dinamic&#45;data/gen&#45;random&#45;var/__tests/get.spec.js&#45;&gt;lib/gen&#45;dinamic&#45;data/gen&#45;random&#45;var/index.js -->
<g id="edge29" class="edge">
<title>lib/gen&#45;dinamic&#45;data/gen&#45;random&#45;var/__tests/get.spec.js&#45;&gt;lib/gen&#45;dinamic&#45;data/gen&#45;random&#45;var/index.js</title>
<path fill="none" stroke="#000000" stroke-width="2" stroke-opacity="0.466667" d="M588.1348,-228.4294C596.1917,-230.6595 604.7826,-233.5005 612.3862,-237 626.4799,-243.4864 640.965,-253.219 651.9367,-261.3386"/>
<polygon fill="#000000" fill-opacity="0.466667" stroke="#000000" stroke-width="2" stroke-opacity="0.466667" points="649.8324,-264.1355 659.9079,-267.4118 654.0746,-258.5674 649.8324,-264.1355"/>
</g>
<!-- lib/gen&#45;dinamic&#45;data/gen&#45;random&#45;var/gen&#45;random&#45;number.js -->
<g id="node23" class="node">
<title>lib/gen&#45;dinamic&#45;data/gen&#45;random&#45;var/gen&#45;random&#45;number.js</title>
<g id="a_node23"><a xlink:href="lib/gen-dinamic-data/gen-random-var/gen-random-number.js" xlink:title="gen&#45;random&#45;number.js">
<path fill="#ffffcc" stroke="#000000" d="M845.5816,-284.5C845.5816,-284.5 750.8144,-284.5 750.8144,-284.5 747.9811,-284.5 745.1477,-281.6667 745.1477,-278.8333 745.1477,-278.8333 745.1477,-273.1667 745.1477,-273.1667 745.1477,-270.3333 747.9811,-267.5 750.8144,-267.5 750.8144,-267.5 845.5816,-267.5 845.5816,-267.5 848.4149,-267.5 851.2483,-270.3333 851.2483,-273.1667 851.2483,-273.1667 851.2483,-278.8333 851.2483,-278.8333 851.2483,-281.6667 848.4149,-284.5 845.5816,-284.5"/>
<text text-anchor="middle" x="798.198" y="-273.3" font-family="Helvetica,sans-Serif" font-size="9.00" fill="#000000">gen&#45;random&#45;number.js</text>
</a>
</g>
</g>
<!-- lib/gen&#45;dinamic&#45;data/gen&#45;random&#45;var/gen&#45;random&#45;string.js -->
<g id="node24" class="node">
<title>lib/gen&#45;dinamic&#45;data/gen&#45;random&#45;var/gen&#45;random&#45;string.js</title>
<g id="a_node24"><a xlink:href="lib/gen-dinamic-data/gen-random-var/gen-random-string.js" xlink:title="gen&#45;random&#45;string.js">
<path fill="#ffffcc" stroke="#000000" d="M841.5661,-226.5C841.5661,-226.5 754.8299,-226.5 754.8299,-226.5 751.9965,-226.5 749.1632,-223.6667 749.1632,-220.8333 749.1632,-220.8333 749.1632,-215.1667 749.1632,-215.1667 749.1632,-212.3333 751.9965,-209.5 754.8299,-209.5 754.8299,-209.5 841.5661,-209.5 841.5661,-209.5 844.3995,-209.5 847.2328,-212.3333 847.2328,-215.1667 847.2328,-215.1667 847.2328,-220.8333 847.2328,-220.8333 847.2328,-223.6667 844.3995,-226.5 841.5661,-226.5"/>
<text text-anchor="middle" x="798.198" y="-215.3" font-family="Helvetica,sans-Serif" font-size="9.00" fill="#000000">gen&#45;random&#45;string.js</text>
</a>
</g>
</g>
<!-- lib/gen&#45;dinamic&#45;data/gen&#45;random&#45;var/get&#45;random&#45;array&#45;element.js -->
<g id="node25" class="node">
<title>lib/gen&#45;dinamic&#45;data/gen&#45;random&#45;var/get&#45;random&#45;array&#45;element.js</title>
<g id="a_node25"><a xlink:href="lib/gen-dinamic-data/gen-random-var/get-random-array-element.js" xlink:title="get&#45;random&#45;array&#45;element.js">
<path fill="#ffffcc" stroke="#000000" d="M857.0736,-255.5C857.0736,-255.5 739.3224,-255.5 739.3224,-255.5 736.489,-255.5 733.6557,-252.6667 733.6557,-249.8333 733.6557,-249.8333 733.6557,-244.1667 733.6557,-244.1667 733.6557,-241.3333 736.489,-238.5 739.3224,-238.5 739.3224,-238.5 857.0736,-238.5 857.0736,-238.5 859.907,-238.5 862.7403,-241.3333 862.7403,-244.1667 862.7403,-244.1667 862.7403,-249.8333 862.7403,-249.8333 862.7403,-252.6667 859.907,-255.5 857.0736,-255.5"/>
<text text-anchor="middle" x="798.198" y="-244.3" font-family="Helvetica,sans-Serif" font-size="9.00" fill="#000000">get&#45;random&#45;array&#45;element.js</text>
</a>
</g>
</g>
<!-- lib/gen&#45;dinamic&#45;data/gen&#45;random&#45;var/index.js&#45;&gt;lib/gen&#45;dinamic&#45;data/gen&#45;random&#45;var/gen&#45;random&#45;number.js -->
<g id="edge30" class="edge">
<title>lib/gen&#45;dinamic&#45;data/gen&#45;random&#45;var/index.js&#45;&gt;lib/gen&#45;dinamic&#45;data/gen&#45;random&#45;var/gen&#45;random&#45;number.js</title>
<path fill="none" stroke="#000000" stroke-width="2" stroke-opacity="0.466667" d="M697.508,-276C708.5425,-276 721.7978,-276 735.0127,-276"/>
<polygon fill="#000000" fill-opacity="0.466667" stroke="#000000" stroke-width="2" stroke-opacity="0.466667" points="735.0728,-279.5001 745.0728,-276 735.0727,-272.5001 735.0728,-279.5001"/>
</g>
<!-- lib/gen&#45;dinamic&#45;data/gen&#45;random&#45;var/index.js&#45;&gt;lib/gen&#45;dinamic&#45;data/gen&#45;random&#45;var/gen&#45;random&#45;string.js -->
<g id="edge31" class="edge">
<title>lib/gen&#45;dinamic&#45;data/gen&#45;random&#45;var/index.js&#45;&gt;lib/gen&#45;dinamic&#45;data/gen&#45;random&#45;var/gen&#45;random&#45;string.js</title>
<path fill="none" stroke="#000000" stroke-width="2" stroke-opacity="0.466667" d="M680.4029,-267.4173C692.2756,-257.661 713.0476,-241.9345 733.4272,-233 736.2435,-231.7654 739.175,-230.6252 742.1674,-229.5733"/>
<polygon fill="#000000" fill-opacity="0.466667" stroke="#000000" stroke-width="2" stroke-opacity="0.466667" points="743.3855,-232.859 751.8645,-226.5063 741.2745,-226.1849 743.3855,-232.859"/>
</g>
<!-- lib/gen&#45;dinamic&#45;data/gen&#45;random&#45;var/index.js&#45;&gt;lib/gen&#45;dinamic&#45;data/gen&#45;random&#45;var/get&#45;random&#45;array&#45;element.js -->
<g id="edge32" class="edge">
<title>lib/gen&#45;dinamic&#45;data/gen&#45;random&#45;var/index.js&#45;&gt;lib/gen&#45;dinamic&#45;data/gen&#45;random&#45;var/get&#45;random&#45;array&#45;element.js</title>
<path fill="none" stroke="#000000" stroke-width="2" stroke-opacity="0.466667" d="M697.508,-269.8498C712.8909,-266.359 732.5899,-261.8886 750.4783,-257.8291"/>
<polygon fill="#000000" fill-opacity="0.466667" stroke="#000000" stroke-width="2" stroke-opacity="0.466667" points="751.4947,-261.1876 760.4721,-255.5612 749.9455,-254.3611 751.4947,-261.1876"/>
</g>
<!-- lib/gen&#45;dinamic&#45;data/gen&#45;vat.js -->
<g id="node27" class="node">
<title>lib/gen&#45;dinamic&#45;data/gen&#45;vat.js</title>
<g id="a_node27"><a xlink:href="lib/gen-dinamic-data/gen-vat.js" xlink:title="gen&#45;vat.js">
<path fill="#ffffcc" stroke="#000000" d="M452.6893,-539.5C452.6893,-539.5 408.9845,-539.5 408.9845,-539.5 406.1512,-539.5 403.3179,-536.6667 403.3179,-533.8333 403.3179,-533.8333 403.3179,-528.1667 403.3179,-528.1667 403.3179,-525.3333 406.1512,-522.5 408.9845,-522.5 408.9845,-522.5 452.6893,-522.5 452.6893,-522.5 455.5226,-522.5 458.356,-525.3333 458.356,-528.1667 458.356,-528.1667 458.356,-533.8333 458.356,-533.8333 458.356,-536.6667 455.5226,-539.5 452.6893,-539.5"/>
<text text-anchor="middle" x="430.8369" y="-528.3" font-family="Helvetica,sans-Serif" font-size="9.00" fill="#000000">gen&#45;vat.js</text>
</a>
</g>
</g>
<!-- lib/gen&#45;dinamic&#45;data/gen&#45;vat.js&#45;&gt;lib/gen&#45;dinamic&#45;data/gen&#45;random&#45;var/index.js -->
<g id="edge33" class="edge">
<title>lib/gen&#45;dinamic&#45;data/gen&#45;vat.js&#45;&gt;lib/gen&#45;dinamic&#45;data/gen&#45;random&#45;var/index.js</title>
<path fill="none" stroke="#000000" stroke-width="2" stroke-opacity="0.466667" d="M458.5411,-537.9235C497.7166,-545.9235 569.3169,-553.7024 612.3862,-517 646.569,-487.8704 663.5802,-346.046 668.6982,-294.6477"/>
<polygon fill="#000000" fill-opacity="0.466667" stroke="#000000" stroke-width="2" stroke-opacity="0.466667" points="672.1887,-294.9135 669.6576,-284.6255 665.2205,-294.2464 672.1887,-294.9135"/>
</g>
<!-- lib/gen&#45;dinamic&#45;data/index.js -->
<g id="node28" class="node">
<title>lib/gen&#45;dinamic&#45;data/index.js</title>
<g id="a_node28"><a xlink:href="lib/gen-dinamic-data/index.js" xlink:title="index.js">
<path fill="#ffffcc" stroke="#000000" d="M333.6441,-352.5C333.6441,-352.5 290.9775,-352.5 290.9775,-352.5 288.1441,-352.5 285.3108,-349.6667 285.3108,-346.8333 285.3108,-346.8333 285.3108,-341.1667 285.3108,-341.1667 285.3108,-338.3333 288.1441,-335.5 290.9775,-335.5 290.9775,-335.5 333.6441,-335.5 333.6441,-335.5 336.4775,-335.5 339.3108,-338.3333 339.3108,-341.1667 339.3108,-341.1667 339.3108,-346.8333 339.3108,-346.8333 339.3108,-349.6667 336.4775,-352.5 333.6441,-352.5"/>
<text text-anchor="middle" x="312.3108" y="-341.3" font-family="Helvetica,sans-Serif" font-size="9.00" fill="#000000">index.js</text>
</a>
</g>
</g>
<!-- lib/gen&#45;dinamic&#45;data/index.js&#45;&gt;lib/gen&#45;dinamic&#45;data/gen&#45;address/index.js -->
<g id="edge34" class="edge">
<title>lib/gen&#45;dinamic&#45;data/index.js&#45;&gt;lib/gen&#45;dinamic&#45;data/gen&#45;address/index.js</title>
<path fill="none" stroke="#000000" stroke-width="2" stroke-opacity="0.466667" d="M318.8683,-352.8177C328.0501,-364.4713 345.8933,-384.7228 366.0684,-395 374.5245,-399.3075 384.3041,-402.0834 393.6607,-403.8679"/>
<polygon fill="#000000" fill-opacity="0.466667" stroke="#000000" stroke-width="2" stroke-opacity="0.466667" points="393.1396,-407.3289 403.5648,-405.4408 394.2376,-400.4156 393.1396,-407.3289"/>
</g>
<!-- lib/gen&#45;dinamic&#45;data/index.js&#45;&gt;lib/gen&#45;dinamic&#45;data/gen&#45;anagrafica.js -->
<g id="edge35" class="edge">
<title>lib/gen&#45;dinamic&#45;data/index.js&#45;&gt;lib/gen&#45;dinamic&#45;data/gen&#45;anagrafica.js</title>
<path fill="none" stroke="#000000" stroke-width="2" stroke-opacity="0.466667" d="M339.3814,-336.4406C347.9193,-334.058 357.3875,-331.4174 366.0684,-329 373.9814,-326.7964 382.4391,-324.4439 390.5438,-322.191"/>
<polygon fill="#000000" fill-opacity="0.466667" stroke="#000000" stroke-width="2" stroke-opacity="0.466667" points="391.4967,-325.5589 400.1943,-319.5089 389.6223,-318.8145 391.4967,-325.5589"/>
</g>
<!-- lib/gen&#45;dinamic&#45;data/index.js&#45;&gt;lib/gen&#45;dinamic&#45;data/gen&#45;birthday.js -->
<g id="edge36" class="edge">
<title>lib/gen&#45;dinamic&#45;data/index.js&#45;&gt;lib/gen&#45;dinamic&#45;data/gen&#45;birthday.js</title>
<path fill="none" stroke="#000000" stroke-width="2" stroke-opacity="0.466667" d="M339.5835,-342.4483C380.906,-340.0971 459.9459,-335.6 510.8545,-332.7034"/>
<polygon fill="#000000" fill-opacity="0.466667" stroke="#000000" stroke-width="2" stroke-opacity="0.466667" points="511.1693,-336.1913 520.9543,-332.1288 510.7716,-329.2026 511.1693,-336.1913"/>
</g>
<!-- lib/gen&#45;dinamic&#45;data/index.js&#45;&gt;lib/gen&#45;dinamic&#45;data/gen&#45;company.js -->
<g id="edge37" class="edge">
<title>lib/gen&#45;dinamic&#45;data/index.js&#45;&gt;lib/gen&#45;dinamic&#45;data/gen&#45;company.js</title>
<path fill="none" stroke="#000000" stroke-width="2" stroke-opacity="0.466667" d="M339.5031,-346.5236C351.8224,-347.6669 366.7875,-349.0558 381.0087,-350.3756"/>
<polygon fill="#000000" fill-opacity="0.466667" stroke="#000000" stroke-width="2" stroke-opacity="0.466667" points="380.9034,-353.8808 391.184,-351.32 381.5503,-346.9107 380.9034,-353.8808"/>
</g>
<!-- lib/gen&#45;dinamic&#45;data/index.js&#45;&gt;lib/gen&#45;dinamic&#45;data/gen&#45;national&#45;id/index.js -->
<g id="edge38" class="edge">
<title>lib/gen&#45;dinamic&#45;data/index.js&#45;&gt;lib/gen&#45;dinamic&#45;data/gen&#45;national&#45;id/index.js</title>
<path fill="none" stroke="#000000" stroke-width="2" stroke-opacity="0.466667" d="M313.2442,-352.9031C317.3124,-389.966 334.7101,-531.4585 366.0684,-561 373.4201,-567.9258 383.4082,-571.5011 393.3386,-573.2134"/>
<polygon fill="#000000" fill-opacity="0.466667" stroke="#000000" stroke-width="2" stroke-opacity="0.466667" points="393.2194,-576.7226 403.5533,-574.3857 394.0176,-569.7683 393.2194,-576.7226"/>
</g>
<!-- lib/gen&#45;dinamic&#45;data/index.js&#45;&gt;lib/gen&#45;dinamic&#45;data/gen&#45;phone&#45;number.js -->
<g id="edge39" class="edge">
<title>lib/gen&#45;dinamic&#45;data/index.js&#45;&gt;lib/gen&#45;dinamic&#45;data/gen&#45;phone&#45;number.js</title>
<path fill="none" stroke="#000000" stroke-width="2" stroke-opacity="0.466667" d="M319.7451,-335.2775C329.3447,-324.5913 347.0868,-306.7139 366.0684,-297 368.1924,-295.913 370.3957,-294.9038 372.6516,-293.9668"/>
<polygon fill="#000000" fill-opacity="0.466667" stroke="#000000" stroke-width="2" stroke-opacity="0.466667" points="373.9544,-297.2174 382.154,-290.508 371.56,-290.6396 373.9544,-297.2174"/>
</g>
<!-- lib/gen&#45;dinamic&#45;data/index.js&#45;&gt;lib/gen&#45;dinamic&#45;data/gen&#45;vat.js -->
<g id="edge40" class="edge">
<title>lib/gen&#45;dinamic&#45;data/index.js&#45;&gt;lib/gen&#45;dinamic&#45;data/gen&#45;vat.js</title>
<path fill="none" stroke="#000000" stroke-width="2" stroke-opacity="0.466667" d="M313.841,-352.7739C319.5781,-384.676 340.7799,-493.8537 366.0684,-517 373.4374,-523.7448 383.2595,-527.5248 393.0225,-529.5751"/>
<polygon fill="#000000" fill-opacity="0.466667" stroke="#000000" stroke-width="2" stroke-opacity="0.466667" points="392.6508,-533.0593 403.0699,-531.1375 393.7265,-526.1425 392.6508,-533.0593"/>
</g>
<!-- lib/get&#45;static&#45;data/get&#45;static&#45;national&#45;id.js -->
<g id="node30" class="node">
<title>lib/get&#45;static&#45;data/get&#45;static&#45;national&#45;id.js</title>
<g id="a_node30"><a xlink:href="lib/get-static-data/get-static-national-id.js" xlink:title="get&#45;static&#45;national&#45;id.js">
<path fill="#ffffcc" stroke="#000000" d="M478.2098,-803.5C478.2098,-803.5 383.464,-803.5 383.464,-803.5 380.6307,-803.5 377.7974,-800.6667 377.7974,-797.8333 377.7974,-797.8333 377.7974,-792.1667 377.7974,-792.1667 377.7974,-789.3333 380.6307,-786.5 383.464,-786.5 383.464,-786.5 478.2098,-786.5 478.2098,-786.5 481.0431,-786.5 483.8765,-789.3333 483.8765,-792.1667 483.8765,-792.1667 483.8765,-797.8333 483.8765,-797.8333 483.8765,-800.6667 481.0431,-803.5 478.2098,-803.5"/>
<text text-anchor="middle" x="430.8369" y="-792.3" font-family="Helvetica,sans-Serif" font-size="9.00" fill="#000000">get&#45;static&#45;national&#45;id.js</text>
</a>
</g>
</g>
<!-- lib/get&#45;static&#45;data/get&#45;static&#45;profile&#45;merchant.js -->
<g id="node31" class="node">
<title>lib/get&#45;static&#45;data/get&#45;static&#45;profile&#45;merchant.js</title>
<g id="a_node31"><a xlink:href="lib/get-static-data/get-static-profile-merchant.js" xlink:title="get&#45;static&#45;profile&#45;merchant.js">
<path fill="#ffffcc" stroke="#000000" d="M489.7082,-716.5C489.7082,-716.5 371.9656,-716.5 371.9656,-716.5 369.1323,-716.5 366.299,-713.6667 366.299,-710.8333 366.299,-710.8333 366.299,-705.1667 366.299,-705.1667 366.299,-702.3333 369.1323,-699.5 371.9656,-699.5 371.9656,-699.5 489.7082,-699.5 489.7082,-699.5 492.5415,-699.5 495.3748,-702.3333 495.3748,-705.1667 495.3748,-705.1667 495.3748,-710.8333 495.3748,-710.8333 495.3748,-713.6667 492.5415,-716.5 489.7082,-716.5"/>
<text text-anchor="middle" x="430.8369" y="-705.3" font-family="Helvetica,sans-Serif" font-size="9.00" fill="#000000">get&#45;static&#45;profile&#45;merchant.js</text>
</a>
</g>
</g>
<!-- lib/get&#45;static&#45;data/get&#45;static&#45;profile&#45;personal.js -->
<g id="node32" class="node">
<title>lib/get&#45;static&#45;data/get&#45;static&#45;profile&#45;personal.js</title>
<g id="a_node32"><a xlink:href="lib/get-static-data/get-static-profile-personal.js" xlink:title="get&#45;static&#45;profile&#45;personal.js">
<path fill="#ffffcc" stroke="#000000" d="M488.2155,-745.5C488.2155,-745.5 373.4583,-745.5 373.4583,-745.5 370.625,-745.5 367.7917,-742.6667 367.7917,-739.8333 367.7917,-739.8333 367.7917,-734.1667 367.7917,-734.1667 367.7917,-731.3333 370.625,-728.5 373.4583,-728.5 373.4583,-728.5 488.2155,-728.5 488.2155,-728.5 491.0488,-728.5 493.8822,-731.3333 493.8822,-734.1667 493.8822,-734.1667 493.8822,-739.8333 493.8822,-739.8333 493.8822,-742.6667 491.0488,-745.5 488.2155,-745.5"/>
<text text-anchor="middle" x="430.8369" y="-734.3" font-family="Helvetica,sans-Serif" font-size="9.00" fill="#000000">get&#45;static&#45;profile&#45;personal.js</text>
</a>
</g>
</g>
<!-- lib/get&#45;static&#45;data/get&#45;static&#45;vat&#45;id.js -->
<g id="node33" class="node">
<title>lib/get&#45;static&#45;data/get&#45;static&#45;vat&#45;id.js</title>
<g id="a_node33"><a xlink:href="lib/get-static-data/get-static-vat-id.js" xlink:title="get&#45;static&#45;vat&#45;id.js">
<path fill="#ffffcc" stroke="#000000" d="M468.1906,-774.5C468.1906,-774.5 393.4832,-774.5 393.4832,-774.5 390.6499,-774.5 387.8165,-771.6667 387.8165,-768.8333 387.8165,-768.8333 387.8165,-763.1667 387.8165,-763.1667 387.8165,-760.3333 390.6499,-757.5 393.4832,-757.5 393.4832,-757.5 468.1906,-757.5 468.1906,-757.5 471.024,-757.5 473.8573,-760.3333 473.8573,-763.1667 473.8573,-763.1667 473.8573,-768.8333 473.8573,-768.8333 473.8573,-771.6667 471.024,-774.5 468.1906,-774.5"/>
<text text-anchor="middle" x="430.8369" y="-763.3" font-family="Helvetica,sans-Serif" font-size="9.00" fill="#000000">get&#45;static&#45;vat&#45;id.js</text>
</a>
</g>
</g>
<!-- lib/get&#45;static&#45;data/index.js -->
<g id="node34" class="node">
<title>lib/get&#45;static&#45;data/index.js</title>
<g id="a_node34"><a xlink:href="lib/get-static-data/index.js" xlink:title="index.js">
<path fill="#ffffcc" stroke="#000000" d="M333.6441,-745.5C333.6441,-745.5 290.9775,-745.5 290.9775,-745.5 288.1441,-745.5 285.3108,-742.6667 285.3108,-739.8333 285.3108,-739.8333 285.3108,-734.1667 285.3108,-734.1667 285.3108,-731.3333 288.1441,-728.5 290.9775,-728.5 290.9775,-728.5 333.6441,-728.5 333.6441,-728.5 336.4775,-728.5 339.3108,-731.3333 339.3108,-734.1667 339.3108,-734.1667 339.3108,-739.8333 339.3108,-739.8333 339.3108,-742.6667 336.4775,-745.5 333.6441,-745.5"/>
<text text-anchor="middle" x="312.3108" y="-734.3" font-family="Helvetica,sans-Serif" font-size="9.00" fill="#000000">index.js</text>
</a>
</g>
</g>
<!-- lib/get&#45;static&#45;data/index.js&#45;&gt;lib/get&#45;static&#45;data/get&#45;static&#45;national&#45;id.js -->
<g id="edge41" class="edge">
<title>lib/get&#45;static&#45;data/index.js&#45;&gt;lib/get&#45;static&#45;data/get&#45;static&#45;national&#45;id.js</title>
<path fill="none" stroke="#000000" stroke-width="2" stroke-opacity="0.466667" d="M320.1827,-745.5449C329.9548,-755.6126 347.6012,-772.0931 366.0684,-781 367.4284,-781.6559 368.8192,-782.2814 370.234,-782.8779"/>
<polygon fill="#000000" fill-opacity="0.466667" stroke="#000000" stroke-width="2" stroke-opacity="0.466667" points="369.2562,-786.2472 379.8498,-786.4072 371.6682,-779.6759 369.2562,-786.2472"/>
</g>
<!-- lib/get&#45;static&#45;data/index.js&#45;&gt;lib/get&#45;static&#45;data/get&#45;static&#45;profile&#45;merchant.js -->
<g id="edge42" class="edge">
<title>lib/get&#45;static&#45;data/index.js&#45;&gt;lib/get&#45;static&#45;data/get&#45;static&#45;profile&#45;merchant.js</title>
<path fill="none" stroke="#000000" stroke-width="2" stroke-opacity="0.466667" d="M339.3465,-729.8059C347.8828,-727.5756 357.3588,-725.1422 366.0684,-723 371.5323,-721.6561 377.264,-720.28 382.9633,-718.9329"/>
<polygon fill="#000000" fill-opacity="0.466667" stroke="#000000" stroke-width="2" stroke-opacity="0.466667" points="384.1846,-722.2416 393.1223,-716.5523 382.5875,-715.4262 384.1846,-722.2416"/>
</g>
<!-- lib/get&#45;static&#45;data/index.js&#45;&gt;lib/get&#45;static&#45;data/get&#45;static&#45;profile&#45;personal.js -->
<g id="edge43" class="edge">
<title>lib/get&#45;static&#45;data/index.js&#45;&gt;lib/get&#45;static&#45;data/get&#45;static&#45;profile&#45;personal.js</title>
<path fill="none" stroke="#000000" stroke-width="2" stroke-opacity="0.466667" d="M339.5031,-737C345.0647,-737 351.1656,-737 357.4938,-737"/>
<polygon fill="#000000" fill-opacity="0.466667" stroke="#000000" stroke-width="2" stroke-opacity="0.466667" points="357.5806,-740.5001 367.5805,-737 357.5805,-733.5001 357.5806,-740.5001"/>
</g>
<!-- lib/get&#45;static&#45;data/index.js&#45;&gt;lib/get&#45;static&#45;data/get&#45;static&#45;vat&#45;id.js -->
<g id="edge44" class="edge">
<title>lib/get&#45;static&#45;data/index.js&#45;&gt;lib/get&#45;static&#45;data/get&#45;static&#45;vat&#45;id.js</title>
<path fill="none" stroke="#000000" stroke-width="2" stroke-opacity="0.466667" d="M339.5759,-744.9452C348.0383,-747.3202 357.4149,-749.8595 366.0684,-752 370.4586,-753.086 375.0279,-754.1686 379.6177,-755.2232"/>
<polygon fill="#000000" fill-opacity="0.466667" stroke="#000000" stroke-width="2" stroke-opacity="0.466667" points="379.1122,-758.6969 389.6367,-757.4778 380.649,-751.8677 379.1122,-758.6969"/>
</g>
<!-- lib/index.js -->
<g id="node35" class="node">
<title>lib/index.js</title>
<g id="a_node35"><a xlink:href="lib/index.js" xlink:title="index.js">
<path fill="#ffffcc" stroke="#000000" d="M64.3333,-155.5C64.3333,-155.5 21.6667,-155.5 21.6667,-155.5 18.8333,-155.5 16,-152.6667 16,-149.8333 16,-149.8333 16,-144.1667 16,-144.1667 16,-141.3333 18.8333,-138.5 21.6667,-138.5 21.6667,-138.5 64.3333,-138.5 64.3333,-138.5 67.1667,-138.5 70,-141.3333 70,-144.1667 70,-144.1667 70,-149.8333 70,-149.8333 70,-152.6667 67.1667,-155.5 64.3333,-155.5"/>
<text text-anchor="middle" x="43" y="-144.3" font-family="Helvetica,sans-Serif" font-size="9.00" fill="#000000">index.js</text>
</a>
</g>
</g>
<!-- lib/profile/index.js -->
<g id="node40" class="node">
<title>lib/profile/index.js</title>
<g id="a_node40"><a xlink:href="lib/profile/index.js" xlink:title="index.js">
<path fill="#ffffcc" stroke="#000000" d="M158.5994,-155.5C158.5994,-155.5 115.9328,-155.5 115.9328,-155.5 113.0994,-155.5 110.2661,-152.6667 110.2661,-149.8333 110.2661,-149.8333 110.2661,-144.1667 110.2661,-144.1667 110.2661,-141.3333 113.0994,-138.5 115.9328,-138.5 115.9328,-138.5 158.5994,-138.5 158.5994,-138.5 161.4328,-138.5 164.2661,-141.3333 164.2661,-144.1667 164.2661,-144.1667 164.2661,-149.8333 164.2661,-149.8333 164.2661,-152.6667 161.4328,-155.5 158.5994,-155.5"/>
<text text-anchor="middle" x="137.2661" y="-144.3" font-family="Helvetica,sans-Serif" font-size="9.00" fill="#000000">index.js</text>
</a>
</g>
</g>
<!-- lib/index.js&#45;&gt;lib/profile/index.js -->
<g id="edge45" class="edge">
<title>lib/index.js&#45;&gt;lib/profile/index.js</title>
<path fill="none" stroke="#000000" stroke-width="2" stroke-opacity="0.466667" d="M70.0129,-147C79.3808,-147 90.0541,-147 100.0953,-147"/>
<polygon fill="#000000" fill-opacity="0.466667" stroke="#000000" stroke-width="2" stroke-opacity="0.466667" points="100.2493,-150.5001 110.2493,-147 100.2492,-143.5001 100.2493,-150.5001"/>
</g>
<!-- lib/profile/Profile.js -->
<g id="node36" class="node">
<title>lib/profile/Profile.js</title>
<g id="a_node36"><a xlink:href="lib/profile/Profile.js" xlink:title="Profile.js">
<path fill="#ffffcc" stroke="#000000" d="M333.6441,-126.5C333.6441,-126.5 290.9775,-126.5 290.9775,-126.5 288.1441,-126.5 285.3108,-123.6667 285.3108,-120.8333 285.3108,-120.8333 285.3108,-115.1667 285.3108,-115.1667 285.3108,-112.3333 288.1441,-109.5 290.9775,-109.5 290.9775,-109.5 333.6441,-109.5 333.6441,-109.5 336.4775,-109.5 339.3108,-112.3333 339.3108,-115.1667 339.3108,-115.1667 339.3108,-120.8333 339.3108,-120.8333 339.3108,-123.6667 336.4775,-126.5 333.6441,-126.5"/>
<text text-anchor="middle" x="312.3108" y="-115.3" font-family="Helvetica,sans-Serif" font-size="9.00" fill="#000000">Profile.js</text>
</a>
</g>
</g>
<!-- lib/profile/Profile.js&#45;&gt;lib/data/index.js -->
<g id="edge46" class="edge">
<title>lib/profile/Profile.js&#45;&gt;lib/data/index.js</title>
<path fill="none" stroke="#000000" stroke-width="2" stroke-opacity="0.466667" d="M339.5835,-119.6626C383.8569,-122.3615 471.4272,-127.6999 521.3068,-130.7406"/>
<polygon fill="#000000" fill-opacity="0.466667" stroke="#000000" stroke-width="2" stroke-opacity="0.466667" points="521.1548,-134.2378 531.3493,-131.3528 521.5808,-127.2508 521.1548,-134.2378"/>
</g>
<!-- lib/profile/__tests/get&#45;profile.spec.js -->
<g id="node37" class="node">
<title>lib/profile/__tests/get&#45;profile.spec.js</title>
<g id="a_node37"><a xlink:href="lib/profile/__tests/get-profile.spec.js" xlink:title="get&#45;profile.spec.js">
<path fill="#ffffcc" stroke="#000000" d="M174.6329,-104.5C174.6329,-104.5 99.8993,-104.5 99.8993,-104.5 97.066,-104.5 94.2326,-101.6667 94.2326,-98.8333 94.2326,-98.8333 94.2326,-93.1667 94.2326,-93.1667 94.2326,-90.3333 97.066,-87.5 99.8993,-87.5 99.8993,-87.5 174.6329,-87.5 174.6329,-87.5 177.4663,-87.5 180.2996,-90.3333 180.2996,-93.1667 180.2996,-93.1667 180.2996,-98.8333 180.2996,-98.8333 180.2996,-101.6667 177.4663,-104.5 174.6329,-104.5"/>
<text text-anchor="middle" x="137.2661" y="-93.3" font-family="Helvetica,sans-Serif" font-size="9.00" fill="#000000">get&#45;profile.spec.js</text>
</a>
</g>
</g>
<!-- lib/profile/get&#45;profile.js -->
<g id="node39" class="node">
<title>lib/profile/get&#45;profile.js</title>
<g id="a_node39"><a xlink:href="lib/profile/get-profile.js" xlink:title="get&#45;profile.js">
<path fill="#ffffcc" stroke="#000000" d="M255.8971,-155.5C255.8971,-155.5 202.1884,-155.5 202.1884,-155.5 199.3551,-155.5 196.5217,-152.6667 196.5217,-149.8333 196.5217,-149.8333 196.5217,-144.1667 196.5217,-144.1667 196.5217,-141.3333 199.3551,-138.5 202.1884,-138.5 202.1884,-138.5 255.8971,-138.5 255.8971,-138.5 258.7304,-138.5 261.5637,-141.3333 261.5637,-144.1667 261.5637,-144.1667 261.5637,-149.8333 261.5637,-149.8333 261.5637,-152.6667 258.7304,-155.5 255.8971,-155.5"/>
<text text-anchor="middle" x="229.0427" y="-144.3" font-family="Helvetica,sans-Serif" font-size="9.00" fill="#000000">get&#45;profile.js</text>
</a>
</g>
</g>
<!-- lib/profile/__tests/get&#45;profile.spec.js&#45;&gt;lib/profile/get&#45;profile.js -->
<g id="edge47" class="edge">
<title>lib/profile/__tests/get&#45;profile.spec.js&#45;&gt;lib/profile/get&#45;profile.js</title>
<path fill="none" stroke="#000000" stroke-width="2" stroke-opacity="0.466667" d="M178.8206,-104.5807C182.1901,-105.8599 185.4717,-107.3245 188.5322,-109 198.5951,-114.509 208.054,-123.1044 215.2971,-130.7278"/>
<polygon fill="#000000" fill-opacity="0.466667" stroke="#000000" stroke-width="2" stroke-opacity="0.466667" points="212.9249,-133.3247 222.2106,-138.4265 218.1332,-128.6477 212.9249,-133.3247"/>
</g>
<!-- lib/profile/__tests/profile.spec.js -->
<g id="node38" class="node">
<title>lib/profile/__tests/profile.spec.js</title>
<g id="a_node38"><a xlink:href="lib/profile/__tests/profile.spec.js" xlink:title="profile.spec.js">
<path fill="#ffffcc" stroke="#000000" d="M167.1234,-75.5C167.1234,-75.5 107.4089,-75.5 107.4089,-75.5 104.5755,-75.5 101.7422,-72.6667 101.7422,-69.8333 101.7422,-69.8333 101.7422,-64.1667 101.7422,-64.1667 101.7422,-61.3333 104.5755,-58.5 107.4089,-58.5 107.4089,-58.5 167.1234,-58.5 167.1234,-58.5 169.9567,-58.5 172.79,-61.3333 172.79,-64.1667 172.79,-64.1667 172.79,-69.8333 172.79,-69.8333 172.79,-72.6667 169.9567,-75.5 167.1234,-75.5"/>
<text text-anchor="middle" x="137.2661" y="-64.3" font-family="Helvetica,sans-Serif" font-size="9.00" fill="#000000">profile.spec.js</text>
</a>
</g>
</g>
<!-- lib/profile/__tests/profile.spec.js&#45;&gt;lib/profile/Profile.js -->
<g id="edge48" class="edge">
<title>lib/profile/__tests/profile.spec.js&#45;&gt;lib/profile/Profile.js</title>
<path fill="none" stroke="#000000" stroke-width="2" stroke-opacity="0.466667" d="M166.5647,-75.5363C196.424,-84.2359 242.8301,-97.7565 275.2318,-107.1969"/>
<polygon fill="#000000" fill-opacity="0.466667" stroke="#000000" stroke-width="2" stroke-opacity="0.466667" points="274.6412,-110.6703 285.221,-110.1073 276.5993,-103.9497 274.6412,-110.6703"/>
</g>
<!-- lib/profile/get&#45;profile.js&#45;&gt;lib/gen&#45;dinamic&#45;data/index.js -->
<g id="edge49" class="edge">
<title>lib/profile/get&#45;profile.js&#45;&gt;lib/gen&#45;dinamic&#45;data/index.js</title>
<path fill="none" stroke="#000000" stroke-width="2" stroke-opacity="0.466667" d="M232.7281,-155.719C245.4099,-185.7224 287.4181,-285.1074 304.741,-326.0909"/>
<polygon fill="#000000" fill-opacity="0.466667" stroke="#000000" stroke-width="2" stroke-opacity="0.466667" points="301.5508,-327.5333 308.668,-335.3817 307.9985,-324.808 301.5508,-327.5333"/>
</g>
<!-- lib/profile/get&#45;profile.js&#45;&gt;lib/get&#45;static&#45;data/index.js -->
<g id="edge50" class="edge">
<title>lib/profile/get&#45;profile.js&#45;&gt;lib/get&#45;static&#45;data/index.js</title>
<path fill="none" stroke="#000000" stroke-width="2" stroke-opacity="0.466667" d="M229.1294,-155.5868C229.8376,-216.4291 235.686,-582.9793 274.5532,-686 279.3765,-698.7845 288.3892,-711.1525 296.3995,-720.5066"/>
<polygon fill="#000000" fill-opacity="0.466667" stroke="#000000" stroke-width="2" stroke-opacity="0.466667" points="294.0253,-723.0997 303.3252,-728.1752 299.2203,-718.4079 294.0253,-723.0997"/>
</g>
<!-- lib/profile/get&#45;profile.js&#45;&gt;lib/profile/Profile.js -->
<g id="edge51" class="edge">
<title>lib/profile/get&#45;profile.js&#45;&gt;lib/profile/Profile.js</title>
<path fill="none" stroke="#000000" stroke-width="2" stroke-opacity="0.466667" d="M253.5755,-138.4559C261.2152,-135.7952 269.7846,-132.8107 277.9664,-129.9612"/>
<polygon fill="#000000" fill-opacity="0.466667" stroke="#000000" stroke-width="2" stroke-opacity="0.466667" points="279.3731,-133.1776 287.6656,-126.5832 277.0708,-126.567 279.3731,-133.1776"/>
</g>
<!-- lib/profile/mcc&#45;validate.js -->
<g id="node41" class="node">
<title>lib/profile/mcc&#45;validate.js</title>
<g id="a_node41"><a xlink:href="lib/profile/mcc-validate.js" xlink:title="mcc&#45;validate.js">
<path fill="#ffffcc" stroke="#000000" d="M344.1608,-155.5C344.1608,-155.5 280.4608,-155.5 280.4608,-155.5 277.6274,-155.5 274.7941,-152.6667 274.7941,-149.8333 274.7941,-149.8333 274.7941,-144.1667 274.7941,-144.1667 274.7941,-141.3333 277.6274,-138.5 280.4608,-138.5 280.4608,-138.5 344.1608,-138.5 344.1608,-138.5 346.9941,-138.5 349.8275,-141.3333 349.8275,-144.1667 349.8275,-144.1667 349.8275,-149.8333 349.8275,-149.8333 349.8275,-152.6667 346.9941,-155.5 344.1608,-155.5"/>
<text text-anchor="middle" x="312.3108" y="-144.3" font-family="Helvetica,sans-Serif" font-size="9.00" fill="#000000">mcc&#45;validate.js</text>
</a>
</g>
</g>
<!-- lib/profile/get&#45;profile.js&#45;&gt;lib/profile/mcc&#45;validate.js -->
<g id="edge52" class="edge">
<title>lib/profile/get&#45;profile.js&#45;&gt;lib/profile/mcc&#45;validate.js</title>
<path fill="none" stroke="#000000" stroke-width="2" stroke-opacity="0.466667" d="M261.9525,-147C262.7366,-147 263.5251,-147 264.3167,-147"/>
<polygon fill="#000000" fill-opacity="0.466667" stroke="#000000" stroke-width="2" stroke-opacity="0.466667" points="264.6888,-150.5001 274.6888,-147 264.6887,-143.5001 264.6888,-150.5001"/>
</g>
<!-- lib/profile/index.js&#45;&gt;lib/profile/get&#45;profile.js -->
<g id="edge53" class="edge">
<title>lib/profile/index.js&#45;&gt;lib/profile/get&#45;profile.js</title>
<path fill="none" stroke="#000000" stroke-width="2" stroke-opacity="0.466667" d="M164.3057,-147C171.2125,-147 178.8088,-147 186.2932,-147"/>
<polygon fill="#000000" fill-opacity="0.466667" stroke="#000000" stroke-width="2" stroke-opacity="0.466667" points="186.3546,-150.5001 196.3546,-147 186.3545,-143.5001 186.3546,-150.5001"/>
</g>
<!-- lib/profile/mcc&#45;validate.js&#45;&gt;lib/data/index.js -->
<g id="edge54" class="edge">
<title>lib/profile/mcc&#45;validate.js&#45;&gt;lib/data/index.js</title>
<path fill="none" stroke="#000000" stroke-width="2" stroke-opacity="0.466667" d="M349.9496,-144.8585C396.2863,-142.222 474.5113,-137.7713 520.811,-135.1369"/>
<polygon fill="#000000" fill-opacity="0.466667" stroke="#000000" stroke-width="2" stroke-opacity="0.466667" points="521.2342,-138.6186 531.0192,-134.5561 520.8365,-131.6299 521.2342,-138.6186"/>
</g>
<!-- lib/profile/profile&#45;validate.js -->
<g id="node42" class="node">
<title>lib/profile/profile&#45;validate.js</title>
<g id="a_node42"><a xlink:href="lib/profile/profile-validate.js" xlink:title="profile&#45;validate.js">
<path fill="#ffffcc" stroke="#000000" d="M173.1315,-41.5C173.1315,-41.5 101.4007,-41.5 101.4007,-41.5 98.5674,-41.5 95.734,-38.6667 95.734,-35.8333 95.734,-35.8333 95.734,-30.1667 95.734,-30.1667 95.734,-27.3333 98.5674,-24.5 101.4007,-24.5 101.4007,-24.5 173.1315,-24.5 173.1315,-24.5 175.9649,-24.5 178.7982,-27.3333 178.7982,-30.1667 178.7982,-30.1667 178.7982,-35.8333 178.7982,-35.8333 178.7982,-38.6667 175.9649,-41.5 173.1315,-41.5"/>
<text text-anchor="middle" x="137.2661" y="-30.3" font-family="Helvetica,sans-Serif" font-size="9.00" fill="#000000">profile&#45;validate.js</text>
</a>
</g>
</g>
</g>
</svg>
