<?xml version="1.0" encoding="UTF-8" standalone="no"?>
<!DOCTYPE svg PUBLIC "-//W3C//DTD SVG 1.1//EN"
 "http://www.w3.org/Graphics/SVG/1.1/DTD/svg11.dtd">
<!-- Generated by graphviz version 2.40.1 (20161225.0304)
 -->
<!-- Title: dependency&#45;cruiser output Pages: 1 -->
<svg width="901pt" height="853pt"
 viewBox="0.00 0.00 900.97 853.00" xmlns="http://www.w3.org/2000/svg" xmlns:xlink="http://www.w3.org/1999/xlink">
<g id="graph0" class="graph" transform="scale(1 1) rotate(0) translate(4 849)">
<title>dependency&#45;cruiser output</title>
<polygon fill="#ffffff" stroke="transparent" points="-4,4 -4,-849 896.9702,-849 896.9702,4 -4,4"/>
<g id="clust1" class="cluster">
<title>cluster_lib</title>
<path fill="#ffffff" stroke="#000000" stroke-width="2" d="M20,-8C20,-8 872.9702,-8 872.9702,-8 878.9702,-8 884.9702,-14 884.9702,-20 884.9702,-20 884.9702,-825 884.9702,-825 884.9702,-831 878.9702,-837 872.9702,-837 872.9702,-837 20,-837 20,-837 14,-837 8,-831 8,-825 8,-825 8,-20 8,-20 8,-14 14,-8 20,-8"/>
<text text-anchor="middle" x="446.4851" y="-825.8" font-family="Helvetica,sans-Serif" font-weight="bold" font-size="9.00" fill="#000000">lib</text>
</g>
<g id="clust10" class="cluster">
<title>cluster_lib/get&#45;static&#45;data</title>
<path fill="#ffffff" stroke="#000000" stroke-width="2" d="M287.3123,-674C287.3123,-674 489.6069,-674 489.6069,-674 495.6069,-674 501.6069,-680 501.6069,-686 501.6069,-686 501.6069,-800 501.6069,-800 501.6069,-806 495.6069,-812 489.6069,-812 489.6069,-812 287.3123,-812 287.3123,-812 281.3123,-812 275.3123,-806 275.3123,-800 275.3123,-800 275.3123,-686 275.3123,-686 275.3123,-680 281.3123,-674 287.3123,-674"/>
<text text-anchor="middle" x="388.4596" y="-800.8" font-family="Helvetica,sans-Serif" font-weight="bold" font-size="9.00" fill="#000000">get&#45;static&#45;data</text>
</g>
<g id="clust11" class="cluster">
<title>cluster_lib/profile</title>
<path fill="#ffffff" stroke="#000000" stroke-width="2" d="M90,-54C90,-54 344.0698,-54 344.0698,-54 350.0698,-54 356.0698,-60 356.0698,-66 356.0698,-66 356.0698,-152 356.0698,-152 356.0698,-158 350.0698,-164 344.0698,-164 344.0698,-164 90,-164 90,-164 84,-164 78,-158 78,-152 78,-152 78,-66 78,-66 78,-60 84,-54 90,-54"/>
<text text-anchor="middle" x="217.0349" y="-152.8" font-family="Helvetica,sans-Serif" font-weight="bold" font-size="9.00" fill="#000000">profile</text>
</g>
<g id="clust12" class="cluster">
<title>cluster_lib/profile/__tests</title>
<path fill="#ffffff" stroke="#000000" stroke-width="2" d="M189.5308,-62C189.5308,-62 252.5547,-62 252.5547,-62 258.5547,-62 264.5547,-68 264.5547,-74 264.5547,-74 264.5547,-101 264.5547,-101 264.5547,-107 258.5547,-113 252.5547,-113 252.5547,-113 189.5308,-113 189.5308,-113 183.5308,-113 177.5308,-107 177.5308,-101 177.5308,-101 177.5308,-74 177.5308,-74 177.5308,-68 183.5308,-62 189.5308,-62"/>
<text text-anchor="middle" x="221.0427" y="-101.8" font-family="Helvetica,sans-Serif" font-weight="bold" font-size="9.00" fill="#000000">__tests</text>
</g>
<g id="clust2" class="cluster">
<title>cluster_lib/data</title>
<path fill="#ffffff" stroke="#000000" stroke-width="2" d="M533.3706,-16C533.3706,-16 834.4592,-16 834.4592,-16 840.4592,-16 846.4592,-22 846.4592,-28 846.4592,-28 846.4592,-152 846.4592,-152 846.4592,-158 840.4592,-164 834.4592,-164 834.4592,-164 533.3706,-164 533.3706,-164 527.3706,-164 521.3706,-158 521.3706,-152 521.3706,-152 521.3706,-28 521.3706,-28 521.3706,-22 527.3706,-16 533.3706,-16"/>
<text text-anchor="middle" x="683.9149" y="-152.8" font-family="Helvetica,sans-Serif" font-weight="bold" font-size="9.00" fill="#000000">data</text>
</g>
<g id="clust3" class="cluster">
<title>cluster_lib/data/__tests</title>
<path fill="#ffffff" stroke="#000000" stroke-width="2" d="M640.3943,-78C640.3943,-78 696.4221,-78 696.4221,-78 702.4221,-78 708.4221,-84 708.4221,-90 708.4221,-90 708.4221,-117 708.4221,-117 708.4221,-123 702.4221,-129 696.4221,-129 696.4221,-129 640.3943,-129 640.3943,-129 634.3943,-129 628.3943,-123 628.3943,-117 628.3943,-117 628.3943,-90 628.3943,-90 628.3943,-84 634.3943,-78 640.3943,-78"/>
<text text-anchor="middle" x="668.4082" y="-117.8" font-family="Helvetica,sans-Serif" font-weight="bold" font-size="9.00" fill="#000000">__tests</text>
</g>
<g id="clust4" class="cluster">
<title>cluster_lib/gen&#45;dinamic&#45;data</title>
<path fill="#ffffff" stroke="#000000" stroke-width="2" d="M287.3123,-172C287.3123,-172 864.9702,-172 864.9702,-172 870.9702,-172 876.9702,-178 876.9702,-184 876.9702,-184 876.9702,-654 876.9702,-654 876.9702,-660 870.9702,-666 864.9702,-666 864.9702,-666 287.3123,-666 287.3123,-666 281.3123,-666 275.3123,-660 275.3123,-654 275.3123,-654 275.3123,-184 275.3123,-184 275.3123,-178 281.3123,-172 287.3123,-172"/>
<text text-anchor="middle" x="576.1412" y="-654.8" font-family="Helvetica,sans-Serif" font-weight="bold" font-size="9.00" fill="#000000">gen&#45;dinamic&#45;data</text>
</g>
<g id="clust8" class="cluster">
<title>cluster_lib/gen&#45;dinamic&#45;data/gen&#45;random&#45;var</title>
<path fill="#ffffff" stroke="#000000" stroke-width="2" d="M521.6069,-180C521.6069,-180 856.9702,-180 856.9702,-180 862.9702,-180 868.9702,-186 868.9702,-192 868.9702,-192 868.9702,-281 868.9702,-281 868.9702,-287 862.9702,-293 856.9702,-293 856.9702,-293 521.6069,-293 521.6069,-293 515.6069,-293 509.6069,-287 509.6069,-281 509.6069,-281 509.6069,-192 509.6069,-192 509.6069,-186 515.6069,-180 521.6069,-180"/>
<text text-anchor="middle" x="689.2886" y="-281.8" font-family="Helvetica,sans-Serif" font-weight="bold" font-size="9.00" fill="#000000">gen&#45;random&#45;var</text>
</g>
<g id="clust9" class="cluster">
<title>cluster_lib/gen&#45;dinamic&#45;data/gen&#45;random&#45;var/__tests</title>
<path fill="#ffffff" stroke="#000000" stroke-width="2" d="M529.6069,-188C529.6069,-188 583.1343,-188 583.1343,-188 589.1343,-188 595.1343,-194 595.1343,-200 595.1343,-200 595.1343,-256 595.1343,-256 595.1343,-262 589.1343,-268 583.1343,-268 583.1343,-268 529.6069,-268 529.6069,-268 523.6069,-268 517.6069,-262 517.6069,-256 517.6069,-256 517.6069,-200 517.6069,-200 517.6069,-194 523.6069,-188 529.6069,-188"/>
<text text-anchor="middle" x="556.3706" y="-256.8" font-family="Helvetica,sans-Serif" font-weight="bold" font-size="9.00" fill="#000000">__tests</text>
</g>
<g id="clust5" class="cluster">
<title>cluster_lib/gen&#45;dinamic&#45;data/gen&#45;address</title>
<path fill="#ffffff" stroke="#000000" stroke-width="2" d="M405.8384,-359C405.8384,-359 598.3877,-359 598.3877,-359 604.3877,-359 610.3877,-365 610.3877,-371 610.3877,-371 610.3877,-485 610.3877,-485 610.3877,-491 604.3877,-497 598.3877,-497 598.3877,-497 405.8384,-497 405.8384,-497 399.8384,-497 393.8384,-491 393.8384,-485 393.8384,-485 393.8384,-371 393.8384,-371 393.8384,-365 399.8384,-359 405.8384,-359"/>
<text text-anchor="middle" x="502.113" y="-485.8" font-family="Helvetica,sans-Serif" font-weight="bold" font-size="9.00" fill="#000000">gen&#45;address</text>
</g>
<g id="clust6" class="cluster">
<title>cluster_lib/gen&#45;dinamic&#45;data/gen&#45;national&#45;id</title>
<path fill="#ffffff" stroke="#000000" stroke-width="2" d="M405.8384,-531C405.8384,-531 831.9607,-531 831.9607,-531 837.9607,-531 843.9607,-537 843.9607,-543 843.9607,-543 843.9607,-629 843.9607,-629 843.9607,-635 837.9607,-641 831.9607,-641 831.9607,-641 405.8384,-641 405.8384,-641 399.8384,-641 393.8384,-635 393.8384,-629 393.8384,-629 393.8384,-543 393.8384,-543 393.8384,-537 399.8384,-531 405.8384,-531"/>
<text text-anchor="middle" x="618.8995" y="-629.8" font-family="Helvetica,sans-Serif" font-weight="bold" font-size="9.00" fill="#000000">gen&#45;national&#45;id</text>
</g>
<g id="clust7" class="cluster">
<title>cluster_lib/gen&#45;dinamic&#45;data/gen&#45;national&#45;id/it.national&#45;id</title>
<path fill="#ffffff" stroke="#000000" stroke-width="2" d="M533.3706,-539C533.3706,-539 823.9607,-539 823.9607,-539 829.9607,-539 835.9607,-545 835.9607,-551 835.9607,-551 835.9607,-578 835.9607,-578 835.9607,-584 829.9607,-590 823.9607,-590 823.9607,-590 533.3706,-590 533.3706,-590 527.3706,-590 521.3706,-584 521.3706,-578 521.3706,-578 521.3706,-551 521.3706,-551 521.3706,-545 527.3706,-539 533.3706,-539"/>
<text text-anchor="middle" x="678.6656" y="-578.8" font-family="Helvetica,sans-Serif" font-weight="bold" font-size="9.00" fill="#000000">it.national&#45;id</text>
</g>
<!-- lib/data/__tests/data.spec.js -->
<g id="node1" class="node">
<title>lib/data/__tests/data.spec.js</title>
<g id="a_node1"><a xlink:href="lib/data/__tests/data.spec.js" xlink:title="data.spec.js">
<path fill="#ffffcc" stroke="#000000" d="M694.7694,-103.5C694.7694,-103.5 642.047,-103.5 642.047,-103.5 639.2137,-103.5 636.3804,-100.6667 636.3804,-97.8333 636.3804,-97.8333 636.3804,-92.1667 636.3804,-92.1667 636.3804,-89.3333 639.2137,-86.5 642.047,-86.5 642.047,-86.5 694.7694,-86.5 694.7694,-86.5 697.6027,-86.5 700.436,-89.3333 700.436,-92.1667 700.436,-92.1667 700.436,-97.8333 700.436,-97.8333 700.436,-100.6667 697.6027,-103.5 694.7694,-103.5"/>
<text text-anchor="middle" x="668.4082" y="-92.3" font-family="Helvetica,sans-Serif" font-size="9.00" fill="#000000">data.spec.js</text>
</a>
</g>
</g>
<!-- lib/data/country&#45;list.js -->
<g id="node3" class="node">
<title>lib/data/country&#45;list.js</title>
<g id="a_node3"><a xlink:href="lib/data/country-list.js" xlink:title="country&#45;list.js">
<path fill="#ffffcc" stroke="#000000" d="M824.5448,-80.5C824.5448,-80.5 767.8541,-80.5 767.8541,-80.5 765.0208,-80.5 762.1875,-77.6667 762.1875,-74.8333 762.1875,-74.8333 762.1875,-69.1667 762.1875,-69.1667 762.1875,-66.3333 765.0208,-63.5 767.8541,-63.5 767.8541,-63.5 824.5448,-63.5 824.5448,-63.5 827.3781,-63.5 830.2115,-66.3333 830.2115,-69.1667 830.2115,-69.1667 830.2115,-74.8333 830.2115,-74.8333 830.2115,-77.6667 827.3781,-80.5 824.5448,-80.5"/>
<text text-anchor="middle" x="796.1995" y="-69.3" font-family="Helvetica,sans-Serif" font-size="9.00" fill="#000000">country&#45;list.js</text>
</a>
</g>
</g>
<!-- lib/data/__tests/data.spec.js&#45;&gt;lib/data/country&#45;list.js -->
<g id="edge1" class="edge">
<title>lib/data/__tests/data.spec.js&#45;&gt;lib/data/country&#45;list.js</title>
<path fill="none" stroke="#000000" stroke-width="2" stroke-opacity="0.466667" d="M700.6553,-89.1961C716.2081,-86.3969 735.1077,-82.9954 751.9792,-79.9588"/>
<polygon fill="#000000" fill-opacity="0.466667" stroke="#000000" stroke-width="2" stroke-opacity="0.466667" points="752.9522,-83.34 762.174,-78.1239 751.7122,-76.4507 752.9522,-83.34"/>
</g>
<!-- lib/data/mccs&#45;available.js -->
<g id="node5" class="node">
<title>lib/data/mccs&#45;available.js</title>
<g id="a_node5"><a xlink:href="lib/data/mccs-available.js" xlink:title="mccs&#45;available.js">
<path fill="#ffffcc" stroke="#000000" d="M832.5537,-125.5C832.5537,-125.5 759.8452,-125.5 759.8452,-125.5 757.0119,-125.5 754.1786,-122.6667 754.1786,-119.8333 754.1786,-119.8333 754.1786,-114.1667 754.1786,-114.1667 754.1786,-111.3333 757.0119,-108.5 759.8452,-108.5 759.8452,-108.5 832.5537,-108.5 832.5537,-108.5 835.387,-108.5 838.2204,-111.3333 838.2204,-114.1667 838.2204,-114.1667 838.2204,-119.8333 838.2204,-119.8333 838.2204,-122.6667 835.387,-125.5 832.5537,-125.5"/>
<text text-anchor="middle" x="796.1995" y="-114.3" font-family="Helvetica,sans-Serif" font-size="9.00" fill="#000000">mccs&#45;available.js</text>
</a>
</g>
</g>
<!-- lib/data/__tests/data.spec.js&#45;&gt;lib/data/mccs&#45;available.js -->
<g id="edge2" class="edge">
<title>lib/data/__tests/data.spec.js&#45;&gt;lib/data/mccs&#45;available.js</title>
<path fill="none" stroke="#000000" stroke-width="2" stroke-opacity="0.466667" d="M700.6553,-100.5515C713.7519,-102.8062 729.2217,-105.4694 743.8553,-107.9887"/>
<polygon fill="#000000" fill-opacity="0.466667" stroke="#000000" stroke-width="2" stroke-opacity="0.466667" points="743.3644,-111.4555 753.8132,-109.703 744.552,-104.557 743.3644,-111.4555"/>
</g>
<!-- lib/data/names&#45;list.js -->
<g id="node6" class="node">
<title>lib/data/names&#45;list.js</title>
<g id="a_node6"><a xlink:href="lib/data/names-list.js" xlink:title="names&#45;list.js">
<path fill="#ffffcc" stroke="#000000" d="M823.5426,-51.5C823.5426,-51.5 768.8564,-51.5 768.8564,-51.5 766.023,-51.5 763.1897,-48.6667 763.1897,-45.8333 763.1897,-45.8333 763.1897,-40.1667 763.1897,-40.1667 763.1897,-37.3333 766.023,-34.5 768.8564,-34.5 768.8564,-34.5 823.5426,-34.5 823.5426,-34.5 826.3759,-34.5 829.2092,-37.3333 829.2092,-40.1667 829.2092,-40.1667 829.2092,-45.8333 829.2092,-45.8333 829.2092,-48.6667 826.3759,-51.5 823.5426,-51.5"/>
<text text-anchor="middle" x="796.1995" y="-40.3" font-family="Helvetica,sans-Serif" font-size="9.00" fill="#000000">names&#45;list.js</text>
</a>
</g>
</g>
<!-- lib/data/__tests/data.spec.js&#45;&gt;lib/data/names&#45;list.js -->
<g id="edge3" class="edge">
<title>lib/data/__tests/data.spec.js&#45;&gt;lib/data/names&#45;list.js</title>
<path fill="none" stroke="#000000" stroke-width="2" stroke-opacity="0.466667" d="M700.6717,-91.5249C707.0175,-89.7151 713.292,-87.0144 718.4287,-83 728.2963,-75.2884 721.5308,-65.6727 731.4287,-58 737.7789,-53.0774 745.4646,-49.7229 753.29,-47.4475"/>
<polygon fill="#000000" fill-opacity="0.466667" stroke="#000000" stroke-width="2" stroke-opacity="0.466667" points="754.2615,-50.8143 763.1869,-45.1057 752.6497,-44.0024 754.2615,-50.8143"/>
</g>
<!-- lib/data/countries&#45;available.js -->
<g id="node2" class="node">
<title>lib/data/countries&#45;available.js</title>
<g id="a_node2"><a xlink:href="lib/data/countries-available.js" xlink:title="countries&#45;available.js">
<path fill="#ffffcc" stroke="#000000" d="M712.7826,-55.5C712.7826,-55.5 624.0338,-55.5 624.0338,-55.5 621.2005,-55.5 618.3672,-52.6667 618.3672,-49.8333 618.3672,-49.8333 618.3672,-44.1667 618.3672,-44.1667 618.3672,-41.3333 621.2005,-38.5 624.0338,-38.5 624.0338,-38.5 712.7826,-38.5 712.7826,-38.5 715.6159,-38.5 718.4492,-41.3333 718.4492,-44.1667 718.4492,-44.1667 718.4492,-49.8333 718.4492,-49.8333 718.4492,-52.6667 715.6159,-55.5 712.7826,-55.5"/>
<text text-anchor="middle" x="668.4082" y="-44.3" font-family="Helvetica,sans-Serif" font-size="9.00" fill="#000000">countries&#45;available.js</text>
</a>
</g>
</g>
<!-- lib/data/countries&#45;available.js&#45;&gt;lib/data/country&#45;list.js -->
<g id="edge4" class="edge">
<title>lib/data/countries&#45;available.js&#45;&gt;lib/data/country&#45;list.js</title>
<path fill="none" stroke="#000000" stroke-width="2" stroke-opacity="0.466667" d="M712.0293,-55.5337C724.9233,-58.0561 739.0462,-60.819 751.9777,-63.3488"/>
<polygon fill="#000000" fill-opacity="0.466667" stroke="#000000" stroke-width="2" stroke-opacity="0.466667" points="751.5609,-66.8336 762.0469,-65.3187 752.9049,-59.9638 751.5609,-66.8336"/>
</g>
<!-- lib/data/countries&#45;available.js&#45;&gt;lib/data/names&#45;list.js -->
<g id="edge5" class="edge">
<title>lib/data/countries&#45;available.js&#45;&gt;lib/data/names&#45;list.js</title>
<path fill="none" stroke="#000000" stroke-width="2" stroke-opacity="0.466667" d="M718.5479,-45.4306C729.8877,-45.0756 741.8344,-44.7017 752.8658,-44.3564"/>
<polygon fill="#000000" fill-opacity="0.466667" stroke="#000000" stroke-width="2" stroke-opacity="0.466667" points="753.2266,-47.8469 763.1122,-44.0357 753.0075,-40.8503 753.2266,-47.8469"/>
</g>
<!-- lib/data/index.js -->
<g id="node4" class="node">
<title>lib/data/index.js</title>
<g id="a_node4"><a xlink:href="lib/data/index.js" xlink:title="index.js">
<path fill="#ffffcc" stroke="#000000" d="M577.7039,-124.5C577.7039,-124.5 535.0373,-124.5 535.0373,-124.5 532.2039,-124.5 529.3706,-121.6667 529.3706,-118.8333 529.3706,-118.8333 529.3706,-113.1667 529.3706,-113.1667 529.3706,-110.3333 532.2039,-107.5 535.0373,-107.5 535.0373,-107.5 577.7039,-107.5 577.7039,-107.5 580.5373,-107.5 583.3706,-110.3333 583.3706,-113.1667 583.3706,-113.1667 583.3706,-118.8333 583.3706,-118.8333 583.3706,-121.6667 580.5373,-124.5 577.7039,-124.5"/>
<text text-anchor="middle" x="556.3706" y="-113.3" font-family="Helvetica,sans-Serif" font-size="9.00" fill="#000000">index.js</text>
</a>
</g>
</g>
<!-- lib/data/index.js&#45;&gt;lib/data/countries&#45;available.js -->
<g id="edge6" class="edge">
<title>lib/data/index.js&#45;&gt;lib/data/countries&#45;available.js</title>
<path fill="none" stroke="#000000" stroke-width="2" stroke-opacity="0.466667" d="M564.8925,-107.3434C576.2281,-96.2387 597.3002,-76.9852 618.3877,-65 622.0436,-62.9222 625.9826,-61.0138 629.9881,-59.2804"/>
<polygon fill="#000000" fill-opacity="0.466667" stroke="#000000" stroke-width="2" stroke-opacity="0.466667" points="631.3546,-62.5036 639.3533,-55.5558 628.7677,-55.9991 631.3546,-62.5036"/>
</g>
<!-- lib/data/index.js&#45;&gt;lib/data/country&#45;list.js -->
<g id="edge7" class="edge">
<title>lib/data/index.js&#45;&gt;lib/data/country&#45;list.js</title>
<path fill="none" stroke="#000000" stroke-width="2" stroke-opacity="0.466667" d="M565.5691,-107.4267C576.9578,-97.4439 597.429,-81.4949 618.3877,-75 662.1391,-61.4418 714.897,-62.5904 751.5294,-65.9536"/>
<polygon fill="#000000" fill-opacity="0.466667" stroke="#000000" stroke-width="2" stroke-opacity="0.466667" points="751.5801,-69.4765 761.882,-67.0023 752.2857,-62.5122 751.5801,-69.4765"/>
</g>
<!-- lib/data/index.js&#45;&gt;lib/data/mccs&#45;available.js -->
<g id="edge8" class="edge">
<title>lib/data/index.js&#45;&gt;lib/data/mccs&#45;available.js</title>
<path fill="none" stroke="#000000" stroke-width="2" stroke-opacity="0.466667" d="M583.2516,-124.5137C594.0525,-127.5177 606.6949,-130.516 618.3877,-132 662.4965,-137.5982 674.1677,-136.2294 718.4287,-132 728.5923,-131.0288 739.4025,-129.3591 749.6293,-127.4779"/>
<polygon fill="#000000" fill-opacity="0.466667" stroke="#000000" stroke-width="2" stroke-opacity="0.466667" points="750.4637,-130.8814 759.6159,-125.5441 749.1329,-124.009 750.4637,-130.8814"/>
</g>
<!-- lib/data/index.js&#45;&gt;lib/data/names&#45;list.js -->
<g id="edge9" class="edge">
<title>lib/data/index.js&#45;&gt;lib/data/names&#45;list.js</title>
<path fill="none" stroke="#000000" stroke-width="2" stroke-opacity="0.466667" d="M559.6862,-107.3361C567.0596,-89.4687 586.7069,-48.876 618.3877,-33 664.1205,-10.0822 725.0077,-20.9633 762.3605,-31.5287"/>
<polygon fill="#000000" fill-opacity="0.466667" stroke="#000000" stroke-width="2" stroke-opacity="0.466667" points="761.6566,-34.971 772.2397,-34.472 763.6554,-28.2624 761.6566,-34.971"/>
</g>
<!-- lib/gen&#45;dinamic&#45;data/gen&#45;address/br.address.js -->
<g id="node7" class="node">
<title>lib/gen&#45;dinamic&#45;data/gen&#45;address/br.address.js</title>
<g id="a_node7"><a xlink:href="lib/gen-dinamic-data/gen-address/br.address.js" xlink:title="br.address.js">
<path fill="#ffffcc" stroke="#000000" d="M584.2332,-442.5C584.2332,-442.5 528.508,-442.5 528.508,-442.5 525.6746,-442.5 522.8413,-439.6667 522.8413,-436.8333 522.8413,-436.8333 522.8413,-431.1667 522.8413,-431.1667 522.8413,-428.3333 525.6746,-425.5 528.508,-425.5 528.508,-425.5 584.2332,-425.5 584.2332,-425.5 587.0666,-425.5 589.8999,-428.3333 589.8999,-431.1667 589.8999,-431.1667 589.8999,-436.8333 589.8999,-436.8333 589.8999,-439.6667 587.0666,-442.5 584.2332,-442.5"/>
<text text-anchor="middle" x="556.3706" y="-431.3" font-family="Helvetica,sans-Serif" font-size="9.00" fill="#000000">br.address.js</text>
</a>
</g>
</g>
<!-- lib/gen&#45;dinamic&#45;data/gen&#45;random&#45;var/index.js -->
<g id="node26" class="node">
<title>lib/gen&#45;dinamic&#45;data/gen&#45;random&#45;var/index.js</title>
<g id="a_node26"><a xlink:href="lib/gen-dinamic-data/gen-random-var/index.js" xlink:title="index.js">
<path fill="#ffffcc" stroke="#000000" d="M689.7415,-267.5C689.7415,-267.5 647.0749,-267.5 647.0749,-267.5 644.2415,-267.5 641.4082,-264.6667 641.4082,-261.8333 641.4082,-261.8333 641.4082,-256.1667 641.4082,-256.1667 641.4082,-253.3333 644.2415,-250.5 647.0749,-250.5 647.0749,-250.5 689.7415,-250.5 689.7415,-250.5 692.5749,-250.5 695.4082,-253.3333 695.4082,-256.1667 695.4082,-256.1667 695.4082,-261.8333 695.4082,-261.8333 695.4082,-264.6667 692.5749,-267.5 689.7415,-267.5"/>
<text text-anchor="middle" x="668.4082" y="-256.3" font-family="Helvetica,sans-Serif" font-size="9.00" fill="#000000">index.js</text>
</a>
</g>
</g>
<!-- lib/gen&#45;dinamic&#45;data/gen&#45;address/br.address.js&#45;&gt;lib/gen&#45;dinamic&#45;data/gen&#45;random&#45;var/index.js -->
<g id="edge10" class="edge">
<title>lib/gen&#45;dinamic&#45;data/gen&#45;address/br.address.js&#45;&gt;lib/gen&#45;dinamic&#45;data/gen&#45;random&#45;var/index.js</title>
<path fill="none" stroke="#000000" stroke-width="2" stroke-opacity="0.466667" d="M590.0195,-430.5717C597.423,-428.4635 604.7321,-425.1564 610.3877,-420 652.0245,-382.0389 663.8129,-311.9693 667.1267,-278.1936"/>
<polygon fill="#000000" fill-opacity="0.466667" stroke="#000000" stroke-width="2" stroke-opacity="0.466667" points="670.6441,-278.127 667.9805,-267.8725 663.6679,-277.5499 670.6441,-278.127"/>
</g>
<!-- lib/gen&#45;dinamic&#45;data/gen&#45;address/ch.address.js -->
<g id="node8" class="node">
<title>lib/gen&#45;dinamic&#45;data/gen&#45;address/ch.address.js</title>
<g id="a_node8"><a xlink:href="lib/gen-dinamic-data/gen-address/ch.address.js" xlink:title="ch.address.js">
<path fill="#ffffcc" stroke="#000000" d="M585.2284,-471.5C585.2284,-471.5 527.5129,-471.5 527.5129,-471.5 524.6795,-471.5 521.8462,-468.6667 521.8462,-465.8333 521.8462,-465.8333 521.8462,-460.1667 521.8462,-460.1667 521.8462,-457.3333 524.6795,-454.5 527.5129,-454.5 527.5129,-454.5 585.2284,-454.5 585.2284,-454.5 588.0617,-454.5 590.895,-457.3333 590.895,-460.1667 590.895,-460.1667 590.895,-465.8333 590.895,-465.8333 590.895,-468.6667 588.0617,-471.5 585.2284,-471.5"/>
<text text-anchor="middle" x="556.3706" y="-460.3" font-family="Helvetica,sans-Serif" font-size="9.00" fill="#000000">ch.address.js</text>
</a>
</g>
</g>
<!-- lib/gen&#45;dinamic&#45;data/gen&#45;address/ch.address.js&#45;&gt;lib/gen&#45;dinamic&#45;data/gen&#45;random&#45;var/index.js -->
<g id="edge11" class="edge">
<title>lib/gen&#45;dinamic&#45;data/gen&#45;address/ch.address.js&#45;&gt;lib/gen&#45;dinamic&#45;data/gen&#45;random&#45;var/index.js</title>
<path fill="none" stroke="#000000" stroke-width="2" stroke-opacity="0.466667" d="M591.047,-459.5238C598.1507,-457.3969 605.0713,-454.0937 610.3877,-449 635.5349,-424.9062 657.1138,-320.5838 665.1045,-277.6084"/>
<polygon fill="#000000" fill-opacity="0.466667" stroke="#000000" stroke-width="2" stroke-opacity="0.466667" points="668.5682,-278.123 666.914,-267.6581 661.6812,-276.8705 668.5682,-278.123"/>
</g>
<!-- lib/gen&#45;dinamic&#45;data/gen&#45;address/cl.address.js -->
<g id="node9" class="node">
<title>lib/gen&#45;dinamic&#45;data/gen&#45;address/cl.address.js</title>
<g id="a_node9"><a xlink:href="lib/gen-dinamic-data/gen-address/cl.address.js" xlink:title="cl.address.js">
<path fill="#ffffcc" stroke="#000000" d="M583.7225,-384.5C583.7225,-384.5 529.0187,-384.5 529.0187,-384.5 526.1854,-384.5 523.352,-381.6667 523.352,-378.8333 523.352,-378.8333 523.352,-373.1667 523.352,-373.1667 523.352,-370.3333 526.1854,-367.5 529.0187,-367.5 529.0187,-367.5 583.7225,-367.5 583.7225,-367.5 586.5558,-367.5 589.3892,-370.3333 589.3892,-373.1667 589.3892,-373.1667 589.3892,-378.8333 589.3892,-378.8333 589.3892,-381.6667 586.5558,-384.5 583.7225,-384.5"/>
<text text-anchor="middle" x="556.3706" y="-373.3" font-family="Helvetica,sans-Serif" font-size="9.00" fill="#000000">cl.address.js</text>
</a>
</g>
</g>
<!-- lib/gen&#45;dinamic&#45;data/gen&#45;address/cl.address.js&#45;&gt;lib/gen&#45;dinamic&#45;data/gen&#45;random&#45;var/index.js -->
<g id="edge12" class="edge">
<title>lib/gen&#45;dinamic&#45;data/gen&#45;address/cl.address.js&#45;&gt;lib/gen&#45;dinamic&#45;data/gen&#45;random&#45;var/index.js</title>
<path fill="none" stroke="#000000" stroke-width="2" stroke-opacity="0.466667" d="M589.4154,-373.2428C596.8405,-371.4293 604.3108,-368.5462 610.3877,-364 639.4692,-342.2439 655.8531,-301.4065 663.3442,-277.5786"/>
<polygon fill="#000000" fill-opacity="0.466667" stroke="#000000" stroke-width="2" stroke-opacity="0.466667" points="666.7912,-278.2618 666.2492,-267.6808 660.0745,-276.2904 666.7912,-278.2618"/>
</g>
<!-- lib/gen&#45;dinamic&#45;data/gen&#45;address/es.region&#45;names.js -->
<g id="node10" class="node">
<title>lib/gen&#45;dinamic&#45;data/gen&#45;address/es.region&#45;names.js</title>
<g id="a_node10"><a xlink:href="lib/gen-dinamic-data/gen-address/es.region-names.js" xlink:title="es.region&#45;names.js">
<path fill="#ffffcc" stroke="#000000" d="M596.7381,-413.5C596.7381,-413.5 516.0031,-413.5 516.0031,-413.5 513.1698,-413.5 510.3364,-410.6667 510.3364,-407.8333 510.3364,-407.8333 510.3364,-402.1667 510.3364,-402.1667 510.3364,-399.3333 513.1698,-396.5 516.0031,-396.5 516.0031,-396.5 596.7381,-396.5 596.7381,-396.5 599.5715,-396.5 602.4048,-399.3333 602.4048,-402.1667 602.4048,-402.1667 602.4048,-407.8333 602.4048,-407.8333 602.4048,-410.6667 599.5715,-413.5 596.7381,-413.5"/>
<text text-anchor="middle" x="556.3706" y="-402.3" font-family="Helvetica,sans-Serif" font-size="9.00" fill="#000000">es.region&#45;names.js</text>
</a>
</g>
</g>
<!-- lib/gen&#45;dinamic&#45;data/gen&#45;address/es.region&#45;names.js&#45;&gt;lib/gen&#45;dinamic&#45;data/gen&#45;random&#45;var/index.js -->
<g id="edge13" class="edge">
<title>lib/gen&#45;dinamic&#45;data/gen&#45;address/es.region&#45;names.js&#45;&gt;lib/gen&#45;dinamic&#45;data/gen&#45;random&#45;var/index.js</title>
<path fill="none" stroke="#000000" stroke-width="2" stroke-opacity="0.466667" d="M602.1234,-396.4916C605.0844,-394.9496 607.8793,-393.1349 610.3877,-391 645.3923,-361.2076 660.0318,-306.2408 665.5115,-277.5421"/>
<polygon fill="#000000" fill-opacity="0.466667" stroke="#000000" stroke-width="2" stroke-opacity="0.466667" points="668.9715,-278.074 667.2357,-267.6224 662.0749,-276.8753 668.9715,-278.074"/>
</g>
<!-- lib/gen&#45;dinamic&#45;data/gen&#45;address/index.js -->
<g id="node11" class="node">
<title>lib/gen&#45;dinamic&#45;data/gen&#45;address/index.js</title>
<g id="a_node11"><a xlink:href="lib/gen-dinamic-data/gen-address/index.js" xlink:title="index.js">
<path fill="#ffffcc" stroke="#000000" d="M450.1717,-398.5C450.1717,-398.5 407.505,-398.5 407.505,-398.5 404.6717,-398.5 401.8384,-395.6667 401.8384,-392.8333 401.8384,-392.8333 401.8384,-387.1667 401.8384,-387.1667 401.8384,-384.3333 404.6717,-381.5 407.505,-381.5 407.505,-381.5 450.1717,-381.5 450.1717,-381.5 453.005,-381.5 455.8384,-384.3333 455.8384,-387.1667 455.8384,-387.1667 455.8384,-392.8333 455.8384,-392.8333 455.8384,-395.6667 453.005,-398.5 450.1717,-398.5"/>
<text text-anchor="middle" x="428.8384" y="-387.3" font-family="Helvetica,sans-Serif" font-size="9.00" fill="#000000">index.js</text>
</a>
</g>
</g>
<!-- lib/gen&#45;dinamic&#45;data/gen&#45;address/index.js&#45;&gt;lib/gen&#45;dinamic&#45;data/gen&#45;address/br.address.js -->
<g id="edge15" class="edge">
<title>lib/gen&#45;dinamic&#45;data/gen&#45;address/index.js&#45;&gt;lib/gen&#45;dinamic&#45;data/gen&#45;address/br.address.js</title>
<path fill="none" stroke="#000000" stroke-width="2" stroke-opacity="0.466667" d="M456.1461,-389.0432C470.9435,-389.8614 488.7721,-393.1643 501.6069,-403 508.2349,-408.0792 503.2794,-414.5511 509.6069,-420 510.7709,-421.0023 512.0044,-421.9329 513.2919,-422.7968"/>
<polygon fill="#000000" fill-opacity="0.466667" stroke="#000000" stroke-width="2" stroke-opacity="0.466667" points="511.9246,-426.0321 522.4048,-427.5863 515.1812,-419.8358 511.9246,-426.0321"/>
</g>
<!-- lib/gen&#45;dinamic&#45;data/gen&#45;address/index.js&#45;&gt;lib/gen&#45;dinamic&#45;data/gen&#45;address/ch.address.js -->
<g id="edge16" class="edge">
<title>lib/gen&#45;dinamic&#45;data/gen&#45;address/index.js&#45;&gt;lib/gen&#45;dinamic&#45;data/gen&#45;address/ch.address.js</title>
<path fill="none" stroke="#000000" stroke-width="2" stroke-opacity="0.466667" d="M456.1731,-387.761C471.5413,-388.0576 489.9276,-391.2669 501.6069,-403 516.2466,-417.7071 495.8297,-433.4821 509.6069,-449 510.6267,-450.1487 511.7366,-451.2048 512.9185,-452.1759"/>
<polygon fill="#000000" fill-opacity="0.466667" stroke="#000000" stroke-width="2" stroke-opacity="0.466667" points="511.2116,-455.234 521.577,-457.4267 514.8414,-449.2486 511.2116,-455.234"/>
</g>
<!-- lib/gen&#45;dinamic&#45;data/gen&#45;address/index.js&#45;&gt;lib/gen&#45;dinamic&#45;data/gen&#45;address/cl.address.js -->
<g id="edge17" class="edge">
<title>lib/gen&#45;dinamic&#45;data/gen&#45;address/index.js&#45;&gt;lib/gen&#45;dinamic&#45;data/gen&#45;address/cl.address.js</title>
<path fill="none" stroke="#000000" stroke-width="2" stroke-opacity="0.466667" d="M455.8847,-387.031C472.4183,-385.216 493.948,-382.8525 512.8359,-380.7791"/>
<polygon fill="#000000" fill-opacity="0.466667" stroke="#000000" stroke-width="2" stroke-opacity="0.466667" points="513.4505,-384.2327 523.0088,-379.6623 512.6865,-377.2745 513.4505,-384.2327"/>
</g>
<!-- lib/gen&#45;dinamic&#45;data/gen&#45;address/index.js&#45;&gt;lib/gen&#45;dinamic&#45;data/gen&#45;address/es.region&#45;names.js -->
<g id="edge18" class="edge">
<title>lib/gen&#45;dinamic&#45;data/gen&#45;address/index.js&#45;&gt;lib/gen&#45;dinamic&#45;data/gen&#45;address/es.region&#45;names.js</title>
<path fill="none" stroke="#000000" stroke-width="2" stroke-opacity="0.466667" d="M455.8847,-393.1811C468.8401,-394.7049 484.8632,-396.5895 500.2791,-398.4027"/>
<polygon fill="#000000" fill-opacity="0.466667" stroke="#000000" stroke-width="2" stroke-opacity="0.466667" points="499.9431,-401.8872 510.2835,-399.5794 500.7608,-394.9351 499.9431,-401.8872"/>
</g>
<!-- lib/gen&#45;dinamic&#45;data/map&#45;faker.js -->
<g id="node29" class="node">
<title>lib/gen&#45;dinamic&#45;data/map&#45;faker.js</title>
<g id="a_node29"><a xlink:href="lib/gen-dinamic-data/map-faker.js" xlink:title="map&#45;faker.js">
<path fill="#ffffcc" stroke="#000000" d="M583.2249,-350.5C583.2249,-350.5 529.5163,-350.5 529.5163,-350.5 526.6829,-350.5 523.8496,-347.6667 523.8496,-344.8333 523.8496,-344.8333 523.8496,-339.1667 523.8496,-339.1667 523.8496,-336.3333 526.6829,-333.5 529.5163,-333.5 529.5163,-333.5 583.2249,-333.5 583.2249,-333.5 586.0583,-333.5 588.8916,-336.3333 588.8916,-339.1667 588.8916,-339.1667 588.8916,-344.8333 588.8916,-344.8333 588.8916,-347.6667 586.0583,-350.5 583.2249,-350.5"/>
<text text-anchor="middle" x="556.3706" y="-339.3" font-family="Helvetica,sans-Serif" font-size="9.00" fill="#000000">map&#45;faker.js</text>
</a>
</g>
</g>
<!-- lib/gen&#45;dinamic&#45;data/gen&#45;address/index.js&#45;&gt;lib/gen&#45;dinamic&#45;data/map&#45;faker.js -->
<g id="edge14" class="edge">
<title>lib/gen&#45;dinamic&#45;data/gen&#45;address/index.js&#45;&gt;lib/gen&#45;dinamic&#45;data/map&#45;faker.js</title>
<path fill="none" stroke="#000000" stroke-width="2" stroke-opacity="0.466667" d="M456.117,-391.8406C471.0871,-391.4195 489.0939,-388.385 501.6069,-378 509.613,-371.3555 502.0403,-363.1409 509.6069,-356 511.0862,-354.604 512.699,-353.3467 514.4075,-352.2144"/>
<polygon fill="#000000" fill-opacity="0.466667" stroke="#000000" stroke-width="2" stroke-opacity="0.466667" points="516.2592,-355.1987 523.5703,-347.5306 513.0731,-348.9658 516.2592,-355.1987"/>
</g>
<!-- lib/gen&#45;dinamic&#45;data/gen&#45;anagrafica.js -->
<g id="node12" class="node">
<title>lib/gen&#45;dinamic&#45;data/gen&#45;anagrafica.js</title>
<g id="a_node12"><a xlink:href="lib/gen-dinamic-data/gen-anagrafica.js" xlink:title="gen&#45;anagrafica.js">
<path fill="#ffffcc" stroke="#000000" d="M465.7142,-302.5C465.7142,-302.5 391.9626,-302.5 391.9626,-302.5 389.1292,-302.5 386.2959,-299.6667 386.2959,-296.8333 386.2959,-296.8333 386.2959,-291.1667 386.2959,-291.1667 386.2959,-288.3333 389.1292,-285.5 391.9626,-285.5 391.9626,-285.5 465.7142,-285.5 465.7142,-285.5 468.5475,-285.5 471.3809,-288.3333 471.3809,-291.1667 471.3809,-291.1667 471.3809,-296.8333 471.3809,-296.8333 471.3809,-299.6667 468.5475,-302.5 465.7142,-302.5"/>
<text text-anchor="middle" x="428.8384" y="-291.3" font-family="Helvetica,sans-Serif" font-size="9.00" fill="#000000">gen&#45;anagrafica.js</text>
</a>
</g>
</g>
<!-- lib/gen&#45;dinamic&#45;data/gen&#45;anagrafica.js&#45;&gt;lib/data/index.js -->
<g id="edge19" class="edge">
<title>lib/gen&#45;dinamic&#45;data/gen&#45;anagrafica.js&#45;&gt;lib/data/index.js</title>
<path fill="none" stroke="#000000" stroke-width="2" stroke-opacity="0.466667" d="M471.563,-294.7694C482.8233,-292.8003 493.9511,-288.5141 501.6069,-280 515.7725,-264.2464 502.5453,-204.9743 509.6069,-185 516.6499,-165.0782 530.8721,-145.4347 541.7925,-132.233"/>
<polygon fill="#000000" fill-opacity="0.466667" stroke="#000000" stroke-width="2" stroke-opacity="0.466667" points="544.529,-134.4186 548.3834,-124.5497 539.216,-129.861 544.529,-134.4186"/>
</g>
<!-- lib/gen&#45;dinamic&#45;data/gen&#45;birthday.js -->
<g id="node13" class="node">
<title>lib/gen&#45;dinamic&#45;data/gen&#45;birthday.js</title>
<g id="a_node13"><a xlink:href="lib/gen-dinamic-data/gen-birthday.js" xlink:title="gen&#45;birthday.js">
<path fill="#ffffcc" stroke="#000000" d="M588.073,-321.5C588.073,-321.5 524.6682,-321.5 524.6682,-321.5 521.8349,-321.5 519.0015,-318.6667 519.0015,-315.8333 519.0015,-315.8333 519.0015,-310.1667 519.0015,-310.1667 519.0015,-307.3333 521.8349,-304.5 524.6682,-304.5 524.6682,-304.5 588.073,-304.5 588.073,-304.5 590.9064,-304.5 593.7397,-307.3333 593.7397,-310.1667 593.7397,-310.1667 593.7397,-315.8333 593.7397,-315.8333 593.7397,-318.6667 590.9064,-321.5 588.073,-321.5"/>
<text text-anchor="middle" x="556.3706" y="-310.3" font-family="Helvetica,sans-Serif" font-size="9.00" fill="#000000">gen&#45;birthday.js</text>
</a>
</g>
</g>
<!-- lib/gen&#45;dinamic&#45;data/gen&#45;anagrafica.js&#45;&gt;lib/gen&#45;dinamic&#45;data/gen&#45;birthday.js -->
<g id="edge20" class="edge">
<title>lib/gen&#45;dinamic&#45;data/gen&#45;anagrafica.js&#45;&gt;lib/gen&#45;dinamic&#45;data/gen&#45;birthday.js</title>
<path fill="none" stroke="#000000" stroke-width="2" stroke-opacity="0.466667" d="M471.6595,-300.3796C483.6445,-302.1651 496.74,-304.1161 508.9734,-305.9387"/>
<polygon fill="#000000" fill-opacity="0.466667" stroke="#000000" stroke-width="2" stroke-opacity="0.466667" points="508.5967,-309.4211 519.0033,-307.433 509.6283,-302.4975 508.5967,-309.4211"/>
</g>
<!-- lib/gen&#45;dinamic&#45;data/gen&#45;anagrafica.js&#45;&gt;lib/gen&#45;dinamic&#45;data/gen&#45;random&#45;var/index.js -->
<g id="edge21" class="edge">
<title>lib/gen&#45;dinamic&#45;data/gen&#45;anagrafica.js&#45;&gt;lib/gen&#45;dinamic&#45;data/gen&#45;random&#45;var/index.js</title>
<path fill="none" stroke="#000000" stroke-width="2" stroke-opacity="0.466667" d="M471.7154,-292.0038C508.7111,-289.7461 563.4388,-285.1229 610.3877,-276 617.8257,-274.5547 625.6824,-272.5727 633.1302,-270.4717"/>
<polygon fill="#000000" fill-opacity="0.466667" stroke="#000000" stroke-width="2" stroke-opacity="0.466667" points="634.3549,-273.7596 642.9552,-267.5721 632.3734,-267.0459 634.3549,-273.7596"/>
</g>
<!-- lib/gen&#45;dinamic&#45;data/gen&#45;company.js -->
<g id="node14" class="node">
<title>lib/gen&#45;dinamic&#45;data/gen&#45;company.js</title>
<g id="a_node14"><a xlink:href="lib/gen-dinamic-data/gen-company.js" xlink:title="gen&#45;company.js">
<path fill="#ffffcc" stroke="#000000" d="M462.54,-346.5C462.54,-346.5 395.1368,-346.5 395.1368,-346.5 392.3034,-346.5 389.4701,-343.6667 389.4701,-340.8333 389.4701,-340.8333 389.4701,-335.1667 389.4701,-335.1667 389.4701,-332.3333 392.3034,-329.5 395.1368,-329.5 395.1368,-329.5 462.54,-329.5 462.54,-329.5 465.3733,-329.5 468.2067,-332.3333 468.2067,-335.1667 468.2067,-335.1667 468.2067,-340.8333 468.2067,-340.8333 468.2067,-343.6667 465.3733,-346.5 462.54,-346.5"/>
<text text-anchor="middle" x="428.8384" y="-335.3" font-family="Helvetica,sans-Serif" font-size="9.00" fill="#000000">gen&#45;company.js</text>
</a>
</g>
</g>
<!-- lib/gen&#45;dinamic&#45;data/gen&#45;national&#45;id/index.js -->
<g id="node15" class="node">
<title>lib/gen&#45;dinamic&#45;data/gen&#45;national&#45;id/index.js</title>
<g id="a_node15"><a xlink:href="lib/gen-dinamic-data/gen-national-id/index.js" xlink:title="index.js">
<path fill="#ffffcc" stroke="#000000" d="M450.1717,-564.5C450.1717,-564.5 407.505,-564.5 407.505,-564.5 404.6717,-564.5 401.8384,-561.6667 401.8384,-558.8333 401.8384,-558.8333 401.8384,-553.1667 401.8384,-553.1667 401.8384,-550.3333 404.6717,-547.5 407.505,-547.5 407.505,-547.5 450.1717,-547.5 450.1717,-547.5 453.005,-547.5 455.8384,-550.3333 455.8384,-553.1667 455.8384,-553.1667 455.8384,-558.8333 455.8384,-558.8333 455.8384,-561.6667 453.005,-564.5 450.1717,-564.5"/>
<text text-anchor="middle" x="428.8384" y="-553.3" font-family="Helvetica,sans-Serif" font-size="9.00" fill="#000000">index.js</text>
</a>
</g>
</g>
<!-- lib/gen&#45;dinamic&#45;data/gen&#45;national&#45;id/it.national&#45;id/index.js -->
<g id="node18" class="node">
<title>lib/gen&#45;dinamic&#45;data/gen&#45;national&#45;id/it.national&#45;id/index.js</title>
<g id="a_node18"><a xlink:href="lib/gen-dinamic-data/gen-national-id/it.national-id/index.js" xlink:title="index.js">
<path fill="#ffffcc" stroke="#000000" d="M577.7039,-564.5C577.7039,-564.5 535.0373,-564.5 535.0373,-564.5 532.2039,-564.5 529.3706,-561.6667 529.3706,-558.8333 529.3706,-558.8333 529.3706,-553.1667 529.3706,-553.1667 529.3706,-550.3333 532.2039,-547.5 535.0373,-547.5 535.0373,-547.5 577.7039,-547.5 577.7039,-547.5 580.5373,-547.5 583.3706,-550.3333 583.3706,-553.1667 583.3706,-553.1667 583.3706,-558.8333 583.3706,-558.8333 583.3706,-561.6667 580.5373,-564.5 577.7039,-564.5"/>
<text text-anchor="middle" x="556.3706" y="-553.3" font-family="Helvetica,sans-Serif" font-size="9.00" fill="#000000">index.js</text>
</a>
</g>
</g>
<!-- lib/gen&#45;dinamic&#45;data/gen&#45;national&#45;id/index.js&#45;&gt;lib/gen&#45;dinamic&#45;data/gen&#45;national&#45;id/it.national&#45;id/index.js -->
<g id="edge22" class="edge">
<title>lib/gen&#45;dinamic&#45;data/gen&#45;national&#45;id/index.js&#45;&gt;lib/gen&#45;dinamic&#45;data/gen&#45;national&#45;id/it.national&#45;id/index.js</title>
<path fill="none" stroke="#000000" stroke-width="2" stroke-opacity="0.466667" d="M455.8847,-556C474.3148,-556 498.9529,-556 519.2196,-556"/>
<polygon fill="#000000" fill-opacity="0.466667" stroke="#000000" stroke-width="2" stroke-opacity="0.466667" points="519.3633,-559.5001 529.3633,-556 519.3633,-552.5001 519.3633,-559.5001"/>
</g>
<!-- lib/gen&#45;dinamic&#45;data/gen&#45;national&#45;id/static&#45;nat&#45;ids.js -->
<g id="node19" class="node">
<title>lib/gen&#45;dinamic&#45;data/gen&#45;national&#45;id/static&#45;nat&#45;ids.js</title>
<g id="a_node19"><a xlink:href="lib/gen-dinamic-data/gen-national-id/static-nat-ids.js" xlink:title="static&#45;nat&#45;ids.js">
<path fill="#ffffcc" stroke="#000000" d="M588.7201,-615.5C588.7201,-615.5 524.0212,-615.5 524.0212,-615.5 521.1878,-615.5 518.3545,-612.6667 518.3545,-609.8333 518.3545,-609.8333 518.3545,-604.1667 518.3545,-604.1667 518.3545,-601.3333 521.1878,-598.5 524.0212,-598.5 524.0212,-598.5 588.7201,-598.5 588.7201,-598.5 591.5534,-598.5 594.3867,-601.3333 594.3867,-604.1667 594.3867,-604.1667 594.3867,-609.8333 594.3867,-609.8333 594.3867,-612.6667 591.5534,-615.5 588.7201,-615.5"/>
<text text-anchor="middle" x="556.3706" y="-604.3" font-family="Helvetica,sans-Serif" font-size="9.00" fill="#000000">static&#45;nat&#45;ids.js</text>
</a>
</g>
</g>
<!-- lib/gen&#45;dinamic&#45;data/gen&#45;national&#45;id/index.js&#45;&gt;lib/gen&#45;dinamic&#45;data/gen&#45;national&#45;id/static&#45;nat&#45;ids.js -->
<g id="edge23" class="edge">
<title>lib/gen&#45;dinamic&#45;data/gen&#45;national&#45;id/index.js&#45;&gt;lib/gen&#45;dinamic&#45;data/gen&#45;national&#45;id/static&#45;nat&#45;ids.js</title>
<path fill="none" stroke="#000000" stroke-width="2" stroke-opacity="0.466667" d="M445.8757,-564.6442C462.0235,-572.6346 487.0904,-584.5189 509.6069,-593 511.6689,-593.7767 513.7945,-594.54 515.9493,-595.2847"/>
<polygon fill="#000000" fill-opacity="0.466667" stroke="#000000" stroke-width="2" stroke-opacity="0.466667" points="514.8862,-598.6194 525.479,-598.4137 517.0699,-591.9687 514.8862,-598.6194"/>
</g>
<!-- lib/gen&#45;dinamic&#45;data/gen&#45;national&#45;id/it.national&#45;id/CodiceFiscale.js -->
<g id="node16" class="node">
<title>lib/gen&#45;dinamic&#45;data/gen&#45;national&#45;id/it.national&#45;id/CodiceFiscale.js</title>
<g id="a_node16"><a xlink:href="lib/gen-dinamic-data/gen-national-id/it.national-id/CodiceFiscale.js" xlink:title="CodiceFiscale.js">
<path fill="#ffffcc" stroke="#000000" d="M703.2654,-564.5C703.2654,-564.5 633.551,-564.5 633.551,-564.5 630.7177,-564.5 627.8844,-561.6667 627.8844,-558.8333 627.8844,-558.8333 627.8844,-553.1667 627.8844,-553.1667 627.8844,-550.3333 630.7177,-547.5 633.551,-547.5 633.551,-547.5 703.2654,-547.5 703.2654,-547.5 706.0987,-547.5 708.9321,-550.3333 708.9321,-553.1667 708.9321,-553.1667 708.9321,-558.8333 708.9321,-558.8333 708.9321,-561.6667 706.0987,-564.5 703.2654,-564.5"/>
<text text-anchor="middle" x="668.4082" y="-553.3" font-family="Helvetica,sans-Serif" font-size="9.00" fill="#000000">CodiceFiscale.js</text>
</a>
</g>
</g>
<!-- lib/gen&#45;dinamic&#45;data/gen&#45;national&#45;id/it.national&#45;id/constants.js -->
<g id="node17" class="node">
<title>lib/gen&#45;dinamic&#45;data/gen&#45;national&#45;id/it.national&#45;id/constants.js</title>
<g id="a_node17"><a xlink:href="lib/gen-dinamic-data/gen-national-id/it.national-id/constants.js" xlink:title="constants.js">
<path fill="#ffffcc" stroke="#000000" d="M822.057,-564.5C822.057,-564.5 770.3419,-564.5 770.3419,-564.5 767.5086,-564.5 764.6752,-561.6667 764.6752,-558.8333 764.6752,-558.8333 764.6752,-553.1667 764.6752,-553.1667 764.6752,-550.3333 767.5086,-547.5 770.3419,-547.5 770.3419,-547.5 822.057,-547.5 822.057,-547.5 824.8904,-547.5 827.7237,-550.3333 827.7237,-553.1667 827.7237,-553.1667 827.7237,-558.8333 827.7237,-558.8333 827.7237,-561.6667 824.8904,-564.5 822.057,-564.5"/>
<text text-anchor="middle" x="796.1995" y="-553.3" font-family="Helvetica,sans-Serif" font-size="9.00" fill="#000000">constants.js</text>
</a>
</g>
</g>
<!-- lib/gen&#45;dinamic&#45;data/gen&#45;national&#45;id/it.national&#45;id/CodiceFiscale.js&#45;&gt;lib/gen&#45;dinamic&#45;data/gen&#45;national&#45;id/it.national&#45;id/constants.js -->
<g id="edge24" class="edge">
<title>lib/gen&#45;dinamic&#45;data/gen&#45;national&#45;id/it.national&#45;id/CodiceFiscale.js&#45;&gt;lib/gen&#45;dinamic&#45;data/gen&#45;national&#45;id/it.national&#45;id/constants.js</title>
<path fill="none" stroke="#000000" stroke-width="2" stroke-opacity="0.466667" d="M709.1935,-556C723.5354,-556 739.6726,-556 754.1191,-556"/>
<polygon fill="#000000" fill-opacity="0.466667" stroke="#000000" stroke-width="2" stroke-opacity="0.466667" points="754.2897,-559.5001 764.2897,-556 754.2897,-552.5001 754.2897,-559.5001"/>
</g>
<!-- lib/gen&#45;dinamic&#45;data/gen&#45;national&#45;id/it.national&#45;id/index.js&#45;&gt;lib/gen&#45;dinamic&#45;data/gen&#45;national&#45;id/it.national&#45;id/CodiceFiscale.js -->
<g id="edge25" class="edge">
<title>lib/gen&#45;dinamic&#45;data/gen&#45;national&#45;id/it.national&#45;id/index.js&#45;&gt;lib/gen&#45;dinamic&#45;data/gen&#45;national&#45;id/it.national&#45;id/CodiceFiscale.js</title>
<path fill="none" stroke="#000000" stroke-width="2" stroke-opacity="0.466667" d="M583.4918,-556C593.7099,-556 605.6945,-556 617.3864,-556"/>
<polygon fill="#000000" fill-opacity="0.466667" stroke="#000000" stroke-width="2" stroke-opacity="0.466667" points="617.5341,-559.5001 627.5341,-556 617.534,-552.5001 617.5341,-559.5001"/>
</g>
<!-- lib/gen&#45;dinamic&#45;data/gen&#45;phone&#45;number.js -->
<g id="node20" class="node">
<title>lib/gen&#45;dinamic&#45;data/gen&#45;phone&#45;number.js</title>
<g id="a_node20"><a xlink:href="lib/gen-dinamic-data/gen-phone-number.js" xlink:title="gen&#45;phone&#45;number.js">
<path fill="#ffffcc" stroke="#000000" d="M473.7323,-273.5C473.7323,-273.5 383.9445,-273.5 383.9445,-273.5 381.1111,-273.5 378.2778,-270.6667 378.2778,-267.8333 378.2778,-267.8333 378.2778,-262.1667 378.2778,-262.1667 378.2778,-259.3333 381.1111,-256.5 383.9445,-256.5 383.9445,-256.5 473.7323,-256.5 473.7323,-256.5 476.5656,-256.5 479.3989,-259.3333 479.3989,-262.1667 479.3989,-262.1667 479.3989,-267.8333 479.3989,-267.8333 479.3989,-270.6667 476.5656,-273.5 473.7323,-273.5"/>
<text text-anchor="middle" x="428.8384" y="-262.3" font-family="Helvetica,sans-Serif" font-size="9.00" fill="#000000">gen&#45;phone&#45;number.js</text>
</a>
</g>
</g>
<!-- lib/gen&#45;dinamic&#45;data/gen&#45;phone&#45;number.js&#45;&gt;lib/data/index.js -->
<g id="edge26" class="edge">
<title>lib/gen&#45;dinamic&#45;data/gen&#45;phone&#45;number.js&#45;&gt;lib/data/index.js</title>
<path fill="none" stroke="#000000" stroke-width="2" stroke-opacity="0.466667" d="M436.4342,-256.1256C457.2167,-231.8447 515.2581,-164.0331 542.2434,-132.5052"/>
<polygon fill="#000000" fill-opacity="0.466667" stroke="#000000" stroke-width="2" stroke-opacity="0.466667" points="545.1308,-134.5143 548.9744,-124.6413 539.8128,-129.9625 545.1308,-134.5143"/>
</g>
<!-- lib/gen&#45;dinamic&#45;data/gen&#45;phone&#45;number.js&#45;&gt;lib/gen&#45;dinamic&#45;data/gen&#45;random&#45;var/index.js -->
<g id="edge27" class="edge">
<title>lib/gen&#45;dinamic&#45;data/gen&#45;phone&#45;number.js&#45;&gt;lib/gen&#45;dinamic&#45;data/gen&#45;random&#45;var/index.js</title>
<path fill="none" stroke="#000000" stroke-width="2" stroke-opacity="0.466667" d="M479.4411,-270.3163C515.9291,-273.2627 566.3095,-275.5105 610.3877,-271 617.1941,-270.3035 624.3805,-269.1588 631.2899,-267.8459"/>
<polygon fill="#000000" fill-opacity="0.466667" stroke="#000000" stroke-width="2" stroke-opacity="0.466667" points="632.0409,-271.2648 641.1383,-265.8345 630.6401,-264.4064 632.0409,-271.2648"/>
</g>
<!-- lib/gen&#45;dinamic&#45;data/gen&#45;random&#45;var/__tests/gen.spec.js -->
<g id="node21" class="node">
<title>lib/gen&#45;dinamic&#45;data/gen&#45;random&#45;var/__tests/gen.spec.js</title>
<g id="a_node21"><a xlink:href="lib/gen-dinamic-data/gen-random-var/__tests/gen.spec.js" xlink:title="gen.spec.js">
<path fill="#ffffcc" stroke="#000000" d="M581.2331,-242.5C581.2331,-242.5 531.5081,-242.5 531.5081,-242.5 528.6748,-242.5 525.8415,-239.6667 525.8415,-236.8333 525.8415,-236.8333 525.8415,-231.1667 525.8415,-231.1667 525.8415,-228.3333 528.6748,-225.5 531.5081,-225.5 531.5081,-225.5 581.2331,-225.5 581.2331,-225.5 584.0664,-225.5 586.8998,-228.3333 586.8998,-231.1667 586.8998,-231.1667 586.8998,-236.8333 586.8998,-236.8333 586.8998,-239.6667 584.0664,-242.5 581.2331,-242.5"/>
<text text-anchor="middle" x="556.3706" y="-231.3" font-family="Helvetica,sans-Serif" font-size="9.00" fill="#000000">gen.spec.js</text>
</a>
</g>
</g>
<!-- lib/gen&#45;dinamic&#45;data/gen&#45;random&#45;var/__tests/gen.spec.js&#45;&gt;lib/gen&#45;dinamic&#45;data/gen&#45;random&#45;var/index.js -->
<g id="edge28" class="edge">
<title>lib/gen&#45;dinamic&#45;data/gen&#45;random&#45;var/__tests/gen.spec.js&#45;&gt;lib/gen&#45;dinamic&#45;data/gen&#45;random&#45;var/index.js</title>
<path fill="none" stroke="#000000" stroke-width="2" stroke-opacity="0.466667" d="M586.9854,-240.8314C600.6448,-243.8793 616.8609,-247.4978 631.2121,-250.7001"/>
<polygon fill="#000000" fill-opacity="0.466667" stroke="#000000" stroke-width="2" stroke-opacity="0.466667" points="630.7469,-254.1823 641.2692,-252.9442 632.2715,-247.3503 630.7469,-254.1823"/>
</g>
<!-- lib/gen&#45;dinamic&#45;data/gen&#45;random&#45;var/__tests/get.spec.js -->
<g id="node22" class="node">
<title>lib/gen&#45;dinamic&#45;data/gen&#45;random&#45;var/__tests/get.spec.js</title>
<g id="a_node22"><a xlink:href="lib/gen-dinamic-data/gen-random-var/__tests/get.spec.js" xlink:title="get.spec.js">
<path fill="#ffffcc" stroke="#000000" d="M580.2264,-213.5C580.2264,-213.5 532.5148,-213.5 532.5148,-213.5 529.6815,-213.5 526.8481,-210.6667 526.8481,-207.8333 526.8481,-207.8333 526.8481,-202.1667 526.8481,-202.1667 526.8481,-199.3333 529.6815,-196.5 532.5148,-196.5 532.5148,-196.5 580.2264,-196.5 580.2264,-196.5 583.0597,-196.5 585.8931,-199.3333 585.8931,-202.1667 585.8931,-202.1667 585.8931,-207.8333 585.8931,-207.8333 585.8931,-210.6667 583.0597,-213.5 580.2264,-213.5"/>
<text text-anchor="middle" x="556.3706" y="-202.3" font-family="Helvetica,sans-Serif" font-size="9.00" fill="#000000">get.spec.js</text>
</a>
</g>
</g>
<!-- lib/gen&#45;dinamic&#45;data/gen&#45;random&#45;var/__tests/get.spec.js&#45;&gt;lib/gen&#45;dinamic&#45;data/gen&#45;random&#45;var/index.js -->
<g id="edge29" class="edge">
<title>lib/gen&#45;dinamic&#45;data/gen&#45;random&#45;var/__tests/get.spec.js&#45;&gt;lib/gen&#45;dinamic&#45;data/gen&#45;random&#45;var/index.js</title>
<path fill="none" stroke="#000000" stroke-width="2" stroke-opacity="0.466667" d="M586.1363,-211.4294C594.1931,-213.6595 602.7841,-216.5005 610.3877,-220 624.4813,-226.4864 638.9664,-236.219 649.9381,-244.3386"/>
<polygon fill="#000000" fill-opacity="0.466667" stroke="#000000" stroke-width="2" stroke-opacity="0.466667" points="647.8338,-247.1355 657.9094,-250.4118 652.0761,-241.5674 647.8338,-247.1355"/>
</g>
<!-- lib/gen&#45;dinamic&#45;data/gen&#45;random&#45;var/gen&#45;random&#45;number.js -->
<g id="node23" class="node">
<title>lib/gen&#45;dinamic&#45;data/gen&#45;random&#45;var/gen&#45;random&#45;number.js</title>
<g id="a_node23"><a xlink:href="lib/gen-dinamic-data/gen-random-var/gen-random-number.js" xlink:title="gen&#45;random&#45;number.js">
<path fill="#ffffcc" stroke="#000000" d="M843.5831,-267.5C843.5831,-267.5 748.8159,-267.5 748.8159,-267.5 745.9825,-267.5 743.1492,-264.6667 743.1492,-261.8333 743.1492,-261.8333 743.1492,-256.1667 743.1492,-256.1667 743.1492,-253.3333 745.9825,-250.5 748.8159,-250.5 748.8159,-250.5 843.5831,-250.5 843.5831,-250.5 846.4164,-250.5 849.2497,-253.3333 849.2497,-256.1667 849.2497,-256.1667 849.2497,-261.8333 849.2497,-261.8333 849.2497,-264.6667 846.4164,-267.5 843.5831,-267.5"/>
<text text-anchor="middle" x="796.1995" y="-256.3" font-family="Helvetica,sans-Serif" font-size="9.00" fill="#000000">gen&#45;random&#45;number.js</text>
</a>
</g>
</g>
<!-- lib/gen&#45;dinamic&#45;data/gen&#45;random&#45;var/gen&#45;random&#45;string.js -->
<g id="node24" class="node">
<title>lib/gen&#45;dinamic&#45;data/gen&#45;random&#45;var/gen&#45;random&#45;string.js</title>
<g id="a_node24"><a xlink:href="lib/gen-dinamic-data/gen-random-var/gen-random-string.js" xlink:title="gen&#45;random&#45;string.js">
<path fill="#ffffcc" stroke="#000000" d="M839.5676,-209.5C839.5676,-209.5 752.8313,-209.5 752.8313,-209.5 749.998,-209.5 747.1647,-206.6667 747.1647,-203.8333 747.1647,-203.8333 747.1647,-198.1667 747.1647,-198.1667 747.1647,-195.3333 749.998,-192.5 752.8313,-192.5 752.8313,-192.5 839.5676,-192.5 839.5676,-192.5 842.4009,-192.5 845.2343,-195.3333 845.2343,-198.1667 845.2343,-198.1667 845.2343,-203.8333 845.2343,-203.8333 845.2343,-206.6667 842.4009,-209.5 839.5676,-209.5"/>
<text text-anchor="middle" x="796.1995" y="-198.3" font-family="Helvetica,sans-Serif" font-size="9.00" fill="#000000">gen&#45;random&#45;string.js</text>
</a>
</g>
</g>
<!-- lib/gen&#45;dinamic&#45;data/gen&#45;random&#45;var/get&#45;random&#45;array&#45;element.js -->
<g id="node25" class="node">
<title>lib/gen&#45;dinamic&#45;data/gen&#45;random&#45;var/get&#45;random&#45;array&#45;element.js</title>
<g id="a_node25"><a xlink:href="lib/gen-dinamic-data/gen-random-var/get-random-array-element.js" xlink:title="get&#45;random&#45;array&#45;element.js">
<path fill="#ffffcc" stroke="#000000" d="M855.0751,-238.5C855.0751,-238.5 737.3238,-238.5 737.3238,-238.5 734.4905,-238.5 731.6572,-235.6667 731.6572,-232.8333 731.6572,-232.8333 731.6572,-227.1667 731.6572,-227.1667 731.6572,-224.3333 734.4905,-221.5 737.3238,-221.5 737.3238,-221.5 855.0751,-221.5 855.0751,-221.5 857.9084,-221.5 860.7418,-224.3333 860.7418,-227.1667 860.7418,-227.1667 860.7418,-232.8333 860.7418,-232.8333 860.7418,-235.6667 857.9084,-238.5 855.0751,-238.5"/>
<text text-anchor="middle" x="796.1995" y="-227.3" font-family="Helvetica,sans-Serif" font-size="9.00" fill="#000000">get&#45;random&#45;array&#45;element.js</text>
</a>
</g>
</g>
<!-- lib/gen&#45;dinamic&#45;data/gen&#45;random&#45;var/index.js&#45;&gt;lib/gen&#45;dinamic&#45;data/gen&#45;random&#45;var/gen&#45;random&#45;number.js -->
<g id="edge30" class="edge">
<title>lib/gen&#45;dinamic&#45;data/gen&#45;random&#45;var/index.js&#45;&gt;lib/gen&#45;dinamic&#45;data/gen&#45;random&#45;var/gen&#45;random&#45;number.js</title>
<path fill="none" stroke="#000000" stroke-width="2" stroke-opacity="0.466667" d="M695.5094,-259C706.5439,-259 719.7993,-259 733.0141,-259"/>
<polygon fill="#000000" fill-opacity="0.466667" stroke="#000000" stroke-width="2" stroke-opacity="0.466667" points="733.0743,-262.5001 743.0742,-259 733.0742,-255.5001 733.0743,-262.5001"/>
</g>
<!-- lib/gen&#45;dinamic&#45;data/gen&#45;random&#45;var/index.js&#45;&gt;lib/gen&#45;dinamic&#45;data/gen&#45;random&#45;var/gen&#45;random&#45;string.js -->
<g id="edge31" class="edge">
<title>lib/gen&#45;dinamic&#45;data/gen&#45;random&#45;var/index.js&#45;&gt;lib/gen&#45;dinamic&#45;data/gen&#45;random&#45;var/gen&#45;random&#45;string.js</title>
<path fill="none" stroke="#000000" stroke-width="2" stroke-opacity="0.466667" d="M678.4044,-250.4173C690.277,-240.661 711.0491,-224.9345 731.4287,-216 734.245,-214.7654 737.1765,-213.6252 740.1688,-212.5733"/>
<polygon fill="#000000" fill-opacity="0.466667" stroke="#000000" stroke-width="2" stroke-opacity="0.466667" points="741.3869,-215.859 749.866,-209.5063 739.276,-209.1849 741.3869,-215.859"/>
</g>
<!-- lib/gen&#45;dinamic&#45;data/gen&#45;random&#45;var/index.js&#45;&gt;lib/gen&#45;dinamic&#45;data/gen&#45;random&#45;var/get&#45;random&#45;array&#45;element.js -->
<g id="edge32" class="edge">
<title>lib/gen&#45;dinamic&#45;data/gen&#45;random&#45;var/index.js&#45;&gt;lib/gen&#45;dinamic&#45;data/gen&#45;random&#45;var/get&#45;random&#45;array&#45;element.js</title>
<path fill="none" stroke="#000000" stroke-width="2" stroke-opacity="0.466667" d="M695.5094,-252.8498C710.8923,-249.359 730.5914,-244.8886 748.4798,-240.8291"/>
<polygon fill="#000000" fill-opacity="0.466667" stroke="#000000" stroke-width="2" stroke-opacity="0.466667" points="749.4962,-244.1876 758.4736,-238.5612 747.947,-237.3611 749.4962,-244.1876"/>
</g>
<!-- lib/gen&#45;dinamic&#45;data/gen&#45;vat.js -->
<g id="node27" class="node">
<title>lib/gen&#45;dinamic&#45;data/gen&#45;vat.js</title>
<g id="a_node27"><a xlink:href="lib/gen-dinamic-data/gen-vat.js" xlink:title="gen&#45;vat.js">
<path fill="#ffffcc" stroke="#000000" d="M450.6908,-522.5C450.6908,-522.5 406.986,-522.5 406.986,-522.5 404.1527,-522.5 401.3193,-519.6667 401.3193,-516.8333 401.3193,-516.8333 401.3193,-511.1667 401.3193,-511.1667 401.3193,-508.3333 404.1527,-505.5 406.986,-505.5 406.986,-505.5 450.6908,-505.5 450.6908,-505.5 453.5241,-505.5 456.3574,-508.3333 456.3574,-511.1667 456.3574,-511.1667 456.3574,-516.8333 456.3574,-516.8333 456.3574,-519.6667 453.5241,-522.5 450.6908,-522.5"/>
<text text-anchor="middle" x="428.8384" y="-511.3" font-family="Helvetica,sans-Serif" font-size="9.00" fill="#000000">gen&#45;vat.js</text>
</a>
</g>
</g>
<!-- lib/gen&#45;dinamic&#45;data/gen&#45;vat.js&#45;&gt;lib/gen&#45;dinamic&#45;data/gen&#45;random&#45;var/index.js -->
<g id="edge33" class="edge">
<title>lib/gen&#45;dinamic&#45;data/gen&#45;vat.js&#45;&gt;lib/gen&#45;dinamic&#45;data/gen&#45;random&#45;var/index.js</title>
<path fill="none" stroke="#000000" stroke-width="2" stroke-opacity="0.466667" d="M456.5425,-520.9235C495.7181,-528.9235 567.3184,-536.7024 610.3877,-500 644.5705,-470.8704 661.5817,-329.046 666.6996,-277.6477"/>
<polygon fill="#000000" fill-opacity="0.466667" stroke="#000000" stroke-width="2" stroke-opacity="0.466667" points="670.1901,-277.9135 667.6591,-267.6255 663.222,-277.2464 670.1901,-277.9135"/>
</g>
<!-- lib/gen&#45;dinamic&#45;data/index.js -->
<g id="node28" class="node">
<title>lib/gen&#45;dinamic&#45;data/index.js</title>
<g id="a_node28"><a xlink:href="lib/gen-dinamic-data/index.js" xlink:title="index.js">
<path fill="#ffffcc" stroke="#000000" d="M331.6456,-335.5C331.6456,-335.5 288.9789,-335.5 288.9789,-335.5 286.1456,-335.5 283.3123,-332.6667 283.3123,-329.8333 283.3123,-329.8333 283.3123,-324.1667 283.3123,-324.1667 283.3123,-321.3333 286.1456,-318.5 288.9789,-318.5 288.9789,-318.5 331.6456,-318.5 331.6456,-318.5 334.4789,-318.5 337.3123,-321.3333 337.3123,-324.1667 337.3123,-324.1667 337.3123,-329.8333 337.3123,-329.8333 337.3123,-332.6667 334.4789,-335.5 331.6456,-335.5"/>
<text text-anchor="middle" x="310.3123" y="-324.3" font-family="Helvetica,sans-Serif" font-size="9.00" fill="#000000">index.js</text>
</a>
</g>
</g>
<!-- lib/gen&#45;dinamic&#45;data/index.js&#45;&gt;lib/gen&#45;dinamic&#45;data/gen&#45;address/index.js -->
<g id="edge34" class="edge">
<title>lib/gen&#45;dinamic&#45;data/index.js&#45;&gt;lib/gen&#45;dinamic&#45;data/gen&#45;address/index.js</title>
<path fill="none" stroke="#000000" stroke-width="2" stroke-opacity="0.466667" d="M316.8698,-335.8177C326.0516,-347.4713 343.8948,-367.7228 364.0698,-378 372.5259,-382.3075 382.3056,-385.0834 391.6621,-386.8679"/>
<polygon fill="#000000" fill-opacity="0.466667" stroke="#000000" stroke-width="2" stroke-opacity="0.466667" points="391.1411,-390.3289 401.5663,-388.4408 392.239,-383.4156 391.1411,-390.3289"/>
</g>
<!-- lib/gen&#45;dinamic&#45;data/index.js&#45;&gt;lib/gen&#45;dinamic&#45;data/gen&#45;anagrafica.js -->
<g id="edge35" class="edge">
<title>lib/gen&#45;dinamic&#45;data/index.js&#45;&gt;lib/gen&#45;dinamic&#45;data/gen&#45;anagrafica.js</title>
<path fill="none" stroke="#000000" stroke-width="2" stroke-opacity="0.466667" d="M337.3828,-319.4406C345.9207,-317.058 355.389,-314.4174 364.0698,-312 371.9829,-309.7964 380.4406,-307.4439 388.5453,-305.191"/>
<polygon fill="#000000" fill-opacity="0.466667" stroke="#000000" stroke-width="2" stroke-opacity="0.466667" points="389.4982,-308.5589 398.1958,-302.5089 387.6238,-301.8145 389.4982,-308.5589"/>
</g>
<!-- lib/gen&#45;dinamic&#45;data/index.js&#45;&gt;lib/gen&#45;dinamic&#45;data/gen&#45;birthday.js -->
<g id="edge36" class="edge">
<title>lib/gen&#45;dinamic&#45;data/index.js&#45;&gt;lib/gen&#45;dinamic&#45;data/gen&#45;birthday.js</title>
<path fill="none" stroke="#000000" stroke-width="2" stroke-opacity="0.466667" d="M337.5849,-325.4483C378.9074,-323.0971 457.9474,-318.6 508.856,-315.7034"/>
<polygon fill="#000000" fill-opacity="0.466667" stroke="#000000" stroke-width="2" stroke-opacity="0.466667" points="509.1707,-319.1913 518.9557,-315.1288 508.773,-312.2026 509.1707,-319.1913"/>
</g>
<!-- lib/gen&#45;dinamic&#45;data/index.js&#45;&gt;lib/gen&#45;dinamic&#45;data/gen&#45;company.js -->
<g id="edge37" class="edge">
<title>lib/gen&#45;dinamic&#45;data/index.js&#45;&gt;lib/gen&#45;dinamic&#45;data/gen&#45;company.js</title>
<path fill="none" stroke="#000000" stroke-width="2" stroke-opacity="0.466667" d="M337.5045,-329.5236C349.8238,-330.6669 364.789,-332.0558 379.0102,-333.3756"/>
<polygon fill="#000000" fill-opacity="0.466667" stroke="#000000" stroke-width="2" stroke-opacity="0.466667" points="378.9048,-336.8808 389.1855,-334.32 379.5518,-329.9107 378.9048,-336.8808"/>
</g>
<!-- lib/gen&#45;dinamic&#45;data/index.js&#45;&gt;lib/gen&#45;dinamic&#45;data/gen&#45;national&#45;id/index.js -->
<g id="edge38" class="edge">
<title>lib/gen&#45;dinamic&#45;data/index.js&#45;&gt;lib/gen&#45;dinamic&#45;data/gen&#45;national&#45;id/index.js</title>
<path fill="none" stroke="#000000" stroke-width="2" stroke-opacity="0.466667" d="M311.2457,-335.9031C315.3138,-372.966 332.7116,-514.4585 364.0698,-544 371.4215,-550.9258 381.4097,-554.5011 391.3401,-556.2134"/>
<polygon fill="#000000" fill-opacity="0.466667" stroke="#000000" stroke-width="2" stroke-opacity="0.466667" points="391.2209,-559.7226 401.5548,-557.3857 392.0191,-552.7683 391.2209,-559.7226"/>
</g>
<!-- lib/gen&#45;dinamic&#45;data/index.js&#45;&gt;lib/gen&#45;dinamic&#45;data/gen&#45;phone&#45;number.js -->
<g id="edge39" class="edge">
<title>lib/gen&#45;dinamic&#45;data/index.js&#45;&gt;lib/gen&#45;dinamic&#45;data/gen&#45;phone&#45;number.js</title>
<path fill="none" stroke="#000000" stroke-width="2" stroke-opacity="0.466667" d="M317.7466,-318.2775C327.3461,-307.5913 345.0883,-289.7139 364.0698,-280 366.1938,-278.913 368.3971,-277.9038 370.6531,-276.9668"/>
<polygon fill="#000000" fill-opacity="0.466667" stroke="#000000" stroke-width="2" stroke-opacity="0.466667" points="371.9558,-280.2174 380.1555,-273.508 369.5615,-273.6396 371.9558,-280.2174"/>
</g>
<!-- lib/gen&#45;dinamic&#45;data/index.js&#45;&gt;lib/gen&#45;dinamic&#45;data/gen&#45;vat.js -->
<g id="edge40" class="edge">
<title>lib/gen&#45;dinamic&#45;data/index.js&#45;&gt;lib/gen&#45;dinamic&#45;data/gen&#45;vat.js</title>
<path fill="none" stroke="#000000" stroke-width="2" stroke-opacity="0.466667" d="M311.8425,-335.7739C317.5796,-367.676 338.7814,-476.8537 364.0698,-500 371.4389,-506.7448 381.2609,-510.5248 391.0239,-512.5751"/>
<polygon fill="#000000" fill-opacity="0.466667" stroke="#000000" stroke-width="2" stroke-opacity="0.466667" points="390.6523,-516.0593 401.0714,-514.1375 391.728,-509.1425 390.6523,-516.0593"/>
</g>
<!-- lib/get&#45;static&#45;data/get&#45;static&#45;national&#45;id.js -->
<g id="node30" class="node">
<title>lib/get&#45;static&#45;data/get&#45;static&#45;national&#45;id.js</title>
<g id="a_node30"><a xlink:href="lib/get-static-data/get-static-national-id.js" xlink:title="get&#45;static&#45;national&#45;id.js">
<path fill="#ffffcc" stroke="#000000" d="M476.2113,-786.5C476.2113,-786.5 381.4655,-786.5 381.4655,-786.5 378.6322,-786.5 375.7988,-783.6667 375.7988,-780.8333 375.7988,-780.8333 375.7988,-775.1667 375.7988,-775.1667 375.7988,-772.3333 378.6322,-769.5 381.4655,-769.5 381.4655,-769.5 476.2113,-769.5 476.2113,-769.5 479.0446,-769.5 481.8779,-772.3333 481.8779,-775.1667 481.8779,-775.1667 481.8779,-780.8333 481.8779,-780.8333 481.8779,-783.6667 479.0446,-786.5 476.2113,-786.5"/>
<text text-anchor="middle" x="428.8384" y="-775.3" font-family="Helvetica,sans-Serif" font-size="9.00" fill="#000000">get&#45;static&#45;national&#45;id.js</text>
</a>
</g>
</g>
<!-- lib/get&#45;static&#45;data/get&#45;static&#45;profile&#45;merchant.js -->
<g id="node31" class="node">
<title>lib/get&#45;static&#45;data/get&#45;static&#45;profile&#45;merchant.js</title>
<g id="a_node31"><a xlink:href="lib/get-static-data/get-static-profile-merchant.js" xlink:title="get&#45;static&#45;profile&#45;merchant.js">
<path fill="#ffffcc" stroke="#000000" d="M487.7096,-699.5C487.7096,-699.5 369.9671,-699.5 369.9671,-699.5 367.1338,-699.5 364.3004,-696.6667 364.3004,-693.8333 364.3004,-693.8333 364.3004,-688.1667 364.3004,-688.1667 364.3004,-685.3333 367.1338,-682.5 369.9671,-682.5 369.9671,-682.5 487.7096,-682.5 487.7096,-682.5 490.543,-682.5 493.3763,-685.3333 493.3763,-688.1667 493.3763,-688.1667 493.3763,-693.8333 493.3763,-693.8333 493.3763,-696.6667 490.543,-699.5 487.7096,-699.5"/>
<text text-anchor="middle" x="428.8384" y="-688.3" font-family="Helvetica,sans-Serif" font-size="9.00" fill="#000000">get&#45;static&#45;profile&#45;merchant.js</text>
</a>
</g>
</g>
<!-- lib/get&#45;static&#45;data/get&#45;static&#45;profile&#45;personal.js -->
<g id="node32" class="node">
<title>lib/get&#45;static&#45;data/get&#45;static&#45;profile&#45;personal.js</title>
<g id="a_node32"><a xlink:href="lib/get-static-data/get-static-profile-personal.js" xlink:title="get&#45;static&#45;profile&#45;personal.js">
<path fill="#ffffcc" stroke="#000000" d="M486.217,-728.5C486.217,-728.5 371.4598,-728.5 371.4598,-728.5 368.6265,-728.5 365.7931,-725.6667 365.7931,-722.8333 365.7931,-722.8333 365.7931,-717.1667 365.7931,-717.1667 365.7931,-714.3333 368.6265,-711.5 371.4598,-711.5 371.4598,-711.5 486.217,-711.5 486.217,-711.5 489.0503,-711.5 491.8836,-714.3333 491.8836,-717.1667 491.8836,-717.1667 491.8836,-722.8333 491.8836,-722.8333 491.8836,-725.6667 489.0503,-728.5 486.217,-728.5"/>
<text text-anchor="middle" x="428.8384" y="-717.3" font-family="Helvetica,sans-Serif" font-size="9.00" fill="#000000">get&#45;static&#45;profile&#45;personal.js</text>
</a>
</g>
</g>
<!-- lib/get&#45;static&#45;data/get&#45;static&#45;vat&#45;id.js -->
<g id="node33" class="node">
<title>lib/get&#45;static&#45;data/get&#45;static&#45;vat&#45;id.js</title>
<g id="a_node33"><a xlink:href="lib/get-static-data/get-static-vat-id.js" xlink:title="get&#45;static&#45;vat&#45;id.js">
<path fill="#ffffcc" stroke="#000000" d="M466.1921,-757.5C466.1921,-757.5 391.4847,-757.5 391.4847,-757.5 388.6513,-757.5 385.818,-754.6667 385.818,-751.8333 385.818,-751.8333 385.818,-746.1667 385.818,-746.1667 385.818,-743.3333 388.6513,-740.5 391.4847,-740.5 391.4847,-740.5 466.1921,-740.5 466.1921,-740.5 469.0254,-740.5 471.8588,-743.3333 471.8588,-746.1667 471.8588,-746.1667 471.8588,-751.8333 471.8588,-751.8333 471.8588,-754.6667 469.0254,-757.5 466.1921,-757.5"/>
<text text-anchor="middle" x="428.8384" y="-746.3" font-family="Helvetica,sans-Serif" font-size="9.00" fill="#000000">get&#45;static&#45;vat&#45;id.js</text>
</a>
</g>
</g>
<!-- lib/get&#45;static&#45;data/index.js -->
<g id="node34" class="node">
<title>lib/get&#45;static&#45;data/index.js</title>
<g id="a_node34"><a xlink:href="lib/get-static-data/index.js" xlink:title="index.js">
<path fill="#ffffcc" stroke="#000000" d="M331.6456,-728.5C331.6456,-728.5 288.9789,-728.5 288.9789,-728.5 286.1456,-728.5 283.3123,-725.6667 283.3123,-722.8333 283.3123,-722.8333 283.3123,-717.1667 283.3123,-717.1667 283.3123,-714.3333 286.1456,-711.5 288.9789,-711.5 288.9789,-711.5 331.6456,-711.5 331.6456,-711.5 334.4789,-711.5 337.3123,-714.3333 337.3123,-717.1667 337.3123,-717.1667 337.3123,-722.8333 337.3123,-722.8333 337.3123,-725.6667 334.4789,-728.5 331.6456,-728.5"/>
<text text-anchor="middle" x="310.3123" y="-717.3" font-family="Helvetica,sans-Serif" font-size="9.00" fill="#000000">index.js</text>
</a>
</g>
</g>
<!-- lib/get&#45;static&#45;data/index.js&#45;&gt;lib/get&#45;static&#45;data/get&#45;static&#45;national&#45;id.js -->
<g id="edge41" class="edge">
<title>lib/get&#45;static&#45;data/index.js&#45;&gt;lib/get&#45;static&#45;data/get&#45;static&#45;national&#45;id.js</title>
<path fill="none" stroke="#000000" stroke-width="2" stroke-opacity="0.466667" d="M318.1842,-728.5449C327.9563,-738.6126 345.6027,-755.0931 364.0698,-764 365.4298,-764.6559 366.8206,-765.2814 368.2355,-765.8779"/>
<polygon fill="#000000" fill-opacity="0.466667" stroke="#000000" stroke-width="2" stroke-opacity="0.466667" points="367.2577,-769.2472 377.8513,-769.4072 369.6696,-762.6759 367.2577,-769.2472"/>
</g>
<!-- lib/get&#45;static&#45;data/index.js&#45;&gt;lib/get&#45;static&#45;data/get&#45;static&#45;profile&#45;merchant.js -->
<g id="edge42" class="edge">
<title>lib/get&#45;static&#45;data/index.js&#45;&gt;lib/get&#45;static&#45;data/get&#45;static&#45;profile&#45;merchant.js</title>
<path fill="none" stroke="#000000" stroke-width="2" stroke-opacity="0.466667" d="M337.348,-712.8059C345.8842,-710.5756 355.3603,-708.1422 364.0698,-706 369.5338,-704.6561 375.2655,-703.28 380.9648,-701.9329"/>
<polygon fill="#000000" fill-opacity="0.466667" stroke="#000000" stroke-width="2" stroke-opacity="0.466667" points="382.186,-705.2416 391.1237,-699.5523 380.5889,-698.4262 382.186,-705.2416"/>
</g>
<!-- lib/get&#45;static&#45;data/index.js&#45;&gt;lib/get&#45;static&#45;data/get&#45;static&#45;profile&#45;personal.js -->
<g id="edge43" class="edge">
<title>lib/get&#45;static&#45;data/index.js&#45;&gt;lib/get&#45;static&#45;data/get&#45;static&#45;profile&#45;personal.js</title>
<path fill="none" stroke="#000000" stroke-width="2" stroke-opacity="0.466667" d="M337.5045,-720C343.0662,-720 349.1671,-720 355.4953,-720"/>
<polygon fill="#000000" fill-opacity="0.466667" stroke="#000000" stroke-width="2" stroke-opacity="0.466667" points="355.582,-723.5001 365.582,-720 355.5819,-716.5001 355.582,-723.5001"/>
</g>
<!-- lib/get&#45;static&#45;data/index.js&#45;&gt;lib/get&#45;static&#45;data/get&#45;static&#45;vat&#45;id.js -->
<g id="edge44" class="edge">
<title>lib/get&#45;static&#45;data/index.js&#45;&gt;lib/get&#45;static&#45;data/get&#45;static&#45;vat&#45;id.js</title>
<path fill="none" stroke="#000000" stroke-width="2" stroke-opacity="0.466667" d="M337.5774,-727.9452C346.0398,-730.3202 355.4164,-732.8595 364.0698,-735 368.4601,-736.086 373.0294,-737.1686 377.6191,-738.2232"/>
<polygon fill="#000000" fill-opacity="0.466667" stroke="#000000" stroke-width="2" stroke-opacity="0.466667" points="377.1137,-741.6969 387.6381,-740.4778 378.6505,-734.8677 377.1137,-741.6969"/>
</g>
<!-- lib/index.js -->
<g id="node35" class="node">
<title>lib/index.js</title>
<g id="a_node35"><a xlink:href="lib/index.js" xlink:title="index.js">
<path fill="#ffffcc" stroke="#000000" d="M64.3333,-138.5C64.3333,-138.5 21.6667,-138.5 21.6667,-138.5 18.8333,-138.5 16,-135.6667 16,-132.8333 16,-132.8333 16,-127.1667 16,-127.1667 16,-124.3333 18.8333,-121.5 21.6667,-121.5 21.6667,-121.5 64.3333,-121.5 64.3333,-121.5 67.1667,-121.5 70,-124.3333 70,-127.1667 70,-127.1667 70,-132.8333 70,-132.8333 70,-135.6667 67.1667,-138.5 64.3333,-138.5"/>
<text text-anchor="middle" x="43" y="-127.3" font-family="Helvetica,sans-Serif" font-size="9.00" fill="#000000">index.js</text>
</a>
</g>
</g>
<!-- lib/profile/index.js -->
<g id="node39" class="node">
<title>lib/profile/index.js</title>
<g id="a_node39"><a xlink:href="lib/profile/index.js" xlink:title="index.js">
<path fill="#ffffcc" stroke="#000000" d="M149.0987,-138.5C149.0987,-138.5 106.432,-138.5 106.432,-138.5 103.5987,-138.5 100.7654,-135.6667 100.7654,-132.8333 100.7654,-132.8333 100.7654,-127.1667 100.7654,-127.1667 100.7654,-124.3333 103.5987,-121.5 106.432,-121.5 106.432,-121.5 149.0987,-121.5 149.0987,-121.5 151.932,-121.5 154.7654,-124.3333 154.7654,-127.1667 154.7654,-127.1667 154.7654,-132.8333 154.7654,-132.8333 154.7654,-135.6667 151.932,-138.5 149.0987,-138.5"/>
<text text-anchor="middle" x="127.7654" y="-127.3" font-family="Helvetica,sans-Serif" font-size="9.00" fill="#000000">index.js</text>
</a>
</g>
</g>
<!-- lib/index.js&#45;&gt;lib/profile/index.js -->
<g id="edge45" class="edge">
<title>lib/index.js&#45;&gt;lib/profile/index.js</title>
<path fill="none" stroke="#000000" stroke-width="2" stroke-opacity="0.466667" d="M70.2869,-130C76.6391,-130 83.5117,-130 90.2205,-130"/>
<polygon fill="#000000" fill-opacity="0.466667" stroke="#000000" stroke-width="2" stroke-opacity="0.466667" points="90.5297,-133.5001 100.5296,-130 90.5296,-126.5001 90.5297,-133.5001"/>
</g>
<!-- lib/profile/Profile.js -->
<g id="node36" class="node">
<title>lib/profile/Profile.js</title>
<g id="a_node36"><a xlink:href="lib/profile/Profile.js" xlink:title="Profile.js">
<path fill="#ffffcc" stroke="#000000" d="M331.6456,-109.5C331.6456,-109.5 288.9789,-109.5 288.9789,-109.5 286.1456,-109.5 283.3123,-106.6667 283.3123,-103.8333 283.3123,-103.8333 283.3123,-98.1667 283.3123,-98.1667 283.3123,-95.3333 286.1456,-92.5 288.9789,-92.5 288.9789,-92.5 331.6456,-92.5 331.6456,-92.5 334.4789,-92.5 337.3123,-95.3333 337.3123,-98.1667 337.3123,-98.1667 337.3123,-103.8333 337.3123,-103.8333 337.3123,-106.6667 334.4789,-109.5 331.6456,-109.5"/>
<text text-anchor="middle" x="310.3123" y="-98.3" font-family="Helvetica,sans-Serif" font-size="9.00" fill="#000000">Profile.js</text>
</a>
</g>
</g>
<!-- lib/profile/Profile.js&#45;&gt;lib/data/index.js -->
<g id="edge46" class="edge">
<title>lib/profile/Profile.js&#45;&gt;lib/data/index.js</title>
<path fill="none" stroke="#000000" stroke-width="2" stroke-opacity="0.466667" d="M337.5849,-102.6626C381.8584,-105.3615 469.4286,-110.6999 519.3082,-113.7406"/>
<polygon fill="#000000" fill-opacity="0.466667" stroke="#000000" stroke-width="2" stroke-opacity="0.466667" points="519.1563,-117.2378 529.3508,-114.3528 519.5823,-110.2508 519.1563,-117.2378"/>
</g>
<!-- lib/profile/__tests/profile.spec.js -->
<g id="node37" class="node">
<title>lib/profile/__tests/profile.spec.js</title>
<g id="a_node37"><a xlink:href="lib/profile/__tests/profile.spec.js" xlink:title="profile.spec.js">
<path fill="#ffffcc" stroke="#000000" d="M250.9,-87.5C250.9,-87.5 191.1855,-87.5 191.1855,-87.5 188.3521,-87.5 185.5188,-84.6667 185.5188,-81.8333 185.5188,-81.8333 185.5188,-76.1667 185.5188,-76.1667 185.5188,-73.3333 188.3521,-70.5 191.1855,-70.5 191.1855,-70.5 250.9,-70.5 250.9,-70.5 253.7333,-70.5 256.5667,-73.3333 256.5667,-76.1667 256.5667,-76.1667 256.5667,-81.8333 256.5667,-81.8333 256.5667,-84.6667 253.7333,-87.5 250.9,-87.5"/>
<text text-anchor="middle" x="221.0427" y="-76.3" font-family="Helvetica,sans-Serif" font-size="9.00" fill="#000000">profile.spec.js</text>
</a>
</g>
</g>
<!-- lib/profile/__tests/profile.spec.js&#45;&gt;lib/profile/Profile.js -->
<g id="edge47" class="edge">
<title>lib/profile/__tests/profile.spec.js&#45;&gt;lib/profile/Profile.js</title>
<path fill="none" stroke="#000000" stroke-width="2" stroke-opacity="0.466667" d="M255.5567,-87.5058C261.2603,-88.9114 267.1966,-90.3744 272.966,-91.7962"/>
<polygon fill="#000000" fill-opacity="0.466667" stroke="#000000" stroke-width="2" stroke-opacity="0.466667" points="272.5372,-95.2952 283.0842,-94.2898 274.2122,-88.4985 272.5372,-95.2952"/>
</g>
<!-- lib/profile/get&#45;profile.js -->
<g id="node38" class="node">
<title>lib/profile/get&#45;profile.js</title>
<g id="a_node38"><a xlink:href="lib/profile/get-profile.js" xlink:title="get&#45;profile.js">
<path fill="#ffffcc" stroke="#000000" d="M247.8971,-138.5C247.8971,-138.5 194.1884,-138.5 194.1884,-138.5 191.3551,-138.5 188.5217,-135.6667 188.5217,-132.8333 188.5217,-132.8333 188.5217,-127.1667 188.5217,-127.1667 188.5217,-124.3333 191.3551,-121.5 194.1884,-121.5 194.1884,-121.5 247.8971,-121.5 247.8971,-121.5 250.7304,-121.5 253.5637,-124.3333 253.5637,-127.1667 253.5637,-127.1667 253.5637,-132.8333 253.5637,-132.8333 253.5637,-135.6667 250.7304,-138.5 247.8971,-138.5"/>
<text text-anchor="middle" x="221.0427" y="-127.3" font-family="Helvetica,sans-Serif" font-size="9.00" fill="#000000">get&#45;profile.js</text>
</a>
</g>
</g>
<!-- lib/profile/get&#45;profile.js&#45;&gt;lib/gen&#45;dinamic&#45;data/index.js -->
<g id="edge48" class="edge">
<title>lib/profile/get&#45;profile.js&#45;&gt;lib/gen&#45;dinamic&#45;data/index.js</title>
<path fill="none" stroke="#000000" stroke-width="2" stroke-opacity="0.466667" d="M224.9937,-138.719C238.5896,-168.7224 283.6254,-268.1074 302.1968,-309.0909"/>
<polygon fill="#000000" fill-opacity="0.466667" stroke="#000000" stroke-width="2" stroke-opacity="0.466667" points="299.0914,-310.7178 306.4069,-318.3817 305.4674,-307.8286 299.0914,-310.7178"/>
</g>
<!-- lib/profile/get&#45;profile.js&#45;&gt;lib/get&#45;static&#45;data/index.js -->
<g id="edge49" class="edge">
<title>lib/profile/get&#45;profile.js&#45;&gt;lib/get&#45;static&#45;data/index.js</title>
<path fill="none" stroke="#000000" stroke-width="2" stroke-opacity="0.466667" d="M221.2364,-138.5892C222.7013,-199.4483 233.0799,-566.0932 272.5547,-669 277.4485,-681.7576 286.4633,-694.1248 294.4572,-703.4852"/>
<polygon fill="#000000" fill-opacity="0.466667" stroke="#000000" stroke-width="2" stroke-opacity="0.466667" points="292.0733,-706.0685 301.364,-711.1611 297.2769,-701.3863 292.0733,-706.0685"/>
</g>
<!-- lib/profile/get&#45;profile.js&#45;&gt;lib/profile/Profile.js -->
<g id="edge50" class="edge">
<title>lib/profile/get&#45;profile.js&#45;&gt;lib/profile/Profile.js</title>
<path fill="none" stroke="#000000" stroke-width="2" stroke-opacity="0.466667" d="M247.7432,-121.4346C253.3012,-119.6445 259.1205,-117.7649 264.5547,-116 267.8345,-114.9348 271.2454,-113.8234 274.66,-112.7083"/>
<polygon fill="#000000" fill-opacity="0.466667" stroke="#000000" stroke-width="2" stroke-opacity="0.466667" points="275.7709,-116.0275 284.187,-109.5916 273.5944,-109.3745 275.7709,-116.0275"/>
</g>
<!-- lib/profile/mcc&#45;validate.js -->
<g id="node40" class="node">
<title>lib/profile/mcc&#45;validate.js</title>
<g id="a_node40"><a xlink:href="lib/profile/mcc-validate.js" xlink:title="mcc&#45;validate.js">
<path fill="#ffffcc" stroke="#000000" d="M342.1623,-138.5C342.1623,-138.5 278.4622,-138.5 278.4622,-138.5 275.6289,-138.5 272.7956,-135.6667 272.7956,-132.8333 272.7956,-132.8333 272.7956,-127.1667 272.7956,-127.1667 272.7956,-124.3333 275.6289,-121.5 278.4622,-121.5 278.4622,-121.5 342.1623,-121.5 342.1623,-121.5 344.9956,-121.5 347.8289,-124.3333 347.8289,-127.1667 347.8289,-127.1667 347.8289,-132.8333 347.8289,-132.8333 347.8289,-135.6667 344.9956,-138.5 342.1623,-138.5"/>
<text text-anchor="middle" x="310.3123" y="-127.3" font-family="Helvetica,sans-Serif" font-size="9.00" fill="#000000">mcc&#45;validate.js</text>
</a>
</g>
</g>
<!-- lib/profile/get&#45;profile.js&#45;&gt;lib/profile/mcc&#45;validate.js -->
<g id="edge51" class="edge">
<title>lib/profile/get&#45;profile.js&#45;&gt;lib/profile/mcc&#45;validate.js</title>
<path fill="none" stroke="#000000" stroke-width="2" stroke-opacity="0.466667" d="M253.7765,-130C256.6688,-130 259.6331,-130 262.6157,-130"/>
<polygon fill="#000000" fill-opacity="0.466667" stroke="#000000" stroke-width="2" stroke-opacity="0.466667" points="262.7491,-133.5001 272.749,-130 262.749,-126.5001 262.7491,-133.5001"/>
</g>
<!-- lib/profile/index.js&#45;&gt;lib/profile/get&#45;profile.js -->
<g id="edge52" class="edge">
<title>lib/profile/index.js&#45;&gt;lib/profile/get&#45;profile.js</title>
<path fill="none" stroke="#000000" stroke-width="2" stroke-opacity="0.466667" d="M155.2472,-130C162.4961,-130 170.4923,-130 178.3389,-130"/>
<polygon fill="#000000" fill-opacity="0.466667" stroke="#000000" stroke-width="2" stroke-opacity="0.466667" points="178.4925,-133.5001 188.4925,-130 178.4925,-126.5001 178.4925,-133.5001"/>
</g>
<!-- lib/profile/mcc&#45;validate.js&#45;&gt;lib/data/index.js -->
<g id="edge53" class="edge">
<title>lib/profile/mcc&#45;validate.js&#45;&gt;lib/data/index.js</title>
<path fill="none" stroke="#000000" stroke-width="2" stroke-opacity="0.466667" d="M347.9511,-127.8585C394.2878,-125.222 472.5128,-120.7713 518.8125,-118.1369"/>
<polygon fill="#000000" fill-opacity="0.466667" stroke="#000000" stroke-width="2" stroke-opacity="0.466667" points="519.2357,-121.6186 529.0207,-117.5561 518.838,-114.6299 519.2357,-121.6186"/>
</g>
<!-- lib/profile/profile&#45;validate.js -->
<g id="node41" class="node">
<title>lib/profile/profile&#45;validate.js</title>
<g id="a_node41"><a xlink:href="lib/profile/profile-validate.js" xlink:title="profile&#45;validate.js">
<path fill="#ffffcc" stroke="#000000" d="M163.6308,-94.5C163.6308,-94.5 91.9,-94.5 91.9,-94.5 89.0666,-94.5 86.2333,-91.6667 86.2333,-88.8333 86.2333,-88.8333 86.2333,-83.1667 86.2333,-83.1667 86.2333,-80.3333 89.0666,-77.5 91.9,-77.5 91.9,-77.5 163.6308,-77.5 163.6308,-77.5 166.4641,-77.5 169.2975,-80.3333 169.2975,-83.1667 169.2975,-83.1667 169.2975,-88.8333 169.2975,-88.8333 169.2975,-91.6667 166.4641,-94.5 163.6308,-94.5"/>
<text text-anchor="middle" x="127.7654" y="-83.3" font-family="Helvetica,sans-Serif" font-size="9.00" fill="#000000">profile&#45;validate.js</text>
</a>
</g>
</g>
</g>
</svg>
