<?xml version="1.0" encoding="UTF-8" standalone="no"?>
<!DOCTYPE svg PUBLIC "-//W3C//DTD SVG 1.1//EN"
 "http://www.w3.org/Graphics/SVG/1.1/DTD/svg11.dtd">
<!-- Generated by graphviz version 2.40.1 (20161225.0304)
 -->
<!-- Title: dependency&#45;cruiser output Pages: 1 -->
<svg width="907pt" height="1035pt"
 viewBox="0.00 0.00 906.96 1035.00" xmlns="http://www.w3.org/2000/svg" xmlns:xlink="http://www.w3.org/1999/xlink">
<g id="graph0" class="graph" transform="scale(1 1) rotate(0) translate(4 1031)">
<title>dependency&#45;cruiser output</title>
<polygon fill="#ffffff" stroke="transparent" points="-4,4 -4,-1031 902.9639,-1031 902.9639,4 -4,4"/>
<g id="clust1" class="cluster">
<title>cluster_lib</title>
<path fill="#ffffff" stroke="#000000" stroke-width="2" d="M20,-8C20,-8 878.9639,-8 878.9639,-8 884.9639,-8 890.9639,-14 890.9639,-20 890.9639,-20 890.9639,-1007 890.9639,-1007 890.9639,-1013 884.9639,-1019 878.9639,-1019 878.9639,-1019 20,-1019 20,-1019 14,-1019 8,-1013 8,-1007 8,-1007 8,-20 8,-20 8,-14 14,-8 20,-8"/>
<text text-anchor="middle" x="449.4819" y="-1007.8" font-family="Helvetica,sans-Serif" font-weight="bold" font-size="9.00" fill="#000000">lib</text>
</g>
<g id="clust2" class="cluster">
<title>cluster_lib/data</title>
<path fill="#ffffff" stroke="#000000" stroke-width="2" d="M539.3643,-33C539.3643,-33 840.4529,-33 840.4529,-33 846.4529,-33 852.4529,-39 852.4529,-45 852.4529,-45 852.4529,-169 852.4529,-169 852.4529,-175 846.4529,-181 840.4529,-181 840.4529,-181 539.3643,-181 539.3643,-181 533.3643,-181 527.3643,-175 527.3643,-169 527.3643,-169 527.3643,-45 527.3643,-45 527.3643,-39 533.3643,-33 539.3643,-33"/>
<text text-anchor="middle" x="689.9086" y="-169.8" font-family="Helvetica,sans-Serif" font-weight="bold" font-size="9.00" fill="#000000">data</text>
</g>
<g id="clust3" class="cluster">
<title>cluster_lib/data/__tests</title>
<path fill="#ffffff" stroke="#000000" stroke-width="2" d="M646.3879,-95C646.3879,-95 702.4158,-95 702.4158,-95 708.4158,-95 714.4158,-101 714.4158,-107 714.4158,-107 714.4158,-134 714.4158,-134 714.4158,-140 708.4158,-146 702.4158,-146 702.4158,-146 646.3879,-146 646.3879,-146 640.3879,-146 634.3879,-140 634.3879,-134 634.3879,-134 634.3879,-107 634.3879,-107 634.3879,-101 640.3879,-95 646.3879,-95"/>
<text text-anchor="middle" x="674.4019" y="-134.8" font-family="Helvetica,sans-Serif" font-weight="bold" font-size="9.00" fill="#000000">__tests</text>
</g>
<g id="clust4" class="cluster">
<title>cluster_lib/gen&#45;dinamic&#45;data</title>
<path fill="#ffffff" stroke="#000000" stroke-width="2" d="M281.5532,-189C281.5532,-189 870.9639,-189 870.9639,-189 876.9639,-189 882.9639,-195 882.9639,-201 882.9639,-201 882.9639,-836 882.9639,-836 882.9639,-842 876.9639,-848 870.9639,-848 870.9639,-848 281.5532,-848 281.5532,-848 275.5532,-848 269.5532,-842 269.5532,-836 269.5532,-836 269.5532,-201 269.5532,-201 269.5532,-195 275.5532,-189 281.5532,-189"/>
<text text-anchor="middle" x="576.2585" y="-836.8" font-family="Helvetica,sans-Serif" font-weight="bold" font-size="9.00" fill="#000000">gen&#45;dinamic&#45;data</text>
</g>
<g id="clust5" class="cluster">
<title>cluster_lib/gen&#45;dinamic&#45;data/gen&#45;address</title>
<path fill="#ffffff" stroke="#000000" stroke-width="2" d="M411.832,-416C411.832,-416 604.3813,-416 604.3813,-416 610.3813,-416 616.3813,-422 616.3813,-428 616.3813,-428 616.3813,-542 616.3813,-542 616.3813,-548 610.3813,-554 604.3813,-554 604.3813,-554 411.832,-554 411.832,-554 405.832,-554 399.832,-548 399.832,-542 399.832,-542 399.832,-428 399.832,-428 399.832,-422 405.832,-416 411.832,-416"/>
<text text-anchor="middle" x="508.1067" y="-542.8" font-family="Helvetica,sans-Serif" font-weight="bold" font-size="9.00" fill="#000000">gen&#45;address</text>
</g>
<g id="clust6" class="cluster">
<title>cluster_lib/gen&#45;dinamic&#45;data/gen&#45;company&#45;registration&#45;number</title>
<path fill="#ffffff" stroke="#000000" stroke-width="2" d="M289.5532,-680C289.5532,-680 596.126,-680 596.126,-680 602.126,-680 608.126,-686 608.126,-692 608.126,-692 608.126,-811 608.126,-811 608.126,-817 602.126,-823 596.126,-823 596.126,-823 289.5532,-823 289.5532,-823 283.5532,-823 277.5532,-817 277.5532,-811 277.5532,-811 277.5532,-692 277.5532,-692 277.5532,-686 283.5532,-680 289.5532,-680"/>
<text text-anchor="middle" x="442.8396" y="-811.8" font-family="Helvetica,sans-Serif" font-weight="bold" font-size="9.00" fill="#000000">gen&#45;company&#45;registration&#45;number</text>
</g>
<g id="clust7" class="cluster">
<title>cluster_lib/gen&#45;dinamic&#45;data/gen&#45;company&#45;registration&#45;number/__tests</title>
<path fill="#ffffff" stroke="#000000" stroke-width="2" d="M398.3147,-747C398.3147,-747 471.3494,-747 471.3494,-747 477.3494,-747 483.3494,-753 483.3494,-759 483.3494,-759 483.3494,-786 483.3494,-786 483.3494,-792 477.3494,-798 471.3494,-798 471.3494,-798 398.3147,-798 398.3147,-798 392.3147,-798 386.3147,-792 386.3147,-786 386.3147,-786 386.3147,-759 386.3147,-759 386.3147,-753 392.3147,-747 398.3147,-747"/>
<text text-anchor="middle" x="434.832" y="-786.8" font-family="Helvetica,sans-Serif" font-weight="bold" font-size="9.00" fill="#000000">__tests</text>
</g>
<g id="clust8" class="cluster">
<title>cluster_lib/gen&#45;dinamic&#45;data/gen&#45;company&#45;registration&#45;number/crn&#45;br</title>
<path fill="#ffffff" stroke="#000000" stroke-width="2" d="M411.832,-688C411.832,-688 588.126,-688 588.126,-688 594.126,-688 600.126,-694 600.126,-700 600.126,-700 600.126,-727 600.126,-727 600.126,-733 594.126,-739 588.126,-739 588.126,-739 411.832,-739 411.832,-739 405.832,-739 399.832,-733 399.832,-727 399.832,-727 399.832,-700 399.832,-700 399.832,-694 405.832,-688 411.832,-688"/>
<text text-anchor="middle" x="499.979" y="-727.8" font-family="Helvetica,sans-Serif" font-weight="bold" font-size="9.00" fill="#000000">crn&#45;br</text>
</g>
<g id="clust9" class="cluster">
<title>cluster_lib/gen&#45;dinamic&#45;data/gen&#45;national&#45;id</title>
<path fill="#ffffff" stroke="#000000" stroke-width="2" d="M411.832,-562C411.832,-562 837.9543,-562 837.9543,-562 843.9543,-562 849.9543,-568 849.9543,-574 849.9543,-574 849.9543,-660 849.9543,-660 849.9543,-666 843.9543,-672 837.9543,-672 837.9543,-672 411.832,-672 411.832,-672 405.832,-672 399.832,-666 399.832,-660 399.832,-660 399.832,-574 399.832,-574 399.832,-568 405.832,-562 411.832,-562"/>
<text text-anchor="middle" x="624.8932" y="-660.8" font-family="Helvetica,sans-Serif" font-weight="bold" font-size="9.00" fill="#000000">gen&#45;national&#45;id</text>
</g>
<g id="clust10" class="cluster">
<title>cluster_lib/gen&#45;dinamic&#45;data/gen&#45;national&#45;id/it.national&#45;id</title>
<path fill="#ffffff" stroke="#000000" stroke-width="2" d="M539.3643,-570C539.3643,-570 829.9543,-570 829.9543,-570 835.9543,-570 841.9543,-576 841.9543,-582 841.9543,-582 841.9543,-609 841.9543,-609 841.9543,-615 835.9543,-621 829.9543,-621 829.9543,-621 539.3643,-621 539.3643,-621 533.3643,-621 527.3643,-615 527.3643,-609 527.3643,-609 527.3643,-582 527.3643,-582 527.3643,-576 533.3643,-570 539.3643,-570"/>
<text text-anchor="middle" x="684.6593" y="-609.8" font-family="Helvetica,sans-Serif" font-weight="bold" font-size="9.00" fill="#000000">it.national&#45;id</text>
</g>
<g id="clust11" class="cluster">
<title>cluster_lib/gen&#45;dinamic&#45;data/gen&#45;random&#45;var</title>
<path fill="#ffffff" stroke="#000000" stroke-width="2" d="M527.6006,-295C527.6006,-295 862.9639,-295 862.9639,-295 868.9639,-295 874.9639,-301 874.9639,-307 874.9639,-307 874.9639,-396 874.9639,-396 874.9639,-402 868.9639,-408 862.9639,-408 862.9639,-408 527.6006,-408 527.6006,-408 521.6006,-408 515.6006,-402 515.6006,-396 515.6006,-396 515.6006,-307 515.6006,-307 515.6006,-301 521.6006,-295 527.6006,-295"/>
<text text-anchor="middle" x="695.2822" y="-396.8" font-family="Helvetica,sans-Serif" font-weight="bold" font-size="9.00" fill="#000000">gen&#45;random&#45;var</text>
</g>
<g id="clust12" class="cluster">
<title>cluster_lib/gen&#45;dinamic&#45;data/gen&#45;random&#45;var/__tests</title>
<path fill="#ffffff" stroke="#000000" stroke-width="2" d="M535.6006,-303C535.6006,-303 589.1279,-303 589.1279,-303 595.1279,-303 601.1279,-309 601.1279,-315 601.1279,-315 601.1279,-371 601.1279,-371 601.1279,-377 595.1279,-383 589.1279,-383 589.1279,-383 535.6006,-383 535.6006,-383 529.6006,-383 523.6006,-377 523.6006,-371 523.6006,-371 523.6006,-315 523.6006,-315 523.6006,-309 529.6006,-303 535.6006,-303"/>
<text text-anchor="middle" x="562.3643" y="-371.8" font-family="Helvetica,sans-Serif" font-weight="bold" font-size="9.00" fill="#000000">__tests</text>
</g>
<g id="clust13" class="cluster">
<title>cluster_lib/get&#45;static&#45;data</title>
<path fill="#ffffff" stroke="#000000" stroke-width="2" d="M293.3059,-856C293.3059,-856 495.6006,-856 495.6006,-856 501.6006,-856 507.6006,-862 507.6006,-868 507.6006,-868 507.6006,-982 507.6006,-982 507.6006,-988 501.6006,-994 495.6006,-994 495.6006,-994 293.3059,-994 293.3059,-994 287.3059,-994 281.3059,-988 281.3059,-982 281.3059,-982 281.3059,-868 281.3059,-868 281.3059,-862 287.3059,-856 293.3059,-856"/>
<text text-anchor="middle" x="394.4532" y="-982.8" font-family="Helvetica,sans-Serif" font-weight="bold" font-size="9.00" fill="#000000">get&#45;static&#45;data</text>
</g>
<g id="clust14" class="cluster">
<title>cluster_lib/profile</title>
<path fill="#ffffff" stroke="#000000" stroke-width="2" d="M90,-16C90,-16 350.0635,-16 350.0635,-16 356.0635,-16 362.0635,-22 362.0635,-28 362.0635,-28 362.0635,-169 362.0635,-169 362.0635,-175 356.0635,-181 350.0635,-181 350.0635,-181 90,-181 90,-181 84,-181 78,-175 78,-169 78,-169 78,-28 78,-28 78,-22 84,-16 90,-16"/>
<text text-anchor="middle" x="220.0317" y="-169.8" font-family="Helvetica,sans-Serif" font-weight="bold" font-size="9.00" fill="#000000">profile</text>
</g>
<g id="clust15" class="cluster">
<title>cluster_lib/profile/__tests</title>
<path fill="#ffffff" stroke="#000000" stroke-width="2" d="M98,-50C98,-50 176.5322,-50 176.5322,-50 182.5322,-50 188.5322,-56 188.5322,-62 188.5322,-62 188.5322,-118 188.5322,-118 188.5322,-124 182.5322,-130 176.5322,-130 176.5322,-130 98,-130 98,-130 92,-130 86,-124 86,-118 86,-118 86,-62 86,-62 86,-56 92,-50 98,-50"/>
<text text-anchor="middle" x="137.2661" y="-118.8" font-family="Helvetica,sans-Serif" font-weight="bold" font-size="9.00" fill="#000000">__tests</text>
</g>
<!-- lib/data/__tests/data.spec.js -->
<g id="node1" class="node">
<title>lib/data/__tests/data.spec.js</title>
<g id="a_node1"><a xlink:href="lib/data/__tests/data.spec.js" xlink:title="data.spec.js">
<path fill="#ffffcc" stroke="#000000" d="M700.763,-120.5C700.763,-120.5 648.0407,-120.5 648.0407,-120.5 645.2074,-120.5 642.374,-117.6667 642.374,-114.8333 642.374,-114.8333 642.374,-109.1667 642.374,-109.1667 642.374,-106.3333 645.2074,-103.5 648.0407,-103.5 648.0407,-103.5 700.763,-103.5 700.763,-103.5 703.5964,-103.5 706.4297,-106.3333 706.4297,-109.1667 706.4297,-109.1667 706.4297,-114.8333 706.4297,-114.8333 706.4297,-117.6667 703.5964,-120.5 700.763,-120.5"/>
<text text-anchor="middle" x="674.4019" y="-109.3" font-family="Helvetica,sans-Serif" font-size="9.00" fill="#000000">data.spec.js</text>
</a>
</g>
</g>
<!-- lib/data/country&#45;list.js -->
<g id="node3" class="node">
<title>lib/data/country&#45;list.js</title>
<g id="a_node3"><a xlink:href="lib/data/country-list.js" xlink:title="country&#45;list.js">
<path fill="#ffffcc" stroke="#000000" d="M830.5384,-68.5C830.5384,-68.5 773.8478,-68.5 773.8478,-68.5 771.0145,-68.5 768.1811,-65.6667 768.1811,-62.8333 768.1811,-62.8333 768.1811,-57.1667 768.1811,-57.1667 768.1811,-54.3333 771.0145,-51.5 773.8478,-51.5 773.8478,-51.5 830.5384,-51.5 830.5384,-51.5 833.3718,-51.5 836.2051,-54.3333 836.2051,-57.1667 836.2051,-57.1667 836.2051,-62.8333 836.2051,-62.8333 836.2051,-65.6667 833.3718,-68.5 830.5384,-68.5"/>
<text text-anchor="middle" x="802.1931" y="-57.3" font-family="Helvetica,sans-Serif" font-size="9.00" fill="#000000">country&#45;list.js</text>
</a>
</g>
</g>
<!-- lib/data/__tests/data.spec.js&#45;&gt;lib/data/country&#45;list.js -->
<g id="edge1" class="edge">
<title>lib/data/__tests/data.spec.js&#45;&gt;lib/data/country&#45;list.js</title>
<path fill="none" stroke="#000000" stroke-width="2" stroke-opacity="0.466667" d="M706.6653,-108.5249C713.0111,-106.7151 719.2857,-104.0144 724.4224,-100 734.29,-92.2884 727.5244,-82.6727 737.4224,-75 743.5117,-70.2797 750.829,-67.0011 758.3201,-64.7334"/>
<polygon fill="#000000" fill-opacity="0.466667" stroke="#000000" stroke-width="2" stroke-opacity="0.466667" points="759.3101,-68.0941 768.1791,-62.2983 757.6316,-61.2983 759.3101,-68.0941"/>
</g>
<!-- lib/data/mccs&#45;available.js -->
<g id="node5" class="node">
<title>lib/data/mccs&#45;available.js</title>
<g id="a_node5"><a xlink:href="lib/data/mccs-available.js" xlink:title="mccs&#45;available.js">
<path fill="#ffffcc" stroke="#000000" d="M838.5473,-142.5C838.5473,-142.5 765.8389,-142.5 765.8389,-142.5 763.0056,-142.5 760.1722,-139.6667 760.1722,-136.8333 760.1722,-136.8333 760.1722,-131.1667 760.1722,-131.1667 760.1722,-128.3333 763.0056,-125.5 765.8389,-125.5 765.8389,-125.5 838.5473,-125.5 838.5473,-125.5 841.3807,-125.5 844.214,-128.3333 844.214,-131.1667 844.214,-131.1667 844.214,-136.8333 844.214,-136.8333 844.214,-139.6667 841.3807,-142.5 838.5473,-142.5"/>
<text text-anchor="middle" x="802.1931" y="-131.3" font-family="Helvetica,sans-Serif" font-size="9.00" fill="#000000">mccs&#45;available.js</text>
</a>
</g>
</g>
<!-- lib/data/__tests/data.spec.js&#45;&gt;lib/data/mccs&#45;available.js -->
<g id="edge2" class="edge">
<title>lib/data/__tests/data.spec.js&#45;&gt;lib/data/mccs&#45;available.js</title>
<path fill="none" stroke="#000000" stroke-width="2" stroke-opacity="0.466667" d="M706.649,-117.5515C719.7455,-119.8062 735.2153,-122.4694 749.849,-124.9887"/>
<polygon fill="#000000" fill-opacity="0.466667" stroke="#000000" stroke-width="2" stroke-opacity="0.466667" points="749.358,-128.4555 759.8069,-126.703 750.5457,-121.557 749.358,-128.4555"/>
</g>
<!-- lib/data/names&#45;list.js -->
<g id="node6" class="node">
<title>lib/data/names&#45;list.js</title>
<g id="a_node6"><a xlink:href="lib/data/names-list.js" xlink:title="names&#45;list.js">
<path fill="#ffffcc" stroke="#000000" d="M829.5362,-97.5C829.5362,-97.5 774.85,-97.5 774.85,-97.5 772.0167,-97.5 769.1833,-94.6667 769.1833,-91.8333 769.1833,-91.8333 769.1833,-86.1667 769.1833,-86.1667 769.1833,-83.3333 772.0167,-80.5 774.85,-80.5 774.85,-80.5 829.5362,-80.5 829.5362,-80.5 832.3695,-80.5 835.2029,-83.3333 835.2029,-86.1667 835.2029,-86.1667 835.2029,-91.8333 835.2029,-91.8333 835.2029,-94.6667 832.3695,-97.5 829.5362,-97.5"/>
<text text-anchor="middle" x="802.1931" y="-86.3" font-family="Helvetica,sans-Serif" font-size="9.00" fill="#000000">names&#45;list.js</text>
</a>
</g>
</g>
<!-- lib/data/__tests/data.spec.js&#45;&gt;lib/data/names&#45;list.js -->
<g id="edge3" class="edge">
<title>lib/data/__tests/data.spec.js&#45;&gt;lib/data/names&#45;list.js</title>
<path fill="none" stroke="#000000" stroke-width="2" stroke-opacity="0.466667" d="M706.649,-106.1961C722.4467,-103.3528 741.6975,-99.8881 758.7685,-96.8156"/>
<polygon fill="#000000" fill-opacity="0.466667" stroke="#000000" stroke-width="2" stroke-opacity="0.466667" points="759.8436,-100.1784 769.0655,-94.9623 758.6036,-93.2891 759.8436,-100.1784"/>
</g>
<!-- lib/data/countries&#45;available.js -->
<g id="node2" class="node">
<title>lib/data/countries&#45;available.js</title>
<g id="a_node2"><a xlink:href="lib/data/countries-available.js" xlink:title="countries&#45;available.js">
<path fill="#ffffcc" stroke="#000000" d="M718.7762,-72.5C718.7762,-72.5 630.0275,-72.5 630.0275,-72.5 627.1942,-72.5 624.3608,-69.6667 624.3608,-66.8333 624.3608,-66.8333 624.3608,-61.1667 624.3608,-61.1667 624.3608,-58.3333 627.1942,-55.5 630.0275,-55.5 630.0275,-55.5 718.7762,-55.5 718.7762,-55.5 721.6095,-55.5 724.4429,-58.3333 724.4429,-61.1667 724.4429,-61.1667 724.4429,-66.8333 724.4429,-66.8333 724.4429,-69.6667 721.6095,-72.5 718.7762,-72.5"/>
<text text-anchor="middle" x="674.4019" y="-61.3" font-family="Helvetica,sans-Serif" font-size="9.00" fill="#000000">countries&#45;available.js</text>
</a>
</g>
</g>
<!-- lib/data/countries&#45;available.js&#45;&gt;lib/data/country&#45;list.js -->
<g id="edge4" class="edge">
<title>lib/data/countries&#45;available.js&#45;&gt;lib/data/country&#45;list.js</title>
<path fill="none" stroke="#000000" stroke-width="2" stroke-opacity="0.466667" d="M724.5416,-62.4306C735.5634,-62.0856 747.1586,-61.7226 757.9294,-61.3855"/>
<polygon fill="#000000" fill-opacity="0.466667" stroke="#000000" stroke-width="2" stroke-opacity="0.466667" points="758.0723,-64.8828 767.9579,-61.0716 757.8533,-57.8863 758.0723,-64.8828"/>
</g>
<!-- lib/data/countries&#45;available.js&#45;&gt;lib/data/names&#45;list.js -->
<g id="edge5" class="edge">
<title>lib/data/countries&#45;available.js&#45;&gt;lib/data/names&#45;list.js</title>
<path fill="none" stroke="#000000" stroke-width="2" stroke-opacity="0.466667" d="M718.0229,-72.5337C731.1452,-75.1008 745.5401,-77.9169 758.6569,-80.4829"/>
<polygon fill="#000000" fill-opacity="0.466667" stroke="#000000" stroke-width="2" stroke-opacity="0.466667" points="758.3675,-83.9926 768.8534,-82.4777 759.7115,-77.1228 758.3675,-83.9926"/>
</g>
<!-- lib/data/index.js -->
<g id="node4" class="node">
<title>lib/data/index.js</title>
<g id="a_node4"><a xlink:href="lib/data/index.js" xlink:title="index.js">
<path fill="#ffffcc" stroke="#000000" d="M583.6976,-141.5C583.6976,-141.5 541.0309,-141.5 541.0309,-141.5 538.1976,-141.5 535.3643,-138.6667 535.3643,-135.8333 535.3643,-135.8333 535.3643,-130.1667 535.3643,-130.1667 535.3643,-127.3333 538.1976,-124.5 541.0309,-124.5 541.0309,-124.5 583.6976,-124.5 583.6976,-124.5 586.5309,-124.5 589.3643,-127.3333 589.3643,-130.1667 589.3643,-130.1667 589.3643,-135.8333 589.3643,-135.8333 589.3643,-138.6667 586.5309,-141.5 583.6976,-141.5"/>
<text text-anchor="middle" x="562.3643" y="-130.3" font-family="Helvetica,sans-Serif" font-size="9.00" fill="#000000">index.js</text>
</a>
</g>
</g>
<!-- lib/data/index.js&#45;&gt;lib/data/countries&#45;available.js -->
<g id="edge6" class="edge">
<title>lib/data/index.js&#45;&gt;lib/data/countries&#45;available.js</title>
<path fill="none" stroke="#000000" stroke-width="2" stroke-opacity="0.466667" d="M570.8861,-124.3434C582.2218,-113.2387 603.2938,-93.9852 624.3813,-82 628.0372,-79.9222 631.9762,-78.0138 635.9818,-76.2804"/>
<polygon fill="#000000" fill-opacity="0.466667" stroke="#000000" stroke-width="2" stroke-opacity="0.466667" points="637.3483,-79.5036 645.3469,-72.5558 634.7614,-72.9991 637.3483,-79.5036"/>
</g>
<!-- lib/data/index.js&#45;&gt;lib/data/country&#45;list.js -->
<g id="edge7" class="edge">
<title>lib/data/index.js&#45;&gt;lib/data/country&#45;list.js</title>
<path fill="none" stroke="#000000" stroke-width="2" stroke-opacity="0.466667" d="M565.6799,-124.3361C573.0533,-106.4687 592.7005,-65.876 624.3813,-50 670.1141,-27.0822 731.0013,-37.9633 768.3542,-48.5287"/>
<polygon fill="#000000" fill-opacity="0.466667" stroke="#000000" stroke-width="2" stroke-opacity="0.466667" points="767.6503,-51.971 778.2334,-51.472 769.649,-45.2624 767.6503,-51.971"/>
</g>
<!-- lib/data/index.js&#45;&gt;lib/data/mccs&#45;available.js -->
<g id="edge8" class="edge">
<title>lib/data/index.js&#45;&gt;lib/data/mccs&#45;available.js</title>
<path fill="none" stroke="#000000" stroke-width="2" stroke-opacity="0.466667" d="M589.2453,-141.5137C600.0462,-144.5177 612.6886,-147.516 624.3813,-149 668.4902,-154.5982 680.1613,-153.2294 724.4224,-149 734.586,-148.0288 745.3962,-146.3591 755.6229,-144.4779"/>
<polygon fill="#000000" fill-opacity="0.466667" stroke="#000000" stroke-width="2" stroke-opacity="0.466667" points="756.4573,-147.8814 765.6096,-142.5441 755.1266,-141.009 756.4573,-147.8814"/>
</g>
<!-- lib/data/index.js&#45;&gt;lib/data/names&#45;list.js -->
<g id="edge9" class="edge">
<title>lib/data/index.js&#45;&gt;lib/data/names&#45;list.js</title>
<path fill="none" stroke="#000000" stroke-width="2" stroke-opacity="0.466667" d="M571.5627,-124.4267C582.9515,-114.4439 603.4227,-98.4949 624.3813,-92 668.5353,-78.317 721.8624,-79.6128 758.5302,-83.047"/>
<polygon fill="#000000" fill-opacity="0.466667" stroke="#000000" stroke-width="2" stroke-opacity="0.466667" points="758.5707,-86.5696 768.8771,-84.1141 759.2889,-79.6066 758.5707,-86.5696"/>
</g>
<!-- lib/gen&#45;dinamic&#45;data/gen&#45;address/br.address.js -->
<g id="node7" class="node">
<title>lib/gen&#45;dinamic&#45;data/gen&#45;address/br.address.js</title>
<g id="a_node7"><a xlink:href="lib/gen-dinamic-data/gen-address/br.address.js" xlink:title="br.address.js">
<path fill="#ffffcc" stroke="#000000" d="M590.2269,-499.5C590.2269,-499.5 534.5016,-499.5 534.5016,-499.5 531.6683,-499.5 528.835,-496.6667 528.835,-493.8333 528.835,-493.8333 528.835,-488.1667 528.835,-488.1667 528.835,-485.3333 531.6683,-482.5 534.5016,-482.5 534.5016,-482.5 590.2269,-482.5 590.2269,-482.5 593.0602,-482.5 595.8936,-485.3333 595.8936,-488.1667 595.8936,-488.1667 595.8936,-493.8333 595.8936,-493.8333 595.8936,-496.6667 593.0602,-499.5 590.2269,-499.5"/>
<text text-anchor="middle" x="562.3643" y="-488.3" font-family="Helvetica,sans-Serif" font-size="9.00" fill="#000000">br.address.js</text>
</a>
</g>
</g>
<!-- lib/gen&#45;dinamic&#45;data/gen&#45;random&#45;var/index.js -->
<g id="node31" class="node">
<title>lib/gen&#45;dinamic&#45;data/gen&#45;random&#45;var/index.js</title>
<g id="a_node31"><a xlink:href="lib/gen-dinamic-data/gen-random-var/index.js" xlink:title="index.js">
<path fill="#ffffcc" stroke="#000000" d="M695.7352,-355.5C695.7352,-355.5 653.0685,-355.5 653.0685,-355.5 650.2352,-355.5 647.4019,-352.6667 647.4019,-349.8333 647.4019,-349.8333 647.4019,-344.1667 647.4019,-344.1667 647.4019,-341.3333 650.2352,-338.5 653.0685,-338.5 653.0685,-338.5 695.7352,-338.5 695.7352,-338.5 698.5685,-338.5 701.4019,-341.3333 701.4019,-344.1667 701.4019,-344.1667 701.4019,-349.8333 701.4019,-349.8333 701.4019,-352.6667 698.5685,-355.5 695.7352,-355.5"/>
<text text-anchor="middle" x="674.4019" y="-344.3" font-family="Helvetica,sans-Serif" font-size="9.00" fill="#000000">index.js</text>
</a>
</g>
</g>
<!-- lib/gen&#45;dinamic&#45;data/gen&#45;address/br.address.js&#45;&gt;lib/gen&#45;dinamic&#45;data/gen&#45;random&#45;var/index.js -->
<g id="edge10" class="edge">
<title>lib/gen&#45;dinamic&#45;data/gen&#45;address/br.address.js&#45;&gt;lib/gen&#45;dinamic&#45;data/gen&#45;random&#45;var/index.js</title>
<path fill="none" stroke="#000000" stroke-width="2" stroke-opacity="0.466667" d="M596.027,-487.1868C603.3452,-485.0878 610.6131,-481.8813 616.3813,-477 650.8585,-447.8242 665.6786,-394.0587 671.3373,-365.6765"/>
<polygon fill="#000000" fill-opacity="0.466667" stroke="#000000" stroke-width="2" stroke-opacity="0.466667" points="674.7816,-366.2981 673.131,-355.8326 667.895,-365.0432 674.7816,-366.2981"/>
</g>
<!-- lib/gen&#45;dinamic&#45;data/gen&#45;address/ch.address.js -->
<g id="node8" class="node">
<title>lib/gen&#45;dinamic&#45;data/gen&#45;address/ch.address.js</title>
<g id="a_node8"><a xlink:href="lib/gen-dinamic-data/gen-address/ch.address.js" xlink:title="ch.address.js">
<path fill="#ffffcc" stroke="#000000" d="M591.222,-528.5C591.222,-528.5 533.5065,-528.5 533.5065,-528.5 530.6732,-528.5 527.8398,-525.6667 527.8398,-522.8333 527.8398,-522.8333 527.8398,-517.1667 527.8398,-517.1667 527.8398,-514.3333 530.6732,-511.5 533.5065,-511.5 533.5065,-511.5 591.222,-511.5 591.222,-511.5 594.0553,-511.5 596.8887,-514.3333 596.8887,-517.1667 596.8887,-517.1667 596.8887,-522.8333 596.8887,-522.8333 596.8887,-525.6667 594.0553,-528.5 591.222,-528.5"/>
<text text-anchor="middle" x="562.3643" y="-517.3" font-family="Helvetica,sans-Serif" font-size="9.00" fill="#000000">ch.address.js</text>
</a>
</g>
</g>
<!-- lib/gen&#45;dinamic&#45;data/gen&#45;address/ch.address.js&#45;&gt;lib/gen&#45;dinamic&#45;data/gen&#45;random&#45;var/index.js -->
<g id="edge11" class="edge">
<title>lib/gen&#45;dinamic&#45;data/gen&#45;address/ch.address.js&#45;&gt;lib/gen&#45;dinamic&#45;data/gen&#45;random&#45;var/index.js</title>
<path fill="none" stroke="#000000" stroke-width="2" stroke-opacity="0.466667" d="M597.1221,-516.226C604.1387,-514.1086 611.0023,-510.8845 616.3813,-506 657.6358,-468.5385 669.6084,-399.3258 673.0433,-365.9609"/>
<polygon fill="#000000" fill-opacity="0.466667" stroke="#000000" stroke-width="2" stroke-opacity="0.466667" points="676.5504,-366.0323 673.9362,-355.7651 669.5771,-365.4216 676.5504,-366.0323"/>
</g>
<!-- lib/gen&#45;dinamic&#45;data/gen&#45;address/cl.address.js -->
<g id="node9" class="node">
<title>lib/gen&#45;dinamic&#45;data/gen&#45;address/cl.address.js</title>
<g id="a_node9"><a xlink:href="lib/gen-dinamic-data/gen-address/cl.address.js" xlink:title="cl.address.js">
<path fill="#ffffcc" stroke="#000000" d="M589.7161,-441.5C589.7161,-441.5 535.0124,-441.5 535.0124,-441.5 532.179,-441.5 529.3457,-438.6667 529.3457,-435.8333 529.3457,-435.8333 529.3457,-430.1667 529.3457,-430.1667 529.3457,-427.3333 532.179,-424.5 535.0124,-424.5 535.0124,-424.5 589.7161,-424.5 589.7161,-424.5 592.5495,-424.5 595.3828,-427.3333 595.3828,-430.1667 595.3828,-430.1667 595.3828,-435.8333 595.3828,-435.8333 595.3828,-438.6667 592.5495,-441.5 589.7161,-441.5"/>
<text text-anchor="middle" x="562.3643" y="-430.3" font-family="Helvetica,sans-Serif" font-size="9.00" fill="#000000">cl.address.js</text>
</a>
</g>
</g>
<!-- lib/gen&#45;dinamic&#45;data/gen&#45;address/cl.address.js&#45;&gt;lib/gen&#45;dinamic&#45;data/gen&#45;random&#45;var/index.js -->
<g id="edge12" class="edge">
<title>lib/gen&#45;dinamic&#45;data/gen&#45;address/cl.address.js&#45;&gt;lib/gen&#45;dinamic&#45;data/gen&#45;random&#45;var/index.js</title>
<path fill="none" stroke="#000000" stroke-width="2" stroke-opacity="0.466667" d="M573.5165,-424.4396C592.559,-409.8225 631.5634,-379.8828 655.1037,-361.8132"/>
<polygon fill="#000000" fill-opacity="0.466667" stroke="#000000" stroke-width="2" stroke-opacity="0.466667" points="657.4934,-364.3912 663.2948,-355.5258 653.2311,-358.8384 657.4934,-364.3912"/>
</g>
<!-- lib/gen&#45;dinamic&#45;data/gen&#45;address/es.region&#45;names.js -->
<g id="node10" class="node">
<title>lib/gen&#45;dinamic&#45;data/gen&#45;address/es.region&#45;names.js</title>
<g id="a_node10"><a xlink:href="lib/gen-dinamic-data/gen-address/es.region-names.js" xlink:title="es.region&#45;names.js">
<path fill="#ffffcc" stroke="#000000" d="M602.7318,-470.5C602.7318,-470.5 521.9967,-470.5 521.9967,-470.5 519.1634,-470.5 516.3301,-467.6667 516.3301,-464.8333 516.3301,-464.8333 516.3301,-459.1667 516.3301,-459.1667 516.3301,-456.3333 519.1634,-453.5 521.9967,-453.5 521.9967,-453.5 602.7318,-453.5 602.7318,-453.5 605.5651,-453.5 608.3984,-456.3333 608.3984,-459.1667 608.3984,-459.1667 608.3984,-464.8333 608.3984,-464.8333 608.3984,-467.6667 605.5651,-470.5 602.7318,-470.5"/>
<text text-anchor="middle" x="562.3643" y="-459.3" font-family="Helvetica,sans-Serif" font-size="9.00" fill="#000000">es.region&#45;names.js</text>
</a>
</g>
</g>
<!-- lib/gen&#45;dinamic&#45;data/gen&#45;address/es.region&#45;names.js&#45;&gt;lib/gen&#45;dinamic&#45;data/gen&#45;random&#45;var/index.js -->
<g id="edge13" class="edge">
<title>lib/gen&#45;dinamic&#45;data/gen&#45;address/es.region&#45;names.js&#45;&gt;lib/gen&#45;dinamic&#45;data/gen&#45;random&#45;var/index.js</title>
<path fill="none" stroke="#000000" stroke-width="2" stroke-opacity="0.466667" d="M607.3327,-453.4381C610.5465,-451.9116 613.608,-450.1148 616.3813,-448 644.1576,-426.8194 660.8656,-388.2385 668.796,-365.382"/>
<polygon fill="#000000" fill-opacity="0.466667" stroke="#000000" stroke-width="2" stroke-opacity="0.466667" points="672.2229,-366.1621 671.994,-355.5698 665.5674,-363.9929 672.2229,-366.1621"/>
</g>
<!-- lib/gen&#45;dinamic&#45;data/gen&#45;address/index.js -->
<g id="node11" class="node">
<title>lib/gen&#45;dinamic&#45;data/gen&#45;address/index.js</title>
<g id="a_node11"><a xlink:href="lib/gen-dinamic-data/gen-address/index.js" xlink:title="index.js">
<path fill="#ffffcc" stroke="#000000" d="M456.1654,-455.5C456.1654,-455.5 413.4987,-455.5 413.4987,-455.5 410.6654,-455.5 407.832,-452.6667 407.832,-449.8333 407.832,-449.8333 407.832,-444.1667 407.832,-444.1667 407.832,-441.3333 410.6654,-438.5 413.4987,-438.5 413.4987,-438.5 456.1654,-438.5 456.1654,-438.5 458.9987,-438.5 461.832,-441.3333 461.832,-444.1667 461.832,-444.1667 461.832,-449.8333 461.832,-449.8333 461.832,-452.6667 458.9987,-455.5 456.1654,-455.5"/>
<text text-anchor="middle" x="434.832" y="-444.3" font-family="Helvetica,sans-Serif" font-size="9.00" fill="#000000">index.js</text>
</a>
</g>
</g>
<!-- lib/gen&#45;dinamic&#45;data/gen&#45;address/index.js&#45;&gt;lib/gen&#45;dinamic&#45;data/gen&#45;address/br.address.js -->
<g id="edge15" class="edge">
<title>lib/gen&#45;dinamic&#45;data/gen&#45;address/index.js&#45;&gt;lib/gen&#45;dinamic&#45;data/gen&#45;address/br.address.js</title>
<path fill="none" stroke="#000000" stroke-width="2" stroke-opacity="0.466667" d="M456.6353,-455.5348C472.8121,-461.7602 495.4599,-470.2526 515.6006,-477 517.9912,-477.8009 520.4578,-478.6047 522.9503,-479.4"/>
<polygon fill="#000000" fill-opacity="0.466667" stroke="#000000" stroke-width="2" stroke-opacity="0.466667" points="521.9986,-482.7693 532.587,-482.4004 524.0796,-476.0858 521.9986,-482.7693"/>
</g>
<!-- lib/gen&#45;dinamic&#45;data/gen&#45;address/index.js&#45;&gt;lib/gen&#45;dinamic&#45;data/gen&#45;address/ch.address.js -->
<g id="edge16" class="edge">
<title>lib/gen&#45;dinamic&#45;data/gen&#45;address/index.js&#45;&gt;lib/gen&#45;dinamic&#45;data/gen&#45;address/ch.address.js</title>
<path fill="none" stroke="#000000" stroke-width="2" stroke-opacity="0.466667" d="M444.5588,-455.8368C459.0474,-468.5773 487.6049,-492.0986 515.6006,-506 516.7534,-506.5724 517.934,-507.1262 519.135,-507.6615"/>
<polygon fill="#000000" fill-opacity="0.466667" stroke="#000000" stroke-width="2" stroke-opacity="0.466667" points="518.0344,-510.9899 528.621,-511.4076 520.6056,-504.4792 518.0344,-510.9899"/>
</g>
<!-- lib/gen&#45;dinamic&#45;data/gen&#45;address/index.js&#45;&gt;lib/gen&#45;dinamic&#45;data/gen&#45;address/cl.address.js -->
<g id="edge17" class="edge">
<title>lib/gen&#45;dinamic&#45;data/gen&#45;address/index.js&#45;&gt;lib/gen&#45;dinamic&#45;data/gen&#45;address/cl.address.js</title>
<path fill="none" stroke="#000000" stroke-width="2" stroke-opacity="0.466667" d="M461.8783,-444.031C478.4119,-442.216 499.9417,-439.8525 518.8295,-437.7791"/>
<polygon fill="#000000" fill-opacity="0.466667" stroke="#000000" stroke-width="2" stroke-opacity="0.466667" points="519.4441,-441.2327 529.0024,-436.6623 518.6802,-434.2745 519.4441,-441.2327"/>
</g>
<!-- lib/gen&#45;dinamic&#45;data/gen&#45;address/index.js&#45;&gt;lib/gen&#45;dinamic&#45;data/gen&#45;address/es.region&#45;names.js -->
<g id="edge18" class="edge">
<title>lib/gen&#45;dinamic&#45;data/gen&#45;address/index.js&#45;&gt;lib/gen&#45;dinamic&#45;data/gen&#45;address/es.region&#45;names.js</title>
<path fill="none" stroke="#000000" stroke-width="2" stroke-opacity="0.466667" d="M461.8783,-450.1811C474.8338,-451.7049 490.8568,-453.5895 506.2727,-455.4027"/>
<polygon fill="#000000" fill-opacity="0.466667" stroke="#000000" stroke-width="2" stroke-opacity="0.466667" points="505.9367,-458.8872 516.2771,-456.5794 506.7545,-451.9351 505.9367,-458.8872"/>
</g>
<!-- lib/gen&#45;dinamic&#45;data/map&#45;faker.js -->
<g id="node34" class="node">
<title>lib/gen&#45;dinamic&#45;data/map&#45;faker.js</title>
<g id="a_node34"><a xlink:href="lib/gen-dinamic-data/map-faker.js" xlink:title="map&#45;faker.js">
<path fill="#ffffcc" stroke="#000000" d="M589.2186,-286.5C589.2186,-286.5 535.5099,-286.5 535.5099,-286.5 532.6766,-286.5 529.8433,-283.6667 529.8433,-280.8333 529.8433,-280.8333 529.8433,-275.1667 529.8433,-275.1667 529.8433,-272.3333 532.6766,-269.5 535.5099,-269.5 535.5099,-269.5 589.2186,-269.5 589.2186,-269.5 592.0519,-269.5 594.8853,-272.3333 594.8853,-275.1667 594.8853,-275.1667 594.8853,-280.8333 594.8853,-280.8333 594.8853,-283.6667 592.0519,-286.5 589.2186,-286.5"/>
<text text-anchor="middle" x="562.3643" y="-275.3" font-family="Helvetica,sans-Serif" font-size="9.00" fill="#000000">map&#45;faker.js</text>
</a>
</g>
</g>
<!-- lib/gen&#45;dinamic&#45;data/gen&#45;address/index.js&#45;&gt;lib/gen&#45;dinamic&#45;data/map&#45;faker.js -->
<g id="edge14" class="edge">
<title>lib/gen&#45;dinamic&#45;data/gen&#45;address/index.js&#45;&gt;lib/gen&#45;dinamic&#45;data/map&#45;faker.js</title>
<path fill="none" stroke="#000000" stroke-width="2" stroke-opacity="0.466667" d="M461.9076,-450.1247C477.5823,-450.3125 496.3741,-447.4623 507.6006,-435 527.715,-412.6713 498.7526,-324.8859 515.6006,-300 517.6236,-297.0119 520.1651,-294.4196 523.0124,-292.1726"/>
<polygon fill="#000000" fill-opacity="0.466667" stroke="#000000" stroke-width="2" stroke-opacity="0.466667" points="525.0785,-295.0076 531.6694,-286.7123 521.344,-289.0869 525.0785,-295.0076"/>
</g>
<!-- lib/gen&#45;dinamic&#45;data/gen&#45;anagrafica.js -->
<g id="node12" class="node">
<title>lib/gen&#45;dinamic&#45;data/gen&#45;anagrafica.js</title>
<g id="a_node12"><a xlink:href="lib/gen-dinamic-data/gen-anagrafica.js" xlink:title="gen&#45;anagrafica.js">
<path fill="#ffffcc" stroke="#000000" d="M471.7079,-272.5C471.7079,-272.5 397.9562,-272.5 397.9562,-272.5 395.1229,-272.5 392.2895,-269.6667 392.2895,-266.8333 392.2895,-266.8333 392.2895,-261.1667 392.2895,-261.1667 392.2895,-258.3333 395.1229,-255.5 397.9562,-255.5 397.9562,-255.5 471.7079,-255.5 471.7079,-255.5 474.5412,-255.5 477.3745,-258.3333 477.3745,-261.1667 477.3745,-261.1667 477.3745,-266.8333 477.3745,-266.8333 477.3745,-269.6667 474.5412,-272.5 471.7079,-272.5"/>
<text text-anchor="middle" x="434.832" y="-261.3" font-family="Helvetica,sans-Serif" font-size="9.00" fill="#000000">gen&#45;anagrafica.js</text>
</a>
</g>
</g>
<!-- lib/gen&#45;dinamic&#45;data/gen&#45;anagrafica.js&#45;&gt;lib/data/index.js -->
<g id="edge19" class="edge">
<title>lib/gen&#45;dinamic&#45;data/gen&#45;anagrafica.js&#45;&gt;lib/data/index.js</title>
<path fill="none" stroke="#000000" stroke-width="2" stroke-opacity="0.466667" d="M477.7187,-264.5026C488.8457,-262.5008 499.8625,-258.264 507.6006,-250 517.3971,-239.5376 509.7083,-199.0657 515.6006,-186 522.1287,-171.5244 534.0062,-158.1407 544.1568,-148.4439"/>
<polygon fill="#000000" fill-opacity="0.466667" stroke="#000000" stroke-width="2" stroke-opacity="0.466667" points="546.744,-150.8221 551.792,-141.5072 542.0369,-145.641 546.744,-150.8221"/>
</g>
<!-- lib/gen&#45;dinamic&#45;data/gen&#45;birthday.js -->
<g id="node13" class="node">
<title>lib/gen&#45;dinamic&#45;data/gen&#45;birthday.js</title>
<g id="a_node13"><a xlink:href="lib/gen-dinamic-data/gen-birthday.js" xlink:title="gen&#45;birthday.js">
<path fill="#ffffcc" stroke="#000000" d="M594.0667,-242.5C594.0667,-242.5 530.6618,-242.5 530.6618,-242.5 527.8285,-242.5 524.9952,-239.6667 524.9952,-236.8333 524.9952,-236.8333 524.9952,-231.1667 524.9952,-231.1667 524.9952,-228.3333 527.8285,-225.5 530.6618,-225.5 530.6618,-225.5 594.0667,-225.5 594.0667,-225.5 596.9,-225.5 599.7333,-228.3333 599.7333,-231.1667 599.7333,-231.1667 599.7333,-236.8333 599.7333,-236.8333 599.7333,-239.6667 596.9,-242.5 594.0667,-242.5"/>
<text text-anchor="middle" x="562.3643" y="-231.3" font-family="Helvetica,sans-Serif" font-size="9.00" fill="#000000">gen&#45;birthday.js</text>
</a>
</g>
</g>
<!-- lib/gen&#45;dinamic&#45;data/gen&#45;anagrafica.js&#45;&gt;lib/gen&#45;dinamic&#45;data/gen&#45;birthday.js -->
<g id="edge20" class="edge">
<title>lib/gen&#45;dinamic&#45;data/gen&#45;anagrafica.js&#45;&gt;lib/gen&#45;dinamic&#45;data/gen&#45;birthday.js</title>
<path fill="none" stroke="#000000" stroke-width="2" stroke-opacity="0.466667" d="M477.6881,-256.4514C487.5519,-254.5213 497.9717,-252.3274 507.6006,-250 513.3367,-248.6135 519.3689,-247.0058 525.2489,-245.3549"/>
<polygon fill="#000000" fill-opacity="0.466667" stroke="#000000" stroke-width="2" stroke-opacity="0.466667" points="526.2819,-248.6998 534.9215,-242.5673 524.3433,-241.9735 526.2819,-248.6998"/>
</g>
<!-- lib/gen&#45;dinamic&#45;data/gen&#45;anagrafica.js&#45;&gt;lib/gen&#45;dinamic&#45;data/gen&#45;random&#45;var/index.js -->
<g id="edge21" class="edge">
<title>lib/gen&#45;dinamic&#45;data/gen&#45;anagrafica.js&#45;&gt;lib/gen&#45;dinamic&#45;data/gen&#45;random&#45;var/index.js</title>
<path fill="none" stroke="#000000" stroke-width="2" stroke-opacity="0.466667" d="M477.3941,-263.7279C488.3848,-261.6914 499.4121,-257.6304 507.6006,-250 517.6961,-240.5926 504.6579,-228.407 515.6006,-220 533.3601,-206.3557 597.54,-207.8933 616.3813,-220 654.0088,-244.178 667.5367,-299.4752 672.1579,-328.4749"/>
<polygon fill="#000000" fill-opacity="0.466667" stroke="#000000" stroke-width="2" stroke-opacity="0.466667" points="668.7086,-329.0817 673.5629,-338.499 675.6408,-328.11 668.7086,-329.0817"/>
</g>
<!-- lib/gen&#45;dinamic&#45;data/gen&#45;company&#45;registration&#45;number/__tests/gen&#45;cnpj.spec.js -->
<g id="node14" class="node">
<title>lib/gen&#45;dinamic&#45;data/gen&#45;company&#45;registration&#45;number/__tests/gen&#45;cnpj.spec.js</title>
<g id="a_node14"><a xlink:href="lib/gen-dinamic-data/gen-company-registration-number/__tests/gen-cnpj.spec.js" xlink:title="gen&#45;cnpj.spec.js">
<path fill="#ffffcc" stroke="#000000" d="M469.7,-772.5C469.7,-772.5 399.964,-772.5 399.964,-772.5 397.1307,-772.5 394.2974,-769.6667 394.2974,-766.8333 394.2974,-766.8333 394.2974,-761.1667 394.2974,-761.1667 394.2974,-758.3333 397.1307,-755.5 399.964,-755.5 399.964,-755.5 469.7,-755.5 469.7,-755.5 472.5334,-755.5 475.3667,-758.3333 475.3667,-761.1667 475.3667,-761.1667 475.3667,-766.8333 475.3667,-766.8333 475.3667,-769.6667 472.5334,-772.5 469.7,-772.5"/>
<text text-anchor="middle" x="434.832" y="-761.3" font-family="Helvetica,sans-Serif" font-size="9.00" fill="#000000">gen&#45;cnpj.spec.js</text>
</a>
</g>
</g>
<!-- lib/gen&#45;dinamic&#45;data/gen&#45;company&#45;registration&#45;number/crn&#45;br/gen&#45;cnpj.js -->
<g id="node15" class="node">
<title>lib/gen&#45;dinamic&#45;data/gen&#45;company&#45;registration&#45;number/crn&#45;br/gen&#45;cnpj.js</title>
<g id="a_node15"><a xlink:href="lib/gen-dinamic-data/gen-company-registration-number/crn-br/gen-cnpj.js" xlink:title="gen&#45;cnpj.js">
<path fill="#ffffcc" stroke="#000000" d="M586.2229,-713.5C586.2229,-713.5 538.5056,-713.5 538.5056,-713.5 535.6723,-713.5 532.8389,-710.6667 532.8389,-707.8333 532.8389,-707.8333 532.8389,-702.1667 532.8389,-702.1667 532.8389,-699.3333 535.6723,-696.5 538.5056,-696.5 538.5056,-696.5 586.2229,-696.5 586.2229,-696.5 589.0563,-696.5 591.8896,-699.3333 591.8896,-702.1667 591.8896,-702.1667 591.8896,-707.8333 591.8896,-707.8333 591.8896,-710.6667 589.0563,-713.5 586.2229,-713.5"/>
<text text-anchor="middle" x="562.3643" y="-702.3" font-family="Helvetica,sans-Serif" font-size="9.00" fill="#000000">gen&#45;cnpj.js</text>
</a>
</g>
</g>
<!-- lib/gen&#45;dinamic&#45;data/gen&#45;company&#45;registration&#45;number/__tests/gen&#45;cnpj.spec.js&#45;&gt;lib/gen&#45;dinamic&#45;data/gen&#45;company&#45;registration&#45;number/crn&#45;br/gen&#45;cnpj.js -->
<g id="edge22" class="edge">
<title>lib/gen&#45;dinamic&#45;data/gen&#45;company&#45;registration&#45;number/__tests/gen&#45;cnpj.spec.js&#45;&gt;lib/gen&#45;dinamic&#45;data/gen&#45;company&#45;registration&#45;number/crn&#45;br/gen&#45;cnpj.js</title>
<path fill="none" stroke="#000000" stroke-width="2" stroke-opacity="0.466667" d="M470.7957,-755.4447C482.7916,-751.988 496.039,-747.498 507.6006,-742 520.2635,-735.9783 533.3159,-727.2744 543.5005,-719.8213"/>
<polygon fill="#000000" fill-opacity="0.466667" stroke="#000000" stroke-width="2" stroke-opacity="0.466667" points="545.7522,-722.5069 551.6304,-713.6923 541.5384,-716.9173 545.7522,-722.5069"/>
</g>
<!-- lib/gen&#45;dinamic&#45;data/gen&#45;company&#45;registration&#45;number/crn&#45;br/index.js -->
<g id="node16" class="node">
<title>lib/gen&#45;dinamic&#45;data/gen&#45;company&#45;registration&#45;number/crn&#45;br/index.js</title>
<g id="a_node16"><a xlink:href="lib/gen-dinamic-data/gen-company-registration-number/crn-br/index.js" xlink:title="index.js">
<path fill="#ffffcc" stroke="#000000" d="M456.1654,-713.5C456.1654,-713.5 413.4987,-713.5 413.4987,-713.5 410.6654,-713.5 407.832,-710.6667 407.832,-707.8333 407.832,-707.8333 407.832,-702.1667 407.832,-702.1667 407.832,-699.3333 410.6654,-696.5 413.4987,-696.5 413.4987,-696.5 456.1654,-696.5 456.1654,-696.5 458.9987,-696.5 461.832,-699.3333 461.832,-702.1667 461.832,-702.1667 461.832,-707.8333 461.832,-707.8333 461.832,-710.6667 458.9987,-713.5 456.1654,-713.5"/>
<text text-anchor="middle" x="434.832" y="-702.3" font-family="Helvetica,sans-Serif" font-size="9.00" fill="#000000">index.js</text>
</a>
</g>
</g>
<!-- lib/gen&#45;dinamic&#45;data/gen&#45;company&#45;registration&#45;number/crn&#45;br/index.js&#45;&gt;lib/gen&#45;dinamic&#45;data/gen&#45;company&#45;registration&#45;number/crn&#45;br/gen&#45;cnpj.js -->
<g id="edge23" class="edge">
<title>lib/gen&#45;dinamic&#45;data/gen&#45;company&#45;registration&#45;number/crn&#45;br/index.js&#45;&gt;lib/gen&#45;dinamic&#45;data/gen&#45;company&#45;registration&#45;number/crn&#45;br/gen&#45;cnpj.js</title>
<path fill="none" stroke="#000000" stroke-width="2" stroke-opacity="0.466667" d="M461.8783,-705C479.4801,-705 502.7445,-705 522.4553,-705"/>
<polygon fill="#000000" fill-opacity="0.466667" stroke="#000000" stroke-width="2" stroke-opacity="0.466667" points="522.6849,-708.5001 532.6849,-705 522.6848,-701.5001 522.6849,-708.5001"/>
</g>
<!-- lib/gen&#45;dinamic&#45;data/gen&#45;company&#45;registration&#45;number/crn&#45;static.js -->
<g id="node17" class="node">
<title>lib/gen&#45;dinamic&#45;data/gen&#45;company&#45;registration&#45;number/crn&#45;static.js</title>
<g id="a_node17"><a xlink:href="lib/gen-dinamic-data/gen-company-registration-number/crn-static.js" xlink:title="crn&#45;static.js">
<path fill="#ffffcc" stroke="#000000" d="M341.1466,-769.5C341.1466,-769.5 291.4652,-769.5 291.4652,-769.5 288.6319,-769.5 285.7986,-766.6667 285.7986,-763.8333 285.7986,-763.8333 285.7986,-758.1667 285.7986,-758.1667 285.7986,-755.3333 288.6319,-752.5 291.4652,-752.5 291.4652,-752.5 341.1466,-752.5 341.1466,-752.5 343.9799,-752.5 346.8133,-755.3333 346.8133,-758.1667 346.8133,-758.1667 346.8133,-763.8333 346.8133,-763.8333 346.8133,-766.6667 343.9799,-769.5 341.1466,-769.5"/>
<text text-anchor="middle" x="316.3059" y="-758.3" font-family="Helvetica,sans-Serif" font-size="9.00" fill="#000000">crn&#45;static.js</text>
</a>
</g>
</g>
<!-- lib/gen&#45;dinamic&#45;data/gen&#45;company&#45;registration&#45;number/index.js -->
<g id="node18" class="node">
<title>lib/gen&#45;dinamic&#45;data/gen&#45;company&#45;registration&#45;number/index.js</title>
<g id="a_node18"><a xlink:href="lib/gen-dinamic-data/gen-company-registration-number/index.js" xlink:title="index.js">
<path fill="#ffffcc" stroke="#000000" d="M337.6392,-713.5C337.6392,-713.5 294.9726,-713.5 294.9726,-713.5 292.1392,-713.5 289.3059,-710.6667 289.3059,-707.8333 289.3059,-707.8333 289.3059,-702.1667 289.3059,-702.1667 289.3059,-699.3333 292.1392,-696.5 294.9726,-696.5 294.9726,-696.5 337.6392,-696.5 337.6392,-696.5 340.4726,-696.5 343.3059,-699.3333 343.3059,-702.1667 343.3059,-702.1667 343.3059,-707.8333 343.3059,-707.8333 343.3059,-710.6667 340.4726,-713.5 337.6392,-713.5"/>
<text text-anchor="middle" x="316.3059" y="-702.3" font-family="Helvetica,sans-Serif" font-size="9.00" fill="#000000">index.js</text>
</a>
</g>
</g>
<!-- lib/gen&#45;dinamic&#45;data/gen&#45;company&#45;registration&#45;number/index.js&#45;&gt;lib/gen&#45;dinamic&#45;data/gen&#45;company&#45;registration&#45;number/crn&#45;br/index.js -->
<g id="edge24" class="edge">
<title>lib/gen&#45;dinamic&#45;data/gen&#45;company&#45;registration&#45;number/index.js&#45;&gt;lib/gen&#45;dinamic&#45;data/gen&#45;company&#45;registration&#45;number/crn&#45;br/index.js</title>
<path fill="none" stroke="#000000" stroke-width="2" stroke-opacity="0.466667" d="M343.4982,-705C359.459,-705 379.8611,-705 397.3325,-705"/>
<polygon fill="#000000" fill-opacity="0.466667" stroke="#000000" stroke-width="2" stroke-opacity="0.466667" points="397.7663,-708.5001 407.7663,-705 397.7662,-701.5001 397.7663,-708.5001"/>
</g>
<!-- lib/gen&#45;dinamic&#45;data/gen&#45;company.js -->
<g id="node19" class="node">
<title>lib/gen&#45;dinamic&#45;data/gen&#45;company.js</title>
<g id="a_node19"><a xlink:href="lib/gen-dinamic-data/gen-company.js" xlink:title="gen&#45;company.js">
<path fill="#ffffcc" stroke="#000000" d="M468.5336,-214.5C468.5336,-214.5 401.1304,-214.5 401.1304,-214.5 398.2971,-214.5 395.4638,-211.6667 395.4638,-208.8333 395.4638,-208.8333 395.4638,-203.1667 395.4638,-203.1667 395.4638,-200.3333 398.2971,-197.5 401.1304,-197.5 401.1304,-197.5 468.5336,-197.5 468.5336,-197.5 471.367,-197.5 474.2003,-200.3333 474.2003,-203.1667 474.2003,-203.1667 474.2003,-208.8333 474.2003,-208.8333 474.2003,-211.6667 471.367,-214.5 468.5336,-214.5"/>
<text text-anchor="middle" x="434.832" y="-203.3" font-family="Helvetica,sans-Serif" font-size="9.00" fill="#000000">gen&#45;company.js</text>
</a>
</g>
</g>
<!-- lib/gen&#45;dinamic&#45;data/gen&#45;national&#45;id/index.js -->
<g id="node20" class="node">
<title>lib/gen&#45;dinamic&#45;data/gen&#45;national&#45;id/index.js</title>
<g id="a_node20"><a xlink:href="lib/gen-dinamic-data/gen-national-id/index.js" xlink:title="index.js">
<path fill="#ffffcc" stroke="#000000" d="M456.1654,-595.5C456.1654,-595.5 413.4987,-595.5 413.4987,-595.5 410.6654,-595.5 407.832,-592.6667 407.832,-589.8333 407.832,-589.8333 407.832,-584.1667 407.832,-584.1667 407.832,-581.3333 410.6654,-578.5 413.4987,-578.5 413.4987,-578.5 456.1654,-578.5 456.1654,-578.5 458.9987,-578.5 461.832,-581.3333 461.832,-584.1667 461.832,-584.1667 461.832,-589.8333 461.832,-589.8333 461.832,-592.6667 458.9987,-595.5 456.1654,-595.5"/>
<text text-anchor="middle" x="434.832" y="-584.3" font-family="Helvetica,sans-Serif" font-size="9.00" fill="#000000">index.js</text>
</a>
</g>
</g>
<!-- lib/gen&#45;dinamic&#45;data/gen&#45;national&#45;id/it.national&#45;id/index.js -->
<g id="node23" class="node">
<title>lib/gen&#45;dinamic&#45;data/gen&#45;national&#45;id/it.national&#45;id/index.js</title>
<g id="a_node23"><a xlink:href="lib/gen-dinamic-data/gen-national-id/it.national-id/index.js" xlink:title="index.js">
<path fill="#ffffcc" stroke="#000000" d="M583.6976,-595.5C583.6976,-595.5 541.0309,-595.5 541.0309,-595.5 538.1976,-595.5 535.3643,-592.6667 535.3643,-589.8333 535.3643,-589.8333 535.3643,-584.1667 535.3643,-584.1667 535.3643,-581.3333 538.1976,-578.5 541.0309,-578.5 541.0309,-578.5 583.6976,-578.5 583.6976,-578.5 586.5309,-578.5 589.3643,-581.3333 589.3643,-584.1667 589.3643,-584.1667 589.3643,-589.8333 589.3643,-589.8333 589.3643,-592.6667 586.5309,-595.5 583.6976,-595.5"/>
<text text-anchor="middle" x="562.3643" y="-584.3" font-family="Helvetica,sans-Serif" font-size="9.00" fill="#000000">index.js</text>
</a>
</g>
</g>
<!-- lib/gen&#45;dinamic&#45;data/gen&#45;national&#45;id/index.js&#45;&gt;lib/gen&#45;dinamic&#45;data/gen&#45;national&#45;id/it.national&#45;id/index.js -->
<g id="edge25" class="edge">
<title>lib/gen&#45;dinamic&#45;data/gen&#45;national&#45;id/index.js&#45;&gt;lib/gen&#45;dinamic&#45;data/gen&#45;national&#45;id/it.national&#45;id/index.js</title>
<path fill="none" stroke="#000000" stroke-width="2" stroke-opacity="0.466667" d="M461.8783,-587C480.3084,-587 504.9465,-587 525.2132,-587"/>
<polygon fill="#000000" fill-opacity="0.466667" stroke="#000000" stroke-width="2" stroke-opacity="0.466667" points="525.357,-590.5001 535.3569,-587 525.3569,-583.5001 525.357,-590.5001"/>
</g>
<!-- lib/gen&#45;dinamic&#45;data/gen&#45;national&#45;id/static&#45;nat&#45;ids.js -->
<g id="node24" class="node">
<title>lib/gen&#45;dinamic&#45;data/gen&#45;national&#45;id/static&#45;nat&#45;ids.js</title>
<g id="a_node24"><a xlink:href="lib/gen-dinamic-data/gen-national-id/static-nat-ids.js" xlink:title="static&#45;nat&#45;ids.js">
<path fill="#ffffcc" stroke="#000000" d="M594.7137,-646.5C594.7137,-646.5 530.0148,-646.5 530.0148,-646.5 527.1815,-646.5 524.3481,-643.6667 524.3481,-640.8333 524.3481,-640.8333 524.3481,-635.1667 524.3481,-635.1667 524.3481,-632.3333 527.1815,-629.5 530.0148,-629.5 530.0148,-629.5 594.7137,-629.5 594.7137,-629.5 597.547,-629.5 600.3804,-632.3333 600.3804,-635.1667 600.3804,-635.1667 600.3804,-640.8333 600.3804,-640.8333 600.3804,-643.6667 597.547,-646.5 594.7137,-646.5"/>
<text text-anchor="middle" x="562.3643" y="-635.3" font-family="Helvetica,sans-Serif" font-size="9.00" fill="#000000">static&#45;nat&#45;ids.js</text>
</a>
</g>
</g>
<!-- lib/gen&#45;dinamic&#45;data/gen&#45;national&#45;id/index.js&#45;&gt;lib/gen&#45;dinamic&#45;data/gen&#45;national&#45;id/static&#45;nat&#45;ids.js -->
<g id="edge26" class="edge">
<title>lib/gen&#45;dinamic&#45;data/gen&#45;national&#45;id/index.js&#45;&gt;lib/gen&#45;dinamic&#45;data/gen&#45;national&#45;id/static&#45;nat&#45;ids.js</title>
<path fill="none" stroke="#000000" stroke-width="2" stroke-opacity="0.466667" d="M451.8693,-595.6442C468.0171,-603.6346 493.084,-615.5189 515.6006,-624 517.6626,-624.7767 519.7881,-625.54 521.943,-626.2847"/>
<polygon fill="#000000" fill-opacity="0.466667" stroke="#000000" stroke-width="2" stroke-opacity="0.466667" points="520.8798,-629.6194 531.4727,-629.4137 523.0636,-622.9687 520.8798,-629.6194"/>
</g>
<!-- lib/gen&#45;dinamic&#45;data/gen&#45;national&#45;id/it.national&#45;id/CodiceFiscale.js -->
<g id="node21" class="node">
<title>lib/gen&#45;dinamic&#45;data/gen&#45;national&#45;id/it.national&#45;id/CodiceFiscale.js</title>
<g id="a_node21"><a xlink:href="lib/gen-dinamic-data/gen-national-id/it.national-id/CodiceFiscale.js" xlink:title="CodiceFiscale.js">
<path fill="#ffffcc" stroke="#000000" d="M709.259,-595.5C709.259,-595.5 639.5447,-595.5 639.5447,-595.5 636.7113,-595.5 633.878,-592.6667 633.878,-589.8333 633.878,-589.8333 633.878,-584.1667 633.878,-584.1667 633.878,-581.3333 636.7113,-578.5 639.5447,-578.5 639.5447,-578.5 709.259,-578.5 709.259,-578.5 712.0924,-578.5 714.9257,-581.3333 714.9257,-584.1667 714.9257,-584.1667 714.9257,-589.8333 714.9257,-589.8333 714.9257,-592.6667 712.0924,-595.5 709.259,-595.5"/>
<text text-anchor="middle" x="674.4019" y="-584.3" font-family="Helvetica,sans-Serif" font-size="9.00" fill="#000000">CodiceFiscale.js</text>
</a>
</g>
</g>
<!-- lib/gen&#45;dinamic&#45;data/gen&#45;national&#45;id/it.national&#45;id/constants.js -->
<g id="node22" class="node">
<title>lib/gen&#45;dinamic&#45;data/gen&#45;national&#45;id/it.national&#45;id/constants.js</title>
<g id="a_node22"><a xlink:href="lib/gen-dinamic-data/gen-national-id/it.national-id/constants.js" xlink:title="constants.js">
<path fill="#ffffcc" stroke="#000000" d="M828.0507,-595.5C828.0507,-595.5 776.3355,-595.5 776.3355,-595.5 773.5022,-595.5 770.6689,-592.6667 770.6689,-589.8333 770.6689,-589.8333 770.6689,-584.1667 770.6689,-584.1667 770.6689,-581.3333 773.5022,-578.5 776.3355,-578.5 776.3355,-578.5 828.0507,-578.5 828.0507,-578.5 830.884,-578.5 833.7174,-581.3333 833.7174,-584.1667 833.7174,-584.1667 833.7174,-589.8333 833.7174,-589.8333 833.7174,-592.6667 830.884,-595.5 828.0507,-595.5"/>
<text text-anchor="middle" x="802.1931" y="-584.3" font-family="Helvetica,sans-Serif" font-size="9.00" fill="#000000">constants.js</text>
</a>
</g>
</g>
<!-- lib/gen&#45;dinamic&#45;data/gen&#45;national&#45;id/it.national&#45;id/CodiceFiscale.js&#45;&gt;lib/gen&#45;dinamic&#45;data/gen&#45;national&#45;id/it.national&#45;id/constants.js -->
<g id="edge27" class="edge">
<title>lib/gen&#45;dinamic&#45;data/gen&#45;national&#45;id/it.national&#45;id/CodiceFiscale.js&#45;&gt;lib/gen&#45;dinamic&#45;data/gen&#45;national&#45;id/it.national&#45;id/constants.js</title>
<path fill="none" stroke="#000000" stroke-width="2" stroke-opacity="0.466667" d="M715.1872,-587C729.5291,-587 745.6663,-587 760.1127,-587"/>
<polygon fill="#000000" fill-opacity="0.466667" stroke="#000000" stroke-width="2" stroke-opacity="0.466667" points="760.2834,-590.5001 770.2833,-587 760.2833,-583.5001 760.2834,-590.5001"/>
</g>
<!-- lib/gen&#45;dinamic&#45;data/gen&#45;national&#45;id/it.national&#45;id/index.js&#45;&gt;lib/gen&#45;dinamic&#45;data/gen&#45;national&#45;id/it.national&#45;id/CodiceFiscale.js -->
<g id="edge28" class="edge">
<title>lib/gen&#45;dinamic&#45;data/gen&#45;national&#45;id/it.national&#45;id/index.js&#45;&gt;lib/gen&#45;dinamic&#45;data/gen&#45;national&#45;id/it.national&#45;id/CodiceFiscale.js</title>
<path fill="none" stroke="#000000" stroke-width="2" stroke-opacity="0.466667" d="M589.4854,-587C599.7036,-587 611.6882,-587 623.3801,-587"/>
<polygon fill="#000000" fill-opacity="0.466667" stroke="#000000" stroke-width="2" stroke-opacity="0.466667" points="623.5278,-590.5001 633.5277,-587 623.5277,-583.5001 623.5278,-590.5001"/>
</g>
<!-- lib/gen&#45;dinamic&#45;data/gen&#45;phone&#45;number.js -->
<g id="node25" class="node">
<title>lib/gen&#45;dinamic&#45;data/gen&#45;phone&#45;number.js</title>
<g id="a_node25"><a xlink:href="lib/gen-dinamic-data/gen-phone-number.js" xlink:title="gen&#45;phone&#45;number.js">
<path fill="#ffffcc" stroke="#000000" d="M479.7259,-243.5C479.7259,-243.5 389.9381,-243.5 389.9381,-243.5 387.1048,-243.5 384.2715,-240.6667 384.2715,-237.8333 384.2715,-237.8333 384.2715,-232.1667 384.2715,-232.1667 384.2715,-229.3333 387.1048,-226.5 389.9381,-226.5 389.9381,-226.5 479.7259,-226.5 479.7259,-226.5 482.5593,-226.5 485.3926,-229.3333 485.3926,-232.1667 485.3926,-232.1667 485.3926,-237.8333 485.3926,-237.8333 485.3926,-240.6667 482.5593,-243.5 479.7259,-243.5"/>
<text text-anchor="middle" x="434.832" y="-232.3" font-family="Helvetica,sans-Serif" font-size="9.00" fill="#000000">gen&#45;phone&#45;number.js</text>
</a>
</g>
</g>
<!-- lib/gen&#45;dinamic&#45;data/gen&#45;phone&#45;number.js&#45;&gt;lib/data/index.js -->
<g id="edge29" class="edge">
<title>lib/gen&#45;dinamic&#45;data/gen&#45;phone&#45;number.js&#45;&gt;lib/data/index.js</title>
<path fill="none" stroke="#000000" stroke-width="2" stroke-opacity="0.466667" d="M485.4922,-233.0603C493.6986,-230.6871 501.4935,-226.8991 507.6006,-221 519.0774,-209.914 508.3194,-200.1987 515.6006,-186 522.8465,-171.8701 534.7161,-158.4826 544.6834,-148.6974"/>
<polygon fill="#000000" fill-opacity="0.466667" stroke="#000000" stroke-width="2" stroke-opacity="0.466667" points="547.2601,-151.0787 552.1445,-141.6769 542.4632,-145.9807 547.2601,-151.0787"/>
</g>
<!-- lib/gen&#45;dinamic&#45;data/gen&#45;phone&#45;number.js&#45;&gt;lib/gen&#45;dinamic&#45;data/gen&#45;random&#45;var/index.js -->
<g id="edge30" class="edge">
<title>lib/gen&#45;dinamic&#45;data/gen&#45;phone&#45;number.js&#45;&gt;lib/gen&#45;dinamic&#45;data/gen&#45;random&#45;var/index.js</title>
<path fill="none" stroke="#000000" stroke-width="2" stroke-opacity="0.466667" d="M485.6859,-231.0599C493.4993,-228.8539 501.1128,-225.6401 507.6006,-221 513.4296,-216.831 509.4022,-210.597 515.6006,-207 554.3412,-184.518 579.1363,-182.1187 616.3813,-207 657.4939,-234.465 669.5123,-297.0477 672.997,-328.3907"/>
<polygon fill="#000000" fill-opacity="0.466667" stroke="#000000" stroke-width="2" stroke-opacity="0.466667" points="669.5172,-328.771 673.9328,-338.4018 676.4868,-328.1194 669.5172,-328.771"/>
</g>
<!-- lib/gen&#45;dinamic&#45;data/gen&#45;random&#45;var/__tests/gen.spec.js -->
<g id="node26" class="node">
<title>lib/gen&#45;dinamic&#45;data/gen&#45;random&#45;var/__tests/gen.spec.js</title>
<g id="a_node26"><a xlink:href="lib/gen-dinamic-data/gen-random-var/__tests/gen.spec.js" xlink:title="gen.spec.js">
<path fill="#ffffcc" stroke="#000000" d="M587.2267,-357.5C587.2267,-357.5 537.5018,-357.5 537.5018,-357.5 534.6684,-357.5 531.8351,-354.6667 531.8351,-351.8333 531.8351,-351.8333 531.8351,-346.1667 531.8351,-346.1667 531.8351,-343.3333 534.6684,-340.5 537.5018,-340.5 537.5018,-340.5 587.2267,-340.5 587.2267,-340.5 590.0601,-340.5 592.8934,-343.3333 592.8934,-346.1667 592.8934,-346.1667 592.8934,-351.8333 592.8934,-351.8333 592.8934,-354.6667 590.0601,-357.5 587.2267,-357.5"/>
<text text-anchor="middle" x="562.3643" y="-346.3" font-family="Helvetica,sans-Serif" font-size="9.00" fill="#000000">gen.spec.js</text>
</a>
</g>
</g>
<!-- lib/gen&#45;dinamic&#45;data/gen&#45;random&#45;var/__tests/gen.spec.js&#45;&gt;lib/gen&#45;dinamic&#45;data/gen&#45;random&#45;var/index.js -->
<g id="edge31" class="edge">
<title>lib/gen&#45;dinamic&#45;data/gen&#45;random&#45;var/__tests/gen.spec.js&#45;&gt;lib/gen&#45;dinamic&#45;data/gen&#45;random&#45;var/index.js</title>
<path fill="none" stroke="#000000" stroke-width="2" stroke-opacity="0.466667" d="M592.979,-348.4535C606.6385,-348.2097 622.8546,-347.9202 637.2058,-347.664"/>
<polygon fill="#000000" fill-opacity="0.466667" stroke="#000000" stroke-width="2" stroke-opacity="0.466667" points="637.3269,-351.1625 647.2628,-347.4845 637.2019,-344.1636 637.3269,-351.1625"/>
</g>
<!-- lib/gen&#45;dinamic&#45;data/gen&#45;random&#45;var/__tests/get.spec.js -->
<g id="node27" class="node">
<title>lib/gen&#45;dinamic&#45;data/gen&#45;random&#45;var/__tests/get.spec.js</title>
<g id="a_node27"><a xlink:href="lib/gen-dinamic-data/gen-random-var/__tests/get.spec.js" xlink:title="get.spec.js">
<path fill="#ffffcc" stroke="#000000" d="M586.2201,-328.5C586.2201,-328.5 538.5085,-328.5 538.5085,-328.5 535.6751,-328.5 532.8418,-325.6667 532.8418,-322.8333 532.8418,-322.8333 532.8418,-317.1667 532.8418,-317.1667 532.8418,-314.3333 535.6751,-311.5 538.5085,-311.5 538.5085,-311.5 586.2201,-311.5 586.2201,-311.5 589.0534,-311.5 591.8867,-314.3333 591.8867,-317.1667 591.8867,-317.1667 591.8867,-322.8333 591.8867,-322.8333 591.8867,-325.6667 589.0534,-328.5 586.2201,-328.5"/>
<text text-anchor="middle" x="562.3643" y="-317.3" font-family="Helvetica,sans-Serif" font-size="9.00" fill="#000000">get.spec.js</text>
</a>
</g>
</g>
<!-- lib/gen&#45;dinamic&#45;data/gen&#45;random&#45;var/__tests/get.spec.js&#45;&gt;lib/gen&#45;dinamic&#45;data/gen&#45;random&#45;var/index.js -->
<g id="edge32" class="edge">
<title>lib/gen&#45;dinamic&#45;data/gen&#45;random&#45;var/__tests/get.spec.js&#45;&gt;lib/gen&#45;dinamic&#45;data/gen&#45;random&#45;var/index.js</title>
<path fill="none" stroke="#000000" stroke-width="2" stroke-opacity="0.466667" d="M592.0941,-327.1646C605.9996,-330.5157 622.7001,-334.5404 637.413,-338.086"/>
<polygon fill="#000000" fill-opacity="0.466667" stroke="#000000" stroke-width="2" stroke-opacity="0.466667" points="636.6809,-341.5097 647.2226,-340.4501 638.3209,-334.7046 636.6809,-341.5097"/>
</g>
<!-- lib/gen&#45;dinamic&#45;data/gen&#45;random&#45;var/gen&#45;random&#45;number.js -->
<g id="node28" class="node">
<title>lib/gen&#45;dinamic&#45;data/gen&#45;random&#45;var/gen&#45;random&#45;number.js</title>
<g id="a_node28"><a xlink:href="lib/gen-dinamic-data/gen-random-var/gen-random-number.js" xlink:title="gen&#45;random&#45;number.js">
<path fill="#ffffcc" stroke="#000000" d="M849.5767,-353.5C849.5767,-353.5 754.8095,-353.5 754.8095,-353.5 751.9762,-353.5 749.1428,-350.6667 749.1428,-347.8333 749.1428,-347.8333 749.1428,-342.1667 749.1428,-342.1667 749.1428,-339.3333 751.9762,-336.5 754.8095,-336.5 754.8095,-336.5 849.5767,-336.5 849.5767,-336.5 852.41,-336.5 855.2434,-339.3333 855.2434,-342.1667 855.2434,-342.1667 855.2434,-347.8333 855.2434,-347.8333 855.2434,-350.6667 852.41,-353.5 849.5767,-353.5"/>
<text text-anchor="middle" x="802.1931" y="-342.3" font-family="Helvetica,sans-Serif" font-size="9.00" fill="#000000">gen&#45;random&#45;number.js</text>
</a>
</g>
</g>
<!-- lib/gen&#45;dinamic&#45;data/gen&#45;random&#45;var/gen&#45;random&#45;string.js -->
<g id="node29" class="node">
<title>lib/gen&#45;dinamic&#45;data/gen&#45;random&#45;var/gen&#45;random&#45;string.js</title>
<g id="a_node29"><a xlink:href="lib/gen-dinamic-data/gen-random-var/gen-random-string.js" xlink:title="gen&#45;random&#45;string.js">
<path fill="#ffffcc" stroke="#000000" d="M845.5612,-382.5C845.5612,-382.5 758.825,-382.5 758.825,-382.5 755.9917,-382.5 753.1583,-379.6667 753.1583,-376.8333 753.1583,-376.8333 753.1583,-371.1667 753.1583,-371.1667 753.1583,-368.3333 755.9917,-365.5 758.825,-365.5 758.825,-365.5 845.5612,-365.5 845.5612,-365.5 848.3946,-365.5 851.2279,-368.3333 851.2279,-371.1667 851.2279,-371.1667 851.2279,-376.8333 851.2279,-376.8333 851.2279,-379.6667 848.3946,-382.5 845.5612,-382.5"/>
<text text-anchor="middle" x="802.1931" y="-371.3" font-family="Helvetica,sans-Serif" font-size="9.00" fill="#000000">gen&#45;random&#45;string.js</text>
</a>
</g>
</g>
<!-- lib/gen&#45;dinamic&#45;data/gen&#45;random&#45;var/get&#45;random&#45;array&#45;element.js -->
<g id="node30" class="node">
<title>lib/gen&#45;dinamic&#45;data/gen&#45;random&#45;var/get&#45;random&#45;array&#45;element.js</title>
<g id="a_node30"><a xlink:href="lib/gen-dinamic-data/gen-random-var/get-random-array-element.js" xlink:title="get&#45;random&#45;array&#45;element.js">
<path fill="#ffffcc" stroke="#000000" d="M861.0688,-324.5C861.0688,-324.5 743.3175,-324.5 743.3175,-324.5 740.4841,-324.5 737.6508,-321.6667 737.6508,-318.8333 737.6508,-318.8333 737.6508,-313.1667 737.6508,-313.1667 737.6508,-310.3333 740.4841,-307.5 743.3175,-307.5 743.3175,-307.5 861.0688,-307.5 861.0688,-307.5 863.9021,-307.5 866.7354,-310.3333 866.7354,-313.1667 866.7354,-313.1667 866.7354,-318.8333 866.7354,-318.8333 866.7354,-321.6667 863.9021,-324.5 861.0688,-324.5"/>
<text text-anchor="middle" x="802.1931" y="-313.3" font-family="Helvetica,sans-Serif" font-size="9.00" fill="#000000">get&#45;random&#45;array&#45;element.js</text>
</a>
</g>
</g>
<!-- lib/gen&#45;dinamic&#45;data/gen&#45;random&#45;var/index.js&#45;&gt;lib/gen&#45;dinamic&#45;data/gen&#45;random&#45;var/gen&#45;random&#45;number.js -->
<g id="edge33" class="edge">
<title>lib/gen&#45;dinamic&#45;data/gen&#45;random&#45;var/index.js&#45;&gt;lib/gen&#45;dinamic&#45;data/gen&#45;random&#45;var/gen&#45;random&#45;number.js</title>
<path fill="none" stroke="#000000" stroke-width="2" stroke-opacity="0.466667" d="M701.5031,-346.5759C712.5376,-346.4032 725.7929,-346.1957 739.0078,-345.9889"/>
<polygon fill="#000000" fill-opacity="0.466667" stroke="#000000" stroke-width="2" stroke-opacity="0.466667" points="739.1239,-349.4876 749.0679,-345.8314 739.0143,-342.4885 739.1239,-349.4876"/>
</g>
<!-- lib/gen&#45;dinamic&#45;data/gen&#45;random&#45;var/index.js&#45;&gt;lib/gen&#45;dinamic&#45;data/gen&#45;random&#45;var/gen&#45;random&#45;string.js -->
<g id="edge34" class="edge">
<title>lib/gen&#45;dinamic&#45;data/gen&#45;random&#45;var/index.js&#45;&gt;lib/gen&#45;dinamic&#45;data/gen&#45;random&#45;var/gen&#45;random&#45;string.js</title>
<path fill="none" stroke="#000000" stroke-width="2" stroke-opacity="0.466667" d="M701.5031,-352.726C716.0795,-355.8057 734.5314,-359.7043 751.6459,-363.3203"/>
<polygon fill="#000000" fill-opacity="0.466667" stroke="#000000" stroke-width="2" stroke-opacity="0.466667" points="751.0211,-366.7655 761.5287,-365.4083 752.4682,-359.9167 751.0211,-366.7655"/>
</g>
<!-- lib/gen&#45;dinamic&#45;data/gen&#45;random&#45;var/index.js&#45;&gt;lib/gen&#45;dinamic&#45;data/gen&#45;random&#45;var/get&#45;random&#45;array&#45;element.js -->
<g id="edge35" class="edge">
<title>lib/gen&#45;dinamic&#45;data/gen&#45;random&#45;var/index.js&#45;&gt;lib/gen&#45;dinamic&#45;data/gen&#45;random&#45;var/get&#45;random&#45;array&#45;element.js</title>
<path fill="none" stroke="#000000" stroke-width="2" stroke-opacity="0.466667" d="M701.6683,-339.9441C712.7495,-337.1113 725.6848,-333.8488 737.4224,-331 743.0992,-329.6222 749.0628,-328.2029 754.9781,-326.8124"/>
<polygon fill="#000000" fill-opacity="0.466667" stroke="#000000" stroke-width="2" stroke-opacity="0.466667" points="755.8863,-330.1946 764.8281,-324.5119 754.2942,-323.378 755.8863,-330.1946"/>
</g>
<!-- lib/gen&#45;dinamic&#45;data/gen&#45;vat.js -->
<g id="node32" class="node">
<title>lib/gen&#45;dinamic&#45;data/gen&#45;vat.js</title>
<g id="a_node32"><a xlink:href="lib/gen-dinamic-data/gen-vat.js" xlink:title="gen&#45;vat.js">
<path fill="#ffffcc" stroke="#000000" d="M456.6844,-316.5C456.6844,-316.5 412.9797,-316.5 412.9797,-316.5 410.1463,-316.5 407.313,-313.6667 407.313,-310.8333 407.313,-310.8333 407.313,-305.1667 407.313,-305.1667 407.313,-302.3333 410.1463,-299.5 412.9797,-299.5 412.9797,-299.5 456.6844,-299.5 456.6844,-299.5 459.5177,-299.5 462.3511,-302.3333 462.3511,-305.1667 462.3511,-305.1667 462.3511,-310.8333 462.3511,-310.8333 462.3511,-313.6667 459.5177,-316.5 456.6844,-316.5"/>
<text text-anchor="middle" x="434.832" y="-305.3" font-family="Helvetica,sans-Serif" font-size="9.00" fill="#000000">gen&#45;vat.js</text>
</a>
</g>
</g>
<!-- lib/gen&#45;dinamic&#45;data/gen&#45;vat.js&#45;&gt;lib/gen&#45;dinamic&#45;data/gen&#45;random&#45;var/index.js -->
<g id="edge36" class="edge">
<title>lib/gen&#45;dinamic&#45;data/gen&#45;vat.js&#45;&gt;lib/gen&#45;dinamic&#45;data/gen&#45;random&#45;var/index.js</title>
<path fill="none" stroke="#000000" stroke-width="2" stroke-opacity="0.466667" d="M462.4941,-307.5446C477.588,-305.8739 495.5909,-301.3553 507.6006,-290 516.3857,-281.6937 505.8754,-271.1828 515.6006,-264 533.6155,-250.6947 596.5201,-253.651 616.3813,-264 642.4177,-277.5666 659.1744,-308.7502 667.6794,-328.7952"/>
<polygon fill="#000000" fill-opacity="0.466667" stroke="#000000" stroke-width="2" stroke-opacity="0.466667" points="664.5313,-330.3513 671.4714,-338.3566 671.0382,-327.7706 664.5313,-330.3513"/>
</g>
<!-- lib/gen&#45;dinamic&#45;data/index.js -->
<g id="node33" class="node">
<title>lib/gen&#45;dinamic&#45;data/index.js</title>
<g id="a_node33"><a xlink:href="lib/gen-dinamic-data/index.js" xlink:title="index.js">
<path fill="#ffffcc" stroke="#000000" d="M337.6392,-283.5C337.6392,-283.5 294.9726,-283.5 294.9726,-283.5 292.1392,-283.5 289.3059,-280.6667 289.3059,-277.8333 289.3059,-277.8333 289.3059,-272.1667 289.3059,-272.1667 289.3059,-269.3333 292.1392,-266.5 294.9726,-266.5 294.9726,-266.5 337.6392,-266.5 337.6392,-266.5 340.4726,-266.5 343.3059,-269.3333 343.3059,-272.1667 343.3059,-272.1667 343.3059,-277.8333 343.3059,-277.8333 343.3059,-280.6667 340.4726,-283.5 337.6392,-283.5"/>
<text text-anchor="middle" x="316.3059" y="-272.3" font-family="Helvetica,sans-Serif" font-size="9.00" fill="#000000">index.js</text>
</a>
</g>
</g>
<!-- lib/gen&#45;dinamic&#45;data/index.js&#45;&gt;lib/gen&#45;dinamic&#45;data/gen&#45;address/index.js -->
<g id="edge37" class="edge">
<title>lib/gen&#45;dinamic&#45;data/index.js&#45;&gt;lib/gen&#45;dinamic&#45;data/gen&#45;address/index.js</title>
<path fill="none" stroke="#000000" stroke-width="2" stroke-opacity="0.466667" d="M317.997,-283.5575C324.1222,-313.6859 346.0542,-414.1566 370.0635,-435 377.6265,-441.5657 387.5949,-445.0435 397.4379,-446.7778"/>
<polygon fill="#000000" fill-opacity="0.466667" stroke="#000000" stroke-width="2" stroke-opacity="0.466667" points="397.1936,-450.2739 407.5438,-448.0103 398.0411,-443.3254 397.1936,-450.2739"/>
</g>
<!-- lib/gen&#45;dinamic&#45;data/index.js&#45;&gt;lib/gen&#45;dinamic&#45;data/gen&#45;anagrafica.js -->
<g id="edge38" class="edge">
<title>lib/gen&#45;dinamic&#45;data/index.js&#45;&gt;lib/gen&#45;dinamic&#45;data/gen&#45;anagrafica.js</title>
<path fill="none" stroke="#000000" stroke-width="2" stroke-opacity="0.466667" d="M343.4982,-272.4764C354.9354,-271.4149 368.6531,-270.1418 381.9389,-268.9088"/>
<polygon fill="#000000" fill-opacity="0.466667" stroke="#000000" stroke-width="2" stroke-opacity="0.466667" points="382.3356,-272.3871 391.9694,-267.9779 381.6887,-265.4171 382.3356,-272.3871"/>
</g>
<!-- lib/gen&#45;dinamic&#45;data/index.js&#45;&gt;lib/gen&#45;dinamic&#45;data/gen&#45;birthday.js -->
<g id="edge39" class="edge">
<title>lib/gen&#45;dinamic&#45;data/index.js&#45;&gt;lib/gen&#45;dinamic&#45;data/gen&#45;birthday.js</title>
<path fill="none" stroke="#000000" stroke-width="2" stroke-opacity="0.466667" d="M343.5878,-279.5379C390.1676,-286.6505 482.4476,-297.7811 507.6006,-279 517.6291,-271.5119 507.1088,-261.1941 515.6006,-252 516.9729,-250.5142 518.4817,-249.1498 520.0908,-247.897"/>
<polygon fill="#000000" fill-opacity="0.466667" stroke="#000000" stroke-width="2" stroke-opacity="0.466667" points="522.1344,-250.7487 528.8055,-242.5178 518.4576,-244.7921 522.1344,-250.7487"/>
</g>
<!-- lib/gen&#45;dinamic&#45;data/index.js&#45;&gt;lib/gen&#45;dinamic&#45;data/gen&#45;company.js -->
<g id="edge40" class="edge">
<title>lib/gen&#45;dinamic&#45;data/index.js&#45;&gt;lib/gen&#45;dinamic&#45;data/gen&#45;company.js</title>
<path fill="none" stroke="#000000" stroke-width="2" stroke-opacity="0.466667" d="M322.5055,-266.2034C331.5343,-254.0817 349.4858,-232.4459 370.0635,-221 374.8547,-218.335 380.0977,-216.1425 385.46,-214.339"/>
<polygon fill="#000000" fill-opacity="0.466667" stroke="#000000" stroke-width="2" stroke-opacity="0.466667" points="386.5564,-217.665 395.169,-211.4947 384.5883,-210.9473 386.5564,-217.665"/>
</g>
<!-- lib/gen&#45;dinamic&#45;data/index.js&#45;&gt;lib/gen&#45;dinamic&#45;data/gen&#45;national&#45;id/index.js -->
<g id="edge41" class="edge">
<title>lib/gen&#45;dinamic&#45;data/index.js&#45;&gt;lib/gen&#45;dinamic&#45;data/gen&#45;national&#45;id/index.js</title>
<path fill="none" stroke="#000000" stroke-width="2" stroke-opacity="0.466667" d="M316.8995,-283.5984C319.978,-325.9925 335.3366,-512.5035 370.0635,-557 377.185,-566.125 387.7323,-572.5851 398.2573,-577.11"/>
<polygon fill="#000000" fill-opacity="0.466667" stroke="#000000" stroke-width="2" stroke-opacity="0.466667" points="397.2268,-580.4626 407.818,-580.7425 399.7131,-573.919 397.2268,-580.4626"/>
</g>
<!-- lib/gen&#45;dinamic&#45;data/index.js&#45;&gt;lib/gen&#45;dinamic&#45;data/gen&#45;phone&#45;number.js -->
<g id="edge42" class="edge">
<title>lib/gen&#45;dinamic&#45;data/index.js&#45;&gt;lib/gen&#45;dinamic&#45;data/gen&#45;phone&#45;number.js</title>
<path fill="none" stroke="#000000" stroke-width="2" stroke-opacity="0.466667" d="M332.4104,-266.4362C342.9043,-261.1274 357.0218,-254.4881 370.0635,-250 374.0539,-248.6268 378.2256,-247.3398 382.4455,-246.1425"/>
<polygon fill="#000000" fill-opacity="0.466667" stroke="#000000" stroke-width="2" stroke-opacity="0.466667" points="383.5544,-249.4692 392.3166,-243.5131 381.7526,-242.7051 383.5544,-249.4692"/>
</g>
<!-- lib/gen&#45;dinamic&#45;data/index.js&#45;&gt;lib/gen&#45;dinamic&#45;data/gen&#45;vat.js -->
<g id="edge43" class="edge">
<title>lib/gen&#45;dinamic&#45;data/index.js&#45;&gt;lib/gen&#45;dinamic&#45;data/gen&#45;vat.js</title>
<path fill="none" stroke="#000000" stroke-width="2" stroke-opacity="0.466667" d="M343.3765,-282.5594C351.9144,-284.942 361.3826,-287.5826 370.0635,-290 378.8857,-292.4567 388.3847,-295.0986 397.3169,-297.5812"/>
<polygon fill="#000000" fill-opacity="0.466667" stroke="#000000" stroke-width="2" stroke-opacity="0.466667" points="396.5224,-300.993 407.0944,-300.2982 398.3966,-294.2485 396.5224,-300.993"/>
</g>
<!-- lib/get&#45;static&#45;data/get&#45;static&#45;national&#45;id.js -->
<g id="node35" class="node">
<title>lib/get&#45;static&#45;data/get&#45;static&#45;national&#45;id.js</title>
<g id="a_node35"><a xlink:href="lib/get-static-data/get-static-national-id.js" xlink:title="get&#45;static&#45;national&#45;id.js">
<path fill="#ffffcc" stroke="#000000" d="M482.2049,-939.5C482.2049,-939.5 387.4591,-939.5 387.4591,-939.5 384.6258,-939.5 381.7925,-936.6667 381.7925,-933.8333 381.7925,-933.8333 381.7925,-928.1667 381.7925,-928.1667 381.7925,-925.3333 384.6258,-922.5 387.4591,-922.5 387.4591,-922.5 482.2049,-922.5 482.2049,-922.5 485.0383,-922.5 487.8716,-925.3333 487.8716,-928.1667 487.8716,-928.1667 487.8716,-933.8333 487.8716,-933.8333 487.8716,-936.6667 485.0383,-939.5 482.2049,-939.5"/>
<text text-anchor="middle" x="434.832" y="-928.3" font-family="Helvetica,sans-Serif" font-size="9.00" fill="#000000">get&#45;static&#45;national&#45;id.js</text>
</a>
</g>
</g>
<!-- lib/get&#45;static&#45;data/get&#45;static&#45;profile&#45;merchant.js -->
<g id="node36" class="node">
<title>lib/get&#45;static&#45;data/get&#45;static&#45;profile&#45;merchant.js</title>
<g id="a_node36"><a xlink:href="lib/get-static-data/get-static-profile-merchant.js" xlink:title="get&#45;static&#45;profile&#45;merchant.js">
<path fill="#ffffcc" stroke="#000000" d="M493.7033,-968.5C493.7033,-968.5 375.9608,-968.5 375.9608,-968.5 373.1274,-968.5 370.2941,-965.6667 370.2941,-962.8333 370.2941,-962.8333 370.2941,-957.1667 370.2941,-957.1667 370.2941,-954.3333 373.1274,-951.5 375.9608,-951.5 375.9608,-951.5 493.7033,-951.5 493.7033,-951.5 496.5366,-951.5 499.37,-954.3333 499.37,-957.1667 499.37,-957.1667 499.37,-962.8333 499.37,-962.8333 499.37,-965.6667 496.5366,-968.5 493.7033,-968.5"/>
<text text-anchor="middle" x="434.832" y="-957.3" font-family="Helvetica,sans-Serif" font-size="9.00" fill="#000000">get&#45;static&#45;profile&#45;merchant.js</text>
</a>
</g>
</g>
<!-- lib/get&#45;static&#45;data/get&#45;static&#45;profile&#45;personal.js -->
<g id="node37" class="node">
<title>lib/get&#45;static&#45;data/get&#45;static&#45;profile&#45;personal.js</title>
<g id="a_node37"><a xlink:href="lib/get-static-data/get-static-profile-personal.js" xlink:title="get&#45;static&#45;profile&#45;personal.js">
<path fill="#ffffcc" stroke="#000000" d="M492.2106,-881.5C492.2106,-881.5 377.4534,-881.5 377.4534,-881.5 374.6201,-881.5 371.7868,-878.6667 371.7868,-875.8333 371.7868,-875.8333 371.7868,-870.1667 371.7868,-870.1667 371.7868,-867.3333 374.6201,-864.5 377.4534,-864.5 377.4534,-864.5 492.2106,-864.5 492.2106,-864.5 495.0439,-864.5 497.8773,-867.3333 497.8773,-870.1667 497.8773,-870.1667 497.8773,-875.8333 497.8773,-875.8333 497.8773,-878.6667 495.0439,-881.5 492.2106,-881.5"/>
<text text-anchor="middle" x="434.832" y="-870.3" font-family="Helvetica,sans-Serif" font-size="9.00" fill="#000000">get&#45;static&#45;profile&#45;personal.js</text>
</a>
</g>
</g>
<!-- lib/get&#45;static&#45;data/get&#45;static&#45;vat&#45;id.js -->
<g id="node38" class="node">
<title>lib/get&#45;static&#45;data/get&#45;static&#45;vat&#45;id.js</title>
<g id="a_node38"><a xlink:href="lib/get-static-data/get-static-vat-id.js" xlink:title="get&#45;static&#45;vat&#45;id.js">
<path fill="#ffffcc" stroke="#000000" d="M472.1857,-910.5C472.1857,-910.5 397.4783,-910.5 397.4783,-910.5 394.645,-910.5 391.8117,-907.6667 391.8117,-904.8333 391.8117,-904.8333 391.8117,-899.1667 391.8117,-899.1667 391.8117,-896.3333 394.645,-893.5 397.4783,-893.5 397.4783,-893.5 472.1857,-893.5 472.1857,-893.5 475.0191,-893.5 477.8524,-896.3333 477.8524,-899.1667 477.8524,-899.1667 477.8524,-904.8333 477.8524,-904.8333 477.8524,-907.6667 475.0191,-910.5 472.1857,-910.5"/>
<text text-anchor="middle" x="434.832" y="-899.3" font-family="Helvetica,sans-Serif" font-size="9.00" fill="#000000">get&#45;static&#45;vat&#45;id.js</text>
</a>
</g>
</g>
<!-- lib/get&#45;static&#45;data/index.js -->
<g id="node39" class="node">
<title>lib/get&#45;static&#45;data/index.js</title>
<g id="a_node39"><a xlink:href="lib/get-static-data/index.js" xlink:title="index.js">
<path fill="#ffffcc" stroke="#000000" d="M337.6392,-910.5C337.6392,-910.5 294.9726,-910.5 294.9726,-910.5 292.1392,-910.5 289.3059,-907.6667 289.3059,-904.8333 289.3059,-904.8333 289.3059,-899.1667 289.3059,-899.1667 289.3059,-896.3333 292.1392,-893.5 294.9726,-893.5 294.9726,-893.5 337.6392,-893.5 337.6392,-893.5 340.4726,-893.5 343.3059,-896.3333 343.3059,-899.1667 343.3059,-899.1667 343.3059,-904.8333 343.3059,-904.8333 343.3059,-907.6667 340.4726,-910.5 337.6392,-910.5"/>
<text text-anchor="middle" x="316.3059" y="-899.3" font-family="Helvetica,sans-Serif" font-size="9.00" fill="#000000">index.js</text>
</a>
</g>
</g>
<!-- lib/get&#45;static&#45;data/index.js&#45;&gt;lib/get&#45;static&#45;data/get&#45;static&#45;national&#45;id.js -->
<g id="edge44" class="edge">
<title>lib/get&#45;static&#45;data/index.js&#45;&gt;lib/get&#45;static&#45;data/get&#45;static&#45;national&#45;id.js</title>
<path fill="none" stroke="#000000" stroke-width="2" stroke-opacity="0.466667" d="M343.571,-909.9452C352.0334,-912.3202 361.41,-914.8595 370.0635,-917 374.4538,-918.086 379.023,-919.1686 383.6128,-920.2232"/>
<polygon fill="#000000" fill-opacity="0.466667" stroke="#000000" stroke-width="2" stroke-opacity="0.466667" points="383.1073,-923.6969 393.6318,-922.4778 384.6442,-916.8677 383.1073,-923.6969"/>
</g>
<!-- lib/get&#45;static&#45;data/index.js&#45;&gt;lib/get&#45;static&#45;data/get&#45;static&#45;profile&#45;merchant.js -->
<g id="edge45" class="edge">
<title>lib/get&#45;static&#45;data/index.js&#45;&gt;lib/get&#45;static&#45;data/get&#45;static&#45;profile&#45;merchant.js</title>
<path fill="none" stroke="#000000" stroke-width="2" stroke-opacity="0.466667" d="M324.1778,-910.5449C333.9499,-920.6126 351.5964,-937.0931 370.0635,-946 371.4235,-946.6559 372.8143,-947.2814 374.2292,-947.8779"/>
<polygon fill="#000000" fill-opacity="0.466667" stroke="#000000" stroke-width="2" stroke-opacity="0.466667" points="373.2513,-951.2472 383.8449,-951.4072 375.6633,-944.6759 373.2513,-951.2472"/>
</g>
<!-- lib/get&#45;static&#45;data/index.js&#45;&gt;lib/get&#45;static&#45;data/get&#45;static&#45;profile&#45;personal.js -->
<g id="edge46" class="edge">
<title>lib/get&#45;static&#45;data/index.js&#45;&gt;lib/get&#45;static&#45;data/get&#45;static&#45;profile&#45;personal.js</title>
<path fill="none" stroke="#000000" stroke-width="2" stroke-opacity="0.466667" d="M343.3416,-894.8059C351.8779,-892.5756 361.3539,-890.1422 370.0635,-888 375.5274,-886.6561 381.2591,-885.28 386.9584,-883.9329"/>
<polygon fill="#000000" fill-opacity="0.466667" stroke="#000000" stroke-width="2" stroke-opacity="0.466667" points="388.1797,-887.2416 397.1174,-881.5523 386.5826,-880.4262 388.1797,-887.2416"/>
</g>
<!-- lib/get&#45;static&#45;data/index.js&#45;&gt;lib/get&#45;static&#45;data/get&#45;static&#45;vat&#45;id.js -->
<g id="edge47" class="edge">
<title>lib/get&#45;static&#45;data/index.js&#45;&gt;lib/get&#45;static&#45;data/get&#45;static&#45;vat&#45;id.js</title>
<path fill="none" stroke="#000000" stroke-width="2" stroke-opacity="0.466667" d="M343.4982,-902C354.7154,-902 368.1263,-902 381.1718,-902"/>
<polygon fill="#000000" fill-opacity="0.466667" stroke="#000000" stroke-width="2" stroke-opacity="0.466667" points="381.5068,-905.5001 391.5068,-902 381.5067,-898.5001 381.5068,-905.5001"/>
</g>
<!-- lib/index.js -->
<g id="node40" class="node">
<title>lib/index.js</title>
<g id="a_node40"><a xlink:href="lib/index.js" xlink:title="index.js">
<path fill="#ffffcc" stroke="#000000" d="M64.3333,-155.5C64.3333,-155.5 21.6667,-155.5 21.6667,-155.5 18.8333,-155.5 16,-152.6667 16,-149.8333 16,-149.8333 16,-144.1667 16,-144.1667 16,-141.3333 18.8333,-138.5 21.6667,-138.5 21.6667,-138.5 64.3333,-138.5 64.3333,-138.5 67.1667,-138.5 70,-141.3333 70,-144.1667 70,-144.1667 70,-149.8333 70,-149.8333 70,-152.6667 67.1667,-155.5 64.3333,-155.5"/>
<text text-anchor="middle" x="43" y="-144.3" font-family="Helvetica,sans-Serif" font-size="9.00" fill="#000000">index.js</text>
</a>
</g>
</g>
<!-- lib/profile/index.js -->
<g id="node45" class="node">
<title>lib/profile/index.js</title>
<g id="a_node45"><a xlink:href="lib/profile/index.js" xlink:title="index.js">
<path fill="#ffffcc" stroke="#000000" d="M158.5994,-155.5C158.5994,-155.5 115.9328,-155.5 115.9328,-155.5 113.0994,-155.5 110.2661,-152.6667 110.2661,-149.8333 110.2661,-149.8333 110.2661,-144.1667 110.2661,-144.1667 110.2661,-141.3333 113.0994,-138.5 115.9328,-138.5 115.9328,-138.5 158.5994,-138.5 158.5994,-138.5 161.4328,-138.5 164.2661,-141.3333 164.2661,-144.1667 164.2661,-144.1667 164.2661,-149.8333 164.2661,-149.8333 164.2661,-152.6667 161.4328,-155.5 158.5994,-155.5"/>
<text text-anchor="middle" x="137.2661" y="-144.3" font-family="Helvetica,sans-Serif" font-size="9.00" fill="#000000">index.js</text>
</a>
</g>
</g>
<!-- lib/index.js&#45;&gt;lib/profile/index.js -->
<g id="edge48" class="edge">
<title>lib/index.js&#45;&gt;lib/profile/index.js</title>
<path fill="none" stroke="#000000" stroke-width="2" stroke-opacity="0.466667" d="M70.0129,-147C79.3808,-147 90.0541,-147 100.0953,-147"/>
<polygon fill="#000000" fill-opacity="0.466667" stroke="#000000" stroke-width="2" stroke-opacity="0.466667" points="100.2493,-150.5001 110.2493,-147 100.2492,-143.5001 100.2493,-150.5001"/>
</g>
<!-- lib/profile/Profile.js -->
<g id="node41" class="node">
<title>lib/profile/Profile.js</title>
<g id="a_node41"><a xlink:href="lib/profile/Profile.js" xlink:title="Profile.js">
<path fill="#ffffcc" stroke="#000000" d="M337.6392,-126.5C337.6392,-126.5 294.9726,-126.5 294.9726,-126.5 292.1392,-126.5 289.3059,-123.6667 289.3059,-120.8333 289.3059,-120.8333 289.3059,-115.1667 289.3059,-115.1667 289.3059,-112.3333 292.1392,-109.5 294.9726,-109.5 294.9726,-109.5 337.6392,-109.5 337.6392,-109.5 340.4726,-109.5 343.3059,-112.3333 343.3059,-115.1667 343.3059,-115.1667 343.3059,-120.8333 343.3059,-120.8333 343.3059,-123.6667 340.4726,-126.5 337.6392,-126.5"/>
<text text-anchor="middle" x="316.3059" y="-115.3" font-family="Helvetica,sans-Serif" font-size="9.00" fill="#000000">Profile.js</text>
</a>
</g>
</g>
<!-- lib/profile/Profile.js&#45;&gt;lib/data/index.js -->
<g id="edge49" class="edge">
<title>lib/profile/Profile.js&#45;&gt;lib/data/index.js</title>
<path fill="none" stroke="#000000" stroke-width="2" stroke-opacity="0.466667" d="M343.5786,-119.6626C387.852,-122.3615 475.4223,-127.6999 525.3019,-130.7406"/>
<polygon fill="#000000" fill-opacity="0.466667" stroke="#000000" stroke-width="2" stroke-opacity="0.466667" points="525.15,-134.2378 535.3444,-131.3528 525.576,-127.2508 525.15,-134.2378"/>
</g>
<!-- lib/profile/__tests/get&#45;profile.spec.js -->
<g id="node42" class="node">
<title>lib/profile/__tests/get&#45;profile.spec.js</title>
<g id="a_node42"><a xlink:href="lib/profile/__tests/get-profile.spec.js" xlink:title="get&#45;profile.spec.js">
<path fill="#ffffcc" stroke="#000000" d="M174.6329,-104.5C174.6329,-104.5 99.8993,-104.5 99.8993,-104.5 97.066,-104.5 94.2326,-101.6667 94.2326,-98.8333 94.2326,-98.8333 94.2326,-93.1667 94.2326,-93.1667 94.2326,-90.3333 97.066,-87.5 99.8993,-87.5 99.8993,-87.5 174.6329,-87.5 174.6329,-87.5 177.4663,-87.5 180.2996,-90.3333 180.2996,-93.1667 180.2996,-93.1667 180.2996,-98.8333 180.2996,-98.8333 180.2996,-101.6667 177.4663,-104.5 174.6329,-104.5"/>
<text text-anchor="middle" x="137.2661" y="-93.3" font-family="Helvetica,sans-Serif" font-size="9.00" fill="#000000">get&#45;profile.spec.js</text>
</a>
</g>
</g>
<!-- lib/profile/get&#45;profile.js -->
<g id="node44" class="node">
<title>lib/profile/get&#45;profile.js</title>
<g id="a_node44"><a xlink:href="lib/profile/get-profile.js" xlink:title="get&#45;profile.js">
<path fill="#ffffcc" stroke="#000000" d="M255.8971,-155.5C255.8971,-155.5 202.1884,-155.5 202.1884,-155.5 199.3551,-155.5 196.5217,-152.6667 196.5217,-149.8333 196.5217,-149.8333 196.5217,-144.1667 196.5217,-144.1667 196.5217,-141.3333 199.3551,-138.5 202.1884,-138.5 202.1884,-138.5 255.8971,-138.5 255.8971,-138.5 258.7304,-138.5 261.5637,-141.3333 261.5637,-144.1667 261.5637,-144.1667 261.5637,-149.8333 261.5637,-149.8333 261.5637,-152.6667 258.7304,-155.5 255.8971,-155.5"/>
<text text-anchor="middle" x="229.0427" y="-144.3" font-family="Helvetica,sans-Serif" font-size="9.00" fill="#000000">get&#45;profile.js</text>
</a>
</g>
</g>
<!-- lib/profile/__tests/get&#45;profile.spec.js&#45;&gt;lib/profile/get&#45;profile.js -->
<g id="edge50" class="edge">
<title>lib/profile/__tests/get&#45;profile.spec.js&#45;&gt;lib/profile/get&#45;profile.js</title>
<path fill="none" stroke="#000000" stroke-width="2" stroke-opacity="0.466667" d="M178.8206,-104.5807C182.1901,-105.8599 185.4717,-107.3245 188.5322,-109 198.5951,-114.509 208.054,-123.1044 215.2971,-130.7278"/>
<polygon fill="#000000" fill-opacity="0.466667" stroke="#000000" stroke-width="2" stroke-opacity="0.466667" points="212.9249,-133.3247 222.2106,-138.4265 218.1332,-128.6477 212.9249,-133.3247"/>
</g>
<!-- lib/profile/__tests/profile.spec.js -->
<g id="node43" class="node">
<title>lib/profile/__tests/profile.spec.js</title>
<g id="a_node43"><a xlink:href="lib/profile/__tests/profile.spec.js" xlink:title="profile.spec.js">
<path fill="#ffffcc" stroke="#000000" d="M167.1234,-75.5C167.1234,-75.5 107.4089,-75.5 107.4089,-75.5 104.5755,-75.5 101.7422,-72.6667 101.7422,-69.8333 101.7422,-69.8333 101.7422,-64.1667 101.7422,-64.1667 101.7422,-61.3333 104.5755,-58.5 107.4089,-58.5 107.4089,-58.5 167.1234,-58.5 167.1234,-58.5 169.9567,-58.5 172.79,-61.3333 172.79,-64.1667 172.79,-64.1667 172.79,-69.8333 172.79,-69.8333 172.79,-72.6667 169.9567,-75.5 167.1234,-75.5"/>
<text text-anchor="middle" x="137.2661" y="-64.3" font-family="Helvetica,sans-Serif" font-size="9.00" fill="#000000">profile.spec.js</text>
</a>
</g>
</g>
<!-- lib/profile/__tests/profile.spec.js&#45;&gt;lib/profile/Profile.js -->
<g id="edge51" class="edge">
<title>lib/profile/__tests/profile.spec.js&#45;&gt;lib/profile/Profile.js</title>
<path fill="none" stroke="#000000" stroke-width="2" stroke-opacity="0.466667" d="M167.2333,-75.5363C198.0868,-84.325 246.213,-98.0338 279.3939,-107.4855"/>
<polygon fill="#000000" fill-opacity="0.466667" stroke="#000000" stroke-width="2" stroke-opacity="0.466667" points="278.5996,-110.8984 289.1759,-110.2719 280.5174,-104.1662 278.5996,-110.8984"/>
</g>
<!-- lib/profile/get&#45;profile.js&#45;&gt;lib/gen&#45;dinamic&#45;data/index.js -->
<g id="edge52" class="edge">
<title>lib/profile/get&#45;profile.js&#45;&gt;lib/gen&#45;dinamic&#45;data/index.js</title>
<path fill="none" stroke="#000000" stroke-width="2" stroke-opacity="0.466667" d="M235.0407,-155.798C249.3698,-176.8164 285.7981,-230.2504 304.6326,-257.8773"/>
<polygon fill="#000000" fill-opacity="0.466667" stroke="#000000" stroke-width="2" stroke-opacity="0.466667" points="301.9709,-260.1865 310.4958,-266.4776 307.7547,-256.2435 301.9709,-260.1865"/>
</g>
<!-- lib/profile/get&#45;profile.js&#45;&gt;lib/get&#45;static&#45;data/index.js -->
<g id="edge53" class="edge">
<title>lib/profile/get&#45;profile.js&#45;&gt;lib/get&#45;static&#45;data/index.js</title>
<path fill="none" stroke="#000000" stroke-width="2" stroke-opacity="0.466667" d="M229.3019,-155.6047C231.5669,-229.7042 248.4168,-758.9899 269.5532,-826 276.5766,-848.2667 291.5355,-870.6577 302.6514,-885.3086"/>
<polygon fill="#000000" fill-opacity="0.466667" stroke="#000000" stroke-width="2" stroke-opacity="0.466667" points="300.0435,-887.6547 308.9708,-893.3603 305.55,-883.3329 300.0435,-887.6547"/>
</g>
<!-- lib/profile/get&#45;profile.js&#45;&gt;lib/profile/Profile.js -->
<g id="edge54" class="edge">
<title>lib/profile/get&#45;profile.js&#45;&gt;lib/profile/Profile.js</title>
<path fill="none" stroke="#000000" stroke-width="2" stroke-opacity="0.466667" d="M253.4339,-138.4723C258.7401,-136.6446 264.329,-134.7405 269.5532,-133 272.7073,-131.9492 275.9854,-130.8704 279.2765,-129.7966"/>
<polygon fill="#000000" fill-opacity="0.466667" stroke="#000000" stroke-width="2" stroke-opacity="0.466667" points="280.6427,-133.0332 289.0783,-126.6228 278.4863,-126.3736 280.6427,-133.0332"/>
</g>
<!-- lib/profile/mcc&#45;validate.js -->
<g id="node46" class="node">
<title>lib/profile/mcc&#45;validate.js</title>
<g id="a_node46"><a xlink:href="lib/profile/mcc-validate.js" xlink:title="mcc&#45;validate.js">
<path fill="#ffffcc" stroke="#000000" d="M348.1559,-155.5C348.1559,-155.5 284.4559,-155.5 284.4559,-155.5 281.6226,-155.5 278.7892,-152.6667 278.7892,-149.8333 278.7892,-149.8333 278.7892,-144.1667 278.7892,-144.1667 278.7892,-141.3333 281.6226,-138.5 284.4559,-138.5 284.4559,-138.5 348.1559,-138.5 348.1559,-138.5 350.9893,-138.5 353.8226,-141.3333 353.8226,-144.1667 353.8226,-144.1667 353.8226,-149.8333 353.8226,-149.8333 353.8226,-152.6667 350.9893,-155.5 348.1559,-155.5"/>
<text text-anchor="middle" x="316.3059" y="-144.3" font-family="Helvetica,sans-Serif" font-size="9.00" fill="#000000">mcc&#45;validate.js</text>
</a>
</g>
</g>
<!-- lib/profile/get&#45;profile.js&#45;&gt;lib/profile/mcc&#45;validate.js -->
<g id="edge55" class="edge">
<title>lib/profile/get&#45;profile.js&#45;&gt;lib/profile/mcc&#45;validate.js</title>
<path fill="none" stroke="#000000" stroke-width="2" stroke-opacity="0.466667" d="M262.0332,-147C264.1448,-147 266.2917,-147 268.4527,-147"/>
<polygon fill="#000000" fill-opacity="0.466667" stroke="#000000" stroke-width="2" stroke-opacity="0.466667" points="268.5861,-150.5001 278.5861,-147 268.586,-143.5001 268.5861,-150.5001"/>
</g>
<!-- lib/profile/index.js&#45;&gt;lib/profile/get&#45;profile.js -->
<g id="edge56" class="edge">
<title>lib/profile/index.js&#45;&gt;lib/profile/get&#45;profile.js</title>
<path fill="none" stroke="#000000" stroke-width="2" stroke-opacity="0.466667" d="M164.3057,-147C171.2125,-147 178.8088,-147 186.2932,-147"/>
<polygon fill="#000000" fill-opacity="0.466667" stroke="#000000" stroke-width="2" stroke-opacity="0.466667" points="186.3546,-150.5001 196.3546,-147 186.3545,-143.5001 186.3546,-150.5001"/>
</g>
<!-- lib/profile/mcc&#45;validate.js&#45;&gt;lib/data/index.js -->
<g id="edge57" class="edge">
<title>lib/profile/mcc&#45;validate.js&#45;&gt;lib/data/index.js</title>
<path fill="none" stroke="#000000" stroke-width="2" stroke-opacity="0.466667" d="M353.9447,-144.8585C400.2814,-142.222 478.5065,-137.7713 524.8061,-135.1369"/>
<polygon fill="#000000" fill-opacity="0.466667" stroke="#000000" stroke-width="2" stroke-opacity="0.466667" points="525.2293,-138.6186 535.0143,-134.5561 524.8316,-131.6299 525.2293,-138.6186"/>
</g>
<!-- lib/profile/profile&#45;validate.js -->
<g id="node47" class="node">
<title>lib/profile/profile&#45;validate.js</title>
<g id="a_node47"><a xlink:href="lib/profile/profile-validate.js" xlink:title="profile&#45;validate.js">
<path fill="#ffffcc" stroke="#000000" d="M173.1315,-41.5C173.1315,-41.5 101.4007,-41.5 101.4007,-41.5 98.5674,-41.5 95.734,-38.6667 95.734,-35.8333 95.734,-35.8333 95.734,-30.1667 95.734,-30.1667 95.734,-27.3333 98.5674,-24.5 101.4007,-24.5 101.4007,-24.5 173.1315,-24.5 173.1315,-24.5 175.9649,-24.5 178.7982,-27.3333 178.7982,-30.1667 178.7982,-30.1667 178.7982,-35.8333 178.7982,-35.8333 178.7982,-38.6667 175.9649,-41.5 173.1315,-41.5"/>
<text text-anchor="middle" x="137.2661" y="-30.3" font-family="Helvetica,sans-Serif" font-size="9.00" fill="#000000">profile&#45;validate.js</text>
</a>
</g>
</g>
</g>
</svg>
