<?xml version="1.0" encoding="UTF-8" standalone="no"?>
<!DOCTYPE svg PUBLIC "-//W3C//DTD SVG 1.1//EN"
 "http://www.w3.org/Graphics/SVG/1.1/DTD/svg11.dtd">
<!-- Generated by graphviz version 2.40.1 (20161225.0304)
 -->
<!-- Title: dependency&#45;cruiser output Pages: 1 -->
<svg width="903pt" height="1105pt"
 viewBox="0.00 0.00 902.97 1105.00" xmlns="http://www.w3.org/2000/svg" xmlns:xlink="http://www.w3.org/1999/xlink">
<g id="graph0" class="graph" transform="scale(1 1) rotate(0) translate(4 1101)">
<title>dependency&#45;cruiser output</title>
<polygon fill="#ffffff" stroke="transparent" points="-4,4 -4,-1101 898.9688,-1101 898.9688,4 -4,4"/>
<g id="clust1" class="cluster">
<title>cluster_lib</title>
<path fill="#ffffff" stroke="#000000" stroke-width="2" d="M20,-8C20,-8 874.9688,-8 874.9688,-8 880.9688,-8 886.9688,-14 886.9688,-20 886.9688,-20 886.9688,-1077 886.9688,-1077 886.9688,-1083 880.9688,-1089 874.9688,-1089 874.9688,-1089 20,-1089 20,-1089 14,-1089 8,-1083 8,-1077 8,-1077 8,-20 8,-20 8,-14 14,-8 20,-8"/>
<text text-anchor="middle" x="447.4844" y="-1077.8" font-family="Helvetica,sans-Serif" font-weight="bold" font-size="9.00" fill="#000000">lib</text>
</g>
<g id="clust2" class="cluster">
<title>cluster_lib/data</title>
<path fill="#ffffff" stroke="#000000" stroke-width="2" d="M535.3691,-16C535.3691,-16 836.4578,-16 836.4578,-16 842.4578,-16 848.4578,-22 848.4578,-28 848.4578,-28 848.4578,-152 848.4578,-152 848.4578,-158 842.4578,-164 836.4578,-164 836.4578,-164 535.3691,-164 535.3691,-164 529.3691,-164 523.3691,-158 523.3691,-152 523.3691,-152 523.3691,-28 523.3691,-28 523.3691,-22 529.3691,-16 535.3691,-16"/>
<text text-anchor="middle" x="685.9135" y="-152.8" font-family="Helvetica,sans-Serif" font-weight="bold" font-size="9.00" fill="#000000">data</text>
</g>
<g id="clust3" class="cluster">
<title>cluster_lib/data/__tests</title>
<path fill="#ffffff" stroke="#000000" stroke-width="2" d="M642.3928,-78C642.3928,-78 698.4207,-78 698.4207,-78 704.4207,-78 710.4207,-84 710.4207,-90 710.4207,-90 710.4207,-117 710.4207,-117 710.4207,-123 704.4207,-129 698.4207,-129 698.4207,-129 642.3928,-129 642.3928,-129 636.3928,-129 630.3928,-123 630.3928,-117 630.3928,-117 630.3928,-90 630.3928,-90 630.3928,-84 636.3928,-78 642.3928,-78"/>
<text text-anchor="middle" x="670.4067" y="-117.8" font-family="Helvetica,sans-Serif" font-weight="bold" font-size="9.00" fill="#000000">__tests</text>
</g>
<g id="clust4" class="cluster">
<title>cluster_lib/gen&#45;dinamic&#45;data</title>
<path fill="#ffffff" stroke="#000000" stroke-width="2" d="M289.3108,-231C289.3108,-231 866.9688,-231 866.9688,-231 872.9688,-231 878.9688,-237 878.9688,-243 878.9688,-243 878.9688,-906 878.9688,-906 878.9688,-912 872.9688,-918 866.9688,-918 866.9688,-918 289.3108,-918 289.3108,-918 283.3108,-918 277.3108,-912 277.3108,-906 277.3108,-906 277.3108,-243 277.3108,-243 277.3108,-237 283.3108,-231 289.3108,-231"/>
<text text-anchor="middle" x="578.1398" y="-906.8" font-family="Helvetica,sans-Serif" font-weight="bold" font-size="9.00" fill="#000000">gen&#45;dinamic&#45;data</text>
</g>
<g id="clust5" class="cluster">
<title>cluster_lib/gen&#45;dinamic&#45;data/gen&#45;address</title>
<path fill="#ffffff" stroke="#000000" stroke-width="2" d="M407.8369,-338C407.8369,-338 600.3862,-338 600.3862,-338 606.3862,-338 612.3862,-344 612.3862,-350 612.3862,-350 612.3862,-464 612.3862,-464 612.3862,-470 606.3862,-476 600.3862,-476 600.3862,-476 407.8369,-476 407.8369,-476 401.8369,-476 395.8369,-470 395.8369,-464 395.8369,-464 395.8369,-350 395.8369,-350 395.8369,-344 401.8369,-338 407.8369,-338"/>
<text text-anchor="middle" x="504.1116" y="-464.8" font-family="Helvetica,sans-Serif" font-weight="bold" font-size="9.00" fill="#000000">gen&#45;address</text>
</g>
<g id="clust9" class="cluster">
<title>cluster_lib/gen&#45;dinamic&#45;data/gen&#45;national&#45;id</title>
<path fill="#ffffff" stroke="#000000" stroke-width="2" d="M407.8369,-783C407.8369,-783 833.9592,-783 833.9592,-783 839.9592,-783 845.9592,-789 845.9592,-795 845.9592,-795 845.9592,-881 845.9592,-881 845.9592,-887 839.9592,-893 833.9592,-893 833.9592,-893 407.8369,-893 407.8369,-893 401.8369,-893 395.8369,-887 395.8369,-881 395.8369,-881 395.8369,-795 395.8369,-795 395.8369,-789 401.8369,-783 407.8369,-783"/>
<text text-anchor="middle" x="620.8981" y="-881.8" font-family="Helvetica,sans-Serif" font-weight="bold" font-size="9.00" fill="#000000">gen&#45;national&#45;id</text>
</g>
<g id="clust10" class="cluster">
<title>cluster_lib/gen&#45;dinamic&#45;data/gen&#45;national&#45;id/it.national&#45;id</title>
<path fill="#ffffff" stroke="#000000" stroke-width="2" d="M535.3691,-791C535.3691,-791 825.9592,-791 825.9592,-791 831.9592,-791 837.9592,-797 837.9592,-803 837.9592,-803 837.9592,-830 837.9592,-830 837.9592,-836 831.9592,-842 825.9592,-842 825.9592,-842 535.3691,-842 535.3691,-842 529.3691,-842 523.3691,-836 523.3691,-830 523.3691,-830 523.3691,-803 523.3691,-803 523.3691,-797 529.3691,-791 535.3691,-791"/>
<text text-anchor="middle" x="680.6642" y="-830.8" font-family="Helvetica,sans-Serif" font-weight="bold" font-size="9.00" fill="#000000">it.national&#45;id</text>
</g>
<g id="clust11" class="cluster">
<title>cluster_lib/gen&#45;dinamic&#45;data/gen&#45;random&#45;var</title>
<path fill="#ffffff" stroke="#000000" stroke-width="2" d="M523.6055,-486C523.6055,-486 858.9688,-486 858.9688,-486 864.9688,-486 870.9688,-492 870.9688,-498 870.9688,-498 870.9688,-587 870.9688,-587 870.9688,-593 864.9688,-599 858.9688,-599 858.9688,-599 523.6055,-599 523.6055,-599 517.6055,-599 511.6055,-593 511.6055,-587 511.6055,-587 511.6055,-498 511.6055,-498 511.6055,-492 517.6055,-486 523.6055,-486"/>
<text text-anchor="middle" x="691.2871" y="-587.8" font-family="Helvetica,sans-Serif" font-weight="bold" font-size="9.00" fill="#000000">gen&#45;random&#45;var</text>
</g>
<g id="clust12" class="cluster">
<title>cluster_lib/gen&#45;dinamic&#45;data/gen&#45;random&#45;var/__tests</title>
<path fill="#ffffff" stroke="#000000" stroke-width="2" d="M531.6055,-494C531.6055,-494 585.1328,-494 585.1328,-494 591.1328,-494 597.1328,-500 597.1328,-506 597.1328,-506 597.1328,-562 597.1328,-562 597.1328,-568 591.1328,-574 585.1328,-574 585.1328,-574 531.6055,-574 531.6055,-574 525.6055,-574 519.6055,-568 519.6055,-562 519.6055,-562 519.6055,-506 519.6055,-506 519.6055,-500 525.6055,-494 531.6055,-494"/>
<text text-anchor="middle" x="558.3691" y="-562.8" font-family="Helvetica,sans-Serif" font-weight="bold" font-size="9.00" fill="#000000">__tests</text>
</g>
<g id="clust6" class="cluster">
<title>cluster_lib/gen&#45;dinamic&#45;data/gen&#45;company&#45;registration&#45;number</title>
<path fill="#ffffff" stroke="#000000" stroke-width="2" d="M386.3196,-607C386.3196,-607 704.1685,-607 704.1685,-607 710.1685,-607 716.1685,-613 716.1685,-619 716.1685,-619 716.1685,-763 716.1685,-763 716.1685,-769 710.1685,-775 704.1685,-775 704.1685,-775 386.3196,-775 386.3196,-775 380.3196,-775 374.3196,-769 374.3196,-763 374.3196,-763 374.3196,-619 374.3196,-619 374.3196,-613 380.3196,-607 386.3196,-607"/>
<text text-anchor="middle" x="545.244" y="-763.8" font-family="Helvetica,sans-Serif" font-weight="bold" font-size="9.00" fill="#000000">gen&#45;company&#45;registration&#45;number</text>
</g>
<g id="clust7" class="cluster">
<title>cluster_lib/gen&#45;dinamic&#45;data/gen&#45;company&#45;registration&#45;number/__tests</title>
<path fill="#ffffff" stroke="#000000" stroke-width="2" d="M394.3196,-670C394.3196,-670 467.3542,-670 467.3542,-670 473.3542,-670 479.3542,-676 479.3542,-682 479.3542,-682 479.3542,-738 479.3542,-738 479.3542,-744 473.3542,-750 467.3542,-750 467.3542,-750 394.3196,-750 394.3196,-750 388.3196,-750 382.3196,-744 382.3196,-738 382.3196,-738 382.3196,-682 382.3196,-682 382.3196,-676 388.3196,-670 394.3196,-670"/>
<text text-anchor="middle" x="430.8369" y="-738.8" font-family="Helvetica,sans-Serif" font-weight="bold" font-size="9.00" fill="#000000">__tests</text>
</g>
<g id="clust8" class="cluster">
<title>cluster_lib/gen&#45;dinamic&#45;data/gen&#45;company&#45;registration&#45;number/crn&#45;br</title>
<path fill="#ffffff" stroke="#000000" stroke-width="2" d="M535.3691,-659C535.3691,-659 696.1685,-659 696.1685,-659 702.1685,-659 708.1685,-665 708.1685,-671 708.1685,-671 708.1685,-698 708.1685,-698 708.1685,-704 702.1685,-710 696.1685,-710 696.1685,-710 535.3691,-710 535.3691,-710 529.3691,-710 523.3691,-704 523.3691,-698 523.3691,-698 523.3691,-671 523.3691,-671 523.3691,-665 529.3691,-659 535.3691,-659"/>
<text text-anchor="middle" x="615.7688" y="-698.8" font-family="Helvetica,sans-Serif" font-weight="bold" font-size="9.00" fill="#000000">crn&#45;br</text>
</g>
<g id="clust13" class="cluster">
<title>cluster_lib/get&#45;static&#45;data</title>
<path fill="#ffffff" stroke="#000000" stroke-width="2" d="M289.3108,-926C289.3108,-926 491.6055,-926 491.6055,-926 497.6055,-926 503.6055,-932 503.6055,-938 503.6055,-938 503.6055,-1052 503.6055,-1052 503.6055,-1058 497.6055,-1064 491.6055,-1064 491.6055,-1064 289.3108,-1064 289.3108,-1064 283.3108,-1064 277.3108,-1058 277.3108,-1052 277.3108,-1052 277.3108,-938 277.3108,-938 277.3108,-932 283.3108,-926 289.3108,-926"/>
<text text-anchor="middle" x="390.4581" y="-1052.8" font-family="Helvetica,sans-Serif" font-weight="bold" font-size="9.00" fill="#000000">get&#45;static&#45;data</text>
</g>
<g id="clust14" class="cluster">
<title>cluster_lib/helpers</title>
<path fill="#ffffff" stroke="#000000" stroke-width="2" d="M647.4067,-172C647.4067,-172 839.457,-172 839.457,-172 845.457,-172 851.457,-178 851.457,-184 851.457,-184 851.457,-211 851.457,-211 851.457,-217 845.457,-223 839.457,-223 839.457,-223 647.4067,-223 647.4067,-223 641.4067,-223 635.4067,-217 635.4067,-211 635.4067,-211 635.4067,-184 635.4067,-184 635.4067,-178 641.4067,-172 647.4067,-172"/>
<text text-anchor="middle" x="743.4319" y="-211.8" font-family="Helvetica,sans-Serif" font-weight="bold" font-size="9.00" fill="#000000">helpers</text>
</g>
<g id="clust15" class="cluster">
<title>cluster_lib/profile</title>
<path fill="#ffffff" stroke="#000000" stroke-width="2" d="M90,-58C90,-58 346.0684,-58 346.0684,-58 352.0684,-58 358.0684,-64 358.0684,-70 358.0684,-70 358.0684,-211 358.0684,-211 358.0684,-217 352.0684,-223 346.0684,-223 346.0684,-223 90,-223 90,-223 84,-223 78,-217 78,-211 78,-211 78,-70 78,-70 78,-64 84,-58 90,-58"/>
<text text-anchor="middle" x="218.0342" y="-211.8" font-family="Helvetica,sans-Serif" font-weight="bold" font-size="9.00" fill="#000000">profile</text>
</g>
<g id="clust16" class="cluster">
<title>cluster_lib/profile/__tests</title>
<path fill="#ffffff" stroke="#000000" stroke-width="2" d="M98,-92C98,-92 176.5322,-92 176.5322,-92 182.5322,-92 188.5322,-98 188.5322,-104 188.5322,-104 188.5322,-160 188.5322,-160 188.5322,-166 182.5322,-172 176.5322,-172 176.5322,-172 98,-172 98,-172 92,-172 86,-166 86,-160 86,-160 86,-104 86,-104 86,-98 92,-92 98,-92"/>
<text text-anchor="middle" x="137.2661" y="-160.8" font-family="Helvetica,sans-Serif" font-weight="bold" font-size="9.00" fill="#000000">__tests</text>
</g>
<!-- lib/data/__tests/data.spec.js -->
<g id="node1" class="node">
<title>lib/data/__tests/data.spec.js</title>
<g id="a_node1"><a xlink:href="lib/data/__tests/data.spec.js" xlink:title="data.spec.js">
<path fill="#ffffcc" stroke="#000000" d="M696.7679,-103.5C696.7679,-103.5 644.0456,-103.5 644.0456,-103.5 641.2122,-103.5 638.3789,-100.6667 638.3789,-97.8333 638.3789,-97.8333 638.3789,-92.1667 638.3789,-92.1667 638.3789,-89.3333 641.2122,-86.5 644.0456,-86.5 644.0456,-86.5 696.7679,-86.5 696.7679,-86.5 699.6012,-86.5 702.4346,-89.3333 702.4346,-92.1667 702.4346,-92.1667 702.4346,-97.8333 702.4346,-97.8333 702.4346,-100.6667 699.6012,-103.5 696.7679,-103.5"/>
<text text-anchor="middle" x="670.4067" y="-92.3" font-family="Helvetica,sans-Serif" font-size="9.00" fill="#000000">data.spec.js</text>
</a>
</g>
</g>
<!-- lib/data/country&#45;list.js -->
<g id="node3" class="node">
<title>lib/data/country&#45;list.js</title>
<g id="a_node3"><a xlink:href="lib/data/country-list.js" xlink:title="country&#45;list.js">
<path fill="#ffffcc" stroke="#000000" d="M826.5433,-51.5C826.5433,-51.5 769.8527,-51.5 769.8527,-51.5 767.0193,-51.5 764.186,-48.6667 764.186,-45.8333 764.186,-45.8333 764.186,-40.1667 764.186,-40.1667 764.186,-37.3333 767.0193,-34.5 769.8527,-34.5 769.8527,-34.5 826.5433,-34.5 826.5433,-34.5 829.3767,-34.5 832.21,-37.3333 832.21,-40.1667 832.21,-40.1667 832.21,-45.8333 832.21,-45.8333 832.21,-48.6667 829.3767,-51.5 826.5433,-51.5"/>
<text text-anchor="middle" x="798.198" y="-40.3" font-family="Helvetica,sans-Serif" font-size="9.00" fill="#000000">country&#45;list.js</text>
</a>
</g>
</g>
<!-- lib/data/__tests/data.spec.js&#45;&gt;lib/data/country&#45;list.js -->
<g id="edge1" class="edge">
<title>lib/data/__tests/data.spec.js&#45;&gt;lib/data/country&#45;list.js</title>
<path fill="none" stroke="#000000" stroke-width="2" stroke-opacity="0.466667" d="M702.6702,-91.5249C709.016,-89.7151 715.2905,-87.0144 720.4272,-83 730.2949,-75.2884 723.5293,-65.6727 733.4272,-58 739.5166,-53.2797 746.8339,-50.0011 754.325,-47.7334"/>
<polygon fill="#000000" fill-opacity="0.466667" stroke="#000000" stroke-width="2" stroke-opacity="0.466667" points="755.315,-51.0941 764.184,-45.2983 753.6365,-44.2983 755.315,-51.0941"/>
</g>
<!-- lib/data/mccs&#45;available.js -->
<g id="node5" class="node">
<title>lib/data/mccs&#45;available.js</title>
<g id="a_node5"><a xlink:href="lib/data/mccs-available.js" xlink:title="mccs&#45;available.js">
<path fill="#ffffcc" stroke="#000000" d="M834.5522,-125.5C834.5522,-125.5 761.8438,-125.5 761.8438,-125.5 759.0104,-125.5 756.1771,-122.6667 756.1771,-119.8333 756.1771,-119.8333 756.1771,-114.1667 756.1771,-114.1667 756.1771,-111.3333 759.0104,-108.5 761.8438,-108.5 761.8438,-108.5 834.5522,-108.5 834.5522,-108.5 837.3856,-108.5 840.2189,-111.3333 840.2189,-114.1667 840.2189,-114.1667 840.2189,-119.8333 840.2189,-119.8333 840.2189,-122.6667 837.3856,-125.5 834.5522,-125.5"/>
<text text-anchor="middle" x="798.198" y="-114.3" font-family="Helvetica,sans-Serif" font-size="9.00" fill="#000000">mccs&#45;available.js</text>
</a>
</g>
</g>
<!-- lib/data/__tests/data.spec.js&#45;&gt;lib/data/mccs&#45;available.js -->
<g id="edge2" class="edge">
<title>lib/data/__tests/data.spec.js&#45;&gt;lib/data/mccs&#45;available.js</title>
<path fill="none" stroke="#000000" stroke-width="2" stroke-opacity="0.466667" d="M702.6539,-100.5515C715.7504,-102.8062 731.2202,-105.4694 745.8538,-107.9887"/>
<polygon fill="#000000" fill-opacity="0.466667" stroke="#000000" stroke-width="2" stroke-opacity="0.466667" points="745.3629,-111.4555 755.8118,-109.703 746.5506,-104.557 745.3629,-111.4555"/>
</g>
<!-- lib/data/names&#45;list.js -->
<g id="node6" class="node">
<title>lib/data/names&#45;list.js</title>
<g id="a_node6"><a xlink:href="lib/data/names-list.js" xlink:title="names&#45;list.js">
<path fill="#ffffcc" stroke="#000000" d="M825.5411,-80.5C825.5411,-80.5 770.8549,-80.5 770.8549,-80.5 768.0216,-80.5 765.1882,-77.6667 765.1882,-74.8333 765.1882,-74.8333 765.1882,-69.1667 765.1882,-69.1667 765.1882,-66.3333 768.0216,-63.5 770.8549,-63.5 770.8549,-63.5 825.5411,-63.5 825.5411,-63.5 828.3744,-63.5 831.2078,-66.3333 831.2078,-69.1667 831.2078,-69.1667 831.2078,-74.8333 831.2078,-74.8333 831.2078,-77.6667 828.3744,-80.5 825.5411,-80.5"/>
<text text-anchor="middle" x="798.198" y="-69.3" font-family="Helvetica,sans-Serif" font-size="9.00" fill="#000000">names&#45;list.js</text>
</a>
</g>
</g>
<!-- lib/data/__tests/data.spec.js&#45;&gt;lib/data/names&#45;list.js -->
<g id="edge3" class="edge">
<title>lib/data/__tests/data.spec.js&#45;&gt;lib/data/names&#45;list.js</title>
<path fill="none" stroke="#000000" stroke-width="2" stroke-opacity="0.466667" d="M702.6539,-89.1961C718.4515,-86.3528 737.7023,-82.8881 754.7733,-79.8156"/>
<polygon fill="#000000" fill-opacity="0.466667" stroke="#000000" stroke-width="2" stroke-opacity="0.466667" points="755.8485,-83.1784 765.0704,-77.9623 754.6085,-76.2891 755.8485,-83.1784"/>
</g>
<!-- lib/data/countries&#45;available.js -->
<g id="node2" class="node">
<title>lib/data/countries&#45;available.js</title>
<g id="a_node2"><a xlink:href="lib/data/countries-available.js" xlink:title="countries&#45;available.js">
<path fill="#ffffcc" stroke="#000000" d="M714.7811,-55.5C714.7811,-55.5 626.0324,-55.5 626.0324,-55.5 623.199,-55.5 620.3657,-52.6667 620.3657,-49.8333 620.3657,-49.8333 620.3657,-44.1667 620.3657,-44.1667 620.3657,-41.3333 623.199,-38.5 626.0324,-38.5 626.0324,-38.5 714.7811,-38.5 714.7811,-38.5 717.6144,-38.5 720.4478,-41.3333 720.4478,-44.1667 720.4478,-44.1667 720.4478,-49.8333 720.4478,-49.8333 720.4478,-52.6667 717.6144,-55.5 714.7811,-55.5"/>
<text text-anchor="middle" x="670.4067" y="-44.3" font-family="Helvetica,sans-Serif" font-size="9.00" fill="#000000">countries&#45;available.js</text>
</a>
</g>
</g>
<!-- lib/data/countries&#45;available.js&#45;&gt;lib/data/country&#45;list.js -->
<g id="edge4" class="edge">
<title>lib/data/countries&#45;available.js&#45;&gt;lib/data/country&#45;list.js</title>
<path fill="none" stroke="#000000" stroke-width="2" stroke-opacity="0.466667" d="M720.5465,-45.4306C731.5683,-45.0856 743.1635,-44.7226 753.9343,-44.3855"/>
<polygon fill="#000000" fill-opacity="0.466667" stroke="#000000" stroke-width="2" stroke-opacity="0.466667" points="754.0772,-47.8828 763.9628,-44.0716 753.8581,-40.8863 754.0772,-47.8828"/>
</g>
<!-- lib/data/countries&#45;available.js&#45;&gt;lib/data/names&#45;list.js -->
<g id="edge5" class="edge">
<title>lib/data/countries&#45;available.js&#45;&gt;lib/data/names&#45;list.js</title>
<path fill="none" stroke="#000000" stroke-width="2" stroke-opacity="0.466667" d="M714.0278,-55.5337C727.15,-58.1008 741.545,-60.9169 754.6617,-63.4829"/>
<polygon fill="#000000" fill-opacity="0.466667" stroke="#000000" stroke-width="2" stroke-opacity="0.466667" points="754.3723,-66.9926 764.8583,-65.4777 755.7163,-60.1228 754.3723,-66.9926"/>
</g>
<!-- lib/data/index.js -->
<g id="node4" class="node">
<title>lib/data/index.js</title>
<g id="a_node4"><a xlink:href="lib/data/index.js" xlink:title="index.js">
<path fill="#ffffcc" stroke="#000000" d="M579.7025,-138.5C579.7025,-138.5 537.0358,-138.5 537.0358,-138.5 534.2025,-138.5 531.3691,-135.6667 531.3691,-132.8333 531.3691,-132.8333 531.3691,-127.1667 531.3691,-127.1667 531.3691,-124.3333 534.2025,-121.5 537.0358,-121.5 537.0358,-121.5 579.7025,-121.5 579.7025,-121.5 582.5358,-121.5 585.3691,-124.3333 585.3691,-127.1667 585.3691,-127.1667 585.3691,-132.8333 585.3691,-132.8333 585.3691,-135.6667 582.5358,-138.5 579.7025,-138.5"/>
<text text-anchor="middle" x="558.3691" y="-127.3" font-family="Helvetica,sans-Serif" font-size="9.00" fill="#000000">index.js</text>
</a>
</g>
</g>
<!-- lib/data/index.js&#45;&gt;lib/data/countries&#45;available.js -->
<g id="edge6" class="edge">
<title>lib/data/index.js&#45;&gt;lib/data/countries&#45;available.js</title>
<path fill="none" stroke="#000000" stroke-width="2" stroke-opacity="0.466667" d="M564.6195,-121.1833C574.8199,-107.3874 596.3361,-80.6591 620.3862,-65 623.509,-62.9668 626.8909,-61.1272 630.3726,-59.4707"/>
<polygon fill="#000000" fill-opacity="0.466667" stroke="#000000" stroke-width="2" stroke-opacity="0.466667" points="631.8748,-62.6353 639.7124,-55.5063 629.1398,-56.1918 631.8748,-62.6353"/>
</g>
<!-- lib/data/index.js&#45;&gt;lib/data/country&#45;list.js -->
<g id="edge7" class="edge">
<title>lib/data/index.js&#45;&gt;lib/data/country&#45;list.js</title>
<path fill="none" stroke="#000000" stroke-width="2" stroke-opacity="0.466667" d="M560.7561,-121.4613C566.8328,-101.5749 584.972,-52.3916 620.3862,-33 665.8738,-8.0926 728.0864,-20.1165 765.5805,-31.3695"/>
<polygon fill="#000000" fill-opacity="0.466667" stroke="#000000" stroke-width="2" stroke-opacity="0.466667" points="764.876,-34.8174 775.4659,-34.4917 766.9843,-28.1424 764.876,-34.8174"/>
</g>
<!-- lib/data/index.js&#45;&gt;lib/data/mccs&#45;available.js -->
<g id="edge8" class="edge">
<title>lib/data/index.js&#45;&gt;lib/data/mccs&#45;available.js</title>
<path fill="none" stroke="#000000" stroke-width="2" stroke-opacity="0.466667" d="M585.5339,-131.0657C596.3739,-131.4414 608.9689,-131.8159 620.3862,-132 664.8431,-132.7167 676.1662,-136.2294 720.4272,-132 730.5909,-131.0288 741.4011,-129.3591 751.6278,-127.4779"/>
<polygon fill="#000000" fill-opacity="0.466667" stroke="#000000" stroke-width="2" stroke-opacity="0.466667" points="752.4622,-130.8814 761.6145,-125.5441 751.1314,-124.009 752.4622,-130.8814"/>
</g>
<!-- lib/data/index.js&#45;&gt;lib/data/names&#45;list.js -->
<g id="edge9" class="edge">
<title>lib/data/index.js&#45;&gt;lib/data/names&#45;list.js</title>
<path fill="none" stroke="#000000" stroke-width="2" stroke-opacity="0.466667" d="M564.8009,-121.2514C574.93,-108.2911 595.9783,-84.5003 620.3862,-75 644.0092,-65.8052 710.4868,-67.1719 755.122,-69.3341"/>
<polygon fill="#000000" fill-opacity="0.466667" stroke="#000000" stroke-width="2" stroke-opacity="0.466667" points="754.9575,-72.8302 765.1243,-69.8493 755.3176,-65.8395 754.9575,-72.8302"/>
</g>
<!-- lib/gen&#45;dinamic&#45;data/gen&#45;address/br.address.js -->
<g id="node7" class="node">
<title>lib/gen&#45;dinamic&#45;data/gen&#45;address/br.address.js</title>
<g id="a_node7"><a xlink:href="lib/gen-dinamic-data/gen-address/br.address.js" xlink:title="br.address.js">
<path fill="#ffffcc" stroke="#000000" d="M586.2318,-450.5C586.2318,-450.5 530.5065,-450.5 530.5065,-450.5 527.6732,-450.5 524.8398,-447.6667 524.8398,-444.8333 524.8398,-444.8333 524.8398,-439.1667 524.8398,-439.1667 524.8398,-436.3333 527.6732,-433.5 530.5065,-433.5 530.5065,-433.5 586.2318,-433.5 586.2318,-433.5 589.0651,-433.5 591.8984,-436.3333 591.8984,-439.1667 591.8984,-439.1667 591.8984,-444.8333 591.8984,-444.8333 591.8984,-447.6667 589.0651,-450.5 586.2318,-450.5"/>
<text text-anchor="middle" x="558.3691" y="-439.3" font-family="Helvetica,sans-Serif" font-size="9.00" fill="#000000">br.address.js</text>
</a>
</g>
</g>
<!-- lib/gen&#45;dinamic&#45;data/gen&#45;random&#45;var/index.js -->
<g id="node33" class="node">
<title>lib/gen&#45;dinamic&#45;data/gen&#45;random&#45;var/index.js</title>
<g id="a_node33"><a xlink:href="lib/gen-dinamic-data/gen-random-var/index.js" xlink:title="index.js">
<path fill="#ffffcc" stroke="#000000" d="M691.7401,-511.5C691.7401,-511.5 649.0734,-511.5 649.0734,-511.5 646.2401,-511.5 643.4067,-508.6667 643.4067,-505.8333 643.4067,-505.8333 643.4067,-500.1667 643.4067,-500.1667 643.4067,-497.3333 646.2401,-494.5 649.0734,-494.5 649.0734,-494.5 691.7401,-494.5 691.7401,-494.5 694.5734,-494.5 697.4067,-497.3333 697.4067,-500.1667 697.4067,-500.1667 697.4067,-505.8333 697.4067,-505.8333 697.4067,-508.6667 694.5734,-511.5 691.7401,-511.5"/>
<text text-anchor="middle" x="670.4067" y="-500.3" font-family="Helvetica,sans-Serif" font-size="9.00" fill="#000000">index.js</text>
</a>
</g>
</g>
<!-- lib/gen&#45;dinamic&#45;data/gen&#45;address/br.address.js&#45;&gt;lib/gen&#45;dinamic&#45;data/gen&#45;random&#45;var/index.js -->
<g id="edge10" class="edge">
<title>lib/gen&#45;dinamic&#45;data/gen&#45;address/br.address.js&#45;&gt;lib/gen&#45;dinamic&#45;data/gen&#45;random&#45;var/index.js</title>
<path fill="none" stroke="#000000" stroke-width="2" stroke-opacity="0.466667" d="M592.0594,-447.604C598.9898,-449.4406 606.0883,-451.8509 612.3862,-455 628.57,-463.0923 644.2138,-476.4649 655.1709,-487.0428"/>
<polygon fill="#000000" fill-opacity="0.466667" stroke="#000000" stroke-width="2" stroke-opacity="0.466667" points="652.7165,-489.5382 662.2618,-494.1358 657.667,-484.5891 652.7165,-489.5382"/>
</g>
<!-- lib/gen&#45;dinamic&#45;data/gen&#45;address/ch.address.js -->
<g id="node8" class="node">
<title>lib/gen&#45;dinamic&#45;data/gen&#45;address/ch.address.js</title>
<g id="a_node8"><a xlink:href="lib/gen-dinamic-data/gen-address/ch.address.js" xlink:title="ch.address.js">
<path fill="#ffffcc" stroke="#000000" d="M587.2269,-363.5C587.2269,-363.5 529.5114,-363.5 529.5114,-363.5 526.6781,-363.5 523.8447,-360.6667 523.8447,-357.8333 523.8447,-357.8333 523.8447,-352.1667 523.8447,-352.1667 523.8447,-349.3333 526.6781,-346.5 529.5114,-346.5 529.5114,-346.5 587.2269,-346.5 587.2269,-346.5 590.0602,-346.5 592.8936,-349.3333 592.8936,-352.1667 592.8936,-352.1667 592.8936,-357.8333 592.8936,-357.8333 592.8936,-360.6667 590.0602,-363.5 587.2269,-363.5"/>
<text text-anchor="middle" x="558.3691" y="-352.3" font-family="Helvetica,sans-Serif" font-size="9.00" fill="#000000">ch.address.js</text>
</a>
</g>
</g>
<!-- lib/gen&#45;dinamic&#45;data/gen&#45;address/ch.address.js&#45;&gt;lib/gen&#45;dinamic&#45;data/gen&#45;random&#45;var/index.js -->
<g id="edge11" class="edge">
<title>lib/gen&#45;dinamic&#45;data/gen&#45;address/ch.address.js&#45;&gt;lib/gen&#45;dinamic&#45;data/gen&#45;random&#45;var/index.js</title>
<path fill="none" stroke="#000000" stroke-width="2" stroke-opacity="0.466667" d="M592.9289,-359.7136C599.9568,-361.944 606.8751,-365.2134 612.3862,-370 647.311,-400.3332 661.9852,-455.5795 667.4909,-484.393"/>
<polygon fill="#000000" fill-opacity="0.466667" stroke="#000000" stroke-width="2" stroke-opacity="0.466667" points="664.0611,-485.0986 669.2247,-494.3499 670.9573,-483.8977 664.0611,-485.0986"/>
</g>
<!-- lib/gen&#45;dinamic&#45;data/gen&#45;address/cl.address.js -->
<g id="node9" class="node">
<title>lib/gen&#45;dinamic&#45;data/gen&#45;address/cl.address.js</title>
<g id="a_node9"><a xlink:href="lib/gen-dinamic-data/gen-address/cl.address.js" xlink:title="cl.address.js">
<path fill="#ffffcc" stroke="#000000" d="M585.721,-392.5C585.721,-392.5 531.0172,-392.5 531.0172,-392.5 528.1839,-392.5 525.3506,-389.6667 525.3506,-386.8333 525.3506,-386.8333 525.3506,-381.1667 525.3506,-381.1667 525.3506,-378.3333 528.1839,-375.5 531.0172,-375.5 531.0172,-375.5 585.721,-375.5 585.721,-375.5 588.5544,-375.5 591.3877,-378.3333 591.3877,-381.1667 591.3877,-381.1667 591.3877,-386.8333 591.3877,-386.8333 591.3877,-389.6667 588.5544,-392.5 585.721,-392.5"/>
<text text-anchor="middle" x="558.3691" y="-381.3" font-family="Helvetica,sans-Serif" font-size="9.00" fill="#000000">cl.address.js</text>
</a>
</g>
</g>
<!-- lib/gen&#45;dinamic&#45;data/gen&#45;address/cl.address.js&#45;&gt;lib/gen&#45;dinamic&#45;data/gen&#45;random&#45;var/index.js -->
<g id="edge12" class="edge">
<title>lib/gen&#45;dinamic&#45;data/gen&#45;address/cl.address.js&#45;&gt;lib/gen&#45;dinamic&#45;data/gen&#45;random&#45;var/index.js</title>
<path fill="none" stroke="#000000" stroke-width="2" stroke-opacity="0.466667" d="M591.4611,-388.7799C598.8845,-390.9991 606.3423,-394.2471 612.3862,-399 640.5866,-421.1767 657.2142,-461.0706 665.0012,-484.4753"/>
<polygon fill="#000000" fill-opacity="0.466667" stroke="#000000" stroke-width="2" stroke-opacity="0.466667" points="661.7226,-485.7182 668.0466,-494.2187 668.4039,-483.6298 661.7226,-485.7182"/>
</g>
<!-- lib/gen&#45;dinamic&#45;data/gen&#45;address/es.region&#45;names.js -->
<g id="node10" class="node">
<title>lib/gen&#45;dinamic&#45;data/gen&#45;address/es.region&#45;names.js</title>
<g id="a_node10"><a xlink:href="lib/gen-dinamic-data/gen-address/es.region-names.js" xlink:title="es.region&#45;names.js">
<path fill="#ffffcc" stroke="#000000" d="M598.7367,-421.5C598.7367,-421.5 518.0016,-421.5 518.0016,-421.5 515.1683,-421.5 512.335,-418.6667 512.335,-415.8333 512.335,-415.8333 512.335,-410.1667 512.335,-410.1667 512.335,-407.3333 515.1683,-404.5 518.0016,-404.5 518.0016,-404.5 598.7367,-404.5 598.7367,-404.5 601.57,-404.5 604.4033,-407.3333 604.4033,-410.1667 604.4033,-410.1667 604.4033,-415.8333 604.4033,-415.8333 604.4033,-418.6667 601.57,-421.5 598.7367,-421.5"/>
<text text-anchor="middle" x="558.3691" y="-410.3" font-family="Helvetica,sans-Serif" font-size="9.00" fill="#000000">es.region&#45;names.js</text>
</a>
</g>
</g>
<!-- lib/gen&#45;dinamic&#45;data/gen&#45;address/es.region&#45;names.js&#45;&gt;lib/gen&#45;dinamic&#45;data/gen&#45;random&#45;var/index.js -->
<g id="edge13" class="edge">
<title>lib/gen&#45;dinamic&#45;data/gen&#45;address/es.region&#45;names.js&#45;&gt;lib/gen&#45;dinamic&#45;data/gen&#45;random&#45;var/index.js</title>
<path fill="none" stroke="#000000" stroke-width="2" stroke-opacity="0.466667" d="M600.0003,-421.5677C604.3657,-423.3288 608.5893,-425.4488 612.3862,-428 634.2034,-442.6588 651.3756,-468.2065 661.2102,-485.3586"/>
<polygon fill="#000000" fill-opacity="0.466667" stroke="#000000" stroke-width="2" stroke-opacity="0.466667" points="658.2576,-487.2536 666.1324,-494.3415 664.3964,-483.8898 658.2576,-487.2536"/>
</g>
<!-- lib/gen&#45;dinamic&#45;data/gen&#45;address/index.js -->
<g id="node11" class="node">
<title>lib/gen&#45;dinamic&#45;data/gen&#45;address/index.js</title>
<g id="a_node11"><a xlink:href="lib/gen-dinamic-data/gen-address/index.js" xlink:title="index.js">
<path fill="#ffffcc" stroke="#000000" d="M452.1702,-377.5C452.1702,-377.5 409.5036,-377.5 409.5036,-377.5 406.6702,-377.5 403.8369,-374.6667 403.8369,-371.8333 403.8369,-371.8333 403.8369,-366.1667 403.8369,-366.1667 403.8369,-363.3333 406.6702,-360.5 409.5036,-360.5 409.5036,-360.5 452.1702,-360.5 452.1702,-360.5 455.0036,-360.5 457.8369,-363.3333 457.8369,-366.1667 457.8369,-366.1667 457.8369,-371.8333 457.8369,-371.8333 457.8369,-374.6667 455.0036,-377.5 452.1702,-377.5"/>
<text text-anchor="middle" x="430.8369" y="-366.3" font-family="Helvetica,sans-Serif" font-size="9.00" fill="#000000">index.js</text>
</a>
</g>
</g>
<!-- lib/gen&#45;dinamic&#45;data/gen&#45;address/index.js&#45;&gt;lib/gen&#45;dinamic&#45;data/gen&#45;address/br.address.js -->
<g id="edge15" class="edge">
<title>lib/gen&#45;dinamic&#45;data/gen&#45;address/index.js&#45;&gt;lib/gen&#45;dinamic&#45;data/gen&#45;address/br.address.js</title>
<path fill="none" stroke="#000000" stroke-width="2" stroke-opacity="0.466667" d="M458.1716,-366.761C473.5399,-367.0576 491.9261,-370.2669 503.6055,-382 518.2451,-396.7071 497.8282,-412.4821 511.6055,-428 512.8046,-429.3507 514.1282,-430.5735 515.5473,-431.6803"/>
<polygon fill="#000000" fill-opacity="0.466667" stroke="#000000" stroke-width="2" stroke-opacity="0.466667" points="514.1016,-434.8863 524.5157,-436.8351 517.5899,-428.8174 514.1016,-434.8863"/>
</g>
<!-- lib/gen&#45;dinamic&#45;data/gen&#45;address/index.js&#45;&gt;lib/gen&#45;dinamic&#45;data/gen&#45;address/ch.address.js -->
<g id="edge16" class="edge">
<title>lib/gen&#45;dinamic&#45;data/gen&#45;address/index.js&#45;&gt;lib/gen&#45;dinamic&#45;data/gen&#45;address/ch.address.js</title>
<path fill="none" stroke="#000000" stroke-width="2" stroke-opacity="0.466667" d="M457.8832,-366.031C474.0467,-364.2566 494.985,-361.9581 513.5619,-359.9188"/>
<polygon fill="#000000" fill-opacity="0.466667" stroke="#000000" stroke-width="2" stroke-opacity="0.466667" points="514.0358,-363.3879 523.5941,-358.8175 513.2719,-356.4297 514.0358,-363.3879"/>
</g>
<!-- lib/gen&#45;dinamic&#45;data/gen&#45;address/index.js&#45;&gt;lib/gen&#45;dinamic&#45;data/gen&#45;address/cl.address.js -->
<g id="edge17" class="edge">
<title>lib/gen&#45;dinamic&#45;data/gen&#45;address/index.js&#45;&gt;lib/gen&#45;dinamic&#45;data/gen&#45;address/cl.address.js</title>
<path fill="none" stroke="#000000" stroke-width="2" stroke-opacity="0.466667" d="M457.8832,-372.1811C474.4168,-374.1258 495.9466,-376.658 514.8344,-378.8796"/>
<polygon fill="#000000" fill-opacity="0.466667" stroke="#000000" stroke-width="2" stroke-opacity="0.466667" points="514.6669,-382.3839 525.0073,-380.0761 515.4847,-375.4318 514.6669,-382.3839"/>
</g>
<!-- lib/gen&#45;dinamic&#45;data/gen&#45;address/index.js&#45;&gt;lib/gen&#45;dinamic&#45;data/gen&#45;address/es.region&#45;names.js -->
<g id="edge18" class="edge">
<title>lib/gen&#45;dinamic&#45;data/gen&#45;address/index.js&#45;&gt;lib/gen&#45;dinamic&#45;data/gen&#45;address/es.region&#45;names.js</title>
<path fill="none" stroke="#000000" stroke-width="2" stroke-opacity="0.466667" d="M458.1446,-368.0432C472.942,-368.8614 490.7706,-372.1643 503.6055,-382 508.68,-385.8888 506.9645,-390.5939 512.354,-397.4572"/>
<polygon fill="#000000" fill-opacity="0.466667" stroke="#000000" stroke-width="2" stroke-opacity="0.466667" points="510.0295,-400.0762 519.6995,-404.4054 514.8398,-394.9908 510.0295,-400.0762"/>
</g>
<!-- lib/gen&#45;dinamic&#45;data/map&#45;faker.js -->
<g id="node36" class="node">
<title>lib/gen&#45;dinamic&#45;data/map&#45;faker.js</title>
<g id="a_node36"><a xlink:href="lib/gen-dinamic-data/map-faker.js" xlink:title="map&#45;faker.js">
<path fill="#ffffcc" stroke="#000000" d="M585.2235,-329.5C585.2235,-329.5 531.5148,-329.5 531.5148,-329.5 528.6815,-329.5 525.8481,-326.6667 525.8481,-323.8333 525.8481,-323.8333 525.8481,-318.1667 525.8481,-318.1667 525.8481,-315.3333 528.6815,-312.5 531.5148,-312.5 531.5148,-312.5 585.2235,-312.5 585.2235,-312.5 588.0568,-312.5 590.8901,-315.3333 590.8901,-318.1667 590.8901,-318.1667 590.8901,-323.8333 590.8901,-323.8333 590.8901,-326.6667 588.0568,-329.5 585.2235,-329.5"/>
<text text-anchor="middle" x="558.3691" y="-318.3" font-family="Helvetica,sans-Serif" font-size="9.00" fill="#000000">map&#45;faker.js</text>
</a>
</g>
</g>
<!-- lib/gen&#45;dinamic&#45;data/gen&#45;address/index.js&#45;&gt;lib/gen&#45;dinamic&#45;data/map&#45;faker.js -->
<g id="edge14" class="edge">
<title>lib/gen&#45;dinamic&#45;data/gen&#45;address/index.js&#45;&gt;lib/gen&#45;dinamic&#45;data/map&#45;faker.js</title>
<path fill="none" stroke="#000000" stroke-width="2" stroke-opacity="0.466667" d="M458.1156,-370.8406C473.0857,-370.4195 491.0924,-367.385 503.6055,-357 511.6115,-350.3555 504.0388,-342.1409 511.6055,-335 513.0847,-333.604 514.6976,-332.3467 516.406,-331.2144"/>
<polygon fill="#000000" fill-opacity="0.466667" stroke="#000000" stroke-width="2" stroke-opacity="0.466667" points="518.2578,-334.1987 525.5688,-326.5306 515.0716,-327.9658 518.2578,-334.1987"/>
</g>
<!-- lib/gen&#45;dinamic&#45;data/gen&#45;anagrafica.js -->
<g id="node12" class="node">
<title>lib/gen&#45;dinamic&#45;data/gen&#45;anagrafica.js</title>
<g id="a_node12"><a xlink:href="lib/gen-dinamic-data/gen-anagrafica.js" xlink:title="gen&#45;anagrafica.js">
<path fill="#ffffcc" stroke="#000000" d="M467.7127,-285.5C467.7127,-285.5 393.9611,-285.5 393.9611,-285.5 391.1278,-285.5 388.2944,-282.6667 388.2944,-279.8333 388.2944,-279.8333 388.2944,-274.1667 388.2944,-274.1667 388.2944,-271.3333 391.1278,-268.5 393.9611,-268.5 393.9611,-268.5 467.7127,-268.5 467.7127,-268.5 470.5461,-268.5 473.3794,-271.3333 473.3794,-274.1667 473.3794,-274.1667 473.3794,-279.8333 473.3794,-279.8333 473.3794,-282.6667 470.5461,-285.5 467.7127,-285.5"/>
<text text-anchor="middle" x="430.8369" y="-274.3" font-family="Helvetica,sans-Serif" font-size="9.00" fill="#000000">gen&#45;anagrafica.js</text>
</a>
</g>
</g>
<!-- lib/gen&#45;dinamic&#45;data/gen&#45;anagrafica.js&#45;&gt;lib/data/index.js -->
<g id="edge19" class="edge">
<title>lib/gen&#45;dinamic&#45;data/gen&#45;anagrafica.js&#45;&gt;lib/data/index.js</title>
<path fill="none" stroke="#000000" stroke-width="2" stroke-opacity="0.466667" d="M473.5797,-276.9184C484.5723,-274.8838 495.5552,-270.7761 503.6055,-263 515.0823,-251.914 506.3599,-243.0699 511.6055,-228 521.7908,-198.739 538.1724,-166.6572 548.5963,-147.4367"/>
<polygon fill="#000000" fill-opacity="0.466667" stroke="#000000" stroke-width="2" stroke-opacity="0.466667" points="551.6819,-149.0891 553.4399,-138.6411 545.5502,-145.7124 551.6819,-149.0891"/>
</g>
<!-- lib/gen&#45;dinamic&#45;data/gen&#45;birthday.js -->
<g id="node13" class="node">
<title>lib/gen&#45;dinamic&#45;data/gen&#45;birthday.js</title>
<g id="a_node13"><a xlink:href="lib/gen-dinamic-data/gen-birthday.js" xlink:title="gen&#45;birthday.js">
<path fill="#ffffcc" stroke="#000000" d="M590.0716,-300.5C590.0716,-300.5 526.6667,-300.5 526.6667,-300.5 523.8334,-300.5 521.0001,-297.6667 521.0001,-294.8333 521.0001,-294.8333 521.0001,-289.1667 521.0001,-289.1667 521.0001,-286.3333 523.8334,-283.5 526.6667,-283.5 526.6667,-283.5 590.0716,-283.5 590.0716,-283.5 592.9049,-283.5 595.7382,-286.3333 595.7382,-289.1667 595.7382,-289.1667 595.7382,-294.8333 595.7382,-294.8333 595.7382,-297.6667 592.9049,-300.5 590.0716,-300.5"/>
<text text-anchor="middle" x="558.3691" y="-289.3" font-family="Helvetica,sans-Serif" font-size="9.00" fill="#000000">gen&#45;birthday.js</text>
</a>
</g>
</g>
<!-- lib/gen&#45;dinamic&#45;data/gen&#45;anagrafica.js&#45;&gt;lib/gen&#45;dinamic&#45;data/gen&#45;birthday.js -->
<g id="edge20" class="edge">
<title>lib/gen&#45;dinamic&#45;data/gen&#45;anagrafica.js&#45;&gt;lib/gen&#45;dinamic&#45;data/gen&#45;birthday.js</title>
<path fill="none" stroke="#000000" stroke-width="2" stroke-opacity="0.466667" d="M473.6581,-282.0365C485.6431,-283.4462 498.7386,-284.9864 510.9719,-286.4253"/>
<polygon fill="#000000" fill-opacity="0.466667" stroke="#000000" stroke-width="2" stroke-opacity="0.466667" points="510.6615,-289.9128 521.0019,-287.605 511.4792,-282.9607 510.6615,-289.9128"/>
</g>
<!-- lib/gen&#45;dinamic&#45;data/gen&#45;anagrafica.js&#45;&gt;lib/gen&#45;dinamic&#45;data/gen&#45;random&#45;var/index.js -->
<g id="edge21" class="edge">
<title>lib/gen&#45;dinamic&#45;data/gen&#45;anagrafica.js&#45;&gt;lib/gen&#45;dinamic&#45;data/gen&#45;random&#45;var/index.js</title>
<path fill="none" stroke="#000000" stroke-width="2" stroke-opacity="0.466667" d="M473.4613,-271.4584C520.2677,-266.3533 591.5642,-261.7742 612.3862,-278 645.3058,-303.6529 662.9138,-434.8234 668.4561,-484.1839"/>
<polygon fill="#000000" fill-opacity="0.466667" stroke="#000000" stroke-width="2" stroke-opacity="0.466667" points="665.0039,-484.8154 669.5581,-494.3815 671.9634,-484.0633 665.0039,-484.8154"/>
</g>
<!-- lib/gen&#45;dinamic&#45;data/gen&#45;company&#45;registration&#45;number/__tests/gen&#45;cnpj.spec.js -->
<g id="node14" class="node">
<title>lib/gen&#45;dinamic&#45;data/gen&#45;company&#45;registration&#45;number/__tests/gen&#45;cnpj.spec.js</title>
<g id="a_node14"><a xlink:href="lib/gen-dinamic-data/gen-company-registration-number/__tests/gen-cnpj.spec.js" xlink:title="gen&#45;cnpj.spec.js">
<path fill="#ffffcc" stroke="#000000" d="M465.7049,-724.5C465.7049,-724.5 395.9689,-724.5 395.9689,-724.5 393.1356,-724.5 390.3022,-721.6667 390.3022,-718.8333 390.3022,-718.8333 390.3022,-713.1667 390.3022,-713.1667 390.3022,-710.3333 393.1356,-707.5 395.9689,-707.5 395.9689,-707.5 465.7049,-707.5 465.7049,-707.5 468.5383,-707.5 471.3716,-710.3333 471.3716,-713.1667 471.3716,-713.1667 471.3716,-718.8333 471.3716,-718.8333 471.3716,-721.6667 468.5383,-724.5 465.7049,-724.5"/>
<text text-anchor="middle" x="430.8369" y="-713.3" font-family="Helvetica,sans-Serif" font-size="9.00" fill="#000000">gen&#45;cnpj.spec.js</text>
</a>
</g>
</g>
<!-- lib/gen&#45;dinamic&#45;data/gen&#45;company&#45;registration&#45;number/crn&#45;br/gen&#45;cnpj.js -->
<g id="node16" class="node">
<title>lib/gen&#45;dinamic&#45;data/gen&#45;company&#45;registration&#45;number/crn&#45;br/gen&#45;cnpj.js</title>
<g id="a_node16"><a xlink:href="lib/gen-dinamic-data/gen-company-registration-number/crn-br/gen-cnpj.js" xlink:title="gen&#45;cnpj.js">
<path fill="#ffffcc" stroke="#000000" d="M694.2654,-684.5C694.2654,-684.5 646.5481,-684.5 646.5481,-684.5 643.7147,-684.5 640.8814,-681.6667 640.8814,-678.8333 640.8814,-678.8333 640.8814,-673.1667 640.8814,-673.1667 640.8814,-670.3333 643.7147,-667.5 646.5481,-667.5 646.5481,-667.5 694.2654,-667.5 694.2654,-667.5 697.0987,-667.5 699.9321,-670.3333 699.9321,-673.1667 699.9321,-673.1667 699.9321,-678.8333 699.9321,-678.8333 699.9321,-681.6667 697.0987,-684.5 694.2654,-684.5"/>
<text text-anchor="middle" x="670.4067" y="-673.3" font-family="Helvetica,sans-Serif" font-size="9.00" fill="#000000">gen&#45;cnpj.js</text>
</a>
</g>
</g>
<!-- lib/gen&#45;dinamic&#45;data/gen&#45;company&#45;registration&#45;number/__tests/gen&#45;cnpj.spec.js&#45;&gt;lib/gen&#45;dinamic&#45;data/gen&#45;company&#45;registration&#45;number/crn&#45;br/gen&#45;cnpj.js -->
<g id="edge22" class="edge">
<title>lib/gen&#45;dinamic&#45;data/gen&#45;company&#45;registration&#45;number/__tests/gen&#45;cnpj.spec.js&#45;&gt;lib/gen&#45;dinamic&#45;data/gen&#45;company&#45;registration&#45;number/crn&#45;br/gen&#45;cnpj.js</title>
<path fill="none" stroke="#000000" stroke-width="2" stroke-opacity="0.466667" d="M471.4406,-711.7759C508.3823,-707.6093 564.3168,-700.49 612.3862,-691 618.3367,-689.8252 624.5858,-688.4077 630.6891,-686.9188"/>
<polygon fill="#000000" fill-opacity="0.466667" stroke="#000000" stroke-width="2" stroke-opacity="0.466667" points="631.9074,-690.2209 640.7441,-684.376 630.1912,-683.4346 631.9074,-690.2209"/>
</g>
<!-- lib/gen&#45;dinamic&#45;data/gen&#45;company&#45;registration&#45;number/__tests/gen&#45;rut.spec.js -->
<g id="node15" class="node">
<title>lib/gen&#45;dinamic&#45;data/gen&#45;company&#45;registration&#45;number/__tests/gen&#45;rut.spec.js</title>
<g id="a_node15"><a xlink:href="lib/gen-dinamic-data/gen-company-registration-number/__tests/gen-rut.spec.js" xlink:title="gen&#45;rut.spec.js">
<path fill="#ffffcc" stroke="#000000" d="M462.6976,-695.5C462.6976,-695.5 398.9762,-695.5 398.9762,-695.5 396.1429,-695.5 393.3096,-692.6667 393.3096,-689.8333 393.3096,-689.8333 393.3096,-684.1667 393.3096,-684.1667 393.3096,-681.3333 396.1429,-678.5 398.9762,-678.5 398.9762,-678.5 462.6976,-678.5 462.6976,-678.5 465.5309,-678.5 468.3643,-681.3333 468.3643,-684.1667 468.3643,-684.1667 468.3643,-689.8333 468.3643,-689.8333 468.3643,-692.6667 465.5309,-695.5 462.6976,-695.5"/>
<text text-anchor="middle" x="430.8369" y="-684.3" font-family="Helvetica,sans-Serif" font-size="9.00" fill="#000000">gen&#45;rut.spec.js</text>
</a>
</g>
</g>
<!-- lib/gen&#45;dinamic&#45;data/gen&#45;company&#45;registration&#45;number/crn&#45;cl.js -->
<g id="node18" class="node">
<title>lib/gen&#45;dinamic&#45;data/gen&#45;company&#45;registration&#45;number/crn&#45;cl.js</title>
<g id="a_node18"><a xlink:href="lib/gen-dinamic-data/gen-company-registration-number/crn-cl.js" xlink:title="crn&#45;cl.js">
<path fill="#ffffcc" stroke="#000000" d="M579.7025,-632.5C579.7025,-632.5 537.0358,-632.5 537.0358,-632.5 534.2025,-632.5 531.3691,-629.6667 531.3691,-626.8333 531.3691,-626.8333 531.3691,-621.1667 531.3691,-621.1667 531.3691,-618.3333 534.2025,-615.5 537.0358,-615.5 537.0358,-615.5 579.7025,-615.5 579.7025,-615.5 582.5358,-615.5 585.3691,-618.3333 585.3691,-621.1667 585.3691,-621.1667 585.3691,-626.8333 585.3691,-626.8333 585.3691,-629.6667 582.5358,-632.5 579.7025,-632.5"/>
<text text-anchor="middle" x="558.3691" y="-621.3" font-family="Helvetica,sans-Serif" font-size="9.00" fill="#000000">crn&#45;cl.js</text>
</a>
</g>
</g>
<!-- lib/gen&#45;dinamic&#45;data/gen&#45;company&#45;registration&#45;number/__tests/gen&#45;rut.spec.js&#45;&gt;lib/gen&#45;dinamic&#45;data/gen&#45;company&#45;registration&#45;number/crn&#45;cl.js -->
<g id="edge23" class="edge">
<title>lib/gen&#45;dinamic&#45;data/gen&#45;company&#45;registration&#45;number/__tests/gen&#45;rut.spec.js&#45;&gt;lib/gen&#45;dinamic&#45;data/gen&#45;company&#45;registration&#45;number/crn&#45;cl.js</title>
<path fill="none" stroke="#000000" stroke-width="2" stroke-opacity="0.466667" d="M468.5198,-687.8096C480.7804,-686.3509 493.7534,-682.771 503.6055,-675 510.7994,-669.3257 505.8114,-663.0979 511.6055,-656 517.3287,-648.9888 524.978,-642.8841 532.4297,-637.9399"/>
<polygon fill="#000000" fill-opacity="0.466667" stroke="#000000" stroke-width="2" stroke-opacity="0.466667" points="534.2819,-640.9097 540.9594,-632.684 530.6098,-634.9502 534.2819,-640.9097"/>
</g>
<!-- lib/gen&#45;dinamic&#45;data/gen&#45;company&#45;registration&#45;number/crn&#45;br/index.js -->
<g id="node17" class="node">
<title>lib/gen&#45;dinamic&#45;data/gen&#45;company&#45;registration&#45;number/crn&#45;br/index.js</title>
<g id="a_node17"><a xlink:href="lib/gen-dinamic-data/gen-company-registration-number/crn-br/index.js" xlink:title="index.js">
<path fill="#ffffcc" stroke="#000000" d="M579.7025,-684.5C579.7025,-684.5 537.0358,-684.5 537.0358,-684.5 534.2025,-684.5 531.3691,-681.6667 531.3691,-678.8333 531.3691,-678.8333 531.3691,-673.1667 531.3691,-673.1667 531.3691,-670.3333 534.2025,-667.5 537.0358,-667.5 537.0358,-667.5 579.7025,-667.5 579.7025,-667.5 582.5358,-667.5 585.3691,-670.3333 585.3691,-673.1667 585.3691,-673.1667 585.3691,-678.8333 585.3691,-678.8333 585.3691,-681.6667 582.5358,-684.5 579.7025,-684.5"/>
<text text-anchor="middle" x="558.3691" y="-673.3" font-family="Helvetica,sans-Serif" font-size="9.00" fill="#000000">index.js</text>
</a>
</g>
</g>
<!-- lib/gen&#45;dinamic&#45;data/gen&#45;company&#45;registration&#45;number/crn&#45;br/index.js&#45;&gt;lib/gen&#45;dinamic&#45;data/gen&#45;company&#45;registration&#45;number/crn&#45;br/gen&#45;cnpj.js -->
<g id="edge24" class="edge">
<title>lib/gen&#45;dinamic&#45;data/gen&#45;company&#45;registration&#45;number/crn&#45;br/index.js&#45;&gt;lib/gen&#45;dinamic&#45;data/gen&#45;company&#45;registration&#45;number/crn&#45;br/gen&#45;cnpj.js</title>
<path fill="none" stroke="#000000" stroke-width="2" stroke-opacity="0.466667" d="M585.4903,-676C599.0659,-676 615.7595,-676 630.7423,-676"/>
<polygon fill="#000000" fill-opacity="0.466667" stroke="#000000" stroke-width="2" stroke-opacity="0.466667" points="630.7824,-679.5001 640.7824,-676 630.7823,-672.5001 630.7824,-679.5001"/>
</g>
<!-- lib/gen&#45;dinamic&#45;data/gen&#45;company&#45;registration&#45;number/crn&#45;cl.js&#45;&gt;lib/gen&#45;dinamic&#45;data/gen&#45;random&#45;var/index.js -->
<g id="edge26" class="edge">
<title>lib/gen&#45;dinamic&#45;data/gen&#45;company&#45;registration&#45;number/crn&#45;cl.js&#45;&gt;lib/gen&#45;dinamic&#45;data/gen&#45;random&#45;var/index.js</title>
<path fill="none" stroke="#000000" stroke-width="2" stroke-opacity="0.466667" d="M569.6808,-615.2118C581.0107,-606.1734 598.6861,-591.4187 612.3862,-577 629.7072,-558.7706 647.1895,-535.6881 658.3683,-520.192"/>
<polygon fill="#000000" fill-opacity="0.466667" stroke="#000000" stroke-width="2" stroke-opacity="0.466667" points="661.511,-521.8123 664.4564,-511.6352 655.8073,-517.7543 661.511,-521.8123"/>
</g>
<!-- lib/helpers/index.js -->
<g id="node43" class="node">
<title>lib/helpers/index.js</title>
<g id="a_node43"><a xlink:href="lib/helpers/index.js" xlink:title="index.js">
<path fill="#ffffcc" stroke="#000000" d="M691.7401,-197.5C691.7401,-197.5 649.0734,-197.5 649.0734,-197.5 646.2401,-197.5 643.4067,-194.6667 643.4067,-191.8333 643.4067,-191.8333 643.4067,-186.1667 643.4067,-186.1667 643.4067,-183.3333 646.2401,-180.5 649.0734,-180.5 649.0734,-180.5 691.7401,-180.5 691.7401,-180.5 694.5734,-180.5 697.4067,-183.3333 697.4067,-186.1667 697.4067,-186.1667 697.4067,-191.8333 697.4067,-191.8333 697.4067,-194.6667 694.5734,-197.5 691.7401,-197.5"/>
<text text-anchor="middle" x="670.4067" y="-186.3" font-family="Helvetica,sans-Serif" font-size="9.00" fill="#000000">index.js</text>
</a>
</g>
</g>
<!-- lib/gen&#45;dinamic&#45;data/gen&#45;company&#45;registration&#45;number/crn&#45;cl.js&#45;&gt;lib/helpers/index.js -->
<g id="edge25" class="edge">
<title>lib/gen&#45;dinamic&#45;data/gen&#45;company&#45;registration&#45;number/crn&#45;cl.js&#45;&gt;lib/helpers/index.js</title>
<path fill="none" stroke="#000000" stroke-width="2" stroke-opacity="0.466667" d="M573.6351,-615.3735C586.3927,-607.258 603.8319,-593.8476 612.3862,-577 621.8775,-558.3072 617.7369,-503.7963 620.3862,-483 633.7166,-378.3619 657.5102,-254.0666 666.6701,-207.6753"/>
<polygon fill="#000000" fill-opacity="0.466667" stroke="#000000" stroke-width="2" stroke-opacity="0.466667" points="670.1522,-208.1091 668.6683,-197.6187 663.2865,-206.7449 670.1522,-208.1091"/>
</g>
<!-- lib/gen&#45;dinamic&#45;data/gen&#45;company&#45;registration&#45;number/crn&#45;static.js -->
<g id="node19" class="node">
<title>lib/gen&#45;dinamic&#45;data/gen&#45;company&#45;registration&#45;number/crn&#45;static.js</title>
<g id="a_node19"><a xlink:href="lib/gen-dinamic-data/gen-company-registration-number/crn-static.js" xlink:title="crn&#45;static.js">
<path fill="#ffffcc" stroke="#000000" d="M455.6776,-661.5C455.6776,-661.5 405.9962,-661.5 405.9962,-661.5 403.1629,-661.5 400.3296,-658.6667 400.3296,-655.8333 400.3296,-655.8333 400.3296,-650.1667 400.3296,-650.1667 400.3296,-647.3333 403.1629,-644.5 405.9962,-644.5 405.9962,-644.5 455.6776,-644.5 455.6776,-644.5 458.5109,-644.5 461.3443,-647.3333 461.3443,-650.1667 461.3443,-650.1667 461.3443,-655.8333 461.3443,-655.8333 461.3443,-658.6667 458.5109,-661.5 455.6776,-661.5"/>
<text text-anchor="middle" x="430.8369" y="-650.3" font-family="Helvetica,sans-Serif" font-size="9.00" fill="#000000">crn&#45;static.js</text>
</a>
</g>
</g>
<!-- lib/gen&#45;dinamic&#45;data/gen&#45;company&#45;registration&#45;number/index.js -->
<g id="node20" class="node">
<title>lib/gen&#45;dinamic&#45;data/gen&#45;company&#45;registration&#45;number/index.js</title>
<g id="a_node20"><a xlink:href="lib/gen-dinamic-data/gen-company-registration-number/index.js" xlink:title="index.js">
<path fill="#ffffcc" stroke="#000000" d="M452.1702,-632.5C452.1702,-632.5 409.5036,-632.5 409.5036,-632.5 406.6702,-632.5 403.8369,-629.6667 403.8369,-626.8333 403.8369,-626.8333 403.8369,-621.1667 403.8369,-621.1667 403.8369,-618.3333 406.6702,-615.5 409.5036,-615.5 409.5036,-615.5 452.1702,-615.5 452.1702,-615.5 455.0036,-615.5 457.8369,-618.3333 457.8369,-621.1667 457.8369,-621.1667 457.8369,-626.8333 457.8369,-626.8333 457.8369,-629.6667 455.0036,-632.5 452.1702,-632.5"/>
<text text-anchor="middle" x="430.8369" y="-621.3" font-family="Helvetica,sans-Serif" font-size="9.00" fill="#000000">index.js</text>
</a>
</g>
</g>
<!-- lib/gen&#45;dinamic&#45;data/gen&#45;company&#45;registration&#45;number/index.js&#45;&gt;lib/gen&#45;dinamic&#45;data/gen&#45;company&#45;registration&#45;number/crn&#45;br/index.js -->
<g id="edge27" class="edge">
<title>lib/gen&#45;dinamic&#45;data/gen&#45;company&#45;registration&#45;number/index.js&#45;&gt;lib/gen&#45;dinamic&#45;data/gen&#45;company&#45;registration&#45;number/crn&#45;br/index.js</title>
<path fill="none" stroke="#000000" stroke-width="2" stroke-opacity="0.466667" d="M458.0117,-623.2219C473.1341,-624.2126 491.3262,-627.9626 503.6055,-639 512.2817,-646.7988 503.1185,-655.9956 511.6055,-664 514.5399,-666.7676 518.0237,-668.9187 521.7466,-670.5874"/>
<polygon fill="#000000" fill-opacity="0.466667" stroke="#000000" stroke-width="2" stroke-opacity="0.466667" points="520.7224,-673.9356 531.3166,-673.8175 522.9611,-667.3032 520.7224,-673.9356"/>
</g>
<!-- lib/gen&#45;dinamic&#45;data/gen&#45;company&#45;registration&#45;number/index.js&#45;&gt;lib/gen&#45;dinamic&#45;data/gen&#45;company&#45;registration&#45;number/crn&#45;cl.js -->
<g id="edge28" class="edge">
<title>lib/gen&#45;dinamic&#45;data/gen&#45;company&#45;registration&#45;number/index.js&#45;&gt;lib/gen&#45;dinamic&#45;data/gen&#45;company&#45;registration&#45;number/crn&#45;cl.js</title>
<path fill="none" stroke="#000000" stroke-width="2" stroke-opacity="0.466667" d="M457.8832,-624C476.3133,-624 500.9514,-624 521.2181,-624"/>
<polygon fill="#000000" fill-opacity="0.466667" stroke="#000000" stroke-width="2" stroke-opacity="0.466667" points="521.3619,-627.5001 531.3618,-624 521.3618,-620.5001 521.3619,-627.5001"/>
</g>
<!-- lib/gen&#45;dinamic&#45;data/gen&#45;company.js -->
<g id="node21" class="node">
<title>lib/gen&#45;dinamic&#45;data/gen&#45;company.js</title>
<g id="a_node21"><a xlink:href="lib/gen-dinamic-data/gen-company.js" xlink:title="gen&#45;company.js">
<path fill="#ffffcc" stroke="#000000" d="M464.5385,-329.5C464.5385,-329.5 397.1353,-329.5 397.1353,-329.5 394.302,-329.5 391.4686,-326.6667 391.4686,-323.8333 391.4686,-323.8333 391.4686,-318.1667 391.4686,-318.1667 391.4686,-315.3333 394.302,-312.5 397.1353,-312.5 397.1353,-312.5 464.5385,-312.5 464.5385,-312.5 467.3719,-312.5 470.2052,-315.3333 470.2052,-318.1667 470.2052,-318.1667 470.2052,-323.8333 470.2052,-323.8333 470.2052,-326.6667 467.3719,-329.5 464.5385,-329.5"/>
<text text-anchor="middle" x="430.8369" y="-318.3" font-family="Helvetica,sans-Serif" font-size="9.00" fill="#000000">gen&#45;company.js</text>
</a>
</g>
</g>
<!-- lib/gen&#45;dinamic&#45;data/gen&#45;national&#45;id/index.js -->
<g id="node22" class="node">
<title>lib/gen&#45;dinamic&#45;data/gen&#45;national&#45;id/index.js</title>
<g id="a_node22"><a xlink:href="lib/gen-dinamic-data/gen-national-id/index.js" xlink:title="index.js">
<path fill="#ffffcc" stroke="#000000" d="M452.1702,-816.5C452.1702,-816.5 409.5036,-816.5 409.5036,-816.5 406.6702,-816.5 403.8369,-813.6667 403.8369,-810.8333 403.8369,-810.8333 403.8369,-805.1667 403.8369,-805.1667 403.8369,-802.3333 406.6702,-799.5 409.5036,-799.5 409.5036,-799.5 452.1702,-799.5 452.1702,-799.5 455.0036,-799.5 457.8369,-802.3333 457.8369,-805.1667 457.8369,-805.1667 457.8369,-810.8333 457.8369,-810.8333 457.8369,-813.6667 455.0036,-816.5 452.1702,-816.5"/>
<text text-anchor="middle" x="430.8369" y="-805.3" font-family="Helvetica,sans-Serif" font-size="9.00" fill="#000000">index.js</text>
</a>
</g>
</g>
<!-- lib/gen&#45;dinamic&#45;data/gen&#45;national&#45;id/it.national&#45;id/index.js -->
<g id="node25" class="node">
<title>lib/gen&#45;dinamic&#45;data/gen&#45;national&#45;id/it.national&#45;id/index.js</title>
<g id="a_node25"><a xlink:href="lib/gen-dinamic-data/gen-national-id/it.national-id/index.js" xlink:title="index.js">
<path fill="#ffffcc" stroke="#000000" d="M579.7025,-816.5C579.7025,-816.5 537.0358,-816.5 537.0358,-816.5 534.2025,-816.5 531.3691,-813.6667 531.3691,-810.8333 531.3691,-810.8333 531.3691,-805.1667 531.3691,-805.1667 531.3691,-802.3333 534.2025,-799.5 537.0358,-799.5 537.0358,-799.5 579.7025,-799.5 579.7025,-799.5 582.5358,-799.5 585.3691,-802.3333 585.3691,-805.1667 585.3691,-805.1667 585.3691,-810.8333 585.3691,-810.8333 585.3691,-813.6667 582.5358,-816.5 579.7025,-816.5"/>
<text text-anchor="middle" x="558.3691" y="-805.3" font-family="Helvetica,sans-Serif" font-size="9.00" fill="#000000">index.js</text>
</a>
</g>
</g>
<!-- lib/gen&#45;dinamic&#45;data/gen&#45;national&#45;id/index.js&#45;&gt;lib/gen&#45;dinamic&#45;data/gen&#45;national&#45;id/it.national&#45;id/index.js -->
<g id="edge29" class="edge">
<title>lib/gen&#45;dinamic&#45;data/gen&#45;national&#45;id/index.js&#45;&gt;lib/gen&#45;dinamic&#45;data/gen&#45;national&#45;id/it.national&#45;id/index.js</title>
<path fill="none" stroke="#000000" stroke-width="2" stroke-opacity="0.466667" d="M457.8832,-808C476.3133,-808 500.9514,-808 521.2181,-808"/>
<polygon fill="#000000" fill-opacity="0.466667" stroke="#000000" stroke-width="2" stroke-opacity="0.466667" points="521.3619,-811.5001 531.3618,-808 521.3618,-804.5001 521.3619,-811.5001"/>
</g>
<!-- lib/gen&#45;dinamic&#45;data/gen&#45;national&#45;id/static&#45;nat&#45;ids.js -->
<g id="node26" class="node">
<title>lib/gen&#45;dinamic&#45;data/gen&#45;national&#45;id/static&#45;nat&#45;ids.js</title>
<g id="a_node26"><a xlink:href="lib/gen-dinamic-data/gen-national-id/static-nat-ids.js" xlink:title="static&#45;nat&#45;ids.js">
<path fill="#ffffcc" stroke="#000000" d="M590.7186,-867.5C590.7186,-867.5 526.0197,-867.5 526.0197,-867.5 523.1864,-867.5 520.353,-864.6667 520.353,-861.8333 520.353,-861.8333 520.353,-856.1667 520.353,-856.1667 520.353,-853.3333 523.1864,-850.5 526.0197,-850.5 526.0197,-850.5 590.7186,-850.5 590.7186,-850.5 593.5519,-850.5 596.3853,-853.3333 596.3853,-856.1667 596.3853,-856.1667 596.3853,-861.8333 596.3853,-861.8333 596.3853,-864.6667 593.5519,-867.5 590.7186,-867.5"/>
<text text-anchor="middle" x="558.3691" y="-856.3" font-family="Helvetica,sans-Serif" font-size="9.00" fill="#000000">static&#45;nat&#45;ids.js</text>
</a>
</g>
</g>
<!-- lib/gen&#45;dinamic&#45;data/gen&#45;national&#45;id/index.js&#45;&gt;lib/gen&#45;dinamic&#45;data/gen&#45;national&#45;id/static&#45;nat&#45;ids.js -->
<g id="edge30" class="edge">
<title>lib/gen&#45;dinamic&#45;data/gen&#45;national&#45;id/index.js&#45;&gt;lib/gen&#45;dinamic&#45;data/gen&#45;national&#45;id/static&#45;nat&#45;ids.js</title>
<path fill="none" stroke="#000000" stroke-width="2" stroke-opacity="0.466667" d="M447.8742,-816.6442C464.022,-824.6346 489.0889,-836.5189 511.6055,-845 513.6675,-845.7767 515.793,-846.54 517.9479,-847.2847"/>
<polygon fill="#000000" fill-opacity="0.466667" stroke="#000000" stroke-width="2" stroke-opacity="0.466667" points="516.8847,-850.6194 527.4775,-850.4137 519.0685,-843.9687 516.8847,-850.6194"/>
</g>
<!-- lib/gen&#45;dinamic&#45;data/gen&#45;national&#45;id/it.national&#45;id/CodiceFiscale.js -->
<g id="node23" class="node">
<title>lib/gen&#45;dinamic&#45;data/gen&#45;national&#45;id/it.national&#45;id/CodiceFiscale.js</title>
<g id="a_node23"><a xlink:href="lib/gen-dinamic-data/gen-national-id/it.national-id/CodiceFiscale.js" xlink:title="CodiceFiscale.js">
<path fill="#ffffcc" stroke="#000000" d="M705.2639,-816.5C705.2639,-816.5 635.5496,-816.5 635.5496,-816.5 632.7162,-816.5 629.8829,-813.6667 629.8829,-810.8333 629.8829,-810.8333 629.8829,-805.1667 629.8829,-805.1667 629.8829,-802.3333 632.7162,-799.5 635.5496,-799.5 635.5496,-799.5 705.2639,-799.5 705.2639,-799.5 708.0973,-799.5 710.9306,-802.3333 710.9306,-805.1667 710.9306,-805.1667 710.9306,-810.8333 710.9306,-810.8333 710.9306,-813.6667 708.0973,-816.5 705.2639,-816.5"/>
<text text-anchor="middle" x="670.4067" y="-805.3" font-family="Helvetica,sans-Serif" font-size="9.00" fill="#000000">CodiceFiscale.js</text>
</a>
</g>
</g>
<!-- lib/gen&#45;dinamic&#45;data/gen&#45;national&#45;id/it.national&#45;id/constants.js -->
<g id="node24" class="node">
<title>lib/gen&#45;dinamic&#45;data/gen&#45;national&#45;id/it.national&#45;id/constants.js</title>
<g id="a_node24"><a xlink:href="lib/gen-dinamic-data/gen-national-id/it.national-id/constants.js" xlink:title="constants.js">
<path fill="#ffffcc" stroke="#000000" d="M824.0556,-816.5C824.0556,-816.5 772.3404,-816.5 772.3404,-816.5 769.5071,-816.5 766.6738,-813.6667 766.6738,-810.8333 766.6738,-810.8333 766.6738,-805.1667 766.6738,-805.1667 766.6738,-802.3333 769.5071,-799.5 772.3404,-799.5 772.3404,-799.5 824.0556,-799.5 824.0556,-799.5 826.8889,-799.5 829.7222,-802.3333 829.7222,-805.1667 829.7222,-805.1667 829.7222,-810.8333 829.7222,-810.8333 829.7222,-813.6667 826.8889,-816.5 824.0556,-816.5"/>
<text text-anchor="middle" x="798.198" y="-805.3" font-family="Helvetica,sans-Serif" font-size="9.00" fill="#000000">constants.js</text>
</a>
</g>
</g>
<!-- lib/gen&#45;dinamic&#45;data/gen&#45;national&#45;id/it.national&#45;id/CodiceFiscale.js&#45;&gt;lib/gen&#45;dinamic&#45;data/gen&#45;national&#45;id/it.national&#45;id/constants.js -->
<g id="edge31" class="edge">
<title>lib/gen&#45;dinamic&#45;data/gen&#45;national&#45;id/it.national&#45;id/CodiceFiscale.js&#45;&gt;lib/gen&#45;dinamic&#45;data/gen&#45;national&#45;id/it.national&#45;id/constants.js</title>
<path fill="none" stroke="#000000" stroke-width="2" stroke-opacity="0.466667" d="M711.192,-808C725.534,-808 741.6712,-808 756.1176,-808"/>
<polygon fill="#000000" fill-opacity="0.466667" stroke="#000000" stroke-width="2" stroke-opacity="0.466667" points="756.2883,-811.5001 766.2882,-808 756.2882,-804.5001 756.2883,-811.5001"/>
</g>
<!-- lib/gen&#45;dinamic&#45;data/gen&#45;national&#45;id/it.national&#45;id/index.js&#45;&gt;lib/gen&#45;dinamic&#45;data/gen&#45;national&#45;id/it.national&#45;id/CodiceFiscale.js -->
<g id="edge32" class="edge">
<title>lib/gen&#45;dinamic&#45;data/gen&#45;national&#45;id/it.national&#45;id/index.js&#45;&gt;lib/gen&#45;dinamic&#45;data/gen&#45;national&#45;id/it.national&#45;id/CodiceFiscale.js</title>
<path fill="none" stroke="#000000" stroke-width="2" stroke-opacity="0.466667" d="M585.4903,-808C595.7085,-808 607.693,-808 619.385,-808"/>
<polygon fill="#000000" fill-opacity="0.466667" stroke="#000000" stroke-width="2" stroke-opacity="0.466667" points="619.5326,-811.5001 629.5326,-808 619.5326,-804.5001 619.5326,-811.5001"/>
</g>
<!-- lib/gen&#45;dinamic&#45;data/gen&#45;phone&#45;number.js -->
<g id="node27" class="node">
<title>lib/gen&#45;dinamic&#45;data/gen&#45;phone&#45;number.js</title>
<g id="a_node27"><a xlink:href="lib/gen-dinamic-data/gen-phone-number.js" xlink:title="gen&#45;phone&#45;number.js">
<path fill="#ffffcc" stroke="#000000" d="M475.7308,-256.5C475.7308,-256.5 385.943,-256.5 385.943,-256.5 383.1097,-256.5 380.2763,-253.6667 380.2763,-250.8333 380.2763,-250.8333 380.2763,-245.1667 380.2763,-245.1667 380.2763,-242.3333 383.1097,-239.5 385.943,-239.5 385.943,-239.5 475.7308,-239.5 475.7308,-239.5 478.5641,-239.5 481.3975,-242.3333 481.3975,-245.1667 481.3975,-245.1667 481.3975,-250.8333 481.3975,-250.8333 481.3975,-253.6667 478.5641,-256.5 475.7308,-256.5"/>
<text text-anchor="middle" x="430.8369" y="-245.3" font-family="Helvetica,sans-Serif" font-size="9.00" fill="#000000">gen&#45;phone&#45;number.js</text>
</a>
</g>
</g>
<!-- lib/gen&#45;dinamic&#45;data/gen&#45;phone&#45;number.js&#45;&gt;lib/data/index.js -->
<g id="edge33" class="edge">
<title>lib/gen&#45;dinamic&#45;data/gen&#45;phone&#45;number.js&#45;&gt;lib/data/index.js</title>
<path fill="none" stroke="#000000" stroke-width="2" stroke-opacity="0.466667" d="M440.4226,-239.1308C461.9464,-219.2158 514.347,-170.7318 541.4738,-145.6325"/>
<polygon fill="#000000" fill-opacity="0.466667" stroke="#000000" stroke-width="2" stroke-opacity="0.466667" points="544.0558,-148.0119 549.0189,-138.6514 539.3018,-142.8738 544.0558,-148.0119"/>
</g>
<!-- lib/gen&#45;dinamic&#45;data/gen&#45;phone&#45;number.js&#45;&gt;lib/gen&#45;dinamic&#45;data/gen&#45;random&#45;var/index.js -->
<g id="edge34" class="edge">
<title>lib/gen&#45;dinamic&#45;data/gen&#45;phone&#45;number.js&#45;&gt;lib/gen&#45;dinamic&#45;data/gen&#45;random&#45;var/index.js</title>
<path fill="none" stroke="#000000" stroke-width="2" stroke-opacity="0.466667" d="M468.3215,-239.4742C508.7843,-232.6421 572.7448,-229.0636 612.3862,-263 646.3693,-292.0923 663.5064,-433.2755 668.6777,-484.4382"/>
<polygon fill="#000000" fill-opacity="0.466667" stroke="#000000" stroke-width="2" stroke-opacity="0.466667" points="665.1963,-484.8001 669.6478,-494.4144 672.1635,-484.1226 665.1963,-484.8001"/>
</g>
<!-- lib/gen&#45;dinamic&#45;data/gen&#45;random&#45;var/__tests/gen.spec.js -->
<g id="node28" class="node">
<title>lib/gen&#45;dinamic&#45;data/gen&#45;random&#45;var/__tests/gen.spec.js</title>
<g id="a_node28"><a xlink:href="lib/gen-dinamic-data/gen-random-var/__tests/gen.spec.js" xlink:title="gen.spec.js">
<path fill="#ffffcc" stroke="#000000" d="M583.2316,-548.5C583.2316,-548.5 533.5067,-548.5 533.5067,-548.5 530.6733,-548.5 527.84,-545.6667 527.84,-542.8333 527.84,-542.8333 527.84,-537.1667 527.84,-537.1667 527.84,-534.3333 530.6733,-531.5 533.5067,-531.5 533.5067,-531.5 583.2316,-531.5 583.2316,-531.5 586.065,-531.5 588.8983,-534.3333 588.8983,-537.1667 588.8983,-537.1667 588.8983,-542.8333 588.8983,-542.8333 588.8983,-545.6667 586.065,-548.5 583.2316,-548.5"/>
<text text-anchor="middle" x="558.3691" y="-537.3" font-family="Helvetica,sans-Serif" font-size="9.00" fill="#000000">gen.spec.js</text>
</a>
</g>
</g>
<!-- lib/gen&#45;dinamic&#45;data/gen&#45;random&#45;var/__tests/gen.spec.js&#45;&gt;lib/gen&#45;dinamic&#45;data/gen&#45;random&#45;var/index.js -->
<g id="edge35" class="edge">
<title>lib/gen&#45;dinamic&#45;data/gen&#45;random&#45;var/__tests/gen.spec.js&#45;&gt;lib/gen&#45;dinamic&#45;data/gen&#45;random&#45;var/index.js</title>
<path fill="none" stroke="#000000" stroke-width="2" stroke-opacity="0.466667" d="M589.127,-532.7313C596.7795,-530.7306 604.9264,-528.4349 612.3862,-526 621.842,-522.9136 631.9768,-519.0833 641.0877,-515.4394"/>
<polygon fill="#000000" fill-opacity="0.466667" stroke="#000000" stroke-width="2" stroke-opacity="0.466667" points="642.5549,-518.621 650.4917,-511.6027 639.9105,-512.1397 642.5549,-518.621"/>
</g>
<!-- lib/gen&#45;dinamic&#45;data/gen&#45;random&#45;var/__tests/get.spec.js -->
<g id="node29" class="node">
<title>lib/gen&#45;dinamic&#45;data/gen&#45;random&#45;var/__tests/get.spec.js</title>
<g id="a_node29"><a xlink:href="lib/gen-dinamic-data/gen-random-var/__tests/get.spec.js" xlink:title="get.spec.js">
<path fill="#ffffcc" stroke="#000000" d="M582.2249,-519.5C582.2249,-519.5 534.5133,-519.5 534.5133,-519.5 531.68,-519.5 528.8467,-516.6667 528.8467,-513.8333 528.8467,-513.8333 528.8467,-508.1667 528.8467,-508.1667 528.8467,-505.3333 531.68,-502.5 534.5133,-502.5 534.5133,-502.5 582.2249,-502.5 582.2249,-502.5 585.0583,-502.5 587.8916,-505.3333 587.8916,-508.1667 587.8916,-508.1667 587.8916,-513.8333 587.8916,-513.8333 587.8916,-516.6667 585.0583,-519.5 582.2249,-519.5"/>
<text text-anchor="middle" x="558.3691" y="-508.3" font-family="Helvetica,sans-Serif" font-size="9.00" fill="#000000">get.spec.js</text>
</a>
</g>
</g>
<!-- lib/gen&#45;dinamic&#45;data/gen&#45;random&#45;var/__tests/get.spec.js&#45;&gt;lib/gen&#45;dinamic&#45;data/gen&#45;random&#45;var/index.js -->
<g id="edge36" class="edge">
<title>lib/gen&#45;dinamic&#45;data/gen&#45;random&#45;var/__tests/get.spec.js&#45;&gt;lib/gen&#45;dinamic&#45;data/gen&#45;random&#45;var/index.js</title>
<path fill="none" stroke="#000000" stroke-width="2" stroke-opacity="0.466667" d="M588.099,-508.8772C601.8708,-507.8938 618.3841,-506.7147 632.993,-505.6715"/>
<polygon fill="#000000" fill-opacity="0.466667" stroke="#000000" stroke-width="2" stroke-opacity="0.466667" points="633.5022,-509.1442 643.2275,-504.9407 633.0036,-502.1619 633.5022,-509.1442"/>
</g>
<!-- lib/gen&#45;dinamic&#45;data/gen&#45;random&#45;var/gen&#45;random&#45;number.js -->
<g id="node30" class="node">
<title>lib/gen&#45;dinamic&#45;data/gen&#45;random&#45;var/gen&#45;random&#45;number.js</title>
<g id="a_node30"><a xlink:href="lib/gen-dinamic-data/gen-random-var/gen-random-number.js" xlink:title="gen&#45;random&#45;number.js">
<path fill="#ffffcc" stroke="#000000" d="M845.5816,-540.5C845.5816,-540.5 750.8144,-540.5 750.8144,-540.5 747.9811,-540.5 745.1477,-537.6667 745.1477,-534.8333 745.1477,-534.8333 745.1477,-529.1667 745.1477,-529.1667 745.1477,-526.3333 747.9811,-523.5 750.8144,-523.5 750.8144,-523.5 845.5816,-523.5 845.5816,-523.5 848.4149,-523.5 851.2483,-526.3333 851.2483,-529.1667 851.2483,-529.1667 851.2483,-534.8333 851.2483,-534.8333 851.2483,-537.6667 848.4149,-540.5 845.5816,-540.5"/>
<text text-anchor="middle" x="798.198" y="-529.3" font-family="Helvetica,sans-Serif" font-size="9.00" fill="#000000">gen&#45;random&#45;number.js</text>
</a>
</g>
</g>
<!-- lib/gen&#45;dinamic&#45;data/gen&#45;random&#45;var/gen&#45;random&#45;string.js -->
<g id="node31" class="node">
<title>lib/gen&#45;dinamic&#45;data/gen&#45;random&#45;var/gen&#45;random&#45;string.js</title>
<g id="a_node31"><a xlink:href="lib/gen-dinamic-data/gen-random-var/gen-random-string.js" xlink:title="gen&#45;random&#45;string.js">
<path fill="#ffffcc" stroke="#000000" d="M841.5661,-569.5C841.5661,-569.5 754.8299,-569.5 754.8299,-569.5 751.9965,-569.5 749.1632,-566.6667 749.1632,-563.8333 749.1632,-563.8333 749.1632,-558.1667 749.1632,-558.1667 749.1632,-555.3333 751.9965,-552.5 754.8299,-552.5 754.8299,-552.5 841.5661,-552.5 841.5661,-552.5 844.3995,-552.5 847.2328,-555.3333 847.2328,-558.1667 847.2328,-558.1667 847.2328,-563.8333 847.2328,-563.8333 847.2328,-566.6667 844.3995,-569.5 841.5661,-569.5"/>
<text text-anchor="middle" x="798.198" y="-558.3" font-family="Helvetica,sans-Serif" font-size="9.00" fill="#000000">gen&#45;random&#45;string.js</text>
</a>
</g>
</g>
<!-- lib/gen&#45;dinamic&#45;data/gen&#45;random&#45;var/get&#45;random&#45;array&#45;element.js -->
<g id="node32" class="node">
<title>lib/gen&#45;dinamic&#45;data/gen&#45;random&#45;var/get&#45;random&#45;array&#45;element.js</title>
<g id="a_node32"><a xlink:href="lib/gen-dinamic-data/gen-random-var/get-random-array-element.js" xlink:title="get&#45;random&#45;array&#45;element.js">
<path fill="#ffffcc" stroke="#000000" d="M857.0736,-511.5C857.0736,-511.5 739.3224,-511.5 739.3224,-511.5 736.489,-511.5 733.6557,-508.6667 733.6557,-505.8333 733.6557,-505.8333 733.6557,-500.1667 733.6557,-500.1667 733.6557,-497.3333 736.489,-494.5 739.3224,-494.5 739.3224,-494.5 857.0736,-494.5 857.0736,-494.5 859.907,-494.5 862.7403,-497.3333 862.7403,-500.1667 862.7403,-500.1667 862.7403,-505.8333 862.7403,-505.8333 862.7403,-508.6667 859.907,-511.5 857.0736,-511.5"/>
<text text-anchor="middle" x="798.198" y="-500.3" font-family="Helvetica,sans-Serif" font-size="9.00" fill="#000000">get&#45;random&#45;array&#45;element.js</text>
</a>
</g>
</g>
<!-- lib/gen&#45;dinamic&#45;data/gen&#45;random&#45;var/index.js&#45;&gt;lib/gen&#45;dinamic&#45;data/gen&#45;random&#45;var/gen&#45;random&#45;number.js -->
<g id="edge37" class="edge">
<title>lib/gen&#45;dinamic&#45;data/gen&#45;random&#45;var/index.js&#45;&gt;lib/gen&#45;dinamic&#45;data/gen&#45;random&#45;var/gen&#45;random&#45;number.js</title>
<path fill="none" stroke="#000000" stroke-width="2" stroke-opacity="0.466667" d="M697.6756,-509.6212C708.7571,-512.2778 721.692,-515.3354 733.4272,-518 738.1568,-519.0739 743.085,-520.1737 748.0184,-521.2618"/>
<polygon fill="#000000" fill-opacity="0.466667" stroke="#000000" stroke-width="2" stroke-opacity="0.466667" points="747.5725,-524.747 758.0897,-523.4669 749.0697,-517.909 747.5725,-524.747"/>
</g>
<!-- lib/gen&#45;dinamic&#45;data/gen&#45;random&#45;var/index.js&#45;&gt;lib/gen&#45;dinamic&#45;data/gen&#45;random&#45;var/gen&#45;random&#45;string.js -->
<g id="edge38" class="edge">
<title>lib/gen&#45;dinamic&#45;data/gen&#45;random&#45;var/index.js&#45;&gt;lib/gen&#45;dinamic&#45;data/gen&#45;random&#45;var/gen&#45;random&#45;string.js</title>
<path fill="none" stroke="#000000" stroke-width="2" stroke-opacity="0.466667" d="M680.3429,-511.8468C692.1591,-521.8905 712.8781,-538.0396 733.4272,-547 735.2859,-547.8105 737.1957,-548.5757 739.1407,-549.2981"/>
<polygon fill="#000000" fill-opacity="0.466667" stroke="#000000" stroke-width="2" stroke-opacity="0.466667" points="738.4931,-552.7692 749.0859,-552.5639 740.6771,-546.1187 738.4931,-552.7692"/>
</g>
<!-- lib/gen&#45;dinamic&#45;data/gen&#45;random&#45;var/index.js&#45;&gt;lib/gen&#45;dinamic&#45;data/gen&#45;random&#45;var/get&#45;random&#45;array&#45;element.js -->
<g id="edge39" class="edge">
<title>lib/gen&#45;dinamic&#45;data/gen&#45;random&#45;var/index.js&#45;&gt;lib/gen&#45;dinamic&#45;data/gen&#45;random&#45;var/get&#45;random&#45;array&#45;element.js</title>
<path fill="none" stroke="#000000" stroke-width="2" stroke-opacity="0.466667" d="M697.508,-503C705.3096,-503 714.2214,-503 723.4442,-503"/>
<polygon fill="#000000" fill-opacity="0.466667" stroke="#000000" stroke-width="2" stroke-opacity="0.466667" points="723.5361,-506.5001 733.5361,-503 723.536,-499.5001 723.5361,-506.5001"/>
</g>
<!-- lib/gen&#45;dinamic&#45;data/gen&#45;vat.js -->
<g id="node34" class="node">
<title>lib/gen&#45;dinamic&#45;data/gen&#45;vat.js</title>
<g id="a_node34"><a xlink:href="lib/gen-dinamic-data/gen-vat.js" xlink:title="gen&#45;vat.js">
<path fill="#ffffcc" stroke="#000000" d="M452.6893,-501.5C452.6893,-501.5 408.9845,-501.5 408.9845,-501.5 406.1512,-501.5 403.3179,-498.6667 403.3179,-495.8333 403.3179,-495.8333 403.3179,-490.1667 403.3179,-490.1667 403.3179,-487.3333 406.1512,-484.5 408.9845,-484.5 408.9845,-484.5 452.6893,-484.5 452.6893,-484.5 455.5226,-484.5 458.356,-487.3333 458.356,-490.1667 458.356,-490.1667 458.356,-495.8333 458.356,-495.8333 458.356,-498.6667 455.5226,-501.5 452.6893,-501.5"/>
<text text-anchor="middle" x="430.8369" y="-490.3" font-family="Helvetica,sans-Serif" font-size="9.00" fill="#000000">gen&#45;vat.js</text>
</a>
</g>
</g>
<!-- lib/gen&#45;dinamic&#45;data/gen&#45;vat.js&#45;&gt;lib/gen&#45;dinamic&#45;data/gen&#45;random&#45;var/index.js -->
<g id="edge40" class="edge">
<title>lib/gen&#45;dinamic&#45;data/gen&#45;vat.js&#45;&gt;lib/gen&#45;dinamic&#45;data/gen&#45;random&#45;var/index.js</title>
<path fill="none" stroke="#000000" stroke-width="2" stroke-opacity="0.466667" d="M458.607,-490.7551C494.2999,-488.3138 558.1384,-485.4489 612.3862,-491 619.1926,-491.6965 626.379,-492.8412 633.2884,-494.1541"/>
<polygon fill="#000000" fill-opacity="0.466667" stroke="#000000" stroke-width="2" stroke-opacity="0.466667" points="632.6387,-497.5936 643.1368,-496.1655 634.0395,-490.7352 632.6387,-497.5936"/>
</g>
<!-- lib/gen&#45;dinamic&#45;data/index.js -->
<g id="node35" class="node">
<title>lib/gen&#45;dinamic&#45;data/index.js</title>
<g id="a_node35"><a xlink:href="lib/gen-dinamic-data/index.js" xlink:title="index.js">
<path fill="#ffffcc" stroke="#000000" d="M333.6441,-318.5C333.6441,-318.5 290.9775,-318.5 290.9775,-318.5 288.1441,-318.5 285.3108,-315.6667 285.3108,-312.8333 285.3108,-312.8333 285.3108,-307.1667 285.3108,-307.1667 285.3108,-304.3333 288.1441,-301.5 290.9775,-301.5 290.9775,-301.5 333.6441,-301.5 333.6441,-301.5 336.4775,-301.5 339.3108,-304.3333 339.3108,-307.1667 339.3108,-307.1667 339.3108,-312.8333 339.3108,-312.8333 339.3108,-315.6667 336.4775,-318.5 333.6441,-318.5"/>
<text text-anchor="middle" x="312.3108" y="-307.3" font-family="Helvetica,sans-Serif" font-size="9.00" fill="#000000">index.js</text>
</a>
</g>
</g>
<!-- lib/gen&#45;dinamic&#45;data/index.js&#45;&gt;lib/gen&#45;dinamic&#45;data/gen&#45;address/index.js -->
<g id="edge41" class="edge">
<title>lib/gen&#45;dinamic&#45;data/index.js&#45;&gt;lib/gen&#45;dinamic&#45;data/gen&#45;address/index.js</title>
<path fill="none" stroke="#000000" stroke-width="2" stroke-opacity="0.466667" d="M319.677,-318.8593C329.2063,-329.6867 346.8759,-347.7097 366.0684,-357 374.6103,-361.1348 384.4201,-363.8499 393.7782,-365.6312"/>
<polygon fill="#000000" fill-opacity="0.466667" stroke="#000000" stroke-width="2" stroke-opacity="0.466667" points="393.2457,-369.0904 403.6742,-367.2206 394.3558,-362.179 393.2457,-369.0904"/>
</g>
<!-- lib/gen&#45;dinamic&#45;data/index.js&#45;&gt;lib/gen&#45;dinamic&#45;data/gen&#45;anagrafica.js -->
<g id="edge42" class="edge">
<title>lib/gen&#45;dinamic&#45;data/index.js&#45;&gt;lib/gen&#45;dinamic&#45;data/gen&#45;anagrafica.js</title>
<path fill="none" stroke="#000000" stroke-width="2" stroke-opacity="0.466667" d="M339.3814,-302.4406C347.9193,-300.058 357.3875,-297.4174 366.0684,-295 373.9814,-292.7964 382.4391,-290.4439 390.5438,-288.191"/>
<polygon fill="#000000" fill-opacity="0.466667" stroke="#000000" stroke-width="2" stroke-opacity="0.466667" points="391.4967,-291.5589 400.1943,-285.5089 389.6223,-284.8145 391.4967,-291.5589"/>
</g>
<!-- lib/gen&#45;dinamic&#45;data/index.js&#45;&gt;lib/gen&#45;dinamic&#45;data/gen&#45;birthday.js -->
<g id="edge43" class="edge">
<title>lib/gen&#45;dinamic&#45;data/index.js&#45;&gt;lib/gen&#45;dinamic&#45;data/gen&#45;birthday.js</title>
<path fill="none" stroke="#000000" stroke-width="2" stroke-opacity="0.466667" d="M339.5835,-308.0049C380.906,-304.982 459.9459,-299.2 510.8545,-295.4759"/>
<polygon fill="#000000" fill-opacity="0.466667" stroke="#000000" stroke-width="2" stroke-opacity="0.466667" points="511.2363,-298.9574 520.9543,-294.737 510.7255,-291.976 511.2363,-298.9574"/>
</g>
<!-- lib/gen&#45;dinamic&#45;data/index.js&#45;&gt;lib/gen&#45;dinamic&#45;data/gen&#45;company.js -->
<g id="edge44" class="edge">
<title>lib/gen&#45;dinamic&#45;data/index.js&#45;&gt;lib/gen&#45;dinamic&#45;data/gen&#45;company.js</title>
<path fill="none" stroke="#000000" stroke-width="2" stroke-opacity="0.466667" d="M339.5031,-312.5236C351.8224,-313.6669 366.7875,-315.0558 381.0087,-316.3756"/>
<polygon fill="#000000" fill-opacity="0.466667" stroke="#000000" stroke-width="2" stroke-opacity="0.466667" points="380.9034,-319.8808 391.184,-317.32 381.5503,-312.9107 380.9034,-319.8808"/>
</g>
<!-- lib/gen&#45;dinamic&#45;data/index.js&#45;&gt;lib/gen&#45;dinamic&#45;data/gen&#45;national&#45;id/index.js -->
<g id="edge45" class="edge">
<title>lib/gen&#45;dinamic&#45;data/index.js&#45;&gt;lib/gen&#45;dinamic&#45;data/gen&#45;national&#45;id/index.js</title>
<path fill="none" stroke="#000000" stroke-width="2" stroke-opacity="0.466667" d="M312.5075,-318.5088C313.8906,-373.039 323.383,-673.6944 366.0684,-753 375.3322,-770.2114 392.3572,-784.3401 406.6277,-793.9665"/>
<polygon fill="#000000" fill-opacity="0.466667" stroke="#000000" stroke-width="2" stroke-opacity="0.466667" points="404.7538,-796.9226 415.0631,-799.3657 408.5275,-791.0269 404.7538,-796.9226"/>
</g>
<!-- lib/gen&#45;dinamic&#45;data/index.js&#45;&gt;lib/gen&#45;dinamic&#45;data/gen&#45;phone&#45;number.js -->
<g id="edge46" class="edge">
<title>lib/gen&#45;dinamic&#45;data/index.js&#45;&gt;lib/gen&#45;dinamic&#45;data/gen&#45;phone&#45;number.js</title>
<path fill="none" stroke="#000000" stroke-width="2" stroke-opacity="0.466667" d="M319.7451,-301.2775C329.3447,-290.5913 347.0868,-272.7139 366.0684,-263 368.1924,-261.913 370.3957,-260.9038 372.6516,-259.9668"/>
<polygon fill="#000000" fill-opacity="0.466667" stroke="#000000" stroke-width="2" stroke-opacity="0.466667" points="373.9544,-263.2174 382.154,-256.508 371.56,-256.6396 373.9544,-263.2174"/>
</g>
<!-- lib/gen&#45;dinamic&#45;data/index.js&#45;&gt;lib/gen&#45;dinamic&#45;data/gen&#45;vat.js -->
<g id="edge47" class="edge">
<title>lib/gen&#45;dinamic&#45;data/index.js&#45;&gt;lib/gen&#45;dinamic&#45;data/gen&#45;vat.js</title>
<path fill="none" stroke="#000000" stroke-width="2" stroke-opacity="0.466667" d="M313.8712,-318.5733C319.7138,-349.746 341.2369,-456.4243 366.0684,-479 373.46,-485.7201 383.2892,-489.4921 393.052,-491.5428"/>
<polygon fill="#000000" fill-opacity="0.466667" stroke="#000000" stroke-width="2" stroke-opacity="0.466667" points="392.6771,-495.0265 403.0968,-493.1081 393.755,-488.11 392.6771,-495.0265"/>
</g>
<!-- lib/get&#45;static&#45;data/get&#45;static&#45;national&#45;id.js -->
<g id="node37" class="node">
<title>lib/get&#45;static&#45;data/get&#45;static&#45;national&#45;id.js</title>
<g id="a_node37"><a xlink:href="lib/get-static-data/get-static-national-id.js" xlink:title="get&#45;static&#45;national&#45;id.js">
<path fill="#ffffcc" stroke="#000000" d="M478.2098,-1038.5C478.2098,-1038.5 383.464,-1038.5 383.464,-1038.5 380.6307,-1038.5 377.7974,-1035.6667 377.7974,-1032.8333 377.7974,-1032.8333 377.7974,-1027.1667 377.7974,-1027.1667 377.7974,-1024.3333 380.6307,-1021.5 383.464,-1021.5 383.464,-1021.5 478.2098,-1021.5 478.2098,-1021.5 481.0431,-1021.5 483.8765,-1024.3333 483.8765,-1027.1667 483.8765,-1027.1667 483.8765,-1032.8333 483.8765,-1032.8333 483.8765,-1035.6667 481.0431,-1038.5 478.2098,-1038.5"/>
<text text-anchor="middle" x="430.8369" y="-1027.3" font-family="Helvetica,sans-Serif" font-size="9.00" fill="#000000">get&#45;static&#45;national&#45;id.js</text>
</a>
</g>
</g>
<!-- lib/get&#45;static&#45;data/get&#45;static&#45;profile&#45;merchant.js -->
<g id="node38" class="node">
<title>lib/get&#45;static&#45;data/get&#45;static&#45;profile&#45;merchant.js</title>
<g id="a_node38"><a xlink:href="lib/get-static-data/get-static-profile-merchant.js" xlink:title="get&#45;static&#45;profile&#45;merchant.js">
<path fill="#ffffcc" stroke="#000000" d="M489.7082,-951.5C489.7082,-951.5 371.9656,-951.5 371.9656,-951.5 369.1323,-951.5 366.299,-948.6667 366.299,-945.8333 366.299,-945.8333 366.299,-940.1667 366.299,-940.1667 366.299,-937.3333 369.1323,-934.5 371.9656,-934.5 371.9656,-934.5 489.7082,-934.5 489.7082,-934.5 492.5415,-934.5 495.3748,-937.3333 495.3748,-940.1667 495.3748,-940.1667 495.3748,-945.8333 495.3748,-945.8333 495.3748,-948.6667 492.5415,-951.5 489.7082,-951.5"/>
<text text-anchor="middle" x="430.8369" y="-940.3" font-family="Helvetica,sans-Serif" font-size="9.00" fill="#000000">get&#45;static&#45;profile&#45;merchant.js</text>
</a>
</g>
</g>
<!-- lib/get&#45;static&#45;data/get&#45;static&#45;profile&#45;personal.js -->
<g id="node39" class="node">
<title>lib/get&#45;static&#45;data/get&#45;static&#45;profile&#45;personal.js</title>
<g id="a_node39"><a xlink:href="lib/get-static-data/get-static-profile-personal.js" xlink:title="get&#45;static&#45;profile&#45;personal.js">
<path fill="#ffffcc" stroke="#000000" d="M488.2155,-980.5C488.2155,-980.5 373.4583,-980.5 373.4583,-980.5 370.625,-980.5 367.7917,-977.6667 367.7917,-974.8333 367.7917,-974.8333 367.7917,-969.1667 367.7917,-969.1667 367.7917,-966.3333 370.625,-963.5 373.4583,-963.5 373.4583,-963.5 488.2155,-963.5 488.2155,-963.5 491.0488,-963.5 493.8822,-966.3333 493.8822,-969.1667 493.8822,-969.1667 493.8822,-974.8333 493.8822,-974.8333 493.8822,-977.6667 491.0488,-980.5 488.2155,-980.5"/>
<text text-anchor="middle" x="430.8369" y="-969.3" font-family="Helvetica,sans-Serif" font-size="9.00" fill="#000000">get&#45;static&#45;profile&#45;personal.js</text>
</a>
</g>
</g>
<!-- lib/get&#45;static&#45;data/get&#45;static&#45;vat&#45;id.js -->
<g id="node40" class="node">
<title>lib/get&#45;static&#45;data/get&#45;static&#45;vat&#45;id.js</title>
<g id="a_node40"><a xlink:href="lib/get-static-data/get-static-vat-id.js" xlink:title="get&#45;static&#45;vat&#45;id.js">
<path fill="#ffffcc" stroke="#000000" d="M468.1906,-1009.5C468.1906,-1009.5 393.4832,-1009.5 393.4832,-1009.5 390.6499,-1009.5 387.8165,-1006.6667 387.8165,-1003.8333 387.8165,-1003.8333 387.8165,-998.1667 387.8165,-998.1667 387.8165,-995.3333 390.6499,-992.5 393.4832,-992.5 393.4832,-992.5 468.1906,-992.5 468.1906,-992.5 471.024,-992.5 473.8573,-995.3333 473.8573,-998.1667 473.8573,-998.1667 473.8573,-1003.8333 473.8573,-1003.8333 473.8573,-1006.6667 471.024,-1009.5 468.1906,-1009.5"/>
<text text-anchor="middle" x="430.8369" y="-998.3" font-family="Helvetica,sans-Serif" font-size="9.00" fill="#000000">get&#45;static&#45;vat&#45;id.js</text>
</a>
</g>
</g>
<!-- lib/get&#45;static&#45;data/index.js -->
<g id="node41" class="node">
<title>lib/get&#45;static&#45;data/index.js</title>
<g id="a_node41"><a xlink:href="lib/get-static-data/index.js" xlink:title="index.js">
<path fill="#ffffcc" stroke="#000000" d="M333.6441,-980.5C333.6441,-980.5 290.9775,-980.5 290.9775,-980.5 288.1441,-980.5 285.3108,-977.6667 285.3108,-974.8333 285.3108,-974.8333 285.3108,-969.1667 285.3108,-969.1667 285.3108,-966.3333 288.1441,-963.5 290.9775,-963.5 290.9775,-963.5 333.6441,-963.5 333.6441,-963.5 336.4775,-963.5 339.3108,-966.3333 339.3108,-969.1667 339.3108,-969.1667 339.3108,-974.8333 339.3108,-974.8333 339.3108,-977.6667 336.4775,-980.5 333.6441,-980.5"/>
<text text-anchor="middle" x="312.3108" y="-969.3" font-family="Helvetica,sans-Serif" font-size="9.00" fill="#000000">index.js</text>
</a>
</g>
</g>
<!-- lib/get&#45;static&#45;data/index.js&#45;&gt;lib/get&#45;static&#45;data/get&#45;static&#45;national&#45;id.js -->
<g id="edge48" class="edge">
<title>lib/get&#45;static&#45;data/index.js&#45;&gt;lib/get&#45;static&#45;data/get&#45;static&#45;national&#45;id.js</title>
<path fill="none" stroke="#000000" stroke-width="2" stroke-opacity="0.466667" d="M320.1827,-980.5449C329.9548,-990.6126 347.6012,-1007.0931 366.0684,-1016 367.4284,-1016.6559 368.8192,-1017.2814 370.234,-1017.8779"/>
<polygon fill="#000000" fill-opacity="0.466667" stroke="#000000" stroke-width="2" stroke-opacity="0.466667" points="369.2562,-1021.2472 379.8498,-1021.4072 371.6682,-1014.6759 369.2562,-1021.2472"/>
</g>
<!-- lib/get&#45;static&#45;data/index.js&#45;&gt;lib/get&#45;static&#45;data/get&#45;static&#45;profile&#45;merchant.js -->
<g id="edge49" class="edge">
<title>lib/get&#45;static&#45;data/index.js&#45;&gt;lib/get&#45;static&#45;data/get&#45;static&#45;profile&#45;merchant.js</title>
<path fill="none" stroke="#000000" stroke-width="2" stroke-opacity="0.466667" d="M339.3465,-964.8059C347.8828,-962.5756 357.3588,-960.1422 366.0684,-958 371.5323,-956.6561 377.264,-955.28 382.9633,-953.9329"/>
<polygon fill="#000000" fill-opacity="0.466667" stroke="#000000" stroke-width="2" stroke-opacity="0.466667" points="384.1846,-957.2416 393.1223,-951.5523 382.5875,-950.4262 384.1846,-957.2416"/>
</g>
<!-- lib/get&#45;static&#45;data/index.js&#45;&gt;lib/get&#45;static&#45;data/get&#45;static&#45;profile&#45;personal.js -->
<g id="edge50" class="edge">
<title>lib/get&#45;static&#45;data/index.js&#45;&gt;lib/get&#45;static&#45;data/get&#45;static&#45;profile&#45;personal.js</title>
<path fill="none" stroke="#000000" stroke-width="2" stroke-opacity="0.466667" d="M339.5031,-972C345.0647,-972 351.1656,-972 357.4938,-972"/>
<polygon fill="#000000" fill-opacity="0.466667" stroke="#000000" stroke-width="2" stroke-opacity="0.466667" points="357.5806,-975.5001 367.5805,-972 357.5805,-968.5001 357.5806,-975.5001"/>
</g>
<!-- lib/get&#45;static&#45;data/index.js&#45;&gt;lib/get&#45;static&#45;data/get&#45;static&#45;vat&#45;id.js -->
<g id="edge51" class="edge">
<title>lib/get&#45;static&#45;data/index.js&#45;&gt;lib/get&#45;static&#45;data/get&#45;static&#45;vat&#45;id.js</title>
<path fill="none" stroke="#000000" stroke-width="2" stroke-opacity="0.466667" d="M339.5759,-979.9452C348.0383,-982.3202 357.4149,-984.8595 366.0684,-987 370.4586,-988.086 375.0279,-989.1686 379.6177,-990.2232"/>
<polygon fill="#000000" fill-opacity="0.466667" stroke="#000000" stroke-width="2" stroke-opacity="0.466667" points="379.1122,-993.6969 389.6367,-992.4778 380.649,-986.8677 379.1122,-993.6969"/>
</g>
<!-- lib/helpers/get&#45;cl&#45;checksum.js -->
<g id="node42" class="node">
<title>lib/helpers/get&#45;cl&#45;checksum.js</title>
<g id="a_node42"><a xlink:href="lib/helpers/get-cl-checksum.js" xlink:title="get&#45;cl&#45;checksum.js">
<path fill="#ffffcc" stroke="#000000" d="M837.5507,-197.5C837.5507,-197.5 758.8453,-197.5 758.8453,-197.5 756.012,-197.5 753.1787,-194.6667 753.1787,-191.8333 753.1787,-191.8333 753.1787,-186.1667 753.1787,-186.1667 753.1787,-183.3333 756.012,-180.5 758.8453,-180.5 758.8453,-180.5 837.5507,-180.5 837.5507,-180.5 840.384,-180.5 843.2173,-183.3333 843.2173,-186.1667 843.2173,-186.1667 843.2173,-191.8333 843.2173,-191.8333 843.2173,-194.6667 840.384,-197.5 837.5507,-197.5"/>
<text text-anchor="middle" x="798.198" y="-186.3" font-family="Helvetica,sans-Serif" font-size="9.00" fill="#000000">get&#45;cl&#45;checksum.js</text>
</a>
</g>
</g>
<!-- lib/helpers/index.js&#45;&gt;lib/helpers/get&#45;cl&#45;checksum.js -->
<g id="edge52" class="edge">
<title>lib/helpers/index.js&#45;&gt;lib/helpers/get&#45;cl&#45;checksum.js</title>
<path fill="none" stroke="#000000" stroke-width="2" stroke-opacity="0.466667" d="M697.508,-189C710.7301,-189 727.141,-189 742.8501,-189"/>
<polygon fill="#000000" fill-opacity="0.466667" stroke="#000000" stroke-width="2" stroke-opacity="0.466667" points="743.0312,-192.5001 753.0312,-189 743.0312,-185.5001 743.0312,-192.5001"/>
</g>
<!-- lib/index.js -->
<g id="node44" class="node">
<title>lib/index.js</title>
<g id="a_node44"><a xlink:href="lib/index.js" xlink:title="index.js">
<path fill="#ffffcc" stroke="#000000" d="M64.3333,-197.5C64.3333,-197.5 21.6667,-197.5 21.6667,-197.5 18.8333,-197.5 16,-194.6667 16,-191.8333 16,-191.8333 16,-186.1667 16,-186.1667 16,-183.3333 18.8333,-180.5 21.6667,-180.5 21.6667,-180.5 64.3333,-180.5 64.3333,-180.5 67.1667,-180.5 70,-183.3333 70,-186.1667 70,-186.1667 70,-191.8333 70,-191.8333 70,-194.6667 67.1667,-197.5 64.3333,-197.5"/>
<text text-anchor="middle" x="43" y="-186.3" font-family="Helvetica,sans-Serif" font-size="9.00" fill="#000000">index.js</text>
</a>
</g>
</g>
<!-- lib/profile/index.js -->
<g id="node49" class="node">
<title>lib/profile/index.js</title>
<g id="a_node49"><a xlink:href="lib/profile/index.js" xlink:title="index.js">
<path fill="#ffffcc" stroke="#000000" d="M158.5994,-197.5C158.5994,-197.5 115.9328,-197.5 115.9328,-197.5 113.0994,-197.5 110.2661,-194.6667 110.2661,-191.8333 110.2661,-191.8333 110.2661,-186.1667 110.2661,-186.1667 110.2661,-183.3333 113.0994,-180.5 115.9328,-180.5 115.9328,-180.5 158.5994,-180.5 158.5994,-180.5 161.4328,-180.5 164.2661,-183.3333 164.2661,-186.1667 164.2661,-186.1667 164.2661,-191.8333 164.2661,-191.8333 164.2661,-194.6667 161.4328,-197.5 158.5994,-197.5"/>
<text text-anchor="middle" x="137.2661" y="-186.3" font-family="Helvetica,sans-Serif" font-size="9.00" fill="#000000">index.js</text>
</a>
</g>
</g>
<!-- lib/index.js&#45;&gt;lib/profile/index.js -->
<g id="edge53" class="edge">
<title>lib/index.js&#45;&gt;lib/profile/index.js</title>
<path fill="none" stroke="#000000" stroke-width="2" stroke-opacity="0.466667" d="M70.0129,-189C79.3808,-189 90.0541,-189 100.0953,-189"/>
<polygon fill="#000000" fill-opacity="0.466667" stroke="#000000" stroke-width="2" stroke-opacity="0.466667" points="100.2493,-192.5001 110.2493,-189 100.2492,-185.5001 100.2493,-192.5001"/>
</g>
<!-- lib/profile/Profile.js -->
<g id="node45" class="node">
<title>lib/profile/Profile.js</title>
<g id="a_node45"><a xlink:href="lib/profile/Profile.js" xlink:title="Profile.js">
<path fill="#ffffcc" stroke="#000000" d="M333.6441,-138.5C333.6441,-138.5 290.9775,-138.5 290.9775,-138.5 288.1441,-138.5 285.3108,-135.6667 285.3108,-132.8333 285.3108,-132.8333 285.3108,-127.1667 285.3108,-127.1667 285.3108,-124.3333 288.1441,-121.5 290.9775,-121.5 290.9775,-121.5 333.6441,-121.5 333.6441,-121.5 336.4775,-121.5 339.3108,-124.3333 339.3108,-127.1667 339.3108,-127.1667 339.3108,-132.8333 339.3108,-132.8333 339.3108,-135.6667 336.4775,-138.5 333.6441,-138.5"/>
<text text-anchor="middle" x="312.3108" y="-127.3" font-family="Helvetica,sans-Serif" font-size="9.00" fill="#000000">Profile.js</text>
</a>
</g>
</g>
<!-- lib/profile/Profile.js&#45;&gt;lib/data/index.js -->
<g id="edge54" class="edge">
<title>lib/profile/Profile.js&#45;&gt;lib/data/index.js</title>
<path fill="none" stroke="#000000" stroke-width="2" stroke-opacity="0.466667" d="M339.5835,-130C383.8569,-130 471.4272,-130 521.3068,-130"/>
<polygon fill="#000000" fill-opacity="0.466667" stroke="#000000" stroke-width="2" stroke-opacity="0.466667" points="521.3493,-133.5001 531.3493,-130 521.3493,-126.5001 521.3493,-133.5001"/>
</g>
<!-- lib/profile/__tests/get&#45;profile.spec.js -->
<g id="node46" class="node">
<title>lib/profile/__tests/get&#45;profile.spec.js</title>
<g id="a_node46"><a xlink:href="lib/profile/__tests/get-profile.spec.js" xlink:title="get&#45;profile.spec.js">
<path fill="#ffffcc" stroke="#000000" d="M174.6329,-146.5C174.6329,-146.5 99.8993,-146.5 99.8993,-146.5 97.066,-146.5 94.2326,-143.6667 94.2326,-140.8333 94.2326,-140.8333 94.2326,-135.1667 94.2326,-135.1667 94.2326,-132.3333 97.066,-129.5 99.8993,-129.5 99.8993,-129.5 174.6329,-129.5 174.6329,-129.5 177.4663,-129.5 180.2996,-132.3333 180.2996,-135.1667 180.2996,-135.1667 180.2996,-140.8333 180.2996,-140.8333 180.2996,-143.6667 177.4663,-146.5 174.6329,-146.5"/>
<text text-anchor="middle" x="137.2661" y="-135.3" font-family="Helvetica,sans-Serif" font-size="9.00" fill="#000000">get&#45;profile.spec.js</text>
</a>
</g>
</g>
<!-- lib/profile/get&#45;profile.js -->
<g id="node48" class="node">
<title>lib/profile/get&#45;profile.js</title>
<g id="a_node48"><a xlink:href="lib/profile/get-profile.js" xlink:title="get&#45;profile.js">
<path fill="#ffffcc" stroke="#000000" d="M255.8971,-189.5C255.8971,-189.5 202.1884,-189.5 202.1884,-189.5 199.3551,-189.5 196.5217,-186.6667 196.5217,-183.8333 196.5217,-183.8333 196.5217,-178.1667 196.5217,-178.1667 196.5217,-175.3333 199.3551,-172.5 202.1884,-172.5 202.1884,-172.5 255.8971,-172.5 255.8971,-172.5 258.7304,-172.5 261.5637,-175.3333 261.5637,-178.1667 261.5637,-178.1667 261.5637,-183.8333 261.5637,-183.8333 261.5637,-186.6667 258.7304,-189.5 255.8971,-189.5"/>
<text text-anchor="middle" x="229.0427" y="-178.3" font-family="Helvetica,sans-Serif" font-size="9.00" fill="#000000">get&#45;profile.js</text>
</a>
</g>
</g>
<!-- lib/profile/__tests/get&#45;profile.spec.js&#45;&gt;lib/profile/get&#45;profile.js -->
<g id="edge55" class="edge">
<title>lib/profile/__tests/get&#45;profile.spec.js&#45;&gt;lib/profile/get&#45;profile.js</title>
<path fill="none" stroke="#000000" stroke-width="2" stroke-opacity="0.466667" d="M177.2702,-146.5088C181.1495,-147.8176 184.9649,-149.308 188.5322,-151 196.7607,-154.9028 204.9934,-160.5899 211.8672,-165.9656"/>
<polygon fill="#000000" fill-opacity="0.466667" stroke="#000000" stroke-width="2" stroke-opacity="0.466667" points="209.7998,-168.7971 219.7447,-172.4507 214.2488,-163.3928 209.7998,-168.7971"/>
</g>
<!-- lib/profile/__tests/profile.spec.js -->
<g id="node47" class="node">
<title>lib/profile/__tests/profile.spec.js</title>
<g id="a_node47"><a xlink:href="lib/profile/__tests/profile.spec.js" xlink:title="profile.spec.js">
<path fill="#ffffcc" stroke="#000000" d="M167.1234,-117.5C167.1234,-117.5 107.4089,-117.5 107.4089,-117.5 104.5755,-117.5 101.7422,-114.6667 101.7422,-111.8333 101.7422,-111.8333 101.7422,-106.1667 101.7422,-106.1667 101.7422,-103.3333 104.5755,-100.5 107.4089,-100.5 107.4089,-100.5 167.1234,-100.5 167.1234,-100.5 169.9567,-100.5 172.79,-103.3333 172.79,-106.1667 172.79,-106.1667 172.79,-111.8333 172.79,-111.8333 172.79,-114.6667 169.9567,-117.5 167.1234,-117.5"/>
<text text-anchor="middle" x="137.2661" y="-106.3" font-family="Helvetica,sans-Serif" font-size="9.00" fill="#000000">profile.spec.js</text>
</a>
</g>
</g>
<!-- lib/profile/__tests/profile.spec.js&#45;&gt;lib/profile/Profile.js -->
<g id="edge56" class="edge">
<title>lib/profile/__tests/profile.spec.js&#45;&gt;lib/profile/Profile.js</title>
<path fill="none" stroke="#000000" stroke-width="2" stroke-opacity="0.466667" d="M173.1114,-113.3003C202.8166,-116.864 244.8953,-121.9122 274.9986,-125.5237"/>
<polygon fill="#000000" fill-opacity="0.466667" stroke="#000000" stroke-width="2" stroke-opacity="0.466667" points="274.7614,-129.0202 285.1072,-126.7364 275.5953,-122.0701 274.7614,-129.0202"/>
</g>
<!-- lib/profile/get&#45;profile.js&#45;&gt;lib/gen&#45;dinamic&#45;data/index.js -->
<g id="edge57" class="edge">
<title>lib/profile/get&#45;profile.js&#45;&gt;lib/gen&#45;dinamic&#45;data/index.js</title>
<path fill="none" stroke="#000000" stroke-width="2" stroke-opacity="0.466667" d="M234.7661,-189.8667C248.4392,-211.0493 283.1997,-264.9008 301.1719,-292.7435"/>
<polygon fill="#000000" fill-opacity="0.466667" stroke="#000000" stroke-width="2" stroke-opacity="0.466667" points="298.4028,-294.9074 306.7667,-301.411 304.284,-291.1111 298.4028,-294.9074"/>
</g>
<!-- lib/profile/get&#45;profile.js&#45;&gt;lib/get&#45;static&#45;data/index.js -->
<g id="edge58" class="edge">
<title>lib/profile/get&#45;profile.js&#45;&gt;lib/get&#45;static&#45;data/index.js</title>
<path fill="none" stroke="#000000" stroke-width="2" stroke-opacity="0.466667" d="M229.2834,-189.8904C231.4606,-268.855 248.2834,-848.8897 274.5532,-921 279.2304,-933.8386 288.2385,-946.2083 296.283,-955.5498"/>
<polygon fill="#000000" fill-opacity="0.466667" stroke="#000000" stroke-width="2" stroke-opacity="0.466667" points="293.9291,-958.1633 303.248,-963.2039 299.1064,-953.4521 293.9291,-958.1633"/>
</g>
<!-- lib/profile/get&#45;profile.js&#45;&gt;lib/profile/Profile.js -->
<g id="edge59" class="edge">
<title>lib/profile/get&#45;profile.js&#45;&gt;lib/profile/Profile.js</title>
<path fill="none" stroke="#000000" stroke-width="2" stroke-opacity="0.466667" d="M243.168,-172.3485C255.9251,-164.5351 274.9191,-152.9017 289.7731,-143.8039"/>
<polygon fill="#000000" fill-opacity="0.466667" stroke="#000000" stroke-width="2" stroke-opacity="0.466667" points="291.6945,-146.7314 298.3941,-138.5237 288.0384,-140.7621 291.6945,-146.7314"/>
</g>
<!-- lib/profile/mcc&#45;validate.js -->
<g id="node50" class="node">
<title>lib/profile/mcc&#45;validate.js</title>
<g id="a_node50"><a xlink:href="lib/profile/mcc-validate.js" xlink:title="mcc&#45;validate.js">
<path fill="#ffffcc" stroke="#000000" d="M344.1608,-182.5C344.1608,-182.5 280.4608,-182.5 280.4608,-182.5 277.6274,-182.5 274.7941,-179.6667 274.7941,-176.8333 274.7941,-176.8333 274.7941,-171.1667 274.7941,-171.1667 274.7941,-168.3333 277.6274,-165.5 280.4608,-165.5 280.4608,-165.5 344.1608,-165.5 344.1608,-165.5 346.9941,-165.5 349.8275,-168.3333 349.8275,-171.1667 349.8275,-171.1667 349.8275,-176.8333 349.8275,-176.8333 349.8275,-179.6667 346.9941,-182.5 344.1608,-182.5"/>
<text text-anchor="middle" x="312.3108" y="-171.3" font-family="Helvetica,sans-Serif" font-size="9.00" fill="#000000">mcc&#45;validate.js</text>
</a>
</g>
</g>
<!-- lib/profile/get&#45;profile.js&#45;&gt;lib/profile/mcc&#45;validate.js -->
<g id="edge60" class="edge">
<title>lib/profile/get&#45;profile.js&#45;&gt;lib/profile/mcc&#45;validate.js</title>
<path fill="none" stroke="#000000" stroke-width="2" stroke-opacity="0.466667" d="M261.9525,-178.2334C262.8673,-178.1565 263.7881,-178.0791 264.7128,-178.0014"/>
<polygon fill="#000000" fill-opacity="0.466667" stroke="#000000" stroke-width="2" stroke-opacity="0.466667" points="265.0171,-181.4882 274.6888,-177.1627 264.4307,-174.5128 265.0171,-181.4882"/>
</g>
<!-- lib/profile/index.js&#45;&gt;lib/profile/get&#45;profile.js -->
<g id="edge61" class="edge">
<title>lib/profile/index.js&#45;&gt;lib/profile/get&#45;profile.js</title>
<path fill="none" stroke="#000000" stroke-width="2" stroke-opacity="0.466667" d="M164.3057,-186.643C171.2125,-186.041 178.8088,-185.3788 186.2932,-184.7264"/>
<polygon fill="#000000" fill-opacity="0.466667" stroke="#000000" stroke-width="2" stroke-opacity="0.466667" points="186.6963,-188.2046 196.3546,-183.8494 186.0884,-181.2311 186.6963,-188.2046"/>
</g>
<!-- lib/profile/mcc&#45;validate.js&#45;&gt;lib/data/index.js -->
<g id="edge62" class="edge">
<title>lib/profile/mcc&#45;validate.js&#45;&gt;lib/data/index.js</title>
<path fill="none" stroke="#000000" stroke-width="2" stroke-opacity="0.466667" d="M349.9496,-167.2695C396.3839,-158.9661 474.8409,-144.9365 521.103,-136.6639"/>
<polygon fill="#000000" fill-opacity="0.466667" stroke="#000000" stroke-width="2" stroke-opacity="0.466667" points="521.7915,-140.0964 531.0192,-134.8907 520.5592,-133.2057 521.7915,-140.0964"/>
</g>
<!-- lib/profile/profile&#45;validate.js -->
<g id="node51" class="node">
<title>lib/profile/profile&#45;validate.js</title>
<g id="a_node51"><a xlink:href="lib/profile/profile-validate.js" xlink:title="profile&#45;validate.js">
<path fill="#ffffcc" stroke="#000000" d="M173.1315,-83.5C173.1315,-83.5 101.4007,-83.5 101.4007,-83.5 98.5674,-83.5 95.734,-80.6667 95.734,-77.8333 95.734,-77.8333 95.734,-72.1667 95.734,-72.1667 95.734,-69.3333 98.5674,-66.5 101.4007,-66.5 101.4007,-66.5 173.1315,-66.5 173.1315,-66.5 175.9649,-66.5 178.7982,-69.3333 178.7982,-72.1667 178.7982,-72.1667 178.7982,-77.8333 178.7982,-77.8333 178.7982,-80.6667 175.9649,-83.5 173.1315,-83.5"/>
<text text-anchor="middle" x="137.2661" y="-72.3" font-family="Helvetica,sans-Serif" font-size="9.00" fill="#000000">profile&#45;validate.js</text>
</a>
</g>
</g>
</g>
</svg>
