<?xml version="1.0" encoding="UTF-8" standalone="no"?>
<!DOCTYPE svg PUBLIC "-//W3C//DTD SVG 1.1//EN"
 "http://www.w3.org/Graphics/SVG/1.1/DTD/svg11.dtd">
<!-- Generated by graphviz version 2.40.1 (20161225.0304)
 -->
<!-- Title: dependency&#45;cruiser output Pages: 1 -->
<svg width="904pt" height="863pt"
 viewBox="0.00 0.00 903.73 863.00" xmlns="http://www.w3.org/2000/svg" xmlns:xlink="http://www.w3.org/1999/xlink">
<g id="graph0" class="graph" transform="scale(1 1) rotate(0) translate(4 859)">
<title>dependency&#45;cruiser output</title>
<polygon fill="#ffffff" stroke="transparent" points="-4,4 -4,-859 899.7268,-859 899.7268,4 -4,4"/>
<g id="clust1" class="cluster">
<title>cluster_lib</title>
<path fill="#ffffff" stroke="#000000" stroke-width="2" d="M20,-8C20,-8 875.7268,-8 875.7268,-8 881.7268,-8 887.7268,-14 887.7268,-20 887.7268,-20 887.7268,-835 887.7268,-835 887.7268,-841 881.7268,-847 875.7268,-847 875.7268,-847 20,-847 20,-847 14,-847 8,-841 8,-835 8,-835 8,-20 8,-20 8,-14 14,-8 20,-8"/>
<text text-anchor="middle" x="447.8634" y="-835.8" font-family="Helvetica,sans-Serif" font-weight="bold" font-size="9.00" fill="#000000">lib</text>
</g>
<g id="clust2" class="cluster">
<title>cluster_lib/data</title>
<path fill="#ffffff" stroke="#000000" stroke-width="2" d="M561.6555,-22C561.6555,-22 862.2253,-22 862.2253,-22 868.2253,-22 874.2253,-28 874.2253,-34 874.2253,-34 874.2253,-158 874.2253,-158 874.2253,-164 868.2253,-170 862.2253,-170 862.2253,-170 561.6555,-170 561.6555,-170 555.6555,-170 549.6555,-164 549.6555,-158 549.6555,-158 549.6555,-34 549.6555,-34 549.6555,-28 555.6555,-22 561.6555,-22"/>
<text text-anchor="middle" x="711.9404" y="-158.8" font-family="Helvetica,sans-Serif" font-weight="bold" font-size="9.00" fill="#000000">data</text>
</g>
<g id="clust3" class="cluster">
<title>cluster_lib/data/__tests</title>
<path fill="#ffffff" stroke="#000000" stroke-width="2" d="M683.6753,-54C683.6753,-54 739.7031,-54 739.7031,-54 745.7031,-54 751.7031,-60 751.7031,-66 751.7031,-66 751.7031,-93 751.7031,-93 751.7031,-99 745.7031,-105 739.7031,-105 739.7031,-105 683.6753,-105 683.6753,-105 677.6753,-105 671.6753,-99 671.6753,-93 671.6753,-93 671.6753,-66 671.6753,-66 671.6753,-60 677.6753,-54 683.6753,-54"/>
<text text-anchor="middle" x="711.6892" y="-93.8" font-family="Helvetica,sans-Serif" font-weight="bold" font-size="9.00" fill="#000000">__tests</text>
</g>
<g id="clust4" class="cluster">
<title>cluster_lib/gen&#45;dinamic&#45;data</title>
<path fill="#ffffff" stroke="#000000" stroke-width="2" d="M284.5547,-178C284.5547,-178 867.7268,-178 867.7268,-178 873.7268,-178 879.7268,-184 879.7268,-190 879.7268,-190 879.7268,-605 879.7268,-605 879.7268,-611 873.7268,-617 867.7268,-617 867.7268,-617 284.5547,-617 284.5547,-617 278.5547,-617 272.5547,-611 272.5547,-605 272.5547,-605 272.5547,-190 272.5547,-190 272.5547,-184 278.5547,-178 284.5547,-178"/>
<text text-anchor="middle" x="576.1407" y="-605.8" font-family="Helvetica,sans-Serif" font-weight="bold" font-size="9.00" fill="#000000">gen&#45;dinamic&#45;data</text>
</g>
<g id="clust5" class="cluster">
<title>cluster_lib/gen&#45;dinamic&#45;data/gen&#45;address</title>
<path fill="#ffffff" stroke="#000000" stroke-width="2" d="M427.3618,-356C427.3618,-356 626.6726,-356 626.6726,-356 632.6726,-356 638.6726,-362 638.6726,-368 638.6726,-368 638.6726,-482 638.6726,-482 638.6726,-488 632.6726,-494 626.6726,-494 626.6726,-494 427.3618,-494 427.3618,-494 421.3618,-494 415.3618,-488 415.3618,-482 415.3618,-482 415.3618,-368 415.3618,-368 415.3618,-362 421.3618,-356 427.3618,-356"/>
<text text-anchor="middle" x="527.0172" y="-482.8" font-family="Helvetica,sans-Serif" font-weight="bold" font-size="9.00" fill="#000000">gen&#45;address</text>
</g>
<g id="clust6" class="cluster">
<title>cluster_lib/gen&#45;dinamic&#45;data/gen&#45;national&#45;id</title>
<path fill="#ffffff" stroke="#000000" stroke-width="2" d="M427.3618,-212C427.3618,-212 859.7268,-212 859.7268,-212 865.7268,-212 871.7268,-218 871.7268,-224 871.7268,-224 871.7268,-310 871.7268,-310 871.7268,-316 865.7268,-322 859.7268,-322 859.7268,-322 427.3618,-322 427.3618,-322 421.3618,-322 415.3618,-316 415.3618,-310 415.3618,-310 415.3618,-224 415.3618,-224 415.3618,-218 421.3618,-212 427.3618,-212"/>
<text text-anchor="middle" x="643.5443" y="-310.8" font-family="Helvetica,sans-Serif" font-weight="bold" font-size="9.00" fill="#000000">gen&#45;national&#45;id</text>
</g>
<g id="clust7" class="cluster">
<title>cluster_lib/gen&#45;dinamic&#45;data/gen&#45;national&#45;id/it.national&#45;id</title>
<path fill="#ffffff" stroke="#000000" stroke-width="2" d="M561.6555,-220C561.6555,-220 851.7268,-220 851.7268,-220 857.7268,-220 863.7268,-226 863.7268,-232 863.7268,-232 863.7268,-259 863.7268,-259 863.7268,-265 857.7268,-271 851.7268,-271 851.7268,-271 561.6555,-271 561.6555,-271 555.6555,-271 549.6555,-265 549.6555,-259 549.6555,-259 549.6555,-232 549.6555,-232 549.6555,-226 555.6555,-220 561.6555,-220"/>
<text text-anchor="middle" x="706.6912" y="-259.8" font-family="Helvetica,sans-Serif" font-weight="bold" font-size="9.00" fill="#000000">it.national&#45;id</text>
</g>
<g id="clust8" class="cluster">
<title>cluster_lib/get&#45;static&#45;data</title>
<path fill="#ffffff" stroke="#000000" stroke-width="2" d="M303.574,-625C303.574,-625 511.1304,-625 511.1304,-625 517.1304,-625 523.1304,-631 523.1304,-637 523.1304,-637 523.1304,-751 523.1304,-751 523.1304,-757 517.1304,-763 511.1304,-763 511.1304,-763 303.574,-763 303.574,-763 297.574,-763 291.574,-757 291.574,-751 291.574,-751 291.574,-637 291.574,-637 291.574,-631 297.574,-625 303.574,-625"/>
<text text-anchor="middle" x="407.3522" y="-751.8" font-family="Helvetica,sans-Serif" font-weight="bold" font-size="9.00" fill="#000000">get&#45;static&#45;data</text>
</g>
<g id="clust9" class="cluster">
<title>cluster_lib/profile</title>
<path fill="#ffffff" stroke="#000000" stroke-width="2" d="M90,-60C90,-60 360.3315,-60 360.3315,-60 366.3315,-60 372.3315,-66 372.3315,-72 372.3315,-72 372.3315,-158 372.3315,-158 372.3315,-164 366.3315,-170 360.3315,-170 360.3315,-170 90,-170 90,-170 84,-170 78,-164 78,-158 78,-158 78,-72 78,-72 78,-66 84,-60 90,-60"/>
<text text-anchor="middle" x="225.1658" y="-158.8" font-family="Helvetica,sans-Serif" font-weight="bold" font-size="9.00" fill="#000000">profile</text>
</g>
<g id="clust10" class="cluster">
<title>cluster_lib/profile/__tests</title>
<path fill="#ffffff" stroke="#000000" stroke-width="2" d="M189.5308,-68C189.5308,-68 252.5547,-68 252.5547,-68 258.5547,-68 264.5547,-74 264.5547,-80 264.5547,-80 264.5547,-107 264.5547,-107 264.5547,-113 258.5547,-119 252.5547,-119 252.5547,-119 189.5308,-119 189.5308,-119 183.5308,-119 177.5308,-113 177.5308,-107 177.5308,-107 177.5308,-80 177.5308,-80 177.5308,-74 183.5308,-68 189.5308,-68"/>
<text text-anchor="middle" x="221.0427" y="-107.8" font-family="Helvetica,sans-Serif" font-weight="bold" font-size="9.00" fill="#000000">__tests</text>
</g>
<g id="clust11" class="cluster">
<title>cluster_lib/util</title>
<path fill="#ffffff" stroke="#000000" stroke-width="2" d="M658.6726,-625C658.6726,-625 846.9656,-625 846.9656,-625 852.9656,-625 858.9656,-631 858.9656,-637 858.9656,-637 858.9656,-810 858.9656,-810 858.9656,-816 852.9656,-822 846.9656,-822 846.9656,-822 658.6726,-822 658.6726,-822 652.6726,-822 646.6726,-816 646.6726,-810 646.6726,-810 646.6726,-637 646.6726,-637 646.6726,-631 652.6726,-625 658.6726,-625"/>
<text text-anchor="middle" x="752.8191" y="-810.8" font-family="Helvetica,sans-Serif" font-weight="bold" font-size="9.00" fill="#000000">util</text>
</g>
<g id="clust12" class="cluster">
<title>cluster_lib/util/get&#45;random&#45;user</title>
<path fill="#ffffff" stroke="#000000" stroke-width="2" d="M670.1709,-746C670.1709,-746 753.2075,-746 753.2075,-746 759.2075,-746 765.2075,-752 765.2075,-758 765.2075,-758 765.2075,-785 765.2075,-785 765.2075,-791 759.2075,-797 753.2075,-797 753.2075,-797 670.1709,-797 670.1709,-797 664.1709,-797 658.1709,-791 658.1709,-785 658.1709,-785 658.1709,-758 658.1709,-758 658.1709,-752 664.1709,-746 670.1709,-746"/>
<text text-anchor="middle" x="711.6892" y="-785.8" font-family="Helvetica,sans-Serif" font-weight="bold" font-size="9.00" fill="#000000">get&#45;random&#45;user</text>
</g>
<!-- lib/data/__tests/data.spec.js -->
<g id="node1" class="node">
<title>lib/data/__tests/data.spec.js</title>
<g id="a_node1"><a xlink:href="lib/data/__tests/data.spec.js" xlink:title="data.spec.js">
<path fill="#ffffcc" stroke="#000000" d="M738.0504,-79.5C738.0504,-79.5 685.328,-79.5 685.328,-79.5 682.4947,-79.5 679.6614,-76.6667 679.6614,-73.8333 679.6614,-73.8333 679.6614,-68.1667 679.6614,-68.1667 679.6614,-65.3333 682.4947,-62.5 685.328,-62.5 685.328,-62.5 738.0504,-62.5 738.0504,-62.5 740.8837,-62.5 743.717,-65.3333 743.717,-68.1667 743.717,-68.1667 743.717,-73.8333 743.717,-73.8333 743.717,-76.6667 740.8837,-79.5 738.0504,-79.5"/>
<text text-anchor="middle" x="711.6892" y="-68.3" font-family="Helvetica,sans-Serif" font-size="9.00" fill="#000000">data.spec.js</text>
</a>
</g>
</g>
<!-- lib/data/country&#45;list.js -->
<g id="node3" class="node">
<title>lib/data/country&#45;list.js</title>
<g id="a_node3"><a xlink:href="lib/data/country-list.js" xlink:title="country&#45;list.js">
<path fill="#ffffcc" stroke="#000000" d="M852.3109,-79.5C852.3109,-79.5 795.6203,-79.5 795.6203,-79.5 792.7869,-79.5 789.9536,-76.6667 789.9536,-73.8333 789.9536,-73.8333 789.9536,-68.1667 789.9536,-68.1667 789.9536,-65.3333 792.7869,-62.5 795.6203,-62.5 795.6203,-62.5 852.3109,-62.5 852.3109,-62.5 855.1442,-62.5 857.9776,-65.3333 857.9776,-68.1667 857.9776,-68.1667 857.9776,-73.8333 857.9776,-73.8333 857.9776,-76.6667 855.1442,-79.5 852.3109,-79.5"/>
<text text-anchor="middle" x="823.9656" y="-68.3" font-family="Helvetica,sans-Serif" font-size="9.00" fill="#000000">country&#45;list.js</text>
</a>
</g>
</g>
<!-- lib/data/__tests/data.spec.js&#45;&gt;lib/data/country&#45;list.js -->
<g id="edge1" class="edge">
<title>lib/data/__tests/data.spec.js&#45;&gt;lib/data/country&#45;list.js</title>
<path fill="none" stroke="#000000" stroke-width="2" stroke-opacity="0.466667" d="M743.8631,-71C754.9894,-71 767.6619,-71 779.5921,-71"/>
<polygon fill="#000000" fill-opacity="0.466667" stroke="#000000" stroke-width="2" stroke-opacity="0.466667" points="779.8277,-74.5001 789.8276,-71 779.8276,-67.5001 779.8277,-74.5001"/>
</g>
<!-- lib/data/mccs&#45;available.js -->
<g id="node5" class="node">
<title>lib/data/mccs&#45;available.js</title>
<g id="a_node5"><a xlink:href="lib/data/mccs-available.js" xlink:title="mccs&#45;available.js">
<path fill="#ffffcc" stroke="#000000" d="M860.3198,-47.5C860.3198,-47.5 787.6114,-47.5 787.6114,-47.5 784.778,-47.5 781.9447,-44.6667 781.9447,-41.8333 781.9447,-41.8333 781.9447,-36.1667 781.9447,-36.1667 781.9447,-33.3333 784.778,-30.5 787.6114,-30.5 787.6114,-30.5 860.3198,-30.5 860.3198,-30.5 863.1531,-30.5 865.9865,-33.3333 865.9865,-36.1667 865.9865,-36.1667 865.9865,-41.8333 865.9865,-41.8333 865.9865,-44.6667 863.1531,-47.5 860.3198,-47.5"/>
<text text-anchor="middle" x="823.9656" y="-36.3" font-family="Helvetica,sans-Serif" font-size="9.00" fill="#000000">mccs&#45;available.js</text>
</a>
</g>
</g>
<!-- lib/data/__tests/data.spec.js&#45;&gt;lib/data/mccs&#45;available.js -->
<g id="edge2" class="edge">
<title>lib/data/__tests/data.spec.js&#45;&gt;lib/data/mccs&#45;available.js</title>
<path fill="none" stroke="#000000" stroke-width="2" stroke-opacity="0.466667" d="M743.8471,-65.0525C752.0111,-63.3186 760.728,-61.2712 768.7058,-59 776.6404,-56.7411 785.0756,-53.9139 792.9036,-51.1027"/>
<polygon fill="#000000" fill-opacity="0.466667" stroke="#000000" stroke-width="2" stroke-opacity="0.466667" points="794.241,-54.34 802.4109,-47.5945 791.8176,-47.7728 794.241,-54.34"/>
</g>
<!-- lib/data/names&#45;list.js -->
<g id="node6" class="node">
<title>lib/data/names&#45;list.js</title>
<g id="a_node6"><a xlink:href="lib/data/names-list.js" xlink:title="names&#45;list.js">
<path fill="#ffffcc" stroke="#000000" d="M851.3087,-130.5C851.3087,-130.5 796.6225,-130.5 796.6225,-130.5 793.7891,-130.5 790.9558,-127.6667 790.9558,-124.8333 790.9558,-124.8333 790.9558,-119.1667 790.9558,-119.1667 790.9558,-116.3333 793.7891,-113.5 796.6225,-113.5 796.6225,-113.5 851.3087,-113.5 851.3087,-113.5 854.142,-113.5 856.9753,-116.3333 856.9753,-119.1667 856.9753,-119.1667 856.9753,-124.8333 856.9753,-124.8333 856.9753,-127.6667 854.142,-130.5 851.3087,-130.5"/>
<text text-anchor="middle" x="823.9656" y="-119.3" font-family="Helvetica,sans-Serif" font-size="9.00" fill="#000000">names&#45;list.js</text>
</a>
</g>
</g>
<!-- lib/data/__tests/data.spec.js&#45;&gt;lib/data/names&#45;list.js -->
<g id="edge3" class="edge">
<title>lib/data/__tests/data.spec.js&#45;&gt;lib/data/names&#45;list.js</title>
<path fill="none" stroke="#000000" stroke-width="2" stroke-opacity="0.466667" d="M743.7411,-76.0811C752.072,-77.9978 760.8955,-80.5749 768.7058,-84 782.201,-89.9182 795.8589,-99.2725 806.2203,-107.2188"/>
<polygon fill="#000000" fill-opacity="0.466667" stroke="#000000" stroke-width="2" stroke-opacity="0.466667" points="804.0653,-109.9769 814.0725,-113.4563 808.4193,-104.4957 804.0653,-109.9769"/>
</g>
<!-- lib/data/countries&#45;available.js -->
<g id="node2" class="node">
<title>lib/data/countries&#45;available.js</title>
<g id="a_node2"><a xlink:href="lib/data/countries-available.js" xlink:title="countries&#45;available.js">
<path fill="#ffffcc" stroke="#000000" d="M756.0636,-130.5C756.0636,-130.5 667.3149,-130.5 667.3149,-130.5 664.4815,-130.5 661.6482,-127.6667 661.6482,-124.8333 661.6482,-124.8333 661.6482,-119.1667 661.6482,-119.1667 661.6482,-116.3333 664.4815,-113.5 667.3149,-113.5 667.3149,-113.5 756.0636,-113.5 756.0636,-113.5 758.8969,-113.5 761.7302,-116.3333 761.7302,-119.1667 761.7302,-119.1667 761.7302,-124.8333 761.7302,-124.8333 761.7302,-127.6667 758.8969,-130.5 756.0636,-130.5"/>
<text text-anchor="middle" x="711.6892" y="-119.3" font-family="Helvetica,sans-Serif" font-size="9.00" fill="#000000">countries&#45;available.js</text>
</a>
</g>
</g>
<!-- lib/data/countries&#45;available.js&#45;&gt;lib/data/country&#45;list.js -->
<g id="edge4" class="edge">
<title>lib/data/countries&#45;available.js&#45;&gt;lib/data/country&#45;list.js</title>
<path fill="none" stroke="#000000" stroke-width="2" stroke-opacity="0.466667" d="M753.669,-113.4811C758.8255,-111.9153 763.9496,-110.0978 768.7058,-108 781.7785,-102.2342 795.1253,-93.3968 805.4265,-85.8048"/>
<polygon fill="#000000" fill-opacity="0.466667" stroke="#000000" stroke-width="2" stroke-opacity="0.466667" points="807.7828,-88.4094 813.6116,-79.562 803.5377,-82.8435 807.7828,-88.4094"/>
</g>
<!-- lib/data/countries&#45;available.js&#45;&gt;lib/data/names&#45;list.js -->
<g id="edge5" class="edge">
<title>lib/data/countries&#45;available.js&#45;&gt;lib/data/names&#45;list.js</title>
<path fill="none" stroke="#000000" stroke-width="2" stroke-opacity="0.466667" d="M761.9163,-122C768.2002,-122 774.584,-122 780.7481,-122"/>
<polygon fill="#000000" fill-opacity="0.466667" stroke="#000000" stroke-width="2" stroke-opacity="0.466667" points="780.8579,-125.5001 790.8578,-122 780.8578,-118.5001 780.8579,-125.5001"/>
</g>
<!-- lib/data/index.js -->
<g id="node4" class="node">
<title>lib/data/index.js</title>
<g id="a_node4"><a xlink:href="lib/data/index.js" xlink:title="index.js">
<path fill="#ffffcc" stroke="#000000" d="M605.9889,-130.5C605.9889,-130.5 563.3222,-130.5 563.3222,-130.5 560.4889,-130.5 557.6555,-127.6667 557.6555,-124.8333 557.6555,-124.8333 557.6555,-119.1667 557.6555,-119.1667 557.6555,-116.3333 560.4889,-113.5 563.3222,-113.5 563.3222,-113.5 605.9889,-113.5 605.9889,-113.5 608.8222,-113.5 611.6555,-116.3333 611.6555,-119.1667 611.6555,-119.1667 611.6555,-124.8333 611.6555,-124.8333 611.6555,-127.6667 608.8222,-130.5 605.9889,-130.5"/>
<text text-anchor="middle" x="584.6555" y="-119.3" font-family="Helvetica,sans-Serif" font-size="9.00" fill="#000000">index.js</text>
</a>
</g>
</g>
<!-- lib/data/index.js&#45;&gt;lib/data/countries&#45;available.js -->
<g id="edge6" class="edge">
<title>lib/data/index.js&#45;&gt;lib/data/countries&#45;available.js</title>
<path fill="none" stroke="#000000" stroke-width="2" stroke-opacity="0.466667" d="M611.9074,-122C623.523,-122 637.572,-122 651.4151,-122"/>
<polygon fill="#000000" fill-opacity="0.466667" stroke="#000000" stroke-width="2" stroke-opacity="0.466667" points="651.4209,-125.5001 661.4208,-122 651.4208,-118.5001 651.4209,-125.5001"/>
</g>
<!-- lib/data/index.js&#45;&gt;lib/data/country&#45;list.js -->
<g id="edge7" class="edge">
<title>lib/data/index.js&#45;&gt;lib/data/country&#45;list.js</title>
<path fill="none" stroke="#000000" stroke-width="2" stroke-opacity="0.466667" d="M588.9813,-113.3432C597.483,-97.4361 618.0626,-63.9972 646.6726,-51 695.1352,-28.984 758.4229,-45.5371 794.7955,-58.7994"/>
<polygon fill="#000000" fill-opacity="0.466667" stroke="#000000" stroke-width="2" stroke-opacity="0.466667" points="793.715,-62.133 804.306,-62.418 796.2044,-55.5906 793.715,-62.133"/>
</g>
<!-- lib/data/index.js&#45;&gt;lib/data/mccs&#45;available.js -->
<g id="edge8" class="edge">
<title>lib/data/index.js&#45;&gt;lib/data/mccs&#45;available.js</title>
<path fill="none" stroke="#000000" stroke-width="2" stroke-opacity="0.466667" d="M587.798,-113.4114C594.9633,-95.2733 614.4292,-53.3881 646.6726,-37 689.3133,-15.3274 745.5109,-20.7019 783.0968,-28.2739"/>
<polygon fill="#000000" fill-opacity="0.466667" stroke="#000000" stroke-width="2" stroke-opacity="0.466667" points="782.6647,-31.761 793.1777,-30.4471 784.1399,-24.9182 782.6647,-31.761"/>
</g>
<!-- lib/data/index.js&#45;&gt;lib/data/names&#45;list.js -->
<g id="edge9" class="edge">
<title>lib/data/index.js&#45;&gt;lib/data/names&#45;list.js</title>
<path fill="none" stroke="#000000" stroke-width="2" stroke-opacity="0.466667" d="M611.8772,-130.0626C622.6149,-132.8523 635.1232,-135.6231 646.6726,-137 700.5282,-143.4204 714.9444,-144.167 768.7058,-137 775.1076,-136.1466 781.8192,-134.7602 788.2709,-133.1664"/>
<polygon fill="#000000" fill-opacity="0.466667" stroke="#000000" stroke-width="2" stroke-opacity="0.466667" points="789.3553,-136.4995 798.1137,-130.5378 787.5492,-129.7366 789.3553,-136.4995"/>
</g>
<!-- lib/gen&#45;dinamic&#45;data/example.js -->
<g id="node7" class="node">
<title>lib/gen&#45;dinamic&#45;data/example.js</title>
<g id="a_node7"><a xlink:href="lib/gen-dinamic-data/example.js" xlink:title="example.js">
<path fill="#ffffcc" stroke="#000000" d="M350.4254,-533.5C350.4254,-533.5 302.7226,-533.5 302.7226,-533.5 299.8892,-533.5 297.0559,-530.6667 297.0559,-527.8333 297.0559,-527.8333 297.0559,-522.1667 297.0559,-522.1667 297.0559,-519.3333 299.8892,-516.5 302.7226,-516.5 302.7226,-516.5 350.4254,-516.5 350.4254,-516.5 353.2587,-516.5 356.092,-519.3333 356.092,-522.1667 356.092,-522.1667 356.092,-527.8333 356.092,-527.8333 356.092,-530.6667 353.2587,-533.5 350.4254,-533.5"/>
<text text-anchor="middle" x="326.574" y="-522.3" font-family="Helvetica,sans-Serif" font-size="9.00" fill="#000000">example.js</text>
</a>
</g>
</g>
<!-- lib/gen&#45;dinamic&#45;data/gen&#45;anagrafica.js -->
<g id="node13" class="node">
<title>lib/gen&#45;dinamic&#45;data/gen&#45;anagrafica.js</title>
<g id="a_node13"><a xlink:href="lib/gen-dinamic-data/gen-anagrafica.js" xlink:title="gen&#45;anagrafica.js">
<path fill="#ffffcc" stroke="#000000" d="M487.2376,-533.5C487.2376,-533.5 413.486,-533.5 413.486,-533.5 410.6527,-533.5 407.8193,-530.6667 407.8193,-527.8333 407.8193,-527.8333 407.8193,-522.1667 407.8193,-522.1667 407.8193,-519.3333 410.6527,-516.5 413.486,-516.5 413.486,-516.5 487.2376,-516.5 487.2376,-516.5 490.071,-516.5 492.9043,-519.3333 492.9043,-522.1667 492.9043,-522.1667 492.9043,-527.8333 492.9043,-527.8333 492.9043,-530.6667 490.071,-533.5 487.2376,-533.5"/>
<text text-anchor="middle" x="450.3618" y="-522.3" font-family="Helvetica,sans-Serif" font-size="9.00" fill="#000000">gen&#45;anagrafica.js</text>
</a>
</g>
</g>
<!-- lib/gen&#45;dinamic&#45;data/example.js&#45;&gt;lib/gen&#45;dinamic&#45;data/gen&#45;anagrafica.js -->
<g id="edge10" class="edge">
<title>lib/gen&#45;dinamic&#45;data/example.js&#45;&gt;lib/gen&#45;dinamic&#45;data/gen&#45;anagrafica.js</title>
<path fill="none" stroke="#000000" stroke-width="2" stroke-opacity="0.466667" d="M356.2242,-525C368.5413,-525 383.222,-525 397.283,-525"/>
<polygon fill="#000000" fill-opacity="0.466667" stroke="#000000" stroke-width="2" stroke-opacity="0.466667" points="397.3695,-528.5001 407.3695,-525 397.3695,-521.5001 397.3695,-528.5001"/>
</g>
<!-- lib/gen&#45;dinamic&#45;data/gen&#45;address/br.address.js -->
<g id="node8" class="node">
<title>lib/gen&#45;dinamic&#45;data/gen&#45;address/br.address.js</title>
<g id="a_node8"><a xlink:href="lib/gen-dinamic-data/gen-address/br.address.js" xlink:title="br.address.js">
<path fill="#ffffcc" stroke="#000000" d="M612.5182,-439.5C612.5182,-439.5 556.7929,-439.5 556.7929,-439.5 553.9595,-439.5 551.1262,-436.6667 551.1262,-433.8333 551.1262,-433.8333 551.1262,-428.1667 551.1262,-428.1667 551.1262,-425.3333 553.9595,-422.5 556.7929,-422.5 556.7929,-422.5 612.5182,-422.5 612.5182,-422.5 615.3515,-422.5 618.1848,-425.3333 618.1848,-428.1667 618.1848,-428.1667 618.1848,-433.8333 618.1848,-433.8333 618.1848,-436.6667 615.3515,-439.5 612.5182,-439.5"/>
<text text-anchor="middle" x="584.6555" y="-428.3" font-family="Helvetica,sans-Serif" font-size="9.00" fill="#000000">br.address.js</text>
</a>
</g>
</g>
<!-- lib/util/random&#45;array&#45;element.js -->
<g id="node43" class="node">
<title>lib/util/random&#45;array&#45;element.js</title>
<g id="a_node43"><a xlink:href="lib/util/random-array-element.js" xlink:title="random&#45;array&#45;element.js">
<path fill="#ffffcc" stroke="#000000" d="M763.0558,-650.5C763.0558,-650.5 660.3227,-650.5 660.3227,-650.5 657.4893,-650.5 654.656,-647.6667 654.656,-644.8333 654.656,-644.8333 654.656,-639.1667 654.656,-639.1667 654.656,-636.3333 657.4893,-633.5 660.3227,-633.5 660.3227,-633.5 763.0558,-633.5 763.0558,-633.5 765.8891,-633.5 768.7224,-636.3333 768.7224,-639.1667 768.7224,-639.1667 768.7224,-644.8333 768.7224,-644.8333 768.7224,-647.6667 765.8891,-650.5 763.0558,-650.5"/>
<text text-anchor="middle" x="711.6892" y="-639.3" font-family="Helvetica,sans-Serif" font-size="9.00" fill="#000000">random&#45;array&#45;element.js</text>
</a>
</g>
</g>
<!-- lib/gen&#45;dinamic&#45;data/gen&#45;address/br.address.js&#45;&gt;lib/util/random&#45;array&#45;element.js -->
<g id="edge11" class="edge">
<title>lib/gen&#45;dinamic&#45;data/gen&#45;address/br.address.js&#45;&gt;lib/util/random&#45;array&#45;element.js</title>
<path fill="none" stroke="#000000" stroke-width="2" stroke-opacity="0.466667" d="M618.2911,-435.1404C625.695,-437.3825 633.0077,-440.8011 638.6726,-446 691.2851,-494.2843 706.153,-584.048 710.219,-623.0698"/>
<polygon fill="#000000" fill-opacity="0.466667" stroke="#000000" stroke-width="2" stroke-opacity="0.466667" points="706.7716,-623.8075 711.1638,-633.4489 713.7427,-623.1728 706.7716,-623.8075"/>
</g>
<!-- lib/util/random&#45;number.js -->
<g id="node44" class="node">
<title>lib/util/random&#45;number.js</title>
<g id="a_node44"><a xlink:href="lib/util/random-number.js" xlink:title="random&#45;number.js">
<path fill="#ffffcc" stroke="#000000" d="M750.0599,-679.5C750.0599,-679.5 673.3185,-679.5 673.3185,-679.5 670.4852,-679.5 667.6519,-676.6667 667.6519,-673.8333 667.6519,-673.8333 667.6519,-668.1667 667.6519,-668.1667 667.6519,-665.3333 670.4852,-662.5 673.3185,-662.5 673.3185,-662.5 750.0599,-662.5 750.0599,-662.5 752.8932,-662.5 755.7266,-665.3333 755.7266,-668.1667 755.7266,-668.1667 755.7266,-673.8333 755.7266,-673.8333 755.7266,-676.6667 752.8932,-679.5 750.0599,-679.5"/>
<text text-anchor="middle" x="711.6892" y="-668.3" font-family="Helvetica,sans-Serif" font-size="9.00" fill="#000000">random&#45;number.js</text>
</a>
</g>
</g>
<!-- lib/gen&#45;dinamic&#45;data/gen&#45;address/br.address.js&#45;&gt;lib/util/random&#45;number.js -->
<g id="edge12" class="edge">
<title>lib/gen&#45;dinamic&#45;data/gen&#45;address/br.address.js&#45;&gt;lib/util/random&#45;number.js</title>
<path fill="none" stroke="#000000" stroke-width="2" stroke-opacity="0.466667" d="M618.1758,-433.5291C626.0441,-435.7666 633.6027,-439.5863 638.6726,-446 653.2218,-464.4053 631.5889,-639.0302 646.6726,-657 649.8461,-660.7807 653.7727,-663.6891 658.1125,-665.9111"/>
<polygon fill="#000000" fill-opacity="0.466667" stroke="#000000" stroke-width="2" stroke-opacity="0.466667" points="656.9035,-669.1963 667.4919,-669.5677 659.4462,-662.6744 656.9035,-669.1963"/>
</g>
<!-- lib/gen&#45;dinamic&#45;data/gen&#45;address/ch.address.js -->
<g id="node9" class="node">
<title>lib/gen&#45;dinamic&#45;data/gen&#45;address/ch.address.js</title>
<g id="a_node9"><a xlink:href="lib/gen-dinamic-data/gen-address/ch.address.js" xlink:title="ch.address.js">
<path fill="#ffffcc" stroke="#000000" d="M613.5133,-468.5C613.5133,-468.5 555.7978,-468.5 555.7978,-468.5 552.9644,-468.5 550.1311,-465.6667 550.1311,-462.8333 550.1311,-462.8333 550.1311,-457.1667 550.1311,-457.1667 550.1311,-454.3333 552.9644,-451.5 555.7978,-451.5 555.7978,-451.5 613.5133,-451.5 613.5133,-451.5 616.3466,-451.5 619.1799,-454.3333 619.1799,-457.1667 619.1799,-457.1667 619.1799,-462.8333 619.1799,-462.8333 619.1799,-465.6667 616.3466,-468.5 613.5133,-468.5"/>
<text text-anchor="middle" x="584.6555" y="-457.3" font-family="Helvetica,sans-Serif" font-size="9.00" fill="#000000">ch.address.js</text>
</a>
</g>
</g>
<!-- lib/gen&#45;dinamic&#45;data/gen&#45;address/ch.address.js&#45;&gt;lib/util/random&#45;array&#45;element.js -->
<g id="edge13" class="edge">
<title>lib/gen&#45;dinamic&#45;data/gen&#45;address/ch.address.js&#45;&gt;lib/util/random&#45;array&#45;element.js</title>
<path fill="none" stroke="#000000" stroke-width="2" stroke-opacity="0.466667" d="M619.1794,-463.3208C626.2093,-465.2974 633.1375,-468.3419 638.6726,-473 685.6901,-512.5678 703.2693,-588.0275 709.1082,-623.1483"/>
<polygon fill="#000000" fill-opacity="0.466667" stroke="#000000" stroke-width="2" stroke-opacity="0.466667" points="705.7034,-624.0403 710.6639,-633.4022 712.6242,-622.9903 705.7034,-624.0403"/>
</g>
<!-- lib/gen&#45;dinamic&#45;data/gen&#45;address/ch.address.js&#45;&gt;lib/util/random&#45;number.js -->
<g id="edge14" class="edge">
<title>lib/gen&#45;dinamic&#45;data/gen&#45;address/ch.address.js&#45;&gt;lib/util/random&#45;number.js</title>
<path fill="none" stroke="#000000" stroke-width="2" stroke-opacity="0.466667" d="M619.1875,-461.5393C626.6515,-463.5408 633.7664,-467.0439 638.6726,-473 651.6833,-488.7951 633.4726,-641.3627 646.6726,-657 649.8566,-660.7719 653.7902,-663.6744 658.1344,-665.8928"/>
<polygon fill="#000000" fill-opacity="0.466667" stroke="#000000" stroke-width="2" stroke-opacity="0.466667" points="656.9307,-669.18 667.5192,-669.5447 659.4692,-662.6565 656.9307,-669.18"/>
</g>
<!-- lib/gen&#45;dinamic&#45;data/gen&#45;address/cl.address.js -->
<g id="node10" class="node">
<title>lib/gen&#45;dinamic&#45;data/gen&#45;address/cl.address.js</title>
<g id="a_node10"><a xlink:href="lib/gen-dinamic-data/gen-address/cl.address.js" xlink:title="cl.address.js">
<path fill="#ffffcc" stroke="#000000" d="M612.0074,-410.5C612.0074,-410.5 557.3036,-410.5 557.3036,-410.5 554.4703,-410.5 551.637,-407.6667 551.637,-404.8333 551.637,-404.8333 551.637,-399.1667 551.637,-399.1667 551.637,-396.3333 554.4703,-393.5 557.3036,-393.5 557.3036,-393.5 612.0074,-393.5 612.0074,-393.5 614.8407,-393.5 617.6741,-396.3333 617.6741,-399.1667 617.6741,-399.1667 617.6741,-404.8333 617.6741,-404.8333 617.6741,-407.6667 614.8407,-410.5 612.0074,-410.5"/>
<text text-anchor="middle" x="584.6555" y="-399.3" font-family="Helvetica,sans-Serif" font-size="9.00" fill="#000000">cl.address.js</text>
</a>
</g>
</g>
<!-- lib/gen&#45;dinamic&#45;data/gen&#45;address/cl.address.js&#45;&gt;lib/util/random&#45;array&#45;element.js -->
<g id="edge15" class="edge">
<title>lib/gen&#45;dinamic&#45;data/gen&#45;address/cl.address.js&#45;&gt;lib/util/random&#45;array&#45;element.js</title>
<path fill="none" stroke="#000000" stroke-width="2" stroke-opacity="0.466667" d="M617.8904,-405.7998C625.4815,-408.0422 632.9797,-411.5464 638.6726,-417 669.2849,-446.3255 698.0094,-574.6809 707.9822,-623.2706"/>
<polygon fill="#000000" fill-opacity="0.466667" stroke="#000000" stroke-width="2" stroke-opacity="0.466667" points="704.6023,-624.2161 710.0105,-633.3266 711.4641,-622.832 704.6023,-624.2161"/>
</g>
<!-- lib/gen&#45;dinamic&#45;data/gen&#45;address/cl.address.js&#45;&gt;lib/util/random&#45;number.js -->
<g id="edge16" class="edge">
<title>lib/gen&#45;dinamic&#45;data/gen&#45;address/cl.address.js&#45;&gt;lib/util/random&#45;number.js</title>
<path fill="none" stroke="#000000" stroke-width="2" stroke-opacity="0.466667" d="M617.9146,-404.4342C625.8836,-406.6604 633.5572,-410.4982 638.6726,-417 655.1708,-437.9693 629.5654,-636.5245 646.6726,-657 649.8374,-660.788 653.7583,-663.7012 658.0945,-665.9262"/>
<polygon fill="#000000" fill-opacity="0.466667" stroke="#000000" stroke-width="2" stroke-opacity="0.466667" points="656.8811,-669.2097 667.4693,-669.5866 659.4272,-662.6892 656.8811,-669.2097"/>
</g>
<!-- lib/gen&#45;dinamic&#45;data/gen&#45;address/es.region&#45;names.js -->
<g id="node11" class="node">
<title>lib/gen&#45;dinamic&#45;data/gen&#45;address/es.region&#45;names.js</title>
<g id="a_node11"><a xlink:href="lib/gen-dinamic-data/gen-address/es.region-names.js" xlink:title="es.region&#45;names.js">
<path fill="#ffffcc" stroke="#000000" d="M625.023,-381.5C625.023,-381.5 544.288,-381.5 544.288,-381.5 541.4547,-381.5 538.6213,-378.6667 538.6213,-375.8333 538.6213,-375.8333 538.6213,-370.1667 538.6213,-370.1667 538.6213,-367.3333 541.4547,-364.5 544.288,-364.5 544.288,-364.5 625.023,-364.5 625.023,-364.5 627.8564,-364.5 630.6897,-367.3333 630.6897,-370.1667 630.6897,-370.1667 630.6897,-375.8333 630.6897,-375.8333 630.6897,-378.6667 627.8564,-381.5 625.023,-381.5"/>
<text text-anchor="middle" x="584.6555" y="-370.3" font-family="Helvetica,sans-Serif" font-size="9.00" fill="#000000">es.region&#45;names.js</text>
</a>
</g>
</g>
<!-- lib/gen&#45;dinamic&#45;data/gen&#45;address/es.region&#45;names.js&#45;&gt;lib/util/random&#45;array&#45;element.js -->
<g id="edge17" class="edge">
<title>lib/gen&#45;dinamic&#45;data/gen&#45;address/es.region&#45;names.js&#45;&gt;lib/util/random&#45;array&#45;element.js</title>
<path fill="none" stroke="#000000" stroke-width="2" stroke-opacity="0.466667" d="M629.9978,-381.5854C633.1678,-383.3497 636.1147,-385.4652 638.6726,-388 672.8309,-421.8504 700.0056,-570.5661 708.7312,-623.3422"/>
<polygon fill="#000000" fill-opacity="0.466667" stroke="#000000" stroke-width="2" stroke-opacity="0.466667" points="705.2945,-624.0155 710.3494,-633.3267 712.2044,-622.8955 705.2945,-624.0155"/>
</g>
<!-- lib/gen&#45;dinamic&#45;data/gen&#45;address/index.js -->
<g id="node12" class="node">
<title>lib/gen&#45;dinamic&#45;data/gen&#45;address/index.js</title>
<g id="a_node12"><a xlink:href="lib/gen-dinamic-data/gen-address/index.js" xlink:title="index.js">
<path fill="#ffffcc" stroke="#000000" d="M471.6951,-424.5C471.6951,-424.5 429.0285,-424.5 429.0285,-424.5 426.1951,-424.5 423.3618,-421.6667 423.3618,-418.8333 423.3618,-418.8333 423.3618,-413.1667 423.3618,-413.1667 423.3618,-410.3333 426.1951,-407.5 429.0285,-407.5 429.0285,-407.5 471.6951,-407.5 471.6951,-407.5 474.5285,-407.5 477.3618,-410.3333 477.3618,-413.1667 477.3618,-413.1667 477.3618,-418.8333 477.3618,-418.8333 477.3618,-421.6667 474.5285,-424.5 471.6951,-424.5"/>
<text text-anchor="middle" x="450.3618" y="-413.3" font-family="Helvetica,sans-Serif" font-size="9.00" fill="#000000">index.js</text>
</a>
</g>
</g>
<!-- lib/gen&#45;dinamic&#45;data/gen&#45;address/index.js&#45;&gt;lib/gen&#45;dinamic&#45;data/gen&#45;address/br.address.js -->
<g id="edge19" class="edge">
<title>lib/gen&#45;dinamic&#45;data/gen&#45;address/index.js&#45;&gt;lib/gen&#45;dinamic&#45;data/gen&#45;address/br.address.js</title>
<path fill="none" stroke="#000000" stroke-width="2" stroke-opacity="0.466667" d="M477.5382,-419.0355C495.6342,-421.0567 519.8198,-423.7581 540.6303,-426.0826"/>
<polygon fill="#000000" fill-opacity="0.466667" stroke="#000000" stroke-width="2" stroke-opacity="0.466667" points="540.5167,-429.5916 550.8434,-427.2233 541.2938,-422.6348 540.5167,-429.5916"/>
</g>
<!-- lib/gen&#45;dinamic&#45;data/gen&#45;address/index.js&#45;&gt;lib/gen&#45;dinamic&#45;data/gen&#45;address/ch.address.js -->
<g id="edge20" class="edge">
<title>lib/gen&#45;dinamic&#45;data/gen&#45;address/index.js&#45;&gt;lib/gen&#45;dinamic&#45;data/gen&#45;address/ch.address.js</title>
<path fill="none" stroke="#000000" stroke-width="2" stroke-opacity="0.466667" d="M477.6695,-415.0432C492.4669,-415.8614 510.2955,-419.1643 523.1304,-429 529.7584,-434.0792 524.7083,-440.6629 531.1304,-446 533.9952,-448.3808 537.2204,-450.3616 540.631,-452.0089"/>
<polygon fill="#000000" fill-opacity="0.466667" stroke="#000000" stroke-width="2" stroke-opacity="0.466667" points="539.3833,-455.279 549.9722,-455.6362 541.9173,-448.7537 539.3833,-455.279"/>
</g>
<!-- lib/gen&#45;dinamic&#45;data/gen&#45;address/index.js&#45;&gt;lib/gen&#45;dinamic&#45;data/gen&#45;address/cl.address.js -->
<g id="edge21" class="edge">
<title>lib/gen&#45;dinamic&#45;data/gen&#45;address/index.js&#45;&gt;lib/gen&#45;dinamic&#45;data/gen&#45;address/cl.address.js</title>
<path fill="none" stroke="#000000" stroke-width="2" stroke-opacity="0.466667" d="M477.5382,-413.1669C495.8485,-411.258 520.3937,-408.6992 541.3684,-406.5126"/>
<polygon fill="#000000" fill-opacity="0.466667" stroke="#000000" stroke-width="2" stroke-opacity="0.466667" points="541.7522,-409.9917 551.3353,-405.4736 541.0263,-403.0294 541.7522,-409.9917"/>
</g>
<!-- lib/gen&#45;dinamic&#45;data/gen&#45;address/index.js&#45;&gt;lib/gen&#45;dinamic&#45;data/gen&#45;address/es.region&#45;names.js -->
<g id="edge22" class="edge">
<title>lib/gen&#45;dinamic&#45;data/gen&#45;address/index.js&#45;&gt;lib/gen&#45;dinamic&#45;data/gen&#45;address/es.region&#45;names.js</title>
<path fill="none" stroke="#000000" stroke-width="2" stroke-opacity="0.466667" d="M473.916,-407.4128C489.96,-401.6677 511.7272,-394.0759 531.1304,-388 534.9581,-386.8014 538.9538,-385.5966 542.962,-384.4192"/>
<polygon fill="#000000" fill-opacity="0.466667" stroke="#000000" stroke-width="2" stroke-opacity="0.466667" points="544.2217,-387.6988 552.8627,-381.5682 542.2846,-380.9721 544.2217,-387.6988"/>
</g>
<!-- lib/gen&#45;dinamic&#45;data/map&#45;faker.js -->
<g id="node25" class="node">
<title>lib/gen&#45;dinamic&#45;data/map&#45;faker.js</title>
<g id="a_node25"><a xlink:href="lib/gen-dinamic-data/map-faker.js" xlink:title="map&#45;faker.js">
<path fill="#ffffcc" stroke="#000000" d="M611.5099,-347.5C611.5099,-347.5 557.8012,-347.5 557.8012,-347.5 554.9679,-347.5 552.1345,-344.6667 552.1345,-341.8333 552.1345,-341.8333 552.1345,-336.1667 552.1345,-336.1667 552.1345,-333.3333 554.9679,-330.5 557.8012,-330.5 557.8012,-330.5 611.5099,-330.5 611.5099,-330.5 614.3432,-330.5 617.1765,-333.3333 617.1765,-336.1667 617.1765,-336.1667 617.1765,-341.8333 617.1765,-341.8333 617.1765,-344.6667 614.3432,-347.5 611.5099,-347.5"/>
<text text-anchor="middle" x="584.6555" y="-336.3" font-family="Helvetica,sans-Serif" font-size="9.00" fill="#000000">map&#45;faker.js</text>
</a>
</g>
</g>
<!-- lib/gen&#45;dinamic&#45;data/gen&#45;address/index.js&#45;&gt;lib/gen&#45;dinamic&#45;data/map&#45;faker.js -->
<g id="edge18" class="edge">
<title>lib/gen&#45;dinamic&#45;data/gen&#45;address/index.js&#45;&gt;lib/gen&#45;dinamic&#45;data/map&#45;faker.js</title>
<path fill="none" stroke="#000000" stroke-width="2" stroke-opacity="0.466667" d="M458.9739,-407.2942C472.9054,-393.7028 501.7974,-367.5012 531.1304,-353 534.662,-351.2541 538.4359,-349.7083 542.2839,-348.3432"/>
<polygon fill="#000000" fill-opacity="0.466667" stroke="#000000" stroke-width="2" stroke-opacity="0.466667" points="543.4197,-351.655 551.9055,-345.3114 541.3159,-344.9786 543.4197,-351.655"/>
</g>
<!-- lib/gen&#45;dinamic&#45;data/gen&#45;anagrafica.js&#45;&gt;lib/data/index.js -->
<g id="edge23" class="edge">
<title>lib/gen&#45;dinamic&#45;data/gen&#45;anagrafica.js&#45;&gt;lib/data/index.js</title>
<path fill="none" stroke="#000000" stroke-width="2" stroke-opacity="0.466667" d="M493.2127,-517.6285C504.7608,-513.4981 516.0131,-507.0539 523.1304,-497 532.1219,-484.2986 526.9671,-231.9947 531.1304,-217 539.3677,-187.3318 558.7441,-157.0146 571.7801,-138.8491"/>
<polygon fill="#000000" fill-opacity="0.466667" stroke="#000000" stroke-width="2" stroke-opacity="0.466667" points="574.802,-140.6488 577.9266,-130.5252 569.1708,-136.4907 574.802,-140.6488"/>
</g>
<!-- lib/gen&#45;dinamic&#45;data/gen&#45;birthday.js -->
<g id="node14" class="node">
<title>lib/gen&#45;dinamic&#45;data/gen&#45;birthday.js</title>
<g id="a_node14"><a xlink:href="lib/gen-dinamic-data/gen-birthday.js" xlink:title="gen&#45;birthday.js">
<path fill="#ffffcc" stroke="#000000" d="M616.3579,-527.5C616.3579,-527.5 552.9531,-527.5 552.9531,-527.5 550.1198,-527.5 547.2864,-524.6667 547.2864,-521.8333 547.2864,-521.8333 547.2864,-516.1667 547.2864,-516.1667 547.2864,-513.3333 550.1198,-510.5 552.9531,-510.5 552.9531,-510.5 616.3579,-510.5 616.3579,-510.5 619.1913,-510.5 622.0246,-513.3333 622.0246,-516.1667 622.0246,-516.1667 622.0246,-521.8333 622.0246,-521.8333 622.0246,-524.6667 619.1913,-527.5 616.3579,-527.5"/>
<text text-anchor="middle" x="584.6555" y="-516.3" font-family="Helvetica,sans-Serif" font-size="9.00" fill="#000000">gen&#45;birthday.js</text>
</a>
</g>
</g>
<!-- lib/gen&#45;dinamic&#45;data/gen&#45;anagrafica.js&#45;&gt;lib/gen&#45;dinamic&#45;data/gen&#45;birthday.js -->
<g id="edge25" class="edge">
<title>lib/gen&#45;dinamic&#45;data/gen&#45;anagrafica.js&#45;&gt;lib/gen&#45;dinamic&#45;data/gen&#45;birthday.js</title>
<path fill="none" stroke="#000000" stroke-width="2" stroke-opacity="0.466667" d="M493.2224,-523.0851C507.1822,-522.4614 522.7606,-521.7654 537.0466,-521.1271"/>
<polygon fill="#000000" fill-opacity="0.466667" stroke="#000000" stroke-width="2" stroke-opacity="0.466667" points="537.3451,-524.6173 547.1789,-520.6744 537.0326,-517.6243 537.3451,-524.6173"/>
</g>
<!-- lib/gen&#45;dinamic&#45;data/gen&#45;anagrafica.js&#45;&gt;lib/util/random&#45;array&#45;element.js -->
<g id="edge24" class="edge">
<title>lib/gen&#45;dinamic&#45;data/gen&#45;anagrafica.js&#45;&gt;lib/util/random&#45;array&#45;element.js</title>
<path fill="none" stroke="#000000" stroke-width="2" stroke-opacity="0.466667" d="M492.9777,-530.4371C544.588,-537.2661 626.2014,-548.9418 638.6726,-556 667.5301,-572.3321 690.1528,-604.674 702.1665,-624.7079"/>
<polygon fill="#000000" fill-opacity="0.466667" stroke="#000000" stroke-width="2" stroke-opacity="0.466667" points="699.1672,-626.5132 707.1927,-633.43 705.2322,-623.0181 699.1672,-626.5132"/>
</g>
<!-- lib/gen&#45;dinamic&#45;data/gen&#45;company.js -->
<g id="node15" class="node">
<title>lib/gen&#45;dinamic&#45;data/gen&#45;company.js</title>
<g id="a_node15"><a xlink:href="lib/gen-dinamic-data/gen-company.js" xlink:title="gen&#45;company.js">
<path fill="#ffffcc" stroke="#000000" d="M484.0634,-203.5C484.0634,-203.5 416.6602,-203.5 416.6602,-203.5 413.8269,-203.5 410.9935,-200.6667 410.9935,-197.8333 410.9935,-197.8333 410.9935,-192.1667 410.9935,-192.1667 410.9935,-189.3333 413.8269,-186.5 416.6602,-186.5 416.6602,-186.5 484.0634,-186.5 484.0634,-186.5 486.8968,-186.5 489.7301,-189.3333 489.7301,-192.1667 489.7301,-192.1667 489.7301,-197.8333 489.7301,-197.8333 489.7301,-200.6667 486.8968,-203.5 484.0634,-203.5"/>
<text text-anchor="middle" x="450.3618" y="-192.3" font-family="Helvetica,sans-Serif" font-size="9.00" fill="#000000">gen&#45;company.js</text>
</a>
</g>
</g>
<!-- lib/gen&#45;dinamic&#45;data/gen&#45;legal&#45;type&#45;id.js -->
<g id="node16" class="node">
<title>lib/gen&#45;dinamic&#45;data/gen&#45;legal&#45;type&#45;id.js</title>
<g id="a_node16"><a xlink:href="lib/gen-dinamic-data/gen-legal-type-id.js" xlink:title="gen&#45;legal&#45;type&#45;id.js">
<path fill="#ffffcc" stroke="#000000" d="M366.9459,-472.5C366.9459,-472.5 286.2021,-472.5 286.2021,-472.5 283.3687,-472.5 280.5354,-469.6667 280.5354,-466.8333 280.5354,-466.8333 280.5354,-461.1667 280.5354,-461.1667 280.5354,-458.3333 283.3687,-455.5 286.2021,-455.5 286.2021,-455.5 366.9459,-455.5 366.9459,-455.5 369.7792,-455.5 372.6126,-458.3333 372.6126,-461.1667 372.6126,-461.1667 372.6126,-466.8333 372.6126,-466.8333 372.6126,-469.6667 369.7792,-472.5 366.9459,-472.5"/>
<text text-anchor="middle" x="326.574" y="-461.3" font-family="Helvetica,sans-Serif" font-size="9.00" fill="#000000">gen&#45;legal&#45;type&#45;id.js</text>
</a>
</g>
</g>
<!-- lib/gen&#45;dinamic&#45;data/gen&#45;national&#45;id/index.js -->
<g id="node17" class="node">
<title>lib/gen&#45;dinamic&#45;data/gen&#45;national&#45;id/index.js</title>
<g id="a_node17"><a xlink:href="lib/gen-dinamic-data/gen-national-id/index.js" xlink:title="index.js">
<path fill="#ffffcc" stroke="#000000" d="M471.6951,-296.5C471.6951,-296.5 429.0285,-296.5 429.0285,-296.5 426.1951,-296.5 423.3618,-293.6667 423.3618,-290.8333 423.3618,-290.8333 423.3618,-285.1667 423.3618,-285.1667 423.3618,-282.3333 426.1951,-279.5 429.0285,-279.5 429.0285,-279.5 471.6951,-279.5 471.6951,-279.5 474.5285,-279.5 477.3618,-282.3333 477.3618,-285.1667 477.3618,-285.1667 477.3618,-290.8333 477.3618,-290.8333 477.3618,-293.6667 474.5285,-296.5 471.6951,-296.5"/>
<text text-anchor="middle" x="450.3618" y="-285.3" font-family="Helvetica,sans-Serif" font-size="9.00" fill="#000000">index.js</text>
</a>
</g>
</g>
<!-- lib/gen&#45;dinamic&#45;data/gen&#45;national&#45;id/it.national&#45;id/index.js -->
<g id="node20" class="node">
<title>lib/gen&#45;dinamic&#45;data/gen&#45;national&#45;id/it.national&#45;id/index.js</title>
<g id="a_node20"><a xlink:href="lib/gen-dinamic-data/gen-national-id/it.national-id/index.js" xlink:title="index.js">
<path fill="#ffffcc" stroke="#000000" d="M605.9889,-245.5C605.9889,-245.5 563.3222,-245.5 563.3222,-245.5 560.4889,-245.5 557.6555,-242.6667 557.6555,-239.8333 557.6555,-239.8333 557.6555,-234.1667 557.6555,-234.1667 557.6555,-231.3333 560.4889,-228.5 563.3222,-228.5 563.3222,-228.5 605.9889,-228.5 605.9889,-228.5 608.8222,-228.5 611.6555,-231.3333 611.6555,-234.1667 611.6555,-234.1667 611.6555,-239.8333 611.6555,-239.8333 611.6555,-242.6667 608.8222,-245.5 605.9889,-245.5"/>
<text text-anchor="middle" x="584.6555" y="-234.3" font-family="Helvetica,sans-Serif" font-size="9.00" fill="#000000">index.js</text>
</a>
</g>
</g>
<!-- lib/gen&#45;dinamic&#45;data/gen&#45;national&#45;id/index.js&#45;&gt;lib/gen&#45;dinamic&#45;data/gen&#45;national&#45;id/it.national&#45;id/index.js -->
<g id="edge26" class="edge">
<title>lib/gen&#45;dinamic&#45;data/gen&#45;national&#45;id/index.js&#45;&gt;lib/gen&#45;dinamic&#45;data/gen&#45;national&#45;id/it.national&#45;id/index.js</title>
<path fill="none" stroke="#000000" stroke-width="2" stroke-opacity="0.466667" d="M477.4877,-290.0854C492.5937,-289.7805 510.7859,-286.7805 523.1304,-276 532.2368,-268.0473 522.3277,-258.2877 531.1304,-250 535.7908,-245.6121 541.6736,-242.6301 547.8208,-240.6187"/>
<polygon fill="#000000" fill-opacity="0.466667" stroke="#000000" stroke-width="2" stroke-opacity="0.466667" points="548.7021,-244.0062 557.5607,-238.1944 547.0113,-237.2135 548.7021,-244.0062"/>
</g>
<!-- lib/gen&#45;dinamic&#45;data/gen&#45;national&#45;id/static&#45;nat&#45;ids.js -->
<g id="node21" class="node">
<title>lib/gen&#45;dinamic&#45;data/gen&#45;national&#45;id/static&#45;nat&#45;ids.js</title>
<g id="a_node21"><a xlink:href="lib/gen-dinamic-data/gen-national-id/static-nat-ids.js" xlink:title="static&#45;nat&#45;ids.js">
<path fill="#ffffcc" stroke="#000000" d="M617.005,-296.5C617.005,-296.5 552.3061,-296.5 552.3061,-296.5 549.4727,-296.5 546.6394,-293.6667 546.6394,-290.8333 546.6394,-290.8333 546.6394,-285.1667 546.6394,-285.1667 546.6394,-282.3333 549.4727,-279.5 552.3061,-279.5 552.3061,-279.5 617.005,-279.5 617.005,-279.5 619.8383,-279.5 622.6716,-282.3333 622.6716,-285.1667 622.6716,-285.1667 622.6716,-290.8333 622.6716,-290.8333 622.6716,-293.6667 619.8383,-296.5 617.005,-296.5"/>
<text text-anchor="middle" x="584.6555" y="-285.3" font-family="Helvetica,sans-Serif" font-size="9.00" fill="#000000">static&#45;nat&#45;ids.js</text>
</a>
</g>
</g>
<!-- lib/gen&#45;dinamic&#45;data/gen&#45;national&#45;id/index.js&#45;&gt;lib/gen&#45;dinamic&#45;data/gen&#45;national&#45;id/static&#45;nat&#45;ids.js -->
<g id="edge27" class="edge">
<title>lib/gen&#45;dinamic&#45;data/gen&#45;national&#45;id/index.js&#45;&gt;lib/gen&#45;dinamic&#45;data/gen&#45;national&#45;id/static&#45;nat&#45;ids.js</title>
<path fill="none" stroke="#000000" stroke-width="2" stroke-opacity="0.466667" d="M477.5382,-288C494.442,-288 516.6596,-288 536.4761,-288"/>
<polygon fill="#000000" fill-opacity="0.466667" stroke="#000000" stroke-width="2" stroke-opacity="0.466667" points="536.5792,-291.5001 546.5792,-288 536.5792,-284.5001 536.5792,-291.5001"/>
</g>
<!-- lib/gen&#45;dinamic&#45;data/gen&#45;national&#45;id/it.national&#45;id/CodiceFiscale.js -->
<g id="node18" class="node">
<title>lib/gen&#45;dinamic&#45;data/gen&#45;national&#45;id/it.national&#45;id/CodiceFiscale.js</title>
<g id="a_node18"><a xlink:href="lib/gen-dinamic-data/gen-national-id/it.national-id/CodiceFiscale.js" xlink:title="CodiceFiscale.js">
<path fill="#ffffcc" stroke="#000000" d="M746.5464,-245.5C746.5464,-245.5 676.832,-245.5 676.832,-245.5 673.9987,-245.5 671.1654,-242.6667 671.1654,-239.8333 671.1654,-239.8333 671.1654,-234.1667 671.1654,-234.1667 671.1654,-231.3333 673.9987,-228.5 676.832,-228.5 676.832,-228.5 746.5464,-228.5 746.5464,-228.5 749.3797,-228.5 752.2131,-231.3333 752.2131,-234.1667 752.2131,-234.1667 752.2131,-239.8333 752.2131,-239.8333 752.2131,-242.6667 749.3797,-245.5 746.5464,-245.5"/>
<text text-anchor="middle" x="711.6892" y="-234.3" font-family="Helvetica,sans-Serif" font-size="9.00" fill="#000000">CodiceFiscale.js</text>
</a>
</g>
</g>
<!-- lib/gen&#45;dinamic&#45;data/gen&#45;national&#45;id/it.national&#45;id/constants.js -->
<g id="node19" class="node">
<title>lib/gen&#45;dinamic&#45;data/gen&#45;national&#45;id/it.national&#45;id/constants.js</title>
<g id="a_node19"><a xlink:href="lib/gen-dinamic-data/gen-national-id/it.national-id/constants.js" xlink:title="constants.js">
<path fill="#ffffcc" stroke="#000000" d="M849.8232,-245.5C849.8232,-245.5 798.108,-245.5 798.108,-245.5 795.2747,-245.5 792.4413,-242.6667 792.4413,-239.8333 792.4413,-239.8333 792.4413,-234.1667 792.4413,-234.1667 792.4413,-231.3333 795.2747,-228.5 798.108,-228.5 798.108,-228.5 849.8232,-228.5 849.8232,-228.5 852.6565,-228.5 855.4898,-231.3333 855.4898,-234.1667 855.4898,-234.1667 855.4898,-239.8333 855.4898,-239.8333 855.4898,-242.6667 852.6565,-245.5 849.8232,-245.5"/>
<text text-anchor="middle" x="823.9656" y="-234.3" font-family="Helvetica,sans-Serif" font-size="9.00" fill="#000000">constants.js</text>
</a>
</g>
</g>
<!-- lib/gen&#45;dinamic&#45;data/gen&#45;national&#45;id/it.national&#45;id/CodiceFiscale.js&#45;&gt;lib/gen&#45;dinamic&#45;data/gen&#45;national&#45;id/it.national&#45;id/constants.js -->
<g id="edge28" class="edge">
<title>lib/gen&#45;dinamic&#45;data/gen&#45;national&#45;id/it.national&#45;id/CodiceFiscale.js&#45;&gt;lib/gen&#45;dinamic&#45;data/gen&#45;national&#45;id/it.national&#45;id/constants.js</title>
<path fill="none" stroke="#000000" stroke-width="2" stroke-opacity="0.466667" d="M752.2236,-237C761.9105,-237 772.2708,-237 782.0199,-237"/>
<polygon fill="#000000" fill-opacity="0.466667" stroke="#000000" stroke-width="2" stroke-opacity="0.466667" points="782.2981,-240.5001 792.298,-237 782.298,-233.5001 782.2981,-240.5001"/>
</g>
<!-- lib/gen&#45;dinamic&#45;data/gen&#45;national&#45;id/it.national&#45;id/index.js&#45;&gt;lib/gen&#45;dinamic&#45;data/gen&#45;national&#45;id/it.national&#45;id/CodiceFiscale.js -->
<g id="edge29" class="edge">
<title>lib/gen&#45;dinamic&#45;data/gen&#45;national&#45;id/it.national&#45;id/index.js&#45;&gt;lib/gen&#45;dinamic&#45;data/gen&#45;national&#45;id/it.national&#45;id/CodiceFiscale.js</title>
<path fill="none" stroke="#000000" stroke-width="2" stroke-opacity="0.466667" d="M611.9074,-237C626.1555,-237 644.065,-237 660.7646,-237"/>
<polygon fill="#000000" fill-opacity="0.466667" stroke="#000000" stroke-width="2" stroke-opacity="0.466667" points="660.9626,-240.5001 670.9626,-237 660.9625,-233.5001 660.9626,-240.5001"/>
</g>
<!-- lib/gen&#45;dinamic&#45;data/gen&#45;phone&#45;number.js -->
<g id="node22" class="node">
<title>lib/gen&#45;dinamic&#45;data/gen&#45;phone&#45;number.js</title>
<g id="a_node22"><a xlink:href="lib/gen-dinamic-data/gen-phone-number.js" xlink:title="gen&#45;phone&#45;number.js">
<path fill="#ffffcc" stroke="#000000" d="M495.2557,-562.5C495.2557,-562.5 405.4679,-562.5 405.4679,-562.5 402.6346,-562.5 399.8013,-559.6667 399.8013,-556.8333 399.8013,-556.8333 399.8013,-551.1667 399.8013,-551.1667 399.8013,-548.3333 402.6346,-545.5 405.4679,-545.5 405.4679,-545.5 495.2557,-545.5 495.2557,-545.5 498.089,-545.5 500.9224,-548.3333 500.9224,-551.1667 500.9224,-551.1667 500.9224,-556.8333 500.9224,-556.8333 500.9224,-559.6667 498.089,-562.5 495.2557,-562.5"/>
<text text-anchor="middle" x="450.3618" y="-551.3" font-family="Helvetica,sans-Serif" font-size="9.00" fill="#000000">gen&#45;phone&#45;number.js</text>
</a>
</g>
</g>
<!-- lib/gen&#45;dinamic&#45;data/gen&#45;phone&#45;number.js&#45;&gt;lib/data/index.js -->
<g id="edge30" class="edge">
<title>lib/gen&#45;dinamic&#45;data/gen&#45;phone&#45;number.js&#45;&gt;lib/data/index.js</title>
<path fill="none" stroke="#000000" stroke-width="2" stroke-opacity="0.466667" d="M500.9368,-553.346C509.4621,-550.913 517.3931,-546.7737 523.1304,-540 534.7317,-526.3029 526.3611,-234.3048 531.1304,-217 539.3113,-187.3162 558.703,-157.0033 571.7576,-138.8429"/>
<polygon fill="#000000" fill-opacity="0.466667" stroke="#000000" stroke-width="2" stroke-opacity="0.466667" points="574.78,-140.6424 577.9138,-130.5217 569.1526,-136.4792 574.78,-140.6424"/>
</g>
<!-- lib/gen&#45;dinamic&#45;data/gen&#45;phone&#45;number.js&#45;&gt;lib/util/random&#45;number.js -->
<g id="edge31" class="edge">
<title>lib/gen&#45;dinamic&#45;data/gen&#45;phone&#45;number.js&#45;&gt;lib/util/random&#45;number.js</title>
<path fill="none" stroke="#000000" stroke-width="2" stroke-opacity="0.466667" d="M497.6224,-562.536C506.1747,-564.4216 514.966,-566.5873 523.1304,-569 575.9803,-584.6181 603.5224,-571.5559 638.6726,-614 651.0713,-628.9716 633.1219,-643.0624 646.6726,-657 649.9298,-660.3502 653.782,-662.9911 657.9596,-665.0632"/>
<polygon fill="#000000" fill-opacity="0.466667" stroke="#000000" stroke-width="2" stroke-opacity="0.466667" points="656.9306,-668.4174 667.5203,-668.7452 659.4464,-661.8851 656.9306,-668.4174"/>
</g>
<!-- lib/gen&#45;dinamic&#45;data/gen&#45;vat.js -->
<g id="node23" class="node">
<title>lib/gen&#45;dinamic&#45;data/gen&#45;vat.js</title>
<g id="a_node23"><a xlink:href="lib/gen-dinamic-data/gen-vat.js" xlink:title="gen&#45;vat.js">
<path fill="#ffffcc" stroke="#000000" d="M472.2142,-591.5C472.2142,-591.5 428.5094,-591.5 428.5094,-591.5 425.6761,-591.5 422.8428,-588.6667 422.8428,-585.8333 422.8428,-585.8333 422.8428,-580.1667 422.8428,-580.1667 422.8428,-577.3333 425.6761,-574.5 428.5094,-574.5 428.5094,-574.5 472.2142,-574.5 472.2142,-574.5 475.0475,-574.5 477.8809,-577.3333 477.8809,-580.1667 477.8809,-580.1667 477.8809,-585.8333 477.8809,-585.8333 477.8809,-588.6667 475.0475,-591.5 472.2142,-591.5"/>
<text text-anchor="middle" x="450.3618" y="-580.3" font-family="Helvetica,sans-Serif" font-size="9.00" fill="#000000">gen&#45;vat.js</text>
</a>
</g>
</g>
<!-- lib/gen&#45;dinamic&#45;data/gen&#45;vat.js&#45;&gt;lib/util/random&#45;number.js -->
<g id="edge32" class="edge">
<title>lib/gen&#45;dinamic&#45;data/gen&#45;vat.js&#45;&gt;lib/util/random&#45;number.js</title>
<path fill="none" stroke="#000000" stroke-width="2" stroke-opacity="0.466667" d="M470.0933,-591.5585C505.1053,-606.4902 580.6354,-637.5604 646.6726,-657 650.262,-658.0566 653.9846,-659.0701 657.749,-660.0344"/>
<polygon fill="#000000" fill-opacity="0.466667" stroke="#000000" stroke-width="2" stroke-opacity="0.466667" points="657.2047,-663.504 667.7487,-662.4679 658.86,-656.7025 657.2047,-663.504"/>
</g>
<!-- lib/gen&#45;dinamic&#45;data/index.js -->
<g id="node24" class="node">
<title>lib/gen&#45;dinamic&#45;data/index.js</title>
<g id="a_node24"><a xlink:href="lib/gen-dinamic-data/index.js" xlink:title="index.js">
<path fill="#ffffcc" stroke="#000000" d="M347.9073,-433.5C347.9073,-433.5 305.2406,-433.5 305.2406,-433.5 302.4073,-433.5 299.574,-430.6667 299.574,-427.8333 299.574,-427.8333 299.574,-422.1667 299.574,-422.1667 299.574,-419.3333 302.4073,-416.5 305.2406,-416.5 305.2406,-416.5 347.9073,-416.5 347.9073,-416.5 350.7406,-416.5 353.574,-419.3333 353.574,-422.1667 353.574,-422.1667 353.574,-427.8333 353.574,-427.8333 353.574,-430.6667 350.7406,-433.5 347.9073,-433.5"/>
<text text-anchor="middle" x="326.574" y="-422.3" font-family="Helvetica,sans-Serif" font-size="9.00" fill="#000000">index.js</text>
</a>
</g>
</g>
<!-- lib/gen&#45;dinamic&#45;data/index.js&#45;&gt;lib/gen&#45;dinamic&#45;data/gen&#45;address/index.js -->
<g id="edge33" class="edge">
<title>lib/gen&#45;dinamic&#45;data/index.js&#45;&gt;lib/gen&#45;dinamic&#45;data/gen&#45;address/index.js</title>
<path fill="none" stroke="#000000" stroke-width="2" stroke-opacity="0.466667" d="M353.7397,-423.0249C371.1541,-421.7588 393.9915,-420.0984 413.0912,-418.7098"/>
<polygon fill="#000000" fill-opacity="0.466667" stroke="#000000" stroke-width="2" stroke-opacity="0.466667" points="413.5396,-422.1865 423.2594,-417.9705 413.0319,-415.2049 413.5396,-422.1865"/>
</g>
<!-- lib/gen&#45;dinamic&#45;data/index.js&#45;&gt;lib/gen&#45;dinamic&#45;data/gen&#45;anagrafica.js -->
<g id="edge34" class="edge">
<title>lib/gen&#45;dinamic&#45;data/index.js&#45;&gt;lib/gen&#45;dinamic&#45;data/gen&#45;anagrafica.js</title>
<path fill="none" stroke="#000000" stroke-width="2" stroke-opacity="0.466667" d="M351.3731,-433.6999C359.2045,-437.5717 367.2101,-442.8995 372.5933,-450 388.2913,-470.7059 367.6552,-488.2014 385.5933,-507 389.2264,-510.8075 393.5893,-513.8321 398.312,-516.2315"/>
<polygon fill="#000000" fill-opacity="0.466667" stroke="#000000" stroke-width="2" stroke-opacity="0.466667" points="397.1612,-519.5427 407.7405,-520.1166 399.8281,-513.0706 397.1612,-519.5427"/>
</g>
<!-- lib/gen&#45;dinamic&#45;data/index.js&#45;&gt;lib/gen&#45;dinamic&#45;data/gen&#45;birthday.js -->
<g id="edge35" class="edge">
<title>lib/gen&#45;dinamic&#45;data/index.js&#45;&gt;lib/gen&#45;dinamic&#45;data/gen&#45;birthday.js</title>
<path fill="none" stroke="#000000" stroke-width="2" stroke-opacity="0.466667" d="M350.7114,-433.6063C358.677,-437.5099 366.9364,-442.8818 372.5933,-450 386.0775,-466.9677 369.0334,-483.0179 385.5933,-497 409.0669,-516.8195 492.6129,-507.4634 523.1304,-511 527.646,-511.5233 532.3449,-512.0915 537.0439,-512.6755"/>
<polygon fill="#000000" fill-opacity="0.466667" stroke="#000000" stroke-width="2" stroke-opacity="0.466667" points="536.8995,-516.1851 547.2598,-513.9682 537.7783,-509.2405 536.8995,-516.1851"/>
</g>
<!-- lib/gen&#45;dinamic&#45;data/index.js&#45;&gt;lib/gen&#45;dinamic&#45;data/gen&#45;company.js -->
<g id="edge36" class="edge">
<title>lib/gen&#45;dinamic&#45;data/index.js&#45;&gt;lib/gen&#45;dinamic&#45;data/gen&#45;company.js</title>
<path fill="none" stroke="#000000" stroke-width="2" stroke-opacity="0.466667" d="M327.7631,-416.1525C332.8899,-379.3188 354.2706,-238.6798 385.5933,-209 389.98,-204.8433 395.2937,-201.803 400.9691,-199.596"/>
<polygon fill="#000000" fill-opacity="0.466667" stroke="#000000" stroke-width="2" stroke-opacity="0.466667" points="402.2128,-202.8761 410.7622,-196.6184 400.1765,-196.1789 402.2128,-202.8761"/>
</g>
<!-- lib/gen&#45;dinamic&#45;data/index.js&#45;&gt;lib/gen&#45;dinamic&#45;data/gen&#45;national&#45;id/index.js -->
<g id="edge37" class="edge">
<title>lib/gen&#45;dinamic&#45;data/index.js&#45;&gt;lib/gen&#45;dinamic&#45;data/gen&#45;national&#45;id/index.js</title>
<path fill="none" stroke="#000000" stroke-width="2" stroke-opacity="0.466667" d="M333.2202,-416.3524C343.8842,-402.6036 365.6473,-375.0592 385.5933,-353 401.3427,-335.5818 420.4291,-316.6717 433.7878,-303.7629"/>
<polygon fill="#000000" fill-opacity="0.466667" stroke="#000000" stroke-width="2" stroke-opacity="0.466667" points="436.4932,-306.0175 441.2842,-296.5678 431.646,-300.9673 436.4932,-306.0175"/>
</g>
<!-- lib/gen&#45;dinamic&#45;data/index.js&#45;&gt;lib/gen&#45;dinamic&#45;data/gen&#45;phone&#45;number.js -->
<g id="edge38" class="edge">
<title>lib/gen&#45;dinamic&#45;data/index.js&#45;&gt;lib/gen&#45;dinamic&#45;data/gen&#45;phone&#45;number.js</title>
<path fill="none" stroke="#000000" stroke-width="2" stroke-opacity="0.466667" d="M352.187,-433.6959C359.8866,-437.5308 367.6051,-442.8371 372.5933,-450 395.6895,-483.1655 358.0245,-510.4476 385.5933,-540 387.1873,-541.7087 388.9361,-543.2344 390.8051,-544.5954"/>
<polygon fill="#000000" fill-opacity="0.466667" stroke="#000000" stroke-width="2" stroke-opacity="0.466667" points="389.2286,-547.7241 399.6624,-549.5641 392.6534,-541.6191 389.2286,-547.7241"/>
</g>
<!-- lib/gen&#45;dinamic&#45;data/index.js&#45;&gt;lib/gen&#45;dinamic&#45;data/gen&#45;vat.js -->
<g id="edge39" class="edge">
<title>lib/gen&#45;dinamic&#45;data/index.js&#45;&gt;lib/gen&#45;dinamic&#45;data/gen&#45;vat.js</title>
<path fill="none" stroke="#000000" stroke-width="2" stroke-opacity="0.466667" d="M352.3332,-433.5959C360.0426,-437.4242 367.7299,-442.7518 372.5933,-450 402.237,-494.1799 349.9802,-529.4737 385.5933,-569 392.5238,-576.6921 402.5865,-580.7061 412.7224,-582.6773"/>
<polygon fill="#000000" fill-opacity="0.466667" stroke="#000000" stroke-width="2" stroke-opacity="0.466667" points="412.3922,-586.1643 422.7694,-584.0283 413.3251,-579.2268 412.3922,-586.1643"/>
</g>
<!-- lib/generate&#45;credentials.js -->
<g id="node26" class="node">
<title>lib/generate&#45;credentials.js</title>
<g id="a_node26"><a xlink:href="lib/generate-credentials.js" xlink:title="generate&#45;credentials.js">
<path fill="#ffffcc" stroke="#000000" d="M632.5392,-775.5C632.5392,-775.5 536.7719,-775.5 536.7719,-775.5 533.9385,-775.5 531.1052,-772.6667 531.1052,-769.8333 531.1052,-769.8333 531.1052,-764.1667 531.1052,-764.1667 531.1052,-761.3333 533.9385,-758.5 536.7719,-758.5 536.7719,-758.5 632.5392,-758.5 632.5392,-758.5 635.3725,-758.5 638.2058,-761.3333 638.2058,-764.1667 638.2058,-764.1667 638.2058,-769.8333 638.2058,-769.8333 638.2058,-772.6667 635.3725,-775.5 632.5392,-775.5"/>
<text text-anchor="middle" x="584.6555" y="-764.3" font-family="Helvetica,sans-Serif" font-size="9.00" fill="#000000">generate&#45;credentials.js</text>
</a>
</g>
</g>
<!-- lib/util/get&#45;my&#45;date.js -->
<g id="node39" class="node">
<title>lib/util/get&#45;my&#45;date.js</title>
<g id="a_node39"><a xlink:href="lib/util/get-my-date.js" xlink:title="get&#45;my&#45;date.js">
<path fill="#ffffcc" stroke="#000000" d="M742.5416,-708.5C742.5416,-708.5 680.8368,-708.5 680.8368,-708.5 678.0035,-708.5 675.1702,-705.6667 675.1702,-702.8333 675.1702,-702.8333 675.1702,-697.1667 675.1702,-697.1667 675.1702,-694.3333 678.0035,-691.5 680.8368,-691.5 680.8368,-691.5 742.5416,-691.5 742.5416,-691.5 745.3749,-691.5 748.2083,-694.3333 748.2083,-697.1667 748.2083,-697.1667 748.2083,-702.8333 748.2083,-702.8333 748.2083,-705.6667 745.3749,-708.5 742.5416,-708.5"/>
<text text-anchor="middle" x="711.6892" y="-697.3" font-family="Helvetica,sans-Serif" font-size="9.00" fill="#000000">get&#45;my&#45;date.js</text>
</a>
</g>
</g>
<!-- lib/generate&#45;credentials.js&#45;&gt;lib/util/get&#45;my&#45;date.js -->
<g id="edge40" class="edge">
<title>lib/generate&#45;credentials.js&#45;&gt;lib/util/get&#45;my&#45;date.js</title>
<path fill="none" stroke="#000000" stroke-width="2" stroke-opacity="0.466667" d="M625.7524,-758.4269C630.5883,-756.021 635.0729,-752.9414 638.6726,-749 649.1414,-737.5374 635.6718,-725.9531 646.6726,-715 651.8648,-709.8303 658.4602,-706.2996 665.4484,-703.9134"/>
<polygon fill="#000000" fill-opacity="0.466667" stroke="#000000" stroke-width="2" stroke-opacity="0.466667" points="666.3717,-707.2896 675.1264,-701.3226 664.5615,-700.5277 666.3717,-707.2896"/>
</g>
<!-- lib/get&#45;static&#45;data/get&#45;static&#45;national&#45;id.js -->
<g id="node27" class="node">
<title>lib/get&#45;static&#45;data/get&#45;static&#45;national&#45;id.js</title>
<g id="a_node27"><a xlink:href="lib/get-static-data/get-static-national-id.js" xlink:title="get&#45;static&#45;national&#45;id.js">
<path fill="#ffffcc" stroke="#000000" d="M497.7347,-650.5C497.7347,-650.5 402.9889,-650.5 402.9889,-650.5 400.1556,-650.5 397.3223,-647.6667 397.3223,-644.8333 397.3223,-644.8333 397.3223,-639.1667 397.3223,-639.1667 397.3223,-636.3333 400.1556,-633.5 402.9889,-633.5 402.9889,-633.5 497.7347,-633.5 497.7347,-633.5 500.568,-633.5 503.4014,-636.3333 503.4014,-639.1667 503.4014,-639.1667 503.4014,-644.8333 503.4014,-644.8333 503.4014,-647.6667 500.568,-650.5 497.7347,-650.5"/>
<text text-anchor="middle" x="450.3618" y="-639.3" font-family="Helvetica,sans-Serif" font-size="9.00" fill="#000000">get&#45;static&#45;national&#45;id.js</text>
</a>
</g>
</g>
<!-- lib/get&#45;static&#45;data/get&#45;static&#45;profile&#45;merchant.js -->
<g id="node28" class="node">
<title>lib/get&#45;static&#45;data/get&#45;static&#45;profile&#45;merchant.js</title>
<g id="a_node28"><a xlink:href="lib/get-static-data/get-static-profile-merchant.js" xlink:title="get&#45;static&#45;profile&#45;merchant.js">
<path fill="#ffffcc" stroke="#000000" d="M509.2331,-679.5C509.2331,-679.5 391.4905,-679.5 391.4905,-679.5 388.6572,-679.5 385.8239,-676.6667 385.8239,-673.8333 385.8239,-673.8333 385.8239,-668.1667 385.8239,-668.1667 385.8239,-665.3333 388.6572,-662.5 391.4905,-662.5 391.4905,-662.5 509.2331,-662.5 509.2331,-662.5 512.0664,-662.5 514.8997,-665.3333 514.8997,-668.1667 514.8997,-668.1667 514.8997,-673.8333 514.8997,-673.8333 514.8997,-676.6667 512.0664,-679.5 509.2331,-679.5"/>
<text text-anchor="middle" x="450.3618" y="-668.3" font-family="Helvetica,sans-Serif" font-size="9.00" fill="#000000">get&#45;static&#45;profile&#45;merchant.js</text>
</a>
</g>
</g>
<!-- lib/get&#45;static&#45;data/get&#45;static&#45;profile&#45;personal.js -->
<g id="node29" class="node">
<title>lib/get&#45;static&#45;data/get&#45;static&#45;profile&#45;personal.js</title>
<g id="a_node29"><a xlink:href="lib/get-static-data/get-static-profile-personal.js" xlink:title="get&#45;static&#45;profile&#45;personal.js">
<path fill="#ffffcc" stroke="#000000" d="M507.7404,-708.5C507.7404,-708.5 392.9832,-708.5 392.9832,-708.5 390.1499,-708.5 387.3166,-705.6667 387.3166,-702.8333 387.3166,-702.8333 387.3166,-697.1667 387.3166,-697.1667 387.3166,-694.3333 390.1499,-691.5 392.9832,-691.5 392.9832,-691.5 507.7404,-691.5 507.7404,-691.5 510.5737,-691.5 513.4071,-694.3333 513.4071,-697.1667 513.4071,-697.1667 513.4071,-702.8333 513.4071,-702.8333 513.4071,-705.6667 510.5737,-708.5 507.7404,-708.5"/>
<text text-anchor="middle" x="450.3618" y="-697.3" font-family="Helvetica,sans-Serif" font-size="9.00" fill="#000000">get&#45;static&#45;profile&#45;personal.js</text>
</a>
</g>
</g>
<!-- lib/get&#45;static&#45;data/get&#45;static&#45;vat&#45;id.js -->
<g id="node30" class="node">
<title>lib/get&#45;static&#45;data/get&#45;static&#45;vat&#45;id.js</title>
<g id="a_node30"><a xlink:href="lib/get-static-data/get-static-vat-id.js" xlink:title="get&#45;static&#45;vat&#45;id.js">
<path fill="#ffffcc" stroke="#000000" d="M487.7155,-737.5C487.7155,-737.5 413.0081,-737.5 413.0081,-737.5 410.1748,-737.5 407.3414,-734.6667 407.3414,-731.8333 407.3414,-731.8333 407.3414,-726.1667 407.3414,-726.1667 407.3414,-723.3333 410.1748,-720.5 413.0081,-720.5 413.0081,-720.5 487.7155,-720.5 487.7155,-720.5 490.5489,-720.5 493.3822,-723.3333 493.3822,-726.1667 493.3822,-726.1667 493.3822,-731.8333 493.3822,-731.8333 493.3822,-734.6667 490.5489,-737.5 487.7155,-737.5"/>
<text text-anchor="middle" x="450.3618" y="-726.3" font-family="Helvetica,sans-Serif" font-size="9.00" fill="#000000">get&#45;static&#45;vat&#45;id.js</text>
</a>
</g>
</g>
<!-- lib/get&#45;static&#45;data/index.js -->
<g id="node31" class="node">
<title>lib/get&#45;static&#45;data/index.js</title>
<g id="a_node31"><a xlink:href="lib/get-static-data/index.js" xlink:title="index.js">
<path fill="#ffffcc" stroke="#000000" d="M347.9073,-679.5C347.9073,-679.5 305.2406,-679.5 305.2406,-679.5 302.4073,-679.5 299.574,-676.6667 299.574,-673.8333 299.574,-673.8333 299.574,-668.1667 299.574,-668.1667 299.574,-665.3333 302.4073,-662.5 305.2406,-662.5 305.2406,-662.5 347.9073,-662.5 347.9073,-662.5 350.7406,-662.5 353.574,-665.3333 353.574,-668.1667 353.574,-668.1667 353.574,-673.8333 353.574,-673.8333 353.574,-676.6667 350.7406,-679.5 347.9073,-679.5"/>
<text text-anchor="middle" x="326.574" y="-668.3" font-family="Helvetica,sans-Serif" font-size="9.00" fill="#000000">index.js</text>
</a>
</g>
</g>
<!-- lib/get&#45;static&#45;data/index.js&#45;&gt;lib/get&#45;static&#45;data/get&#45;static&#45;national&#45;id.js -->
<g id="edge41" class="edge">
<title>lib/get&#45;static&#45;data/index.js&#45;&gt;lib/get&#45;static&#45;data/get&#45;static&#45;national&#45;id.js</title>
<path fill="none" stroke="#000000" stroke-width="2" stroke-opacity="0.466667" d="M353.5978,-664.5578C363.6417,-662.1718 375.1354,-659.4513 385.5933,-657 391.3525,-655.65 397.4016,-654.2394 403.3937,-652.8465"/>
<polygon fill="#000000" fill-opacity="0.466667" stroke="#000000" stroke-width="2" stroke-opacity="0.466667" points="404.413,-656.2031 413.3629,-650.5329 402.8305,-649.3843 404.413,-656.2031"/>
</g>
<!-- lib/get&#45;static&#45;data/index.js&#45;&gt;lib/get&#45;static&#45;data/get&#45;static&#45;profile&#45;merchant.js -->
<g id="edge42" class="edge">
<title>lib/get&#45;static&#45;data/index.js&#45;&gt;lib/get&#45;static&#45;data/get&#45;static&#45;profile&#45;merchant.js</title>
<path fill="none" stroke="#000000" stroke-width="2" stroke-opacity="0.466667" d="M353.7397,-671C360.3708,-671 367.7881,-671 375.486,-671"/>
<polygon fill="#000000" fill-opacity="0.466667" stroke="#000000" stroke-width="2" stroke-opacity="0.466667" points="375.7247,-674.5001 385.7247,-671 375.7246,-667.5001 375.7247,-674.5001"/>
</g>
<!-- lib/get&#45;static&#45;data/index.js&#45;&gt;lib/get&#45;static&#45;data/get&#45;static&#45;profile&#45;personal.js -->
<g id="edge43" class="edge">
<title>lib/get&#45;static&#45;data/index.js&#45;&gt;lib/get&#45;static&#45;data/get&#45;static&#45;profile&#45;personal.js</title>
<path fill="none" stroke="#000000" stroke-width="2" stroke-opacity="0.466667" d="M353.8505,-678.1506C363.8195,-680.7063 375.1987,-683.5565 385.5933,-686 390.2478,-687.0942 395.0982,-688.2021 399.9582,-689.2904"/>
<polygon fill="#000000" fill-opacity="0.466667" stroke="#000000" stroke-width="2" stroke-opacity="0.466667" points="399.3678,-692.7443 409.8877,-691.4862 400.8794,-685.9095 399.3678,-692.7443"/>
</g>
<!-- lib/get&#45;static&#45;data/index.js&#45;&gt;lib/get&#45;static&#45;data/get&#45;static&#45;vat&#45;id.js -->
<g id="edge44" class="edge">
<title>lib/get&#45;static&#45;data/index.js&#45;&gt;lib/get&#45;static&#45;data/get&#45;static&#45;vat&#45;id.js</title>
<path fill="none" stroke="#000000" stroke-width="2" stroke-opacity="0.466667" d="M335.3844,-679.5158C346.2785,-689.5547 365.815,-706.0069 385.5933,-715 389.2586,-716.6666 393.1324,-718.1392 397.0891,-719.4397"/>
<polygon fill="#000000" fill-opacity="0.466667" stroke="#000000" stroke-width="2" stroke-opacity="0.466667" points="396.444,-722.8971 407.0236,-722.3302 398.3996,-716.1758 396.444,-722.8971"/>
</g>
<!-- lib/index.js -->
<g id="node32" class="node">
<title>lib/index.js</title>
<g id="a_node32"><a xlink:href="lib/index.js" xlink:title="index.js">
<path fill="#ffffcc" stroke="#000000" d="M64.3333,-144.5C64.3333,-144.5 21.6667,-144.5 21.6667,-144.5 18.8333,-144.5 16,-141.6667 16,-138.8333 16,-138.8333 16,-133.1667 16,-133.1667 16,-130.3333 18.8333,-127.5 21.6667,-127.5 21.6667,-127.5 64.3333,-127.5 64.3333,-127.5 67.1667,-127.5 70,-130.3333 70,-133.1667 70,-133.1667 70,-138.8333 70,-138.8333 70,-141.6667 67.1667,-144.5 64.3333,-144.5"/>
<text text-anchor="middle" x="43" y="-133.3" font-family="Helvetica,sans-Serif" font-size="9.00" fill="#000000">index.js</text>
</a>
</g>
</g>
<!-- lib/profile/index.js -->
<g id="node36" class="node">
<title>lib/profile/index.js</title>
<g id="a_node36"><a xlink:href="lib/profile/index.js" xlink:title="index.js">
<path fill="#ffffcc" stroke="#000000" d="M149.0987,-144.5C149.0987,-144.5 106.432,-144.5 106.432,-144.5 103.5987,-144.5 100.7654,-141.6667 100.7654,-138.8333 100.7654,-138.8333 100.7654,-133.1667 100.7654,-133.1667 100.7654,-130.3333 103.5987,-127.5 106.432,-127.5 106.432,-127.5 149.0987,-127.5 149.0987,-127.5 151.932,-127.5 154.7654,-130.3333 154.7654,-133.1667 154.7654,-133.1667 154.7654,-138.8333 154.7654,-138.8333 154.7654,-141.6667 151.932,-144.5 149.0987,-144.5"/>
<text text-anchor="middle" x="127.7654" y="-133.3" font-family="Helvetica,sans-Serif" font-size="9.00" fill="#000000">index.js</text>
</a>
</g>
</g>
<!-- lib/index.js&#45;&gt;lib/profile/index.js -->
<g id="edge45" class="edge">
<title>lib/index.js&#45;&gt;lib/profile/index.js</title>
<path fill="none" stroke="#000000" stroke-width="2" stroke-opacity="0.466667" d="M70.2869,-136C76.6391,-136 83.5117,-136 90.2205,-136"/>
<polygon fill="#000000" fill-opacity="0.466667" stroke="#000000" stroke-width="2" stroke-opacity="0.466667" points="90.5297,-139.5001 100.5296,-136 90.5296,-132.5001 90.5297,-139.5001"/>
</g>
<!-- lib/profile/Profile.js -->
<g id="node33" class="node">
<title>lib/profile/Profile.js</title>
<g id="a_node33"><a xlink:href="lib/profile/Profile.js" xlink:title="Profile.js">
<path fill="#ffffcc" stroke="#000000" d="M347.9073,-93.5C347.9073,-93.5 305.2406,-93.5 305.2406,-93.5 302.4073,-93.5 299.574,-90.6667 299.574,-87.8333 299.574,-87.8333 299.574,-82.1667 299.574,-82.1667 299.574,-79.3333 302.4073,-76.5 305.2406,-76.5 305.2406,-76.5 347.9073,-76.5 347.9073,-76.5 350.7406,-76.5 353.574,-79.3333 353.574,-82.1667 353.574,-82.1667 353.574,-87.8333 353.574,-87.8333 353.574,-90.6667 350.7406,-93.5 347.9073,-93.5"/>
<text text-anchor="middle" x="326.574" y="-82.3" font-family="Helvetica,sans-Serif" font-size="9.00" fill="#000000">Profile.js</text>
</a>
</g>
</g>
<!-- lib/profile/Profile.js&#45;&gt;lib/data/index.js -->
<g id="edge46" class="edge">
<title>lib/profile/Profile.js&#45;&gt;lib/data/index.js</title>
<path fill="none" stroke="#000000" stroke-width="2" stroke-opacity="0.466667" d="M353.7054,-88.8897C400.1742,-95.5517 495.0507,-109.1538 547.5849,-116.6854"/>
<polygon fill="#000000" fill-opacity="0.466667" stroke="#000000" stroke-width="2" stroke-opacity="0.466667" points="547.1048,-120.1522 557.5003,-118.1069 548.0983,-113.2231 547.1048,-120.1522"/>
</g>
<!-- lib/profile/__tests/profile.spec.js -->
<g id="node34" class="node">
<title>lib/profile/__tests/profile.spec.js</title>
<g id="a_node34"><a xlink:href="lib/profile/__tests/profile.spec.js" xlink:title="profile.spec.js">
<path fill="#ffffcc" stroke="#000000" d="M250.9,-93.5C250.9,-93.5 191.1855,-93.5 191.1855,-93.5 188.3521,-93.5 185.5188,-90.6667 185.5188,-87.8333 185.5188,-87.8333 185.5188,-82.1667 185.5188,-82.1667 185.5188,-79.3333 188.3521,-76.5 191.1855,-76.5 191.1855,-76.5 250.9,-76.5 250.9,-76.5 253.7333,-76.5 256.5667,-79.3333 256.5667,-82.1667 256.5667,-82.1667 256.5667,-87.8333 256.5667,-87.8333 256.5667,-90.6667 253.7333,-93.5 250.9,-93.5"/>
<text text-anchor="middle" x="221.0427" y="-82.3" font-family="Helvetica,sans-Serif" font-size="9.00" fill="#000000">profile.spec.js</text>
</a>
</g>
</g>
<!-- lib/profile/__tests/profile.spec.js&#45;&gt;lib/profile/Profile.js -->
<g id="edge47" class="edge">
<title>lib/profile/__tests/profile.spec.js&#45;&gt;lib/profile/Profile.js</title>
<path fill="none" stroke="#000000" stroke-width="2" stroke-opacity="0.466667" d="M256.7708,-85C267.2649,-85 278.7663,-85 289.3514,-85"/>
<polygon fill="#000000" fill-opacity="0.466667" stroke="#000000" stroke-width="2" stroke-opacity="0.466667" points="289.5598,-88.5001 299.5598,-85 289.5597,-81.5001 289.5598,-88.5001"/>
</g>
<!-- lib/profile/get&#45;profile.js -->
<g id="node35" class="node">
<title>lib/profile/get&#45;profile.js</title>
<g id="a_node35"><a xlink:href="lib/profile/get-profile.js" xlink:title="get&#45;profile.js">
<path fill="#ffffcc" stroke="#000000" d="M247.8971,-144.5C247.8971,-144.5 194.1884,-144.5 194.1884,-144.5 191.3551,-144.5 188.5217,-141.6667 188.5217,-138.8333 188.5217,-138.8333 188.5217,-133.1667 188.5217,-133.1667 188.5217,-130.3333 191.3551,-127.5 194.1884,-127.5 194.1884,-127.5 247.8971,-127.5 247.8971,-127.5 250.7304,-127.5 253.5637,-130.3333 253.5637,-133.1667 253.5637,-133.1667 253.5637,-138.8333 253.5637,-138.8333 253.5637,-141.6667 250.7304,-144.5 247.8971,-144.5"/>
<text text-anchor="middle" x="221.0427" y="-133.3" font-family="Helvetica,sans-Serif" font-size="9.00" fill="#000000">get&#45;profile.js</text>
</a>
</g>
</g>
<!-- lib/profile/get&#45;profile.js&#45;&gt;lib/gen&#45;dinamic&#45;data/index.js -->
<g id="edge48" class="edge">
<title>lib/profile/get&#45;profile.js&#45;&gt;lib/gen&#45;dinamic&#45;data/index.js</title>
<path fill="none" stroke="#000000" stroke-width="2" stroke-opacity="0.466667" d="M224.2011,-144.6492C238.7658,-184.535 299.6029,-351.1389 319.9287,-406.8016"/>
<polygon fill="#000000" fill-opacity="0.466667" stroke="#000000" stroke-width="2" stroke-opacity="0.466667" points="316.7102,-408.1917 323.428,-416.3845 323.2855,-405.7907 316.7102,-408.1917"/>
</g>
<!-- lib/profile/get&#45;profile.js&#45;&gt;lib/get&#45;static&#45;data/index.js -->
<g id="edge49" class="edge">
<title>lib/profile/get&#45;profile.js&#45;&gt;lib/get&#45;static&#45;data/index.js</title>
<path fill="none" stroke="#000000" stroke-width="2" stroke-opacity="0.466667" d="M221.1514,-144.5106C221.9994,-201.8007 228.7488,-531.6023 272.5547,-620 279.7652,-634.5503 292.9498,-647.1247 304.4879,-656.1471"/>
<polygon fill="#000000" fill-opacity="0.466667" stroke="#000000" stroke-width="2" stroke-opacity="0.466667" points="302.7395,-659.2066 312.8641,-662.3281 306.8959,-653.5742 302.7395,-659.2066"/>
</g>
<!-- lib/profile/get&#45;profile.js&#45;&gt;lib/profile/Profile.js -->
<g id="edge53" class="edge">
<title>lib/profile/get&#45;profile.js&#45;&gt;lib/profile/Profile.js</title>
<path fill="none" stroke="#000000" stroke-width="2" stroke-opacity="0.466667" d="M253.9803,-127.9136C257.7225,-126.2788 261.3408,-124.3268 264.5547,-122 269.4512,-118.455 267.9129,-114.8725 272.5547,-111 278.736,-105.8431 286.1131,-101.429 293.3992,-97.7795"/>
<polygon fill="#000000" fill-opacity="0.466667" stroke="#000000" stroke-width="2" stroke-opacity="0.466667" points="294.883,-100.9496 302.4828,-93.5675 291.9382,-94.5991 294.883,-100.9496"/>
</g>
<!-- lib/profile/mcc&#45;validate.js -->
<g id="node37" class="node">
<title>lib/profile/mcc&#45;validate.js</title>
<g id="a_node37"><a xlink:href="lib/profile/mcc-validate.js" xlink:title="mcc&#45;validate.js">
<path fill="#ffffcc" stroke="#000000" d="M358.424,-133.5C358.424,-133.5 294.724,-133.5 294.724,-133.5 291.8906,-133.5 289.0573,-130.6667 289.0573,-127.8333 289.0573,-127.8333 289.0573,-122.1667 289.0573,-122.1667 289.0573,-119.3333 291.8906,-116.5 294.724,-116.5 294.724,-116.5 358.424,-116.5 358.424,-116.5 361.2573,-116.5 364.0907,-119.3333 364.0907,-122.1667 364.0907,-122.1667 364.0907,-127.8333 364.0907,-127.8333 364.0907,-130.6667 361.2573,-133.5 358.424,-133.5"/>
<text text-anchor="middle" x="326.574" y="-122.3" font-family="Helvetica,sans-Serif" font-size="9.00" fill="#000000">mcc&#45;validate.js</text>
</a>
</g>
</g>
<!-- lib/profile/get&#45;profile.js&#45;&gt;lib/profile/mcc&#45;validate.js -->
<g id="edge54" class="edge">
<title>lib/profile/get&#45;profile.js&#45;&gt;lib/profile/mcc&#45;validate.js</title>
<path fill="none" stroke="#000000" stroke-width="2" stroke-opacity="0.466667" d="M253.5667,-132.6099C261.4889,-131.7841 270.1287,-130.8836 278.6022,-130.0003"/>
<polygon fill="#000000" fill-opacity="0.466667" stroke="#000000" stroke-width="2" stroke-opacity="0.466667" points="279.2129,-133.4557 288.7961,-128.9378 278.4871,-126.4934 279.2129,-133.4557"/>
</g>
<!-- lib/profile/get&#45;profile.js&#45;&gt;lib/util/get&#45;my&#45;date.js -->
<g id="edge50" class="edge">
<title>lib/profile/get&#45;profile.js&#45;&gt;lib/util/get&#45;my&#45;date.js</title>
<path fill="none" stroke="#000000" stroke-width="2" stroke-opacity="0.466667" d="M221.4148,-144.5777C224.6559,-218.3678 248.5471,-743.8753 272.5547,-766 293.0282,-784.8679 499.4468,-780.6373 523.1304,-766 529.8934,-761.8202 525.0528,-755.1257 531.1304,-750 572.1469,-715.4073 594.8256,-728.8167 646.6726,-715 652.6961,-713.3948 659.0601,-711.8016 665.3553,-710.2864"/>
<polygon fill="#000000" fill-opacity="0.466667" stroke="#000000" stroke-width="2" stroke-opacity="0.466667" points="666.2036,-713.6824 675.1322,-707.9789 664.5956,-706.8696 666.2036,-713.6824"/>
</g>
<!-- lib/util/get&#45;random&#45;user.js -->
<g id="node40" class="node">
<title>lib/util/get&#45;random&#45;user.js</title>
<g id="a_node40"><a xlink:href="lib/util/get-random-user.js" xlink:title="get&#45;random&#45;user.js">
<path fill="#ffffcc" stroke="#000000" d="M751.5592,-737.5C751.5592,-737.5 671.8192,-737.5 671.8192,-737.5 668.9859,-737.5 666.1526,-734.6667 666.1526,-731.8333 666.1526,-731.8333 666.1526,-726.1667 666.1526,-726.1667 666.1526,-723.3333 668.9859,-720.5 671.8192,-720.5 671.8192,-720.5 751.5592,-720.5 751.5592,-720.5 754.3925,-720.5 757.2258,-723.3333 757.2258,-726.1667 757.2258,-726.1667 757.2258,-731.8333 757.2258,-731.8333 757.2258,-734.6667 754.3925,-737.5 751.5592,-737.5"/>
<text text-anchor="middle" x="711.6892" y="-726.3" font-family="Helvetica,sans-Serif" font-size="9.00" fill="#000000">get&#45;random&#45;user.js</text>
</a>
</g>
</g>
<!-- lib/profile/get&#45;profile.js&#45;&gt;lib/util/get&#45;random&#45;user.js -->
<g id="edge51" class="edge">
<title>lib/profile/get&#45;profile.js&#45;&gt;lib/util/get&#45;random&#45;user.js</title>
<path fill="none" stroke="#000000" stroke-width="2" stroke-opacity="0.466667" d="M221.4146,-144.7081C224.6539,-219.6208 248.5335,-753.1367 272.5547,-776 302.0281,-804.0527 607.2664,-809.8705 638.6726,-784 653.0027,-772.1958 633.6725,-756.2547 646.6726,-743 649.5466,-740.0698 652.8759,-737.6834 656.4789,-735.7463"/>
<polygon fill="#000000" fill-opacity="0.466667" stroke="#000000" stroke-width="2" stroke-opacity="0.466667" points="658.0231,-738.8942 665.8947,-731.8028 655.3189,-732.4376 658.0231,-738.8942"/>
</g>
<!-- lib/util/logger.js -->
<g id="node42" class="node">
<title>lib/util/logger.js</title>
<g id="a_node42"><a xlink:href="lib/util/logger.js" xlink:title="logger.js">
<path fill="#ffffcc" stroke="#000000" d="M845.2989,-766.5C845.2989,-766.5 802.6322,-766.5 802.6322,-766.5 799.7989,-766.5 796.9656,-763.6667 796.9656,-760.8333 796.9656,-760.8333 796.9656,-755.1667 796.9656,-755.1667 796.9656,-752.3333 799.7989,-749.5 802.6322,-749.5 802.6322,-749.5 845.2989,-749.5 845.2989,-749.5 848.1322,-749.5 850.9656,-752.3333 850.9656,-755.1667 850.9656,-755.1667 850.9656,-760.8333 850.9656,-760.8333 850.9656,-763.6667 848.1322,-766.5 845.2989,-766.5"/>
<text text-anchor="middle" x="823.9656" y="-755.3" font-family="Helvetica,sans-Serif" font-size="9.00" fill="#000000">logger.js</text>
</a>
</g>
</g>
<!-- lib/profile/get&#45;profile.js&#45;&gt;lib/util/logger.js -->
<g id="edge52" class="edge">
<title>lib/profile/get&#45;profile.js&#45;&gt;lib/util/logger.js</title>
<path fill="none" stroke="#000000" stroke-width="2" stroke-opacity="0.466667" d="M221.071,-144.5119C221.3953,-217.7812 225.3606,-740.5122 272.5547,-789 327.9248,-845.888 370.9761,-806 450.3618,-806 450.3618,-806 450.3618,-806 584.6555,-806 666.4991,-806 691.5814,-827.3898 768.7058,-800 783.938,-794.5905 798.3795,-783.3184 808.6767,-773.8128"/>
<polygon fill="#000000" fill-opacity="0.466667" stroke="#000000" stroke-width="2" stroke-opacity="0.466667" points="811.2496,-776.193 815.9824,-766.714 806.3714,-771.1727 811.2496,-776.193"/>
</g>
<!-- lib/profile/index.js&#45;&gt;lib/profile/get&#45;profile.js -->
<g id="edge55" class="edge">
<title>lib/profile/index.js&#45;&gt;lib/profile/get&#45;profile.js</title>
<path fill="none" stroke="#000000" stroke-width="2" stroke-opacity="0.466667" d="M155.2472,-136C162.4961,-136 170.4923,-136 178.3389,-136"/>
<polygon fill="#000000" fill-opacity="0.466667" stroke="#000000" stroke-width="2" stroke-opacity="0.466667" points="178.4925,-139.5001 188.4925,-136 178.4925,-132.5001 178.4925,-139.5001"/>
</g>
<!-- lib/profile/mcc&#45;validate.js&#45;&gt;lib/data/mccs&#45;available.js -->
<g id="edge56" class="edge">
<title>lib/profile/mcc&#45;validate.js&#45;&gt;lib/data/mccs&#45;available.js</title>
<path fill="none" stroke="#000000" stroke-width="2" stroke-opacity="0.466667" d="M345.9058,-116.4189C394.9563,-95.1736 528.7313,-40.5081 646.6726,-22 700.2539,-13.5917 715.0716,-13.9365 768.7058,-22 776.2805,-23.1388 784.2497,-25.1093 791.705,-27.3144"/>
<polygon fill="#000000" fill-opacity="0.466667" stroke="#000000" stroke-width="2" stroke-opacity="0.466667" points="790.8774,-30.7237 801.4677,-30.4108 792.9938,-24.0513 790.8774,-30.7237"/>
</g>
<!-- lib/profile/profile&#45;validate.js -->
<g id="node38" class="node">
<title>lib/profile/profile&#45;validate.js</title>
<g id="a_node38"><a xlink:href="lib/profile/profile-validate.js" xlink:title="profile&#45;validate.js">
<path fill="#ffffcc" stroke="#000000" d="M163.6308,-100.5C163.6308,-100.5 91.9,-100.5 91.9,-100.5 89.0666,-100.5 86.2333,-97.6667 86.2333,-94.8333 86.2333,-94.8333 86.2333,-89.1667 86.2333,-89.1667 86.2333,-86.3333 89.0666,-83.5 91.9,-83.5 91.9,-83.5 163.6308,-83.5 163.6308,-83.5 166.4641,-83.5 169.2975,-86.3333 169.2975,-89.1667 169.2975,-89.1667 169.2975,-94.8333 169.2975,-94.8333 169.2975,-97.6667 166.4641,-100.5 163.6308,-100.5"/>
<text text-anchor="middle" x="127.7654" y="-89.3" font-family="Helvetica,sans-Serif" font-size="9.00" fill="#000000">profile&#45;validate.js</text>
</a>
</g>
</g>
<!-- lib/util/get&#45;random&#45;user.js&#45;&gt;lib/util/logger.js -->
<g id="edge57" class="edge">
<title>lib/util/get&#45;random&#45;user.js&#45;&gt;lib/util/logger.js</title>
<path fill="none" stroke="#000000" stroke-width="2" stroke-opacity="0.466667" d="M747.0042,-737.5296C754.1934,-739.3058 761.6992,-741.1891 768.7058,-743 774.5633,-744.5139 780.7588,-746.1557 786.8007,-747.7791"/>
<polygon fill="#000000" fill-opacity="0.466667" stroke="#000000" stroke-width="2" stroke-opacity="0.466667" points="786.1696,-751.2342 796.7367,-750.4679 787.9982,-744.4772 786.1696,-751.2342"/>
</g>
<!-- lib/util/get&#45;random&#45;user/get&#45;random&#45;user.js -->
<g id="node41" class="node">
<title>lib/util/get&#45;random&#45;user/get&#45;random&#45;user.js</title>
<g id="a_node41"><a xlink:href="lib/util/get-random-user/get-random-user.js" xlink:title="get&#45;random&#45;user.js">
<path fill="#ffffcc" stroke="#000000" d="M751.5592,-771.5C751.5592,-771.5 671.8192,-771.5 671.8192,-771.5 668.9859,-771.5 666.1526,-768.6667 666.1526,-765.8333 666.1526,-765.8333 666.1526,-760.1667 666.1526,-760.1667 666.1526,-757.3333 668.9859,-754.5 671.8192,-754.5 671.8192,-754.5 751.5592,-754.5 751.5592,-754.5 754.3925,-754.5 757.2258,-757.3333 757.2258,-760.1667 757.2258,-760.1667 757.2258,-765.8333 757.2258,-765.8333 757.2258,-768.6667 754.3925,-771.5 751.5592,-771.5"/>
<text text-anchor="middle" x="711.6892" y="-760.3" font-family="Helvetica,sans-Serif" font-size="9.00" fill="#000000">get&#45;random&#45;user.js</text>
</a>
</g>
</g>
</g>
</svg>
