<?xml version="1.0" encoding="UTF-8" standalone="no"?>
<!DOCTYPE svg PUBLIC "-//W3C//DTD SVG 1.1//EN"
 "http://www.w3.org/Graphics/SVG/1.1/DTD/svg11.dtd">
<!-- Generated by graphviz version 2.40.1 (20161225.0304)
 -->
<!-- Title: dependency&#45;cruiser output Pages: 1 -->
<svg width="904pt" height="832pt"
 viewBox="0.00 0.00 903.73 832.00" xmlns="http://www.w3.org/2000/svg" xmlns:xlink="http://www.w3.org/1999/xlink">
<g id="graph0" class="graph" transform="scale(1 1) rotate(0) translate(4 828)">
<title>dependency&#45;cruiser output</title>
<polygon fill="#ffffff" stroke="transparent" points="-4,4 -4,-828 899.7268,-828 899.7268,4 -4,4"/>
<g id="clust1" class="cluster">
<title>cluster_lib</title>
<path fill="#ffffff" stroke="#000000" stroke-width="2" d="M20,-8C20,-8 875.7268,-8 875.7268,-8 881.7268,-8 887.7268,-14 887.7268,-20 887.7268,-20 887.7268,-804 887.7268,-804 887.7268,-810 881.7268,-816 875.7268,-816 875.7268,-816 20,-816 20,-816 14,-816 8,-810 8,-804 8,-804 8,-20 8,-20 8,-14 14,-8 20,-8"/>
<text text-anchor="middle" x="447.8634" y="-804.8" font-family="Helvetica,sans-Serif" font-weight="bold" font-size="9.00" fill="#000000">lib</text>
</g>
<g id="clust2" class="cluster">
<title>cluster_lib/data</title>
<path fill="#ffffff" stroke="#000000" stroke-width="2" d="M561.6555,-16C561.6555,-16 862.2253,-16 862.2253,-16 868.2253,-16 874.2253,-22 874.2253,-28 874.2253,-28 874.2253,-152 874.2253,-152 874.2253,-158 868.2253,-164 862.2253,-164 862.2253,-164 561.6555,-164 561.6555,-164 555.6555,-164 549.6555,-158 549.6555,-152 549.6555,-152 549.6555,-28 549.6555,-28 549.6555,-22 555.6555,-16 561.6555,-16"/>
<text text-anchor="middle" x="711.9404" y="-152.8" font-family="Helvetica,sans-Serif" font-weight="bold" font-size="9.00" fill="#000000">data</text>
</g>
<g id="clust3" class="cluster">
<title>cluster_lib/data/__tests</title>
<path fill="#ffffff" stroke="#000000" stroke-width="2" d="M683.6753,-78C683.6753,-78 739.7031,-78 739.7031,-78 745.7031,-78 751.7031,-84 751.7031,-90 751.7031,-90 751.7031,-117 751.7031,-117 751.7031,-123 745.7031,-129 739.7031,-129 739.7031,-129 683.6753,-129 683.6753,-129 677.6753,-129 671.6753,-123 671.6753,-117 671.6753,-117 671.6753,-90 671.6753,-90 671.6753,-84 677.6753,-78 683.6753,-78"/>
<text text-anchor="middle" x="711.6892" y="-117.8" font-family="Helvetica,sans-Serif" font-weight="bold" font-size="9.00" fill="#000000">__tests</text>
</g>
<g id="clust4" class="cluster">
<title>cluster_lib/gen&#45;dinamic&#45;data</title>
<path fill="#ffffff" stroke="#000000" stroke-width="2" d="M284.5547,-172C284.5547,-172 867.7268,-172 867.7268,-172 873.7268,-172 879.7268,-178 879.7268,-184 879.7268,-184 879.7268,-574 879.7268,-574 879.7268,-580 873.7268,-586 867.7268,-586 867.7268,-586 284.5547,-586 284.5547,-586 278.5547,-586 272.5547,-580 272.5547,-574 272.5547,-574 272.5547,-184 272.5547,-184 272.5547,-178 278.5547,-172 284.5547,-172"/>
<text text-anchor="middle" x="576.1407" y="-574.8" font-family="Helvetica,sans-Serif" font-weight="bold" font-size="9.00" fill="#000000">gen&#45;dinamic&#45;data</text>
</g>
<g id="clust5" class="cluster">
<title>cluster_lib/gen&#45;dinamic&#45;data/gen&#45;address</title>
<path fill="#ffffff" stroke="#000000" stroke-width="2" d="M427.3618,-324C427.3618,-324 626.6726,-324 626.6726,-324 632.6726,-324 638.6726,-330 638.6726,-336 638.6726,-336 638.6726,-450 638.6726,-450 638.6726,-456 632.6726,-462 626.6726,-462 626.6726,-462 427.3618,-462 427.3618,-462 421.3618,-462 415.3618,-456 415.3618,-450 415.3618,-450 415.3618,-336 415.3618,-336 415.3618,-330 421.3618,-324 427.3618,-324"/>
<text text-anchor="middle" x="527.0172" y="-450.8" font-family="Helvetica,sans-Serif" font-weight="bold" font-size="9.00" fill="#000000">gen&#45;address</text>
</g>
<g id="clust6" class="cluster">
<title>cluster_lib/gen&#45;dinamic&#45;data/gen&#45;national&#45;id</title>
<path fill="#ffffff" stroke="#000000" stroke-width="2" d="M427.3618,-180C427.3618,-180 859.7268,-180 859.7268,-180 865.7268,-180 871.7268,-186 871.7268,-192 871.7268,-192 871.7268,-278 871.7268,-278 871.7268,-284 865.7268,-290 859.7268,-290 859.7268,-290 427.3618,-290 427.3618,-290 421.3618,-290 415.3618,-284 415.3618,-278 415.3618,-278 415.3618,-192 415.3618,-192 415.3618,-186 421.3618,-180 427.3618,-180"/>
<text text-anchor="middle" x="643.5443" y="-278.8" font-family="Helvetica,sans-Serif" font-weight="bold" font-size="9.00" fill="#000000">gen&#45;national&#45;id</text>
</g>
<g id="clust7" class="cluster">
<title>cluster_lib/gen&#45;dinamic&#45;data/gen&#45;national&#45;id/it.national&#45;id</title>
<path fill="#ffffff" stroke="#000000" stroke-width="2" d="M561.6555,-188C561.6555,-188 851.7268,-188 851.7268,-188 857.7268,-188 863.7268,-194 863.7268,-200 863.7268,-200 863.7268,-227 863.7268,-227 863.7268,-233 857.7268,-239 851.7268,-239 851.7268,-239 561.6555,-239 561.6555,-239 555.6555,-239 549.6555,-233 549.6555,-227 549.6555,-227 549.6555,-200 549.6555,-200 549.6555,-194 555.6555,-188 561.6555,-188"/>
<text text-anchor="middle" x="706.6912" y="-227.8" font-family="Helvetica,sans-Serif" font-weight="bold" font-size="9.00" fill="#000000">it.national&#45;id</text>
</g>
<g id="clust8" class="cluster">
<title>cluster_lib/get&#45;static&#45;data</title>
<path fill="#ffffff" stroke="#000000" stroke-width="2" d="M303.574,-594C303.574,-594 511.1304,-594 511.1304,-594 517.1304,-594 523.1304,-600 523.1304,-606 523.1304,-606 523.1304,-720 523.1304,-720 523.1304,-726 517.1304,-732 511.1304,-732 511.1304,-732 303.574,-732 303.574,-732 297.574,-732 291.574,-726 291.574,-720 291.574,-720 291.574,-606 291.574,-606 291.574,-600 297.574,-594 303.574,-594"/>
<text text-anchor="middle" x="407.3522" y="-720.8" font-family="Helvetica,sans-Serif" font-weight="bold" font-size="9.00" fill="#000000">get&#45;static&#45;data</text>
</g>
<g id="clust9" class="cluster">
<title>cluster_lib/profile</title>
<path fill="#ffffff" stroke="#000000" stroke-width="2" d="M90,-54C90,-54 360.3315,-54 360.3315,-54 366.3315,-54 372.3315,-60 372.3315,-66 372.3315,-66 372.3315,-152 372.3315,-152 372.3315,-158 366.3315,-164 360.3315,-164 360.3315,-164 90,-164 90,-164 84,-164 78,-158 78,-152 78,-152 78,-66 78,-66 78,-60 84,-54 90,-54"/>
<text text-anchor="middle" x="225.1658" y="-152.8" font-family="Helvetica,sans-Serif" font-weight="bold" font-size="9.00" fill="#000000">profile</text>
</g>
<g id="clust10" class="cluster">
<title>cluster_lib/profile/__tests</title>
<path fill="#ffffff" stroke="#000000" stroke-width="2" d="M189.5308,-62C189.5308,-62 252.5547,-62 252.5547,-62 258.5547,-62 264.5547,-68 264.5547,-74 264.5547,-74 264.5547,-101 264.5547,-101 264.5547,-107 258.5547,-113 252.5547,-113 252.5547,-113 189.5308,-113 189.5308,-113 183.5308,-113 177.5308,-107 177.5308,-101 177.5308,-101 177.5308,-74 177.5308,-74 177.5308,-68 183.5308,-62 189.5308,-62"/>
<text text-anchor="middle" x="221.0427" y="-101.8" font-family="Helvetica,sans-Serif" font-weight="bold" font-size="9.00" fill="#000000">__tests</text>
</g>
<g id="clust11" class="cluster">
<title>cluster_lib/util</title>
<path fill="#ffffff" stroke="#000000" stroke-width="2" d="M658.6726,-594C658.6726,-594 846.9656,-594 846.9656,-594 852.9656,-594 858.9656,-600 858.9656,-606 858.9656,-606 858.9656,-779 858.9656,-779 858.9656,-785 852.9656,-791 846.9656,-791 846.9656,-791 658.6726,-791 658.6726,-791 652.6726,-791 646.6726,-785 646.6726,-779 646.6726,-779 646.6726,-606 646.6726,-606 646.6726,-600 652.6726,-594 658.6726,-594"/>
<text text-anchor="middle" x="752.8191" y="-779.8" font-family="Helvetica,sans-Serif" font-weight="bold" font-size="9.00" fill="#000000">util</text>
</g>
<g id="clust12" class="cluster">
<title>cluster_lib/util/get&#45;random&#45;user</title>
<path fill="#ffffff" stroke="#000000" stroke-width="2" d="M670.1709,-715C670.1709,-715 753.2075,-715 753.2075,-715 759.2075,-715 765.2075,-721 765.2075,-727 765.2075,-727 765.2075,-754 765.2075,-754 765.2075,-760 759.2075,-766 753.2075,-766 753.2075,-766 670.1709,-766 670.1709,-766 664.1709,-766 658.1709,-760 658.1709,-754 658.1709,-754 658.1709,-727 658.1709,-727 658.1709,-721 664.1709,-715 670.1709,-715"/>
<text text-anchor="middle" x="711.6892" y="-754.8" font-family="Helvetica,sans-Serif" font-weight="bold" font-size="9.00" fill="#000000">get&#45;random&#45;user</text>
</g>
<!-- lib/data/__tests/data.spec.js -->
<g id="node1" class="node">
<title>lib/data/__tests/data.spec.js</title>
<g id="a_node1"><a xlink:href="lib/data/__tests/data.spec.js" xlink:title="data.spec.js">
<path fill="#ffffcc" stroke="#000000" d="M738.0504,-103.5C738.0504,-103.5 685.328,-103.5 685.328,-103.5 682.4947,-103.5 679.6614,-100.6667 679.6614,-97.8333 679.6614,-97.8333 679.6614,-92.1667 679.6614,-92.1667 679.6614,-89.3333 682.4947,-86.5 685.328,-86.5 685.328,-86.5 738.0504,-86.5 738.0504,-86.5 740.8837,-86.5 743.717,-89.3333 743.717,-92.1667 743.717,-92.1667 743.717,-97.8333 743.717,-97.8333 743.717,-100.6667 740.8837,-103.5 738.0504,-103.5"/>
<text text-anchor="middle" x="711.6892" y="-92.3" font-family="Helvetica,sans-Serif" font-size="9.00" fill="#000000">data.spec.js</text>
</a>
</g>
</g>
<!-- lib/data/country&#45;list.js -->
<g id="node3" class="node">
<title>lib/data/country&#45;list.js</title>
<g id="a_node3"><a xlink:href="lib/data/country-list.js" xlink:title="country&#45;list.js">
<path fill="#ffffcc" stroke="#000000" d="M852.3109,-51.5C852.3109,-51.5 795.6203,-51.5 795.6203,-51.5 792.7869,-51.5 789.9536,-48.6667 789.9536,-45.8333 789.9536,-45.8333 789.9536,-40.1667 789.9536,-40.1667 789.9536,-37.3333 792.7869,-34.5 795.6203,-34.5 795.6203,-34.5 852.3109,-34.5 852.3109,-34.5 855.1442,-34.5 857.9776,-37.3333 857.9776,-40.1667 857.9776,-40.1667 857.9776,-45.8333 857.9776,-45.8333 857.9776,-48.6667 855.1442,-51.5 852.3109,-51.5"/>
<text text-anchor="middle" x="823.9656" y="-40.3" font-family="Helvetica,sans-Serif" font-size="9.00" fill="#000000">country&#45;list.js</text>
</a>
</g>
</g>
<!-- lib/data/__tests/data.spec.js&#45;&gt;lib/data/country&#45;list.js -->
<g id="edge1" class="edge">
<title>lib/data/__tests/data.spec.js&#45;&gt;lib/data/country&#45;list.js</title>
<path fill="none" stroke="#000000" stroke-width="2" stroke-opacity="0.466667" d="M743.9656,-93.2334C752.6629,-91.4827 761.6158,-88.3826 768.7058,-83 778.6805,-75.4273 772.259,-66.2218 781.7058,-58 782.1646,-57.6007 782.6348,-57.2118 783.1151,-56.833"/>
<polygon fill="#000000" fill-opacity="0.466667" stroke="#000000" stroke-width="2" stroke-opacity="0.466667" points="784.9753,-59.7979 791.6163,-51.5426 781.2768,-53.8547 784.9753,-59.7979"/>
</g>
<!-- lib/data/mccs&#45;available.js -->
<g id="node5" class="node">
<title>lib/data/mccs&#45;available.js</title>
<g id="a_node5"><a xlink:href="lib/data/mccs-available.js" xlink:title="mccs&#45;available.js">
<path fill="#ffffcc" stroke="#000000" d="M860.3198,-125.5C860.3198,-125.5 787.6114,-125.5 787.6114,-125.5 784.778,-125.5 781.9447,-122.6667 781.9447,-119.8333 781.9447,-119.8333 781.9447,-114.1667 781.9447,-114.1667 781.9447,-111.3333 784.778,-108.5 787.6114,-108.5 787.6114,-108.5 860.3198,-108.5 860.3198,-108.5 863.1531,-108.5 865.9865,-111.3333 865.9865,-114.1667 865.9865,-114.1667 865.9865,-119.8333 865.9865,-119.8333 865.9865,-122.6667 863.1531,-125.5 860.3198,-125.5"/>
<text text-anchor="middle" x="823.9656" y="-114.3" font-family="Helvetica,sans-Serif" font-size="9.00" fill="#000000">mccs&#45;available.js</text>
</a>
</g>
</g>
<!-- lib/data/__tests/data.spec.js&#45;&gt;lib/data/mccs&#45;available.js -->
<g id="edge2" class="edge">
<title>lib/data/__tests/data.spec.js&#45;&gt;lib/data/mccs&#45;available.js</title>
<path fill="none" stroke="#000000" stroke-width="2" stroke-opacity="0.466667" d="M743.8631,-101.3043C752.6161,-103.0194 762.326,-104.922 771.8787,-106.7938"/>
<polygon fill="#000000" fill-opacity="0.466667" stroke="#000000" stroke-width="2" stroke-opacity="0.466667" points="771.2435,-110.2358 781.7299,-108.7241 772.5896,-103.3665 771.2435,-110.2358"/>
</g>
<!-- lib/data/names&#45;list.js -->
<g id="node6" class="node">
<title>lib/data/names&#45;list.js</title>
<g id="a_node6"><a xlink:href="lib/data/names-list.js" xlink:title="names&#45;list.js">
<path fill="#ffffcc" stroke="#000000" d="M851.3087,-80.5C851.3087,-80.5 796.6225,-80.5 796.6225,-80.5 793.7891,-80.5 790.9558,-77.6667 790.9558,-74.8333 790.9558,-74.8333 790.9558,-69.1667 790.9558,-69.1667 790.9558,-66.3333 793.7891,-63.5 796.6225,-63.5 796.6225,-63.5 851.3087,-63.5 851.3087,-63.5 854.142,-63.5 856.9753,-66.3333 856.9753,-69.1667 856.9753,-69.1667 856.9753,-74.8333 856.9753,-74.8333 856.9753,-77.6667 854.142,-80.5 851.3087,-80.5"/>
<text text-anchor="middle" x="823.9656" y="-69.3" font-family="Helvetica,sans-Serif" font-size="9.00" fill="#000000">names&#45;list.js</text>
</a>
</g>
</g>
<!-- lib/data/__tests/data.spec.js&#45;&gt;lib/data/names&#45;list.js -->
<g id="edge3" class="edge">
<title>lib/data/__tests/data.spec.js&#45;&gt;lib/data/names&#45;list.js</title>
<path fill="none" stroke="#000000" stroke-width="2" stroke-opacity="0.466667" d="M743.8631,-88.4091C755.3043,-86.0654 768.3804,-83.3867 780.6032,-80.8829"/>
<polygon fill="#000000" fill-opacity="0.466667" stroke="#000000" stroke-width="2" stroke-opacity="0.466667" points="781.5208,-84.2676 790.615,-78.8319 780.116,-77.41 781.5208,-84.2676"/>
</g>
<!-- lib/data/countries&#45;available.js -->
<g id="node2" class="node">
<title>lib/data/countries&#45;available.js</title>
<g id="a_node2"><a xlink:href="lib/data/countries-available.js" xlink:title="countries&#45;available.js">
<path fill="#ffffcc" stroke="#000000" d="M756.0636,-55.5C756.0636,-55.5 667.3149,-55.5 667.3149,-55.5 664.4815,-55.5 661.6482,-52.6667 661.6482,-49.8333 661.6482,-49.8333 661.6482,-44.1667 661.6482,-44.1667 661.6482,-41.3333 664.4815,-38.5 667.3149,-38.5 667.3149,-38.5 756.0636,-38.5 756.0636,-38.5 758.8969,-38.5 761.7302,-41.3333 761.7302,-44.1667 761.7302,-44.1667 761.7302,-49.8333 761.7302,-49.8333 761.7302,-52.6667 758.8969,-55.5 756.0636,-55.5"/>
<text text-anchor="middle" x="711.6892" y="-44.3" font-family="Helvetica,sans-Serif" font-size="9.00" fill="#000000">countries&#45;available.js</text>
</a>
</g>
</g>
<!-- lib/data/countries&#45;available.js&#45;&gt;lib/data/country&#45;list.js -->
<g id="edge4" class="edge">
<title>lib/data/countries&#45;available.js&#45;&gt;lib/data/country&#45;list.js</title>
<path fill="none" stroke="#000000" stroke-width="2" stroke-opacity="0.466667" d="M761.9163,-45.2106C767.828,-45 773.8281,-44.7862 779.6505,-44.5788"/>
<polygon fill="#000000" fill-opacity="0.466667" stroke="#000000" stroke-width="2" stroke-opacity="0.466667" points="780.0123,-48.0682 789.8813,-44.2143 779.763,-41.0727 780.0123,-48.0682"/>
</g>
<!-- lib/data/countries&#45;available.js&#45;&gt;lib/data/names&#45;list.js -->
<g id="edge5" class="edge">
<title>lib/data/countries&#45;available.js&#45;&gt;lib/data/names&#45;list.js</title>
<path fill="none" stroke="#000000" stroke-width="2" stroke-opacity="0.466667" d="M750.0143,-55.5337C759.9245,-57.7403 770.6609,-60.1309 780.8,-62.3885"/>
<polygon fill="#000000" fill-opacity="0.466667" stroke="#000000" stroke-width="2" stroke-opacity="0.466667" points="780.1656,-65.8329 790.6873,-64.5901 781.6871,-59.0003 780.1656,-65.8329"/>
</g>
<!-- lib/data/index.js -->
<g id="node4" class="node">
<title>lib/data/index.js</title>
<g id="a_node4"><a xlink:href="lib/data/index.js" xlink:title="index.js">
<path fill="#ffffcc" stroke="#000000" d="M605.9889,-124.5C605.9889,-124.5 563.3222,-124.5 563.3222,-124.5 560.4889,-124.5 557.6555,-121.6667 557.6555,-118.8333 557.6555,-118.8333 557.6555,-113.1667 557.6555,-113.1667 557.6555,-110.3333 560.4889,-107.5 563.3222,-107.5 563.3222,-107.5 605.9889,-107.5 605.9889,-107.5 608.8222,-107.5 611.6555,-110.3333 611.6555,-113.1667 611.6555,-113.1667 611.6555,-118.8333 611.6555,-118.8333 611.6555,-121.6667 608.8222,-124.5 605.9889,-124.5"/>
<text text-anchor="middle" x="584.6555" y="-113.3" font-family="Helvetica,sans-Serif" font-size="9.00" fill="#000000">index.js</text>
</a>
</g>
</g>
<!-- lib/data/index.js&#45;&gt;lib/data/countries&#45;available.js -->
<g id="edge6" class="edge">
<title>lib/data/index.js&#45;&gt;lib/data/countries&#45;available.js</title>
<path fill="none" stroke="#000000" stroke-width="2" stroke-opacity="0.466667" d="M592.661,-107.4852C603.7528,-96.1749 624.9013,-76.311 646.6726,-65 651.2326,-62.6309 656.1394,-60.5451 661.14,-58.7152"/>
<polygon fill="#000000" fill-opacity="0.466667" stroke="#000000" stroke-width="2" stroke-opacity="0.466667" points="662.4192,-61.9784 670.8058,-55.5041 660.2123,-55.3353 662.4192,-61.9784"/>
</g>
<!-- lib/data/index.js&#45;&gt;lib/data/country&#45;list.js -->
<g id="edge7" class="edge">
<title>lib/data/index.js&#45;&gt;lib/data/country&#45;list.js</title>
<path fill="none" stroke="#000000" stroke-width="2" stroke-opacity="0.466667" d="M587.9712,-107.3361C595.3445,-89.4687 614.9918,-48.876 646.6726,-33 692.2724,-10.1488 752.9818,-21.0104 790.2255,-31.5538"/>
<polygon fill="#000000" fill-opacity="0.466667" stroke="#000000" stroke-width="2" stroke-opacity="0.466667" points="789.4927,-34.9875 800.0758,-34.4908 791.4929,-28.2793 789.4927,-34.9875"/>
</g>
<!-- lib/data/index.js&#45;&gt;lib/data/mccs&#45;available.js -->
<g id="edge8" class="edge">
<title>lib/data/index.js&#45;&gt;lib/data/mccs&#45;available.js</title>
<path fill="none" stroke="#000000" stroke-width="2" stroke-opacity="0.466667" d="M611.5365,-124.5137C622.3374,-127.5177 634.9798,-130.516 646.6726,-132 700.478,-138.8289 714.9444,-139.167 768.7058,-132 775.1076,-131.1466 781.8192,-129.7602 788.2709,-128.1664"/>
<polygon fill="#000000" fill-opacity="0.466667" stroke="#000000" stroke-width="2" stroke-opacity="0.466667" points="789.3553,-131.4995 798.1137,-125.5378 787.5492,-124.7366 789.3553,-131.4995"/>
</g>
<!-- lib/data/index.js&#45;&gt;lib/data/names&#45;list.js -->
<g id="edge9" class="edge">
<title>lib/data/index.js&#45;&gt;lib/data/names&#45;list.js</title>
<path fill="none" stroke="#000000" stroke-width="2" stroke-opacity="0.466667" d="M593.854,-107.4268C605.2429,-97.4443 625.7141,-81.4955 646.6726,-75 690.6975,-61.3559 743.869,-62.645 780.4299,-66.067"/>
<polygon fill="#000000" fill-opacity="0.466667" stroke="#000000" stroke-width="2" stroke-opacity="0.466667" points="780.4404,-69.5866 790.7466,-67.1305 781.1582,-62.6235 780.4404,-69.5866"/>
</g>
<!-- lib/gen&#45;dinamic&#45;data/gen&#45;address/br.address.js -->
<g id="node7" class="node">
<title>lib/gen&#45;dinamic&#45;data/gen&#45;address/br.address.js</title>
<g id="a_node7"><a xlink:href="lib/gen-dinamic-data/gen-address/br.address.js" xlink:title="br.address.js">
<path fill="#ffffcc" stroke="#000000" d="M612.5182,-407.5C612.5182,-407.5 556.7929,-407.5 556.7929,-407.5 553.9595,-407.5 551.1262,-404.6667 551.1262,-401.8333 551.1262,-401.8333 551.1262,-396.1667 551.1262,-396.1667 551.1262,-393.3333 553.9595,-390.5 556.7929,-390.5 556.7929,-390.5 612.5182,-390.5 612.5182,-390.5 615.3515,-390.5 618.1848,-393.3333 618.1848,-396.1667 618.1848,-396.1667 618.1848,-401.8333 618.1848,-401.8333 618.1848,-404.6667 615.3515,-407.5 612.5182,-407.5"/>
<text text-anchor="middle" x="584.6555" y="-396.3" font-family="Helvetica,sans-Serif" font-size="9.00" fill="#000000">br.address.js</text>
</a>
</g>
</g>
<!-- lib/util/random&#45;array&#45;element.js -->
<g id="node42" class="node">
<title>lib/util/random&#45;array&#45;element.js</title>
<g id="a_node42"><a xlink:href="lib/util/random-array-element.js" xlink:title="random&#45;array&#45;element.js">
<path fill="#ffffcc" stroke="#000000" d="M763.0558,-619.5C763.0558,-619.5 660.3227,-619.5 660.3227,-619.5 657.4893,-619.5 654.656,-616.6667 654.656,-613.8333 654.656,-613.8333 654.656,-608.1667 654.656,-608.1667 654.656,-605.3333 657.4893,-602.5 660.3227,-602.5 660.3227,-602.5 763.0558,-602.5 763.0558,-602.5 765.8891,-602.5 768.7224,-605.3333 768.7224,-608.1667 768.7224,-608.1667 768.7224,-613.8333 768.7224,-613.8333 768.7224,-616.6667 765.8891,-619.5 763.0558,-619.5"/>
<text text-anchor="middle" x="711.6892" y="-608.3" font-family="Helvetica,sans-Serif" font-size="9.00" fill="#000000">random&#45;array&#45;element.js</text>
</a>
</g>
</g>
<!-- lib/gen&#45;dinamic&#45;data/gen&#45;address/br.address.js&#45;&gt;lib/util/random&#45;array&#45;element.js -->
<g id="edge10" class="edge">
<title>lib/gen&#45;dinamic&#45;data/gen&#45;address/br.address.js&#45;&gt;lib/util/random&#45;array&#45;element.js</title>
<path fill="none" stroke="#000000" stroke-width="2" stroke-opacity="0.466667" d="M618.2973,-403.1336C625.701,-405.376 633.012,-408.7964 638.6726,-414 691.4806,-462.5446 706.2437,-552.7588 710.2505,-591.9755"/>
<polygon fill="#000000" fill-opacity="0.466667" stroke="#000000" stroke-width="2" stroke-opacity="0.466667" points="706.806,-592.7561 711.1789,-602.4064 713.7785,-592.1354 706.806,-592.7561"/>
</g>
<!-- lib/util/random&#45;number.js -->
<g id="node43" class="node">
<title>lib/util/random&#45;number.js</title>
<g id="a_node43"><a xlink:href="lib/util/random-number.js" xlink:title="random&#45;number.js">
<path fill="#ffffcc" stroke="#000000" d="M750.0599,-648.5C750.0599,-648.5 673.3185,-648.5 673.3185,-648.5 670.4852,-648.5 667.6519,-645.6667 667.6519,-642.8333 667.6519,-642.8333 667.6519,-637.1667 667.6519,-637.1667 667.6519,-634.3333 670.4852,-631.5 673.3185,-631.5 673.3185,-631.5 750.0599,-631.5 750.0599,-631.5 752.8932,-631.5 755.7266,-634.3333 755.7266,-637.1667 755.7266,-637.1667 755.7266,-642.8333 755.7266,-642.8333 755.7266,-645.6667 752.8932,-648.5 750.0599,-648.5"/>
<text text-anchor="middle" x="711.6892" y="-637.3" font-family="Helvetica,sans-Serif" font-size="9.00" fill="#000000">random&#45;number.js</text>
</a>
</g>
</g>
<!-- lib/gen&#45;dinamic&#45;data/gen&#45;address/br.address.js&#45;&gt;lib/util/random&#45;number.js -->
<g id="edge11" class="edge">
<title>lib/gen&#45;dinamic&#45;data/gen&#45;address/br.address.js&#45;&gt;lib/util/random&#45;number.js</title>
<path fill="none" stroke="#000000" stroke-width="2" stroke-opacity="0.466667" d="M618.1766,-401.5285C626.0448,-403.766 633.6032,-407.5858 638.6726,-414 653.289,-432.4937 631.5192,-607.9438 646.6726,-626 649.8457,-629.781 653.7722,-632.6896 658.1118,-634.9117"/>
<polygon fill="#000000" fill-opacity="0.466667" stroke="#000000" stroke-width="2" stroke-opacity="0.466667" points="656.9027,-638.1969 667.491,-638.5685 659.4454,-631.675 656.9027,-638.1969"/>
</g>
<!-- lib/gen&#45;dinamic&#45;data/gen&#45;address/ch.address.js -->
<g id="node8" class="node">
<title>lib/gen&#45;dinamic&#45;data/gen&#45;address/ch.address.js</title>
<g id="a_node8"><a xlink:href="lib/gen-dinamic-data/gen-address/ch.address.js" xlink:title="ch.address.js">
<path fill="#ffffcc" stroke="#000000" d="M613.5133,-436.5C613.5133,-436.5 555.7978,-436.5 555.7978,-436.5 552.9644,-436.5 550.1311,-433.6667 550.1311,-430.8333 550.1311,-430.8333 550.1311,-425.1667 550.1311,-425.1667 550.1311,-422.3333 552.9644,-419.5 555.7978,-419.5 555.7978,-419.5 613.5133,-419.5 613.5133,-419.5 616.3466,-419.5 619.1799,-422.3333 619.1799,-425.1667 619.1799,-425.1667 619.1799,-430.8333 619.1799,-430.8333 619.1799,-433.6667 616.3466,-436.5 613.5133,-436.5"/>
<text text-anchor="middle" x="584.6555" y="-425.3" font-family="Helvetica,sans-Serif" font-size="9.00" fill="#000000">ch.address.js</text>
</a>
</g>
</g>
<!-- lib/gen&#45;dinamic&#45;data/gen&#45;address/ch.address.js&#45;&gt;lib/util/random&#45;array&#45;element.js -->
<g id="edge12" class="edge">
<title>lib/gen&#45;dinamic&#45;data/gen&#45;address/ch.address.js&#45;&gt;lib/util/random&#45;array&#45;element.js</title>
<path fill="none" stroke="#000000" stroke-width="2" stroke-opacity="0.466667" d="M619.1869,-431.3119C626.2164,-433.289 633.1425,-436.336 638.6726,-441 685.882,-480.8158 703.3649,-556.715 709.1439,-592.0393"/>
<polygon fill="#000000" fill-opacity="0.466667" stroke="#000000" stroke-width="2" stroke-opacity="0.466667" points="705.7451,-592.9778 710.6811,-602.3526 712.6686,-591.9458 705.7451,-592.9778"/>
</g>
<!-- lib/gen&#45;dinamic&#45;data/gen&#45;address/ch.address.js&#45;&gt;lib/util/random&#45;number.js -->
<g id="edge13" class="edge">
<title>lib/gen&#45;dinamic&#45;data/gen&#45;address/ch.address.js&#45;&gt;lib/util/random&#45;number.js</title>
<path fill="none" stroke="#000000" stroke-width="2" stroke-opacity="0.466667" d="M619.1884,-429.5385C626.6525,-431.54 633.7671,-435.0433 638.6726,-441 651.7521,-456.8823 633.4029,-610.2763 646.6726,-626 649.8561,-629.7722 653.7895,-632.675 658.1335,-634.8935"/>
<polygon fill="#000000" fill-opacity="0.466667" stroke="#000000" stroke-width="2" stroke-opacity="0.466667" points="656.9295,-638.1807 667.5181,-638.5456 659.4682,-631.6572 656.9295,-638.1807"/>
</g>
<!-- lib/gen&#45;dinamic&#45;data/gen&#45;address/cl.address.js -->
<g id="node9" class="node">
<title>lib/gen&#45;dinamic&#45;data/gen&#45;address/cl.address.js</title>
<g id="a_node9"><a xlink:href="lib/gen-dinamic-data/gen-address/cl.address.js" xlink:title="cl.address.js">
<path fill="#ffffcc" stroke="#000000" d="M612.0074,-378.5C612.0074,-378.5 557.3036,-378.5 557.3036,-378.5 554.4703,-378.5 551.637,-375.6667 551.637,-372.8333 551.637,-372.8333 551.637,-367.1667 551.637,-367.1667 551.637,-364.3333 554.4703,-361.5 557.3036,-361.5 557.3036,-361.5 612.0074,-361.5 612.0074,-361.5 614.8407,-361.5 617.6741,-364.3333 617.6741,-367.1667 617.6741,-367.1667 617.6741,-372.8333 617.6741,-372.8333 617.6741,-375.6667 614.8407,-378.5 612.0074,-378.5"/>
<text text-anchor="middle" x="584.6555" y="-367.3" font-family="Helvetica,sans-Serif" font-size="9.00" fill="#000000">cl.address.js</text>
</a>
</g>
</g>
<!-- lib/gen&#45;dinamic&#45;data/gen&#45;address/cl.address.js&#45;&gt;lib/util/random&#45;array&#45;element.js -->
<g id="edge14" class="edge">
<title>lib/gen&#45;dinamic&#45;data/gen&#45;address/cl.address.js&#45;&gt;lib/util/random&#45;array&#45;element.js</title>
<path fill="none" stroke="#000000" stroke-width="2" stroke-opacity="0.466667" d="M617.8954,-373.7946C625.4864,-376.0371 632.9832,-379.5427 638.6726,-385 669.3889,-414.4634 698.0496,-543.3846 707.9939,-592.1882"/>
<polygon fill="#000000" fill-opacity="0.466667" stroke="#000000" stroke-width="2" stroke-opacity="0.466667" points="704.6209,-593.1702 710.0161,-602.2885 711.4847,-591.796 704.6209,-593.1702"/>
</g>
<!-- lib/gen&#45;dinamic&#45;data/gen&#45;address/cl.address.js&#45;&gt;lib/util/random&#45;number.js -->
<g id="edge15" class="edge">
<title>lib/gen&#45;dinamic&#45;data/gen&#45;address/cl.address.js&#45;&gt;lib/util/random&#45;number.js</title>
<path fill="none" stroke="#000000" stroke-width="2" stroke-opacity="0.466667" d="M617.9152,-372.4337C625.8842,-374.6599 633.5576,-378.4979 638.6726,-385 655.238,-406.0577 629.4956,-605.4381 646.6726,-626 649.8372,-629.7882 653.7579,-632.7016 658.094,-634.9267"/>
<polygon fill="#000000" fill-opacity="0.466667" stroke="#000000" stroke-width="2" stroke-opacity="0.466667" points="656.8804,-638.2102 667.4686,-638.5872 659.4266,-631.6896 656.8804,-638.2102"/>
</g>
<!-- lib/gen&#45;dinamic&#45;data/gen&#45;address/es.region&#45;names.js -->
<g id="node10" class="node">
<title>lib/gen&#45;dinamic&#45;data/gen&#45;address/es.region&#45;names.js</title>
<g id="a_node10"><a xlink:href="lib/gen-dinamic-data/gen-address/es.region-names.js" xlink:title="es.region&#45;names.js">
<path fill="#ffffcc" stroke="#000000" d="M625.023,-349.5C625.023,-349.5 544.288,-349.5 544.288,-349.5 541.4547,-349.5 538.6213,-346.6667 538.6213,-343.8333 538.6213,-343.8333 538.6213,-338.1667 538.6213,-338.1667 538.6213,-335.3333 541.4547,-332.5 544.288,-332.5 544.288,-332.5 625.023,-332.5 625.023,-332.5 627.8564,-332.5 630.6897,-335.3333 630.6897,-338.1667 630.6897,-338.1667 630.6897,-343.8333 630.6897,-343.8333 630.6897,-346.6667 627.8564,-349.5 625.023,-349.5"/>
<text text-anchor="middle" x="584.6555" y="-338.3" font-family="Helvetica,sans-Serif" font-size="9.00" fill="#000000">es.region&#45;names.js</text>
</a>
</g>
</g>
<!-- lib/gen&#45;dinamic&#45;data/gen&#45;address/es.region&#45;names.js&#45;&gt;lib/util/random&#45;array&#45;element.js -->
<g id="edge16" class="edge">
<title>lib/gen&#45;dinamic&#45;data/gen&#45;address/es.region&#45;names.js&#45;&gt;lib/util/random&#45;array&#45;element.js</title>
<path fill="none" stroke="#000000" stroke-width="2" stroke-opacity="0.466667" d="M630.0007,-349.5824C633.1701,-351.3474 636.116,-353.4638 638.6726,-356 672.9374,-389.9914 700.0442,-539.2877 708.7416,-592.2695"/>
<polygon fill="#000000" fill-opacity="0.466667" stroke="#000000" stroke-width="2" stroke-opacity="0.466667" points="705.3102,-592.9759 710.3544,-602.2929 712.2213,-591.8639 705.3102,-592.9759"/>
</g>
<!-- lib/gen&#45;dinamic&#45;data/gen&#45;address/index.js -->
<g id="node11" class="node">
<title>lib/gen&#45;dinamic&#45;data/gen&#45;address/index.js</title>
<g id="a_node11"><a xlink:href="lib/gen-dinamic-data/gen-address/index.js" xlink:title="index.js">
<path fill="#ffffcc" stroke="#000000" d="M471.6951,-392.5C471.6951,-392.5 429.0285,-392.5 429.0285,-392.5 426.1951,-392.5 423.3618,-389.6667 423.3618,-386.8333 423.3618,-386.8333 423.3618,-381.1667 423.3618,-381.1667 423.3618,-378.3333 426.1951,-375.5 429.0285,-375.5 429.0285,-375.5 471.6951,-375.5 471.6951,-375.5 474.5285,-375.5 477.3618,-378.3333 477.3618,-381.1667 477.3618,-381.1667 477.3618,-386.8333 477.3618,-386.8333 477.3618,-389.6667 474.5285,-392.5 471.6951,-392.5"/>
<text text-anchor="middle" x="450.3618" y="-381.3" font-family="Helvetica,sans-Serif" font-size="9.00" fill="#000000">index.js</text>
</a>
</g>
</g>
<!-- lib/gen&#45;dinamic&#45;data/gen&#45;address/index.js&#45;&gt;lib/gen&#45;dinamic&#45;data/gen&#45;address/br.address.js -->
<g id="edge18" class="edge">
<title>lib/gen&#45;dinamic&#45;data/gen&#45;address/index.js&#45;&gt;lib/gen&#45;dinamic&#45;data/gen&#45;address/br.address.js</title>
<path fill="none" stroke="#000000" stroke-width="2" stroke-opacity="0.466667" d="M477.5382,-387.0355C495.6342,-389.0567 519.8198,-391.7581 540.6303,-394.0826"/>
<polygon fill="#000000" fill-opacity="0.466667" stroke="#000000" stroke-width="2" stroke-opacity="0.466667" points="540.5167,-397.5916 550.8434,-395.2233 541.2938,-390.6348 540.5167,-397.5916"/>
</g>
<!-- lib/gen&#45;dinamic&#45;data/gen&#45;address/index.js&#45;&gt;lib/gen&#45;dinamic&#45;data/gen&#45;address/ch.address.js -->
<g id="edge19" class="edge">
<title>lib/gen&#45;dinamic&#45;data/gen&#45;address/index.js&#45;&gt;lib/gen&#45;dinamic&#45;data/gen&#45;address/ch.address.js</title>
<path fill="none" stroke="#000000" stroke-width="2" stroke-opacity="0.466667" d="M477.6695,-383.0432C492.4669,-383.8614 510.2955,-387.1643 523.1304,-397 529.7584,-402.0792 524.7083,-408.6629 531.1304,-414 533.9952,-416.3808 537.2204,-418.3616 540.631,-420.0089"/>
<polygon fill="#000000" fill-opacity="0.466667" stroke="#000000" stroke-width="2" stroke-opacity="0.466667" points="539.3833,-423.279 549.9722,-423.6362 541.9173,-416.7537 539.3833,-423.279"/>
</g>
<!-- lib/gen&#45;dinamic&#45;data/gen&#45;address/index.js&#45;&gt;lib/gen&#45;dinamic&#45;data/gen&#45;address/cl.address.js -->
<g id="edge20" class="edge">
<title>lib/gen&#45;dinamic&#45;data/gen&#45;address/index.js&#45;&gt;lib/gen&#45;dinamic&#45;data/gen&#45;address/cl.address.js</title>
<path fill="none" stroke="#000000" stroke-width="2" stroke-opacity="0.466667" d="M477.5382,-381.1669C495.8485,-379.258 520.3937,-376.6992 541.3684,-374.5126"/>
<polygon fill="#000000" fill-opacity="0.466667" stroke="#000000" stroke-width="2" stroke-opacity="0.466667" points="541.7522,-377.9917 551.3353,-373.4736 541.0263,-371.0294 541.7522,-377.9917"/>
</g>
<!-- lib/gen&#45;dinamic&#45;data/gen&#45;address/index.js&#45;&gt;lib/gen&#45;dinamic&#45;data/gen&#45;address/es.region&#45;names.js -->
<g id="edge21" class="edge">
<title>lib/gen&#45;dinamic&#45;data/gen&#45;address/index.js&#45;&gt;lib/gen&#45;dinamic&#45;data/gen&#45;address/es.region&#45;names.js</title>
<path fill="none" stroke="#000000" stroke-width="2" stroke-opacity="0.466667" d="M477.5529,-385.2657C492.3139,-384.6302 510.1449,-381.5736 523.1304,-372 529.5297,-367.2821 524.9996,-361.0619 531.1304,-356 531.6187,-355.5968 532.1172,-355.2044 532.625,-354.8225"/>
<polygon fill="#000000" fill-opacity="0.466667" stroke="#000000" stroke-width="2" stroke-opacity="0.466667" points="534.7357,-357.639 541.5321,-349.5113 531.1506,-351.6267 534.7357,-357.639"/>
</g>
<!-- lib/gen&#45;dinamic&#45;data/map&#45;faker.js -->
<g id="node24" class="node">
<title>lib/gen&#45;dinamic&#45;data/map&#45;faker.js</title>
<g id="a_node24"><a xlink:href="lib/gen-dinamic-data/map-faker.js" xlink:title="map&#45;faker.js">
<path fill="#ffffcc" stroke="#000000" d="M611.5099,-315.5C611.5099,-315.5 557.8012,-315.5 557.8012,-315.5 554.9679,-315.5 552.1345,-312.6667 552.1345,-309.8333 552.1345,-309.8333 552.1345,-304.1667 552.1345,-304.1667 552.1345,-301.3333 554.9679,-298.5 557.8012,-298.5 557.8012,-298.5 611.5099,-298.5 611.5099,-298.5 614.3432,-298.5 617.1765,-301.3333 617.1765,-304.1667 617.1765,-304.1667 617.1765,-309.8333 617.1765,-309.8333 617.1765,-312.6667 614.3432,-315.5 611.5099,-315.5"/>
<text text-anchor="middle" x="584.6555" y="-304.3" font-family="Helvetica,sans-Serif" font-size="9.00" fill="#000000">map&#45;faker.js</text>
</a>
</g>
</g>
<!-- lib/gen&#45;dinamic&#45;data/gen&#45;address/index.js&#45;&gt;lib/gen&#45;dinamic&#45;data/map&#45;faker.js -->
<g id="edge17" class="edge">
<title>lib/gen&#45;dinamic&#45;data/gen&#45;address/index.js&#45;&gt;lib/gen&#45;dinamic&#45;data/map&#45;faker.js</title>
<path fill="none" stroke="#000000" stroke-width="2" stroke-opacity="0.466667" d="M477.3732,-386.7279C492.8247,-386.7259 511.4066,-383.816 523.1304,-372 539.2904,-355.7128 515.7397,-338.0161 531.1304,-321 534.2593,-317.5406 538.1272,-314.8899 542.3412,-312.8655"/>
<polygon fill="#000000" fill-opacity="0.466667" stroke="#000000" stroke-width="2" stroke-opacity="0.466667" points="543.7658,-316.0718 551.9665,-309.3636 541.3725,-309.4936 543.7658,-316.0718"/>
</g>
<!-- lib/gen&#45;dinamic&#45;data/gen&#45;anagrafica.js -->
<g id="node12" class="node">
<title>lib/gen&#45;dinamic&#45;data/gen&#45;anagrafica.js</title>
<g id="a_node12"><a xlink:href="lib/gen-dinamic-data/gen-anagrafica.js" xlink:title="gen&#45;anagrafica.js">
<path fill="#ffffcc" stroke="#000000" d="M487.2376,-487.5C487.2376,-487.5 413.486,-487.5 413.486,-487.5 410.6527,-487.5 407.8193,-484.6667 407.8193,-481.8333 407.8193,-481.8333 407.8193,-476.1667 407.8193,-476.1667 407.8193,-473.3333 410.6527,-470.5 413.486,-470.5 413.486,-470.5 487.2376,-470.5 487.2376,-470.5 490.071,-470.5 492.9043,-473.3333 492.9043,-476.1667 492.9043,-476.1667 492.9043,-481.8333 492.9043,-481.8333 492.9043,-484.6667 490.071,-487.5 487.2376,-487.5"/>
<text text-anchor="middle" x="450.3618" y="-476.3" font-family="Helvetica,sans-Serif" font-size="9.00" fill="#000000">gen&#45;anagrafica.js</text>
</a>
</g>
</g>
<!-- lib/gen&#45;dinamic&#45;data/gen&#45;anagrafica.js&#45;&gt;lib/data/index.js -->
<g id="edge22" class="edge">
<title>lib/gen&#45;dinamic&#45;data/gen&#45;anagrafica.js&#45;&gt;lib/data/index.js</title>
<path fill="none" stroke="#000000" stroke-width="2" stroke-opacity="0.466667" d="M493.0116,-480.1014C504.4096,-478.1702 515.6302,-473.8211 523.1304,-465 533.2108,-453.1443 525.8796,-199.6493 531.1304,-185 538.5861,-164.1988 554.902,-144.7175 567.5726,-131.7957"/>
<polygon fill="#000000" fill-opacity="0.466667" stroke="#000000" stroke-width="2" stroke-opacity="0.466667" points="570.1805,-134.1406 574.8789,-124.6445 565.2841,-129.138 570.1805,-134.1406"/>
</g>
<!-- lib/gen&#45;dinamic&#45;data/gen&#45;birthday.js -->
<g id="node13" class="node">
<title>lib/gen&#45;dinamic&#45;data/gen&#45;birthday.js</title>
<g id="a_node13"><a xlink:href="lib/gen-dinamic-data/gen-birthday.js" xlink:title="gen&#45;birthday.js">
<path fill="#ffffcc" stroke="#000000" d="M616.3579,-514.5C616.3579,-514.5 552.9531,-514.5 552.9531,-514.5 550.1198,-514.5 547.2864,-511.6667 547.2864,-508.8333 547.2864,-508.8333 547.2864,-503.1667 547.2864,-503.1667 547.2864,-500.3333 550.1198,-497.5 552.9531,-497.5 552.9531,-497.5 616.3579,-497.5 616.3579,-497.5 619.1913,-497.5 622.0246,-500.3333 622.0246,-503.1667 622.0246,-503.1667 622.0246,-508.8333 622.0246,-508.8333 622.0246,-511.6667 619.1913,-514.5 616.3579,-514.5"/>
<text text-anchor="middle" x="584.6555" y="-503.3" font-family="Helvetica,sans-Serif" font-size="9.00" fill="#000000">gen&#45;birthday.js</text>
</a>
</g>
</g>
<!-- lib/gen&#45;dinamic&#45;data/gen&#45;anagrafica.js&#45;&gt;lib/gen&#45;dinamic&#45;data/gen&#45;birthday.js -->
<g id="edge24" class="edge">
<title>lib/gen&#45;dinamic&#45;data/gen&#45;anagrafica.js&#45;&gt;lib/gen&#45;dinamic&#45;data/gen&#45;birthday.js</title>
<path fill="none" stroke="#000000" stroke-width="2" stroke-opacity="0.466667" d="M492.8532,-487.543C507.0884,-490.405 523.0405,-493.6122 537.6036,-496.5401"/>
<polygon fill="#000000" fill-opacity="0.466667" stroke="#000000" stroke-width="2" stroke-opacity="0.466667" points="536.9318,-499.975 547.4256,-498.5149 538.3117,-493.1124 536.9318,-499.975"/>
</g>
<!-- lib/gen&#45;dinamic&#45;data/gen&#45;anagrafica.js&#45;&gt;lib/util/random&#45;array&#45;element.js -->
<g id="edge23" class="edge">
<title>lib/gen&#45;dinamic&#45;data/gen&#45;anagrafica.js&#45;&gt;lib/util/random&#45;array&#45;element.js</title>
<path fill="none" stroke="#000000" stroke-width="2" stroke-opacity="0.466667" d="M493.2037,-480.1308C504.0682,-482.3401 514.961,-486.4954 523.1304,-494 532.3473,-502.467 522.3612,-512.0701 531.1304,-521 566.2533,-556.7664 594.2144,-531.8413 638.6726,-555 659.5577,-565.8793 680.6001,-582.7968 694.6942,-595.1918"/>
<polygon fill="#000000" fill-opacity="0.466667" stroke="#000000" stroke-width="2" stroke-opacity="0.466667" points="692.7357,-598.1382 702.5082,-602.2306 697.4207,-592.9371 692.7357,-598.1382"/>
</g>
<!-- lib/gen&#45;dinamic&#45;data/gen&#45;company.js -->
<g id="node14" class="node">
<title>lib/gen&#45;dinamic&#45;data/gen&#45;company.js</title>
<g id="a_node14"><a xlink:href="lib/gen-dinamic-data/gen-company.js" xlink:title="gen&#45;company.js">
<path fill="#ffffcc" stroke="#000000" d="M484.0634,-315.5C484.0634,-315.5 416.6602,-315.5 416.6602,-315.5 413.8269,-315.5 410.9935,-312.6667 410.9935,-309.8333 410.9935,-309.8333 410.9935,-304.1667 410.9935,-304.1667 410.9935,-301.3333 413.8269,-298.5 416.6602,-298.5 416.6602,-298.5 484.0634,-298.5 484.0634,-298.5 486.8968,-298.5 489.7301,-301.3333 489.7301,-304.1667 489.7301,-304.1667 489.7301,-309.8333 489.7301,-309.8333 489.7301,-312.6667 486.8968,-315.5 484.0634,-315.5"/>
<text text-anchor="middle" x="450.3618" y="-304.3" font-family="Helvetica,sans-Serif" font-size="9.00" fill="#000000">gen&#45;company.js</text>
</a>
</g>
</g>
<!-- lib/gen&#45;dinamic&#45;data/gen&#45;legal&#45;type&#45;id.js -->
<g id="node15" class="node">
<title>lib/gen&#45;dinamic&#45;data/gen&#45;legal&#45;type&#45;id.js</title>
<g id="a_node15"><a xlink:href="lib/gen-dinamic-data/gen-legal-type-id.js" xlink:title="gen&#45;legal&#45;type&#45;id.js">
<path fill="#ffffcc" stroke="#000000" d="M366.9459,-528.5C366.9459,-528.5 286.2021,-528.5 286.2021,-528.5 283.3687,-528.5 280.5354,-525.6667 280.5354,-522.8333 280.5354,-522.8333 280.5354,-517.1667 280.5354,-517.1667 280.5354,-514.3333 283.3687,-511.5 286.2021,-511.5 286.2021,-511.5 366.9459,-511.5 366.9459,-511.5 369.7792,-511.5 372.6126,-514.3333 372.6126,-517.1667 372.6126,-517.1667 372.6126,-522.8333 372.6126,-522.8333 372.6126,-525.6667 369.7792,-528.5 366.9459,-528.5"/>
<text text-anchor="middle" x="326.574" y="-517.3" font-family="Helvetica,sans-Serif" font-size="9.00" fill="#000000">gen&#45;legal&#45;type&#45;id.js</text>
</a>
</g>
</g>
<!-- lib/gen&#45;dinamic&#45;data/gen&#45;national&#45;id/index.js -->
<g id="node16" class="node">
<title>lib/gen&#45;dinamic&#45;data/gen&#45;national&#45;id/index.js</title>
<g id="a_node16"><a xlink:href="lib/gen-dinamic-data/gen-national-id/index.js" xlink:title="index.js">
<path fill="#ffffcc" stroke="#000000" d="M471.6951,-264.5C471.6951,-264.5 429.0285,-264.5 429.0285,-264.5 426.1951,-264.5 423.3618,-261.6667 423.3618,-258.8333 423.3618,-258.8333 423.3618,-253.1667 423.3618,-253.1667 423.3618,-250.3333 426.1951,-247.5 429.0285,-247.5 429.0285,-247.5 471.6951,-247.5 471.6951,-247.5 474.5285,-247.5 477.3618,-250.3333 477.3618,-253.1667 477.3618,-253.1667 477.3618,-258.8333 477.3618,-258.8333 477.3618,-261.6667 474.5285,-264.5 471.6951,-264.5"/>
<text text-anchor="middle" x="450.3618" y="-253.3" font-family="Helvetica,sans-Serif" font-size="9.00" fill="#000000">index.js</text>
</a>
</g>
</g>
<!-- lib/gen&#45;dinamic&#45;data/gen&#45;national&#45;id/it.national&#45;id/index.js -->
<g id="node19" class="node">
<title>lib/gen&#45;dinamic&#45;data/gen&#45;national&#45;id/it.national&#45;id/index.js</title>
<g id="a_node19"><a xlink:href="lib/gen-dinamic-data/gen-national-id/it.national-id/index.js" xlink:title="index.js">
<path fill="#ffffcc" stroke="#000000" d="M605.9889,-213.5C605.9889,-213.5 563.3222,-213.5 563.3222,-213.5 560.4889,-213.5 557.6555,-210.6667 557.6555,-207.8333 557.6555,-207.8333 557.6555,-202.1667 557.6555,-202.1667 557.6555,-199.3333 560.4889,-196.5 563.3222,-196.5 563.3222,-196.5 605.9889,-196.5 605.9889,-196.5 608.8222,-196.5 611.6555,-199.3333 611.6555,-202.1667 611.6555,-202.1667 611.6555,-207.8333 611.6555,-207.8333 611.6555,-210.6667 608.8222,-213.5 605.9889,-213.5"/>
<text text-anchor="middle" x="584.6555" y="-202.3" font-family="Helvetica,sans-Serif" font-size="9.00" fill="#000000">index.js</text>
</a>
</g>
</g>
<!-- lib/gen&#45;dinamic&#45;data/gen&#45;national&#45;id/index.js&#45;&gt;lib/gen&#45;dinamic&#45;data/gen&#45;national&#45;id/it.national&#45;id/index.js -->
<g id="edge25" class="edge">
<title>lib/gen&#45;dinamic&#45;data/gen&#45;national&#45;id/index.js&#45;&gt;lib/gen&#45;dinamic&#45;data/gen&#45;national&#45;id/it.national&#45;id/index.js</title>
<path fill="none" stroke="#000000" stroke-width="2" stroke-opacity="0.466667" d="M466.0525,-247.4552C482.0425,-239.0279 507.7468,-226.2456 531.1304,-218 536.3723,-216.1516 541.9933,-214.4723 547.5508,-212.9808"/>
<polygon fill="#000000" fill-opacity="0.466667" stroke="#000000" stroke-width="2" stroke-opacity="0.466667" points="548.5481,-216.339 557.3904,-210.5026 546.8384,-209.5509 548.5481,-216.339"/>
</g>
<!-- lib/gen&#45;dinamic&#45;data/gen&#45;national&#45;id/static&#45;nat&#45;ids.js -->
<g id="node20" class="node">
<title>lib/gen&#45;dinamic&#45;data/gen&#45;national&#45;id/static&#45;nat&#45;ids.js</title>
<g id="a_node20"><a xlink:href="lib/gen-dinamic-data/gen-national-id/static-nat-ids.js" xlink:title="static&#45;nat&#45;ids.js">
<path fill="#ffffcc" stroke="#000000" d="M617.005,-264.5C617.005,-264.5 552.3061,-264.5 552.3061,-264.5 549.4727,-264.5 546.6394,-261.6667 546.6394,-258.8333 546.6394,-258.8333 546.6394,-253.1667 546.6394,-253.1667 546.6394,-250.3333 549.4727,-247.5 552.3061,-247.5 552.3061,-247.5 617.005,-247.5 617.005,-247.5 619.8383,-247.5 622.6716,-250.3333 622.6716,-253.1667 622.6716,-253.1667 622.6716,-258.8333 622.6716,-258.8333 622.6716,-261.6667 619.8383,-264.5 617.005,-264.5"/>
<text text-anchor="middle" x="584.6555" y="-253.3" font-family="Helvetica,sans-Serif" font-size="9.00" fill="#000000">static&#45;nat&#45;ids.js</text>
</a>
</g>
</g>
<!-- lib/gen&#45;dinamic&#45;data/gen&#45;national&#45;id/index.js&#45;&gt;lib/gen&#45;dinamic&#45;data/gen&#45;national&#45;id/static&#45;nat&#45;ids.js -->
<g id="edge26" class="edge">
<title>lib/gen&#45;dinamic&#45;data/gen&#45;national&#45;id/index.js&#45;&gt;lib/gen&#45;dinamic&#45;data/gen&#45;national&#45;id/static&#45;nat&#45;ids.js</title>
<path fill="none" stroke="#000000" stroke-width="2" stroke-opacity="0.466667" d="M477.5382,-256C494.442,-256 516.6596,-256 536.4761,-256"/>
<polygon fill="#000000" fill-opacity="0.466667" stroke="#000000" stroke-width="2" stroke-opacity="0.466667" points="536.5792,-259.5001 546.5792,-256 536.5792,-252.5001 536.5792,-259.5001"/>
</g>
<!-- lib/gen&#45;dinamic&#45;data/gen&#45;national&#45;id/it.national&#45;id/CodiceFiscale.js -->
<g id="node17" class="node">
<title>lib/gen&#45;dinamic&#45;data/gen&#45;national&#45;id/it.national&#45;id/CodiceFiscale.js</title>
<g id="a_node17"><a xlink:href="lib/gen-dinamic-data/gen-national-id/it.national-id/CodiceFiscale.js" xlink:title="CodiceFiscale.js">
<path fill="#ffffcc" stroke="#000000" d="M746.5464,-213.5C746.5464,-213.5 676.832,-213.5 676.832,-213.5 673.9987,-213.5 671.1654,-210.6667 671.1654,-207.8333 671.1654,-207.8333 671.1654,-202.1667 671.1654,-202.1667 671.1654,-199.3333 673.9987,-196.5 676.832,-196.5 676.832,-196.5 746.5464,-196.5 746.5464,-196.5 749.3797,-196.5 752.2131,-199.3333 752.2131,-202.1667 752.2131,-202.1667 752.2131,-207.8333 752.2131,-207.8333 752.2131,-210.6667 749.3797,-213.5 746.5464,-213.5"/>
<text text-anchor="middle" x="711.6892" y="-202.3" font-family="Helvetica,sans-Serif" font-size="9.00" fill="#000000">CodiceFiscale.js</text>
</a>
</g>
</g>
<!-- lib/gen&#45;dinamic&#45;data/gen&#45;national&#45;id/it.national&#45;id/constants.js -->
<g id="node18" class="node">
<title>lib/gen&#45;dinamic&#45;data/gen&#45;national&#45;id/it.national&#45;id/constants.js</title>
<g id="a_node18"><a xlink:href="lib/gen-dinamic-data/gen-national-id/it.national-id/constants.js" xlink:title="constants.js">
<path fill="#ffffcc" stroke="#000000" d="M849.8232,-213.5C849.8232,-213.5 798.108,-213.5 798.108,-213.5 795.2747,-213.5 792.4413,-210.6667 792.4413,-207.8333 792.4413,-207.8333 792.4413,-202.1667 792.4413,-202.1667 792.4413,-199.3333 795.2747,-196.5 798.108,-196.5 798.108,-196.5 849.8232,-196.5 849.8232,-196.5 852.6565,-196.5 855.4898,-199.3333 855.4898,-202.1667 855.4898,-202.1667 855.4898,-207.8333 855.4898,-207.8333 855.4898,-210.6667 852.6565,-213.5 849.8232,-213.5"/>
<text text-anchor="middle" x="823.9656" y="-202.3" font-family="Helvetica,sans-Serif" font-size="9.00" fill="#000000">constants.js</text>
</a>
</g>
</g>
<!-- lib/gen&#45;dinamic&#45;data/gen&#45;national&#45;id/it.national&#45;id/CodiceFiscale.js&#45;&gt;lib/gen&#45;dinamic&#45;data/gen&#45;national&#45;id/it.national&#45;id/constants.js -->
<g id="edge27" class="edge">
<title>lib/gen&#45;dinamic&#45;data/gen&#45;national&#45;id/it.national&#45;id/CodiceFiscale.js&#45;&gt;lib/gen&#45;dinamic&#45;data/gen&#45;national&#45;id/it.national&#45;id/constants.js</title>
<path fill="none" stroke="#000000" stroke-width="2" stroke-opacity="0.466667" d="M752.2236,-205C761.9105,-205 772.2708,-205 782.0199,-205"/>
<polygon fill="#000000" fill-opacity="0.466667" stroke="#000000" stroke-width="2" stroke-opacity="0.466667" points="782.2981,-208.5001 792.298,-205 782.298,-201.5001 782.2981,-208.5001"/>
</g>
<!-- lib/gen&#45;dinamic&#45;data/gen&#45;national&#45;id/it.national&#45;id/index.js&#45;&gt;lib/gen&#45;dinamic&#45;data/gen&#45;national&#45;id/it.national&#45;id/CodiceFiscale.js -->
<g id="edge28" class="edge">
<title>lib/gen&#45;dinamic&#45;data/gen&#45;national&#45;id/it.national&#45;id/index.js&#45;&gt;lib/gen&#45;dinamic&#45;data/gen&#45;national&#45;id/it.national&#45;id/CodiceFiscale.js</title>
<path fill="none" stroke="#000000" stroke-width="2" stroke-opacity="0.466667" d="M611.9074,-205C626.1555,-205 644.065,-205 660.7646,-205"/>
<polygon fill="#000000" fill-opacity="0.466667" stroke="#000000" stroke-width="2" stroke-opacity="0.466667" points="660.9626,-208.5001 670.9626,-205 660.9625,-201.5001 660.9626,-208.5001"/>
</g>
<!-- lib/gen&#45;dinamic&#45;data/gen&#45;phone&#45;number.js -->
<g id="node21" class="node">
<title>lib/gen&#45;dinamic&#45;data/gen&#45;phone&#45;number.js</title>
<g id="a_node21"><a xlink:href="lib/gen-dinamic-data/gen-phone-number.js" xlink:title="gen&#45;phone&#45;number.js">
<path fill="#ffffcc" stroke="#000000" d="M495.2557,-516.5C495.2557,-516.5 405.4679,-516.5 405.4679,-516.5 402.6346,-516.5 399.8013,-513.6667 399.8013,-510.8333 399.8013,-510.8333 399.8013,-505.1667 399.8013,-505.1667 399.8013,-502.3333 402.6346,-499.5 405.4679,-499.5 405.4679,-499.5 495.2557,-499.5 495.2557,-499.5 498.089,-499.5 500.9224,-502.3333 500.9224,-505.1667 500.9224,-505.1667 500.9224,-510.8333 500.9224,-510.8333 500.9224,-513.6667 498.089,-516.5 495.2557,-516.5"/>
<text text-anchor="middle" x="450.3618" y="-505.3" font-family="Helvetica,sans-Serif" font-size="9.00" fill="#000000">gen&#45;phone&#45;number.js</text>
</a>
</g>
</g>
<!-- lib/gen&#45;dinamic&#45;data/gen&#45;phone&#45;number.js&#45;&gt;lib/data/index.js -->
<g id="edge29" class="edge">
<title>lib/gen&#45;dinamic&#45;data/gen&#45;phone&#45;number.js&#45;&gt;lib/data/index.js</title>
<path fill="none" stroke="#000000" stroke-width="2" stroke-opacity="0.466667" d="M500.9307,-507.3408C509.4566,-504.9083 517.3893,-500.7705 523.1304,-494 534.2365,-480.9025 525.3579,-201.1731 531.1304,-185 538.5582,-164.1889 554.878,-144.7089 567.5571,-131.7901"/>
<polygon fill="#000000" fill-opacity="0.466667" stroke="#000000" stroke-width="2" stroke-opacity="0.466667" points="570.1656,-134.1346 574.869,-124.641 565.2719,-129.1294 570.1656,-134.1346"/>
</g>
<!-- lib/gen&#45;dinamic&#45;data/gen&#45;phone&#45;number.js&#45;&gt;lib/util/random&#45;number.js -->
<g id="edge30" class="edge">
<title>lib/gen&#45;dinamic&#45;data/gen&#45;phone&#45;number.js&#45;&gt;lib/util/random&#45;number.js</title>
<path fill="none" stroke="#000000" stroke-width="2" stroke-opacity="0.466667" d="M472.1908,-516.5184C486.7372,-522.3123 506.2173,-530.2977 523.1304,-538 526.7481,-539.6475 527.4909,-540.4011 531.1304,-542 577.9625,-562.5745 605.9055,-543.7205 638.6726,-583 651.1249,-597.9271 633.1219,-612.0624 646.6726,-626 649.9298,-629.3502 653.782,-631.9911 657.9596,-634.0632"/>
<polygon fill="#000000" fill-opacity="0.466667" stroke="#000000" stroke-width="2" stroke-opacity="0.466667" points="656.9306,-637.4174 667.5203,-637.7452 659.4464,-630.8851 656.9306,-637.4174"/>
</g>
<!-- lib/gen&#45;dinamic&#45;data/gen&#45;vat.js -->
<g id="node22" class="node">
<title>lib/gen&#45;dinamic&#45;data/gen&#45;vat.js</title>
<g id="a_node22"><a xlink:href="lib/gen-dinamic-data/gen-vat.js" xlink:title="gen&#45;vat.js">
<path fill="#ffffcc" stroke="#000000" d="M472.2142,-560.5C472.2142,-560.5 428.5094,-560.5 428.5094,-560.5 425.6761,-560.5 422.8428,-557.6667 422.8428,-554.8333 422.8428,-554.8333 422.8428,-549.1667 422.8428,-549.1667 422.8428,-546.3333 425.6761,-543.5 428.5094,-543.5 428.5094,-543.5 472.2142,-543.5 472.2142,-543.5 475.0475,-543.5 477.8809,-546.3333 477.8809,-549.1667 477.8809,-549.1667 477.8809,-554.8333 477.8809,-554.8333 477.8809,-557.6667 475.0475,-560.5 472.2142,-560.5"/>
<text text-anchor="middle" x="450.3618" y="-549.3" font-family="Helvetica,sans-Serif" font-size="9.00" fill="#000000">gen&#45;vat.js</text>
</a>
</g>
</g>
<!-- lib/gen&#45;dinamic&#45;data/gen&#45;vat.js&#45;&gt;lib/util/random&#45;number.js -->
<g id="edge31" class="edge">
<title>lib/gen&#45;dinamic&#45;data/gen&#45;vat.js&#45;&gt;lib/util/random&#45;number.js</title>
<path fill="none" stroke="#000000" stroke-width="2" stroke-opacity="0.466667" d="M470.0933,-560.5585C505.1053,-575.4902 580.6354,-606.5604 646.6726,-626 650.262,-627.0566 653.9846,-628.0701 657.749,-629.0344"/>
<polygon fill="#000000" fill-opacity="0.466667" stroke="#000000" stroke-width="2" stroke-opacity="0.466667" points="657.2047,-632.504 667.7487,-631.4679 658.86,-625.7025 657.2047,-632.504"/>
</g>
<!-- lib/gen&#45;dinamic&#45;data/index.js -->
<g id="node23" class="node">
<title>lib/gen&#45;dinamic&#45;data/index.js</title>
<g id="a_node23"><a xlink:href="lib/gen-dinamic-data/index.js" xlink:title="index.js">
<path fill="#ffffcc" stroke="#000000" d="M347.9073,-423.5C347.9073,-423.5 305.2406,-423.5 305.2406,-423.5 302.4073,-423.5 299.574,-420.6667 299.574,-417.8333 299.574,-417.8333 299.574,-412.1667 299.574,-412.1667 299.574,-409.3333 302.4073,-406.5 305.2406,-406.5 305.2406,-406.5 347.9073,-406.5 347.9073,-406.5 350.7406,-406.5 353.574,-409.3333 353.574,-412.1667 353.574,-412.1667 353.574,-417.8333 353.574,-417.8333 353.574,-420.6667 350.7406,-423.5 347.9073,-423.5"/>
<text text-anchor="middle" x="326.574" y="-412.3" font-family="Helvetica,sans-Serif" font-size="9.00" fill="#000000">index.js</text>
</a>
</g>
</g>
<!-- lib/gen&#45;dinamic&#45;data/index.js&#45;&gt;lib/gen&#45;dinamic&#45;data/gen&#45;address/index.js -->
<g id="edge32" class="edge">
<title>lib/gen&#45;dinamic&#45;data/index.js&#45;&gt;lib/gen&#45;dinamic&#45;data/gen&#45;address/index.js</title>
<path fill="none" stroke="#000000" stroke-width="2" stroke-opacity="0.466667" d="M352.5682,-406.4713C362.7984,-403.273 374.6868,-399.7507 385.5933,-397 394.481,-394.7585 404.1321,-392.6495 413.2036,-390.8087"/>
<polygon fill="#000000" fill-opacity="0.466667" stroke="#000000" stroke-width="2" stroke-opacity="0.466667" points="413.9939,-394.2204 423.1277,-388.8517 412.6395,-387.3526 413.9939,-394.2204"/>
</g>
<!-- lib/gen&#45;dinamic&#45;data/index.js&#45;&gt;lib/gen&#45;dinamic&#45;data/gen&#45;anagrafica.js -->
<g id="edge33" class="edge">
<title>lib/gen&#45;dinamic&#45;data/index.js&#45;&gt;lib/gen&#45;dinamic&#45;data/gen&#45;anagrafica.js</title>
<path fill="none" stroke="#000000" stroke-width="2" stroke-opacity="0.466667" d="M334.0514,-423.5359C344.447,-434.8374 364.3925,-454.5524 385.5933,-465 389.4243,-466.8879 393.5063,-468.5227 397.6859,-469.938"/>
<polygon fill="#000000" fill-opacity="0.466667" stroke="#000000" stroke-width="2" stroke-opacity="0.466667" points="396.9611,-473.3736 407.5434,-472.8582 398.9494,-466.6619 396.9611,-473.3736"/>
</g>
<!-- lib/gen&#45;dinamic&#45;data/index.js&#45;&gt;lib/gen&#45;dinamic&#45;data/gen&#45;birthday.js -->
<g id="edge34" class="edge">
<title>lib/gen&#45;dinamic&#45;data/index.js&#45;&gt;lib/gen&#45;dinamic&#45;data/gen&#45;birthday.js</title>
<path fill="none" stroke="#000000" stroke-width="2" stroke-opacity="0.466667" d="M330.6714,-423.6537C342.4111,-448.2689 375.9449,-517.2776 385.5933,-523 411.8812,-538.5914 492.8438,-527.1073 523.1304,-523 531.9702,-521.8012 541.3343,-519.6753 550.0188,-517.324"/>
<polygon fill="#000000" fill-opacity="0.466667" stroke="#000000" stroke-width="2" stroke-opacity="0.466667" points="551.1865,-520.6301 559.8294,-514.5022 549.2515,-513.9029 551.1865,-520.6301"/>
</g>
<!-- lib/gen&#45;dinamic&#45;data/index.js&#45;&gt;lib/gen&#45;dinamic&#45;data/gen&#45;company.js -->
<g id="edge35" class="edge">
<title>lib/gen&#45;dinamic&#45;data/index.js&#45;&gt;lib/gen&#45;dinamic&#45;data/gen&#45;company.js</title>
<path fill="none" stroke="#000000" stroke-width="2" stroke-opacity="0.466667" d="M329.3792,-406.369C335.9485,-387.6042 354.196,-343.0147 385.5933,-321 390.2441,-317.739 395.5103,-315.2151 400.9814,-313.2653"/>
<polygon fill="#000000" fill-opacity="0.466667" stroke="#000000" stroke-width="2" stroke-opacity="0.466667" points="402.35,-316.5115 410.9621,-310.3404 400.3814,-309.794 402.35,-316.5115"/>
</g>
<!-- lib/gen&#45;dinamic&#45;data/index.js&#45;&gt;lib/gen&#45;dinamic&#45;data/gen&#45;national&#45;id/index.js -->
<g id="edge36" class="edge">
<title>lib/gen&#45;dinamic&#45;data/index.js&#45;&gt;lib/gen&#45;dinamic&#45;data/gen&#45;national&#45;id/index.js</title>
<path fill="none" stroke="#000000" stroke-width="2" stroke-opacity="0.466667" d="M327.2876,-406.4658C329.8884,-381.1294 341.189,-305.825 385.5933,-269 393.3247,-262.5882 403.3463,-259.042 413.1864,-257.1511"/>
<polygon fill="#000000" fill-opacity="0.466667" stroke="#000000" stroke-width="2" stroke-opacity="0.466667" points="413.8581,-260.5911 423.2715,-255.729 412.8807,-253.6596 413.8581,-260.5911"/>
</g>
<!-- lib/gen&#45;dinamic&#45;data/index.js&#45;&gt;lib/gen&#45;dinamic&#45;data/gen&#45;phone&#45;number.js -->
<g id="edge37" class="edge">
<title>lib/gen&#45;dinamic&#45;data/index.js&#45;&gt;lib/gen&#45;dinamic&#45;data/gen&#45;phone&#45;number.js</title>
<path fill="none" stroke="#000000" stroke-width="2" stroke-opacity="0.466667" d="M330.4869,-423.7537C338.3656,-440.3085 357.7936,-476.1411 385.5933,-494 387.0905,-494.9618 388.6433,-495.8586 390.2394,-496.6945"/>
<polygon fill="#000000" fill-opacity="0.466667" stroke="#000000" stroke-width="2" stroke-opacity="0.466667" points="389.2047,-500.0615 399.7703,-500.8482 392.0014,-493.6444 389.2047,-500.0615"/>
</g>
<!-- lib/gen&#45;dinamic&#45;data/index.js&#45;&gt;lib/gen&#45;dinamic&#45;data/gen&#45;vat.js -->
<g id="edge38" class="edge">
<title>lib/gen&#45;dinamic&#45;data/index.js&#45;&gt;lib/gen&#45;dinamic&#45;data/gen&#45;vat.js</title>
<path fill="none" stroke="#000000" stroke-width="2" stroke-opacity="0.466667" d="M331.1147,-423.736C339.4852,-439.8931 357.8414,-475.5731 372.5933,-506 378.5789,-518.3458 375.1313,-525.1234 385.5933,-534 393.2549,-540.5006 403.0885,-544.6646 412.7668,-547.3285"/>
<polygon fill="#000000" fill-opacity="0.466667" stroke="#000000" stroke-width="2" stroke-opacity="0.466667" points="412.1705,-550.7823 422.6988,-549.5965 413.729,-543.958 412.1705,-550.7823"/>
</g>
<!-- lib/generate&#45;credentials.js -->
<g id="node25" class="node">
<title>lib/generate&#45;credentials.js</title>
<g id="a_node25"><a xlink:href="lib/generate-credentials.js" xlink:title="generate&#45;credentials.js">
<path fill="#ffffcc" stroke="#000000" d="M632.5392,-744.5C632.5392,-744.5 536.7719,-744.5 536.7719,-744.5 533.9385,-744.5 531.1052,-741.6667 531.1052,-738.8333 531.1052,-738.8333 531.1052,-733.1667 531.1052,-733.1667 531.1052,-730.3333 533.9385,-727.5 536.7719,-727.5 536.7719,-727.5 632.5392,-727.5 632.5392,-727.5 635.3725,-727.5 638.2058,-730.3333 638.2058,-733.1667 638.2058,-733.1667 638.2058,-738.8333 638.2058,-738.8333 638.2058,-741.6667 635.3725,-744.5 632.5392,-744.5"/>
<text text-anchor="middle" x="584.6555" y="-733.3" font-family="Helvetica,sans-Serif" font-size="9.00" fill="#000000">generate&#45;credentials.js</text>
</a>
</g>
</g>
<!-- lib/util/get&#45;my&#45;date.js -->
<g id="node38" class="node">
<title>lib/util/get&#45;my&#45;date.js</title>
<g id="a_node38"><a xlink:href="lib/util/get-my-date.js" xlink:title="get&#45;my&#45;date.js">
<path fill="#ffffcc" stroke="#000000" d="M742.5416,-677.5C742.5416,-677.5 680.8368,-677.5 680.8368,-677.5 678.0035,-677.5 675.1702,-674.6667 675.1702,-671.8333 675.1702,-671.8333 675.1702,-666.1667 675.1702,-666.1667 675.1702,-663.3333 678.0035,-660.5 680.8368,-660.5 680.8368,-660.5 742.5416,-660.5 742.5416,-660.5 745.3749,-660.5 748.2083,-663.3333 748.2083,-666.1667 748.2083,-666.1667 748.2083,-671.8333 748.2083,-671.8333 748.2083,-674.6667 745.3749,-677.5 742.5416,-677.5"/>
<text text-anchor="middle" x="711.6892" y="-666.3" font-family="Helvetica,sans-Serif" font-size="9.00" fill="#000000">get&#45;my&#45;date.js</text>
</a>
</g>
</g>
<!-- lib/generate&#45;credentials.js&#45;&gt;lib/util/get&#45;my&#45;date.js -->
<g id="edge39" class="edge">
<title>lib/generate&#45;credentials.js&#45;&gt;lib/util/get&#45;my&#45;date.js</title>
<path fill="none" stroke="#000000" stroke-width="2" stroke-opacity="0.466667" d="M625.7524,-727.4269C630.5883,-725.021 635.0729,-721.9414 638.6726,-718 649.1414,-706.5374 635.6718,-694.9531 646.6726,-684 651.8648,-678.8303 658.4602,-675.2996 665.4484,-672.9134"/>
<polygon fill="#000000" fill-opacity="0.466667" stroke="#000000" stroke-width="2" stroke-opacity="0.466667" points="666.3717,-676.2896 675.1264,-670.3226 664.5615,-669.5277 666.3717,-676.2896"/>
</g>
<!-- lib/get&#45;static&#45;data/get&#45;static&#45;national&#45;id.js -->
<g id="node26" class="node">
<title>lib/get&#45;static&#45;data/get&#45;static&#45;national&#45;id.js</title>
<g id="a_node26"><a xlink:href="lib/get-static-data/get-static-national-id.js" xlink:title="get&#45;static&#45;national&#45;id.js">
<path fill="#ffffcc" stroke="#000000" d="M497.7347,-619.5C497.7347,-619.5 402.9889,-619.5 402.9889,-619.5 400.1556,-619.5 397.3223,-616.6667 397.3223,-613.8333 397.3223,-613.8333 397.3223,-608.1667 397.3223,-608.1667 397.3223,-605.3333 400.1556,-602.5 402.9889,-602.5 402.9889,-602.5 497.7347,-602.5 497.7347,-602.5 500.568,-602.5 503.4014,-605.3333 503.4014,-608.1667 503.4014,-608.1667 503.4014,-613.8333 503.4014,-613.8333 503.4014,-616.6667 500.568,-619.5 497.7347,-619.5"/>
<text text-anchor="middle" x="450.3618" y="-608.3" font-family="Helvetica,sans-Serif" font-size="9.00" fill="#000000">get&#45;static&#45;national&#45;id.js</text>
</a>
</g>
</g>
<!-- lib/get&#45;static&#45;data/get&#45;static&#45;profile&#45;merchant.js -->
<g id="node27" class="node">
<title>lib/get&#45;static&#45;data/get&#45;static&#45;profile&#45;merchant.js</title>
<g id="a_node27"><a xlink:href="lib/get-static-data/get-static-profile-merchant.js" xlink:title="get&#45;static&#45;profile&#45;merchant.js">
<path fill="#ffffcc" stroke="#000000" d="M509.2331,-648.5C509.2331,-648.5 391.4905,-648.5 391.4905,-648.5 388.6572,-648.5 385.8239,-645.6667 385.8239,-642.8333 385.8239,-642.8333 385.8239,-637.1667 385.8239,-637.1667 385.8239,-634.3333 388.6572,-631.5 391.4905,-631.5 391.4905,-631.5 509.2331,-631.5 509.2331,-631.5 512.0664,-631.5 514.8997,-634.3333 514.8997,-637.1667 514.8997,-637.1667 514.8997,-642.8333 514.8997,-642.8333 514.8997,-645.6667 512.0664,-648.5 509.2331,-648.5"/>
<text text-anchor="middle" x="450.3618" y="-637.3" font-family="Helvetica,sans-Serif" font-size="9.00" fill="#000000">get&#45;static&#45;profile&#45;merchant.js</text>
</a>
</g>
</g>
<!-- lib/get&#45;static&#45;data/get&#45;static&#45;profile&#45;personal.js -->
<g id="node28" class="node">
<title>lib/get&#45;static&#45;data/get&#45;static&#45;profile&#45;personal.js</title>
<g id="a_node28"><a xlink:href="lib/get-static-data/get-static-profile-personal.js" xlink:title="get&#45;static&#45;profile&#45;personal.js">
<path fill="#ffffcc" stroke="#000000" d="M507.7404,-677.5C507.7404,-677.5 392.9832,-677.5 392.9832,-677.5 390.1499,-677.5 387.3166,-674.6667 387.3166,-671.8333 387.3166,-671.8333 387.3166,-666.1667 387.3166,-666.1667 387.3166,-663.3333 390.1499,-660.5 392.9832,-660.5 392.9832,-660.5 507.7404,-660.5 507.7404,-660.5 510.5737,-660.5 513.4071,-663.3333 513.4071,-666.1667 513.4071,-666.1667 513.4071,-671.8333 513.4071,-671.8333 513.4071,-674.6667 510.5737,-677.5 507.7404,-677.5"/>
<text text-anchor="middle" x="450.3618" y="-666.3" font-family="Helvetica,sans-Serif" font-size="9.00" fill="#000000">get&#45;static&#45;profile&#45;personal.js</text>
</a>
</g>
</g>
<!-- lib/get&#45;static&#45;data/get&#45;static&#45;vat&#45;id.js -->
<g id="node29" class="node">
<title>lib/get&#45;static&#45;data/get&#45;static&#45;vat&#45;id.js</title>
<g id="a_node29"><a xlink:href="lib/get-static-data/get-static-vat-id.js" xlink:title="get&#45;static&#45;vat&#45;id.js">
<path fill="#ffffcc" stroke="#000000" d="M487.7155,-706.5C487.7155,-706.5 413.0081,-706.5 413.0081,-706.5 410.1748,-706.5 407.3414,-703.6667 407.3414,-700.8333 407.3414,-700.8333 407.3414,-695.1667 407.3414,-695.1667 407.3414,-692.3333 410.1748,-689.5 413.0081,-689.5 413.0081,-689.5 487.7155,-689.5 487.7155,-689.5 490.5489,-689.5 493.3822,-692.3333 493.3822,-695.1667 493.3822,-695.1667 493.3822,-700.8333 493.3822,-700.8333 493.3822,-703.6667 490.5489,-706.5 487.7155,-706.5"/>
<text text-anchor="middle" x="450.3618" y="-695.3" font-family="Helvetica,sans-Serif" font-size="9.00" fill="#000000">get&#45;static&#45;vat&#45;id.js</text>
</a>
</g>
</g>
<!-- lib/get&#45;static&#45;data/index.js -->
<g id="node30" class="node">
<title>lib/get&#45;static&#45;data/index.js</title>
<g id="a_node30"><a xlink:href="lib/get-static-data/index.js" xlink:title="index.js">
<path fill="#ffffcc" stroke="#000000" d="M347.9073,-648.5C347.9073,-648.5 305.2406,-648.5 305.2406,-648.5 302.4073,-648.5 299.574,-645.6667 299.574,-642.8333 299.574,-642.8333 299.574,-637.1667 299.574,-637.1667 299.574,-634.3333 302.4073,-631.5 305.2406,-631.5 305.2406,-631.5 347.9073,-631.5 347.9073,-631.5 350.7406,-631.5 353.574,-634.3333 353.574,-637.1667 353.574,-637.1667 353.574,-642.8333 353.574,-642.8333 353.574,-645.6667 350.7406,-648.5 347.9073,-648.5"/>
<text text-anchor="middle" x="326.574" y="-637.3" font-family="Helvetica,sans-Serif" font-size="9.00" fill="#000000">index.js</text>
</a>
</g>
</g>
<!-- lib/get&#45;static&#45;data/index.js&#45;&gt;lib/get&#45;static&#45;data/get&#45;static&#45;national&#45;id.js -->
<g id="edge40" class="edge">
<title>lib/get&#45;static&#45;data/index.js&#45;&gt;lib/get&#45;static&#45;data/get&#45;static&#45;national&#45;id.js</title>
<path fill="none" stroke="#000000" stroke-width="2" stroke-opacity="0.466667" d="M353.5978,-633.5578C363.6417,-631.1718 375.1354,-628.4513 385.5933,-626 391.3525,-624.65 397.4016,-623.2394 403.3937,-621.8465"/>
<polygon fill="#000000" fill-opacity="0.466667" stroke="#000000" stroke-width="2" stroke-opacity="0.466667" points="404.413,-625.2031 413.3629,-619.5329 402.8305,-618.3843 404.413,-625.2031"/>
</g>
<!-- lib/get&#45;static&#45;data/index.js&#45;&gt;lib/get&#45;static&#45;data/get&#45;static&#45;profile&#45;merchant.js -->
<g id="edge41" class="edge">
<title>lib/get&#45;static&#45;data/index.js&#45;&gt;lib/get&#45;static&#45;data/get&#45;static&#45;profile&#45;merchant.js</title>
<path fill="none" stroke="#000000" stroke-width="2" stroke-opacity="0.466667" d="M353.7397,-640C360.3708,-640 367.7881,-640 375.486,-640"/>
<polygon fill="#000000" fill-opacity="0.466667" stroke="#000000" stroke-width="2" stroke-opacity="0.466667" points="375.7247,-643.5001 385.7247,-640 375.7246,-636.5001 375.7247,-643.5001"/>
</g>
<!-- lib/get&#45;static&#45;data/index.js&#45;&gt;lib/get&#45;static&#45;data/get&#45;static&#45;profile&#45;personal.js -->
<g id="edge42" class="edge">
<title>lib/get&#45;static&#45;data/index.js&#45;&gt;lib/get&#45;static&#45;data/get&#45;static&#45;profile&#45;personal.js</title>
<path fill="none" stroke="#000000" stroke-width="2" stroke-opacity="0.466667" d="M353.8505,-647.1506C363.8195,-649.7063 375.1987,-652.5565 385.5933,-655 390.2478,-656.0942 395.0982,-657.2021 399.9582,-658.2904"/>
<polygon fill="#000000" fill-opacity="0.466667" stroke="#000000" stroke-width="2" stroke-opacity="0.466667" points="399.3678,-661.7443 409.8877,-660.4862 400.8794,-654.9095 399.3678,-661.7443"/>
</g>
<!-- lib/get&#45;static&#45;data/index.js&#45;&gt;lib/get&#45;static&#45;data/get&#45;static&#45;vat&#45;id.js -->
<g id="edge43" class="edge">
<title>lib/get&#45;static&#45;data/index.js&#45;&gt;lib/get&#45;static&#45;data/get&#45;static&#45;vat&#45;id.js</title>
<path fill="none" stroke="#000000" stroke-width="2" stroke-opacity="0.466667" d="M335.3844,-648.5158C346.2785,-658.5547 365.815,-675.0069 385.5933,-684 389.2586,-685.6666 393.1324,-687.1392 397.0891,-688.4397"/>
<polygon fill="#000000" fill-opacity="0.466667" stroke="#000000" stroke-width="2" stroke-opacity="0.466667" points="396.444,-691.8971 407.0236,-691.3302 398.3996,-685.1758 396.444,-691.8971"/>
</g>
<!-- lib/index.js -->
<g id="node31" class="node">
<title>lib/index.js</title>
<g id="a_node31"><a xlink:href="lib/index.js" xlink:title="index.js">
<path fill="#ffffcc" stroke="#000000" d="M64.3333,-138.5C64.3333,-138.5 21.6667,-138.5 21.6667,-138.5 18.8333,-138.5 16,-135.6667 16,-132.8333 16,-132.8333 16,-127.1667 16,-127.1667 16,-124.3333 18.8333,-121.5 21.6667,-121.5 21.6667,-121.5 64.3333,-121.5 64.3333,-121.5 67.1667,-121.5 70,-124.3333 70,-127.1667 70,-127.1667 70,-132.8333 70,-132.8333 70,-135.6667 67.1667,-138.5 64.3333,-138.5"/>
<text text-anchor="middle" x="43" y="-127.3" font-family="Helvetica,sans-Serif" font-size="9.00" fill="#000000">index.js</text>
</a>
</g>
</g>
<!-- lib/profile/index.js -->
<g id="node35" class="node">
<title>lib/profile/index.js</title>
<g id="a_node35"><a xlink:href="lib/profile/index.js" xlink:title="index.js">
<path fill="#ffffcc" stroke="#000000" d="M149.0987,-138.5C149.0987,-138.5 106.432,-138.5 106.432,-138.5 103.5987,-138.5 100.7654,-135.6667 100.7654,-132.8333 100.7654,-132.8333 100.7654,-127.1667 100.7654,-127.1667 100.7654,-124.3333 103.5987,-121.5 106.432,-121.5 106.432,-121.5 149.0987,-121.5 149.0987,-121.5 151.932,-121.5 154.7654,-124.3333 154.7654,-127.1667 154.7654,-127.1667 154.7654,-132.8333 154.7654,-132.8333 154.7654,-135.6667 151.932,-138.5 149.0987,-138.5"/>
<text text-anchor="middle" x="127.7654" y="-127.3" font-family="Helvetica,sans-Serif" font-size="9.00" fill="#000000">index.js</text>
</a>
</g>
</g>
<!-- lib/index.js&#45;&gt;lib/profile/index.js -->
<g id="edge44" class="edge">
<title>lib/index.js&#45;&gt;lib/profile/index.js</title>
<path fill="none" stroke="#000000" stroke-width="2" stroke-opacity="0.466667" d="M70.2869,-130C76.6391,-130 83.5117,-130 90.2205,-130"/>
<polygon fill="#000000" fill-opacity="0.466667" stroke="#000000" stroke-width="2" stroke-opacity="0.466667" points="90.5297,-133.5001 100.5296,-130 90.5296,-126.5001 90.5297,-133.5001"/>
</g>
<!-- lib/profile/Profile.js -->
<g id="node32" class="node">
<title>lib/profile/Profile.js</title>
<g id="a_node32"><a xlink:href="lib/profile/Profile.js" xlink:title="Profile.js">
<path fill="#ffffcc" stroke="#000000" d="M347.9073,-109.5C347.9073,-109.5 305.2406,-109.5 305.2406,-109.5 302.4073,-109.5 299.574,-106.6667 299.574,-103.8333 299.574,-103.8333 299.574,-98.1667 299.574,-98.1667 299.574,-95.3333 302.4073,-92.5 305.2406,-92.5 305.2406,-92.5 347.9073,-92.5 347.9073,-92.5 350.7406,-92.5 353.574,-95.3333 353.574,-98.1667 353.574,-98.1667 353.574,-103.8333 353.574,-103.8333 353.574,-106.6667 350.7406,-109.5 347.9073,-109.5"/>
<text text-anchor="middle" x="326.574" y="-98.3" font-family="Helvetica,sans-Serif" font-size="9.00" fill="#000000">Profile.js</text>
</a>
</g>
</g>
<!-- lib/profile/Profile.js&#45;&gt;lib/data/index.js -->
<g id="edge45" class="edge">
<title>lib/profile/Profile.js&#45;&gt;lib/data/index.js</title>
<path fill="none" stroke="#000000" stroke-width="2" stroke-opacity="0.466667" d="M353.7054,-102.5769C400.0774,-105.2721 494.6556,-110.7691 547.256,-113.8263"/>
<polygon fill="#000000" fill-opacity="0.466667" stroke="#000000" stroke-width="2" stroke-opacity="0.466667" points="547.3141,-117.3355 557.5003,-114.4217 547.7203,-110.3473 547.3141,-117.3355"/>
</g>
<!-- lib/profile/__tests/profile.spec.js -->
<g id="node33" class="node">
<title>lib/profile/__tests/profile.spec.js</title>
<g id="a_node33"><a xlink:href="lib/profile/__tests/profile.spec.js" xlink:title="profile.spec.js">
<path fill="#ffffcc" stroke="#000000" d="M250.9,-87.5C250.9,-87.5 191.1855,-87.5 191.1855,-87.5 188.3521,-87.5 185.5188,-84.6667 185.5188,-81.8333 185.5188,-81.8333 185.5188,-76.1667 185.5188,-76.1667 185.5188,-73.3333 188.3521,-70.5 191.1855,-70.5 191.1855,-70.5 250.9,-70.5 250.9,-70.5 253.7333,-70.5 256.5667,-73.3333 256.5667,-76.1667 256.5667,-76.1667 256.5667,-81.8333 256.5667,-81.8333 256.5667,-84.6667 253.7333,-87.5 250.9,-87.5"/>
<text text-anchor="middle" x="221.0427" y="-76.3" font-family="Helvetica,sans-Serif" font-size="9.00" fill="#000000">profile.spec.js</text>
</a>
</g>
</g>
<!-- lib/profile/__tests/profile.spec.js&#45;&gt;lib/profile/Profile.js -->
<g id="edge46" class="edge">
<title>lib/profile/__tests/profile.spec.js&#45;&gt;lib/profile/Profile.js</title>
<path fill="none" stroke="#000000" stroke-width="2" stroke-opacity="0.466667" d="M256.7708,-86.4482C267.3743,-88.6587 279.006,-91.0836 289.6818,-93.3091"/>
<polygon fill="#000000" fill-opacity="0.466667" stroke="#000000" stroke-width="2" stroke-opacity="0.466667" points="289.0559,-96.7538 299.5598,-95.3684 290.4845,-89.9011 289.0559,-96.7538"/>
</g>
<!-- lib/profile/get&#45;profile.js -->
<g id="node34" class="node">
<title>lib/profile/get&#45;profile.js</title>
<g id="a_node34"><a xlink:href="lib/profile/get-profile.js" xlink:title="get&#45;profile.js">
<path fill="#ffffcc" stroke="#000000" d="M247.8971,-138.5C247.8971,-138.5 194.1884,-138.5 194.1884,-138.5 191.3551,-138.5 188.5217,-135.6667 188.5217,-132.8333 188.5217,-132.8333 188.5217,-127.1667 188.5217,-127.1667 188.5217,-124.3333 191.3551,-121.5 194.1884,-121.5 194.1884,-121.5 247.8971,-121.5 247.8971,-121.5 250.7304,-121.5 253.5637,-124.3333 253.5637,-127.1667 253.5637,-127.1667 253.5637,-132.8333 253.5637,-132.8333 253.5637,-135.6667 250.7304,-138.5 247.8971,-138.5"/>
<text text-anchor="middle" x="221.0427" y="-127.3" font-family="Helvetica,sans-Serif" font-size="9.00" fill="#000000">get&#45;profile.js</text>
</a>
</g>
</g>
<!-- lib/profile/get&#45;profile.js&#45;&gt;lib/gen&#45;dinamic&#45;data/index.js -->
<g id="edge47" class="edge">
<title>lib/profile/get&#45;profile.js&#45;&gt;lib/gen&#45;dinamic&#45;data/index.js</title>
<path fill="none" stroke="#000000" stroke-width="2" stroke-opacity="0.466667" d="M224.2011,-138.5295C238.7336,-177.7764 299.3345,-341.4364 319.7935,-396.6884"/>
<polygon fill="#000000" fill-opacity="0.466667" stroke="#000000" stroke-width="2" stroke-opacity="0.466667" points="316.5698,-398.062 323.3245,-406.2243 323.1342,-395.6312 316.5698,-398.062"/>
</g>
<!-- lib/profile/get&#45;profile.js&#45;&gt;lib/get&#45;static&#45;data/index.js -->
<g id="edge48" class="edge">
<title>lib/profile/get&#45;profile.js&#45;&gt;lib/get&#45;static&#45;data/index.js</title>
<path fill="none" stroke="#000000" stroke-width="2" stroke-opacity="0.466667" d="M221.2128,-138.7849C222.4229,-195.0889 230.9244,-505.594 272.5547,-589 279.8068,-603.5296 292.9921,-616.1036 304.5202,-625.131"/>
<polygon fill="#000000" fill-opacity="0.466667" stroke="#000000" stroke-width="2" stroke-opacity="0.466667" points="302.7652,-628.1862 312.887,-631.3167 306.9266,-622.5575 302.7652,-628.1862"/>
</g>
<!-- lib/profile/get&#45;profile.js&#45;&gt;lib/profile/Profile.js -->
<g id="edge52" class="edge">
<title>lib/profile/get&#45;profile.js&#45;&gt;lib/profile/Profile.js</title>
<path fill="none" stroke="#000000" stroke-width="2" stroke-opacity="0.466667" d="M252.1348,-121.4559C263.8196,-118.2449 277.2207,-114.5623 289.4033,-111.2145"/>
<polygon fill="#000000" fill-opacity="0.466667" stroke="#000000" stroke-width="2" stroke-opacity="0.466667" points="290.5705,-114.5236 299.2856,-108.4989 288.7156,-107.7738 290.5705,-114.5236"/>
</g>
<!-- lib/profile/mcc&#45;validate.js -->
<g id="node36" class="node">
<title>lib/profile/mcc&#45;validate.js</title>
<g id="a_node36"><a xlink:href="lib/profile/mcc-validate.js" xlink:title="mcc&#45;validate.js">
<path fill="#ffffcc" stroke="#000000" d="M358.424,-138.5C358.424,-138.5 294.724,-138.5 294.724,-138.5 291.8906,-138.5 289.0573,-135.6667 289.0573,-132.8333 289.0573,-132.8333 289.0573,-127.1667 289.0573,-127.1667 289.0573,-124.3333 291.8906,-121.5 294.724,-121.5 294.724,-121.5 358.424,-121.5 358.424,-121.5 361.2573,-121.5 364.0907,-124.3333 364.0907,-127.1667 364.0907,-127.1667 364.0907,-132.8333 364.0907,-132.8333 364.0907,-135.6667 361.2573,-138.5 358.424,-138.5"/>
<text text-anchor="middle" x="326.574" y="-127.3" font-family="Helvetica,sans-Serif" font-size="9.00" fill="#000000">mcc&#45;validate.js</text>
</a>
</g>
</g>
<!-- lib/profile/get&#45;profile.js&#45;&gt;lib/profile/mcc&#45;validate.js -->
<g id="edge53" class="edge">
<title>lib/profile/get&#45;profile.js&#45;&gt;lib/profile/mcc&#45;validate.js</title>
<path fill="none" stroke="#000000" stroke-width="2" stroke-opacity="0.466667" d="M253.5667,-130C261.4889,-130 270.1287,-130 278.6022,-130"/>
<polygon fill="#000000" fill-opacity="0.466667" stroke="#000000" stroke-width="2" stroke-opacity="0.466667" points="278.7961,-133.5001 288.7961,-130 278.7961,-126.5001 278.7961,-133.5001"/>
</g>
<!-- lib/profile/get&#45;profile.js&#45;&gt;lib/util/get&#45;my&#45;date.js -->
<g id="edge49" class="edge">
<title>lib/profile/get&#45;profile.js&#45;&gt;lib/util/get&#45;my&#45;date.js</title>
<path fill="none" stroke="#000000" stroke-width="2" stroke-opacity="0.466667" d="M221.0917,-138.8049C221.5772,-210.2006 226.5548,-692.7503 272.5547,-735 293.0599,-753.8335 499.4468,-749.6373 523.1304,-735 529.8934,-730.8202 525.0528,-724.1257 531.1304,-719 572.1469,-684.4073 594.8256,-697.8167 646.6726,-684 652.6961,-682.3948 659.0601,-680.8016 665.3553,-679.2864"/>
<polygon fill="#000000" fill-opacity="0.466667" stroke="#000000" stroke-width="2" stroke-opacity="0.466667" points="666.2036,-682.6824 675.1322,-676.9789 664.5956,-675.8696 666.2036,-682.6824"/>
</g>
<!-- lib/util/get&#45;random&#45;user.js -->
<g id="node39" class="node">
<title>lib/util/get&#45;random&#45;user.js</title>
<g id="a_node39"><a xlink:href="lib/util/get-random-user.js" xlink:title="get&#45;random&#45;user.js">
<path fill="#ffffcc" stroke="#000000" d="M751.5592,-706.5C751.5592,-706.5 671.8192,-706.5 671.8192,-706.5 668.9859,-706.5 666.1526,-703.6667 666.1526,-700.8333 666.1526,-700.8333 666.1526,-695.1667 666.1526,-695.1667 666.1526,-692.3333 668.9859,-689.5 671.8192,-689.5 671.8192,-689.5 751.5592,-689.5 751.5592,-689.5 754.3925,-689.5 757.2258,-692.3333 757.2258,-695.1667 757.2258,-695.1667 757.2258,-700.8333 757.2258,-700.8333 757.2258,-703.6667 754.3925,-706.5 751.5592,-706.5"/>
<text text-anchor="middle" x="711.6892" y="-695.3" font-family="Helvetica,sans-Serif" font-size="9.00" fill="#000000">get&#45;random&#45;user.js</text>
</a>
</g>
</g>
<!-- lib/profile/get&#45;profile.js&#45;&gt;lib/util/get&#45;random&#45;user.js -->
<g id="edge50" class="edge">
<title>lib/profile/get&#45;profile.js&#45;&gt;lib/util/get&#45;random&#45;user.js</title>
<path fill="none" stroke="#000000" stroke-width="2" stroke-opacity="0.466667" d="M221.0908,-138.9381C221.569,-211.4158 226.4996,-701.3074 272.5547,-745 302.0737,-773.0047 607.2664,-778.8705 638.6726,-753 653.0027,-741.1958 633.6725,-725.2547 646.6726,-712 649.5466,-709.0698 652.8759,-706.6834 656.4789,-704.7463"/>
<polygon fill="#000000" fill-opacity="0.466667" stroke="#000000" stroke-width="2" stroke-opacity="0.466667" points="658.0231,-707.8942 665.8947,-700.8028 655.3189,-701.4376 658.0231,-707.8942"/>
</g>
<!-- lib/util/logger.js -->
<g id="node41" class="node">
<title>lib/util/logger.js</title>
<g id="a_node41"><a xlink:href="lib/util/logger.js" xlink:title="logger.js">
<path fill="#ffffcc" stroke="#000000" d="M845.2989,-735.5C845.2989,-735.5 802.6322,-735.5 802.6322,-735.5 799.7989,-735.5 796.9656,-732.6667 796.9656,-729.8333 796.9656,-729.8333 796.9656,-724.1667 796.9656,-724.1667 796.9656,-721.3333 799.7989,-718.5 802.6322,-718.5 802.6322,-718.5 845.2989,-718.5 845.2989,-718.5 848.1322,-718.5 850.9656,-721.3333 850.9656,-724.1667 850.9656,-724.1667 850.9656,-729.8333 850.9656,-729.8333 850.9656,-732.6667 848.1322,-735.5 845.2989,-735.5"/>
<text text-anchor="middle" x="823.9656" y="-724.3" font-family="Helvetica,sans-Serif" font-size="9.00" fill="#000000">logger.js</text>
</a>
</g>
</g>
<!-- lib/profile/get&#45;profile.js&#45;&gt;lib/util/logger.js -->
<g id="edge51" class="edge">
<title>lib/profile/get&#45;profile.js&#45;&gt;lib/util/logger.js</title>
<path fill="none" stroke="#000000" stroke-width="2" stroke-opacity="0.466667" d="M221.1,-138.6367C221.6606,-210.769 227.1788,-711.5255 272.5547,-758 328.0135,-814.8015 370.9761,-775 450.3618,-775 450.3618,-775 450.3618,-775 584.6555,-775 666.4991,-775 691.5814,-796.3898 768.7058,-769 783.938,-763.5905 798.3795,-752.3184 808.6767,-742.8128"/>
<polygon fill="#000000" fill-opacity="0.466667" stroke="#000000" stroke-width="2" stroke-opacity="0.466667" points="811.2496,-745.193 815.9824,-735.714 806.3714,-740.1727 811.2496,-745.193"/>
</g>
<!-- lib/profile/index.js&#45;&gt;lib/profile/get&#45;profile.js -->
<g id="edge54" class="edge">
<title>lib/profile/index.js&#45;&gt;lib/profile/get&#45;profile.js</title>
<path fill="none" stroke="#000000" stroke-width="2" stroke-opacity="0.466667" d="M155.2472,-130C162.4961,-130 170.4923,-130 178.3389,-130"/>
<polygon fill="#000000" fill-opacity="0.466667" stroke="#000000" stroke-width="2" stroke-opacity="0.466667" points="178.4925,-133.5001 188.4925,-130 178.4925,-126.5001 178.4925,-133.5001"/>
</g>
<!-- lib/profile/mcc&#45;validate.js&#45;&gt;lib/data/index.js -->
<g id="edge55" class="edge">
<title>lib/profile/mcc&#45;validate.js&#45;&gt;lib/data/index.js</title>
<path fill="none" stroke="#000000" stroke-width="2" stroke-opacity="0.466667" d="M364.1012,-127.9643C413.0732,-125.3077 498.2746,-120.6859 547.2074,-118.0314"/>
<polygon fill="#000000" fill-opacity="0.466667" stroke="#000000" stroke-width="2" stroke-opacity="0.466667" points="547.5687,-121.5171 557.3644,-117.4804 547.1895,-114.5273 547.5687,-121.5171"/>
</g>
<!-- lib/profile/profile&#45;validate.js -->
<g id="node37" class="node">
<title>lib/profile/profile&#45;validate.js</title>
<g id="a_node37"><a xlink:href="lib/profile/profile-validate.js" xlink:title="profile&#45;validate.js">
<path fill="#ffffcc" stroke="#000000" d="M163.6308,-94.5C163.6308,-94.5 91.9,-94.5 91.9,-94.5 89.0666,-94.5 86.2333,-91.6667 86.2333,-88.8333 86.2333,-88.8333 86.2333,-83.1667 86.2333,-83.1667 86.2333,-80.3333 89.0666,-77.5 91.9,-77.5 91.9,-77.5 163.6308,-77.5 163.6308,-77.5 166.4641,-77.5 169.2975,-80.3333 169.2975,-83.1667 169.2975,-83.1667 169.2975,-88.8333 169.2975,-88.8333 169.2975,-91.6667 166.4641,-94.5 163.6308,-94.5"/>
<text text-anchor="middle" x="127.7654" y="-83.3" font-family="Helvetica,sans-Serif" font-size="9.00" fill="#000000">profile&#45;validate.js</text>
</a>
</g>
</g>
<!-- lib/util/get&#45;random&#45;user.js&#45;&gt;lib/util/logger.js -->
<g id="edge56" class="edge">
<title>lib/util/get&#45;random&#45;user.js&#45;&gt;lib/util/logger.js</title>
<path fill="none" stroke="#000000" stroke-width="2" stroke-opacity="0.466667" d="M747.0042,-706.5296C754.1934,-708.3058 761.6992,-710.1891 768.7058,-712 774.5633,-713.5139 780.7588,-715.1557 786.8007,-716.7791"/>
<polygon fill="#000000" fill-opacity="0.466667" stroke="#000000" stroke-width="2" stroke-opacity="0.466667" points="786.1696,-720.2342 796.7367,-719.4679 787.9982,-713.4772 786.1696,-720.2342"/>
</g>
<!-- lib/util/get&#45;random&#45;user/get&#45;random&#45;user.js -->
<g id="node40" class="node">
<title>lib/util/get&#45;random&#45;user/get&#45;random&#45;user.js</title>
<g id="a_node40"><a xlink:href="lib/util/get-random-user/get-random-user.js" xlink:title="get&#45;random&#45;user.js">
<path fill="#ffffcc" stroke="#000000" d="M751.5592,-740.5C751.5592,-740.5 671.8192,-740.5 671.8192,-740.5 668.9859,-740.5 666.1526,-737.6667 666.1526,-734.8333 666.1526,-734.8333 666.1526,-729.1667 666.1526,-729.1667 666.1526,-726.3333 668.9859,-723.5 671.8192,-723.5 671.8192,-723.5 751.5592,-723.5 751.5592,-723.5 754.3925,-723.5 757.2258,-726.3333 757.2258,-729.1667 757.2258,-729.1667 757.2258,-734.8333 757.2258,-734.8333 757.2258,-737.6667 754.3925,-740.5 751.5592,-740.5"/>
<text text-anchor="middle" x="711.6892" y="-729.3" font-family="Helvetica,sans-Serif" font-size="9.00" fill="#000000">get&#45;random&#45;user.js</text>
</a>
</g>
</g>
</g>
</svg>
