<?xml version="1.0" encoding="UTF-8" standalone="no"?>
<!DOCTYPE svg PUBLIC "-//W3C//DTD SVG 1.1//EN"
 "http://www.w3.org/Graphics/SVG/1.1/DTD/svg11.dtd">
<!-- Generated by graphviz version 2.40.1 (20161225.0304)
 -->
<!-- Title: dependency&#45;cruiser output Pages: 1 -->
<svg width="904pt" height="887pt"
 viewBox="0.00 0.00 903.73 887.00" xmlns="http://www.w3.org/2000/svg" xmlns:xlink="http://www.w3.org/1999/xlink">
<g id="graph0" class="graph" transform="scale(1 1) rotate(0) translate(4 883)">
<title>dependency&#45;cruiser output</title>
<polygon fill="#ffffff" stroke="transparent" points="-4,4 -4,-883 899.7268,-883 899.7268,4 -4,4"/>
<g id="clust1" class="cluster">
<title>cluster_lib</title>
<path fill="#ffffff" stroke="#000000" stroke-width="2" d="M20,-8C20,-8 875.7268,-8 875.7268,-8 881.7268,-8 887.7268,-14 887.7268,-20 887.7268,-20 887.7268,-859 887.7268,-859 887.7268,-865 881.7268,-871 875.7268,-871 875.7268,-871 20,-871 20,-871 14,-871 8,-865 8,-859 8,-859 8,-20 8,-20 8,-14 14,-8 20,-8"/>
<text text-anchor="middle" x="447.8634" y="-859.8" font-family="Helvetica,sans-Serif" font-weight="bold" font-size="9.00" fill="#000000">lib</text>
</g>
<g id="clust2" class="cluster">
<title>cluster_lib/data</title>
<path fill="#ffffff" stroke="#000000" stroke-width="2" d="M561.6555,-16C561.6555,-16 862.2253,-16 862.2253,-16 868.2253,-16 874.2253,-22 874.2253,-28 874.2253,-28 874.2253,-152 874.2253,-152 874.2253,-158 868.2253,-164 862.2253,-164 862.2253,-164 561.6555,-164 561.6555,-164 555.6555,-164 549.6555,-158 549.6555,-152 549.6555,-152 549.6555,-28 549.6555,-28 549.6555,-22 555.6555,-16 561.6555,-16"/>
<text text-anchor="middle" x="711.9404" y="-152.8" font-family="Helvetica,sans-Serif" font-weight="bold" font-size="9.00" fill="#000000">data</text>
</g>
<g id="clust3" class="cluster">
<title>cluster_lib/data/__tests</title>
<path fill="#ffffff" stroke="#000000" stroke-width="2" d="M683.6753,-78C683.6753,-78 739.7031,-78 739.7031,-78 745.7031,-78 751.7031,-84 751.7031,-90 751.7031,-90 751.7031,-117 751.7031,-117 751.7031,-123 745.7031,-129 739.7031,-129 739.7031,-129 683.6753,-129 683.6753,-129 677.6753,-129 671.6753,-123 671.6753,-117 671.6753,-117 671.6753,-90 671.6753,-90 671.6753,-84 677.6753,-78 683.6753,-78"/>
<text text-anchor="middle" x="711.6892" y="-117.8" font-family="Helvetica,sans-Serif" font-weight="bold" font-size="9.00" fill="#000000">__tests</text>
</g>
<g id="clust4" class="cluster">
<title>cluster_lib/gen&#45;dinamic&#45;data</title>
<path fill="#ffffff" stroke="#000000" stroke-width="2" d="M284.5547,-172C284.5547,-172 867.7268,-172 867.7268,-172 873.7268,-172 879.7268,-178 879.7268,-184 879.7268,-184 879.7268,-629 879.7268,-629 879.7268,-635 873.7268,-641 867.7268,-641 867.7268,-641 284.5547,-641 284.5547,-641 278.5547,-641 272.5547,-635 272.5547,-629 272.5547,-629 272.5547,-184 272.5547,-184 272.5547,-178 278.5547,-172 284.5547,-172"/>
<text text-anchor="middle" x="576.1407" y="-629.8" font-family="Helvetica,sans-Serif" font-weight="bold" font-size="9.00" fill="#000000">gen&#45;dinamic&#45;data</text>
</g>
<g id="clust5" class="cluster">
<title>cluster_lib/gen&#45;dinamic&#45;data/gen&#45;address</title>
<path fill="#ffffff" stroke="#000000" stroke-width="2" d="M427.3618,-350C427.3618,-350 626.6726,-350 626.6726,-350 632.6726,-350 638.6726,-356 638.6726,-362 638.6726,-362 638.6726,-476 638.6726,-476 638.6726,-482 632.6726,-488 626.6726,-488 626.6726,-488 427.3618,-488 427.3618,-488 421.3618,-488 415.3618,-482 415.3618,-476 415.3618,-476 415.3618,-362 415.3618,-362 415.3618,-356 421.3618,-350 427.3618,-350"/>
<text text-anchor="middle" x="527.0172" y="-476.8" font-family="Helvetica,sans-Serif" font-weight="bold" font-size="9.00" fill="#000000">gen&#45;address</text>
</g>
<g id="clust6" class="cluster">
<title>cluster_lib/gen&#45;dinamic&#45;data/gen&#45;national&#45;id</title>
<path fill="#ffffff" stroke="#000000" stroke-width="2" d="M427.3618,-206C427.3618,-206 859.7268,-206 859.7268,-206 865.7268,-206 871.7268,-212 871.7268,-218 871.7268,-218 871.7268,-304 871.7268,-304 871.7268,-310 865.7268,-316 859.7268,-316 859.7268,-316 427.3618,-316 427.3618,-316 421.3618,-316 415.3618,-310 415.3618,-304 415.3618,-304 415.3618,-218 415.3618,-218 415.3618,-212 421.3618,-206 427.3618,-206"/>
<text text-anchor="middle" x="643.5443" y="-304.8" font-family="Helvetica,sans-Serif" font-weight="bold" font-size="9.00" fill="#000000">gen&#45;national&#45;id</text>
</g>
<g id="clust7" class="cluster">
<title>cluster_lib/gen&#45;dinamic&#45;data/gen&#45;national&#45;id/it.national&#45;id</title>
<path fill="#ffffff" stroke="#000000" stroke-width="2" d="M561.6555,-214C561.6555,-214 851.7268,-214 851.7268,-214 857.7268,-214 863.7268,-220 863.7268,-226 863.7268,-226 863.7268,-253 863.7268,-253 863.7268,-259 857.7268,-265 851.7268,-265 851.7268,-265 561.6555,-265 561.6555,-265 555.6555,-265 549.6555,-259 549.6555,-253 549.6555,-253 549.6555,-226 549.6555,-226 549.6555,-220 555.6555,-214 561.6555,-214"/>
<text text-anchor="middle" x="706.6912" y="-253.8" font-family="Helvetica,sans-Serif" font-weight="bold" font-size="9.00" fill="#000000">it.national&#45;id</text>
</g>
<g id="clust8" class="cluster">
<title>cluster_lib/gen&#45;dinamic&#45;data/gen&#45;phone&#45;number</title>
<path fill="#ffffff" stroke="#000000" stroke-width="2" d="M414.3618,-496C414.3618,-496 487.3618,-496 487.3618,-496 493.3618,-496 499.3618,-502 499.3618,-508 499.3618,-508 499.3618,-535 499.3618,-535 499.3618,-541 493.3618,-547 487.3618,-547 487.3618,-547 414.3618,-547 414.3618,-547 408.3618,-547 402.3618,-541 402.3618,-535 402.3618,-535 402.3618,-508 402.3618,-508 402.3618,-502 408.3618,-496 414.3618,-496"/>
<text text-anchor="middle" x="450.8618" y="-535.8" font-family="Helvetica,sans-Serif" font-weight="bold" font-size="9.00" fill="#000000">gen&#45;phone&#45;number</text>
</g>
<g id="clust9" class="cluster">
<title>cluster_lib/get&#45;static&#45;data</title>
<path fill="#ffffff" stroke="#000000" stroke-width="2" d="M303.574,-649C303.574,-649 511.1304,-649 511.1304,-649 517.1304,-649 523.1304,-655 523.1304,-661 523.1304,-661 523.1304,-775 523.1304,-775 523.1304,-781 517.1304,-787 511.1304,-787 511.1304,-787 303.574,-787 303.574,-787 297.574,-787 291.574,-781 291.574,-775 291.574,-775 291.574,-661 291.574,-661 291.574,-655 297.574,-649 303.574,-649"/>
<text text-anchor="middle" x="407.3522" y="-775.8" font-family="Helvetica,sans-Serif" font-weight="bold" font-size="9.00" fill="#000000">get&#45;static&#45;data</text>
</g>
<g id="clust10" class="cluster">
<title>cluster_lib/profile</title>
<path fill="#ffffff" stroke="#000000" stroke-width="2" d="M90,-54C90,-54 360.3315,-54 360.3315,-54 366.3315,-54 372.3315,-60 372.3315,-66 372.3315,-66 372.3315,-152 372.3315,-152 372.3315,-158 366.3315,-164 360.3315,-164 360.3315,-164 90,-164 90,-164 84,-164 78,-158 78,-152 78,-152 78,-66 78,-66 78,-60 84,-54 90,-54"/>
<text text-anchor="middle" x="225.1658" y="-152.8" font-family="Helvetica,sans-Serif" font-weight="bold" font-size="9.00" fill="#000000">profile</text>
</g>
<g id="clust11" class="cluster">
<title>cluster_lib/profile/__tests</title>
<path fill="#ffffff" stroke="#000000" stroke-width="2" d="M189.5308,-62C189.5308,-62 252.5547,-62 252.5547,-62 258.5547,-62 264.5547,-68 264.5547,-74 264.5547,-74 264.5547,-101 264.5547,-101 264.5547,-107 258.5547,-113 252.5547,-113 252.5547,-113 189.5308,-113 189.5308,-113 183.5308,-113 177.5308,-107 177.5308,-101 177.5308,-101 177.5308,-74 177.5308,-74 177.5308,-68 183.5308,-62 189.5308,-62"/>
<text text-anchor="middle" x="221.0427" y="-101.8" font-family="Helvetica,sans-Serif" font-weight="bold" font-size="9.00" fill="#000000">__tests</text>
</g>
<g id="clust12" class="cluster">
<title>cluster_lib/util</title>
<path fill="#ffffff" stroke="#000000" stroke-width="2" d="M658.6726,-649C658.6726,-649 846.9656,-649 846.9656,-649 852.9656,-649 858.9656,-655 858.9656,-661 858.9656,-661 858.9656,-834 858.9656,-834 858.9656,-840 852.9656,-846 846.9656,-846 846.9656,-846 658.6726,-846 658.6726,-846 652.6726,-846 646.6726,-840 646.6726,-834 646.6726,-834 646.6726,-661 646.6726,-661 646.6726,-655 652.6726,-649 658.6726,-649"/>
<text text-anchor="middle" x="752.8191" y="-834.8" font-family="Helvetica,sans-Serif" font-weight="bold" font-size="9.00" fill="#000000">util</text>
</g>
<g id="clust13" class="cluster">
<title>cluster_lib/util/get&#45;random&#45;user</title>
<path fill="#ffffff" stroke="#000000" stroke-width="2" d="M670.1709,-770C670.1709,-770 753.2075,-770 753.2075,-770 759.2075,-770 765.2075,-776 765.2075,-782 765.2075,-782 765.2075,-809 765.2075,-809 765.2075,-815 759.2075,-821 753.2075,-821 753.2075,-821 670.1709,-821 670.1709,-821 664.1709,-821 658.1709,-815 658.1709,-809 658.1709,-809 658.1709,-782 658.1709,-782 658.1709,-776 664.1709,-770 670.1709,-770"/>
<text text-anchor="middle" x="711.6892" y="-809.8" font-family="Helvetica,sans-Serif" font-weight="bold" font-size="9.00" fill="#000000">get&#45;random&#45;user</text>
</g>
<!-- lib/data/__tests/data.spec.js -->
<g id="node1" class="node">
<title>lib/data/__tests/data.spec.js</title>
<g id="a_node1"><a xlink:href="lib/data/__tests/data.spec.js" xlink:title="data.spec.js">
<path fill="#ffffcc" stroke="#000000" d="M738.0504,-103.5C738.0504,-103.5 685.328,-103.5 685.328,-103.5 682.4947,-103.5 679.6614,-100.6667 679.6614,-97.8333 679.6614,-97.8333 679.6614,-92.1667 679.6614,-92.1667 679.6614,-89.3333 682.4947,-86.5 685.328,-86.5 685.328,-86.5 738.0504,-86.5 738.0504,-86.5 740.8837,-86.5 743.717,-89.3333 743.717,-92.1667 743.717,-92.1667 743.717,-97.8333 743.717,-97.8333 743.717,-100.6667 740.8837,-103.5 738.0504,-103.5"/>
<text text-anchor="middle" x="711.6892" y="-92.3" font-family="Helvetica,sans-Serif" font-size="9.00" fill="#000000">data.spec.js</text>
</a>
</g>
</g>
<!-- lib/data/country&#45;list.js -->
<g id="node3" class="node">
<title>lib/data/country&#45;list.js</title>
<g id="a_node3"><a xlink:href="lib/data/country-list.js" xlink:title="country&#45;list.js">
<path fill="#ffffcc" stroke="#000000" d="M852.3109,-51.5C852.3109,-51.5 795.6203,-51.5 795.6203,-51.5 792.7869,-51.5 789.9536,-48.6667 789.9536,-45.8333 789.9536,-45.8333 789.9536,-40.1667 789.9536,-40.1667 789.9536,-37.3333 792.7869,-34.5 795.6203,-34.5 795.6203,-34.5 852.3109,-34.5 852.3109,-34.5 855.1442,-34.5 857.9776,-37.3333 857.9776,-40.1667 857.9776,-40.1667 857.9776,-45.8333 857.9776,-45.8333 857.9776,-48.6667 855.1442,-51.5 852.3109,-51.5"/>
<text text-anchor="middle" x="823.9656" y="-40.3" font-family="Helvetica,sans-Serif" font-size="9.00" fill="#000000">country&#45;list.js</text>
</a>
</g>
</g>
<!-- lib/data/__tests/data.spec.js&#45;&gt;lib/data/country&#45;list.js -->
<g id="edge1" class="edge">
<title>lib/data/__tests/data.spec.js&#45;&gt;lib/data/country&#45;list.js</title>
<path fill="none" stroke="#000000" stroke-width="2" stroke-opacity="0.466667" d="M743.9656,-93.2334C752.6629,-91.4827 761.6158,-88.3826 768.7058,-83 778.6805,-75.4273 772.259,-66.2218 781.7058,-58 782.1646,-57.6007 782.6348,-57.2118 783.1151,-56.833"/>
<polygon fill="#000000" fill-opacity="0.466667" stroke="#000000" stroke-width="2" stroke-opacity="0.466667" points="784.9753,-59.7979 791.6163,-51.5426 781.2768,-53.8547 784.9753,-59.7979"/>
</g>
<!-- lib/data/mccs&#45;available.js -->
<g id="node5" class="node">
<title>lib/data/mccs&#45;available.js</title>
<g id="a_node5"><a xlink:href="lib/data/mccs-available.js" xlink:title="mccs&#45;available.js">
<path fill="#ffffcc" stroke="#000000" d="M860.3198,-125.5C860.3198,-125.5 787.6114,-125.5 787.6114,-125.5 784.778,-125.5 781.9447,-122.6667 781.9447,-119.8333 781.9447,-119.8333 781.9447,-114.1667 781.9447,-114.1667 781.9447,-111.3333 784.778,-108.5 787.6114,-108.5 787.6114,-108.5 860.3198,-108.5 860.3198,-108.5 863.1531,-108.5 865.9865,-111.3333 865.9865,-114.1667 865.9865,-114.1667 865.9865,-119.8333 865.9865,-119.8333 865.9865,-122.6667 863.1531,-125.5 860.3198,-125.5"/>
<text text-anchor="middle" x="823.9656" y="-114.3" font-family="Helvetica,sans-Serif" font-size="9.00" fill="#000000">mccs&#45;available.js</text>
</a>
</g>
</g>
<!-- lib/data/__tests/data.spec.js&#45;&gt;lib/data/mccs&#45;available.js -->
<g id="edge2" class="edge">
<title>lib/data/__tests/data.spec.js&#45;&gt;lib/data/mccs&#45;available.js</title>
<path fill="none" stroke="#000000" stroke-width="2" stroke-opacity="0.466667" d="M743.8631,-101.3043C752.6161,-103.0194 762.326,-104.922 771.8787,-106.7938"/>
<polygon fill="#000000" fill-opacity="0.466667" stroke="#000000" stroke-width="2" stroke-opacity="0.466667" points="771.2435,-110.2358 781.7299,-108.7241 772.5896,-103.3665 771.2435,-110.2358"/>
</g>
<!-- lib/data/names&#45;list.js -->
<g id="node6" class="node">
<title>lib/data/names&#45;list.js</title>
<g id="a_node6"><a xlink:href="lib/data/names-list.js" xlink:title="names&#45;list.js">
<path fill="#ffffcc" stroke="#000000" d="M851.3087,-80.5C851.3087,-80.5 796.6225,-80.5 796.6225,-80.5 793.7891,-80.5 790.9558,-77.6667 790.9558,-74.8333 790.9558,-74.8333 790.9558,-69.1667 790.9558,-69.1667 790.9558,-66.3333 793.7891,-63.5 796.6225,-63.5 796.6225,-63.5 851.3087,-63.5 851.3087,-63.5 854.142,-63.5 856.9753,-66.3333 856.9753,-69.1667 856.9753,-69.1667 856.9753,-74.8333 856.9753,-74.8333 856.9753,-77.6667 854.142,-80.5 851.3087,-80.5"/>
<text text-anchor="middle" x="823.9656" y="-69.3" font-family="Helvetica,sans-Serif" font-size="9.00" fill="#000000">names&#45;list.js</text>
</a>
</g>
</g>
<!-- lib/data/__tests/data.spec.js&#45;&gt;lib/data/names&#45;list.js -->
<g id="edge3" class="edge">
<title>lib/data/__tests/data.spec.js&#45;&gt;lib/data/names&#45;list.js</title>
<path fill="none" stroke="#000000" stroke-width="2" stroke-opacity="0.466667" d="M743.8631,-88.4091C755.3043,-86.0654 768.3804,-83.3867 780.6032,-80.8829"/>
<polygon fill="#000000" fill-opacity="0.466667" stroke="#000000" stroke-width="2" stroke-opacity="0.466667" points="781.5208,-84.2676 790.615,-78.8319 780.116,-77.41 781.5208,-84.2676"/>
</g>
<!-- lib/data/countries&#45;available.js -->
<g id="node2" class="node">
<title>lib/data/countries&#45;available.js</title>
<g id="a_node2"><a xlink:href="lib/data/countries-available.js" xlink:title="countries&#45;available.js">
<path fill="#ffffcc" stroke="#000000" d="M756.0636,-55.5C756.0636,-55.5 667.3149,-55.5 667.3149,-55.5 664.4815,-55.5 661.6482,-52.6667 661.6482,-49.8333 661.6482,-49.8333 661.6482,-44.1667 661.6482,-44.1667 661.6482,-41.3333 664.4815,-38.5 667.3149,-38.5 667.3149,-38.5 756.0636,-38.5 756.0636,-38.5 758.8969,-38.5 761.7302,-41.3333 761.7302,-44.1667 761.7302,-44.1667 761.7302,-49.8333 761.7302,-49.8333 761.7302,-52.6667 758.8969,-55.5 756.0636,-55.5"/>
<text text-anchor="middle" x="711.6892" y="-44.3" font-family="Helvetica,sans-Serif" font-size="9.00" fill="#000000">countries&#45;available.js</text>
</a>
</g>
</g>
<!-- lib/data/countries&#45;available.js&#45;&gt;lib/data/country&#45;list.js -->
<g id="edge4" class="edge">
<title>lib/data/countries&#45;available.js&#45;&gt;lib/data/country&#45;list.js</title>
<path fill="none" stroke="#000000" stroke-width="2" stroke-opacity="0.466667" d="M761.9163,-45.2106C767.828,-45 773.8281,-44.7862 779.6505,-44.5788"/>
<polygon fill="#000000" fill-opacity="0.466667" stroke="#000000" stroke-width="2" stroke-opacity="0.466667" points="780.0123,-48.0682 789.8813,-44.2143 779.763,-41.0727 780.0123,-48.0682"/>
</g>
<!-- lib/data/countries&#45;available.js&#45;&gt;lib/data/names&#45;list.js -->
<g id="edge5" class="edge">
<title>lib/data/countries&#45;available.js&#45;&gt;lib/data/names&#45;list.js</title>
<path fill="none" stroke="#000000" stroke-width="2" stroke-opacity="0.466667" d="M750.0143,-55.5337C759.9245,-57.7403 770.6609,-60.1309 780.8,-62.3885"/>
<polygon fill="#000000" fill-opacity="0.466667" stroke="#000000" stroke-width="2" stroke-opacity="0.466667" points="780.1656,-65.8329 790.6873,-64.5901 781.6871,-59.0003 780.1656,-65.8329"/>
</g>
<!-- lib/data/index.js -->
<g id="node4" class="node">
<title>lib/data/index.js</title>
<g id="a_node4"><a xlink:href="lib/data/index.js" xlink:title="index.js">
<path fill="#ffffcc" stroke="#000000" d="M605.9889,-124.5C605.9889,-124.5 563.3222,-124.5 563.3222,-124.5 560.4889,-124.5 557.6555,-121.6667 557.6555,-118.8333 557.6555,-118.8333 557.6555,-113.1667 557.6555,-113.1667 557.6555,-110.3333 560.4889,-107.5 563.3222,-107.5 563.3222,-107.5 605.9889,-107.5 605.9889,-107.5 608.8222,-107.5 611.6555,-110.3333 611.6555,-113.1667 611.6555,-113.1667 611.6555,-118.8333 611.6555,-118.8333 611.6555,-121.6667 608.8222,-124.5 605.9889,-124.5"/>
<text text-anchor="middle" x="584.6555" y="-113.3" font-family="Helvetica,sans-Serif" font-size="9.00" fill="#000000">index.js</text>
</a>
</g>
</g>
<!-- lib/data/index.js&#45;&gt;lib/data/countries&#45;available.js -->
<g id="edge6" class="edge">
<title>lib/data/index.js&#45;&gt;lib/data/countries&#45;available.js</title>
<path fill="none" stroke="#000000" stroke-width="2" stroke-opacity="0.466667" d="M592.661,-107.4852C603.7528,-96.1749 624.9013,-76.311 646.6726,-65 651.2326,-62.6309 656.1394,-60.5451 661.14,-58.7152"/>
<polygon fill="#000000" fill-opacity="0.466667" stroke="#000000" stroke-width="2" stroke-opacity="0.466667" points="662.4192,-61.9784 670.8058,-55.5041 660.2123,-55.3353 662.4192,-61.9784"/>
</g>
<!-- lib/data/index.js&#45;&gt;lib/data/country&#45;list.js -->
<g id="edge7" class="edge">
<title>lib/data/index.js&#45;&gt;lib/data/country&#45;list.js</title>
<path fill="none" stroke="#000000" stroke-width="2" stroke-opacity="0.466667" d="M587.9712,-107.3361C595.3445,-89.4687 614.9918,-48.876 646.6726,-33 692.2724,-10.1488 752.9818,-21.0104 790.2255,-31.5538"/>
<polygon fill="#000000" fill-opacity="0.466667" stroke="#000000" stroke-width="2" stroke-opacity="0.466667" points="789.4927,-34.9875 800.0758,-34.4908 791.4929,-28.2793 789.4927,-34.9875"/>
</g>
<!-- lib/data/index.js&#45;&gt;lib/data/mccs&#45;available.js -->
<g id="edge8" class="edge">
<title>lib/data/index.js&#45;&gt;lib/data/mccs&#45;available.js</title>
<path fill="none" stroke="#000000" stroke-width="2" stroke-opacity="0.466667" d="M611.5365,-124.5137C622.3374,-127.5177 634.9798,-130.516 646.6726,-132 700.478,-138.8289 714.9444,-139.167 768.7058,-132 775.1076,-131.1466 781.8192,-129.7602 788.2709,-128.1664"/>
<polygon fill="#000000" fill-opacity="0.466667" stroke="#000000" stroke-width="2" stroke-opacity="0.466667" points="789.3553,-131.4995 798.1137,-125.5378 787.5492,-124.7366 789.3553,-131.4995"/>
</g>
<!-- lib/data/index.js&#45;&gt;lib/data/names&#45;list.js -->
<g id="edge9" class="edge">
<title>lib/data/index.js&#45;&gt;lib/data/names&#45;list.js</title>
<path fill="none" stroke="#000000" stroke-width="2" stroke-opacity="0.466667" d="M593.854,-107.4268C605.2429,-97.4443 625.7141,-81.4955 646.6726,-75 690.6975,-61.3559 743.869,-62.645 780.4299,-66.067"/>
<polygon fill="#000000" fill-opacity="0.466667" stroke="#000000" stroke-width="2" stroke-opacity="0.466667" points="780.4404,-69.5866 790.7466,-67.1305 781.1582,-62.6235 780.4404,-69.5866"/>
</g>
<!-- lib/gen&#45;dinamic&#45;data/example.js -->
<g id="node7" class="node">
<title>lib/gen&#45;dinamic&#45;data/example.js</title>
<g id="a_node7"><a xlink:href="lib/gen-dinamic-data/example.js" xlink:title="example.js">
<path fill="#ffffcc" stroke="#000000" d="M350.4254,-586.5C350.4254,-586.5 302.7226,-586.5 302.7226,-586.5 299.8892,-586.5 297.0559,-583.6667 297.0559,-580.8333 297.0559,-580.8333 297.0559,-575.1667 297.0559,-575.1667 297.0559,-572.3333 299.8892,-569.5 302.7226,-569.5 302.7226,-569.5 350.4254,-569.5 350.4254,-569.5 353.2587,-569.5 356.092,-572.3333 356.092,-575.1667 356.092,-575.1667 356.092,-580.8333 356.092,-580.8333 356.092,-583.6667 353.2587,-586.5 350.4254,-586.5"/>
<text text-anchor="middle" x="326.574" y="-575.3" font-family="Helvetica,sans-Serif" font-size="9.00" fill="#000000">example.js</text>
</a>
</g>
</g>
<!-- lib/gen&#45;dinamic&#45;data/gen&#45;anagrafica.js -->
<g id="node13" class="node">
<title>lib/gen&#45;dinamic&#45;data/gen&#45;anagrafica.js</title>
<g id="a_node13"><a xlink:href="lib/gen-dinamic-data/gen-anagrafica.js" xlink:title="gen&#45;anagrafica.js">
<path fill="#ffffcc" stroke="#000000" d="M487.2376,-586.5C487.2376,-586.5 413.486,-586.5 413.486,-586.5 410.6527,-586.5 407.8193,-583.6667 407.8193,-580.8333 407.8193,-580.8333 407.8193,-575.1667 407.8193,-575.1667 407.8193,-572.3333 410.6527,-569.5 413.486,-569.5 413.486,-569.5 487.2376,-569.5 487.2376,-569.5 490.071,-569.5 492.9043,-572.3333 492.9043,-575.1667 492.9043,-575.1667 492.9043,-580.8333 492.9043,-580.8333 492.9043,-583.6667 490.071,-586.5 487.2376,-586.5"/>
<text text-anchor="middle" x="450.3618" y="-575.3" font-family="Helvetica,sans-Serif" font-size="9.00" fill="#000000">gen&#45;anagrafica.js</text>
</a>
</g>
</g>
<!-- lib/gen&#45;dinamic&#45;data/example.js&#45;&gt;lib/gen&#45;dinamic&#45;data/gen&#45;anagrafica.js -->
<g id="edge10" class="edge">
<title>lib/gen&#45;dinamic&#45;data/example.js&#45;&gt;lib/gen&#45;dinamic&#45;data/gen&#45;anagrafica.js</title>
<path fill="none" stroke="#000000" stroke-width="2" stroke-opacity="0.466667" d="M356.2242,-578C368.5413,-578 383.222,-578 397.283,-578"/>
<polygon fill="#000000" fill-opacity="0.466667" stroke="#000000" stroke-width="2" stroke-opacity="0.466667" points="397.3695,-581.5001 407.3695,-578 397.3695,-574.5001 397.3695,-581.5001"/>
</g>
<!-- lib/gen&#45;dinamic&#45;data/gen&#45;address/br.address.js -->
<g id="node8" class="node">
<title>lib/gen&#45;dinamic&#45;data/gen&#45;address/br.address.js</title>
<g id="a_node8"><a xlink:href="lib/gen-dinamic-data/gen-address/br.address.js" xlink:title="br.address.js">
<path fill="#ffffcc" stroke="#000000" d="M612.5182,-404.5C612.5182,-404.5 556.7929,-404.5 556.7929,-404.5 553.9595,-404.5 551.1262,-401.6667 551.1262,-398.8333 551.1262,-398.8333 551.1262,-393.1667 551.1262,-393.1667 551.1262,-390.3333 553.9595,-387.5 556.7929,-387.5 556.7929,-387.5 612.5182,-387.5 612.5182,-387.5 615.3515,-387.5 618.1848,-390.3333 618.1848,-393.1667 618.1848,-393.1667 618.1848,-398.8333 618.1848,-398.8333 618.1848,-401.6667 615.3515,-404.5 612.5182,-404.5"/>
<text text-anchor="middle" x="584.6555" y="-393.3" font-family="Helvetica,sans-Serif" font-size="9.00" fill="#000000">br.address.js</text>
</a>
</g>
</g>
<!-- lib/util/random&#45;array&#45;element.js -->
<g id="node43" class="node">
<title>lib/util/random&#45;array&#45;element.js</title>
<g id="a_node43"><a xlink:href="lib/util/random-array-element.js" xlink:title="random&#45;array&#45;element.js">
<path fill="#ffffcc" stroke="#000000" d="M763.0558,-674.5C763.0558,-674.5 660.3227,-674.5 660.3227,-674.5 657.4893,-674.5 654.656,-671.6667 654.656,-668.8333 654.656,-668.8333 654.656,-663.1667 654.656,-663.1667 654.656,-660.3333 657.4893,-657.5 660.3227,-657.5 660.3227,-657.5 763.0558,-657.5 763.0558,-657.5 765.8891,-657.5 768.7224,-660.3333 768.7224,-663.1667 768.7224,-663.1667 768.7224,-668.8333 768.7224,-668.8333 768.7224,-671.6667 765.8891,-674.5 763.0558,-674.5"/>
<text text-anchor="middle" x="711.6892" y="-663.3" font-family="Helvetica,sans-Serif" font-size="9.00" fill="#000000">random&#45;array&#45;element.js</text>
</a>
</g>
</g>
<!-- lib/gen&#45;dinamic&#45;data/gen&#45;address/br.address.js&#45;&gt;lib/util/random&#45;array&#45;element.js -->
<g id="edge11" class="edge">
<title>lib/gen&#45;dinamic&#45;data/gen&#45;address/br.address.js&#45;&gt;lib/util/random&#45;array&#45;element.js</title>
<path fill="none" stroke="#000000" stroke-width="2" stroke-opacity="0.466667" d="M618.3061,-399.7454C625.7969,-401.9952 633.1449,-405.5164 638.6726,-411 672.9374,-444.9914 700.0442,-594.2877 708.7416,-647.2695"/>
<polygon fill="#000000" fill-opacity="0.466667" stroke="#000000" stroke-width="2" stroke-opacity="0.466667" points="705.3102,-647.9759 710.3544,-657.2929 712.2213,-646.8639 705.3102,-647.9759"/>
</g>
<!-- lib/util/random&#45;number.js -->
<g id="node44" class="node">
<title>lib/util/random&#45;number.js</title>
<g id="a_node44"><a xlink:href="lib/util/random-number.js" xlink:title="random&#45;number.js">
<path fill="#ffffcc" stroke="#000000" d="M750.0599,-703.5C750.0599,-703.5 673.3185,-703.5 673.3185,-703.5 670.4852,-703.5 667.6519,-700.6667 667.6519,-697.8333 667.6519,-697.8333 667.6519,-692.1667 667.6519,-692.1667 667.6519,-689.3333 670.4852,-686.5 673.3185,-686.5 673.3185,-686.5 750.0599,-686.5 750.0599,-686.5 752.8932,-686.5 755.7266,-689.3333 755.7266,-692.1667 755.7266,-692.1667 755.7266,-697.8333 755.7266,-697.8333 755.7266,-700.6667 752.8932,-703.5 750.0599,-703.5"/>
<text text-anchor="middle" x="711.6892" y="-692.3" font-family="Helvetica,sans-Serif" font-size="9.00" fill="#000000">random&#45;number.js</text>
</a>
</g>
</g>
<!-- lib/gen&#45;dinamic&#45;data/gen&#45;address/br.address.js&#45;&gt;lib/util/random&#45;number.js -->
<g id="edge12" class="edge">
<title>lib/gen&#45;dinamic&#45;data/gen&#45;address/br.address.js&#45;&gt;lib/util/random&#45;number.js</title>
<path fill="none" stroke="#000000" stroke-width="2" stroke-opacity="0.466667" d="M618.2118,-398.5008C626.0798,-400.7385 633.6292,-404.5654 638.6726,-411 657.1872,-434.622 627.4719,-657.9322 646.6726,-681 649.8304,-684.7938 653.7466,-687.7109 658.0799,-689.9384"/>
<polygon fill="#000000" fill-opacity="0.466667" stroke="#000000" stroke-width="2" stroke-opacity="0.466667" points="656.863,-693.2206 667.451,-693.6019 659.4117,-686.701 656.863,-693.2206"/>
</g>
<!-- lib/gen&#45;dinamic&#45;data/gen&#45;address/ch.address.js -->
<g id="node9" class="node">
<title>lib/gen&#45;dinamic&#45;data/gen&#45;address/ch.address.js</title>
<g id="a_node9"><a xlink:href="lib/gen-dinamic-data/gen-address/ch.address.js" xlink:title="ch.address.js">
<path fill="#ffffcc" stroke="#000000" d="M613.5133,-433.5C613.5133,-433.5 555.7978,-433.5 555.7978,-433.5 552.9644,-433.5 550.1311,-430.6667 550.1311,-427.8333 550.1311,-427.8333 550.1311,-422.1667 550.1311,-422.1667 550.1311,-419.3333 552.9644,-416.5 555.7978,-416.5 555.7978,-416.5 613.5133,-416.5 613.5133,-416.5 616.3466,-416.5 619.1799,-419.3333 619.1799,-422.1667 619.1799,-422.1667 619.1799,-427.8333 619.1799,-427.8333 619.1799,-430.6667 616.3466,-433.5 613.5133,-433.5"/>
<text text-anchor="middle" x="584.6555" y="-422.3" font-family="Helvetica,sans-Serif" font-size="9.00" fill="#000000">ch.address.js</text>
</a>
</g>
</g>
<!-- lib/gen&#45;dinamic&#45;data/gen&#45;address/ch.address.js&#45;&gt;lib/util/random&#45;array&#45;element.js -->
<g id="edge13" class="edge">
<title>lib/gen&#45;dinamic&#45;data/gen&#45;address/ch.address.js&#45;&gt;lib/util/random&#45;array&#45;element.js</title>
<path fill="none" stroke="#000000" stroke-width="2" stroke-opacity="0.466667" d="M619.2996,-429.2245C626.405,-431.4774 633.3344,-434.8796 638.6726,-440 669.3889,-469.4634 698.0496,-598.3846 707.9939,-647.1882"/>
<polygon fill="#000000" fill-opacity="0.466667" stroke="#000000" stroke-width="2" stroke-opacity="0.466667" points="704.6209,-648.1702 710.0161,-657.2885 711.4847,-646.796 704.6209,-648.1702"/>
</g>
<!-- lib/gen&#45;dinamic&#45;data/gen&#45;address/ch.address.js&#45;&gt;lib/util/random&#45;number.js -->
<g id="edge14" class="edge">
<title>lib/gen&#45;dinamic&#45;data/gen&#45;address/ch.address.js&#45;&gt;lib/util/random&#45;number.js</title>
<path fill="none" stroke="#000000" stroke-width="2" stroke-opacity="0.466667" d="M619.318,-427.8435C626.7781,-430.1206 633.8585,-433.8803 638.6726,-440 655.238,-461.0577 629.4956,-660.4381 646.6726,-681 649.8372,-684.7882 653.7579,-687.7016 658.094,-689.9267"/>
<polygon fill="#000000" fill-opacity="0.466667" stroke="#000000" stroke-width="2" stroke-opacity="0.466667" points="656.8804,-693.2102 667.4686,-693.5872 659.4266,-686.6896 656.8804,-693.2102"/>
</g>
<!-- lib/gen&#45;dinamic&#45;data/gen&#45;address/cl.address.js -->
<g id="node10" class="node">
<title>lib/gen&#45;dinamic&#45;data/gen&#45;address/cl.address.js</title>
<g id="a_node10"><a xlink:href="lib/gen-dinamic-data/gen-address/cl.address.js" xlink:title="cl.address.js">
<path fill="#ffffcc" stroke="#000000" d="M612.0074,-462.5C612.0074,-462.5 557.3036,-462.5 557.3036,-462.5 554.4703,-462.5 551.637,-459.6667 551.637,-456.8333 551.637,-456.8333 551.637,-451.1667 551.637,-451.1667 551.637,-448.3333 554.4703,-445.5 557.3036,-445.5 557.3036,-445.5 612.0074,-445.5 612.0074,-445.5 614.8407,-445.5 617.6741,-448.3333 617.6741,-451.1667 617.6741,-451.1667 617.6741,-456.8333 617.6741,-456.8333 617.6741,-459.6667 614.8407,-462.5 612.0074,-462.5"/>
<text text-anchor="middle" x="584.6555" y="-451.3" font-family="Helvetica,sans-Serif" font-size="9.00" fill="#000000">cl.address.js</text>
</a>
</g>
</g>
<!-- lib/gen&#45;dinamic&#45;data/gen&#45;address/cl.address.js&#45;&gt;lib/util/random&#45;array&#45;element.js -->
<g id="edge15" class="edge">
<title>lib/gen&#45;dinamic&#45;data/gen&#45;address/cl.address.js&#45;&gt;lib/util/random&#45;array&#45;element.js</title>
<path fill="none" stroke="#000000" stroke-width="2" stroke-opacity="0.466667" d="M617.6922,-456.6341C625.2882,-458.5938 632.8383,-461.8034 638.6726,-467 692.9478,-515.3428 706.9368,-607.5398 710.4959,-647.1498"/>
<polygon fill="#000000" fill-opacity="0.466667" stroke="#000000" stroke-width="2" stroke-opacity="0.466667" points="707.0161,-647.5481 711.2737,-657.2498 713.9954,-647.0106 707.0161,-647.5481"/>
</g>
<!-- lib/gen&#45;dinamic&#45;data/gen&#45;address/cl.address.js&#45;&gt;lib/util/random&#45;number.js -->
<g id="edge16" class="edge">
<title>lib/gen&#45;dinamic&#45;data/gen&#45;address/cl.address.js&#45;&gt;lib/util/random&#45;number.js</title>
<path fill="none" stroke="#000000" stroke-width="2" stroke-opacity="0.466667" d="M617.8101,-455.1602C625.7793,-457.0914 633.4791,-460.6558 638.6726,-467 653.745,-485.4118 631.3796,-662.771 646.6726,-681 649.8451,-684.7815 653.7711,-687.6905 658.1105,-689.9129"/>
<polygon fill="#000000" fill-opacity="0.466667" stroke="#000000" stroke-width="2" stroke-opacity="0.466667" points="656.9009,-693.1979 667.4892,-693.5699 659.444,-686.6761 656.9009,-693.1979"/>
</g>
<!-- lib/gen&#45;dinamic&#45;data/gen&#45;address/es.region&#45;names.js -->
<g id="node11" class="node">
<title>lib/gen&#45;dinamic&#45;data/gen&#45;address/es.region&#45;names.js</title>
<g id="a_node11"><a xlink:href="lib/gen-dinamic-data/gen-address/es.region-names.js" xlink:title="es.region&#45;names.js">
<path fill="#ffffcc" stroke="#000000" d="M625.023,-375.5C625.023,-375.5 544.288,-375.5 544.288,-375.5 541.4547,-375.5 538.6213,-372.6667 538.6213,-369.8333 538.6213,-369.8333 538.6213,-364.1667 538.6213,-364.1667 538.6213,-361.3333 541.4547,-358.5 544.288,-358.5 544.288,-358.5 625.023,-358.5 625.023,-358.5 627.8564,-358.5 630.6897,-361.3333 630.6897,-364.1667 630.6897,-364.1667 630.6897,-369.8333 630.6897,-369.8333 630.6897,-372.6667 627.8564,-375.5 625.023,-375.5"/>
<text text-anchor="middle" x="584.6555" y="-364.3" font-family="Helvetica,sans-Serif" font-size="9.00" fill="#000000">es.region&#45;names.js</text>
</a>
</g>
</g>
<!-- lib/gen&#45;dinamic&#45;data/gen&#45;address/es.region&#45;names.js&#45;&gt;lib/util/random&#45;array&#45;element.js -->
<g id="edge17" class="edge">
<title>lib/gen&#45;dinamic&#45;data/gen&#45;address/es.region&#45;names.js&#45;&gt;lib/util/random&#45;array&#45;element.js</title>
<path fill="none" stroke="#000000" stroke-width="2" stroke-opacity="0.466667" d="M630.0771,-375.5065C633.2296,-377.2883 636.1508,-379.4293 638.6726,-382 676.5281,-420.5899 701.8249,-590.5975 709.3481,-647.4264"/>
<polygon fill="#000000" fill-opacity="0.466667" stroke="#000000" stroke-width="2" stroke-opacity="0.466667" points="705.8946,-648.0117 710.6483,-657.4803 712.8368,-647.114 705.8946,-648.0117"/>
</g>
<!-- lib/gen&#45;dinamic&#45;data/gen&#45;address/index.js -->
<g id="node12" class="node">
<title>lib/gen&#45;dinamic&#45;data/gen&#45;address/index.js</title>
<g id="a_node12"><a xlink:href="lib/gen-dinamic-data/gen-address/index.js" xlink:title="index.js">
<path fill="#ffffcc" stroke="#000000" d="M471.6951,-418.5C471.6951,-418.5 429.0285,-418.5 429.0285,-418.5 426.1951,-418.5 423.3618,-415.6667 423.3618,-412.8333 423.3618,-412.8333 423.3618,-407.1667 423.3618,-407.1667 423.3618,-404.3333 426.1951,-401.5 429.0285,-401.5 429.0285,-401.5 471.6951,-401.5 471.6951,-401.5 474.5285,-401.5 477.3618,-404.3333 477.3618,-407.1667 477.3618,-407.1667 477.3618,-412.8333 477.3618,-412.8333 477.3618,-415.6667 474.5285,-418.5 471.6951,-418.5"/>
<text text-anchor="middle" x="450.3618" y="-407.3" font-family="Helvetica,sans-Serif" font-size="9.00" fill="#000000">index.js</text>
</a>
</g>
</g>
<!-- lib/gen&#45;dinamic&#45;data/gen&#45;address/index.js&#45;&gt;lib/gen&#45;dinamic&#45;data/gen&#45;address/br.address.js -->
<g id="edge19" class="edge">
<title>lib/gen&#45;dinamic&#45;data/gen&#45;address/index.js&#45;&gt;lib/gen&#45;dinamic&#45;data/gen&#45;address/br.address.js</title>
<path fill="none" stroke="#000000" stroke-width="2" stroke-opacity="0.466667" d="M477.5382,-407.1669C495.6342,-405.2804 519.8198,-402.7591 540.6303,-400.5896"/>
<polygon fill="#000000" fill-opacity="0.466667" stroke="#000000" stroke-width="2" stroke-opacity="0.466667" points="541.2603,-404.043 550.8434,-399.5249 540.5344,-397.0807 541.2603,-404.043"/>
</g>
<!-- lib/gen&#45;dinamic&#45;data/gen&#45;address/index.js&#45;&gt;lib/gen&#45;dinamic&#45;data/gen&#45;address/ch.address.js -->
<g id="edge20" class="edge">
<title>lib/gen&#45;dinamic&#45;data/gen&#45;address/index.js&#45;&gt;lib/gen&#45;dinamic&#45;data/gen&#45;address/ch.address.js</title>
<path fill="none" stroke="#000000" stroke-width="2" stroke-opacity="0.466667" d="M477.5382,-413.0355C495.3719,-415.0274 519.1201,-417.68 539.7234,-419.9813"/>
<polygon fill="#000000" fill-opacity="0.466667" stroke="#000000" stroke-width="2" stroke-opacity="0.466667" points="539.5265,-423.481 549.8532,-421.1127 540.3036,-416.5242 539.5265,-423.481"/>
</g>
<!-- lib/gen&#45;dinamic&#45;data/gen&#45;address/index.js&#45;&gt;lib/gen&#45;dinamic&#45;data/gen&#45;address/cl.address.js -->
<g id="edge21" class="edge">
<title>lib/gen&#45;dinamic&#45;data/gen&#45;address/index.js&#45;&gt;lib/gen&#45;dinamic&#45;data/gen&#45;address/cl.address.js</title>
<path fill="none" stroke="#000000" stroke-width="2" stroke-opacity="0.466667" d="M471.7565,-418.612C487.9204,-424.9553 510.7319,-433.5616 531.1304,-440 534.4837,-441.0584 537.9726,-442.1004 541.4896,-443.109"/>
<polygon fill="#000000" fill-opacity="0.466667" stroke="#000000" stroke-width="2" stroke-opacity="0.466667" points="540.8156,-446.554 551.3869,-445.8492 542.6834,-439.8078 540.8156,-446.554"/>
</g>
<!-- lib/gen&#45;dinamic&#45;data/gen&#45;address/index.js&#45;&gt;lib/gen&#45;dinamic&#45;data/gen&#45;address/es.region&#45;names.js -->
<g id="edge22" class="edge">
<title>lib/gen&#45;dinamic&#45;data/gen&#45;address/index.js&#45;&gt;lib/gen&#45;dinamic&#45;data/gen&#45;address/es.region&#45;names.js</title>
<path fill="none" stroke="#000000" stroke-width="2" stroke-opacity="0.466667" d="M473.916,-401.4128C489.96,-395.6677 511.7272,-388.0759 531.1304,-382 534.9581,-380.8014 538.9538,-379.5966 542.962,-378.4192"/>
<polygon fill="#000000" fill-opacity="0.466667" stroke="#000000" stroke-width="2" stroke-opacity="0.466667" points="544.2217,-381.6988 552.8627,-375.5682 542.2846,-374.9721 544.2217,-381.6988"/>
</g>
<!-- lib/gen&#45;dinamic&#45;data/map&#45;faker.js -->
<g id="node25" class="node">
<title>lib/gen&#45;dinamic&#45;data/map&#45;faker.js</title>
<g id="a_node25"><a xlink:href="lib/gen-dinamic-data/map-faker.js" xlink:title="map&#45;faker.js">
<path fill="#ffffcc" stroke="#000000" d="M611.5099,-341.5C611.5099,-341.5 557.8012,-341.5 557.8012,-341.5 554.9679,-341.5 552.1345,-338.6667 552.1345,-335.8333 552.1345,-335.8333 552.1345,-330.1667 552.1345,-330.1667 552.1345,-327.3333 554.9679,-324.5 557.8012,-324.5 557.8012,-324.5 611.5099,-324.5 611.5099,-324.5 614.3432,-324.5 617.1765,-327.3333 617.1765,-330.1667 617.1765,-330.1667 617.1765,-335.8333 617.1765,-335.8333 617.1765,-338.6667 614.3432,-341.5 611.5099,-341.5"/>
<text text-anchor="middle" x="584.6555" y="-330.3" font-family="Helvetica,sans-Serif" font-size="9.00" fill="#000000">map&#45;faker.js</text>
</a>
</g>
</g>
<!-- lib/gen&#45;dinamic&#45;data/gen&#45;address/index.js&#45;&gt;lib/gen&#45;dinamic&#45;data/map&#45;faker.js -->
<g id="edge18" class="edge">
<title>lib/gen&#45;dinamic&#45;data/gen&#45;address/index.js&#45;&gt;lib/gen&#45;dinamic&#45;data/map&#45;faker.js</title>
<path fill="none" stroke="#000000" stroke-width="2" stroke-opacity="0.466667" d="M458.9739,-401.2942C472.9054,-387.7028 501.7974,-361.5012 531.1304,-347 534.662,-345.2541 538.4359,-343.7083 542.2839,-342.3432"/>
<polygon fill="#000000" fill-opacity="0.466667" stroke="#000000" stroke-width="2" stroke-opacity="0.466667" points="543.4197,-345.655 551.9055,-339.3114 541.3159,-338.9786 543.4197,-345.655"/>
</g>
<!-- lib/gen&#45;dinamic&#45;data/gen&#45;anagrafica.js&#45;&gt;lib/data/index.js -->
<g id="edge23" class="edge">
<title>lib/gen&#45;dinamic&#45;data/gen&#45;anagrafica.js&#45;&gt;lib/data/index.js</title>
<path fill="none" stroke="#000000" stroke-width="2" stroke-opacity="0.466667" d="M493.2438,-570.6505C504.7931,-566.5208 516.0381,-560.0715 523.1304,-550 533.9769,-534.5973 526.1356,-229.1644 531.1304,-211 539.294,-181.3114 558.6903,-150.9998 571.7507,-132.841"/>
<polygon fill="#000000" fill-opacity="0.466667" stroke="#000000" stroke-width="2" stroke-opacity="0.466667" points="574.7733,-134.6405 577.9099,-124.5206 569.147,-130.4757 574.7733,-134.6405"/>
</g>
<!-- lib/gen&#45;dinamic&#45;data/gen&#45;birthday.js -->
<g id="node14" class="node">
<title>lib/gen&#45;dinamic&#45;data/gen&#45;birthday.js</title>
<g id="a_node14"><a xlink:href="lib/gen-dinamic-data/gen-birthday.js" xlink:title="gen&#45;birthday.js">
<path fill="#ffffcc" stroke="#000000" d="M616.3579,-575.5C616.3579,-575.5 552.9531,-575.5 552.9531,-575.5 550.1198,-575.5 547.2864,-572.6667 547.2864,-569.8333 547.2864,-569.8333 547.2864,-564.1667 547.2864,-564.1667 547.2864,-561.3333 550.1198,-558.5 552.9531,-558.5 552.9531,-558.5 616.3579,-558.5 616.3579,-558.5 619.1913,-558.5 622.0246,-561.3333 622.0246,-564.1667 622.0246,-564.1667 622.0246,-569.8333 622.0246,-569.8333 622.0246,-572.6667 619.1913,-575.5 616.3579,-575.5"/>
<text text-anchor="middle" x="584.6555" y="-564.3" font-family="Helvetica,sans-Serif" font-size="9.00" fill="#000000">gen&#45;birthday.js</text>
</a>
</g>
</g>
<!-- lib/gen&#45;dinamic&#45;data/gen&#45;anagrafica.js&#45;&gt;lib/gen&#45;dinamic&#45;data/gen&#45;birthday.js -->
<g id="edge25" class="edge">
<title>lib/gen&#45;dinamic&#45;data/gen&#45;anagrafica.js&#45;&gt;lib/gen&#45;dinamic&#45;data/gen&#45;birthday.js</title>
<path fill="none" stroke="#000000" stroke-width="2" stroke-opacity="0.466667" d="M493.2224,-574.4893C507.1822,-573.3458 522.7606,-572.0698 537.0466,-570.8996"/>
<polygon fill="#000000" fill-opacity="0.466667" stroke="#000000" stroke-width="2" stroke-opacity="0.466667" points="537.498,-574.3745 547.1789,-570.0697 536.9265,-567.3978 537.498,-574.3745"/>
</g>
<!-- lib/gen&#45;dinamic&#45;data/gen&#45;anagrafica.js&#45;&gt;lib/util/random&#45;array&#45;element.js -->
<g id="edge24" class="edge">
<title>lib/gen&#45;dinamic&#45;data/gen&#45;anagrafica.js&#45;&gt;lib/util/random&#45;array&#45;element.js</title>
<path fill="none" stroke="#000000" stroke-width="2" stroke-opacity="0.466667" d="M492.9822,-585.5495C502.9532,-587.6558 513.4787,-590.1584 523.1304,-593 581.3055,-610.128 646.8335,-637.3833 683.2974,-653.2971"/>
<polygon fill="#000000" fill-opacity="0.466667" stroke="#000000" stroke-width="2" stroke-opacity="0.466667" points="682.2181,-656.6459 692.7811,-657.4671 685.0357,-650.238 682.2181,-656.6459"/>
</g>
<!-- lib/gen&#45;dinamic&#45;data/gen&#45;company.js -->
<g id="node15" class="node">
<title>lib/gen&#45;dinamic&#45;data/gen&#45;company.js</title>
<g id="a_node15"><a xlink:href="lib/gen-dinamic-data/gen-company.js" xlink:title="gen&#45;company.js">
<path fill="#ffffcc" stroke="#000000" d="M484.0634,-197.5C484.0634,-197.5 416.6602,-197.5 416.6602,-197.5 413.8269,-197.5 410.9935,-194.6667 410.9935,-191.8333 410.9935,-191.8333 410.9935,-186.1667 410.9935,-186.1667 410.9935,-183.3333 413.8269,-180.5 416.6602,-180.5 416.6602,-180.5 484.0634,-180.5 484.0634,-180.5 486.8968,-180.5 489.7301,-183.3333 489.7301,-186.1667 489.7301,-186.1667 489.7301,-191.8333 489.7301,-191.8333 489.7301,-194.6667 486.8968,-197.5 484.0634,-197.5"/>
<text text-anchor="middle" x="450.3618" y="-186.3" font-family="Helvetica,sans-Serif" font-size="9.00" fill="#000000">gen&#45;company.js</text>
</a>
</g>
</g>
<!-- lib/gen&#45;dinamic&#45;data/gen&#45;legal&#45;type&#45;id.js -->
<g id="node16" class="node">
<title>lib/gen&#45;dinamic&#45;data/gen&#45;legal&#45;type&#45;id.js</title>
<g id="a_node16"><a xlink:href="lib/gen-dinamic-data/gen-legal-type-id.js" xlink:title="gen&#45;legal&#45;type&#45;id.js">
<path fill="#ffffcc" stroke="#000000" d="M366.9459,-495.5C366.9459,-495.5 286.2021,-495.5 286.2021,-495.5 283.3687,-495.5 280.5354,-492.6667 280.5354,-489.8333 280.5354,-489.8333 280.5354,-484.1667 280.5354,-484.1667 280.5354,-481.3333 283.3687,-478.5 286.2021,-478.5 286.2021,-478.5 366.9459,-478.5 366.9459,-478.5 369.7792,-478.5 372.6126,-481.3333 372.6126,-484.1667 372.6126,-484.1667 372.6126,-489.8333 372.6126,-489.8333 372.6126,-492.6667 369.7792,-495.5 366.9459,-495.5"/>
<text text-anchor="middle" x="326.574" y="-484.3" font-family="Helvetica,sans-Serif" font-size="9.00" fill="#000000">gen&#45;legal&#45;type&#45;id.js</text>
</a>
</g>
</g>
<!-- lib/gen&#45;dinamic&#45;data/gen&#45;national&#45;id/index.js -->
<g id="node17" class="node">
<title>lib/gen&#45;dinamic&#45;data/gen&#45;national&#45;id/index.js</title>
<g id="a_node17"><a xlink:href="lib/gen-dinamic-data/gen-national-id/index.js" xlink:title="index.js">
<path fill="#ffffcc" stroke="#000000" d="M471.6951,-290.5C471.6951,-290.5 429.0285,-290.5 429.0285,-290.5 426.1951,-290.5 423.3618,-287.6667 423.3618,-284.8333 423.3618,-284.8333 423.3618,-279.1667 423.3618,-279.1667 423.3618,-276.3333 426.1951,-273.5 429.0285,-273.5 429.0285,-273.5 471.6951,-273.5 471.6951,-273.5 474.5285,-273.5 477.3618,-276.3333 477.3618,-279.1667 477.3618,-279.1667 477.3618,-284.8333 477.3618,-284.8333 477.3618,-287.6667 474.5285,-290.5 471.6951,-290.5"/>
<text text-anchor="middle" x="450.3618" y="-279.3" font-family="Helvetica,sans-Serif" font-size="9.00" fill="#000000">index.js</text>
</a>
</g>
</g>
<!-- lib/gen&#45;dinamic&#45;data/gen&#45;national&#45;id/it.national&#45;id/index.js -->
<g id="node20" class="node">
<title>lib/gen&#45;dinamic&#45;data/gen&#45;national&#45;id/it.national&#45;id/index.js</title>
<g id="a_node20"><a xlink:href="lib/gen-dinamic-data/gen-national-id/it.national-id/index.js" xlink:title="index.js">
<path fill="#ffffcc" stroke="#000000" d="M605.9889,-239.5C605.9889,-239.5 563.3222,-239.5 563.3222,-239.5 560.4889,-239.5 557.6555,-236.6667 557.6555,-233.8333 557.6555,-233.8333 557.6555,-228.1667 557.6555,-228.1667 557.6555,-225.3333 560.4889,-222.5 563.3222,-222.5 563.3222,-222.5 605.9889,-222.5 605.9889,-222.5 608.8222,-222.5 611.6555,-225.3333 611.6555,-228.1667 611.6555,-228.1667 611.6555,-233.8333 611.6555,-233.8333 611.6555,-236.6667 608.8222,-239.5 605.9889,-239.5"/>
<text text-anchor="middle" x="584.6555" y="-228.3" font-family="Helvetica,sans-Serif" font-size="9.00" fill="#000000">index.js</text>
</a>
</g>
</g>
<!-- lib/gen&#45;dinamic&#45;data/gen&#45;national&#45;id/index.js&#45;&gt;lib/gen&#45;dinamic&#45;data/gen&#45;national&#45;id/it.national&#45;id/index.js -->
<g id="edge26" class="edge">
<title>lib/gen&#45;dinamic&#45;data/gen&#45;national&#45;id/index.js&#45;&gt;lib/gen&#45;dinamic&#45;data/gen&#45;national&#45;id/it.national&#45;id/index.js</title>
<path fill="none" stroke="#000000" stroke-width="2" stroke-opacity="0.466667" d="M477.4877,-284.0854C492.5937,-283.7805 510.7859,-280.7805 523.1304,-270 532.2368,-262.0473 522.3277,-252.2877 531.1304,-244 535.7908,-239.6121 541.6736,-236.6301 547.8208,-234.6187"/>
<polygon fill="#000000" fill-opacity="0.466667" stroke="#000000" stroke-width="2" stroke-opacity="0.466667" points="548.7021,-238.0062 557.5607,-232.1944 547.0113,-231.2135 548.7021,-238.0062"/>
</g>
<!-- lib/gen&#45;dinamic&#45;data/gen&#45;national&#45;id/static&#45;nat&#45;ids.js -->
<g id="node21" class="node">
<title>lib/gen&#45;dinamic&#45;data/gen&#45;national&#45;id/static&#45;nat&#45;ids.js</title>
<g id="a_node21"><a xlink:href="lib/gen-dinamic-data/gen-national-id/static-nat-ids.js" xlink:title="static&#45;nat&#45;ids.js">
<path fill="#ffffcc" stroke="#000000" d="M617.005,-290.5C617.005,-290.5 552.3061,-290.5 552.3061,-290.5 549.4727,-290.5 546.6394,-287.6667 546.6394,-284.8333 546.6394,-284.8333 546.6394,-279.1667 546.6394,-279.1667 546.6394,-276.3333 549.4727,-273.5 552.3061,-273.5 552.3061,-273.5 617.005,-273.5 617.005,-273.5 619.8383,-273.5 622.6716,-276.3333 622.6716,-279.1667 622.6716,-279.1667 622.6716,-284.8333 622.6716,-284.8333 622.6716,-287.6667 619.8383,-290.5 617.005,-290.5"/>
<text text-anchor="middle" x="584.6555" y="-279.3" font-family="Helvetica,sans-Serif" font-size="9.00" fill="#000000">static&#45;nat&#45;ids.js</text>
</a>
</g>
</g>
<!-- lib/gen&#45;dinamic&#45;data/gen&#45;national&#45;id/index.js&#45;&gt;lib/gen&#45;dinamic&#45;data/gen&#45;national&#45;id/static&#45;nat&#45;ids.js -->
<g id="edge27" class="edge">
<title>lib/gen&#45;dinamic&#45;data/gen&#45;national&#45;id/index.js&#45;&gt;lib/gen&#45;dinamic&#45;data/gen&#45;national&#45;id/static&#45;nat&#45;ids.js</title>
<path fill="none" stroke="#000000" stroke-width="2" stroke-opacity="0.466667" d="M477.5382,-282C494.442,-282 516.6596,-282 536.4761,-282"/>
<polygon fill="#000000" fill-opacity="0.466667" stroke="#000000" stroke-width="2" stroke-opacity="0.466667" points="536.5792,-285.5001 546.5792,-282 536.5792,-278.5001 536.5792,-285.5001"/>
</g>
<!-- lib/gen&#45;dinamic&#45;data/gen&#45;national&#45;id/it.national&#45;id/CodiceFiscale.js -->
<g id="node18" class="node">
<title>lib/gen&#45;dinamic&#45;data/gen&#45;national&#45;id/it.national&#45;id/CodiceFiscale.js</title>
<g id="a_node18"><a xlink:href="lib/gen-dinamic-data/gen-national-id/it.national-id/CodiceFiscale.js" xlink:title="CodiceFiscale.js">
<path fill="#ffffcc" stroke="#000000" d="M746.5464,-239.5C746.5464,-239.5 676.832,-239.5 676.832,-239.5 673.9987,-239.5 671.1654,-236.6667 671.1654,-233.8333 671.1654,-233.8333 671.1654,-228.1667 671.1654,-228.1667 671.1654,-225.3333 673.9987,-222.5 676.832,-222.5 676.832,-222.5 746.5464,-222.5 746.5464,-222.5 749.3797,-222.5 752.2131,-225.3333 752.2131,-228.1667 752.2131,-228.1667 752.2131,-233.8333 752.2131,-233.8333 752.2131,-236.6667 749.3797,-239.5 746.5464,-239.5"/>
<text text-anchor="middle" x="711.6892" y="-228.3" font-family="Helvetica,sans-Serif" font-size="9.00" fill="#000000">CodiceFiscale.js</text>
</a>
</g>
</g>
<!-- lib/gen&#45;dinamic&#45;data/gen&#45;national&#45;id/it.national&#45;id/constants.js -->
<g id="node19" class="node">
<title>lib/gen&#45;dinamic&#45;data/gen&#45;national&#45;id/it.national&#45;id/constants.js</title>
<g id="a_node19"><a xlink:href="lib/gen-dinamic-data/gen-national-id/it.national-id/constants.js" xlink:title="constants.js">
<path fill="#ffffcc" stroke="#000000" d="M849.8232,-239.5C849.8232,-239.5 798.108,-239.5 798.108,-239.5 795.2747,-239.5 792.4413,-236.6667 792.4413,-233.8333 792.4413,-233.8333 792.4413,-228.1667 792.4413,-228.1667 792.4413,-225.3333 795.2747,-222.5 798.108,-222.5 798.108,-222.5 849.8232,-222.5 849.8232,-222.5 852.6565,-222.5 855.4898,-225.3333 855.4898,-228.1667 855.4898,-228.1667 855.4898,-233.8333 855.4898,-233.8333 855.4898,-236.6667 852.6565,-239.5 849.8232,-239.5"/>
<text text-anchor="middle" x="823.9656" y="-228.3" font-family="Helvetica,sans-Serif" font-size="9.00" fill="#000000">constants.js</text>
</a>
</g>
</g>
<!-- lib/gen&#45;dinamic&#45;data/gen&#45;national&#45;id/it.national&#45;id/CodiceFiscale.js&#45;&gt;lib/gen&#45;dinamic&#45;data/gen&#45;national&#45;id/it.national&#45;id/constants.js -->
<g id="edge28" class="edge">
<title>lib/gen&#45;dinamic&#45;data/gen&#45;national&#45;id/it.national&#45;id/CodiceFiscale.js&#45;&gt;lib/gen&#45;dinamic&#45;data/gen&#45;national&#45;id/it.national&#45;id/constants.js</title>
<path fill="none" stroke="#000000" stroke-width="2" stroke-opacity="0.466667" d="M752.2236,-231C761.9105,-231 772.2708,-231 782.0199,-231"/>
<polygon fill="#000000" fill-opacity="0.466667" stroke="#000000" stroke-width="2" stroke-opacity="0.466667" points="782.2981,-234.5001 792.298,-231 782.298,-227.5001 782.2981,-234.5001"/>
</g>
<!-- lib/gen&#45;dinamic&#45;data/gen&#45;national&#45;id/it.national&#45;id/index.js&#45;&gt;lib/gen&#45;dinamic&#45;data/gen&#45;national&#45;id/it.national&#45;id/CodiceFiscale.js -->
<g id="edge29" class="edge">
<title>lib/gen&#45;dinamic&#45;data/gen&#45;national&#45;id/it.national&#45;id/index.js&#45;&gt;lib/gen&#45;dinamic&#45;data/gen&#45;national&#45;id/it.national&#45;id/CodiceFiscale.js</title>
<path fill="none" stroke="#000000" stroke-width="2" stroke-opacity="0.466667" d="M611.9074,-231C626.1555,-231 644.065,-231 660.7646,-231"/>
<polygon fill="#000000" fill-opacity="0.466667" stroke="#000000" stroke-width="2" stroke-opacity="0.466667" points="660.9626,-234.5001 670.9626,-231 660.9625,-227.5001 660.9626,-234.5001"/>
</g>
<!-- lib/gen&#45;dinamic&#45;data/gen&#45;phone&#45;number/index.js -->
<g id="node22" class="node">
<title>lib/gen&#45;dinamic&#45;data/gen&#45;phone&#45;number/index.js</title>
<g id="a_node22"><a xlink:href="lib/gen-dinamic-data/gen-phone-number/index.js" xlink:title="index.js">
<path fill="#ffffcc" stroke="#000000" d="M471.6951,-521.5C471.6951,-521.5 429.0285,-521.5 429.0285,-521.5 426.1951,-521.5 423.3618,-518.6667 423.3618,-515.8333 423.3618,-515.8333 423.3618,-510.1667 423.3618,-510.1667 423.3618,-507.3333 426.1951,-504.5 429.0285,-504.5 429.0285,-504.5 471.6951,-504.5 471.6951,-504.5 474.5285,-504.5 477.3618,-507.3333 477.3618,-510.1667 477.3618,-510.1667 477.3618,-515.8333 477.3618,-515.8333 477.3618,-518.6667 474.5285,-521.5 471.6951,-521.5"/>
<text text-anchor="middle" x="450.3618" y="-510.3" font-family="Helvetica,sans-Serif" font-size="9.00" fill="#000000">index.js</text>
</a>
</g>
</g>
<!-- lib/gen&#45;dinamic&#45;data/gen&#45;phone&#45;number/index.js&#45;&gt;lib/data/index.js -->
<g id="edge30" class="edge">
<title>lib/gen&#45;dinamic&#45;data/gen&#45;phone&#45;number/index.js&#45;&gt;lib/data/index.js</title>
<path fill="none" stroke="#000000" stroke-width="2" stroke-opacity="0.466667" d="M477.592,-512.2558C493.5309,-510.2552 512.5471,-504.8386 523.1304,-491 532.5839,-478.6386 526.9671,-225.9947 531.1304,-211 539.3677,-181.3318 558.7441,-151.0146 571.7801,-132.8491"/>
<polygon fill="#000000" fill-opacity="0.466667" stroke="#000000" stroke-width="2" stroke-opacity="0.466667" points="574.802,-134.6488 577.9266,-124.5252 569.1708,-130.4907 574.802,-134.6488"/>
</g>
<!-- lib/gen&#45;dinamic&#45;data/gen&#45;phone&#45;number/index.js&#45;&gt;lib/util/random&#45;number.js -->
<g id="edge31" class="edge">
<title>lib/gen&#45;dinamic&#45;data/gen&#45;phone&#45;number/index.js&#45;&gt;lib/util/random&#45;number.js</title>
<path fill="none" stroke="#000000" stroke-width="2" stroke-opacity="0.466667" d="M477.4033,-510.3514C493.0656,-510.417 511.8562,-513.5288 523.1304,-526 538.8232,-543.3591 514.7219,-614.3156 531.1304,-631 547.9598,-648.1125 620.8365,-624.9396 638.6726,-641 652.1454,-653.1315 633.9474,-668.0864 646.6726,-681 649.9523,-684.3283 653.8198,-686.9541 658.0074,-689.0164"/>
<polygon fill="#000000" fill-opacity="0.466667" stroke="#000000" stroke-width="2" stroke-opacity="0.466667" points="656.9915,-692.3753 667.5819,-692.685 659.4962,-685.8387 656.9915,-692.3753"/>
</g>
<!-- lib/gen&#45;dinamic&#45;data/gen&#45;vat.js -->
<g id="node23" class="node">
<title>lib/gen&#45;dinamic&#45;data/gen&#45;vat.js</title>
<g id="a_node23"><a xlink:href="lib/gen-dinamic-data/gen-vat.js" xlink:title="gen&#45;vat.js">
<path fill="#ffffcc" stroke="#000000" d="M472.2142,-615.5C472.2142,-615.5 428.5094,-615.5 428.5094,-615.5 425.6761,-615.5 422.8428,-612.6667 422.8428,-609.8333 422.8428,-609.8333 422.8428,-604.1667 422.8428,-604.1667 422.8428,-601.3333 425.6761,-598.5 428.5094,-598.5 428.5094,-598.5 472.2142,-598.5 472.2142,-598.5 475.0475,-598.5 477.8809,-601.3333 477.8809,-604.1667 477.8809,-604.1667 477.8809,-609.8333 477.8809,-609.8333 477.8809,-612.6667 475.0475,-615.5 472.2142,-615.5"/>
<text text-anchor="middle" x="450.3618" y="-604.3" font-family="Helvetica,sans-Serif" font-size="9.00" fill="#000000">gen&#45;vat.js</text>
</a>
</g>
</g>
<!-- lib/gen&#45;dinamic&#45;data/gen&#45;vat.js&#45;&gt;lib/util/random&#45;number.js -->
<g id="edge32" class="edge">
<title>lib/gen&#45;dinamic&#45;data/gen&#45;vat.js&#45;&gt;lib/util/random&#45;number.js</title>
<path fill="none" stroke="#000000" stroke-width="2" stroke-opacity="0.466667" d="M469.7784,-615.5711C504.6085,-630.6615 580.2739,-662.1553 646.6726,-681 650.4388,-682.0689 654.3479,-683.1002 658.2959,-684.0852"/>
<polygon fill="#000000" fill-opacity="0.466667" stroke="#000000" stroke-width="2" stroke-opacity="0.466667" points="657.5913,-687.5153 668.1308,-686.4331 659.2168,-680.7066 657.5913,-687.5153"/>
</g>
<!-- lib/gen&#45;dinamic&#45;data/index.js -->
<g id="node24" class="node">
<title>lib/gen&#45;dinamic&#45;data/index.js</title>
<g id="a_node24"><a xlink:href="lib/gen-dinamic-data/index.js" xlink:title="index.js">
<path fill="#ffffcc" stroke="#000000" d="M347.9073,-442.5C347.9073,-442.5 305.2406,-442.5 305.2406,-442.5 302.4073,-442.5 299.574,-439.6667 299.574,-436.8333 299.574,-436.8333 299.574,-431.1667 299.574,-431.1667 299.574,-428.3333 302.4073,-425.5 305.2406,-425.5 305.2406,-425.5 347.9073,-425.5 347.9073,-425.5 350.7406,-425.5 353.574,-428.3333 353.574,-431.1667 353.574,-431.1667 353.574,-436.8333 353.574,-436.8333 353.574,-439.6667 350.7406,-442.5 347.9073,-442.5"/>
<text text-anchor="middle" x="326.574" y="-431.3" font-family="Helvetica,sans-Serif" font-size="9.00" fill="#000000">index.js</text>
</a>
</g>
</g>
<!-- lib/gen&#45;dinamic&#45;data/index.js&#45;&gt;lib/gen&#45;dinamic&#45;data/gen&#45;address/index.js -->
<g id="edge33" class="edge">
<title>lib/gen&#45;dinamic&#45;data/index.js&#45;&gt;lib/gen&#45;dinamic&#45;data/gen&#45;address/index.js</title>
<path fill="none" stroke="#000000" stroke-width="2" stroke-opacity="0.466667" d="M353.7397,-428.7331C371.2347,-425.3412 394.2031,-420.8881 413.3562,-417.1746"/>
<polygon fill="#000000" fill-opacity="0.466667" stroke="#000000" stroke-width="2" stroke-opacity="0.466667" points="414.1084,-420.5941 423.2594,-415.2546 412.776,-413.722 414.1084,-420.5941"/>
</g>
<!-- lib/gen&#45;dinamic&#45;data/index.js&#45;&gt;lib/gen&#45;dinamic&#45;data/gen&#45;anagrafica.js -->
<g id="edge34" class="edge">
<title>lib/gen&#45;dinamic&#45;data/index.js&#45;&gt;lib/gen&#45;dinamic&#45;data/gen&#45;anagrafica.js</title>
<path fill="none" stroke="#000000" stroke-width="2" stroke-opacity="0.466667" d="M341.5198,-442.584C351.991,-449.4288 365.3588,-460.0072 372.5933,-473 391.6125,-507.1579 359.6959,-530.7115 385.5933,-560 389.1265,-563.9958 393.4624,-567.1387 398.2019,-569.6056"/>
<polygon fill="#000000" fill-opacity="0.466667" stroke="#000000" stroke-width="2" stroke-opacity="0.466667" points="397.1314,-572.9511 407.7086,-573.5634 399.8219,-566.4888 397.1314,-572.9511"/>
</g>
<!-- lib/gen&#45;dinamic&#45;data/index.js&#45;&gt;lib/gen&#45;dinamic&#45;data/gen&#45;birthday.js -->
<g id="edge35" class="edge">
<title>lib/gen&#45;dinamic&#45;data/index.js&#45;&gt;lib/gen&#45;dinamic&#45;data/gen&#45;birthday.js</title>
<path fill="none" stroke="#000000" stroke-width="2" stroke-opacity="0.466667" d="M341.4469,-442.6251C351.8818,-449.4903 365.2362,-460.0762 372.5933,-473 389.7633,-503.1618 360.066,-526.4861 385.5933,-550 391.1021,-555.0744 479.8195,-561.0414 536.9391,-564.3857"/>
<polygon fill="#000000" fill-opacity="0.466667" stroke="#000000" stroke-width="2" stroke-opacity="0.466667" points="537.0246,-567.8964 547.2097,-564.9788 537.4282,-560.908 537.0246,-567.8964"/>
</g>
<!-- lib/gen&#45;dinamic&#45;data/index.js&#45;&gt;lib/gen&#45;dinamic&#45;data/gen&#45;company.js -->
<g id="edge36" class="edge">
<title>lib/gen&#45;dinamic&#45;data/index.js&#45;&gt;lib/gen&#45;dinamic&#45;data/gen&#45;company.js</title>
<path fill="none" stroke="#000000" stroke-width="2" stroke-opacity="0.466667" d="M327.5755,-425.3279C332.1501,-387.2193 352.2816,-235.0929 385.5933,-203 389.9454,-198.8071 395.2386,-195.7454 400.9035,-193.5274"/>
<polygon fill="#000000" fill-opacity="0.466667" stroke="#000000" stroke-width="2" stroke-opacity="0.466667" points="402.1453,-196.8078 410.6873,-190.5401 400.1011,-190.1129 402.1453,-196.8078"/>
</g>
<!-- lib/gen&#45;dinamic&#45;data/index.js&#45;&gt;lib/gen&#45;dinamic&#45;data/gen&#45;national&#45;id/index.js -->
<g id="edge37" class="edge">
<title>lib/gen&#45;dinamic&#45;data/index.js&#45;&gt;lib/gen&#45;dinamic&#45;data/gen&#45;national&#45;id/index.js</title>
<path fill="none" stroke="#000000" stroke-width="2" stroke-opacity="0.466667" d="M331.6141,-425.4745C341.2439,-409.4528 363.2912,-374.0305 385.5933,-347 400.3701,-329.0902 419.3153,-310.5045 432.8926,-297.8178"/>
<polygon fill="#000000" fill-opacity="0.466667" stroke="#000000" stroke-width="2" stroke-opacity="0.466667" points="435.5892,-300.0921 440.5675,-290.7397 430.8435,-294.9463 435.5892,-300.0921"/>
</g>
<!-- lib/gen&#45;dinamic&#45;data/index.js&#45;&gt;lib/gen&#45;dinamic&#45;data/gen&#45;phone&#45;number/index.js -->
<g id="edge38" class="edge">
<title>lib/gen&#45;dinamic&#45;data/index.js&#45;&gt;lib/gen&#45;dinamic&#45;data/gen&#45;phone&#45;number/index.js</title>
<path fill="none" stroke="#000000" stroke-width="2" stroke-opacity="0.466667" d="M338.2223,-442.5917C347.9585,-450.0621 361.9243,-461.4699 372.5933,-473 379.2955,-480.2431 377.6567,-485.1354 385.5933,-491 393.7451,-497.0236 403.6608,-501.4762 413.2581,-504.7356"/>
<polygon fill="#000000" fill-opacity="0.466667" stroke="#000000" stroke-width="2" stroke-opacity="0.466667" points="412.4711,-508.1545 423.0569,-507.7163 414.5083,-501.4575 412.4711,-508.1545"/>
</g>
<!-- lib/gen&#45;dinamic&#45;data/index.js&#45;&gt;lib/gen&#45;dinamic&#45;data/gen&#45;vat.js -->
<g id="edge39" class="edge">
<title>lib/gen&#45;dinamic&#45;data/index.js&#45;&gt;lib/gen&#45;dinamic&#45;data/gen&#45;vat.js</title>
<path fill="none" stroke="#000000" stroke-width="2" stroke-opacity="0.466667" d="M342.1243,-442.7883C352.6022,-449.599 365.721,-460.0487 372.5933,-473 385.1656,-496.6937 367.6478,-573.0646 385.5933,-593 392.5204,-600.6952 402.582,-604.7101 412.718,-606.6813"/>
<polygon fill="#000000" fill-opacity="0.466667" stroke="#000000" stroke-width="2" stroke-opacity="0.466667" points="412.3884,-610.1683 422.7655,-608.0318 413.3209,-603.2307 412.3884,-610.1683"/>
</g>
<!-- lib/generate&#45;credentials.js -->
<g id="node26" class="node">
<title>lib/generate&#45;credentials.js</title>
<g id="a_node26"><a xlink:href="lib/generate-credentials.js" xlink:title="generate&#45;credentials.js">
<path fill="#ffffcc" stroke="#000000" d="M632.5392,-799.5C632.5392,-799.5 536.7719,-799.5 536.7719,-799.5 533.9385,-799.5 531.1052,-796.6667 531.1052,-793.8333 531.1052,-793.8333 531.1052,-788.1667 531.1052,-788.1667 531.1052,-785.3333 533.9385,-782.5 536.7719,-782.5 536.7719,-782.5 632.5392,-782.5 632.5392,-782.5 635.3725,-782.5 638.2058,-785.3333 638.2058,-788.1667 638.2058,-788.1667 638.2058,-793.8333 638.2058,-793.8333 638.2058,-796.6667 635.3725,-799.5 632.5392,-799.5"/>
<text text-anchor="middle" x="584.6555" y="-788.3" font-family="Helvetica,sans-Serif" font-size="9.00" fill="#000000">generate&#45;credentials.js</text>
</a>
</g>
</g>
<!-- lib/util/get&#45;my&#45;date.js -->
<g id="node39" class="node">
<title>lib/util/get&#45;my&#45;date.js</title>
<g id="a_node39"><a xlink:href="lib/util/get-my-date.js" xlink:title="get&#45;my&#45;date.js">
<path fill="#ffffcc" stroke="#000000" d="M742.5416,-732.5C742.5416,-732.5 680.8368,-732.5 680.8368,-732.5 678.0035,-732.5 675.1702,-729.6667 675.1702,-726.8333 675.1702,-726.8333 675.1702,-721.1667 675.1702,-721.1667 675.1702,-718.3333 678.0035,-715.5 680.8368,-715.5 680.8368,-715.5 742.5416,-715.5 742.5416,-715.5 745.3749,-715.5 748.2083,-718.3333 748.2083,-721.1667 748.2083,-721.1667 748.2083,-726.8333 748.2083,-726.8333 748.2083,-729.6667 745.3749,-732.5 742.5416,-732.5"/>
<text text-anchor="middle" x="711.6892" y="-721.3" font-family="Helvetica,sans-Serif" font-size="9.00" fill="#000000">get&#45;my&#45;date.js</text>
</a>
</g>
</g>
<!-- lib/generate&#45;credentials.js&#45;&gt;lib/util/get&#45;my&#45;date.js -->
<g id="edge40" class="edge">
<title>lib/generate&#45;credentials.js&#45;&gt;lib/util/get&#45;my&#45;date.js</title>
<path fill="none" stroke="#000000" stroke-width="2" stroke-opacity="0.466667" d="M625.7524,-782.4269C630.5883,-780.021 635.0729,-776.9414 638.6726,-773 649.1414,-761.5374 635.6718,-749.9531 646.6726,-739 651.8648,-733.8303 658.4602,-730.2996 665.4484,-727.9134"/>
<polygon fill="#000000" fill-opacity="0.466667" stroke="#000000" stroke-width="2" stroke-opacity="0.466667" points="666.3717,-731.2896 675.1264,-725.3226 664.5615,-724.5277 666.3717,-731.2896"/>
</g>
<!-- lib/get&#45;static&#45;data/get&#45;static&#45;national&#45;id.js -->
<g id="node27" class="node">
<title>lib/get&#45;static&#45;data/get&#45;static&#45;national&#45;id.js</title>
<g id="a_node27"><a xlink:href="lib/get-static-data/get-static-national-id.js" xlink:title="get&#45;static&#45;national&#45;id.js">
<path fill="#ffffcc" stroke="#000000" d="M497.7347,-674.5C497.7347,-674.5 402.9889,-674.5 402.9889,-674.5 400.1556,-674.5 397.3223,-671.6667 397.3223,-668.8333 397.3223,-668.8333 397.3223,-663.1667 397.3223,-663.1667 397.3223,-660.3333 400.1556,-657.5 402.9889,-657.5 402.9889,-657.5 497.7347,-657.5 497.7347,-657.5 500.568,-657.5 503.4014,-660.3333 503.4014,-663.1667 503.4014,-663.1667 503.4014,-668.8333 503.4014,-668.8333 503.4014,-671.6667 500.568,-674.5 497.7347,-674.5"/>
<text text-anchor="middle" x="450.3618" y="-663.3" font-family="Helvetica,sans-Serif" font-size="9.00" fill="#000000">get&#45;static&#45;national&#45;id.js</text>
</a>
</g>
</g>
<!-- lib/get&#45;static&#45;data/get&#45;static&#45;profile&#45;merchant.js -->
<g id="node28" class="node">
<title>lib/get&#45;static&#45;data/get&#45;static&#45;profile&#45;merchant.js</title>
<g id="a_node28"><a xlink:href="lib/get-static-data/get-static-profile-merchant.js" xlink:title="get&#45;static&#45;profile&#45;merchant.js">
<path fill="#ffffcc" stroke="#000000" d="M509.2331,-703.5C509.2331,-703.5 391.4905,-703.5 391.4905,-703.5 388.6572,-703.5 385.8239,-700.6667 385.8239,-697.8333 385.8239,-697.8333 385.8239,-692.1667 385.8239,-692.1667 385.8239,-689.3333 388.6572,-686.5 391.4905,-686.5 391.4905,-686.5 509.2331,-686.5 509.2331,-686.5 512.0664,-686.5 514.8997,-689.3333 514.8997,-692.1667 514.8997,-692.1667 514.8997,-697.8333 514.8997,-697.8333 514.8997,-700.6667 512.0664,-703.5 509.2331,-703.5"/>
<text text-anchor="middle" x="450.3618" y="-692.3" font-family="Helvetica,sans-Serif" font-size="9.00" fill="#000000">get&#45;static&#45;profile&#45;merchant.js</text>
</a>
</g>
</g>
<!-- lib/get&#45;static&#45;data/get&#45;static&#45;profile&#45;personal.js -->
<g id="node29" class="node">
<title>lib/get&#45;static&#45;data/get&#45;static&#45;profile&#45;personal.js</title>
<g id="a_node29"><a xlink:href="lib/get-static-data/get-static-profile-personal.js" xlink:title="get&#45;static&#45;profile&#45;personal.js">
<path fill="#ffffcc" stroke="#000000" d="M507.7404,-732.5C507.7404,-732.5 392.9832,-732.5 392.9832,-732.5 390.1499,-732.5 387.3166,-729.6667 387.3166,-726.8333 387.3166,-726.8333 387.3166,-721.1667 387.3166,-721.1667 387.3166,-718.3333 390.1499,-715.5 392.9832,-715.5 392.9832,-715.5 507.7404,-715.5 507.7404,-715.5 510.5737,-715.5 513.4071,-718.3333 513.4071,-721.1667 513.4071,-721.1667 513.4071,-726.8333 513.4071,-726.8333 513.4071,-729.6667 510.5737,-732.5 507.7404,-732.5"/>
<text text-anchor="middle" x="450.3618" y="-721.3" font-family="Helvetica,sans-Serif" font-size="9.00" fill="#000000">get&#45;static&#45;profile&#45;personal.js</text>
</a>
</g>
</g>
<!-- lib/get&#45;static&#45;data/get&#45;static&#45;vat&#45;id.js -->
<g id="node30" class="node">
<title>lib/get&#45;static&#45;data/get&#45;static&#45;vat&#45;id.js</title>
<g id="a_node30"><a xlink:href="lib/get-static-data/get-static-vat-id.js" xlink:title="get&#45;static&#45;vat&#45;id.js">
<path fill="#ffffcc" stroke="#000000" d="M487.7155,-761.5C487.7155,-761.5 413.0081,-761.5 413.0081,-761.5 410.1748,-761.5 407.3414,-758.6667 407.3414,-755.8333 407.3414,-755.8333 407.3414,-750.1667 407.3414,-750.1667 407.3414,-747.3333 410.1748,-744.5 413.0081,-744.5 413.0081,-744.5 487.7155,-744.5 487.7155,-744.5 490.5489,-744.5 493.3822,-747.3333 493.3822,-750.1667 493.3822,-750.1667 493.3822,-755.8333 493.3822,-755.8333 493.3822,-758.6667 490.5489,-761.5 487.7155,-761.5"/>
<text text-anchor="middle" x="450.3618" y="-750.3" font-family="Helvetica,sans-Serif" font-size="9.00" fill="#000000">get&#45;static&#45;vat&#45;id.js</text>
</a>
</g>
</g>
<!-- lib/get&#45;static&#45;data/index.js -->
<g id="node31" class="node">
<title>lib/get&#45;static&#45;data/index.js</title>
<g id="a_node31"><a xlink:href="lib/get-static-data/index.js" xlink:title="index.js">
<path fill="#ffffcc" stroke="#000000" d="M347.9073,-703.5C347.9073,-703.5 305.2406,-703.5 305.2406,-703.5 302.4073,-703.5 299.574,-700.6667 299.574,-697.8333 299.574,-697.8333 299.574,-692.1667 299.574,-692.1667 299.574,-689.3333 302.4073,-686.5 305.2406,-686.5 305.2406,-686.5 347.9073,-686.5 347.9073,-686.5 350.7406,-686.5 353.574,-689.3333 353.574,-692.1667 353.574,-692.1667 353.574,-697.8333 353.574,-697.8333 353.574,-700.6667 350.7406,-703.5 347.9073,-703.5"/>
<text text-anchor="middle" x="326.574" y="-692.3" font-family="Helvetica,sans-Serif" font-size="9.00" fill="#000000">index.js</text>
</a>
</g>
</g>
<!-- lib/get&#45;static&#45;data/index.js&#45;&gt;lib/get&#45;static&#45;data/get&#45;static&#45;national&#45;id.js -->
<g id="edge41" class="edge">
<title>lib/get&#45;static&#45;data/index.js&#45;&gt;lib/get&#45;static&#45;data/get&#45;static&#45;national&#45;id.js</title>
<path fill="none" stroke="#000000" stroke-width="2" stroke-opacity="0.466667" d="M353.5978,-688.5578C363.6417,-686.1718 375.1354,-683.4513 385.5933,-681 391.3525,-679.65 397.4016,-678.2394 403.3937,-676.8465"/>
<polygon fill="#000000" fill-opacity="0.466667" stroke="#000000" stroke-width="2" stroke-opacity="0.466667" points="404.413,-680.2031 413.3629,-674.5329 402.8305,-673.3843 404.413,-680.2031"/>
</g>
<!-- lib/get&#45;static&#45;data/index.js&#45;&gt;lib/get&#45;static&#45;data/get&#45;static&#45;profile&#45;merchant.js -->
<g id="edge42" class="edge">
<title>lib/get&#45;static&#45;data/index.js&#45;&gt;lib/get&#45;static&#45;data/get&#45;static&#45;profile&#45;merchant.js</title>
<path fill="none" stroke="#000000" stroke-width="2" stroke-opacity="0.466667" d="M353.7397,-695C360.3708,-695 367.7881,-695 375.486,-695"/>
<polygon fill="#000000" fill-opacity="0.466667" stroke="#000000" stroke-width="2" stroke-opacity="0.466667" points="375.7247,-698.5001 385.7247,-695 375.7246,-691.5001 375.7247,-698.5001"/>
</g>
<!-- lib/get&#45;static&#45;data/index.js&#45;&gt;lib/get&#45;static&#45;data/get&#45;static&#45;profile&#45;personal.js -->
<g id="edge43" class="edge">
<title>lib/get&#45;static&#45;data/index.js&#45;&gt;lib/get&#45;static&#45;data/get&#45;static&#45;profile&#45;personal.js</title>
<path fill="none" stroke="#000000" stroke-width="2" stroke-opacity="0.466667" d="M353.8505,-702.1506C363.8195,-704.7063 375.1987,-707.5565 385.5933,-710 390.2478,-711.0942 395.0982,-712.2021 399.9582,-713.2904"/>
<polygon fill="#000000" fill-opacity="0.466667" stroke="#000000" stroke-width="2" stroke-opacity="0.466667" points="399.3678,-716.7443 409.8877,-715.4862 400.8794,-709.9095 399.3678,-716.7443"/>
</g>
<!-- lib/get&#45;static&#45;data/index.js&#45;&gt;lib/get&#45;static&#45;data/get&#45;static&#45;vat&#45;id.js -->
<g id="edge44" class="edge">
<title>lib/get&#45;static&#45;data/index.js&#45;&gt;lib/get&#45;static&#45;data/get&#45;static&#45;vat&#45;id.js</title>
<path fill="none" stroke="#000000" stroke-width="2" stroke-opacity="0.466667" d="M335.3844,-703.5158C346.2785,-713.5547 365.815,-730.0069 385.5933,-739 389.2586,-740.6666 393.1324,-742.1392 397.0891,-743.4397"/>
<polygon fill="#000000" fill-opacity="0.466667" stroke="#000000" stroke-width="2" stroke-opacity="0.466667" points="396.444,-746.8971 407.0236,-746.3302 398.3996,-740.1758 396.444,-746.8971"/>
</g>
<!-- lib/index.js -->
<g id="node32" class="node">
<title>lib/index.js</title>
<g id="a_node32"><a xlink:href="lib/index.js" xlink:title="index.js">
<path fill="#ffffcc" stroke="#000000" d="M64.3333,-138.5C64.3333,-138.5 21.6667,-138.5 21.6667,-138.5 18.8333,-138.5 16,-135.6667 16,-132.8333 16,-132.8333 16,-127.1667 16,-127.1667 16,-124.3333 18.8333,-121.5 21.6667,-121.5 21.6667,-121.5 64.3333,-121.5 64.3333,-121.5 67.1667,-121.5 70,-124.3333 70,-127.1667 70,-127.1667 70,-132.8333 70,-132.8333 70,-135.6667 67.1667,-138.5 64.3333,-138.5"/>
<text text-anchor="middle" x="43" y="-127.3" font-family="Helvetica,sans-Serif" font-size="9.00" fill="#000000">index.js</text>
</a>
</g>
</g>
<!-- lib/profile/index.js -->
<g id="node36" class="node">
<title>lib/profile/index.js</title>
<g id="a_node36"><a xlink:href="lib/profile/index.js" xlink:title="index.js">
<path fill="#ffffcc" stroke="#000000" d="M149.0987,-138.5C149.0987,-138.5 106.432,-138.5 106.432,-138.5 103.5987,-138.5 100.7654,-135.6667 100.7654,-132.8333 100.7654,-132.8333 100.7654,-127.1667 100.7654,-127.1667 100.7654,-124.3333 103.5987,-121.5 106.432,-121.5 106.432,-121.5 149.0987,-121.5 149.0987,-121.5 151.932,-121.5 154.7654,-124.3333 154.7654,-127.1667 154.7654,-127.1667 154.7654,-132.8333 154.7654,-132.8333 154.7654,-135.6667 151.932,-138.5 149.0987,-138.5"/>
<text text-anchor="middle" x="127.7654" y="-127.3" font-family="Helvetica,sans-Serif" font-size="9.00" fill="#000000">index.js</text>
</a>
</g>
</g>
<!-- lib/index.js&#45;&gt;lib/profile/index.js -->
<g id="edge45" class="edge">
<title>lib/index.js&#45;&gt;lib/profile/index.js</title>
<path fill="none" stroke="#000000" stroke-width="2" stroke-opacity="0.466667" d="M70.2869,-130C76.6391,-130 83.5117,-130 90.2205,-130"/>
<polygon fill="#000000" fill-opacity="0.466667" stroke="#000000" stroke-width="2" stroke-opacity="0.466667" points="90.5297,-133.5001 100.5296,-130 90.5296,-126.5001 90.5297,-133.5001"/>
</g>
<!-- lib/profile/Profile.js -->
<g id="node33" class="node">
<title>lib/profile/Profile.js</title>
<g id="a_node33"><a xlink:href="lib/profile/Profile.js" xlink:title="Profile.js">
<path fill="#ffffcc" stroke="#000000" d="M347.9073,-109.5C347.9073,-109.5 305.2406,-109.5 305.2406,-109.5 302.4073,-109.5 299.574,-106.6667 299.574,-103.8333 299.574,-103.8333 299.574,-98.1667 299.574,-98.1667 299.574,-95.3333 302.4073,-92.5 305.2406,-92.5 305.2406,-92.5 347.9073,-92.5 347.9073,-92.5 350.7406,-92.5 353.574,-95.3333 353.574,-98.1667 353.574,-98.1667 353.574,-103.8333 353.574,-103.8333 353.574,-106.6667 350.7406,-109.5 347.9073,-109.5"/>
<text text-anchor="middle" x="326.574" y="-98.3" font-family="Helvetica,sans-Serif" font-size="9.00" fill="#000000">Profile.js</text>
</a>
</g>
</g>
<!-- lib/profile/Profile.js&#45;&gt;lib/data/index.js -->
<g id="edge46" class="edge">
<title>lib/profile/Profile.js&#45;&gt;lib/data/index.js</title>
<path fill="none" stroke="#000000" stroke-width="2" stroke-opacity="0.466667" d="M353.7054,-102.5769C400.0774,-105.2721 494.6556,-110.7691 547.256,-113.8263"/>
<polygon fill="#000000" fill-opacity="0.466667" stroke="#000000" stroke-width="2" stroke-opacity="0.466667" points="547.3141,-117.3355 557.5003,-114.4217 547.7203,-110.3473 547.3141,-117.3355"/>
</g>
<!-- lib/profile/__tests/profile.spec.js -->
<g id="node34" class="node">
<title>lib/profile/__tests/profile.spec.js</title>
<g id="a_node34"><a xlink:href="lib/profile/__tests/profile.spec.js" xlink:title="profile.spec.js">
<path fill="#ffffcc" stroke="#000000" d="M250.9,-87.5C250.9,-87.5 191.1855,-87.5 191.1855,-87.5 188.3521,-87.5 185.5188,-84.6667 185.5188,-81.8333 185.5188,-81.8333 185.5188,-76.1667 185.5188,-76.1667 185.5188,-73.3333 188.3521,-70.5 191.1855,-70.5 191.1855,-70.5 250.9,-70.5 250.9,-70.5 253.7333,-70.5 256.5667,-73.3333 256.5667,-76.1667 256.5667,-76.1667 256.5667,-81.8333 256.5667,-81.8333 256.5667,-84.6667 253.7333,-87.5 250.9,-87.5"/>
<text text-anchor="middle" x="221.0427" y="-76.3" font-family="Helvetica,sans-Serif" font-size="9.00" fill="#000000">profile.spec.js</text>
</a>
</g>
</g>
<!-- lib/profile/__tests/profile.spec.js&#45;&gt;lib/profile/Profile.js -->
<g id="edge47" class="edge">
<title>lib/profile/__tests/profile.spec.js&#45;&gt;lib/profile/Profile.js</title>
<path fill="none" stroke="#000000" stroke-width="2" stroke-opacity="0.466667" d="M256.7708,-86.4482C267.3743,-88.6587 279.006,-91.0836 289.6818,-93.3091"/>
<polygon fill="#000000" fill-opacity="0.466667" stroke="#000000" stroke-width="2" stroke-opacity="0.466667" points="289.0559,-96.7538 299.5598,-95.3684 290.4845,-89.9011 289.0559,-96.7538"/>
</g>
<!-- lib/profile/get&#45;profile.js -->
<g id="node35" class="node">
<title>lib/profile/get&#45;profile.js</title>
<g id="a_node35"><a xlink:href="lib/profile/get-profile.js" xlink:title="get&#45;profile.js">
<path fill="#ffffcc" stroke="#000000" d="M247.8971,-138.5C247.8971,-138.5 194.1884,-138.5 194.1884,-138.5 191.3551,-138.5 188.5217,-135.6667 188.5217,-132.8333 188.5217,-132.8333 188.5217,-127.1667 188.5217,-127.1667 188.5217,-124.3333 191.3551,-121.5 194.1884,-121.5 194.1884,-121.5 247.8971,-121.5 247.8971,-121.5 250.7304,-121.5 253.5637,-124.3333 253.5637,-127.1667 253.5637,-127.1667 253.5637,-132.8333 253.5637,-132.8333 253.5637,-135.6667 250.7304,-138.5 247.8971,-138.5"/>
<text text-anchor="middle" x="221.0427" y="-127.3" font-family="Helvetica,sans-Serif" font-size="9.00" fill="#000000">get&#45;profile.js</text>
</a>
</g>
</g>
<!-- lib/profile/get&#45;profile.js&#45;&gt;lib/gen&#45;dinamic&#45;data/index.js -->
<g id="edge48" class="edge">
<title>lib/profile/get&#45;profile.js&#45;&gt;lib/gen&#45;dinamic&#45;data/index.js</title>
<path fill="none" stroke="#000000" stroke-width="2" stroke-opacity="0.466667" d="M224.0873,-138.7703C238.5329,-180.3833 300.2915,-358.289 320.2945,-415.911"/>
<polygon fill="#000000" fill-opacity="0.466667" stroke="#000000" stroke-width="2" stroke-opacity="0.466667" points="317.0319,-417.1853 323.6179,-425.4845 323.6448,-414.8897 317.0319,-417.1853"/>
</g>
<!-- lib/profile/get&#45;profile.js&#45;&gt;lib/get&#45;static&#45;data/index.js -->
<g id="edge49" class="edge">
<title>lib/profile/get&#45;profile.js&#45;&gt;lib/get&#45;static&#45;data/index.js</title>
<path fill="none" stroke="#000000" stroke-width="2" stroke-opacity="0.466667" d="M221.0928,-138.6494C221.5578,-198.3638 226.2527,-549.8391 272.5547,-644 279.7204,-658.5724 292.9043,-671.1471 304.4532,-680.1642"/>
<polygon fill="#000000" fill-opacity="0.466667" stroke="#000000" stroke-width="2" stroke-opacity="0.466667" points="302.7118,-683.2284 312.8394,-686.3403 306.8629,-677.592 302.7118,-683.2284"/>
</g>
<!-- lib/profile/get&#45;profile.js&#45;&gt;lib/profile/Profile.js -->
<g id="edge53" class="edge">
<title>lib/profile/get&#45;profile.js&#45;&gt;lib/profile/Profile.js</title>
<path fill="none" stroke="#000000" stroke-width="2" stroke-opacity="0.466667" d="M252.1348,-121.4559C263.8196,-118.2449 277.2207,-114.5623 289.4033,-111.2145"/>
<polygon fill="#000000" fill-opacity="0.466667" stroke="#000000" stroke-width="2" stroke-opacity="0.466667" points="290.5705,-114.5236 299.2856,-108.4989 288.7156,-107.7738 290.5705,-114.5236"/>
</g>
<!-- lib/profile/mcc&#45;validate.js -->
<g id="node37" class="node">
<title>lib/profile/mcc&#45;validate.js</title>
<g id="a_node37"><a xlink:href="lib/profile/mcc-validate.js" xlink:title="mcc&#45;validate.js">
<path fill="#ffffcc" stroke="#000000" d="M358.424,-138.5C358.424,-138.5 294.724,-138.5 294.724,-138.5 291.8906,-138.5 289.0573,-135.6667 289.0573,-132.8333 289.0573,-132.8333 289.0573,-127.1667 289.0573,-127.1667 289.0573,-124.3333 291.8906,-121.5 294.724,-121.5 294.724,-121.5 358.424,-121.5 358.424,-121.5 361.2573,-121.5 364.0907,-124.3333 364.0907,-127.1667 364.0907,-127.1667 364.0907,-132.8333 364.0907,-132.8333 364.0907,-135.6667 361.2573,-138.5 358.424,-138.5"/>
<text text-anchor="middle" x="326.574" y="-127.3" font-family="Helvetica,sans-Serif" font-size="9.00" fill="#000000">mcc&#45;validate.js</text>
</a>
</g>
</g>
<!-- lib/profile/get&#45;profile.js&#45;&gt;lib/profile/mcc&#45;validate.js -->
<g id="edge54" class="edge">
<title>lib/profile/get&#45;profile.js&#45;&gt;lib/profile/mcc&#45;validate.js</title>
<path fill="none" stroke="#000000" stroke-width="2" stroke-opacity="0.466667" d="M253.5667,-130C261.4889,-130 270.1287,-130 278.6022,-130"/>
<polygon fill="#000000" fill-opacity="0.466667" stroke="#000000" stroke-width="2" stroke-opacity="0.466667" points="278.7961,-133.5001 288.7961,-130 278.7961,-126.5001 278.7961,-133.5001"/>
</g>
<!-- lib/profile/get&#45;profile.js&#45;&gt;lib/util/get&#45;my&#45;date.js -->
<g id="edge50" class="edge">
<title>lib/profile/get&#45;profile.js&#45;&gt;lib/util/get&#45;my&#45;date.js</title>
<path fill="none" stroke="#000000" stroke-width="2" stroke-opacity="0.466667" d="M221.3793,-138.5047C224.4057,-213.9692 247.4014,-766.7334 272.5547,-790 292.9934,-808.9056 499.4468,-804.6373 523.1304,-790 529.8934,-785.8202 525.0528,-779.1257 531.1304,-774 572.1469,-739.4073 594.8256,-752.8167 646.6726,-739 652.6961,-737.3948 659.0601,-735.8016 665.3553,-734.2864"/>
<polygon fill="#000000" fill-opacity="0.466667" stroke="#000000" stroke-width="2" stroke-opacity="0.466667" points="666.2036,-737.6824 675.1322,-731.9789 664.5956,-730.8696 666.2036,-737.6824"/>
</g>
<!-- lib/util/get&#45;random&#45;user.js -->
<g id="node40" class="node">
<title>lib/util/get&#45;random&#45;user.js</title>
<g id="a_node40"><a xlink:href="lib/util/get-random-user.js" xlink:title="get&#45;random&#45;user.js">
<path fill="#ffffcc" stroke="#000000" d="M751.5592,-761.5C751.5592,-761.5 671.8192,-761.5 671.8192,-761.5 668.9859,-761.5 666.1526,-758.6667 666.1526,-755.8333 666.1526,-755.8333 666.1526,-750.1667 666.1526,-750.1667 666.1526,-747.3333 668.9859,-744.5 671.8192,-744.5 671.8192,-744.5 751.5592,-744.5 751.5592,-744.5 754.3925,-744.5 757.2258,-747.3333 757.2258,-750.1667 757.2258,-750.1667 757.2258,-755.8333 757.2258,-755.8333 757.2258,-758.6667 754.3925,-761.5 751.5592,-761.5"/>
<text text-anchor="middle" x="711.6892" y="-750.3" font-family="Helvetica,sans-Serif" font-size="9.00" fill="#000000">get&#45;random&#45;user.js</text>
</a>
</g>
</g>
<!-- lib/profile/get&#45;profile.js&#45;&gt;lib/util/get&#45;random&#45;user.js -->
<g id="edge51" class="edge">
<title>lib/profile/get&#45;profile.js&#45;&gt;lib/util/get&#45;random&#45;user.js</title>
<path fill="none" stroke="#000000" stroke-width="2" stroke-opacity="0.466667" d="M221.3794,-138.6279C224.4062,-215.1862 247.4047,-775.9764 272.5547,-800 301.9778,-828.1054 607.2664,-833.8705 638.6726,-808 653.0027,-796.1958 633.6725,-780.2547 646.6726,-767 649.5466,-764.0698 652.8759,-761.6834 656.4789,-759.7463"/>
<polygon fill="#000000" fill-opacity="0.466667" stroke="#000000" stroke-width="2" stroke-opacity="0.466667" points="658.0231,-762.8942 665.8947,-755.8028 655.3189,-756.4376 658.0231,-762.8942"/>
</g>
<!-- lib/util/logger.js -->
<g id="node42" class="node">
<title>lib/util/logger.js</title>
<g id="a_node42"><a xlink:href="lib/util/logger.js" xlink:title="logger.js">
<path fill="#ffffcc" stroke="#000000" d="M845.2989,-790.5C845.2989,-790.5 802.6322,-790.5 802.6322,-790.5 799.7989,-790.5 796.9656,-787.6667 796.9656,-784.8333 796.9656,-784.8333 796.9656,-779.1667 796.9656,-779.1667 796.9656,-776.3333 799.7989,-773.5 802.6322,-773.5 802.6322,-773.5 845.2989,-773.5 845.2989,-773.5 848.1322,-773.5 850.9656,-776.3333 850.9656,-779.1667 850.9656,-779.1667 850.9656,-784.8333 850.9656,-784.8333 850.9656,-787.6667 848.1322,-790.5 845.2989,-790.5"/>
<text text-anchor="middle" x="823.9656" y="-779.3" font-family="Helvetica,sans-Serif" font-size="9.00" fill="#000000">logger.js</text>
</a>
</g>
</g>
<!-- lib/profile/get&#45;profile.js&#45;&gt;lib/util/logger.js -->
<g id="edge52" class="edge">
<title>lib/profile/get&#45;profile.js&#45;&gt;lib/util/logger.js</title>
<path fill="none" stroke="#000000" stroke-width="2" stroke-opacity="0.466667" d="M221.3859,-138.7819C224.4701,-216.7082 247.872,-787.5532 272.5547,-813 327.8268,-869.9833 370.9761,-830 450.3618,-830 450.3618,-830 450.3618,-830 584.6555,-830 666.4991,-830 691.5814,-851.3898 768.7058,-824 783.938,-818.5905 798.3795,-807.3184 808.6767,-797.8128"/>
<polygon fill="#000000" fill-opacity="0.466667" stroke="#000000" stroke-width="2" stroke-opacity="0.466667" points="811.2496,-800.193 815.9824,-790.714 806.3714,-795.1727 811.2496,-800.193"/>
</g>
<!-- lib/profile/index.js&#45;&gt;lib/profile/get&#45;profile.js -->
<g id="edge55" class="edge">
<title>lib/profile/index.js&#45;&gt;lib/profile/get&#45;profile.js</title>
<path fill="none" stroke="#000000" stroke-width="2" stroke-opacity="0.466667" d="M155.2472,-130C162.4961,-130 170.4923,-130 178.3389,-130"/>
<polygon fill="#000000" fill-opacity="0.466667" stroke="#000000" stroke-width="2" stroke-opacity="0.466667" points="178.4925,-133.5001 188.4925,-130 178.4925,-126.5001 178.4925,-133.5001"/>
</g>
<!-- lib/profile/mcc&#45;validate.js&#45;&gt;lib/data/index.js -->
<g id="edge56" class="edge">
<title>lib/profile/mcc&#45;validate.js&#45;&gt;lib/data/index.js</title>
<path fill="none" stroke="#000000" stroke-width="2" stroke-opacity="0.466667" d="M364.1012,-127.9643C413.0732,-125.3077 498.2746,-120.6859 547.2074,-118.0314"/>
<polygon fill="#000000" fill-opacity="0.466667" stroke="#000000" stroke-width="2" stroke-opacity="0.466667" points="547.5687,-121.5171 557.3644,-117.4804 547.1895,-114.5273 547.5687,-121.5171"/>
</g>
<!-- lib/profile/profile&#45;validate.js -->
<g id="node38" class="node">
<title>lib/profile/profile&#45;validate.js</title>
<g id="a_node38"><a xlink:href="lib/profile/profile-validate.js" xlink:title="profile&#45;validate.js">
<path fill="#ffffcc" stroke="#000000" d="M163.6308,-94.5C163.6308,-94.5 91.9,-94.5 91.9,-94.5 89.0666,-94.5 86.2333,-91.6667 86.2333,-88.8333 86.2333,-88.8333 86.2333,-83.1667 86.2333,-83.1667 86.2333,-80.3333 89.0666,-77.5 91.9,-77.5 91.9,-77.5 163.6308,-77.5 163.6308,-77.5 166.4641,-77.5 169.2975,-80.3333 169.2975,-83.1667 169.2975,-83.1667 169.2975,-88.8333 169.2975,-88.8333 169.2975,-91.6667 166.4641,-94.5 163.6308,-94.5"/>
<text text-anchor="middle" x="127.7654" y="-83.3" font-family="Helvetica,sans-Serif" font-size="9.00" fill="#000000">profile&#45;validate.js</text>
</a>
</g>
</g>
<!-- lib/util/get&#45;random&#45;user.js&#45;&gt;lib/util/logger.js -->
<g id="edge57" class="edge">
<title>lib/util/get&#45;random&#45;user.js&#45;&gt;lib/util/logger.js</title>
<path fill="none" stroke="#000000" stroke-width="2" stroke-opacity="0.466667" d="M747.0042,-761.5296C754.1934,-763.3058 761.6992,-765.1891 768.7058,-767 774.5633,-768.5139 780.7588,-770.1557 786.8007,-771.7791"/>
<polygon fill="#000000" fill-opacity="0.466667" stroke="#000000" stroke-width="2" stroke-opacity="0.466667" points="786.1696,-775.2342 796.7367,-774.4679 787.9982,-768.4772 786.1696,-775.2342"/>
</g>
<!-- lib/util/get&#45;random&#45;user/get&#45;random&#45;user.js -->
<g id="node41" class="node">
<title>lib/util/get&#45;random&#45;user/get&#45;random&#45;user.js</title>
<g id="a_node41"><a xlink:href="lib/util/get-random-user/get-random-user.js" xlink:title="get&#45;random&#45;user.js">
<path fill="#ffffcc" stroke="#000000" d="M751.5592,-795.5C751.5592,-795.5 671.8192,-795.5 671.8192,-795.5 668.9859,-795.5 666.1526,-792.6667 666.1526,-789.8333 666.1526,-789.8333 666.1526,-784.1667 666.1526,-784.1667 666.1526,-781.3333 668.9859,-778.5 671.8192,-778.5 671.8192,-778.5 751.5592,-778.5 751.5592,-778.5 754.3925,-778.5 757.2258,-781.3333 757.2258,-784.1667 757.2258,-784.1667 757.2258,-789.8333 757.2258,-789.8333 757.2258,-792.6667 754.3925,-795.5 751.5592,-795.5"/>
<text text-anchor="middle" x="711.6892" y="-784.3" font-family="Helvetica,sans-Serif" font-size="9.00" fill="#000000">get&#45;random&#45;user.js</text>
</a>
</g>
</g>
</g>
</svg>
