<?xml version="1.0" encoding="UTF-8" standalone="no"?>
<!DOCTYPE svg PUBLIC "-//W3C//DTD SVG 1.1//EN"
 "http://www.w3.org/Graphics/SVG/1.1/DTD/svg11.dtd">
<!-- Generated by graphviz version 2.40.1 (20161225.0304)
 -->
<!-- Title: dependency&#45;cruiser output Pages: 1 -->
<svg width="948pt" height="887pt"
 viewBox="0.00 0.00 947.52 887.00" xmlns="http://www.w3.org/2000/svg" xmlns:xlink="http://www.w3.org/1999/xlink">
<g id="graph0" class="graph" transform="scale(1 1) rotate(0) translate(4 883)">
<title>dependency&#45;cruiser output</title>
<polygon fill="#ffffff" stroke="transparent" points="-4,4 -4,-883 943.52,-883 943.52,4 -4,4"/>
<g id="clust1" class="cluster">
<title>cluster_lib</title>
<path fill="#ffffff" stroke="#000000" stroke-width="2" d="M20,-8C20,-8 919.52,-8 919.52,-8 925.52,-8 931.52,-14 931.52,-20 931.52,-20 931.52,-859 931.52,-859 931.52,-865 925.52,-871 919.52,-871 919.52,-871 20,-871 20,-871 14,-871 8,-865 8,-859 8,-859 8,-20 8,-20 8,-14 14,-8 20,-8"/>
<text text-anchor="middle" x="469.76" y="-859.8" font-family="Helvetica,sans-Serif" font-weight="bold" font-size="9.00" fill="#000000">lib</text>
</g>
<g id="clust2" class="cluster">
<title>cluster_lib/data</title>
<path fill="#ffffff" stroke="#000000" stroke-width="2" d="M579.9204,-560C579.9204,-560 881.009,-560 881.009,-560 887.009,-560 893.009,-566 893.009,-572 893.009,-572 893.009,-696 893.009,-696 893.009,-702 887.009,-708 881.009,-708 881.009,-708 579.9204,-708 579.9204,-708 573.9204,-708 567.9204,-702 567.9204,-696 567.9204,-696 567.9204,-572 567.9204,-572 567.9204,-566 573.9204,-560 579.9204,-560"/>
<text text-anchor="middle" x="730.4647" y="-696.8" font-family="Helvetica,sans-Serif" font-weight="bold" font-size="9.00" fill="#000000">data</text>
</g>
<g id="clust3" class="cluster">
<title>cluster_lib/data/__tests</title>
<path fill="#ffffff" stroke="#000000" stroke-width="2" d="M686.9441,-622C686.9441,-622 742.9719,-622 742.9719,-622 748.9719,-622 754.9719,-628 754.9719,-634 754.9719,-634 754.9719,-661 754.9719,-661 754.9719,-667 748.9719,-673 742.9719,-673 742.9719,-673 686.9441,-673 686.9441,-673 680.9441,-673 674.9441,-667 674.9441,-661 674.9441,-661 674.9441,-634 674.9441,-634 674.9441,-628 680.9441,-622 686.9441,-622"/>
<text text-anchor="middle" x="714.958" y="-661.8" font-family="Helvetica,sans-Serif" font-weight="bold" font-size="9.00" fill="#000000">__tests</text>
</g>
<g id="clust4" class="cluster">
<title>cluster_lib/gen&#45;dinamic&#45;data</title>
<path fill="#ffffff" stroke="#000000" stroke-width="2" d="M309.5811,-16C309.5811,-16 911.52,-16 911.52,-16 917.52,-16 923.52,-22 923.52,-28 923.52,-28 923.52,-482 923.52,-482 923.52,-488 917.52,-494 911.52,-494 911.52,-494 309.5811,-494 309.5811,-494 303.5811,-494 297.5811,-488 297.5811,-482 297.5811,-482 297.5811,-28 297.5811,-28 297.5811,-22 303.5811,-16 309.5811,-16"/>
<text text-anchor="middle" x="610.5505" y="-482.8" font-family="Helvetica,sans-Serif" font-weight="bold" font-size="9.00" fill="#000000">gen&#45;dinamic&#45;data</text>
</g>
<g id="clust5" class="cluster">
<title>cluster_lib/gen&#45;dinamic&#45;data/gen&#45;address</title>
<path fill="#ffffff" stroke="#000000" stroke-width="2" d="M452.3882,-50C452.3882,-50 644.9375,-50 644.9375,-50 650.9375,-50 656.9375,-56 656.9375,-62 656.9375,-62 656.9375,-176 656.9375,-176 656.9375,-182 650.9375,-188 644.9375,-188 644.9375,-188 452.3882,-188 452.3882,-188 446.3882,-188 440.3882,-182 440.3882,-176 440.3882,-176 440.3882,-62 440.3882,-62 440.3882,-56 446.3882,-50 452.3882,-50"/>
<text text-anchor="middle" x="548.6628" y="-176.8" font-family="Helvetica,sans-Serif" font-weight="bold" font-size="9.00" fill="#000000">gen&#45;address</text>
</g>
<g id="clust6" class="cluster">
<title>cluster_lib/gen&#45;dinamic&#45;data/gen&#45;national&#45;id</title>
<path fill="#ffffff" stroke="#000000" stroke-width="2" d="M452.3882,-359C452.3882,-359 878.5105,-359 878.5105,-359 884.5105,-359 890.5105,-365 890.5105,-371 890.5105,-371 890.5105,-457 890.5105,-457 890.5105,-463 884.5105,-469 878.5105,-469 878.5105,-469 452.3882,-469 452.3882,-469 446.3882,-469 440.3882,-463 440.3882,-457 440.3882,-457 440.3882,-371 440.3882,-371 440.3882,-365 446.3882,-359 452.3882,-359"/>
<text text-anchor="middle" x="665.4493" y="-457.8" font-family="Helvetica,sans-Serif" font-weight="bold" font-size="9.00" fill="#000000">gen&#45;national&#45;id</text>
</g>
<g id="clust7" class="cluster">
<title>cluster_lib/gen&#45;dinamic&#45;data/gen&#45;national&#45;id/it.national&#45;id</title>
<path fill="#ffffff" stroke="#000000" stroke-width="2" d="M579.9204,-367C579.9204,-367 870.5105,-367 870.5105,-367 876.5105,-367 882.5105,-373 882.5105,-379 882.5105,-379 882.5105,-406 882.5105,-406 882.5105,-412 876.5105,-418 870.5105,-418 870.5105,-418 579.9204,-418 579.9204,-418 573.9204,-418 567.9204,-412 567.9204,-406 567.9204,-406 567.9204,-379 567.9204,-379 567.9204,-373 573.9204,-367 579.9204,-367"/>
<text text-anchor="middle" x="725.2155" y="-406.8" font-family="Helvetica,sans-Serif" font-weight="bold" font-size="9.00" fill="#000000">it.national&#45;id</text>
</g>
<g id="clust8" class="cluster">
<title>cluster_lib/gen&#45;dinamic&#45;data/gen&#45;random&#45;var</title>
<path fill="#ffffff" stroke="#000000" stroke-width="2" d="M568.1567,-198C568.1567,-198 903.52,-198 903.52,-198 909.52,-198 915.52,-204 915.52,-210 915.52,-210 915.52,-299 915.52,-299 915.52,-305 909.52,-311 903.52,-311 903.52,-311 568.1567,-311 568.1567,-311 562.1567,-311 556.1567,-305 556.1567,-299 556.1567,-299 556.1567,-210 556.1567,-210 556.1567,-204 562.1567,-198 568.1567,-198"/>
<text text-anchor="middle" x="735.8384" y="-299.8" font-family="Helvetica,sans-Serif" font-weight="bold" font-size="9.00" fill="#000000">gen&#45;random&#45;var</text>
</g>
<g id="clust9" class="cluster">
<title>cluster_lib/gen&#45;dinamic&#45;data/gen&#45;random&#45;var/__tests</title>
<path fill="#ffffff" stroke="#000000" stroke-width="2" d="M576.1567,-206C576.1567,-206 629.6841,-206 629.6841,-206 635.6841,-206 641.6841,-212 641.6841,-218 641.6841,-218 641.6841,-274 641.6841,-274 641.6841,-280 635.6841,-286 629.6841,-286 629.6841,-286 576.1567,-286 576.1567,-286 570.1567,-286 564.1567,-280 564.1567,-274 564.1567,-274 564.1567,-218 564.1567,-218 564.1567,-212 570.1567,-206 576.1567,-206"/>
<text text-anchor="middle" x="602.9204" y="-274.8" font-family="Helvetica,sans-Serif" font-weight="bold" font-size="9.00" fill="#000000">__tests</text>
</g>
<g id="clust10" class="cluster">
<title>cluster_lib/get&#45;static&#45;data</title>
<path fill="#ffffff" stroke="#000000" stroke-width="2" d="M328.6003,-502C328.6003,-502 536.1567,-502 536.1567,-502 542.1567,-502 548.1567,-508 548.1567,-514 548.1567,-514 548.1567,-628 548.1567,-628 548.1567,-634 542.1567,-640 536.1567,-640 536.1567,-640 328.6003,-640 328.6003,-640 322.6003,-640 316.6003,-634 316.6003,-628 316.6003,-628 316.6003,-514 316.6003,-514 316.6003,-508 322.6003,-502 328.6003,-502"/>
<text text-anchor="middle" x="432.3785" y="-628.8" font-family="Helvetica,sans-Serif" font-weight="bold" font-size="9.00" fill="#000000">get&#45;static&#45;data</text>
</g>
<g id="clust11" class="cluster">
<title>cluster_lib/profile</title>
<path fill="#ffffff" stroke="#000000" stroke-width="2" d="M90,-648C90,-648 385.3579,-648 385.3579,-648 391.3579,-648 397.3579,-654 397.3579,-660 397.3579,-660 397.3579,-746 397.3579,-746 397.3579,-752 391.3579,-758 385.3579,-758 385.3579,-758 90,-758 90,-758 84,-758 78,-752 78,-746 78,-746 78,-660 78,-660 78,-654 84,-648 90,-648"/>
<text text-anchor="middle" x="237.679" y="-746.8" font-family="Helvetica,sans-Serif" font-weight="bold" font-size="9.00" fill="#000000">profile</text>
</g>
<g id="clust12" class="cluster">
<title>cluster_lib/profile/__tests</title>
<path fill="#ffffff" stroke="#000000" stroke-width="2" d="M204.5439,-656C204.5439,-656 267.5679,-656 267.5679,-656 273.5679,-656 279.5679,-662 279.5679,-668 279.5679,-668 279.5679,-695 279.5679,-695 279.5679,-701 273.5679,-707 267.5679,-707 267.5679,-707 204.5439,-707 204.5439,-707 198.5439,-707 192.5439,-701 192.5439,-695 192.5439,-695 192.5439,-668 192.5439,-668 192.5439,-662 198.5439,-656 204.5439,-656"/>
<text text-anchor="middle" x="236.0559" y="-695.8" font-family="Helvetica,sans-Serif" font-weight="bold" font-size="9.00" fill="#000000">__tests</text>
</g>
<g id="clust13" class="cluster">
<title>cluster_lib/util</title>
<path fill="#ffffff" stroke="#000000" stroke-width="2" d="M310.082,-766C310.082,-766 498.3882,-766 498.3882,-766 504.3882,-766 510.3882,-772 510.3882,-778 510.3882,-778 510.3882,-834 510.3882,-834 510.3882,-840 504.3882,-846 498.3882,-846 498.3882,-846 310.082,-846 310.082,-846 304.082,-846 298.082,-840 298.082,-834 298.082,-834 298.082,-778 298.082,-778 298.082,-772 304.082,-766 310.082,-766"/>
<text text-anchor="middle" x="404.2351" y="-834.8" font-family="Helvetica,sans-Serif" font-weight="bold" font-size="9.00" fill="#000000">util</text>
</g>
<!-- lib/data/__tests/data.spec.js -->
<g id="node1" class="node">
<title>lib/data/__tests/data.spec.js</title>
<g id="a_node1"><a xlink:href="lib/data/__tests/data.spec.js" xlink:title="data.spec.js">
<path fill="#ffffcc" stroke="#000000" d="M741.3192,-647.5C741.3192,-647.5 688.5968,-647.5 688.5968,-647.5 685.7635,-647.5 682.9302,-644.6667 682.9302,-641.8333 682.9302,-641.8333 682.9302,-636.1667 682.9302,-636.1667 682.9302,-633.3333 685.7635,-630.5 688.5968,-630.5 688.5968,-630.5 741.3192,-630.5 741.3192,-630.5 744.1525,-630.5 746.9858,-633.3333 746.9858,-636.1667 746.9858,-636.1667 746.9858,-641.8333 746.9858,-641.8333 746.9858,-644.6667 744.1525,-647.5 741.3192,-647.5"/>
<text text-anchor="middle" x="714.958" y="-636.3" font-family="Helvetica,sans-Serif" font-size="9.00" fill="#000000">data.spec.js</text>
</a>
</g>
</g>
<!-- lib/data/country&#45;list.js -->
<g id="node3" class="node">
<title>lib/data/country&#45;list.js</title>
<g id="a_node3"><a xlink:href="lib/data/country-list.js" xlink:title="country&#45;list.js">
<path fill="#ffffcc" stroke="#000000" d="M871.0946,-624.5C871.0946,-624.5 814.4039,-624.5 814.4039,-624.5 811.5706,-624.5 808.7373,-621.6667 808.7373,-618.8333 808.7373,-618.8333 808.7373,-613.1667 808.7373,-613.1667 808.7373,-610.3333 811.5706,-607.5 814.4039,-607.5 814.4039,-607.5 871.0946,-607.5 871.0946,-607.5 873.9279,-607.5 876.7613,-610.3333 876.7613,-613.1667 876.7613,-613.1667 876.7613,-618.8333 876.7613,-618.8333 876.7613,-621.6667 873.9279,-624.5 871.0946,-624.5"/>
<text text-anchor="middle" x="842.7493" y="-613.3" font-family="Helvetica,sans-Serif" font-size="9.00" fill="#000000">country&#45;list.js</text>
</a>
</g>
</g>
<!-- lib/data/__tests/data.spec.js&#45;&gt;lib/data/country&#45;list.js -->
<g id="edge1" class="edge">
<title>lib/data/__tests/data.spec.js&#45;&gt;lib/data/country&#45;list.js</title>
<path fill="none" stroke="#000000" stroke-width="2" stroke-opacity="0.466667" d="M747.2051,-633.1961C762.7579,-630.3969 781.6575,-626.9954 798.5291,-623.9588"/>
<polygon fill="#000000" fill-opacity="0.466667" stroke="#000000" stroke-width="2" stroke-opacity="0.466667" points="799.502,-627.34 808.7238,-622.1239 798.262,-620.4507 799.502,-627.34"/>
</g>
<!-- lib/data/mccs&#45;available.js -->
<g id="node5" class="node">
<title>lib/data/mccs&#45;available.js</title>
<g id="a_node5"><a xlink:href="lib/data/mccs-available.js" xlink:title="mccs&#45;available.js">
<path fill="#ffffcc" stroke="#000000" d="M879.1035,-669.5C879.1035,-669.5 806.395,-669.5 806.395,-669.5 803.5617,-669.5 800.7284,-666.6667 800.7284,-663.8333 800.7284,-663.8333 800.7284,-658.1667 800.7284,-658.1667 800.7284,-655.3333 803.5617,-652.5 806.395,-652.5 806.395,-652.5 879.1035,-652.5 879.1035,-652.5 881.9368,-652.5 884.7702,-655.3333 884.7702,-658.1667 884.7702,-658.1667 884.7702,-663.8333 884.7702,-663.8333 884.7702,-666.6667 881.9368,-669.5 879.1035,-669.5"/>
<text text-anchor="middle" x="842.7493" y="-658.3" font-family="Helvetica,sans-Serif" font-size="9.00" fill="#000000">mccs&#45;available.js</text>
</a>
</g>
</g>
<!-- lib/data/__tests/data.spec.js&#45;&gt;lib/data/mccs&#45;available.js -->
<g id="edge2" class="edge">
<title>lib/data/__tests/data.spec.js&#45;&gt;lib/data/mccs&#45;available.js</title>
<path fill="none" stroke="#000000" stroke-width="2" stroke-opacity="0.466667" d="M747.2051,-644.5515C760.3017,-646.8062 775.7715,-649.4694 790.4051,-651.9887"/>
<polygon fill="#000000" fill-opacity="0.466667" stroke="#000000" stroke-width="2" stroke-opacity="0.466667" points="789.9142,-655.4555 800.363,-653.703 791.1019,-648.557 789.9142,-655.4555"/>
</g>
<!-- lib/data/names&#45;list.js -->
<g id="node6" class="node">
<title>lib/data/names&#45;list.js</title>
<g id="a_node6"><a xlink:href="lib/data/names-list.js" xlink:title="names&#45;list.js">
<path fill="#ffffcc" stroke="#000000" d="M870.0924,-595.5C870.0924,-595.5 815.4062,-595.5 815.4062,-595.5 812.5728,-595.5 809.7395,-592.6667 809.7395,-589.8333 809.7395,-589.8333 809.7395,-584.1667 809.7395,-584.1667 809.7395,-581.3333 812.5728,-578.5 815.4062,-578.5 815.4062,-578.5 870.0924,-578.5 870.0924,-578.5 872.9257,-578.5 875.759,-581.3333 875.759,-584.1667 875.759,-584.1667 875.759,-589.8333 875.759,-589.8333 875.759,-592.6667 872.9257,-595.5 870.0924,-595.5"/>
<text text-anchor="middle" x="842.7493" y="-584.3" font-family="Helvetica,sans-Serif" font-size="9.00" fill="#000000">names&#45;list.js</text>
</a>
</g>
</g>
<!-- lib/data/__tests/data.spec.js&#45;&gt;lib/data/names&#45;list.js -->
<g id="edge3" class="edge">
<title>lib/data/__tests/data.spec.js&#45;&gt;lib/data/names&#45;list.js</title>
<path fill="none" stroke="#000000" stroke-width="2" stroke-opacity="0.466667" d="M747.2215,-635.5249C753.5673,-633.7151 759.8418,-631.0144 764.9785,-627 774.8461,-619.2884 768.0806,-609.6727 777.9785,-602 784.3287,-597.0774 792.0144,-593.7229 799.8398,-591.4475"/>
<polygon fill="#000000" fill-opacity="0.466667" stroke="#000000" stroke-width="2" stroke-opacity="0.466667" points="800.8113,-594.8143 809.7367,-589.1057 799.1995,-588.0024 800.8113,-594.8143"/>
</g>
<!-- lib/data/countries&#45;available.js -->
<g id="node2" class="node">
<title>lib/data/countries&#45;available.js</title>
<g id="a_node2"><a xlink:href="lib/data/countries-available.js" xlink:title="countries&#45;available.js">
<path fill="#ffffcc" stroke="#000000" d="M759.3324,-599.5C759.3324,-599.5 670.5837,-599.5 670.5837,-599.5 667.7503,-599.5 664.917,-596.6667 664.917,-593.8333 664.917,-593.8333 664.917,-588.1667 664.917,-588.1667 664.917,-585.3333 667.7503,-582.5 670.5837,-582.5 670.5837,-582.5 759.3324,-582.5 759.3324,-582.5 762.1657,-582.5 764.999,-585.3333 764.999,-588.1667 764.999,-588.1667 764.999,-593.8333 764.999,-593.8333 764.999,-596.6667 762.1657,-599.5 759.3324,-599.5"/>
<text text-anchor="middle" x="714.958" y="-588.3" font-family="Helvetica,sans-Serif" font-size="9.00" fill="#000000">countries&#45;available.js</text>
</a>
</g>
</g>
<!-- lib/data/countries&#45;available.js&#45;&gt;lib/data/country&#45;list.js -->
<g id="edge4" class="edge">
<title>lib/data/countries&#45;available.js&#45;&gt;lib/data/country&#45;list.js</title>
<path fill="none" stroke="#000000" stroke-width="2" stroke-opacity="0.466667" d="M758.5791,-599.5337C771.4731,-602.0561 785.596,-604.819 798.5275,-607.3488"/>
<polygon fill="#000000" fill-opacity="0.466667" stroke="#000000" stroke-width="2" stroke-opacity="0.466667" points="798.1107,-610.8336 808.5967,-609.3187 799.4547,-603.9638 798.1107,-610.8336"/>
</g>
<!-- lib/data/countries&#45;available.js&#45;&gt;lib/data/names&#45;list.js -->
<g id="edge5" class="edge">
<title>lib/data/countries&#45;available.js&#45;&gt;lib/data/names&#45;list.js</title>
<path fill="none" stroke="#000000" stroke-width="2" stroke-opacity="0.466667" d="M765.0977,-589.4306C776.4375,-589.0756 788.3842,-588.7017 799.4156,-588.3564"/>
<polygon fill="#000000" fill-opacity="0.466667" stroke="#000000" stroke-width="2" stroke-opacity="0.466667" points="799.7764,-591.8469 809.662,-588.0357 799.5573,-584.8503 799.7764,-591.8469"/>
</g>
<!-- lib/data/index.js -->
<g id="node4" class="node">
<title>lib/data/index.js</title>
<g id="a_node4"><a xlink:href="lib/data/index.js" xlink:title="index.js">
<path fill="#ffffcc" stroke="#000000" d="M624.2537,-610.5C624.2537,-610.5 581.5871,-610.5 581.5871,-610.5 578.7537,-610.5 575.9204,-607.6667 575.9204,-604.8333 575.9204,-604.8333 575.9204,-599.1667 575.9204,-599.1667 575.9204,-596.3333 578.7537,-593.5 581.5871,-593.5 581.5871,-593.5 624.2537,-593.5 624.2537,-593.5 627.0871,-593.5 629.9204,-596.3333 629.9204,-599.1667 629.9204,-599.1667 629.9204,-604.8333 629.9204,-604.8333 629.9204,-607.6667 627.0871,-610.5 624.2537,-610.5"/>
<text text-anchor="middle" x="602.9204" y="-599.3" font-family="Helvetica,sans-Serif" font-size="9.00" fill="#000000">index.js</text>
</a>
</g>
</g>
<!-- lib/data/index.js&#45;&gt;lib/data/countries&#45;available.js -->
<g id="edge6" class="edge">
<title>lib/data/index.js&#45;&gt;lib/data/countries&#45;available.js</title>
<path fill="none" stroke="#000000" stroke-width="2" stroke-opacity="0.466667" d="M630.0416,-599.3372C637.5822,-598.5969 646.0849,-597.7621 654.722,-596.914"/>
<polygon fill="#000000" fill-opacity="0.466667" stroke="#000000" stroke-width="2" stroke-opacity="0.466667" points="655.2633,-600.3778 664.8734,-595.9174 654.5793,-593.4113 655.2633,-600.3778"/>
</g>
<!-- lib/data/index.js&#45;&gt;lib/data/country&#45;list.js -->
<g id="edge7" class="edge">
<title>lib/data/index.js&#45;&gt;lib/data/country&#45;list.js</title>
<path fill="none" stroke="#000000" stroke-width="2" stroke-opacity="0.466667" d="M630.0867,-603.8007C640.9269,-604.5066 653.5217,-605.3109 664.9375,-606 710.4431,-608.7471 762.5152,-611.647 798.4942,-613.6125"/>
<polygon fill="#000000" fill-opacity="0.466667" stroke="#000000" stroke-width="2" stroke-opacity="0.466667" points="798.4811,-617.1169 808.6567,-614.1662 798.862,-610.1272 798.4811,-617.1169"/>
</g>
<!-- lib/data/index.js&#45;&gt;lib/data/mccs&#45;available.js -->
<g id="edge8" class="edge">
<title>lib/data/index.js&#45;&gt;lib/data/mccs&#45;available.js</title>
<path fill="none" stroke="#000000" stroke-width="2" stroke-opacity="0.466667" d="M607.1423,-611.0106C615.4708,-627.5699 635.7733,-662.3898 664.9375,-676 712.2815,-698.0943 774.4139,-684.5689 811.3044,-672.7657"/>
<polygon fill="#000000" fill-opacity="0.466667" stroke="#000000" stroke-width="2" stroke-opacity="0.466667" points="812.6378,-676.0103 821.0068,-669.5133 810.4129,-669.3732 812.6378,-676.0103"/>
</g>
<!-- lib/data/index.js&#45;&gt;lib/data/names&#45;list.js -->
<g id="edge9" class="edge">
<title>lib/data/index.js&#45;&gt;lib/data/names&#45;list.js</title>
<path fill="none" stroke="#000000" stroke-width="2" stroke-opacity="0.466667" d="M619.2346,-593.41C631.4434,-587.4877 648.7547,-580.139 664.9375,-577 710.2443,-568.2117 763.1677,-573.0714 799.4227,-578.6515"/>
<polygon fill="#000000" fill-opacity="0.466667" stroke="#000000" stroke-width="2" stroke-opacity="0.466667" points="799.2167,-582.1638 809.6486,-580.3126 800.3392,-575.2544 799.2167,-582.1638"/>
</g>
<!-- lib/gen&#45;dinamic&#45;data/gen&#45;address/br.address.js -->
<g id="node7" class="node">
<title>lib/gen&#45;dinamic&#45;data/gen&#45;address/br.address.js</title>
<g id="a_node7"><a xlink:href="lib/gen-dinamic-data/gen-address/br.address.js" xlink:title="br.address.js">
<path fill="#ffffcc" stroke="#000000" d="M630.783,-133.5C630.783,-133.5 575.0578,-133.5 575.0578,-133.5 572.2244,-133.5 569.3911,-130.6667 569.3911,-127.8333 569.3911,-127.8333 569.3911,-122.1667 569.3911,-122.1667 569.3911,-119.3333 572.2244,-116.5 575.0578,-116.5 575.0578,-116.5 630.783,-116.5 630.783,-116.5 633.6164,-116.5 636.4497,-119.3333 636.4497,-122.1667 636.4497,-122.1667 636.4497,-127.8333 636.4497,-127.8333 636.4497,-130.6667 633.6164,-133.5 630.783,-133.5"/>
<text text-anchor="middle" x="602.9204" y="-122.3" font-family="Helvetica,sans-Serif" font-size="9.00" fill="#000000">br.address.js</text>
</a>
</g>
</g>
<!-- lib/gen&#45;dinamic&#45;data/gen&#45;random&#45;var/index.js -->
<g id="node27" class="node">
<title>lib/gen&#45;dinamic&#45;data/gen&#45;random&#45;var/index.js</title>
<g id="a_node27"><a xlink:href="lib/gen-dinamic-data/gen-random-var/index.js" xlink:title="index.js">
<path fill="#ffffcc" stroke="#000000" d="M736.2913,-227.5C736.2913,-227.5 693.6247,-227.5 693.6247,-227.5 690.7913,-227.5 687.958,-224.6667 687.958,-221.8333 687.958,-221.8333 687.958,-216.1667 687.958,-216.1667 687.958,-213.3333 690.7913,-210.5 693.6247,-210.5 693.6247,-210.5 736.2913,-210.5 736.2913,-210.5 739.1247,-210.5 741.958,-213.3333 741.958,-216.1667 741.958,-216.1667 741.958,-221.8333 741.958,-221.8333 741.958,-224.6667 739.1247,-227.5 736.2913,-227.5"/>
<text text-anchor="middle" x="714.958" y="-216.3" font-family="Helvetica,sans-Serif" font-size="9.00" fill="#000000">index.js</text>
</a>
</g>
</g>
<!-- lib/gen&#45;dinamic&#45;data/gen&#45;address/br.address.js&#45;&gt;lib/gen&#45;dinamic&#45;data/gen&#45;random&#45;var/index.js -->
<g id="edge10" class="edge">
<title>lib/gen&#45;dinamic&#45;data/gen&#45;address/br.address.js&#45;&gt;lib/gen&#45;dinamic&#45;data/gen&#45;random&#45;var/index.js</title>
<path fill="none" stroke="#000000" stroke-width="2" stroke-opacity="0.466667" d="M636.4527,-130.5872C643.6157,-132.7695 650.8497,-135.7984 656.9375,-140 679.6258,-155.6588 696.8337,-183.1351 706.4117,-201.2018"/>
<polygon fill="#000000" fill-opacity="0.466667" stroke="#000000" stroke-width="2" stroke-opacity="0.466667" points="703.295,-202.7947 710.9342,-210.136 709.5405,-199.6332 703.295,-202.7947"/>
</g>
<!-- lib/gen&#45;dinamic&#45;data/gen&#45;address/ch.address.js -->
<g id="node8" class="node">
<title>lib/gen&#45;dinamic&#45;data/gen&#45;address/ch.address.js</title>
<g id="a_node8"><a xlink:href="lib/gen-dinamic-data/gen-address/ch.address.js" xlink:title="ch.address.js">
<path fill="#ffffcc" stroke="#000000" d="M631.7782,-162.5C631.7782,-162.5 574.0627,-162.5 574.0627,-162.5 571.2293,-162.5 568.396,-159.6667 568.396,-156.8333 568.396,-156.8333 568.396,-151.1667 568.396,-151.1667 568.396,-148.3333 571.2293,-145.5 574.0627,-145.5 574.0627,-145.5 631.7782,-145.5 631.7782,-145.5 634.6115,-145.5 637.4448,-148.3333 637.4448,-151.1667 637.4448,-151.1667 637.4448,-156.8333 637.4448,-156.8333 637.4448,-159.6667 634.6115,-162.5 631.7782,-162.5"/>
<text text-anchor="middle" x="602.9204" y="-151.3" font-family="Helvetica,sans-Serif" font-size="9.00" fill="#000000">ch.address.js</text>
</a>
</g>
</g>
<!-- lib/gen&#45;dinamic&#45;data/gen&#45;address/ch.address.js&#45;&gt;lib/gen&#45;dinamic&#45;data/gen&#45;random&#45;var/index.js -->
<g id="edge11" class="edge">
<title>lib/gen&#45;dinamic&#45;data/gen&#45;address/ch.address.js&#45;&gt;lib/gen&#45;dinamic&#45;data/gen&#45;random&#45;var/index.js</title>
<path fill="none" stroke="#000000" stroke-width="2" stroke-opacity="0.466667" d="M637.5624,-159.6451C644.2117,-161.4672 650.9593,-163.8614 656.9375,-167 673.8989,-175.9049 689.851,-190.8719 700.7193,-202.4682"/>
<polygon fill="#000000" fill-opacity="0.466667" stroke="#000000" stroke-width="2" stroke-opacity="0.466667" points="698.3797,-205.1 707.6764,-210.1815 703.5777,-200.4116 698.3797,-205.1"/>
</g>
<!-- lib/gen&#45;dinamic&#45;data/gen&#45;address/cl.address.js -->
<g id="node9" class="node">
<title>lib/gen&#45;dinamic&#45;data/gen&#45;address/cl.address.js</title>
<g id="a_node9"><a xlink:href="lib/gen-dinamic-data/gen-address/cl.address.js" xlink:title="cl.address.js">
<path fill="#ffffcc" stroke="#000000" d="M630.2723,-75.5C630.2723,-75.5 575.5685,-75.5 575.5685,-75.5 572.7352,-75.5 569.9019,-72.6667 569.9019,-69.8333 569.9019,-69.8333 569.9019,-64.1667 569.9019,-64.1667 569.9019,-61.3333 572.7352,-58.5 575.5685,-58.5 575.5685,-58.5 630.2723,-58.5 630.2723,-58.5 633.1056,-58.5 635.939,-61.3333 635.939,-64.1667 635.939,-64.1667 635.939,-69.8333 635.939,-69.8333 635.939,-72.6667 633.1056,-75.5 630.2723,-75.5"/>
<text text-anchor="middle" x="602.9204" y="-64.3" font-family="Helvetica,sans-Serif" font-size="9.00" fill="#000000">cl.address.js</text>
</a>
</g>
</g>
<!-- lib/gen&#45;dinamic&#45;data/gen&#45;address/cl.address.js&#45;&gt;lib/gen&#45;dinamic&#45;data/gen&#45;random&#45;var/index.js -->
<g id="edge12" class="edge">
<title>lib/gen&#45;dinamic&#45;data/gen&#45;address/cl.address.js&#45;&gt;lib/gen&#45;dinamic&#45;data/gen&#45;random&#45;var/index.js</title>
<path fill="none" stroke="#000000" stroke-width="2" stroke-opacity="0.466667" d="M636.1125,-71.2366C643.6172,-73.4715 651.0865,-76.8628 656.9375,-82 692.7505,-113.4439 707.0794,-170.728 712.2895,-200.2708"/>
<polygon fill="#000000" fill-opacity="0.466667" stroke="#000000" stroke-width="2" stroke-opacity="0.466667" points="708.8805,-201.1195 713.9112,-210.4438 715.7932,-200.0175 708.8805,-201.1195"/>
</g>
<!-- lib/gen&#45;dinamic&#45;data/gen&#45;address/es.region&#45;names.js -->
<g id="node10" class="node">
<title>lib/gen&#45;dinamic&#45;data/gen&#45;address/es.region&#45;names.js</title>
<g id="a_node10"><a xlink:href="lib/gen-dinamic-data/gen-address/es.region-names.js" xlink:title="es.region&#45;names.js">
<path fill="#ffffcc" stroke="#000000" d="M643.2879,-104.5C643.2879,-104.5 562.5529,-104.5 562.5529,-104.5 559.7196,-104.5 556.8862,-101.6667 556.8862,-98.8333 556.8862,-98.8333 556.8862,-93.1667 556.8862,-93.1667 556.8862,-90.3333 559.7196,-87.5 562.5529,-87.5 562.5529,-87.5 643.2879,-87.5 643.2879,-87.5 646.1213,-87.5 648.9546,-90.3333 648.9546,-93.1667 648.9546,-93.1667 648.9546,-98.8333 648.9546,-98.8333 648.9546,-101.6667 646.1213,-104.5 643.2879,-104.5"/>
<text text-anchor="middle" x="602.9204" y="-93.3" font-family="Helvetica,sans-Serif" font-size="9.00" fill="#000000">es.region&#45;names.js</text>
</a>
</g>
</g>
<!-- lib/gen&#45;dinamic&#45;data/gen&#45;address/es.region&#45;names.js&#45;&gt;lib/gen&#45;dinamic&#45;data/gen&#45;random&#45;var/index.js -->
<g id="edge13" class="edge">
<title>lib/gen&#45;dinamic&#45;data/gen&#45;address/es.region&#45;names.js&#45;&gt;lib/gen&#45;dinamic&#45;data/gen&#45;random&#45;var/index.js</title>
<path fill="none" stroke="#000000" stroke-width="2" stroke-opacity="0.466667" d="M646.3589,-104.5706C650.1452,-106.3291 653.7444,-108.4477 656.9375,-111 686.2052,-134.3949 702.6568,-176.6842 710.0787,-200.8197"/>
<polygon fill="#000000" fill-opacity="0.466667" stroke="#000000" stroke-width="2" stroke-opacity="0.466667" points="706.7354,-201.8581 712.8669,-210.4984 713.4619,-199.9203 706.7354,-201.8581"/>
</g>
<!-- lib/gen&#45;dinamic&#45;data/gen&#45;address/index.js -->
<g id="node11" class="node">
<title>lib/gen&#45;dinamic&#45;data/gen&#45;address/index.js</title>
<g id="a_node11"><a xlink:href="lib/gen-dinamic-data/gen-address/index.js" xlink:title="index.js">
<path fill="#ffffcc" stroke="#000000" d="M496.7215,-119.5C496.7215,-119.5 454.0549,-119.5 454.0549,-119.5 451.2215,-119.5 448.3882,-116.6667 448.3882,-113.8333 448.3882,-113.8333 448.3882,-108.1667 448.3882,-108.1667 448.3882,-105.3333 451.2215,-102.5 454.0549,-102.5 454.0549,-102.5 496.7215,-102.5 496.7215,-102.5 499.5549,-102.5 502.3882,-105.3333 502.3882,-108.1667 502.3882,-108.1667 502.3882,-113.8333 502.3882,-113.8333 502.3882,-116.6667 499.5549,-119.5 496.7215,-119.5"/>
<text text-anchor="middle" x="475.3882" y="-108.3" font-family="Helvetica,sans-Serif" font-size="9.00" fill="#000000">index.js</text>
</a>
</g>
</g>
<!-- lib/gen&#45;dinamic&#45;data/gen&#45;address/index.js&#45;&gt;lib/gen&#45;dinamic&#45;data/gen&#45;address/br.address.js -->
<g id="edge15" class="edge">
<title>lib/gen&#45;dinamic&#45;data/gen&#45;address/index.js&#45;&gt;lib/gen&#45;dinamic&#45;data/gen&#45;address/br.address.js</title>
<path fill="none" stroke="#000000" stroke-width="2" stroke-opacity="0.466667" d="M502.4345,-113.969C518.8447,-115.7705 540.1768,-118.1122 558.9624,-120.1745"/>
<polygon fill="#000000" fill-opacity="0.466667" stroke="#000000" stroke-width="2" stroke-opacity="0.466667" points="558.7671,-123.674 569.0894,-121.2862 559.5311,-116.7158 558.7671,-123.674"/>
</g>
<!-- lib/gen&#45;dinamic&#45;data/gen&#45;address/index.js&#45;&gt;lib/gen&#45;dinamic&#45;data/gen&#45;address/ch.address.js -->
<g id="edge16" class="edge">
<title>lib/gen&#45;dinamic&#45;data/gen&#45;address/index.js&#45;&gt;lib/gen&#45;dinamic&#45;data/gen&#45;address/ch.address.js</title>
<path fill="none" stroke="#000000" stroke-width="2" stroke-opacity="0.466667" d="M502.606,-110.162C517.3753,-111.0173 535.2057,-114.3178 548.1567,-124 554.5244,-128.7605 550.0709,-134.8841 556.1567,-140 557.142,-140.8282 558.1749,-141.6074 559.2464,-142.3405"/>
<polygon fill="#000000" fill-opacity="0.466667" stroke="#000000" stroke-width="2" stroke-opacity="0.466667" points="557.6029,-145.4307 568.0644,-147.1063 560.9312,-139.2725 557.6029,-145.4307"/>
</g>
<!-- lib/gen&#45;dinamic&#45;data/gen&#45;address/index.js&#45;&gt;lib/gen&#45;dinamic&#45;data/gen&#45;address/cl.address.js -->
<g id="edge17" class="edge">
<title>lib/gen&#45;dinamic&#45;data/gen&#45;address/index.js&#45;&gt;lib/gen&#45;dinamic&#45;data/gen&#45;address/cl.address.js</title>
<path fill="none" stroke="#000000" stroke-width="2" stroke-opacity="0.466667" d="M498.6414,-102.412C514.74,-96.5251 536.6896,-88.6148 556.1567,-82 559.3051,-80.9302 562.5796,-79.8382 565.8686,-78.7556"/>
<polygon fill="#000000" fill-opacity="0.466667" stroke="#000000" stroke-width="2" stroke-opacity="0.466667" points="567.2412,-81.9897 575.6678,-75.5678 565.0756,-75.3331 567.2412,-81.9897"/>
</g>
<!-- lib/gen&#45;dinamic&#45;data/gen&#45;address/index.js&#45;&gt;lib/gen&#45;dinamic&#45;data/gen&#45;address/es.region&#45;names.js -->
<g id="edge18" class="edge">
<title>lib/gen&#45;dinamic&#45;data/gen&#45;address/index.js&#45;&gt;lib/gen&#45;dinamic&#45;data/gen&#45;address/es.region&#45;names.js</title>
<path fill="none" stroke="#000000" stroke-width="2" stroke-opacity="0.466667" d="M502.4345,-107.8189C515.3899,-106.2951 531.413,-104.4105 546.8289,-102.5973"/>
<polygon fill="#000000" fill-opacity="0.466667" stroke="#000000" stroke-width="2" stroke-opacity="0.466667" points="547.3106,-106.0649 556.8333,-101.4206 546.4929,-99.1128 547.3106,-106.0649"/>
</g>
<!-- lib/gen&#45;dinamic&#45;data/map&#45;faker.js -->
<g id="node30" class="node">
<title>lib/gen&#45;dinamic&#45;data/map&#45;faker.js</title>
<g id="a_node30"><a xlink:href="lib/gen-dinamic-data/map-faker.js" xlink:title="map&#45;faker.js">
<path fill="#ffffcc" stroke="#000000" d="M629.7747,-41.5C629.7747,-41.5 576.0661,-41.5 576.0661,-41.5 573.2327,-41.5 570.3994,-38.6667 570.3994,-35.8333 570.3994,-35.8333 570.3994,-30.1667 570.3994,-30.1667 570.3994,-27.3333 573.2327,-24.5 576.0661,-24.5 576.0661,-24.5 629.7747,-24.5 629.7747,-24.5 632.6081,-24.5 635.4414,-27.3333 635.4414,-30.1667 635.4414,-30.1667 635.4414,-35.8333 635.4414,-35.8333 635.4414,-38.6667 632.6081,-41.5 629.7747,-41.5"/>
<text text-anchor="middle" x="602.9204" y="-30.3" font-family="Helvetica,sans-Serif" font-size="9.00" fill="#000000">map&#45;faker.js</text>
</a>
</g>
</g>
<!-- lib/gen&#45;dinamic&#45;data/gen&#45;address/index.js&#45;&gt;lib/gen&#45;dinamic&#45;data/map&#45;faker.js -->
<g id="edge14" class="edge">
<title>lib/gen&#45;dinamic&#45;data/gen&#45;address/index.js&#45;&gt;lib/gen&#45;dinamic&#45;data/map&#45;faker.js</title>
<path fill="none" stroke="#000000" stroke-width="2" stroke-opacity="0.466667" d="M484.0338,-102.2709C498.0112,-88.6212 526.965,-62.2155 556.1567,-47 557.6551,-46.219 559.2037,-45.4748 560.7856,-44.7663"/>
<polygon fill="#000000" fill-opacity="0.466667" stroke="#000000" stroke-width="2" stroke-opacity="0.466667" points="562.0761,-48.0198 570.0926,-41.0925 559.5059,-41.5087 562.0761,-48.0198"/>
</g>
<!-- lib/gen&#45;dinamic&#45;data/gen&#45;anagrafica.js -->
<g id="node12" class="node">
<title>lib/gen&#45;dinamic&#45;data/gen&#45;anagrafica.js</title>
<g id="a_node12"><a xlink:href="lib/gen-dinamic-data/gen-anagrafica.js" xlink:title="gen&#45;anagrafica.js">
<path fill="#ffffcc" stroke="#000000" d="M512.264,-321.5C512.264,-321.5 438.5124,-321.5 438.5124,-321.5 435.679,-321.5 432.8457,-318.6667 432.8457,-315.8333 432.8457,-315.8333 432.8457,-310.1667 432.8457,-310.1667 432.8457,-307.3333 435.679,-304.5 438.5124,-304.5 438.5124,-304.5 512.264,-304.5 512.264,-304.5 515.0973,-304.5 517.9307,-307.3333 517.9307,-310.1667 517.9307,-310.1667 517.9307,-315.8333 517.9307,-315.8333 517.9307,-318.6667 515.0973,-321.5 512.264,-321.5"/>
<text text-anchor="middle" x="475.3882" y="-310.3" font-family="Helvetica,sans-Serif" font-size="9.00" fill="#000000">gen&#45;anagrafica.js</text>
</a>
</g>
</g>
<!-- lib/gen&#45;dinamic&#45;data/gen&#45;anagrafica.js&#45;&gt;lib/data/index.js -->
<g id="edge19" class="edge">
<title>lib/gen&#45;dinamic&#45;data/gen&#45;anagrafica.js&#45;&gt;lib/data/index.js</title>
<path fill="none" stroke="#000000" stroke-width="2" stroke-opacity="0.466667" d="M517.9367,-312.6507C529.3319,-314.7432 540.5763,-319.2075 548.1567,-328 558.6204,-340.1368 552.9668,-456.296 556.1567,-472 564.5959,-513.5455 583.6737,-559.6926 594.6768,-584.2827"/>
<polygon fill="#000000" fill-opacity="0.466667" stroke="#000000" stroke-width="2" stroke-opacity="0.466667" points="591.5114,-585.7772 598.8434,-593.4252 597.8811,-582.8742 591.5114,-585.7772"/>
</g>
<!-- lib/gen&#45;dinamic&#45;data/gen&#45;birthday.js -->
<g id="node13" class="node">
<title>lib/gen&#45;dinamic&#45;data/gen&#45;birthday.js</title>
<g id="a_node13"><a xlink:href="lib/gen-dinamic-data/gen-birthday.js" xlink:title="gen&#45;birthday.js">
<path fill="#ffffcc" stroke="#000000" d="M634.6228,-336.5C634.6228,-336.5 571.218,-336.5 571.218,-336.5 568.3847,-336.5 565.5513,-333.6667 565.5513,-330.8333 565.5513,-330.8333 565.5513,-325.1667 565.5513,-325.1667 565.5513,-322.3333 568.3847,-319.5 571.218,-319.5 571.218,-319.5 634.6228,-319.5 634.6228,-319.5 637.4562,-319.5 640.2895,-322.3333 640.2895,-325.1667 640.2895,-325.1667 640.2895,-330.8333 640.2895,-330.8333 640.2895,-333.6667 637.4562,-336.5 634.6228,-336.5"/>
<text text-anchor="middle" x="602.9204" y="-325.3" font-family="Helvetica,sans-Serif" font-size="9.00" fill="#000000">gen&#45;birthday.js</text>
</a>
</g>
</g>
<!-- lib/gen&#45;dinamic&#45;data/gen&#45;anagrafica.js&#45;&gt;lib/gen&#45;dinamic&#45;data/gen&#45;birthday.js -->
<g id="edge20" class="edge">
<title>lib/gen&#45;dinamic&#45;data/gen&#45;anagrafica.js&#45;&gt;lib/gen&#45;dinamic&#45;data/gen&#45;birthday.js</title>
<path fill="none" stroke="#000000" stroke-width="2" stroke-opacity="0.466667" d="M518.2093,-318.0365C530.1943,-319.4462 543.2898,-320.9864 555.5232,-322.4253"/>
<polygon fill="#000000" fill-opacity="0.466667" stroke="#000000" stroke-width="2" stroke-opacity="0.466667" points="555.2127,-325.9128 565.5531,-323.605 556.0305,-318.9607 555.2127,-325.9128"/>
</g>
<!-- lib/gen&#45;dinamic&#45;data/gen&#45;anagrafica.js&#45;&gt;lib/gen&#45;dinamic&#45;data/gen&#45;random&#45;var/index.js -->
<g id="edge21" class="edge">
<title>lib/gen&#45;dinamic&#45;data/gen&#45;anagrafica.js&#45;&gt;lib/gen&#45;dinamic&#45;data/gen&#45;random&#45;var/index.js</title>
<path fill="none" stroke="#000000" stroke-width="2" stroke-opacity="0.466667" d="M518.2167,-304.5702C529.6197,-300.2687 540.7982,-293.7807 548.1567,-284 559.031,-269.5463 542.7531,-215.1451 556.1567,-203 572.7529,-187.9622 634.7442,-199.996 656.9375,-203 664.5691,-204.033 672.6156,-205.7974 680.2056,-207.7864"/>
<polygon fill="#000000" fill-opacity="0.466667" stroke="#000000" stroke-width="2" stroke-opacity="0.466667" points="679.2735,-211.16 689.847,-210.488 681.1622,-204.4196 679.2735,-211.16"/>
</g>
<!-- lib/gen&#45;dinamic&#45;data/gen&#45;company.js -->
<g id="node14" class="node">
<title>lib/gen&#45;dinamic&#45;data/gen&#45;company.js</title>
<g id="a_node14"><a xlink:href="lib/gen-dinamic-data/gen-company.js" xlink:title="gen&#45;company.js">
<path fill="#ffffcc" stroke="#000000" d="M509.0898,-248.5C509.0898,-248.5 441.6866,-248.5 441.6866,-248.5 438.8532,-248.5 436.0199,-245.6667 436.0199,-242.8333 436.0199,-242.8333 436.0199,-237.1667 436.0199,-237.1667 436.0199,-234.3333 438.8532,-231.5 441.6866,-231.5 441.6866,-231.5 509.0898,-231.5 509.0898,-231.5 511.9231,-231.5 514.7565,-234.3333 514.7565,-237.1667 514.7565,-237.1667 514.7565,-242.8333 514.7565,-242.8333 514.7565,-245.6667 511.9231,-248.5 509.0898,-248.5"/>
<text text-anchor="middle" x="475.3882" y="-237.3" font-family="Helvetica,sans-Serif" font-size="9.00" fill="#000000">gen&#45;company.js</text>
</a>
</g>
</g>
<!-- lib/gen&#45;dinamic&#45;data/gen&#45;legal&#45;type&#45;id.js -->
<g id="node15" class="node">
<title>lib/gen&#45;dinamic&#45;data/gen&#45;legal&#45;type&#45;id.js</title>
<g id="a_node15"><a xlink:href="lib/gen-dinamic-data/gen-legal-type-id.js" xlink:title="gen&#45;legal&#45;type&#45;id.js">
<path fill="#ffffcc" stroke="#000000" d="M391.9723,-409.5C391.9723,-409.5 311.2284,-409.5 311.2284,-409.5 308.3951,-409.5 305.5618,-406.6667 305.5618,-403.8333 305.5618,-403.8333 305.5618,-398.1667 305.5618,-398.1667 305.5618,-395.3333 308.3951,-392.5 311.2284,-392.5 311.2284,-392.5 391.9723,-392.5 391.9723,-392.5 394.8056,-392.5 397.6389,-395.3333 397.6389,-398.1667 397.6389,-398.1667 397.6389,-403.8333 397.6389,-403.8333 397.6389,-406.6667 394.8056,-409.5 391.9723,-409.5"/>
<text text-anchor="middle" x="351.6003" y="-398.3" font-family="Helvetica,sans-Serif" font-size="9.00" fill="#000000">gen&#45;legal&#45;type&#45;id.js</text>
</a>
</g>
</g>
<!-- lib/gen&#45;dinamic&#45;data/gen&#45;national&#45;id/index.js -->
<g id="node16" class="node">
<title>lib/gen&#45;dinamic&#45;data/gen&#45;national&#45;id/index.js</title>
<g id="a_node16"><a xlink:href="lib/gen-dinamic-data/gen-national-id/index.js" xlink:title="index.js">
<path fill="#ffffcc" stroke="#000000" d="M496.7215,-392.5C496.7215,-392.5 454.0549,-392.5 454.0549,-392.5 451.2215,-392.5 448.3882,-389.6667 448.3882,-386.8333 448.3882,-386.8333 448.3882,-381.1667 448.3882,-381.1667 448.3882,-378.3333 451.2215,-375.5 454.0549,-375.5 454.0549,-375.5 496.7215,-375.5 496.7215,-375.5 499.5549,-375.5 502.3882,-378.3333 502.3882,-381.1667 502.3882,-381.1667 502.3882,-386.8333 502.3882,-386.8333 502.3882,-389.6667 499.5549,-392.5 496.7215,-392.5"/>
<text text-anchor="middle" x="475.3882" y="-381.3" font-family="Helvetica,sans-Serif" font-size="9.00" fill="#000000">index.js</text>
</a>
</g>
</g>
<!-- lib/gen&#45;dinamic&#45;data/gen&#45;national&#45;id/it.national&#45;id/index.js -->
<g id="node19" class="node">
<title>lib/gen&#45;dinamic&#45;data/gen&#45;national&#45;id/it.national&#45;id/index.js</title>
<g id="a_node19"><a xlink:href="lib/gen-dinamic-data/gen-national-id/it.national-id/index.js" xlink:title="index.js">
<path fill="#ffffcc" stroke="#000000" d="M624.2537,-392.5C624.2537,-392.5 581.5871,-392.5 581.5871,-392.5 578.7537,-392.5 575.9204,-389.6667 575.9204,-386.8333 575.9204,-386.8333 575.9204,-381.1667 575.9204,-381.1667 575.9204,-378.3333 578.7537,-375.5 581.5871,-375.5 581.5871,-375.5 624.2537,-375.5 624.2537,-375.5 627.0871,-375.5 629.9204,-378.3333 629.9204,-381.1667 629.9204,-381.1667 629.9204,-386.8333 629.9204,-386.8333 629.9204,-389.6667 627.0871,-392.5 624.2537,-392.5"/>
<text text-anchor="middle" x="602.9204" y="-381.3" font-family="Helvetica,sans-Serif" font-size="9.00" fill="#000000">index.js</text>
</a>
</g>
</g>
<!-- lib/gen&#45;dinamic&#45;data/gen&#45;national&#45;id/index.js&#45;&gt;lib/gen&#45;dinamic&#45;data/gen&#45;national&#45;id/it.national&#45;id/index.js -->
<g id="edge22" class="edge">
<title>lib/gen&#45;dinamic&#45;data/gen&#45;national&#45;id/index.js&#45;&gt;lib/gen&#45;dinamic&#45;data/gen&#45;national&#45;id/it.national&#45;id/index.js</title>
<path fill="none" stroke="#000000" stroke-width="2" stroke-opacity="0.466667" d="M502.4345,-384C520.8646,-384 545.5027,-384 565.7694,-384"/>
<polygon fill="#000000" fill-opacity="0.466667" stroke="#000000" stroke-width="2" stroke-opacity="0.466667" points="565.9131,-387.5001 575.9131,-384 565.9131,-380.5001 565.9131,-387.5001"/>
</g>
<!-- lib/gen&#45;dinamic&#45;data/gen&#45;national&#45;id/static&#45;nat&#45;ids.js -->
<g id="node20" class="node">
<title>lib/gen&#45;dinamic&#45;data/gen&#45;national&#45;id/static&#45;nat&#45;ids.js</title>
<g id="a_node20"><a xlink:href="lib/gen-dinamic-data/gen-national-id/static-nat-ids.js" xlink:title="static&#45;nat&#45;ids.js">
<path fill="#ffffcc" stroke="#000000" d="M635.2699,-443.5C635.2699,-443.5 570.571,-443.5 570.571,-443.5 567.7376,-443.5 564.9043,-440.6667 564.9043,-437.8333 564.9043,-437.8333 564.9043,-432.1667 564.9043,-432.1667 564.9043,-429.3333 567.7376,-426.5 570.571,-426.5 570.571,-426.5 635.2699,-426.5 635.2699,-426.5 638.1032,-426.5 640.9365,-429.3333 640.9365,-432.1667 640.9365,-432.1667 640.9365,-437.8333 640.9365,-437.8333 640.9365,-440.6667 638.1032,-443.5 635.2699,-443.5"/>
<text text-anchor="middle" x="602.9204" y="-432.3" font-family="Helvetica,sans-Serif" font-size="9.00" fill="#000000">static&#45;nat&#45;ids.js</text>
</a>
</g>
</g>
<!-- lib/gen&#45;dinamic&#45;data/gen&#45;national&#45;id/index.js&#45;&gt;lib/gen&#45;dinamic&#45;data/gen&#45;national&#45;id/static&#45;nat&#45;ids.js -->
<g id="edge23" class="edge">
<title>lib/gen&#45;dinamic&#45;data/gen&#45;national&#45;id/index.js&#45;&gt;lib/gen&#45;dinamic&#45;data/gen&#45;national&#45;id/static&#45;nat&#45;ids.js</title>
<path fill="none" stroke="#000000" stroke-width="2" stroke-opacity="0.466667" d="M492.4255,-392.6442C508.5733,-400.6346 533.6402,-412.5189 556.1567,-421 558.2187,-421.7767 560.3443,-422.54 562.4991,-423.2847"/>
<polygon fill="#000000" fill-opacity="0.466667" stroke="#000000" stroke-width="2" stroke-opacity="0.466667" points="561.436,-426.6194 572.0288,-426.4137 563.6197,-419.9687 561.436,-426.6194"/>
</g>
<!-- lib/gen&#45;dinamic&#45;data/gen&#45;national&#45;id/it.national&#45;id/CodiceFiscale.js -->
<g id="node17" class="node">
<title>lib/gen&#45;dinamic&#45;data/gen&#45;national&#45;id/it.national&#45;id/CodiceFiscale.js</title>
<g id="a_node17"><a xlink:href="lib/gen-dinamic-data/gen-national-id/it.national-id/CodiceFiscale.js" xlink:title="CodiceFiscale.js">
<path fill="#ffffcc" stroke="#000000" d="M749.8152,-392.5C749.8152,-392.5 680.1008,-392.5 680.1008,-392.5 677.2675,-392.5 674.4342,-389.6667 674.4342,-386.8333 674.4342,-386.8333 674.4342,-381.1667 674.4342,-381.1667 674.4342,-378.3333 677.2675,-375.5 680.1008,-375.5 680.1008,-375.5 749.8152,-375.5 749.8152,-375.5 752.6485,-375.5 755.4819,-378.3333 755.4819,-381.1667 755.4819,-381.1667 755.4819,-386.8333 755.4819,-386.8333 755.4819,-389.6667 752.6485,-392.5 749.8152,-392.5"/>
<text text-anchor="middle" x="714.958" y="-381.3" font-family="Helvetica,sans-Serif" font-size="9.00" fill="#000000">CodiceFiscale.js</text>
</a>
</g>
</g>
<!-- lib/gen&#45;dinamic&#45;data/gen&#45;national&#45;id/it.national&#45;id/constants.js -->
<g id="node18" class="node">
<title>lib/gen&#45;dinamic&#45;data/gen&#45;national&#45;id/it.national&#45;id/constants.js</title>
<g id="a_node18"><a xlink:href="lib/gen-dinamic-data/gen-national-id/it.national-id/constants.js" xlink:title="constants.js">
<path fill="#ffffcc" stroke="#000000" d="M868.6068,-392.5C868.6068,-392.5 816.8917,-392.5 816.8917,-392.5 814.0584,-392.5 811.225,-389.6667 811.225,-386.8333 811.225,-386.8333 811.225,-381.1667 811.225,-381.1667 811.225,-378.3333 814.0584,-375.5 816.8917,-375.5 816.8917,-375.5 868.6068,-375.5 868.6068,-375.5 871.4402,-375.5 874.2735,-378.3333 874.2735,-381.1667 874.2735,-381.1667 874.2735,-386.8333 874.2735,-386.8333 874.2735,-389.6667 871.4402,-392.5 868.6068,-392.5"/>
<text text-anchor="middle" x="842.7493" y="-381.3" font-family="Helvetica,sans-Serif" font-size="9.00" fill="#000000">constants.js</text>
</a>
</g>
</g>
<!-- lib/gen&#45;dinamic&#45;data/gen&#45;national&#45;id/it.national&#45;id/CodiceFiscale.js&#45;&gt;lib/gen&#45;dinamic&#45;data/gen&#45;national&#45;id/it.national&#45;id/constants.js -->
<g id="edge24" class="edge">
<title>lib/gen&#45;dinamic&#45;data/gen&#45;national&#45;id/it.national&#45;id/CodiceFiscale.js&#45;&gt;lib/gen&#45;dinamic&#45;data/gen&#45;national&#45;id/it.national&#45;id/constants.js</title>
<path fill="none" stroke="#000000" stroke-width="2" stroke-opacity="0.466667" d="M755.7433,-384C770.0852,-384 786.2224,-384 800.6689,-384"/>
<polygon fill="#000000" fill-opacity="0.466667" stroke="#000000" stroke-width="2" stroke-opacity="0.466667" points="800.8395,-387.5001 810.8395,-384 800.8395,-380.5001 800.8395,-387.5001"/>
</g>
<!-- lib/gen&#45;dinamic&#45;data/gen&#45;national&#45;id/it.national&#45;id/index.js&#45;&gt;lib/gen&#45;dinamic&#45;data/gen&#45;national&#45;id/it.national&#45;id/CodiceFiscale.js -->
<g id="edge25" class="edge">
<title>lib/gen&#45;dinamic&#45;data/gen&#45;national&#45;id/it.national&#45;id/index.js&#45;&gt;lib/gen&#45;dinamic&#45;data/gen&#45;national&#45;id/it.national&#45;id/CodiceFiscale.js</title>
<path fill="none" stroke="#000000" stroke-width="2" stroke-opacity="0.466667" d="M630.0416,-384C640.2597,-384 652.2443,-384 663.9362,-384"/>
<polygon fill="#000000" fill-opacity="0.466667" stroke="#000000" stroke-width="2" stroke-opacity="0.466667" points="664.0839,-387.5001 674.0839,-384 664.0838,-380.5001 664.0839,-387.5001"/>
</g>
<!-- lib/gen&#45;dinamic&#45;data/gen&#45;phone&#45;number.js -->
<g id="node21" class="node">
<title>lib/gen&#45;dinamic&#45;data/gen&#45;phone&#45;number.js</title>
<g id="a_node21"><a xlink:href="lib/gen-dinamic-data/gen-phone-number.js" xlink:title="gen&#45;phone&#45;number.js">
<path fill="#ffffcc" stroke="#000000" d="M520.2821,-350.5C520.2821,-350.5 430.4943,-350.5 430.4943,-350.5 427.661,-350.5 424.8276,-347.6667 424.8276,-344.8333 424.8276,-344.8333 424.8276,-339.1667 424.8276,-339.1667 424.8276,-336.3333 427.661,-333.5 430.4943,-333.5 430.4943,-333.5 520.2821,-333.5 520.2821,-333.5 523.1154,-333.5 525.9487,-336.3333 525.9487,-339.1667 525.9487,-339.1667 525.9487,-344.8333 525.9487,-344.8333 525.9487,-347.6667 523.1154,-350.5 520.2821,-350.5"/>
<text text-anchor="middle" x="475.3882" y="-339.3" font-family="Helvetica,sans-Serif" font-size="9.00" fill="#000000">gen&#45;phone&#45;number.js</text>
</a>
</g>
</g>
<!-- lib/gen&#45;dinamic&#45;data/gen&#45;phone&#45;number.js&#45;&gt;lib/data/index.js -->
<g id="edge26" class="edge">
<title>lib/gen&#45;dinamic&#45;data/gen&#45;phone&#45;number.js&#45;&gt;lib/data/index.js</title>
<path fill="none" stroke="#000000" stroke-width="2" stroke-opacity="0.466667" d="M526.0976,-342.9652C534.5038,-345.3929 542.3568,-349.4507 548.1567,-356 556.7221,-365.672 553.5004,-459.3565 556.1567,-472 564.8732,-513.4882 583.8454,-559.6571 594.7565,-584.2662"/>
<polygon fill="#000000" fill-opacity="0.466667" stroke="#000000" stroke-width="2" stroke-opacity="0.466667" points="591.5822,-585.7413 598.8857,-593.4165 597.9626,-582.8619 591.5822,-585.7413"/>
</g>
<!-- lib/gen&#45;dinamic&#45;data/gen&#45;phone&#45;number.js&#45;&gt;lib/gen&#45;dinamic&#45;data/gen&#45;random&#45;var/index.js -->
<g id="edge27" class="edge">
<title>lib/gen&#45;dinamic&#45;data/gen&#45;phone&#45;number.js&#45;&gt;lib/gen&#45;dinamic&#45;data/gen&#45;random&#45;var/index.js</title>
<path fill="none" stroke="#000000" stroke-width="2" stroke-opacity="0.466667" d="M526.0359,-348.2473C572.1023,-352.8739 635.9944,-356.3229 656.9375,-343 693.5987,-319.6781 707.4874,-266.4306 712.4322,-237.8911"/>
<polygon fill="#000000" fill-opacity="0.466667" stroke="#000000" stroke-width="2" stroke-opacity="0.466667" points="715.9472,-238.0596 714.0029,-227.6447 709.028,-236.9989 715.9472,-238.0596"/>
</g>
<!-- lib/gen&#45;dinamic&#45;data/gen&#45;random&#45;var/__tests/gen.spec.js -->
<g id="node22" class="node">
<title>lib/gen&#45;dinamic&#45;data/gen&#45;random&#45;var/__tests/gen.spec.js</title>
<g id="a_node22"><a xlink:href="lib/gen-dinamic-data/gen-random-var/__tests/gen.spec.js" xlink:title="gen.spec.js">
<path fill="#ffffcc" stroke="#000000" d="M627.7829,-260.5C627.7829,-260.5 578.0579,-260.5 578.0579,-260.5 575.2246,-260.5 572.3913,-257.6667 572.3913,-254.8333 572.3913,-254.8333 572.3913,-249.1667 572.3913,-249.1667 572.3913,-246.3333 575.2246,-243.5 578.0579,-243.5 578.0579,-243.5 627.7829,-243.5 627.7829,-243.5 630.6162,-243.5 633.4496,-246.3333 633.4496,-249.1667 633.4496,-249.1667 633.4496,-254.8333 633.4496,-254.8333 633.4496,-257.6667 630.6162,-260.5 627.7829,-260.5"/>
<text text-anchor="middle" x="602.9204" y="-249.3" font-family="Helvetica,sans-Serif" font-size="9.00" fill="#000000">gen.spec.js</text>
</a>
</g>
</g>
<!-- lib/gen&#45;dinamic&#45;data/gen&#45;random&#45;var/__tests/gen.spec.js&#45;&gt;lib/gen&#45;dinamic&#45;data/gen&#45;random&#45;var/index.js -->
<g id="edge28" class="edge">
<title>lib/gen&#45;dinamic&#45;data/gen&#45;random&#45;var/__tests/gen.spec.js&#45;&gt;lib/gen&#45;dinamic&#45;data/gen&#45;random&#45;var/index.js</title>
<path fill="none" stroke="#000000" stroke-width="2" stroke-opacity="0.466667" d="M633.5792,-244.4111C641.2341,-242.4183 649.407,-240.2065 656.9375,-238 664.5051,-235.7826 672.5745,-233.2493 680.2149,-230.7711"/>
<polygon fill="#000000" fill-opacity="0.466667" stroke="#000000" stroke-width="2" stroke-opacity="0.466667" points="681.5268,-234.0241 689.9335,-227.576 679.3406,-227.3743 681.5268,-234.0241"/>
</g>
<!-- lib/gen&#45;dinamic&#45;data/gen&#45;random&#45;var/__tests/get.spec.js -->
<g id="node23" class="node">
<title>lib/gen&#45;dinamic&#45;data/gen&#45;random&#45;var/__tests/get.spec.js</title>
<g id="a_node23"><a xlink:href="lib/gen-dinamic-data/gen-random-var/__tests/get.spec.js" xlink:title="get.spec.js">
<path fill="#ffffcc" stroke="#000000" d="M626.7762,-231.5C626.7762,-231.5 579.0646,-231.5 579.0646,-231.5 576.2313,-231.5 573.3979,-228.6667 573.3979,-225.8333 573.3979,-225.8333 573.3979,-220.1667 573.3979,-220.1667 573.3979,-217.3333 576.2313,-214.5 579.0646,-214.5 579.0646,-214.5 626.7762,-214.5 626.7762,-214.5 629.6095,-214.5 632.4429,-217.3333 632.4429,-220.1667 632.4429,-220.1667 632.4429,-225.8333 632.4429,-225.8333 632.4429,-228.6667 629.6095,-231.5 626.7762,-231.5"/>
<text text-anchor="middle" x="602.9204" y="-220.3" font-family="Helvetica,sans-Serif" font-size="9.00" fill="#000000">get.spec.js</text>
</a>
</g>
</g>
<!-- lib/gen&#45;dinamic&#45;data/gen&#45;random&#45;var/__tests/get.spec.js&#45;&gt;lib/gen&#45;dinamic&#45;data/gen&#45;random&#45;var/index.js -->
<g id="edge29" class="edge">
<title>lib/gen&#45;dinamic&#45;data/gen&#45;random&#45;var/__tests/get.spec.js&#45;&gt;lib/gen&#45;dinamic&#45;data/gen&#45;random&#45;var/index.js</title>
<path fill="none" stroke="#000000" stroke-width="2" stroke-opacity="0.466667" d="M632.6503,-221.9386C646.4221,-221.4469 662.9354,-220.8573 677.5442,-220.3358"/>
<polygon fill="#000000" fill-opacity="0.466667" stroke="#000000" stroke-width="2" stroke-opacity="0.466667" points="677.91,-223.825 687.7787,-219.9704 677.6602,-216.8295 677.91,-223.825"/>
</g>
<!-- lib/gen&#45;dinamic&#45;data/gen&#45;random&#45;var/gen&#45;random&#45;number.js -->
<g id="node24" class="node">
<title>lib/gen&#45;dinamic&#45;data/gen&#45;random&#45;var/gen&#45;random&#45;number.js</title>
<g id="a_node24"><a xlink:href="lib/gen-dinamic-data/gen-random-var/gen-random-number.js" xlink:title="gen&#45;random&#45;number.js">
<path fill="#ffffcc" stroke="#000000" d="M890.1329,-223.5C890.1329,-223.5 795.3657,-223.5 795.3657,-223.5 792.5323,-223.5 789.699,-220.6667 789.699,-217.8333 789.699,-217.8333 789.699,-212.1667 789.699,-212.1667 789.699,-209.3333 792.5323,-206.5 795.3657,-206.5 795.3657,-206.5 890.1329,-206.5 890.1329,-206.5 892.9662,-206.5 895.7995,-209.3333 895.7995,-212.1667 895.7995,-212.1667 895.7995,-217.8333 895.7995,-217.8333 895.7995,-220.6667 892.9662,-223.5 890.1329,-223.5"/>
<text text-anchor="middle" x="842.7493" y="-212.3" font-family="Helvetica,sans-Serif" font-size="9.00" fill="#000000">gen&#45;random&#45;number.js</text>
</a>
</g>
</g>
<!-- lib/gen&#45;dinamic&#45;data/gen&#45;random&#45;var/gen&#45;random&#45;string.js -->
<g id="node25" class="node">
<title>lib/gen&#45;dinamic&#45;data/gen&#45;random&#45;var/gen&#45;random&#45;string.js</title>
<g id="a_node25"><a xlink:href="lib/gen-dinamic-data/gen-random-var/gen-random-string.js" xlink:title="gen&#45;random&#45;string.js">
<path fill="#ffffcc" stroke="#000000" d="M886.1174,-252.5C886.1174,-252.5 799.3811,-252.5 799.3811,-252.5 796.5478,-252.5 793.7145,-249.6667 793.7145,-246.8333 793.7145,-246.8333 793.7145,-241.1667 793.7145,-241.1667 793.7145,-238.3333 796.5478,-235.5 799.3811,-235.5 799.3811,-235.5 886.1174,-235.5 886.1174,-235.5 888.9507,-235.5 891.7841,-238.3333 891.7841,-241.1667 891.7841,-241.1667 891.7841,-246.8333 891.7841,-246.8333 891.7841,-249.6667 888.9507,-252.5 886.1174,-252.5"/>
<text text-anchor="middle" x="842.7493" y="-241.3" font-family="Helvetica,sans-Serif" font-size="9.00" fill="#000000">gen&#45;random&#45;string.js</text>
</a>
</g>
</g>
<!-- lib/gen&#45;dinamic&#45;data/gen&#45;random&#45;var/get&#45;random&#45;array&#45;element.js -->
<g id="node26" class="node">
<title>lib/gen&#45;dinamic&#45;data/gen&#45;random&#45;var/get&#45;random&#45;array&#45;element.js</title>
<g id="a_node26"><a xlink:href="lib/gen-dinamic-data/gen-random-var/get-random-array-element.js" xlink:title="get&#45;random&#45;array&#45;element.js">
<path fill="#ffffcc" stroke="#000000" d="M901.6249,-281.5C901.6249,-281.5 783.8736,-281.5 783.8736,-281.5 781.0403,-281.5 778.207,-278.6667 778.207,-275.8333 778.207,-275.8333 778.207,-270.1667 778.207,-270.1667 778.207,-267.3333 781.0403,-264.5 783.8736,-264.5 783.8736,-264.5 901.6249,-264.5 901.6249,-264.5 904.4582,-264.5 907.2916,-267.3333 907.2916,-270.1667 907.2916,-270.1667 907.2916,-275.8333 907.2916,-275.8333 907.2916,-278.6667 904.4582,-281.5 901.6249,-281.5"/>
<text text-anchor="middle" x="842.7493" y="-270.3" font-family="Helvetica,sans-Serif" font-size="9.00" fill="#000000">get&#45;random&#45;array&#45;element.js</text>
</a>
</g>
</g>
<!-- lib/gen&#45;dinamic&#45;data/gen&#45;random&#45;var/index.js&#45;&gt;lib/gen&#45;dinamic&#45;data/gen&#45;random&#45;var/gen&#45;random&#45;number.js -->
<g id="edge30" class="edge">
<title>lib/gen&#45;dinamic&#45;data/gen&#45;random&#45;var/index.js&#45;&gt;lib/gen&#45;dinamic&#45;data/gen&#45;random&#45;var/gen&#45;random&#45;number.js</title>
<path fill="none" stroke="#000000" stroke-width="2" stroke-opacity="0.466667" d="M742.0592,-218.1517C753.0937,-217.8063 766.3491,-217.3914 779.5639,-216.9778"/>
<polygon fill="#000000" fill-opacity="0.466667" stroke="#000000" stroke-width="2" stroke-opacity="0.466667" points="779.7385,-220.4741 789.624,-216.6629 779.5194,-213.4775 779.7385,-220.4741"/>
</g>
<!-- lib/gen&#45;dinamic&#45;data/gen&#45;random&#45;var/index.js&#45;&gt;lib/gen&#45;dinamic&#45;data/gen&#45;random&#45;var/gen&#45;random&#45;string.js -->
<g id="edge31" class="edge">
<title>lib/gen&#45;dinamic&#45;data/gen&#45;random&#45;var/index.js&#45;&gt;lib/gen&#45;dinamic&#45;data/gen&#45;random&#45;var/gen&#45;random&#45;string.js</title>
<path fill="none" stroke="#000000" stroke-width="2" stroke-opacity="0.466667" d="M742.0592,-224.3019C755.7714,-226.9844 772.9129,-230.3378 789.1446,-233.5132"/>
<polygon fill="#000000" fill-opacity="0.466667" stroke="#000000" stroke-width="2" stroke-opacity="0.466667" points="788.6087,-236.9747 799.0947,-235.4598 789.9527,-230.1049 788.6087,-236.9747"/>
</g>
<!-- lib/gen&#45;dinamic&#45;data/gen&#45;random&#45;var/index.js&#45;&gt;lib/gen&#45;dinamic&#45;data/gen&#45;random&#45;var/get&#45;random&#45;array&#45;element.js -->
<g id="edge32" class="edge">
<title>lib/gen&#45;dinamic&#45;data/gen&#45;random&#45;var/index.js&#45;&gt;lib/gen&#45;dinamic&#45;data/gen&#45;random&#45;var/get&#45;random&#45;array&#45;element.js</title>
<path fill="none" stroke="#000000" stroke-width="2" stroke-opacity="0.466667" d="M725.9069,-227.6604C737.9821,-236.7876 758.3155,-250.9355 777.9785,-259 780.0541,-259.8513 782.1893,-260.6541 784.363,-261.4109"/>
<polygon fill="#000000" fill-opacity="0.466667" stroke="#000000" stroke-width="2" stroke-opacity="0.466667" points="783.4858,-264.8036 794.0745,-264.442 785.5714,-258.1215 783.4858,-264.8036"/>
</g>
<!-- lib/gen&#45;dinamic&#45;data/gen&#45;vat.js -->
<g id="node28" class="node">
<title>lib/gen&#45;dinamic&#45;data/gen&#45;vat.js</title>
<g id="a_node28"><a xlink:href="lib/gen-dinamic-data/gen-vat.js" xlink:title="gen&#45;vat.js">
<path fill="#ffffcc" stroke="#000000" d="M497.2406,-277.5C497.2406,-277.5 453.5358,-277.5 453.5358,-277.5 450.7025,-277.5 447.8691,-274.6667 447.8691,-271.8333 447.8691,-271.8333 447.8691,-266.1667 447.8691,-266.1667 447.8691,-263.3333 450.7025,-260.5 453.5358,-260.5 453.5358,-260.5 497.2406,-260.5 497.2406,-260.5 500.0739,-260.5 502.9072,-263.3333 502.9072,-266.1667 502.9072,-266.1667 502.9072,-271.8333 502.9072,-271.8333 502.9072,-274.6667 500.0739,-277.5 497.2406,-277.5"/>
<text text-anchor="middle" x="475.3882" y="-266.3" font-family="Helvetica,sans-Serif" font-size="9.00" fill="#000000">gen&#45;vat.js</text>
</a>
</g>
</g>
<!-- lib/gen&#45;dinamic&#45;data/gen&#45;vat.js&#45;&gt;lib/gen&#45;dinamic&#45;data/gen&#45;random&#45;var/index.js -->
<g id="edge33" class="edge">
<title>lib/gen&#45;dinamic&#45;data/gen&#45;vat.js&#45;&gt;lib/gen&#45;dinamic&#45;data/gen&#45;random&#45;var/index.js</title>
<path fill="none" stroke="#000000" stroke-width="2" stroke-opacity="0.466667" d="M502.9087,-274.5495C516.6185,-277.5361 533.3812,-281.5242 548.1567,-286 551.791,-287.1009 552.4203,-288.3225 556.1567,-289 600.2294,-296.9919 616.4,-308.0521 656.9375,-289 679.8658,-278.224 696.8503,-253.4452 706.3315,-236.4575"/>
<polygon fill="#000000" fill-opacity="0.466667" stroke="#000000" stroke-width="2" stroke-opacity="0.466667" points="709.4749,-237.9998 711.0351,-227.5204 703.2805,-234.7396 709.4749,-237.9998"/>
</g>
<!-- lib/gen&#45;dinamic&#45;data/index.js -->
<g id="node29" class="node">
<title>lib/gen&#45;dinamic&#45;data/index.js</title>
<g id="a_node29"><a xlink:href="lib/gen-dinamic-data/index.js" xlink:title="index.js">
<path fill="#ffffcc" stroke="#000000" d="M372.9337,-310.5C372.9337,-310.5 330.267,-310.5 330.267,-310.5 327.4337,-310.5 324.6003,-307.6667 324.6003,-304.8333 324.6003,-304.8333 324.6003,-299.1667 324.6003,-299.1667 324.6003,-296.3333 327.4337,-293.5 330.267,-293.5 330.267,-293.5 372.9337,-293.5 372.9337,-293.5 375.767,-293.5 378.6003,-296.3333 378.6003,-299.1667 378.6003,-299.1667 378.6003,-304.8333 378.6003,-304.8333 378.6003,-307.6667 375.767,-310.5 372.9337,-310.5"/>
<text text-anchor="middle" x="351.6003" y="-299.3" font-family="Helvetica,sans-Serif" font-size="9.00" fill="#000000">index.js</text>
</a>
</g>
</g>
<!-- lib/gen&#45;dinamic&#45;data/index.js&#45;&gt;lib/gen&#45;dinamic&#45;data/gen&#45;address/index.js -->
<g id="edge34" class="edge">
<title>lib/gen&#45;dinamic&#45;data/index.js&#45;&gt;lib/gen&#45;dinamic&#45;data/gen&#45;address/index.js</title>
<path fill="none" stroke="#000000" stroke-width="2" stroke-opacity="0.466667" d="M353.2694,-293.4004C359.71,-261.0939 383.9204,-147.6237 410.6196,-124 418.2057,-117.2878 428.2665,-113.6597 438.1915,-111.7866"/>
<polygon fill="#000000" fill-opacity="0.466667" stroke="#000000" stroke-width="2" stroke-opacity="0.466667" points="438.9329,-115.2184 448.3758,-110.4142 437.998,-108.2811 438.9329,-115.2184"/>
</g>
<!-- lib/gen&#45;dinamic&#45;data/index.js&#45;&gt;lib/gen&#45;dinamic&#45;data/gen&#45;anagrafica.js -->
<g id="edge35" class="edge">
<title>lib/gen&#45;dinamic&#45;data/index.js&#45;&gt;lib/gen&#45;dinamic&#45;data/gen&#45;anagrafica.js</title>
<path fill="none" stroke="#000000" stroke-width="2" stroke-opacity="0.466667" d="M378.7661,-304.414C391.6034,-305.5547 407.3876,-306.9573 422.4491,-308.2957"/>
<polygon fill="#000000" fill-opacity="0.466667" stroke="#000000" stroke-width="2" stroke-opacity="0.466667" points="422.4451,-311.8091 432.7157,-309.208 423.0648,-304.8366 422.4451,-311.8091"/>
</g>
<!-- lib/gen&#45;dinamic&#45;data/index.js&#45;&gt;lib/gen&#45;dinamic&#45;data/gen&#45;birthday.js -->
<g id="edge36" class="edge">
<title>lib/gen&#45;dinamic&#45;data/index.js&#45;&gt;lib/gen&#45;dinamic&#45;data/gen&#45;birthday.js</title>
<path fill="none" stroke="#000000" stroke-width="2" stroke-opacity="0.466667" d="M378.8863,-298.13C426.0485,-292.0004 520.4283,-282.363 548.1567,-299 554.6356,-302.8873 550.3097,-309.2148 556.1567,-314 556.3289,-314.1409 556.5024,-314.2804 556.6773,-314.4184"/>
<polygon fill="#000000" fill-opacity="0.466667" stroke="#000000" stroke-width="2" stroke-opacity="0.466667" points="554.9456,-317.4625 565.2943,-319.7327 558.62,-311.5044 554.9456,-317.4625"/>
</g>
<!-- lib/gen&#45;dinamic&#45;data/index.js&#45;&gt;lib/gen&#45;dinamic&#45;data/gen&#45;company.js -->
<g id="edge37" class="edge">
<title>lib/gen&#45;dinamic&#45;data/index.js&#45;&gt;lib/gen&#45;dinamic&#45;data/gen&#45;company.js</title>
<path fill="none" stroke="#000000" stroke-width="2" stroke-opacity="0.466667" d="M359.941,-293.3054C370.6647,-282.6481 390.3336,-264.8004 410.6196,-255 415.4913,-252.6464 420.7504,-250.6519 426.0918,-248.9637"/>
<polygon fill="#000000" fill-opacity="0.466667" stroke="#000000" stroke-width="2" stroke-opacity="0.466667" points="427.0553,-252.3286 435.7292,-246.2447 425.1545,-245.5916 427.0553,-252.3286"/>
</g>
<!-- lib/gen&#45;dinamic&#45;data/index.js&#45;&gt;lib/gen&#45;dinamic&#45;data/gen&#45;national&#45;id/index.js -->
<g id="edge38" class="edge">
<title>lib/gen&#45;dinamic&#45;data/index.js&#45;&gt;lib/gen&#45;dinamic&#45;data/gen&#45;national&#45;id/index.js</title>
<path fill="none" stroke="#000000" stroke-width="2" stroke-opacity="0.466667" d="M356.1402,-310.5315C364.6473,-325.6121 384.5115,-356.8166 410.6196,-372 418.8958,-376.8131 428.6857,-379.7615 438.1141,-381.5502"/>
<polygon fill="#000000" fill-opacity="0.466667" stroke="#000000" stroke-width="2" stroke-opacity="0.466667" points="437.7022,-385.0276 448.1144,-383.0691 438.7534,-378.107 437.7022,-385.0276"/>
</g>
<!-- lib/gen&#45;dinamic&#45;data/index.js&#45;&gt;lib/gen&#45;dinamic&#45;data/gen&#45;phone&#45;number.js -->
<g id="edge39" class="edge">
<title>lib/gen&#45;dinamic&#45;data/index.js&#45;&gt;lib/gen&#45;dinamic&#45;data/gen&#45;phone&#45;number.js</title>
<path fill="none" stroke="#000000" stroke-width="2" stroke-opacity="0.466667" d="M368.5451,-310.5607C380.1531,-316.1503 396.0299,-323.2634 410.6196,-328 413.7381,-329.0124 416.965,-329.9729 420.2375,-330.8805"/>
<polygon fill="#000000" fill-opacity="0.466667" stroke="#000000" stroke-width="2" stroke-opacity="0.466667" points="419.5707,-334.3233 430.1289,-333.4437 421.3266,-327.5471 419.5707,-334.3233"/>
</g>
<!-- lib/gen&#45;dinamic&#45;data/index.js&#45;&gt;lib/gen&#45;dinamic&#45;data/gen&#45;vat.js -->
<g id="edge40" class="edge">
<title>lib/gen&#45;dinamic&#45;data/index.js&#45;&gt;lib/gen&#45;dinamic&#45;data/gen&#45;vat.js</title>
<path fill="none" stroke="#000000" stroke-width="2" stroke-opacity="0.466667" d="M378.7661,-294.758C396.1405,-290.1263 418.9129,-284.0555 437.9858,-278.9709"/>
<polygon fill="#000000" fill-opacity="0.466667" stroke="#000000" stroke-width="2" stroke-opacity="0.466667" points="439.097,-282.297 447.858,-276.3391 437.2939,-275.5332 439.097,-282.297"/>
</g>
<!-- lib/generate&#45;credentials.js -->
<g id="node31" class="node">
<title>lib/generate&#45;credentials.js</title>
<g id="a_node31"><a xlink:href="lib/generate-credentials.js" xlink:title="generate&#45;credentials.js">
<path fill="#ffffcc" stroke="#000000" d="M283.9395,-820.5C283.9395,-820.5 188.1723,-820.5 188.1723,-820.5 185.3389,-820.5 182.5056,-817.6667 182.5056,-814.8333 182.5056,-814.8333 182.5056,-809.1667 182.5056,-809.1667 182.5056,-806.3333 185.3389,-803.5 188.1723,-803.5 188.1723,-803.5 283.9395,-803.5 283.9395,-803.5 286.7729,-803.5 289.6062,-806.3333 289.6062,-809.1667 289.6062,-809.1667 289.6062,-814.8333 289.6062,-814.8333 289.6062,-817.6667 286.7729,-820.5 283.9395,-820.5"/>
<text text-anchor="middle" x="236.0559" y="-809.3" font-family="Helvetica,sans-Serif" font-size="9.00" fill="#000000">generate&#45;credentials.js</text>
</a>
</g>
</g>
<!-- lib/util/get&#45;my&#45;date.js -->
<g id="node44" class="node">
<title>lib/util/get&#45;my&#45;date.js</title>
<g id="a_node44"><a xlink:href="lib/util/get-my-date.js" xlink:title="get&#45;my&#45;date.js">
<path fill="#ffffcc" stroke="#000000" d="M382.4527,-820.5C382.4527,-820.5 320.748,-820.5 320.748,-820.5 317.9146,-820.5 315.0813,-817.6667 315.0813,-814.8333 315.0813,-814.8333 315.0813,-809.1667 315.0813,-809.1667 315.0813,-806.3333 317.9146,-803.5 320.748,-803.5 320.748,-803.5 382.4527,-803.5 382.4527,-803.5 385.2861,-803.5 388.1194,-806.3333 388.1194,-809.1667 388.1194,-809.1667 388.1194,-814.8333 388.1194,-814.8333 388.1194,-817.6667 385.2861,-820.5 382.4527,-820.5"/>
<text text-anchor="middle" x="351.6003" y="-809.3" font-family="Helvetica,sans-Serif" font-size="9.00" fill="#000000">get&#45;my&#45;date.js</text>
</a>
</g>
</g>
<!-- lib/generate&#45;credentials.js&#45;&gt;lib/util/get&#45;my&#45;date.js -->
<g id="edge41" class="edge">
<title>lib/generate&#45;credentials.js&#45;&gt;lib/util/get&#45;my&#45;date.js</title>
<path fill="none" stroke="#000000" stroke-width="2" stroke-opacity="0.466667" d="M289.769,-812C294.6752,-812 299.6206,-812 304.4627,-812"/>
<polygon fill="#000000" fill-opacity="0.466667" stroke="#000000" stroke-width="2" stroke-opacity="0.466667" points="304.8429,-815.5001 314.8429,-812 304.8429,-808.5001 304.8429,-815.5001"/>
</g>
<!-- lib/get&#45;static&#45;data/get&#45;static&#45;national&#45;id.js -->
<g id="node32" class="node">
<title>lib/get&#45;static&#45;data/get&#45;static&#45;national&#45;id.js</title>
<g id="a_node32"><a xlink:href="lib/get-static-data/get-static-national-id.js" xlink:title="get&#45;static&#45;national&#45;id.js">
<path fill="#ffffcc" stroke="#000000" d="M522.7611,-585.5C522.7611,-585.5 428.0153,-585.5 428.0153,-585.5 425.182,-585.5 422.3486,-582.6667 422.3486,-579.8333 422.3486,-579.8333 422.3486,-574.1667 422.3486,-574.1667 422.3486,-571.3333 425.182,-568.5 428.0153,-568.5 428.0153,-568.5 522.7611,-568.5 522.7611,-568.5 525.5944,-568.5 528.4277,-571.3333 528.4277,-574.1667 528.4277,-574.1667 528.4277,-579.8333 528.4277,-579.8333 528.4277,-582.6667 525.5944,-585.5 522.7611,-585.5"/>
<text text-anchor="middle" x="475.3882" y="-574.3" font-family="Helvetica,sans-Serif" font-size="9.00" fill="#000000">get&#45;static&#45;national&#45;id.js</text>
</a>
</g>
</g>
<!-- lib/get&#45;static&#45;data/get&#45;static&#45;profile&#45;merchant.js -->
<g id="node33" class="node">
<title>lib/get&#45;static&#45;data/get&#45;static&#45;profile&#45;merchant.js</title>
<g id="a_node33"><a xlink:href="lib/get-static-data/get-static-profile-merchant.js" xlink:title="get&#45;static&#45;profile&#45;merchant.js">
<path fill="#ffffcc" stroke="#000000" d="M534.2595,-614.5C534.2595,-614.5 416.5169,-614.5 416.5169,-614.5 413.6836,-614.5 410.8503,-611.6667 410.8503,-608.8333 410.8503,-608.8333 410.8503,-603.1667 410.8503,-603.1667 410.8503,-600.3333 413.6836,-597.5 416.5169,-597.5 416.5169,-597.5 534.2595,-597.5 534.2595,-597.5 537.0928,-597.5 539.9261,-600.3333 539.9261,-603.1667 539.9261,-603.1667 539.9261,-608.8333 539.9261,-608.8333 539.9261,-611.6667 537.0928,-614.5 534.2595,-614.5"/>
<text text-anchor="middle" x="475.3882" y="-603.3" font-family="Helvetica,sans-Serif" font-size="9.00" fill="#000000">get&#45;static&#45;profile&#45;merchant.js</text>
</a>
</g>
</g>
<!-- lib/get&#45;static&#45;data/get&#45;static&#45;profile&#45;personal.js -->
<g id="node34" class="node">
<title>lib/get&#45;static&#45;data/get&#45;static&#45;profile&#45;personal.js</title>
<g id="a_node34"><a xlink:href="lib/get-static-data/get-static-profile-personal.js" xlink:title="get&#45;static&#45;profile&#45;personal.js">
<path fill="#ffffcc" stroke="#000000" d="M532.7668,-527.5C532.7668,-527.5 418.0096,-527.5 418.0096,-527.5 415.1763,-527.5 412.3429,-524.6667 412.3429,-521.8333 412.3429,-521.8333 412.3429,-516.1667 412.3429,-516.1667 412.3429,-513.3333 415.1763,-510.5 418.0096,-510.5 418.0096,-510.5 532.7668,-510.5 532.7668,-510.5 535.6001,-510.5 538.4334,-513.3333 538.4334,-516.1667 538.4334,-516.1667 538.4334,-521.8333 538.4334,-521.8333 538.4334,-524.6667 535.6001,-527.5 532.7668,-527.5"/>
<text text-anchor="middle" x="475.3882" y="-516.3" font-family="Helvetica,sans-Serif" font-size="9.00" fill="#000000">get&#45;static&#45;profile&#45;personal.js</text>
</a>
</g>
</g>
<!-- lib/get&#45;static&#45;data/get&#45;static&#45;vat&#45;id.js -->
<g id="node35" class="node">
<title>lib/get&#45;static&#45;data/get&#45;static&#45;vat&#45;id.js</title>
<g id="a_node35"><a xlink:href="lib/get-static-data/get-static-vat-id.js" xlink:title="get&#45;static&#45;vat&#45;id.js">
<path fill="#ffffcc" stroke="#000000" d="M512.7419,-556.5C512.7419,-556.5 438.0345,-556.5 438.0345,-556.5 435.2011,-556.5 432.3678,-553.6667 432.3678,-550.8333 432.3678,-550.8333 432.3678,-545.1667 432.3678,-545.1667 432.3678,-542.3333 435.2011,-539.5 438.0345,-539.5 438.0345,-539.5 512.7419,-539.5 512.7419,-539.5 515.5752,-539.5 518.4086,-542.3333 518.4086,-545.1667 518.4086,-545.1667 518.4086,-550.8333 518.4086,-550.8333 518.4086,-553.6667 515.5752,-556.5 512.7419,-556.5"/>
<text text-anchor="middle" x="475.3882" y="-545.3" font-family="Helvetica,sans-Serif" font-size="9.00" fill="#000000">get&#45;static&#45;vat&#45;id.js</text>
</a>
</g>
</g>
<!-- lib/get&#45;static&#45;data/index.js -->
<g id="node36" class="node">
<title>lib/get&#45;static&#45;data/index.js</title>
<g id="a_node36"><a xlink:href="lib/get-static-data/index.js" xlink:title="index.js">
<path fill="#ffffcc" stroke="#000000" d="M372.9337,-585.5C372.9337,-585.5 330.267,-585.5 330.267,-585.5 327.4337,-585.5 324.6003,-582.6667 324.6003,-579.8333 324.6003,-579.8333 324.6003,-574.1667 324.6003,-574.1667 324.6003,-571.3333 327.4337,-568.5 330.267,-568.5 330.267,-568.5 372.9337,-568.5 372.9337,-568.5 375.767,-568.5 378.6003,-571.3333 378.6003,-574.1667 378.6003,-574.1667 378.6003,-579.8333 378.6003,-579.8333 378.6003,-582.6667 375.767,-585.5 372.9337,-585.5"/>
<text text-anchor="middle" x="351.6003" y="-574.3" font-family="Helvetica,sans-Serif" font-size="9.00" fill="#000000">index.js</text>
</a>
</g>
</g>
<!-- lib/get&#45;static&#45;data/index.js&#45;&gt;lib/get&#45;static&#45;data/get&#45;static&#45;national&#45;id.js -->
<g id="edge42" class="edge">
<title>lib/get&#45;static&#45;data/index.js&#45;&gt;lib/get&#45;static&#45;data/get&#45;static&#45;national&#45;id.js</title>
<path fill="none" stroke="#000000" stroke-width="2" stroke-opacity="0.466667" d="M378.7661,-577C388.6743,-577 400.338,-577 412.07,-577"/>
<polygon fill="#000000" fill-opacity="0.466667" stroke="#000000" stroke-width="2" stroke-opacity="0.466667" points="412.3551,-580.5001 422.3551,-577 412.3551,-573.5001 412.3551,-580.5001"/>
</g>
<!-- lib/get&#45;static&#45;data/index.js&#45;&gt;lib/get&#45;static&#45;data/get&#45;static&#45;profile&#45;merchant.js -->
<g id="edge43" class="edge">
<title>lib/get&#45;static&#45;data/index.js&#45;&gt;lib/get&#45;static&#45;data/get&#45;static&#45;profile&#45;merchant.js</title>
<path fill="none" stroke="#000000" stroke-width="2" stroke-opacity="0.466667" d="M378.8769,-584.1506C388.8458,-586.7063 400.2251,-589.5565 410.6196,-592 415.2742,-593.0942 420.1246,-594.2021 424.9846,-595.2904"/>
<polygon fill="#000000" fill-opacity="0.466667" stroke="#000000" stroke-width="2" stroke-opacity="0.466667" points="424.3942,-598.7443 434.9141,-597.4862 425.9057,-591.9095 424.3942,-598.7443"/>
</g>
<!-- lib/get&#45;static&#45;data/index.js&#45;&gt;lib/get&#45;static&#45;data/get&#45;static&#45;profile&#45;personal.js -->
<g id="edge44" class="edge">
<title>lib/get&#45;static&#45;data/index.js&#45;&gt;lib/get&#45;static&#45;data/get&#45;static&#45;profile&#45;personal.js</title>
<path fill="none" stroke="#000000" stroke-width="2" stroke-opacity="0.466667" d="M360.8605,-568.3879C371.8842,-558.6042 391.248,-542.8518 410.6196,-534 413.2277,-532.8082 415.9396,-531.7065 418.7106,-530.6886"/>
<polygon fill="#000000" fill-opacity="0.466667" stroke="#000000" stroke-width="2" stroke-opacity="0.466667" points="419.8855,-533.9867 428.2944,-527.5414 417.7015,-527.3361 419.8855,-533.9867"/>
</g>
<!-- lib/get&#45;static&#45;data/index.js&#45;&gt;lib/get&#45;static&#45;data/get&#45;static&#45;vat&#45;id.js -->
<g id="edge45" class="edge">
<title>lib/get&#45;static&#45;data/index.js&#45;&gt;lib/get&#45;static&#45;data/get&#45;static&#45;vat&#45;id.js</title>
<path fill="none" stroke="#000000" stroke-width="2" stroke-opacity="0.466667" d="M378.6241,-570.5578C388.668,-568.1718 400.1617,-565.4513 410.6196,-563 416.3789,-561.65 422.428,-560.2394 428.4201,-558.8465"/>
<polygon fill="#000000" fill-opacity="0.466667" stroke="#000000" stroke-width="2" stroke-opacity="0.466667" points="429.4394,-562.2031 438.3892,-556.5329 427.8569,-555.3843 429.4394,-562.2031"/>
</g>
<!-- lib/index.js -->
<g id="node37" class="node">
<title>lib/index.js</title>
<g id="a_node37"><a xlink:href="lib/index.js" xlink:title="index.js">
<path fill="#ffffcc" stroke="#000000" d="M64.3333,-732.5C64.3333,-732.5 21.6667,-732.5 21.6667,-732.5 18.8333,-732.5 16,-729.6667 16,-726.8333 16,-726.8333 16,-721.1667 16,-721.1667 16,-718.3333 18.8333,-715.5 21.6667,-715.5 21.6667,-715.5 64.3333,-715.5 64.3333,-715.5 67.1667,-715.5 70,-718.3333 70,-721.1667 70,-721.1667 70,-726.8333 70,-726.8333 70,-729.6667 67.1667,-732.5 64.3333,-732.5"/>
<text text-anchor="middle" x="43" y="-721.3" font-family="Helvetica,sans-Serif" font-size="9.00" fill="#000000">index.js</text>
</a>
</g>
</g>
<!-- lib/profile/index.js -->
<g id="node41" class="node">
<title>lib/profile/index.js</title>
<g id="a_node41"><a xlink:href="lib/profile/index.js" xlink:title="index.js">
<path fill="#ffffcc" stroke="#000000" d="M149.0987,-732.5C149.0987,-732.5 106.432,-732.5 106.432,-732.5 103.5987,-732.5 100.7654,-729.6667 100.7654,-726.8333 100.7654,-726.8333 100.7654,-721.1667 100.7654,-721.1667 100.7654,-718.3333 103.5987,-715.5 106.432,-715.5 106.432,-715.5 149.0987,-715.5 149.0987,-715.5 151.932,-715.5 154.7654,-718.3333 154.7654,-721.1667 154.7654,-721.1667 154.7654,-726.8333 154.7654,-726.8333 154.7654,-729.6667 151.932,-732.5 149.0987,-732.5"/>
<text text-anchor="middle" x="127.7654" y="-721.3" font-family="Helvetica,sans-Serif" font-size="9.00" fill="#000000">index.js</text>
</a>
</g>
</g>
<!-- lib/index.js&#45;&gt;lib/profile/index.js -->
<g id="edge46" class="edge">
<title>lib/index.js&#45;&gt;lib/profile/index.js</title>
<path fill="none" stroke="#000000" stroke-width="2" stroke-opacity="0.466667" d="M70.2869,-724C76.6391,-724 83.5117,-724 90.2205,-724"/>
<polygon fill="#000000" fill-opacity="0.466667" stroke="#000000" stroke-width="2" stroke-opacity="0.466667" points="90.5297,-727.5001 100.5296,-724 90.5296,-720.5001 90.5297,-727.5001"/>
</g>
<!-- lib/profile/Profile.js -->
<g id="node38" class="node">
<title>lib/profile/Profile.js</title>
<g id="a_node38"><a xlink:href="lib/profile/Profile.js" xlink:title="Profile.js">
<path fill="#ffffcc" stroke="#000000" d="M372.9337,-681.5C372.9337,-681.5 330.267,-681.5 330.267,-681.5 327.4337,-681.5 324.6003,-678.6667 324.6003,-675.8333 324.6003,-675.8333 324.6003,-670.1667 324.6003,-670.1667 324.6003,-667.3333 327.4337,-664.5 330.267,-664.5 330.267,-664.5 372.9337,-664.5 372.9337,-664.5 375.767,-664.5 378.6003,-667.3333 378.6003,-670.1667 378.6003,-670.1667 378.6003,-675.8333 378.6003,-675.8333 378.6003,-678.6667 375.767,-681.5 372.9337,-681.5"/>
<text text-anchor="middle" x="351.6003" y="-670.3" font-family="Helvetica,sans-Serif" font-size="9.00" fill="#000000">Profile.js</text>
</a>
</g>
</g>
<!-- lib/profile/Profile.js&#45;&gt;lib/data/index.js -->
<g id="edge47" class="edge">
<title>lib/profile/Profile.js&#45;&gt;lib/data/index.js</title>
<path fill="none" stroke="#000000" stroke-width="2" stroke-opacity="0.466667" d="M378.7845,-672.9756C417.7801,-672.0412 491.1738,-666.8944 548.1567,-643 562.3613,-637.0437 576.2283,-626.6001 586.4544,-617.7444"/>
<polygon fill="#000000" fill-opacity="0.466667" stroke="#000000" stroke-width="2" stroke-opacity="0.466667" points="589.0487,-620.1171 594.1155,-610.8123 584.352,-614.9266 589.0487,-620.1171"/>
</g>
<!-- lib/profile/__tests/profile.spec.js -->
<g id="node39" class="node">
<title>lib/profile/__tests/profile.spec.js</title>
<g id="a_node39"><a xlink:href="lib/profile/__tests/profile.spec.js" xlink:title="profile.spec.js">
<path fill="#ffffcc" stroke="#000000" d="M265.9132,-681.5C265.9132,-681.5 206.1986,-681.5 206.1986,-681.5 203.3653,-681.5 200.532,-678.6667 200.532,-675.8333 200.532,-675.8333 200.532,-670.1667 200.532,-670.1667 200.532,-667.3333 203.3653,-664.5 206.1986,-664.5 206.1986,-664.5 265.9132,-664.5 265.9132,-664.5 268.7465,-664.5 271.5798,-667.3333 271.5798,-670.1667 271.5798,-670.1667 271.5798,-675.8333 271.5798,-675.8333 271.5798,-678.6667 268.7465,-681.5 265.9132,-681.5"/>
<text text-anchor="middle" x="236.0559" y="-670.3" font-family="Helvetica,sans-Serif" font-size="9.00" fill="#000000">profile.spec.js</text>
</a>
</g>
</g>
<!-- lib/profile/__tests/profile.spec.js&#45;&gt;lib/profile/Profile.js -->
<g id="edge48" class="edge">
<title>lib/profile/__tests/profile.spec.js&#45;&gt;lib/profile/Profile.js</title>
<path fill="none" stroke="#000000" stroke-width="2" stroke-opacity="0.466667" d="M271.6659,-673C285.1927,-673 300.6301,-673 314.3082,-673"/>
<polygon fill="#000000" fill-opacity="0.466667" stroke="#000000" stroke-width="2" stroke-opacity="0.466667" points="314.3643,-676.5001 324.3642,-673 314.3642,-669.5001 314.3643,-676.5001"/>
</g>
<!-- lib/profile/get&#45;profile.js -->
<g id="node40" class="node">
<title>lib/profile/get&#45;profile.js</title>
<g id="a_node40"><a xlink:href="lib/profile/get-profile.js" xlink:title="get&#45;profile.js">
<path fill="#ffffcc" stroke="#000000" d="M262.9102,-732.5C262.9102,-732.5 209.2016,-732.5 209.2016,-732.5 206.3682,-732.5 203.5349,-729.6667 203.5349,-726.8333 203.5349,-726.8333 203.5349,-721.1667 203.5349,-721.1667 203.5349,-718.3333 206.3682,-715.5 209.2016,-715.5 209.2016,-715.5 262.9102,-715.5 262.9102,-715.5 265.7436,-715.5 268.5769,-718.3333 268.5769,-721.1667 268.5769,-721.1667 268.5769,-726.8333 268.5769,-726.8333 268.5769,-729.6667 265.7436,-732.5 262.9102,-732.5"/>
<text text-anchor="middle" x="236.0559" y="-721.3" font-family="Helvetica,sans-Serif" font-size="9.00" fill="#000000">get&#45;profile.js</text>
</a>
</g>
</g>
<!-- lib/profile/get&#45;profile.js&#45;&gt;lib/gen&#45;dinamic&#45;data/index.js -->
<g id="edge49" class="edge">
<title>lib/profile/get&#45;profile.js&#45;&gt;lib/gen&#45;dinamic&#45;data/index.js</title>
<path fill="none" stroke="#000000" stroke-width="2" stroke-opacity="0.466667" d="M268.7329,-722.2449C276.7289,-720.1801 284.4523,-716.4754 289.5811,-710 300.7258,-695.9289 292.3546,-404.1722 297.5811,-387 305.5708,-360.7486 324.0657,-334.7391 337.1831,-318.5406"/>
<polygon fill="#000000" fill-opacity="0.466667" stroke="#000000" stroke-width="2" stroke-opacity="0.466667" points="340.0843,-320.5274 343.8164,-310.6116 334.7153,-316.0357 340.0843,-320.5274"/>
</g>
<!-- lib/profile/get&#45;profile.js&#45;&gt;lib/get&#45;static&#45;data/index.js -->
<g id="edge50" class="edge">
<title>lib/profile/get&#45;profile.js&#45;&gt;lib/get&#45;static&#45;data/index.js</title>
<path fill="none" stroke="#000000" stroke-width="2" stroke-opacity="0.466667" d="M268.6015,-721.8307C276.4987,-719.7527 284.2055,-716.145 289.5811,-710 299.1633,-699.0463 291.9554,-658.4222 297.5811,-645 306.0756,-624.733 322.4076,-605.5017 334.8994,-592.6962"/>
<polygon fill="#000000" fill-opacity="0.466667" stroke="#000000" stroke-width="2" stroke-opacity="0.466667" points="337.4252,-595.1208 342.0766,-585.6016 332.5042,-590.1425 337.4252,-595.1208"/>
</g>
<!-- lib/profile/get&#45;profile.js&#45;&gt;lib/profile/Profile.js -->
<g id="edge54" class="edge">
<title>lib/profile/get&#45;profile.js&#45;&gt;lib/profile/Profile.js</title>
<path fill="none" stroke="#000000" stroke-width="2" stroke-opacity="0.466667" d="M268.7271,-719.2329C276.0068,-717.1731 283.393,-714.2236 289.5811,-710 294.574,-706.5921 292.9392,-702.8725 297.5811,-699 303.7624,-693.8431 311.1395,-689.429 318.4256,-685.7795"/>
<polygon fill="#000000" fill-opacity="0.466667" stroke="#000000" stroke-width="2" stroke-opacity="0.466667" points="319.9094,-688.9496 327.5091,-681.5675 316.9646,-682.5991 319.9094,-688.9496"/>
</g>
<!-- lib/profile/mcc&#45;validate.js -->
<g id="node42" class="node">
<title>lib/profile/mcc&#45;validate.js</title>
<g id="a_node42"><a xlink:href="lib/profile/mcc-validate.js" xlink:title="mcc&#45;validate.js">
<path fill="#ffffcc" stroke="#000000" d="M383.4504,-721.5C383.4504,-721.5 319.7503,-721.5 319.7503,-721.5 316.917,-721.5 314.0837,-718.6667 314.0837,-715.8333 314.0837,-715.8333 314.0837,-710.1667 314.0837,-710.1667 314.0837,-707.3333 316.917,-704.5 319.7503,-704.5 319.7503,-704.5 383.4504,-704.5 383.4504,-704.5 386.2837,-704.5 389.117,-707.3333 389.117,-710.1667 389.117,-710.1667 389.117,-715.8333 389.117,-715.8333 389.117,-718.6667 386.2837,-721.5 383.4504,-721.5"/>
<text text-anchor="middle" x="351.6003" y="-710.3" font-family="Helvetica,sans-Serif" font-size="9.00" fill="#000000">mcc&#45;validate.js</text>
</a>
</g>
</g>
<!-- lib/profile/get&#45;profile.js&#45;&gt;lib/profile/mcc&#45;validate.js -->
<g id="edge55" class="edge">
<title>lib/profile/get&#45;profile.js&#45;&gt;lib/profile/mcc&#45;validate.js</title>
<path fill="none" stroke="#000000" stroke-width="2" stroke-opacity="0.466667" d="M268.8572,-720.8773C279.6938,-719.8456 291.9819,-718.6758 303.71,-717.5592"/>
<polygon fill="#000000" fill-opacity="0.466667" stroke="#000000" stroke-width="2" stroke-opacity="0.466667" points="304.1985,-721.0286 313.8217,-716.5966 303.535,-714.0601 304.1985,-721.0286"/>
</g>
<!-- lib/profile/get&#45;profile.js&#45;&gt;lib/util/get&#45;my&#45;date.js -->
<g id="edge51" class="edge">
<title>lib/profile/get&#45;profile.js&#45;&gt;lib/util/get&#45;my&#45;date.js</title>
<path fill="none" stroke="#000000" stroke-width="2" stroke-opacity="0.466667" d="M268.8081,-725.624C276.6083,-727.5676 284.2155,-731.0221 289.5811,-737 307.8453,-757.3487 279.4732,-777.5119 297.5811,-798 299.8587,-800.577 302.5435,-802.7086 305.4786,-804.4686"/>
<polygon fill="#000000" fill-opacity="0.466667" stroke="#000000" stroke-width="2" stroke-opacity="0.466667" points="304.3237,-807.7872 314.8784,-808.7082 307.2017,-801.4062 304.3237,-807.7872"/>
</g>
<!-- lib/util/get&#45;random&#45;user.js -->
<g id="node45" class="node">
<title>lib/util/get&#45;random&#45;user.js</title>
<g id="a_node45"><a xlink:href="lib/util/get-random-user.js" xlink:title="get&#45;random&#45;user.js">
<path fill="#ffffcc" stroke="#000000" d="M391.4703,-791.5C391.4703,-791.5 311.7304,-791.5 311.7304,-791.5 308.897,-791.5 306.0637,-788.6667 306.0637,-785.8333 306.0637,-785.8333 306.0637,-780.1667 306.0637,-780.1667 306.0637,-777.3333 308.897,-774.5 311.7304,-774.5 311.7304,-774.5 391.4703,-774.5 391.4703,-774.5 394.3036,-774.5 397.137,-777.3333 397.137,-780.1667 397.137,-780.1667 397.137,-785.8333 397.137,-785.8333 397.137,-788.6667 394.3036,-791.5 391.4703,-791.5"/>
<text text-anchor="middle" x="351.6003" y="-780.3" font-family="Helvetica,sans-Serif" font-size="9.00" fill="#000000">get&#45;random&#45;user.js</text>
</a>
</g>
</g>
<!-- lib/profile/get&#45;profile.js&#45;&gt;lib/util/get&#45;random&#45;user.js -->
<g id="edge52" class="edge">
<title>lib/profile/get&#45;profile.js&#45;&gt;lib/util/get&#45;random&#45;user.js</title>
<path fill="none" stroke="#000000" stroke-width="2" stroke-opacity="0.466667" d="M268.6255,-726.4959C276.244,-728.45 283.8098,-731.6915 289.5811,-737 297.8564,-744.6118 289.8931,-752.7954 297.5811,-761 300.8699,-764.5099 304.7981,-767.4747 309.015,-769.9759"/>
<polygon fill="#000000" fill-opacity="0.466667" stroke="#000000" stroke-width="2" stroke-opacity="0.466667" points="307.4589,-773.1109 317.9643,-774.4847 310.6085,-766.8595 307.4589,-773.1109"/>
</g>
<!-- lib/util/logger.js -->
<g id="node46" class="node">
<title>lib/util/logger.js</title>
<g id="a_node46"><a xlink:href="lib/util/logger.js" xlink:title="logger.js">
<path fill="#ffffcc" stroke="#000000" d="M496.7215,-791.5C496.7215,-791.5 454.0549,-791.5 454.0549,-791.5 451.2215,-791.5 448.3882,-788.6667 448.3882,-785.8333 448.3882,-785.8333 448.3882,-780.1667 448.3882,-780.1667 448.3882,-777.3333 451.2215,-774.5 454.0549,-774.5 454.0549,-774.5 496.7215,-774.5 496.7215,-774.5 499.5549,-774.5 502.3882,-777.3333 502.3882,-780.1667 502.3882,-780.1667 502.3882,-785.8333 502.3882,-785.8333 502.3882,-788.6667 499.5549,-791.5 496.7215,-791.5"/>
<text text-anchor="middle" x="475.3882" y="-780.3" font-family="Helvetica,sans-Serif" font-size="9.00" fill="#000000">logger.js</text>
</a>
</g>
</g>
<!-- lib/profile/get&#45;profile.js&#45;&gt;lib/util/logger.js -->
<g id="edge53" class="edge">
<title>lib/profile/get&#45;profile.js&#45;&gt;lib/util/logger.js</title>
<path fill="none" stroke="#000000" stroke-width="2" stroke-opacity="0.466667" d="M268.6126,-731.8829C275.5356,-733.566 282.8011,-735.3374 289.5811,-737 341.2097,-749.6604 400.8638,-764.4592 438.3563,-773.7809"/>
<polygon fill="#000000" fill-opacity="0.466667" stroke="#000000" stroke-width="2" stroke-opacity="0.466667" points="437.7693,-777.2415 448.3184,-776.2586 439.4588,-770.4484 437.7693,-777.2415"/>
</g>
<!-- lib/profile/index.js&#45;&gt;lib/profile/get&#45;profile.js -->
<g id="edge56" class="edge">
<title>lib/profile/index.js&#45;&gt;lib/profile/get&#45;profile.js</title>
<path fill="none" stroke="#000000" stroke-width="2" stroke-opacity="0.466667" d="M154.8123,-724C166.3794,-724 180.1695,-724 193.075,-724"/>
<polygon fill="#000000" fill-opacity="0.466667" stroke="#000000" stroke-width="2" stroke-opacity="0.466667" points="193.1759,-727.5001 203.1759,-724 193.1758,-720.5001 193.1759,-727.5001"/>
</g>
<!-- lib/profile/mcc&#45;validate.js&#45;&gt;lib/data/index.js -->
<g id="edge57" class="edge">
<title>lib/profile/mcc&#45;validate.js&#45;&gt;lib/data/index.js</title>
<path fill="none" stroke="#000000" stroke-width="2" stroke-opacity="0.466667" d="M389.1467,-709.3714C430.5941,-703.9909 498.0692,-691.0665 548.1567,-661 565.8757,-650.3637 581.3971,-632.329 591.3475,-618.9921"/>
<polygon fill="#000000" fill-opacity="0.466667" stroke="#000000" stroke-width="2" stroke-opacity="0.466667" points="594.3369,-620.8287 597.3048,-610.658 588.6422,-616.758 594.3369,-620.8287"/>
</g>
<!-- lib/profile/profile&#45;validate.js -->
<g id="node43" class="node">
<title>lib/profile/profile&#45;validate.js</title>
<g id="a_node43"><a xlink:href="lib/profile/profile-validate.js" xlink:title="profile&#45;validate.js">
<path fill="#ffffcc" stroke="#000000" d="M163.6308,-688.5C163.6308,-688.5 91.9,-688.5 91.9,-688.5 89.0666,-688.5 86.2333,-685.6667 86.2333,-682.8333 86.2333,-682.8333 86.2333,-677.1667 86.2333,-677.1667 86.2333,-674.3333 89.0666,-671.5 91.9,-671.5 91.9,-671.5 163.6308,-671.5 163.6308,-671.5 166.4641,-671.5 169.2975,-674.3333 169.2975,-677.1667 169.2975,-677.1667 169.2975,-682.8333 169.2975,-682.8333 169.2975,-685.6667 166.4641,-688.5 163.6308,-688.5"/>
<text text-anchor="middle" x="127.7654" y="-677.3" font-family="Helvetica,sans-Serif" font-size="9.00" fill="#000000">profile&#45;validate.js</text>
</a>
</g>
</g>
<!-- lib/util/get&#45;random&#45;user.js&#45;&gt;lib/util/logger.js -->
<g id="edge58" class="edge">
<title>lib/util/get&#45;random&#45;user.js&#45;&gt;lib/util/logger.js</title>
<path fill="none" stroke="#000000" stroke-width="2" stroke-opacity="0.466667" d="M397.3427,-783C410.6866,-783 425.1075,-783 437.8795,-783"/>
<polygon fill="#000000" fill-opacity="0.466667" stroke="#000000" stroke-width="2" stroke-opacity="0.466667" points="438.1602,-786.5001 448.1602,-783 438.1602,-779.5001 438.1602,-786.5001"/>
</g>
</g>
</svg>
